<svg width="586" height="577" viewBox="0 0 586 577" fill="none" xmlns="http://www.w3.org/2000/svg">
<path d="M484.977 71.4547L484.049 76.141L480.454 72.9944L484.977 71.4547ZM480.575 77.1107L477.434 80.6997L476.811 80.1547L479.953 76.5657L480.575 77.1107ZM474.292 84.2888L471.15 87.8778L470.527 87.3328L473.669 83.7438L474.292 84.2888ZM468.008 91.4669L464.867 95.0559L464.244 94.5109L467.386 90.9218L468.008 91.4669ZM461.725 98.6449L458.583 102.234L457.96 101.689L461.102 98.0999L461.725 98.6449ZM455.441 105.823L452.299 109.412L451.677 108.867L454.819 105.278L455.441 105.823ZM449.158 113.001L446.016 116.59L445.393 116.045L448.535 112.456L449.158 113.001ZM442.874 120.179L439.732 123.768L439.11 123.223L442.252 119.634L442.874 120.179ZM436.591 127.357L433.449 130.946L432.826 130.401L435.968 126.812L436.591 127.357ZM430.307 134.535L427.165 138.124L426.543 137.579L429.685 133.99L430.307 134.535ZM424.024 141.713L422.453 143.508L421.83 142.963L423.401 141.168L424.024 141.713Z" fill="url(#paint0_linear_1529_3062)"/>
<path d="M585.238 245.098L580.75 243.461L581.576 248.166L585.238 245.098ZM577.797 245.984L572.884 246.847L573.027 247.662L577.94 246.799L577.797 245.984ZM567.971 247.709L563.058 248.572L563.201 249.387L568.114 248.524L567.971 247.709ZM558.145 249.434L553.232 250.297L553.375 251.112L558.288 250.249L558.145 249.434ZM548.319 251.159L543.405 252.022L543.549 252.837L548.462 251.974L548.319 251.159ZM538.492 252.884L533.579 253.746L533.722 254.561L538.635 253.699L538.492 252.884ZM528.666 254.609L523.753 255.471L523.896 256.286L528.809 255.424L528.666 254.609ZM518.84 256.334L513.927 257.196L514.07 258.011L518.983 257.149L518.84 256.334ZM509.014 258.059L504.101 258.921L504.244 259.736L509.157 258.874L509.014 258.059ZM499.188 259.784L494.275 260.646L494.418 261.461L499.331 260.599L499.188 259.784ZM489.362 261.509L486.905 261.94L487.048 262.755L489.505 262.324L489.362 261.509Z" fill="url(#paint1_linear_1529_3062)"/>
<path d="M32.8051 443.048L37.577 443.277L35.3895 439.03L32.8051 443.048ZM39.7476 439.938L44.2495 437.619L43.8707 436.884L39.3687 439.202L39.7476 439.938ZM48.7515 435.301L53.2535 432.982L52.8746 432.246L48.3726 434.565L48.7515 435.301ZM57.7555 430.663L62.2575 428.344L61.8786 427.609L57.3766 429.927L57.7555 430.663ZM66.7595 426.026L71.2614 423.707L70.8826 422.971L66.3806 425.29L66.7595 426.026ZM75.7634 421.388L80.2654 419.069L79.8865 418.334L75.3846 420.653L75.7634 421.388ZM84.7674 416.751L89.2694 414.432L88.8905 413.696L84.3885 416.015L84.7674 416.751ZM93.7714 412.113L98.2733 409.794L97.8945 409.059L93.3925 411.378L93.7714 412.113ZM102.775 407.476L107.277 405.157L106.898 404.421L102.396 406.74L102.775 407.476ZM111.779 402.838L114.03 401.679L113.651 400.943L111.4 402.103L111.779 402.838Z" fill="url(#paint2_linear_1529_3062)"/>
<path d="M189.338 576.436L193.018 573.39L188.54 571.726L189.338 576.436ZM192.41 569.356L194.2 564.54L193.424 564.252L191.634 569.068L192.41 569.356ZM195.989 559.724L197.779 554.908L197.003 554.62L195.214 559.436L195.989 559.724ZM199.568 550.092L201.358 545.275L200.583 544.987L198.793 549.803L199.568 550.092ZM203.148 540.459L204.937 535.643L204.162 535.355L202.372 540.171L203.148 540.459ZM206.727 530.827L208.517 526.011L207.741 525.722L205.952 530.539L206.727 530.827ZM210.306 521.194L212.096 516.378L211.32 516.09L209.531 520.906L210.306 521.194ZM213.886 511.562L215.675 506.746L214.9 506.458L213.11 511.274L213.886 511.562ZM217.465 501.93L219.255 497.113L218.479 496.825L216.689 501.641L217.465 501.93ZM221.044 492.297L221.939 489.889L221.164 489.601L220.269 492.009L221.044 492.297Z" fill="url(#paint3_linear_1529_3062)"/>
<path d="M393.988 576.437L394.744 571.72L390.281 573.423L393.988 576.437ZM391.617 569.065L389.779 564.249L389.006 564.544L390.844 569.36L391.617 569.065ZM387.941 559.432L386.103 554.616L385.33 554.911L387.168 559.727L387.941 559.432ZM384.265 549.8L382.427 544.984L381.654 545.279L383.492 550.095L384.265 549.8ZM380.588 540.168L378.75 535.351L377.977 535.646L379.815 540.463L380.588 540.168ZM376.912 530.535L375.074 525.719L374.301 526.014L376.139 530.83L376.912 530.535ZM373.236 520.903L371.398 516.087L370.625 516.382L372.463 521.198L373.236 520.903ZM369.56 511.27L367.721 506.454L366.948 506.749L368.787 511.565L369.56 511.27ZM365.883 501.638L364.045 496.822L363.272 497.117L365.11 501.933L365.883 501.638ZM362.207 492.006L361.288 489.598L360.515 489.893L361.434 492.301L362.207 492.006Z" fill="url(#paint4_linear_1529_3062)"/>
<path d="M0.522829 239.007L3.9306 242.355L5.12625 237.73L0.522829 239.007ZM7.71344 241.293L12.5762 242.551L12.7833 241.749L7.92054 240.492L7.71344 241.293ZM17.439 243.808L22.3018 245.065L22.5089 244.264L17.6461 243.006L17.439 243.808ZM27.1645 246.322L32.0273 247.579L32.2344 246.778L27.3716 245.521L27.1645 246.322ZM36.8901 248.836L41.7529 250.093L41.96 249.292L37.0972 248.035L36.8901 248.836ZM46.6156 251.35L51.4784 252.607L51.6855 251.806L46.8227 250.549L46.6156 251.35ZM56.3412 253.864L61.204 255.121L61.4111 254.32L56.5483 253.063L56.3412 253.864ZM66.0667 256.378L70.9295 257.635L71.1366 256.834L66.2738 255.577L66.0667 256.378ZM75.7923 258.892L80.6551 260.149L80.8622 259.348L75.9994 258.091L75.7923 258.892ZM85.5178 261.406L90.3806 262.663L90.5877 261.862L85.7249 260.605L85.5178 261.406ZM95.2434 263.92L97.6748 264.549L97.8819 263.748L95.4505 263.119L95.2434 263.92Z" fill="url(#paint5_linear_1529_3062)"/>
<path d="M106.502 71.4548L107.176 76.1843L110.935 73.2362L106.502 71.4548ZM110.733 77.5198L113.77 81.393L114.421 80.8823L111.384 77.0092L110.733 77.5198ZM116.808 85.2661L119.845 89.1393L120.496 88.6287L117.459 84.7555L116.808 85.2661ZM122.883 93.0125L125.92 96.8856L126.572 96.375L123.534 92.5018L122.883 93.0125ZM128.958 100.759L131.996 104.632L132.647 104.121L129.609 100.248L128.958 100.759ZM135.033 108.505L138.071 112.378L138.722 111.868L135.684 107.994L135.033 108.505ZM141.108 116.251L144.146 120.125L144.797 119.614L141.759 115.741L141.108 116.251ZM147.183 123.998L150.221 127.871L150.872 127.36L147.834 123.487L147.183 123.998ZM153.258 131.744L156.296 135.617L156.947 135.107L153.91 131.233L153.258 131.744ZM159.334 139.49L162.371 143.364L163.022 142.853L159.985 138.98L159.334 139.49ZM165.409 147.237L166.927 149.173L167.579 148.663L166.06 146.726L165.409 147.237Z" fill="url(#paint6_linear_1529_3062)"/>
<path d="M291.919 0.784227L289.55 4.9326L294.327 4.9103L291.919 0.784227ZM291.539 7.96516L291.561 12.7512L292.388 12.7473L292.366 7.9613L291.539 7.96516ZM291.583 17.5372L291.606 22.3232L292.433 22.3193L292.411 17.5333L291.583 17.5372ZM291.628 27.1092L291.65 31.8952L292.478 31.8913L292.455 27.1053L291.628 27.1092ZM291.673 36.6812L291.695 41.4672L292.522 41.4633L292.5 36.6773L291.673 36.6812ZM291.717 46.2532L291.74 51.0392L292.567 51.0353L292.545 46.2493L291.717 46.2532ZM291.762 55.8252L291.784 60.6112L292.612 60.6074L292.589 55.8213L291.762 55.8252ZM291.807 65.3972L291.829 70.1832L292.656 70.1794L292.634 65.3934L291.807 65.3972ZM291.851 74.9692L291.874 79.7552L292.701 79.7514L292.679 74.9654L291.851 74.9692ZM291.896 84.5412L291.918 89.3272L292.746 89.3234L292.724 84.5374L291.896 84.5412ZM291.941 94.1132L291.963 98.8992L292.791 98.8954L292.768 94.1094L291.941 94.1132ZM291.985 103.685L291.997 106.078L292.824 106.074L292.813 103.681L291.985 103.685Z" fill="url(#paint7_linear_1529_3062)"/>
<path d="M543.21 449.748L541.031 445.497L538.439 449.511L543.21 449.748ZM536.976 445.23L532.67 442.449L532.221 443.145L536.527 445.925L536.976 445.23ZM528.365 439.669L524.059 436.888L523.61 437.584L527.916 440.364L528.365 439.669ZM519.753 434.108L515.447 431.327L514.998 432.023L519.304 434.803L519.753 434.108ZM511.141 428.547L506.836 425.767L506.387 426.462L510.693 429.242L511.141 428.547ZM502.53 422.986L498.224 420.206L497.775 420.901L502.081 423.681L502.53 422.986ZM493.918 417.425L489.613 414.645L489.164 415.34L493.47 418.12L493.918 417.425ZM485.307 411.864L481.001 409.084L480.552 409.779L484.858 412.559L485.307 411.864ZM476.695 406.303L472.39 403.523L471.941 404.218L476.246 406.998L476.695 406.303ZM468.084 400.742L465.931 399.352L465.482 400.047L467.635 401.437L468.084 400.742Z" fill="url(#paint8_linear_1529_3062)"/>
<defs>
<linearGradient id="paint0_linear_1529_3062" x1="420.948" y1="142.116" x2="486.17" y2="72.5743" gradientUnits="userSpaceOnUse">
<stop stop-color="#0026AA"/>
<stop offset="1" stop-color="#30CFFF"/>
</linearGradient>
<linearGradient id="paint1_linear_1529_3062" x1="520.219" y1="281.418" x2="551.996" y2="226.027" gradientUnits="userSpaceOnUse">
<stop stop-color="#0026AA"/>
<stop offset="1" stop-color="#30CFFF"/>
</linearGradient>
<linearGradient id="paint2_linear_1529_3062" x1="89.6109" y1="389.306" x2="57.0351" y2="455.053" gradientUnits="userSpaceOnUse">
<stop stop-color="#0026AA"/>
<stop offset="1" stop-color="#30CFFF"/>
</linearGradient>
<linearGradient id="paint3_linear_1529_3062" x1="197.632" y1="494.6" x2="213.257" y2="571.582" gradientUnits="userSpaceOnUse">
<stop stop-color="#0026AA"/>
<stop offset="1" stop-color="#30CFFF"/>
</linearGradient>
<linearGradient id="paint4_linear_1529_3062" x1="346.902" y1="504.927" x2="407.988" y2="561.254" gradientUnits="userSpaceOnUse">
<stop stop-color="#0026AA"/>
<stop offset="1" stop-color="#30CFFF"/>
</linearGradient>
<linearGradient id="paint5_linear_1529_3062" x1="82.9116" y1="234.595" x2="15.3895" y2="268.561" gradientUnits="userSpaceOnUse">
<stop stop-color="#0026AA"/>
<stop offset="1" stop-color="#30CFFF"/>
</linearGradient>
<linearGradient id="paint6_linear_1529_3062" x1="170.834" y1="113.633" x2="102.92" y2="106.74" gradientUnits="userSpaceOnUse">
<stop stop-color="#0026AA"/>
<stop offset="1" stop-color="#30CFFF"/>
</linearGradient>
<linearGradient id="paint7_linear_1529_3062" x1="317.682" y1="86.6849" x2="266.647" y2="20.1756" gradientUnits="userSpaceOnUse">
<stop stop-color="#0026AA"/>
<stop offset="1" stop-color="#30CFFF"/>
</linearGradient>
<linearGradient id="paint8_linear_1529_3062" x1="471.883" y1="431.126" x2="537.034" y2="418.322" gradientUnits="userSpaceOnUse">
<stop stop-color="#0026AA"/>
<stop offset="1" stop-color="#30CFFF"/>
</linearGradient>
</defs>
</svg>
