<svg width="218" height="152" viewBox="0 0 218 152" fill="none" xmlns="http://www.w3.org/2000/svg">
<path d="M12.752 129.601V131.452H4.52539V146.663H2.27539V129.601H12.752ZM20.1934 144.495V137.968C20.1934 137.468 20.0918 137.034 19.8887 136.667C19.6934 136.292 19.3965 136.003 18.998 135.8C18.5996 135.597 18.1074 135.495 17.5215 135.495C16.9746 135.495 16.4941 135.589 16.0801 135.777C15.6738 135.964 15.3535 136.21 15.1191 136.515C14.8926 136.82 14.7793 137.148 14.7793 137.499H12.6113C12.6113 137.046 12.7285 136.597 12.9629 136.152C13.1973 135.706 13.5332 135.304 13.9707 134.945C14.416 134.577 14.9473 134.288 15.5645 134.077C16.1895 133.859 16.8848 133.749 17.6504 133.749C18.5723 133.749 19.3848 133.906 20.0879 134.218C20.7988 134.531 21.3535 135.003 21.752 135.636C22.1582 136.261 22.3613 137.046 22.3613 137.991V143.898C22.3613 144.32 22.3965 144.769 22.4668 145.245C22.5449 145.722 22.6582 146.132 22.8066 146.476V146.663H20.5449C20.4355 146.413 20.3496 146.081 20.2871 145.667C20.2246 145.245 20.1934 144.855 20.1934 144.495ZM20.5684 138.976L20.5918 140.499H18.4004C17.7832 140.499 17.2324 140.55 16.748 140.652C16.2637 140.745 15.8574 140.89 15.5293 141.085C15.2012 141.281 14.9512 141.527 14.7793 141.823C14.6074 142.113 14.5215 142.452 14.5215 142.843C14.5215 143.241 14.6113 143.605 14.791 143.933C14.9707 144.261 15.2402 144.523 15.5996 144.718C15.9668 144.906 16.416 144.999 16.9473 144.999C17.6113 144.999 18.1973 144.859 18.7051 144.577C19.2129 144.296 19.6152 143.952 19.9121 143.546C20.2168 143.14 20.3809 142.745 20.4043 142.363L21.3301 143.406C21.2754 143.734 21.127 144.097 20.8848 144.495C20.6426 144.894 20.3184 145.277 19.9121 145.644C19.5137 146.003 19.0371 146.304 18.4824 146.546C17.9355 146.781 17.3184 146.898 16.6309 146.898C15.7715 146.898 15.0176 146.73 14.3691 146.394C13.7285 146.058 13.2285 145.609 12.8691 145.046C12.5176 144.476 12.3418 143.839 12.3418 143.136C12.3418 142.456 12.4746 141.859 12.7402 141.343C13.0059 140.82 13.3887 140.386 13.8887 140.042C14.3887 139.691 14.9902 139.425 15.6934 139.245C16.3965 139.066 17.1816 138.976 18.0488 138.976H20.5684ZM30.5059 140.605H28.1738V139.269H30.3301C30.9316 139.269 31.4082 139.195 31.7598 139.046C32.1113 138.89 32.3613 138.675 32.5098 138.402C32.6582 138.128 32.7324 137.808 32.7324 137.441C32.7324 137.113 32.6465 136.804 32.4746 136.515C32.3105 136.218 32.0449 135.98 31.6777 135.8C31.3105 135.613 30.8184 135.519 30.2012 135.519C29.7012 135.519 29.248 135.609 28.8418 135.788C28.4355 135.96 28.1113 136.198 27.8691 136.503C27.6348 136.8 27.5176 137.136 27.5176 137.511H25.3496C25.3496 136.738 25.5684 136.073 26.0059 135.519C26.4512 134.956 27.041 134.523 27.7754 134.218C28.5176 133.913 29.3262 133.761 30.2012 133.761C30.9355 133.761 31.5918 133.843 32.1699 134.007C32.7559 134.163 33.252 134.398 33.6582 134.71C34.0645 135.015 34.373 135.398 34.584 135.859C34.8027 136.312 34.9121 136.839 34.9121 137.441C34.9121 137.87 34.8105 138.277 34.6074 138.659C34.4043 139.042 34.1113 139.382 33.7285 139.679C33.3457 139.968 32.8809 140.195 32.334 140.359C31.7949 140.523 31.1855 140.605 30.5059 140.605ZM28.1738 139.784H30.5059C31.2637 139.784 31.9316 139.859 32.5098 140.007C33.0879 140.148 33.5723 140.359 33.9629 140.64C34.3535 140.921 34.6465 141.269 34.8418 141.683C35.0449 142.089 35.1465 142.558 35.1465 143.089C35.1465 143.683 35.0254 144.218 34.7832 144.695C34.5488 145.163 34.2129 145.562 33.7754 145.89C33.3379 146.218 32.8145 146.468 32.2051 146.64C31.6035 146.812 30.9355 146.898 30.2012 146.898C29.3809 146.898 28.584 146.757 27.8105 146.476C27.0371 146.195 26.4004 145.761 25.9004 145.175C25.4004 144.581 25.1504 143.827 25.1504 142.913H27.3184C27.3184 143.296 27.4395 143.659 27.6816 144.003C27.9238 144.347 28.2598 144.624 28.6895 144.835C29.127 145.046 29.6309 145.152 30.2012 145.152C30.8105 145.152 31.3184 145.058 31.7246 144.87C32.1309 144.683 32.4355 144.433 32.6387 144.12C32.8496 143.808 32.9551 143.468 32.9551 143.101C32.9551 142.624 32.8613 142.241 32.6738 141.952C32.4863 141.663 32.1973 141.452 31.8066 141.32C31.4238 141.179 30.9316 141.109 30.3301 141.109H28.1738V139.784ZM37.3848 140.464V140.195C37.3848 139.281 37.5176 138.433 37.7832 137.652C38.0488 136.863 38.4316 136.179 38.9316 135.601C39.4316 135.015 40.0371 134.562 40.748 134.241C41.459 133.913 42.2559 133.749 43.1387 133.749C44.0293 133.749 44.8301 133.913 45.541 134.241C46.2598 134.562 46.8691 135.015 47.3691 135.601C47.877 136.179 48.2637 136.863 48.5293 137.652C48.7949 138.433 48.9277 139.281 48.9277 140.195V140.464C48.9277 141.378 48.7949 142.226 48.5293 143.007C48.2637 143.788 47.877 144.472 47.3691 145.058C46.8691 145.636 46.2637 146.089 45.5527 146.417C44.8496 146.738 44.0527 146.898 43.1621 146.898C42.2715 146.898 41.4707 146.738 40.7598 146.417C40.0488 146.089 39.4395 145.636 38.9316 145.058C38.4316 144.472 38.0488 143.788 37.7832 143.007C37.5176 142.226 37.3848 141.378 37.3848 140.464ZM39.5527 140.195V140.464C39.5527 141.097 39.627 141.695 39.7754 142.257C39.9238 142.812 40.1465 143.304 40.4434 143.734C40.748 144.163 41.127 144.503 41.5801 144.753C42.0332 144.995 42.5605 145.116 43.1621 145.116C43.7559 145.116 44.2754 144.995 44.7207 144.753C45.1738 144.503 45.5488 144.163 45.8457 143.734C46.1426 143.304 46.3652 142.812 46.5137 142.257C46.6699 141.695 46.748 141.097 46.748 140.464V140.195C46.748 139.57 46.6699 138.98 46.5137 138.425C46.3652 137.863 46.1387 137.366 45.834 136.937C45.5371 136.499 45.1621 136.156 44.709 135.906C44.2637 135.656 43.7402 135.531 43.1387 135.531C42.5449 135.531 42.0215 135.656 41.5684 135.906C41.123 136.156 40.748 136.499 40.4434 136.937C40.1465 137.366 39.9238 137.863 39.7754 138.425C39.627 138.98 39.5527 139.57 39.5527 140.195ZM60.248 139.48V141.238H53.5449V139.48H60.248ZM54.002 133.984V146.663H51.834V133.984H54.002ZM62.0059 133.984V146.663H59.8262V133.984H62.0059ZM70.7598 146.898C69.877 146.898 69.0762 146.749 68.3574 146.452C67.6465 146.148 67.0332 145.722 66.5176 145.175C66.0098 144.628 65.6191 143.98 65.3457 143.23C65.0723 142.48 64.9355 141.659 64.9355 140.769V140.277C64.9355 139.245 65.0879 138.327 65.3926 137.523C65.6973 136.71 66.1113 136.023 66.6348 135.46C67.1582 134.898 67.752 134.472 68.416 134.183C69.0801 133.894 69.7676 133.749 70.4785 133.749C71.3848 133.749 72.166 133.906 72.8223 134.218C73.4863 134.531 74.0293 134.968 74.4512 135.531C74.873 136.085 75.1855 136.741 75.3887 137.499C75.5918 138.249 75.6934 139.07 75.6934 139.96V140.933H66.2246V139.163H73.5254V138.999C73.4941 138.437 73.377 137.89 73.1738 137.359C72.9785 136.827 72.666 136.39 72.2363 136.046C71.8066 135.702 71.2207 135.531 70.4785 135.531C69.9863 135.531 69.5332 135.636 69.1191 135.847C68.7051 136.05 68.3496 136.355 68.0527 136.761C67.7559 137.167 67.5254 137.663 67.3613 138.249C67.1973 138.835 67.1152 139.511 67.1152 140.277V140.769C67.1152 141.37 67.1973 141.937 67.3613 142.468C67.5332 142.991 67.7793 143.452 68.0996 143.851C68.4277 144.249 68.8223 144.562 69.2832 144.788C69.752 145.015 70.2832 145.128 70.877 145.128C71.6426 145.128 72.291 144.972 72.8223 144.659C73.3535 144.347 73.8184 143.929 74.2168 143.406L75.5293 144.448C75.2559 144.863 74.9082 145.257 74.4863 145.632C74.0645 146.007 73.5449 146.312 72.9277 146.546C72.3184 146.781 71.5957 146.898 70.7598 146.898ZM92.8027 140.546V140.792C92.8027 141.683 92.7051 142.503 92.5098 143.253C92.3145 143.995 92.0215 144.64 91.6309 145.187C91.248 145.734 90.7715 146.159 90.2012 146.464C89.6309 146.761 88.9707 146.909 88.2207 146.909C87.6035 146.909 87.0605 146.827 86.5918 146.663C86.123 146.491 85.7246 146.245 85.3965 145.925C85.0762 145.605 84.8184 145.222 84.623 144.777C84.4355 144.323 84.3066 143.816 84.2363 143.253V137.628C84.3066 137.027 84.4355 136.488 84.623 136.011C84.8184 135.534 85.0762 135.128 85.3965 134.792C85.7246 134.456 86.1191 134.198 86.5801 134.019C87.041 133.839 87.5801 133.749 88.1973 133.749C88.8066 133.749 89.3535 133.859 89.8379 134.077C90.3301 134.288 90.7598 134.593 91.127 134.991C91.502 135.39 91.8105 135.87 92.0527 136.433C92.3027 136.988 92.4902 137.613 92.6152 138.308C92.7402 139.003 92.8027 139.749 92.8027 140.546ZM90.6348 140.792V140.546C90.6348 139.999 90.5957 139.48 90.5176 138.988C90.4473 138.488 90.334 138.031 90.1777 137.616C90.0293 137.195 89.834 136.827 89.5918 136.515C89.3496 136.202 89.0566 135.96 88.7129 135.788C88.377 135.616 87.9902 135.531 87.5527 135.531C87.084 135.531 86.6934 135.589 86.3809 135.706C86.0762 135.823 85.8379 135.98 85.666 136.175C85.4941 136.363 85.3691 136.562 85.291 136.773V144.12C85.3848 144.292 85.5215 144.456 85.7012 144.613C85.8809 144.761 86.123 144.886 86.4277 144.988C86.7324 145.081 87.1152 145.128 87.5762 145.128C88.123 145.128 88.5879 145.019 88.9707 144.8C89.3613 144.573 89.6777 144.261 89.9199 143.863C90.1699 143.464 90.3496 143.003 90.459 142.48C90.5762 141.956 90.6348 141.394 90.6348 140.792ZM77.7441 140.792V140.546C77.7441 139.749 77.8066 139.003 77.9316 138.308C78.0566 137.613 78.2441 136.988 78.4941 136.433C78.7441 135.87 79.0527 135.39 79.4199 134.991C79.7949 134.593 80.2246 134.288 80.709 134.077C81.2012 133.859 81.752 133.749 82.3613 133.749C82.9629 133.749 83.4863 133.839 83.9316 134.019C84.3848 134.198 84.7676 134.456 85.0801 134.792C85.3926 135.128 85.6426 135.534 85.8301 136.011C86.0176 136.488 86.1504 137.027 86.2285 137.628V143.031C86.1582 143.624 86.0293 144.159 85.8418 144.636C85.6543 145.113 85.4043 145.523 85.0918 145.866C84.7793 146.202 84.3926 146.46 83.9316 146.64C83.4785 146.82 82.9473 146.909 82.3379 146.909C81.5879 146.909 80.9277 146.761 80.3574 146.464C79.7871 146.159 79.3066 145.734 78.916 145.187C78.5332 144.64 78.2402 143.995 78.0371 143.253C77.8418 142.503 77.7441 141.683 77.7441 140.792ZM79.9238 140.546V140.792C79.9238 141.394 79.9746 141.956 80.0762 142.48C80.1855 143.003 80.3535 143.464 80.5801 143.863C80.8145 144.261 81.1191 144.573 81.4941 144.8C81.8691 145.019 82.3301 145.128 82.877 145.128C83.3457 145.128 83.7324 145.07 84.0371 144.952C84.3418 144.835 84.584 144.683 84.7637 144.495C84.9434 144.308 85.0801 144.113 85.1738 143.909V136.773C85.0957 136.562 84.9668 136.363 84.7871 136.175C84.6152 135.98 84.377 135.823 84.0723 135.706C83.7676 135.589 83.377 135.531 82.9004 135.531C82.3535 135.531 81.8887 135.663 81.5059 135.929C81.123 136.195 80.8145 136.558 80.5801 137.019C80.3535 137.48 80.1855 138.015 80.0762 138.624C79.9746 139.226 79.9238 139.866 79.9238 140.546ZM84.0957 151.538V128.663H86.2754V151.538H84.0957ZM99.8691 133.984V146.663H97.6895V133.984H99.8691ZM104.123 133.984V135.741H93.5176V133.984H104.123ZM110.58 146.898C109.697 146.898 108.896 146.749 108.178 146.452C107.467 146.148 106.854 145.722 106.338 145.175C105.83 144.628 105.439 143.98 105.166 143.23C104.893 142.48 104.756 141.659 104.756 140.769V140.277C104.756 139.245 104.908 138.327 105.213 137.523C105.518 136.71 105.932 136.023 106.455 135.46C106.979 134.898 107.572 134.472 108.236 134.183C108.9 133.894 109.588 133.749 110.299 133.749C111.205 133.749 111.986 133.906 112.643 134.218C113.307 134.531 113.85 134.968 114.271 135.531C114.693 136.085 115.006 136.741 115.209 137.499C115.412 138.249 115.514 139.07 115.514 139.96V140.933H106.045V139.163H113.346V138.999C113.314 138.437 113.197 137.89 112.994 137.359C112.799 136.827 112.486 136.39 112.057 136.046C111.627 135.702 111.041 135.531 110.299 135.531C109.807 135.531 109.354 135.636 108.939 135.847C108.525 136.05 108.17 136.355 107.873 136.761C107.576 137.167 107.346 137.663 107.182 138.249C107.018 138.835 106.936 139.511 106.936 140.277V140.769C106.936 141.37 107.018 141.937 107.182 142.468C107.354 142.991 107.6 143.452 107.92 143.851C108.248 144.249 108.643 144.562 109.104 144.788C109.572 145.015 110.104 145.128 110.697 145.128C111.463 145.128 112.111 144.972 112.643 144.659C113.174 144.347 113.639 143.929 114.037 143.406L115.35 144.448C115.076 144.863 114.729 145.257 114.307 145.632C113.885 146.007 113.365 146.312 112.748 146.546C112.139 146.781 111.416 146.898 110.58 146.898ZM126.494 133.984V135.777H120.084V133.984H126.494ZM120.4 133.984V146.663H118.232V133.984H120.4ZM128.416 133.984V146.663H126.236V133.984H128.416ZM134.064 136.421V151.538H131.885V133.984H133.877L134.064 136.421ZM142.607 140.218V140.464C142.607 141.386 142.498 142.241 142.279 143.031C142.061 143.812 141.74 144.491 141.318 145.07C140.904 145.648 140.393 146.097 139.783 146.417C139.174 146.738 138.475 146.898 137.686 146.898C136.881 146.898 136.17 146.765 135.553 146.499C134.936 146.234 134.412 145.847 133.982 145.339C133.553 144.831 133.209 144.222 132.951 143.511C132.701 142.8 132.529 141.999 132.436 141.109V139.796C132.529 138.859 132.705 138.019 132.963 137.277C133.221 136.534 133.561 135.902 133.982 135.378C134.412 134.847 134.932 134.445 135.541 134.171C136.15 133.89 136.854 133.749 137.65 133.749C138.447 133.749 139.154 133.906 139.771 134.218C140.389 134.523 140.908 134.96 141.33 135.531C141.752 136.101 142.068 136.784 142.279 137.581C142.498 138.37 142.607 139.249 142.607 140.218ZM140.428 140.464V140.218C140.428 139.585 140.361 138.991 140.229 138.437C140.096 137.874 139.889 137.382 139.607 136.96C139.334 136.531 138.982 136.195 138.553 135.952C138.123 135.702 137.611 135.577 137.018 135.577C136.471 135.577 135.994 135.671 135.588 135.859C135.189 136.046 134.85 136.3 134.568 136.62C134.287 136.933 134.057 137.292 133.877 137.698C133.705 138.097 133.576 138.511 133.49 138.941V141.976C133.646 142.523 133.865 143.038 134.146 143.523C134.428 143.999 134.803 144.386 135.271 144.683C135.74 144.972 136.33 145.116 137.041 145.116C137.627 145.116 138.131 144.995 138.553 144.753C138.982 144.503 139.334 144.163 139.607 143.734C139.889 143.304 140.096 142.812 140.229 142.257C140.361 141.695 140.428 141.097 140.428 140.464ZM144.799 140.464V140.195C144.799 139.281 144.932 138.433 145.197 137.652C145.463 136.863 145.846 136.179 146.346 135.601C146.846 135.015 147.451 134.562 148.162 134.241C148.873 133.913 149.67 133.749 150.553 133.749C151.443 133.749 152.244 133.913 152.955 134.241C153.674 134.562 154.283 135.015 154.783 135.601C155.291 136.179 155.678 136.863 155.943 137.652C156.209 138.433 156.342 139.281 156.342 140.195V140.464C156.342 141.378 156.209 142.226 155.943 143.007C155.678 143.788 155.291 144.472 154.783 145.058C154.283 145.636 153.678 146.089 152.967 146.417C152.264 146.738 151.467 146.898 150.576 146.898C149.686 146.898 148.885 146.738 148.174 146.417C147.463 146.089 146.854 145.636 146.346 145.058C145.846 144.472 145.463 143.788 145.197 143.007C144.932 142.226 144.799 141.378 144.799 140.464ZM146.967 140.195V140.464C146.967 141.097 147.041 141.695 147.189 142.257C147.338 142.812 147.561 143.304 147.857 143.734C148.162 144.163 148.541 144.503 148.994 144.753C149.447 144.995 149.975 145.116 150.576 145.116C151.17 145.116 151.689 144.995 152.135 144.753C152.588 144.503 152.963 144.163 153.26 143.734C153.557 143.304 153.779 142.812 153.928 142.257C154.084 141.695 154.162 141.097 154.162 140.464V140.195C154.162 139.57 154.084 138.98 153.928 138.425C153.779 137.863 153.553 137.366 153.248 136.937C152.951 136.499 152.576 136.156 152.123 135.906C151.678 135.656 151.154 135.531 150.553 135.531C149.959 135.531 149.436 135.656 148.982 135.906C148.537 136.156 148.162 136.499 147.857 136.937C147.561 137.366 147.338 137.863 147.189 138.425C147.041 138.98 146.967 139.57 146.967 140.195ZM165.014 141.085H160.854L160.83 139.351H164.229C164.9 139.351 165.459 139.284 165.904 139.152C166.357 139.019 166.697 138.82 166.924 138.554C167.15 138.288 167.264 137.96 167.264 137.57C167.264 137.265 167.197 136.999 167.064 136.773C166.939 136.538 166.748 136.347 166.49 136.198C166.232 136.042 165.912 135.929 165.529 135.859C165.154 135.781 164.713 135.741 164.205 135.741H161.428V146.663H159.26V133.984H164.205C165.01 133.984 165.732 134.054 166.373 134.195C167.021 134.335 167.572 134.55 168.025 134.839C168.486 135.12 168.838 135.48 169.08 135.917C169.322 136.355 169.443 136.87 169.443 137.464C169.443 137.847 169.365 138.21 169.209 138.554C169.053 138.898 168.822 139.202 168.518 139.468C168.213 139.734 167.838 139.952 167.393 140.124C166.947 140.288 166.436 140.394 165.857 140.441L165.014 141.085ZM165.014 146.663H160.068L161.146 144.906H165.014C165.615 144.906 166.115 144.831 166.514 144.683C166.912 144.527 167.209 144.308 167.404 144.027C167.607 143.738 167.709 143.394 167.709 142.995C167.709 142.597 167.607 142.257 167.404 141.976C167.209 141.687 166.912 141.468 166.514 141.32C166.115 141.163 165.615 141.085 165.014 141.085H161.721L161.744 139.351H165.857L166.643 140.007C167.338 140.062 167.928 140.234 168.412 140.523C168.896 140.812 169.264 141.179 169.514 141.624C169.764 142.062 169.889 142.538 169.889 143.054C169.889 143.648 169.775 144.171 169.549 144.624C169.33 145.077 169.01 145.456 168.588 145.761C168.166 146.058 167.654 146.284 167.053 146.441C166.451 146.589 165.771 146.663 165.014 146.663ZM172.221 140.464V140.195C172.221 139.281 172.354 138.433 172.619 137.652C172.885 136.863 173.268 136.179 173.768 135.601C174.268 135.015 174.873 134.562 175.584 134.241C176.295 133.913 177.092 133.749 177.975 133.749C178.865 133.749 179.666 133.913 180.377 134.241C181.096 134.562 181.705 135.015 182.205 135.601C182.713 136.179 183.1 136.863 183.365 137.652C183.631 138.433 183.764 139.281 183.764 140.195V140.464C183.764 141.378 183.631 142.226 183.365 143.007C183.1 143.788 182.713 144.472 182.205 145.058C181.705 145.636 181.1 146.089 180.389 146.417C179.686 146.738 178.889 146.898 177.998 146.898C177.107 146.898 176.307 146.738 175.596 146.417C174.885 146.089 174.275 145.636 173.768 145.058C173.268 144.472 172.885 143.788 172.619 143.007C172.354 142.226 172.221 141.378 172.221 140.464ZM174.389 140.195V140.464C174.389 141.097 174.463 141.695 174.611 142.257C174.76 142.812 174.982 143.304 175.279 143.734C175.584 144.163 175.963 144.503 176.416 144.753C176.869 144.995 177.396 145.116 177.998 145.116C178.592 145.116 179.111 144.995 179.557 144.753C180.01 144.503 180.385 144.163 180.682 143.734C180.979 143.304 181.201 142.812 181.35 142.257C181.506 141.695 181.584 141.097 181.584 140.464V140.195C181.584 139.57 181.506 138.98 181.35 138.425C181.201 137.863 180.975 137.366 180.67 136.937C180.373 136.499 179.998 136.156 179.545 135.906C179.1 135.656 178.576 135.531 177.975 135.531C177.381 135.531 176.857 135.656 176.404 135.906C175.959 136.156 175.584 136.499 175.279 136.937C174.982 137.366 174.76 137.863 174.611 138.425C174.463 138.98 174.389 139.57 174.389 140.195ZM187.924 133.984H190.092L189.904 138.73C189.857 139.933 189.721 140.972 189.494 141.847C189.268 142.722 188.979 143.468 188.627 144.085C188.275 144.695 187.881 145.206 187.443 145.62C187.014 146.034 186.568 146.382 186.107 146.663H185.029L185.088 144.894L185.533 144.882C185.791 144.577 186.041 144.265 186.283 143.945C186.525 143.616 186.748 143.23 186.951 142.784C187.154 142.331 187.322 141.781 187.455 141.132C187.596 140.476 187.686 139.675 187.725 138.73L187.924 133.984ZM188.463 133.984H196.092V146.663H193.924V135.988H188.463V133.984ZM184.537 144.882H197.721V150.402H195.553V146.663H186.705V150.402H184.525L184.537 144.882ZM201.904 138.343H205.713C206.736 138.343 207.6 138.523 208.303 138.882C209.006 139.234 209.537 139.722 209.896 140.347C210.264 140.964 210.447 141.667 210.447 142.456C210.447 143.042 210.346 143.593 210.143 144.109C209.939 144.616 209.635 145.062 209.229 145.445C208.83 145.827 208.334 146.128 207.74 146.347C207.154 146.558 206.479 146.663 205.713 146.663H200.322V133.984H202.49V144.882H205.713C206.338 144.882 206.838 144.769 207.213 144.542C207.588 144.316 207.857 144.023 208.021 143.663C208.186 143.304 208.268 142.929 208.268 142.538C208.268 142.156 208.186 141.781 208.021 141.413C207.857 141.046 207.588 140.741 207.213 140.499C206.838 140.249 206.338 140.124 205.713 140.124H201.904V138.343ZM214.959 133.984V146.663H212.791V133.984H214.959Z" fill="black"/>
<g clip-path="url(#clip0_897_25440)">
<path d="M127.876 23.4161V75.1405C127.876 79.7717 124.107 83.5405 119.476 83.5405H114.246C112.703 83.5405 111.446 84.7977 111.446 86.3405V126.663H105.846V86.3405C105.846 81.7093 109.615 77.9405 114.246 77.9405H119.476C121.019 77.9405 122.276 76.6833 122.276 75.1405V23.4161C122.276 21.8733 121.019 20.6161 119.476 20.6161H114.246C109.615 20.6161 105.846 16.8473 105.846 12.2161V0.66333H111.446V12.2161C111.446 13.7589 112.703 15.0161 114.246 15.0161H119.476C124.107 15.0161 127.876 18.7849 127.876 23.4161Z" fill="#E3E7E8"/>
<path d="M127.877 23.4161V75.1405C127.877 79.7717 124.108 83.5405 119.477 83.5405H114.246C112.704 83.5405 111.446 84.7977 111.446 86.3405V126.663H108.646V86.3405C108.646 83.2521 111.158 80.7405 114.246 80.7405H119.477C122.565 80.7405 125.077 78.2289 125.077 75.1405V23.4161C125.077 20.3277 122.565 17.8161 119.477 17.8161H114.246C111.158 17.8161 108.646 15.3045 108.646 12.2161V0.66333H111.446V12.2161C111.446 13.7589 112.704 15.0161 114.246 15.0161H119.477C124.108 15.0161 127.877 18.7849 127.877 23.4161Z" fill="#BDC3C7"/>
<g style="mix-blend-mode:multiply">
<path d="M114.246 20.6161H116.729V15.0161H114.246C112.703 15.0161 111.446 13.7589 111.446 12.2161V10.2533L110.852 10.8469C109.136 12.5633 106.871 11.7401 105.846 10.1693V12.2161C105.846 16.8473 109.615 20.6161 114.246 20.6161Z" fill="#BDC3C7"/>
</g>
<g style="mix-blend-mode:multiply">
<path d="M119.476 15.0161H117.239V20.6161H119.476C121.019 20.6161 122.276 21.8733 122.276 23.4161V75.1405C122.276 76.6833 121.019 77.9405 119.476 77.9405H114.246C109.615 77.9405 105.846 81.7093 105.846 86.3405V119.857C107.139 118.017 110.368 118.123 111.446 120.165V86.3405C111.446 84.7977 112.703 83.5405 114.246 83.5405H119.476C124.107 83.5405 127.876 79.7717 127.876 75.1405V23.4161C127.876 18.7849 124.107 15.0161 119.476 15.0161Z" fill="#BDC3C7"/>
</g>
<path d="M171.646 60.8633V66.4633H114.386C109.755 66.4633 105.986 62.6945 105.986 58.0633V23.4161C105.986 18.7849 109.755 15.0161 114.386 15.0161H134.546C136.089 15.0161 137.346 13.7589 137.346 12.2161V0.66333H142.946V12.2161C142.946 16.8473 139.178 20.6161 134.546 20.6161H114.386C112.844 20.6161 111.586 21.8733 111.586 23.4161V58.0633C111.586 59.6061 112.844 60.8633 114.386 60.8633H171.646Z" fill="#E3E7E8"/>
<path d="M171.647 60.8633V63.6633H114.387C111.299 63.6633 108.787 61.1517 108.787 58.0633V23.4161C108.787 20.3277 111.299 17.8161 114.387 17.8161H134.547C137.636 17.8161 140.147 15.3045 140.147 12.2161V0.66333H142.947V12.2161C142.947 16.8473 139.178 20.6161 134.547 20.6161H114.387C112.844 20.6161 111.587 21.8733 111.587 23.4161V58.0633C111.587 59.6061 112.844 60.8633 114.387 60.8633H171.647Z" fill="#BDC3C7"/>
<g style="mix-blend-mode:multiply">
<path d="M110.853 54.1153L111.586 54.8489V39.6001C110.469 41.6049 107.246 41.6693 105.986 39.8017V54.5913C107.067 53.1549 109.209 52.4745 110.853 54.1153Z" fill="#BDC3C7"/>
</g>
<path d="M171.646 29.3633V34.9633H145.746C144.204 34.9633 142.946 36.2205 142.946 37.7633V41.6105C142.946 46.2417 139.178 50.0105 134.546 50.0105H82.7465C81.2037 50.0105 79.9465 51.2677 79.9465 52.8105V89.5633C79.9465 94.1945 76.1777 97.9633 71.5465 97.9633H45.6465V92.3633H71.5465C73.0893 92.3633 74.3465 91.1061 74.3465 89.5633V52.8105C74.3465 48.1793 78.1153 44.4105 82.7465 44.4105H134.546C136.089 44.4105 137.346 43.1561 137.346 41.6105V37.7633C137.346 33.1321 141.115 29.3633 145.746 29.3633H171.646Z" fill="#E3E7E8"/>
<path d="M171.646 32.1633V34.9633H145.746C144.204 34.9633 142.946 36.2205 142.946 37.7633V41.6105C142.946 46.2417 139.178 50.0105 134.546 50.0105H82.7465C81.2037 50.0105 79.9465 51.2677 79.9465 52.8105V89.5633C79.9465 94.1945 76.1777 97.9633 71.5465 97.9633H45.6465V95.1633H71.5465C74.6349 95.1633 77.1465 92.6517 77.1465 89.5633V52.8105C77.1465 49.7221 79.6581 47.2105 82.7465 47.2105H134.546C137.635 47.2105 140.146 44.6989 140.146 41.6105V37.7633C140.146 34.6749 142.658 32.1633 145.746 32.1633H171.646Z" fill="#BDC3C7"/>
<g style="mix-blend-mode:multiply">
<path d="M86.6389 44.4105C88.4141 45.7769 88.2293 49.0277 86.0957 50.0105H100.838C98.3457 49.3497 97.9369 45.9673 99.6085 44.4105H86.6389Z" fill="#BDC3C7"/>
</g>
<g style="mix-blend-mode:multiply">
<path d="M68.4156 92.3633H55.3424C57.196 93.6401 57.1064 96.8685 55.082 97.9633H68.6704C66.646 96.8685 66.562 93.6401 68.4156 92.3633Z" fill="#BDC3C7"/>
</g>
<path d="M171.646 92.3633V97.9633H131.528C129.985 97.9633 128.728 99.2205 128.728 100.763V107.382C128.728 112.014 124.959 115.783 120.328 115.783H66.7977C62.1637 115.783 58.3977 112.014 58.3977 107.382V69.4033C58.3977 67.8605 57.1405 66.6033 55.5977 66.6033H45.6465V61.0033H55.5977C60.2289 61.0033 63.9977 64.7721 63.9977 69.4033V107.382C63.9977 108.925 65.2521 110.182 66.7977 110.182H120.328C121.874 110.182 123.128 108.925 123.128 107.382V100.763C123.128 96.1321 126.897 92.3633 131.528 92.3633H171.646Z" fill="#E3E7E8"/>
<path d="M171.646 95.1633V97.9633H131.528C129.985 97.9633 128.728 99.2205 128.728 100.763V107.383C128.728 112.014 124.959 115.783 120.328 115.783H66.7977C62.1637 115.783 58.3977 112.014 58.3977 107.383V69.4033C58.3977 67.8605 57.1405 66.6033 55.5977 66.6033H45.6465V63.8033H55.5977C58.6833 63.8033 61.1977 66.3149 61.1977 69.4033V107.383C61.1977 110.471 63.7093 112.983 66.7977 112.983H120.328C123.416 112.983 125.928 110.471 125.928 107.383V100.763C125.928 97.6749 128.44 95.1633 131.528 95.1633H171.646Z" fill="#BDC3C7"/>
<g style="mix-blend-mode:multiply">
<path d="M146.944 92.3633H134.042C135.895 93.6401 135.806 96.8685 133.781 97.9633H147.199C145.174 96.8685 145.09 93.6401 146.944 92.3633Z" fill="#BDC3C7"/>
</g>
<path d="M142.946 86.3405V126.663H137.346V86.3405C137.346 84.7977 136.089 83.5405 134.546 83.5405H98.3117C93.6805 83.5405 89.9117 79.7717 89.9117 75.1405V37.7633C89.9117 36.2205 88.6545 34.9633 87.1117 34.9633H45.6465V29.3633H87.1117C91.7429 29.3633 95.5117 33.1321 95.5117 37.7633V75.1405C95.5117 76.6833 96.7661 77.9405 98.3117 77.9405H134.546C139.178 77.9405 142.946 81.7093 142.946 86.3405Z" fill="#BDC3C7"/>
<path d="M142.946 86.3405V126.663H140.146V86.3405C140.146 83.2521 137.635 80.7405 134.546 80.7405H98.3117C95.2233 80.7405 92.7117 78.2289 92.7117 75.1405V37.7633C92.7117 34.6749 90.2001 32.1633 87.1117 32.1633H45.6465V29.3633H87.1117C91.7429 29.3633 95.5117 33.1321 95.5117 37.7633V75.1405C95.5117 76.6833 96.7661 77.9405 98.3117 77.9405H134.546C139.178 77.9405 142.946 81.7093 142.946 86.3405Z" fill="#E3E7E8"/>
<path d="M111.433 87.9086V105.336H105.838V102.497C105.838 101.259 104.836 100.257 103.598 100.257H103.422V95.8606H103.598C103.775 95.8606 103.945 95.841 104.111 95.8018C105.102 95.5694 105.838 94.6818 105.838 93.6206V87.9086H111.433Z" fill="#E3E7E8"/>
<path d="M108.037 89.3757V93.0017C108.037 94.5473 106.783 95.8017 105.237 95.8017H104.111C105.103 95.5693 105.839 94.6817 105.839 93.6205V89.3757H108.037Z" fill="#BDC3C7"/>
<path d="M111.792 105.336H105.564V108.209H111.792V105.336Z" fill="#34495E"/>
<path d="M110.768 87.9086H105.303V91.0362H110.768V87.9086Z" fill="#34495E"/>
<path d="M112.049 87.9086H109.193V91.0362H112.049V87.9086Z" fill="#222F3D"/>
<path d="M112.048 88.3762H105.303V88.841H112.048V88.3762Z" fill="#F1C40F"/>
<path d="M112.049 88.3762H109.193V88.841H112.049V88.3762Z" fill="#F39C12"/>
<path d="M103.562 96.7397H98.9863V99.3801H103.562V96.7397Z" fill="#202E3B"/>
<path d="M103.562 96.1125H100.891V100.007H103.562V96.1125Z" fill="#34495E"/>
<path d="M103.561 95.8018H103.32V100.315H103.561V95.8018Z" fill="#597DA1"/>
<path d="M101.103 95.8018L101.514 100.279L101.097 100.315L100.686 95.841L101.103 95.8018Z" fill="#597DA1"/>
<path d="M101.933 95.8018L102.342 100.279L101.924 100.315L101.516 95.841L101.933 95.8018Z" fill="#597DA1"/>
<path d="M102.757 95.8018L103.169 100.279L102.751 100.315L102.34 95.841L102.757 95.8018Z" fill="#597DA1"/>
<path d="M96.0023 103.871C99.2126 103.871 101.815 101.269 101.815 98.0585C101.815 94.8482 99.2126 92.2457 96.0023 92.2457C92.7919 92.2457 90.1895 94.8482 90.1895 98.0585C90.1895 101.269 92.7919 103.871 96.0023 103.871Z" fill="#82271D"/>
<path d="M96.0017 103.463C98.9862 103.463 101.406 101.043 101.406 98.0585C101.406 95.074 98.9862 92.6545 96.0017 92.6545C93.0171 92.6545 90.5977 95.074 90.5977 98.0585C90.5977 101.043 93.0171 103.463 96.0017 103.463Z" fill="#F1C40F"/>
<path d="M96.0015 103.191C98.8361 103.191 101.134 100.893 101.134 98.0585C101.134 95.224 98.8361 92.9261 96.0015 92.9261C93.167 92.9261 90.8691 95.224 90.8691 98.0585C90.8691 100.893 93.167 103.191 96.0015 103.191Z" fill="#C0392B"/>
<path d="M96.0016 102.494C98.4511 102.494 100.437 100.508 100.437 98.0585C100.437 95.609 98.4511 93.6233 96.0016 93.6233C93.5521 93.6233 91.5664 95.609 91.5664 98.0585C91.5664 100.508 93.5521 102.494 96.0016 102.494Z" fill="#ECF0F1"/>
<path d="M96.002 93.6233C98.452 93.6233 100.437 95.6085 100.437 98.0585C100.437 100.508 98.452 102.494 96.002 102.494V93.6233Z" fill="#CED4D9"/>
<path d="M96.6328 98.0586C96.6328 98.4086 96.35 98.6914 96 98.6914C95.65 98.6914 95.3672 98.4086 95.3672 98.0586C95.3672 97.7086 95.65 97.4258 96 97.4258C96.35 97.4258 96.6328 97.7086 96.6328 98.0586Z" fill="#34495E"/>
<path d="M95.9794 102.39V101.043C96.153 101.043 96.3266 101.027 96.4974 100.996L96.7326 102.323C96.4862 102.368 96.2314 102.39 95.9766 102.39H95.9794ZM93.7982 101.813C93.5798 101.687 93.3698 101.542 93.1766 101.379L94.039 100.343C94.1734 100.455 94.3162 100.556 94.4702 100.643L93.7982 101.813ZM98.7738 101.365L97.9058 100.335C98.0374 100.223 98.1634 100.097 98.2754 99.9625L99.3086 100.828C99.1462 101.021 98.967 101.203 98.7738 101.365ZM91.8746 99.5425C91.7878 99.3045 91.7206 99.0581 91.6758 98.8089L93.003 98.5709C93.0338 98.7417 93.0786 98.9125 93.1402 99.0749L91.8774 99.5425H91.8746ZM100.261 98.7837L98.9334 98.5513C98.9642 98.3805 98.9782 98.2041 98.9782 98.0277L100.048 97.9941L100.325 97.9997C100.325 98.2797 100.303 98.5345 100.261 98.7837ZM93.1262 97.0141L91.855 96.5633C91.9418 96.3225 92.0482 96.0901 92.1742 95.8717L93.3446 96.5409C93.2606 96.6893 93.185 96.8489 93.1262 97.0141ZM98.561 96.4961C98.4714 96.3449 98.3678 96.1993 98.253 96.0677L99.2778 95.1913C99.4402 95.3817 99.5886 95.5889 99.7174 95.8045L98.561 96.4961ZM94.4394 95.4321L93.7562 94.2701C93.9746 94.1441 94.2042 94.0321 94.4394 93.9453L94.9126 95.2081C94.7474 95.2697 94.5878 95.3453 94.4394 95.4349V95.4321ZM96.9706 95.1885C96.8054 95.1297 96.6346 95.0849 96.4638 95.0569L96.685 93.7269C96.9342 93.7689 97.1806 93.8305 97.4186 93.9145L96.9706 95.1857V95.1885Z" fill="#34495E"/>
<path d="M97.7913 96.1014L96.3241 98.165L95.7949 97.7898L97.2621 95.7262C97.2957 95.6814 97.3601 95.6702 97.4049 95.701L97.7661 95.9586C97.8109 95.9922 97.8221 96.0566 97.7913 96.1014Z" fill="#34495E"/>
<path d="M97.4771 96.1658L96.1443 98.039L95.9707 97.9158L97.3035 96.0426C97.3147 96.0286 97.3343 96.023 97.3511 96.0342L97.4687 96.1182C97.4827 96.1294 97.4883 96.149 97.4771 96.1658Z" fill="#F1C40F"/>
<path d="M96.2197 98.0585C96.2197 98.1789 96.1217 98.2797 95.9985 98.2797C95.8753 98.2797 95.7773 98.1817 95.7773 98.0585C95.7773 97.9353 95.8753 97.8373 95.9985 97.8373C96.1217 97.8373 96.2197 97.9353 96.2197 98.0585Z" fill="#F1C40F"/>
<path d="M108.037 101.08V105.336H105.839V102.497C105.839 101.259 104.837 100.257 103.599 100.257H103.562V98.2798H105.237C106.783 98.2798 108.037 99.5314 108.037 101.08Z" fill="#BDC3C7"/>
<path d="M154.942 22.5985H152.814V26.4345H154.942V22.5985Z" fill="#202E3B"/>
<path d="M155.445 24.2953H152.307V26.4317H155.445V24.2953Z" fill="#34495E"/>
<path d="M156.345 26.3365H151.408V29.5733H156.345V26.3365Z" fill="#E3E7E8"/>
<path d="M151.408 29.5733H153.035C153.5 29.5733 153.875 29.1981 153.875 28.7333V26.3365H151.408V29.5733Z" fill="#BDC3C7"/>
<path d="M156.041 26.2413H151.707V26.4345H156.041V26.2413Z" fill="#597DA1"/>
<path d="M152.095 24.1334L152.064 24.468L155.67 24.7961L155.7 24.4615L152.095 24.1334Z" fill="#597DA1"/>
<path d="M152.093 24.7953L152.062 25.1299L155.668 25.458L155.698 25.1234L152.093 24.7953Z" fill="#597DA1"/>
<path d="M152.093 25.4571L152.062 25.7917L155.668 26.1199L155.698 25.7853L152.093 25.4571Z" fill="#597DA1"/>
<path d="M153.513 22.5985H154.239C154.359 22.5985 154.457 22.5005 154.457 22.3801C154.457 22.2597 154.359 22.1617 154.239 22.1617H153.513C153.393 22.1617 153.295 22.2597 153.295 22.3801C153.295 22.5005 153.393 22.5985 153.513 22.5985Z" fill="#F1C40F"/>
<path d="M146.169 24.0097L146.819 23.3573H156.737L156.975 23.5953L157.448 23.1193L157.014 22.6853H146.542L145.693 23.5337L146.169 24.0097Z" fill="#C0392B"/>
<path d="M155.236 22.6853H152.52V23.3573H155.236V22.6853Z" fill="#E74C3C"/>
<path d="M158.872 29.5734H148.879V35.0054H158.872V29.5734Z" fill="#E3E7E8"/>
<path d="M158.872 32.2893H148.879V35.0053H158.872V32.2893Z" fill="#BDC3C7"/>
<path d="M160.279 29.5958V34.9858L159.977 36.2094H157.773L157.471 34.9858V29.5958L157.546 29.2934L157.773 28.3722H159.977L160.204 29.2934L160.279 29.5958Z" fill="#F39C12"/>
<path d="M159.948 34.0198H157.8C157.436 32.897 157.436 31.6846 157.8 30.5618H159.948C160.312 31.6846 160.312 32.897 159.948 34.0198Z" fill="#F1C40F"/>
<path d="M160.204 29.2934C160.168 29.7218 160.084 30.1502 159.949 30.5618H157.802C157.664 30.1502 157.58 29.7218 157.547 29.2934L157.774 28.3722H159.977L160.204 29.2934Z" fill="#FFE372"/>
<path d="M160.204 35.2882C160.168 34.8598 160.084 34.4314 159.949 34.0198H157.802C157.664 34.4314 157.58 34.8598 157.547 35.2882L157.774 36.2094H159.977L160.204 35.2882Z" fill="#D35400"/>
<path d="M150.283 29.5958V34.9858L149.981 36.2094H147.777L147.475 34.9858V29.5958L147.55 29.2934L147.777 28.3722H149.981L150.207 29.2934L150.283 29.5958Z" fill="#F39C12"/>
<path d="M149.956 34.0198H147.808C147.444 32.897 147.444 31.6846 147.808 30.5618H149.956C150.32 31.6846 150.32 32.897 149.956 34.0198Z" fill="#F1C40F"/>
<path d="M150.208 29.2934C150.172 29.7218 150.088 30.1502 149.953 30.5618H147.806C147.668 30.1502 147.584 29.7218 147.551 29.2934L147.778 28.3722H149.981L150.208 29.2934Z" fill="#FFE372"/>
<path d="M150.208 35.2882C150.172 34.8598 150.088 34.4314 149.953 34.0198H147.806C147.668 34.4314 147.584 34.8598 147.551 35.2882L147.778 36.2094H149.981L150.208 35.2882Z" fill="#D35400"/>
<path d="M151.408 28.5737V29.5733H150.408C150.96 29.5733 151.408 29.1253 151.408 28.5737Z" fill="#BDC3C7"/>
<path d="M156.344 28.5737V29.5733H157.343C156.792 29.5733 156.344 29.1253 156.344 28.5737Z" fill="#E3E7E8"/>
<path d="M150.593 28.9713H150.273V35.6101H150.593V28.9713Z" fill="#34495E"/>
<path d="M157.448 28.9713H157.129V35.6101H157.448V28.9713Z" fill="#34495E"/>
<path d="M153.878 34.2073C152.31 34.2073 151.084 33.3645 151.084 32.2893C151.084 31.2141 152.31 30.3713 153.878 30.3713C155.446 30.3713 156.673 31.2141 156.673 32.2893C156.673 33.3645 155.446 34.2073 153.878 34.2073Z" fill="#ECF0F1"/>
<path d="M156.109 32.2894C156.109 33.0398 155.11 33.6474 153.875 33.6474C152.64 33.6474 151.641 33.0398 151.641 32.2894C151.641 31.539 152.64 30.9314 153.875 30.9314C155.11 30.9314 156.109 31.539 156.109 32.2894Z" fill="#2980B9"/>
<path d="M57.4104 54.8797H58.1888V49.5961H57.4104C52.8576 49.5961 49.1504 53.3005 49.1504 57.8561V58.7437H54.434V57.8561C54.434 56.2153 55.7696 54.8797 57.4104 54.8797Z" fill="#E3E7E8"/>
<path d="M57.4098 54.8797H58.1882V52.2393H57.4098C54.3102 52.2393 51.793 54.7621 51.793 57.8561V58.7437H54.4334V57.8561C54.4334 56.2153 55.769 54.8797 57.4098 54.8797Z" fill="#BDC3C7"/>
<path d="M55.2256 58.7438H48.3516V60.589H55.2256V58.7438Z" fill="#3B536B"/>
<path d="M55.2254 58.7438H52.2266V60.589H55.2254V58.7438Z" fill="#2C3E50"/>
<path d="M70.1968 48.7758H68.3516V55.6498H70.1968V48.7758Z" fill="#3B536B"/>
<path d="M70.1968 52.9169H68.3516V55.6497H70.1968V52.9169Z" fill="#2C3E50"/>
<path d="M70.7825 49.2209H70.1973V55.2017H70.7825V49.2209Z" fill="#2C3E50"/>
<path d="M70.7825 52.8273H70.1973V55.2045H70.7825V52.8273Z" fill="#1C2833"/>
<path d="M74.3129 48.8233V55.6021L73.9321 57.1421H71.1601L70.7793 55.6021V48.8233L70.8745 48.4425L71.1601 47.2833H73.9321L74.2177 48.4425L74.3129 48.8233Z" fill="#F39C12"/>
<path d="M73.898 54.387C72.9964 54.387 72.0948 54.387 71.196 54.387C70.7368 52.973 70.7368 51.4526 71.196 50.0386H73.898C74.3572 51.4526 74.3572 52.973 73.898 54.387Z" fill="#F1C40F"/>
<path d="M74.2174 48.4425C74.1726 48.9801 74.0662 49.5205 73.8982 50.0385H71.1962C71.0226 49.5205 70.919 48.9829 70.877 48.4425L71.1626 47.2833H73.9346L74.2202 48.4425H74.2174Z" fill="#FFE372"/>
<path d="M74.2174 55.983C74.1726 55.4454 74.0662 54.905 73.8982 54.387H71.1962C71.0226 54.905 70.919 55.4426 70.877 55.983L71.1626 57.1422H73.9346L74.2202 55.983H74.2174Z" fill="#D35400"/>
<path d="M54.6312 60.5693H48.9668V60.9557H54.6312V60.5693Z" fill="#F1C40F"/>
<path d="M68.3495 49.5961H58.1855V54.8993H68.3495V49.5961Z" fill="#E3E7E8"/>
<path d="M68.3495 52.2477H58.1855V54.8993H68.3495V52.2477Z" fill="#BDC3C7"/>
<path d="M155.536 74.7849H150.555V90.5881H155.536V74.7849Z" fill="#E3E7E8"/>
<path d="M159.658 78.3197L151.266 86.7125L154.788 90.2348L163.181 81.842L159.658 78.3197Z" fill="#E3E7E8"/>
<path d="M155.615 89.4065C154.649 88.4405 154.649 86.8725 155.615 85.9065L161.434 80.0881L163.184 81.8381L155.615 89.4065Z" fill="#BDC3C7"/>
<path d="M153.044 74.7849H150.555V90.5881H153.044V74.7849Z" fill="#BDC3C7"/>
<path d="M159.35 78.0113L158.025 79.3358L162.161 83.4718L163.486 82.1473L159.35 78.0113Z" fill="#3B536B"/>
<path d="M161.664 80.3267L160.34 81.6512L162.163 83.4747L163.488 82.1502L161.664 80.3267Z" fill="#2C3E50"/>
<path d="M155.951 78.1616H150.139V79.7212H155.951V78.1616Z" fill="#3B536B"/>
<path d="M152.449 78.1616H150.139V79.7212H152.449V78.1616Z" fill="#2C3E50"/>
<path d="M155.575 77.6688H150.516V78.1616H155.575V77.6688Z" fill="#2C3E50"/>
<path d="M152.526 77.6688H150.516V78.1616H152.526V77.6688Z" fill="#1C2833"/>
<path d="M155.911 74.6813H150.176L148.877 75.0033V77.3469L150.176 77.6689H155.911L156.233 77.5877L157.213 77.3469V75.0033L156.233 74.7625L155.911 74.6813Z" fill="#F39C12"/>
<path d="M151.205 75.0313V77.3161C152.401 77.7053 153.689 77.7053 154.884 77.3161V75.0313C153.689 74.6421 152.401 74.6421 151.205 75.0313Z" fill="#F1C40F"/>
<path d="M156.234 74.7625C155.778 74.8017 155.322 74.8912 154.885 75.034V77.3188C155.322 77.4644 155.778 77.554 156.234 77.5904L157.214 77.3496V75.006L156.234 74.7652V74.7625Z" fill="#FFE372"/>
<path d="M149.855 74.7625C150.311 74.8017 150.765 74.8912 151.205 75.034V77.3188C150.768 77.4644 150.311 77.554 149.855 77.5904L148.875 77.3496V75.006L149.855 74.7652V74.7625Z" fill="#D35400"/>
<path d="M155.951 90.5853H150.139V92.1449H155.951V90.5853Z" fill="#3B536B"/>
<path d="M152.675 90.5853H150.139V92.1449H152.675V90.5853Z" fill="#2C3E50"/>
<path d="M155.449 92.1309H150.658V92.4585H155.449V92.1309Z" fill="#F1C40F"/>
<path d="M101.153 57.1841H100.053V56.3497H101.153C101.234 56.4309 101.279 56.4757 101.36 56.5569V56.9797C101.279 57.0609 101.234 57.1057 101.153 57.1869V57.1841Z" fill="#34495E"/>
<path d="M101.153 59.7433H100.053V58.9089H101.153C101.234 58.9901 101.279 59.0349 101.36 59.1161V59.5389C101.279 59.6201 101.234 59.6649 101.153 59.7461V59.7433Z" fill="#34495E"/>
<path d="M101.153 62.3025H100.053V61.4681H101.153C101.234 61.5493 101.279 61.5941 101.36 61.6753V62.0981C101.279 62.1793 101.234 62.2241 101.153 62.3053V62.3025Z" fill="#34495E"/>
<path d="M98.7084 55.7757V62.8737H97.4848V62.5237C97.4848 62.1821 97.2076 61.9049 96.866 61.9049H96.32C95.9784 61.9049 95.7012 62.1849 95.7012 62.5237V66.7853H89.7344V51.8585H95.7012V56.1201C95.7012 56.4617 95.9812 56.7389 96.32 56.7389H96.866C97.2076 56.7389 97.4848 56.4617 97.4848 56.1201V55.7729H98.7084V55.7757Z" fill="#BDC3C7"/>
<path d="M94.951 51.8613H92.291V66.7881H94.951V51.8613Z" fill="#E3E7E8"/>
<path d="M100.15 55.7758H98.9629V62.8766H100.15V55.7758Z" fill="#BDC3C7"/>
<path d="M99.9357 55.7758H99.1797V62.8766H99.9357V55.7758Z" fill="#E3E7E8"/>
<path d="M98.9638 56.1229H98.709V62.5293H98.9638V56.1229Z" fill="#34495E"/>
<path d="M98.4923 55.7758H97.7363V62.8766H98.4923V55.7758Z" fill="#E3E7E8"/>
<path d="M101.052 56.2853V57.2429L100.976 57.4613H100.433L100.357 57.2429V56.2853L100.377 56.2321L100.433 56.0697H100.976L101.032 56.2321L101.052 56.2853Z" fill="#F39C12"/>
<path d="M100.971 57.0721H100.442C100.353 56.8733 100.353 56.6577 100.442 56.4589H100.971C101.061 56.6577 101.061 56.8733 100.971 57.0721Z" fill="#F1C40F"/>
<path d="M101.031 56.2321C101.023 56.3077 101.001 56.3833 100.97 56.4561H100.441C100.407 56.3833 100.387 56.3077 100.379 56.2321L100.435 56.0697H100.978L101.034 56.2321H101.031Z" fill="#FFE372"/>
<path d="M101.031 57.299C101.023 57.2234 101.001 57.1478 100.97 57.075H100.441C100.407 57.1478 100.387 57.2234 100.379 57.299L100.435 57.4614H100.978L101.034 57.299H101.031Z" fill="#D35400"/>
<path d="M101.052 58.8445V59.8021L100.976 60.0205H100.433L100.357 59.8021V58.8445L100.377 58.7913L100.433 58.6289H100.976L101.032 58.7913L101.052 58.8445Z" fill="#F39C12"/>
<path d="M100.971 59.6313H100.442C100.353 59.4325 100.353 59.2169 100.442 59.0181H100.971C101.061 59.2169 101.061 59.4325 100.971 59.6313Z" fill="#F1C40F"/>
<path d="M101.031 58.7913C101.023 58.8669 101.001 58.9425 100.97 59.0153H100.441C100.407 58.9425 100.387 58.8669 100.379 58.7913L100.435 58.6289H100.978L101.034 58.7913H101.031Z" fill="#FFE372"/>
<path d="M101.031 59.8582C101.023 59.7826 101.001 59.707 100.97 59.6342H100.441C100.407 59.707 100.387 59.7826 100.379 59.8582L100.435 60.0206H100.978L101.034 59.8582H101.031Z" fill="#D35400"/>
<path d="M101.052 61.4037V62.3613L100.976 62.5797H100.433L100.357 62.3613V61.4037L100.377 61.3505L100.433 61.1881H100.976L101.032 61.3505L101.052 61.4037Z" fill="#F39C12"/>
<path d="M100.971 62.1905H100.442C100.353 61.9917 100.353 61.7761 100.442 61.5773H100.971C101.061 61.7761 101.061 61.9917 100.971 62.1905Z" fill="#F1C40F"/>
<path d="M101.031 61.3505C101.023 61.4261 101.001 61.5017 100.97 61.5745H100.441C100.407 61.5017 100.387 61.4261 100.379 61.3505L100.435 61.1881H100.978L101.034 61.3505H101.031Z" fill="#FFE372"/>
<path d="M101.031 62.4174C101.023 62.3418 101.001 62.2662 100.97 62.1934H100.441C100.407 62.2662 100.387 62.3418 100.379 62.4174L100.435 62.5798H100.978L101.034 62.4174H101.031Z" fill="#D35400"/>
<path d="M97.4867 60.925V62.5266C97.4867 62.185 97.2095 61.9078 96.8679 61.9078H96.3219C95.9803 61.9078 95.7031 62.1878 95.7031 62.5266V60.925C95.7031 60.5834 95.9831 60.3062 96.3219 60.3062H96.8679C97.2095 60.3062 97.4867 60.5862 97.4867 60.925Z" fill="#95A5A6"/>
<path d="M96.066 51.7325H89.2676V52.8833H96.066V51.7325Z" fill="#3B536B"/>
<path d="M91.9696 51.7325H89.2676V52.8833H91.9696V51.7325Z" fill="#2C3E50"/>
<path d="M96.066 65.6598H89.2676V66.8106H96.066V65.6598Z" fill="#3B536B"/>
<path d="M91.9696 65.6598H89.2676V66.8106H91.9696V65.6598Z" fill="#2C3E50"/>
<path d="M84.1516 110.577H82.0348C81.2284 109.295 79.8032 108.438 78.1764 108.438C76.5496 108.438 75.1244 109.295 74.318 110.577H72.2012V115.416H74.318C75.1244 116.698 76.5496 117.555 78.1764 117.555C79.8032 117.555 81.2284 116.698 82.0348 115.416H84.1516V110.577Z" fill="#E3E7E8"/>
<path d="M72.2012 113.103V115.413H74.318C75.1244 116.695 76.5496 117.552 78.1764 117.552C79.8032 117.552 81.2284 116.695 82.0348 115.413H84.1516V113.103H72.2012Z" fill="#BDC3C7"/>
<path d="M72.7895 110.3V115.69L72.2547 116.914H68.3571L67.8223 115.69V110.3L67.9539 109.998L68.3571 109.077H72.2547L72.6551 109.998L72.7895 110.3Z" fill="#95A5A6"/>
<path d="M72.2046 114.724C70.939 114.724 69.6706 114.724 68.405 114.724C67.7582 113.601 67.7582 112.389 68.405 111.266H72.2046C72.8514 112.389 72.8514 113.601 72.2046 114.724Z" fill="#BDC3C7"/>
<path d="M72.6543 109.998C72.5899 110.426 72.4415 110.855 72.2035 111.266H68.4039C68.1603 110.855 68.0119 110.426 67.9531 109.998L68.3535 109.077H72.2511L72.6515 109.998H72.6543Z" fill="#ECF0F1"/>
<path d="M72.6543 115.993C72.5899 115.564 72.4415 115.136 72.2035 114.724H68.4039C68.1603 115.136 68.0119 115.564 67.9531 115.993L68.3535 116.914H72.2511L72.6515 115.993H72.6543Z" fill="#7F8C8D"/>
<path d="M88.0922 110.3V115.69L87.5574 116.914H83.6598L83.125 115.69V110.3L83.2594 109.998L83.6598 109.077H87.5574L87.9578 109.998L88.0922 110.3Z" fill="#95A5A6"/>
<path d="M87.5093 114.724C86.2437 114.724 84.9753 114.724 83.7097 114.724C83.0629 113.601 83.0629 112.389 83.7097 111.266H87.5093C88.1561 112.389 88.1561 113.601 87.5093 114.724Z" fill="#BDC3C7"/>
<path d="M87.9571 109.998C87.8927 110.426 87.7443 110.855 87.5063 111.266H83.7067C83.4631 110.855 83.3147 110.426 83.2559 109.998L83.6563 109.077H87.5539L87.9543 109.998H87.9571Z" fill="#ECF0F1"/>
<path d="M87.9571 115.993C87.8927 115.564 87.7443 115.136 87.5063 114.724H83.7067C83.4631 115.136 83.3147 115.564 83.2559 115.993L83.6563 116.914H87.5539L87.9543 115.993H87.9571Z" fill="#7F8C8D"/>
<path d="M79.2432 104.602H77.1152V108.438H79.2432V104.602Z" fill="#202E3B"/>
<path d="M79.7482 106.299H76.6094V108.435H79.7482V106.299Z" fill="#34495E"/>
<path d="M80.3442 108.245H76.0098V108.438H80.3442V108.245Z" fill="#597DA1"/>
<path d="M80.3442 108.435H76.0098V109.401H80.3442V108.435Z" fill="#E3E7E8"/>
<path d="M79.9707 106.134L76.3652 106.462L76.3957 106.797L80.0012 106.469L79.9707 106.134Z" fill="#597DA1"/>
<path d="M79.9688 106.798L76.3633 107.126L76.3937 107.46L79.9992 107.132L79.9688 106.798Z" fill="#597DA1"/>
<path d="M79.9707 107.459L76.3652 107.787L76.3957 108.121L80.0012 107.793L79.9707 107.459Z" fill="#597DA1"/>
<path d="M78.5413 104.602H77.8161C77.6957 104.602 77.5977 104.504 77.5977 104.384C77.5977 104.263 77.6957 104.165 77.8161 104.165H78.5413C78.6617 104.165 78.7597 104.263 78.7597 104.384C78.7597 104.504 78.6617 104.602 78.5413 104.602Z" fill="#F1C40F"/>
<path d="M80.3136 104.689H75.7328L75.2988 105.123L75.7748 105.599L76.01 105.361H80.3136V104.689Z" fill="#C0392B"/>
<path d="M80.7392 105.361H79.5352V104.689H80.4592L81.1116 104.039L81.5848 104.515L80.7392 105.361Z" fill="#C0392B"/>
<path d="M81.9569 103.191H87.9573V103.863H82.2369L81.5845 104.515L81.1113 104.039L81.9569 103.191Z" fill="#C0392B"/>
<path d="M79.5344 104.689H76.8184V105.361H79.5344V104.689Z" fill="#E74C3C"/>
<path d="M79.9545 111.507H76.4013C75.7827 111.507 75.2812 112.008 75.2812 112.627V113.582C75.2812 114.2 75.7827 114.702 76.4013 114.702H79.9545C80.573 114.702 81.0745 114.2 81.0745 113.582V112.627C81.0745 112.008 80.573 111.507 79.9545 111.507Z" fill="#F1C40F"/>
<path d="M79.9537 111.787H76.4005C75.9366 111.787 75.5605 112.163 75.5605 112.627V113.582C75.5605 114.046 75.9366 114.422 76.4005 114.422H79.9537C80.4177 114.422 80.7937 114.046 80.7937 113.582V112.627C80.7937 112.163 80.4177 111.787 79.9537 111.787Z" fill="#2980B9"/>
<path d="M111.524 24.9982H106.047V40.065H111.524V24.9982Z" fill="#E3E7E8"/>
<path d="M111.524 28.1761V39.1185C110.7 39.5357 109.771 39.7653 108.785 39.7653C107.8 39.7653 106.87 39.5329 106.047 39.1185V28.1761C106.87 27.7589 107.8 27.5293 108.785 27.5293C109.771 27.5293 110.7 27.7617 111.524 28.1761Z" fill="#BDC3C7"/>
<path d="M108.788 24.9982H106.047V40.065H108.788V24.9982Z" fill="#BDC3C7"/>
<path d="M111.986 23.8585H105.588V25.5749H111.986V23.8585Z" fill="#3B536B"/>
<path d="M108.13 23.8585H105.588V25.5749H108.13V23.8585Z" fill="#2C3E50"/>
<path d="M112.142 23.3153H105.436V23.8585H112.142V23.3153Z" fill="#2C3E50"/>
<path d="M108.101 23.3153H105.436V23.8585H108.101V23.3153Z" fill="#1C2833"/>
<path d="M111.986 40.0649H105.588V41.7813H111.986V40.0649Z" fill="#3B536B"/>
<path d="M108.377 40.0649H105.588V41.7813H108.377V40.0649Z" fill="#2C3E50"/>
<path d="M112.286 41.7645H105.309V42.1229H112.286V41.7645Z" fill="#F1C40F"/>
<path d="M108.786 38.6509C112.165 38.6509 114.904 35.9118 114.904 32.5329C114.904 29.154 112.165 26.4149 108.786 26.4149C105.407 26.4149 102.668 29.154 102.668 32.5329C102.668 35.9118 105.407 38.6509 108.786 38.6509Z" fill="#F1C40F"/>
<path d="M108.786 38.3037C111.974 38.3037 114.557 35.72 114.557 32.5329C114.557 29.3458 111.974 26.7621 108.786 26.7621C105.599 26.7621 103.016 29.3458 103.016 32.5329C103.016 35.72 105.599 38.3037 108.786 38.3037Z" fill="#C0392B"/>
<path d="M113.728 32.5329C113.728 33.4793 113.462 34.3613 113.003 35.1145C112.135 36.5313 110.569 37.4749 108.786 37.4749C108.203 37.4749 107.646 37.3741 107.128 37.1893C105.935 36.7637 104.953 35.8929 104.381 34.7757C104.037 34.1009 103.844 33.3393 103.844 32.5301C103.844 31.5081 104.155 30.5617 104.684 29.7749C105.571 28.4561 107.078 27.5881 108.786 27.5881C111.516 27.5881 113.728 29.8001 113.728 32.5301V32.5329Z" fill="#F1E8C6"/>
<path d="M104.979 35.4477C104.634 34.7729 104.441 34.0113 104.441 33.2021C104.441 32.1801 104.749 31.2337 105.281 30.4469C106.169 29.1281 107.675 28.2601 109.383 28.2601C110.691 28.2601 111.881 28.7697 112.763 29.5985C111.864 28.3805 110.416 27.5881 108.784 27.5881C107.151 27.5881 105.569 28.4561 104.682 29.7749C104.153 30.5617 103.842 31.5109 103.842 32.5301C103.842 33.3393 104.035 34.1009 104.379 34.7729C104.64 35.2853 104.993 35.7417 105.407 36.1309C105.247 35.9153 105.102 35.6857 104.979 35.4449V35.4477Z" fill="#C7BFA3"/>
<path d="M108.931 37.2117L108.911 36.5817L109.009 36.5761L109.043 37.2061C109.006 37.2061 108.967 37.2089 108.931 37.2117ZM108.035 37.1529C107.998 37.1473 107.959 37.1417 107.923 37.1333L108.04 36.5117C108.071 36.5173 108.105 36.5229 108.135 36.5285L108.035 37.1529ZM109.933 37.0717L109.779 36.4585C109.81 36.4501 109.843 36.4417 109.874 36.4333L110.042 37.0409C110.006 37.0521 109.969 37.0605 109.933 37.0689V37.0717ZM107.057 36.8841C107.021 36.8701 106.987 36.8561 106.954 36.8421L107.2 36.2625C107.231 36.2765 107.259 36.2877 107.29 36.2989L107.057 36.8869V36.8841ZM110.882 36.7189L110.599 36.1561C110.627 36.1421 110.658 36.1253 110.686 36.1113L110.983 36.6685C110.949 36.6853 110.916 36.7021 110.882 36.7189ZM106.164 36.4109C106.133 36.3885 106.103 36.3689 106.072 36.3465L106.439 35.8313C106.464 35.8509 106.492 35.8677 106.52 35.8873L106.167 36.4109H106.164ZM111.731 36.1701L111.333 35.6801C111.358 35.6605 111.383 35.6381 111.406 35.6185L111.815 36.0973C111.787 36.1225 111.756 36.1449 111.728 36.1701H111.731ZM105.391 35.7557C105.366 35.7277 105.341 35.6997 105.316 35.6717L105.783 35.2489C105.806 35.2741 105.828 35.2965 105.851 35.3189L105.394 35.7529L105.391 35.7557ZM112.445 35.4533L111.952 35.0585C111.971 35.0333 111.991 35.0081 112.011 34.9829L112.512 35.3637C112.489 35.3945 112.467 35.4225 112.442 35.4533H112.445ZM104.778 34.9521C104.759 34.9213 104.739 34.8877 104.722 34.8541L105.271 34.5405C105.288 34.5685 105.305 34.5965 105.321 34.6245L104.781 34.9521H104.778ZM112.988 34.5993L112.422 34.3221C112.436 34.2941 112.45 34.2633 112.464 34.2325L113.035 34.4985C113.019 34.5321 113.005 34.5657 112.988 34.5993ZM104.353 34.0365C104.341 34.0001 104.33 33.9665 104.319 33.9301L104.921 33.7397L104.952 33.8349L104.353 34.0365ZM113.335 33.6501L112.722 33.4989C112.73 33.4681 112.736 33.4345 112.744 33.4037L113.36 33.5381C113.352 33.5745 113.343 33.6109 113.335 33.6473V33.6501ZM104.134 33.0509C104.131 33.0145 104.126 32.9753 104.123 32.9389L104.753 32.8857C104.753 32.9193 104.759 32.9501 104.761 32.9837L104.134 33.0537V33.0509ZM113.467 32.6477L112.837 32.6337C112.837 32.6001 112.837 32.5693 112.837 32.5357L113.467 32.5189V32.5357C113.467 32.5721 113.467 32.6113 113.467 32.6477ZM104.759 32.1045L104.131 32.0373C104.134 32.0009 104.14 31.9617 104.145 31.9253L104.773 32.0065C104.77 32.0401 104.764 32.0709 104.761 32.1045H104.759ZM112.758 31.7433C112.753 31.7125 112.744 31.6789 112.739 31.6481L113.355 31.5109C113.363 31.5473 113.371 31.5837 113.377 31.6201L112.758 31.7433ZM104.943 31.2505L104.344 31.0489C104.355 31.0125 104.369 30.9789 104.381 30.9425L104.974 31.1581C104.963 31.1889 104.952 31.2197 104.943 31.2505ZM112.498 30.9089C112.484 30.8781 112.473 30.8501 112.459 30.8221L113.03 30.5533C113.047 30.5869 113.061 30.6205 113.077 30.6569L112.501 30.9117L112.498 30.9089ZM105.31 30.4553L104.77 30.1305C104.789 30.0997 104.809 30.0661 104.829 30.0353L105.363 30.3713C105.347 30.3993 105.33 30.4273 105.313 30.4553H105.31ZM112.061 30.1501C112.041 30.1249 112.022 30.0969 112.002 30.0717L112.503 29.6881C112.526 29.7189 112.548 29.7469 112.571 29.7777L112.061 30.1501ZM105.839 29.7553L105.38 29.3213C105.405 29.2933 105.431 29.2681 105.459 29.2401L105.907 29.6825C105.884 29.7049 105.862 29.7301 105.839 29.7525V29.7553ZM111.473 29.5005C111.448 29.4781 111.425 29.4585 111.4 29.4361L111.806 28.9545C111.834 28.9797 111.862 29.0021 111.893 29.0273L111.473 29.5005ZM106.506 29.1841L106.15 28.6633C106.181 28.6409 106.212 28.6213 106.245 28.6017L106.587 29.1309C106.559 29.1477 106.534 29.1673 106.506 29.1841ZM110.759 28.9937C110.731 28.9769 110.703 28.9629 110.672 28.9461L110.966 28.3889C111 28.4057 111.033 28.4253 111.067 28.4421L110.759 28.9937ZM107.279 28.7725L107.043 28.1873C107.077 28.1733 107.113 28.1593 107.147 28.1453L107.368 28.7361C107.337 28.7473 107.307 28.7585 107.276 28.7725H107.279ZM109.953 28.6521C109.922 28.6437 109.891 28.6325 109.86 28.6241L110.028 28.0165C110.065 28.0277 110.101 28.0361 110.137 28.0473L109.955 28.6521H109.953ZM108.121 28.5373L108.018 27.9157C108.054 27.9101 108.093 27.9045 108.13 27.8989L108.217 28.5233C108.186 28.5289 108.152 28.5317 108.121 28.5373ZM109.093 28.4953C109.062 28.4953 109.029 28.4897 108.998 28.4897L109.029 27.8597C109.068 27.8597 109.104 27.8653 109.141 27.8681L109.093 28.4981V28.4953Z" fill="#34495E"/>
<path d="M112.474 32.9053C112.474 33.2133 109.125 33.4625 108.817 33.4625C108.509 33.4625 108.26 33.2133 108.26 32.9053C108.26 32.5973 108.509 32.3481 108.817 32.3481C109.125 32.3481 112.474 32.5973 112.474 32.9053Z" fill="#C7BFA3"/>
<path d="M112.443 32.5329C112.443 32.8409 109.094 33.0901 108.786 33.0901C108.478 33.0901 108.229 32.8409 108.229 32.5329C108.229 32.2249 108.478 31.9757 108.786 31.9757C109.094 31.9757 112.443 32.2249 112.443 32.5329Z" fill="#2C3E50"/>
<path d="M108.23 32.5329C108.23 32.2249 108.48 31.9757 108.788 31.9757C109.096 31.9757 112.444 32.2249 112.444 32.5329H108.233H108.23Z" fill="#34495E"/>
<path d="M111.563 32.5889L109.718 32.7121C109.519 32.7205 109.346 32.6393 109.346 32.5301C109.346 32.4209 109.522 32.3397 109.718 32.3481L111.563 32.4713C111.583 32.4713 111.597 32.4965 111.597 32.5273C111.597 32.5581 111.583 32.5833 111.563 32.5833V32.5889Z" fill="#F1C40F"/>
<path d="M108.786 33.0734C109.085 33.0734 109.327 32.8314 109.327 32.533C109.327 32.2345 109.085 31.9926 108.786 31.9926C108.488 31.9926 108.246 32.2345 108.246 32.533C108.246 32.8314 108.488 33.0734 108.786 33.0734Z" fill="#507191"/>
<path d="M108.976 32.5329C108.976 32.6393 108.893 32.7233 108.786 32.7233C108.68 32.7233 108.596 32.6393 108.596 32.5329C108.596 32.4265 108.68 32.3425 108.786 32.3425C108.893 32.3425 108.976 32.4265 108.976 32.5329Z" fill="#2C3E50"/>
<path d="M109.239 35.0865L109.233 35.0725C109.222 35.0389 109.205 35.0053 109.186 34.9745L108.785 34.1373L108.385 34.9717C108.365 35.0025 108.349 35.0361 108.337 35.0697L108.332 35.0837C108.318 35.1285 108.307 35.1789 108.307 35.2293C108.307 35.4925 108.519 35.7081 108.785 35.7081C109.051 35.7081 109.264 35.4953 109.264 35.2293C109.264 35.1789 109.253 35.1285 109.239 35.0837V35.0865Z" fill="#2C3E50"/>
<path d="M153.84 117.129H153.843L153.832 117.104C153.809 117.043 153.784 116.984 153.748 116.931L153.042 115.461L152.336 116.931C152.303 116.984 152.275 117.043 152.252 117.104L152.241 117.127H152.244C152.219 117.208 152.199 117.292 152.199 117.381C152.199 117.846 152.574 118.221 153.039 118.221C153.504 118.221 153.879 117.846 153.879 117.381C153.879 117.292 153.862 117.208 153.834 117.127L153.84 117.129Z" fill="#2980B9"/>
<path d="M153.839 117.129H153.842L153.831 117.104C153.809 117.043 153.783 116.984 153.747 116.931L153.041 115.461L153.027 115.489V118.221C153.027 118.221 153.036 118.221 153.041 118.221C153.506 118.221 153.881 117.846 153.881 117.381C153.881 117.292 153.865 117.208 153.837 117.127L153.839 117.129Z" fill="#186AA1"/>
<path d="M152.95 117.213C152.95 117.373 152.821 117.505 152.658 117.505C152.496 117.505 152.367 117.376 152.367 117.213C152.367 117.051 152.496 116.922 152.658 116.922C152.821 116.922 152.95 117.051 152.95 117.213Z" fill="#ECF0F1"/>
<path d="M147.88 104.314H146.391V106.999H147.88V104.314Z" fill="#202E3B"/>
<path d="M148.233 105.501H146.035V106.996H148.233V105.501Z" fill="#34495E"/>
<path d="M148.863 106.932H145.408V108.822H148.863V106.932Z" fill="#E3E7E8"/>
<path d="M147.136 106.932H145.408V108.822H147.136V106.932Z" fill="#BDC3C7"/>
<path d="M154.771 112.56V115.094H151.313V112.876C151.313 112.442 150.963 112.092 150.529 112.092H143.207V108.637H150.848C153.013 108.637 154.768 110.393 154.768 112.557L154.771 112.56Z" fill="#E3E7E8"/>
<path d="M152.881 112.876V115.094H151.313V112.876C151.313 112.442 150.963 112.092 150.529 112.092H143.207V110.524H150.529C151.828 110.524 152.881 111.58 152.881 112.876Z" fill="#BDC3C7"/>
<path d="M151.366 114.285H154.715C154.939 114.285 155.118 114.467 155.118 114.688C155.118 114.912 154.936 115.094 154.715 115.094H151.366C151.142 115.094 150.963 114.912 150.963 114.691C150.963 114.467 151.145 114.285 151.366 114.285Z" fill="#F39C12"/>
<path d="M151.776 114.285H154.307C154.475 114.285 154.612 114.374 154.612 114.486C154.612 114.598 154.475 114.688 154.307 114.688H151.776C151.608 114.688 151.471 114.598 151.471 114.486C151.471 114.374 151.608 114.285 151.776 114.285Z" fill="#F1C40F"/>
<path d="M148.654 106.865H145.619V106.999H148.654V106.865Z" fill="#597DA1"/>
<path d="M148.394 105.38L145.867 105.61L145.889 105.844L148.415 105.614L148.394 105.38Z" fill="#597DA1"/>
<path d="M148.395 105.846L145.869 106.076L145.89 106.31L148.417 106.08L148.395 105.846Z" fill="#597DA1"/>
<path d="M148.392 106.311L145.865 106.541L145.887 106.775L148.413 106.546L148.392 106.311Z" fill="#597DA1"/>
<path d="M147.39 104.314H146.884C146.8 104.314 146.732 104.247 146.732 104.163C146.732 104.079 146.8 104.011 146.884 104.011H147.39C147.474 104.011 147.542 104.079 147.542 104.163C147.542 104.247 147.474 104.314 147.39 104.314Z" fill="#F1C40F"/>
<path d="M152.531 105.299L152.077 104.846H145.133L144.965 105.011L144.635 104.678L144.937 104.375H152.27L152.864 104.969L152.531 105.299Z" fill="#C0392B"/>
<path d="M148.085 104.375H146.184V104.846H148.085V104.375Z" fill="#E74C3C"/>
<path d="M147.136 112.854C148.51 112.854 149.625 111.739 149.625 110.365C149.625 108.99 148.51 107.875 147.136 107.875C145.761 107.875 144.646 108.99 144.646 110.365C144.646 111.739 145.761 112.854 147.136 112.854Z" fill="#ECF0F1"/>
<path d="M147.136 112.092C148.09 112.092 148.863 111.319 148.863 110.365C148.863 109.41 148.09 108.637 147.136 108.637C146.182 108.637 145.408 109.41 145.408 110.365C145.408 111.319 146.182 112.092 147.136 112.092Z" fill="#2980B9"/>
<path d="M143.208 108.181H142.947V112.565H143.208V108.181Z" fill="#34495E"/>
<path d="M80.3566 83.2802H73.8242V85.033H80.3566V83.2802Z" fill="#3B536B"/>
<path d="M76.4198 83.2802H73.8242V85.033H76.4198V83.2802Z" fill="#2C3E50"/>
<path d="M79.934 85.033H74.25V85.5874H79.934V85.033Z" fill="#2C3E50"/>
<path d="M76.5096 85.033H74.25V85.5874H76.5096V85.033Z" fill="#1C2833"/>
<path d="M80.3566 69.3193H73.8242V71.0721H80.3566V69.3193Z" fill="#3B536B"/>
<path d="M76.6746 69.3193H73.8242V71.0721H76.6746V69.3193Z" fill="#2C3E50"/>
<path d="M80.3557 68.9694H73.8457V69.3362H80.3557V68.9694Z" fill="#F1C40F"/>
<path d="M81.2358 78.3599C81.7541 76.0767 80.3234 73.8057 78.0403 73.2874C75.7571 72.7691 73.4861 74.1998 72.9678 76.4829C72.4495 78.7661 73.8802 81.0371 76.1633 81.5554C78.4465 82.0737 80.7175 80.643 81.2358 78.3599Z" fill="#E3E7E8"/>
<path d="M77.1021 80.6789C78.9006 80.6789 80.3585 79.221 80.3585 77.4225C80.3585 75.6241 78.9006 74.1661 77.1021 74.1661C75.3036 74.1661 73.8457 75.6241 73.8457 77.4225C73.8457 79.221 75.3036 80.6789 77.1021 80.6789Z" fill="#34495E"/>
<path d="M75.6138 80.0014L74.127 77.4226L75.6138 74.8438H78.5902L80.0798 77.4226L78.5902 80.0014H75.6138Z" fill="#F39C12"/>
<path d="M77.0909 79.951C78.4873 79.951 79.6193 78.819 79.6193 77.4226C79.6193 76.0262 78.4873 74.8942 77.0909 74.8942C75.6945 74.8942 74.5625 76.0262 74.5625 77.4226C74.5625 78.819 75.6945 79.951 77.0909 79.951Z" fill="#F1C40F"/>
<path d="M88.1651 76.1094H74.1007C73.7528 76.1094 73.4707 76.3914 73.4707 76.7394V78.1058C73.4707 78.4537 73.7528 78.7358 74.1007 78.7358H88.1651C88.513 78.7358 88.7951 78.4537 88.7951 78.1058V76.7394C88.7951 76.3914 88.513 76.1094 88.1651 76.1094Z" fill="#C0392B"/>
<path d="M88.1651 76.1094H80.4707V78.7358H88.1651C88.5123 78.7358 88.7951 78.453 88.7951 78.1058V76.7366C88.7951 76.3894 88.5123 76.1066 88.1651 76.1066V76.1094Z" fill="#8F2A20"/>
<path d="M88.166 76.1094H83.8008V78.7358H88.166C88.5132 78.7358 88.796 78.453 88.796 78.1058V76.7366C88.796 76.3894 88.5132 76.1066 88.166 76.1066V76.1094Z" fill="#E74C3C"/>
<path d="M78.8809 77.4226C78.8809 78.411 78.0801 79.2146 77.0889 79.2146C76.0977 79.2146 75.2969 78.4138 75.2969 77.4226C75.2969 76.4314 76.0977 75.6306 77.0889 75.6306C78.0801 75.6306 78.8809 76.4314 78.8809 77.4226Z" fill="#C0392B"/>
<path d="M77.0907 78.607C77.7448 78.607 78.275 78.0767 78.275 77.4226C78.275 76.7684 77.7448 76.2382 77.0907 76.2382C76.4365 76.2382 75.9062 76.7684 75.9062 77.4226C75.9062 78.0767 76.4365 78.607 77.0907 78.607Z" fill="#34495E"/>
<path d="M77.0917 78.2681C77.5587 78.2681 77.9373 77.8895 77.9373 77.4225C77.9373 76.9555 77.5587 76.5769 77.0917 76.5769C76.6247 76.5769 76.2461 76.9555 76.2461 77.4225C76.2461 77.8895 76.6247 78.2681 77.0917 78.2681Z" fill="#ECF0F1"/>
<path d="M160.968 60.4798H158.143C157.065 58.7662 155.163 57.621 152.988 57.621C150.812 57.621 148.911 58.7634 147.833 60.4798H145.008V66.9422H147.833C148.911 68.6558 150.812 69.801 152.988 69.801C155.163 69.801 157.065 68.6586 158.143 66.9422H160.968V60.4798Z" fill="#E3E7E8"/>
<path d="M154.299 55.1066H151.678V57.6238H154.299V55.1066Z" fill="#202E3B"/>
<path d="M154.422 55.4706H151.555V57.621H154.422V55.4706Z" fill="#34495E"/>
<path d="M154.97 57.2457H151.008V57.6209H154.97V57.2457Z" fill="#F1C40F"/>
<path d="M156.116 57.621H149.863V58.503H156.116V57.621Z" fill="#E3E7E8"/>
<path d="M154.624 55.3176L151.328 55.6176L151.356 55.9215L154.652 55.6215L154.624 55.3176Z" fill="#597DA1"/>
<path d="M154.624 55.9199L151.328 56.2198L151.356 56.5238L154.652 56.2238L154.624 55.9199Z" fill="#597DA1"/>
<path d="M154.622 56.525L151.326 56.825L151.354 57.1289L154.65 56.8289L154.622 56.525Z" fill="#597DA1"/>
<path d="M145.007 60.2166H143.523V67.2222H145.007V60.2166Z" fill="#3B536B"/>
<path d="M145.007 64.1674H143.523V67.2222H145.007V64.1674Z" fill="#2C3E50"/>
<path d="M143.537 60.8185H143.227V66.5921H143.537V60.8185Z" fill="#F1C40F"/>
<path d="M162.451 60.2166H160.967V67.2222H162.451V60.2166Z" fill="#3B536B"/>
<path d="M162.451 64.1674H160.967V67.2222H162.451V64.1674Z" fill="#2C3E50"/>
<path d="M162.744 60.8185H162.434V66.5921H162.744V60.8185Z" fill="#F1C40F"/>
<path d="M156.484 53.8771C156.906 51.9463 155.682 50.0393 153.752 49.6176C151.821 49.1959 149.914 50.4193 149.492 52.3501C149.07 54.2809 150.294 56.1879 152.225 56.6096C154.155 57.0313 156.062 55.8079 156.484 53.8771Z" fill="#2980B9"/>
<path d="M156.022 53.1073C156.022 53.6897 155.86 54.2301 155.577 54.6921C155.042 55.5629 154.082 56.1425 152.987 56.1425C152.629 56.1425 152.287 56.0809 151.968 55.9661C151.234 55.7057 150.63 55.1709 150.28 54.4821C150.07 54.0677 149.949 53.6001 149.949 53.1045C149.949 52.4773 150.14 51.8949 150.464 51.4105C151.01 50.6013 151.934 50.0665 152.984 50.0665C154.662 50.0665 156.022 51.4273 156.022 53.1045V53.1073Z" fill="#F1C40F"/>
<path d="M155.956 53.1073C155.956 53.6757 155.796 54.2049 155.519 54.6585C154.998 55.5097 154.057 56.0781 152.988 56.0781C152.638 56.0781 152.302 56.0165 151.991 55.9073C151.274 55.6525 150.683 55.1289 150.342 54.4569C150.134 54.0537 150.02 53.5945 150.02 53.1101C150.02 52.4969 150.204 51.9285 150.524 51.4553C151.056 50.6629 151.963 50.1421 152.988 50.1421C154.628 50.1421 155.956 51.4721 155.956 53.1101V53.1073Z" fill="#FFE066"/>
<path d="M155.848 53.1073C155.848 53.6561 155.694 54.1685 155.428 54.6025C154.924 55.4229 154.02 55.9717 152.987 55.9717C152.651 55.9717 152.326 55.9129 152.026 55.8065C151.335 55.5601 150.766 55.0561 150.436 54.4093C150.237 54.0201 150.125 53.5777 150.125 53.1101C150.125 52.5193 150.304 51.9705 150.612 51.5141C151.127 50.7497 151.998 50.2485 152.989 50.2485C154.571 50.2485 155.854 51.5309 155.854 53.1129L155.848 53.1073Z" fill="#DEF0FF"/>
<path d="M150.417 53.6141C150.417 53.0233 150.596 52.4745 150.904 52.0181C151.419 51.2537 152.29 50.7525 153.281 50.7525C154.273 50.7525 155.073 51.2145 155.594 51.9257C155.143 50.9345 154.147 50.2457 152.987 50.2457C151.996 50.2457 151.125 50.7469 150.61 51.5113C150.302 51.9677 150.123 52.5165 150.123 53.1073C150.123 53.5749 150.235 54.0173 150.434 54.4065C150.501 54.5381 150.582 54.6641 150.669 54.7845C150.509 54.4261 150.417 54.0285 150.417 53.6113V53.6141Z" fill="#ADBCC7"/>
<path d="M152.769 55.7785C152.702 55.7729 152.652 55.7141 152.657 55.6469C152.663 55.5797 152.722 55.5293 152.789 55.5349C152.856 55.5405 152.906 55.5993 152.901 55.6665C152.895 55.7309 152.842 55.7785 152.778 55.7785H152.769ZM153.497 55.6161C153.48 55.5517 153.52 55.4845 153.587 55.4677C153.651 55.4509 153.718 55.4901 153.735 55.5545C153.752 55.6217 153.713 55.6861 153.648 55.7029C153.648 55.7029 153.629 55.7057 153.618 55.7057C153.564 55.7057 153.514 55.6693 153.5 55.6133L153.497 55.6161ZM151.912 55.5629C151.851 55.5349 151.823 55.4649 151.848 55.4033C151.876 55.3417 151.946 55.3137 152.008 55.3389C152.069 55.3669 152.097 55.4369 152.069 55.4985C152.05 55.5433 152.005 55.5713 151.957 55.5713C151.94 55.5713 151.924 55.5685 151.91 55.5601L151.912 55.5629ZM154.281 55.3165C154.245 55.2605 154.262 55.1849 154.318 55.1485C154.374 55.1121 154.449 55.1289 154.488 55.1849C154.525 55.2409 154.508 55.3165 154.452 55.3529C154.432 55.3669 154.407 55.3725 154.385 55.3725C154.346 55.3725 154.306 55.3529 154.281 55.3165ZM151.173 55.0813C151.126 55.0365 151.12 54.9581 151.165 54.9105C151.212 54.8601 151.288 54.8573 151.338 54.9021C151.386 54.9469 151.392 55.0253 151.347 55.0729C151.322 55.1009 151.291 55.1121 151.257 55.1121C151.229 55.1121 151.198 55.1009 151.173 55.0785V55.0813ZM154.928 54.7733C154.875 54.7313 154.866 54.6557 154.906 54.6025C154.948 54.5493 155.023 54.5409 155.076 54.5829C155.13 54.6249 155.138 54.7005 155.096 54.7537C155.071 54.7845 155.037 54.8013 155.001 54.8013C154.976 54.8013 154.948 54.7929 154.925 54.7761L154.928 54.7733ZM150.63 54.3869C150.599 54.3281 150.622 54.2553 150.678 54.2217C150.736 54.1909 150.809 54.2133 150.843 54.2721C150.874 54.3309 150.851 54.4037 150.795 54.4373C150.776 54.4457 150.756 54.4513 150.736 54.4513C150.694 54.4513 150.652 54.4289 150.63 54.3869ZM155.362 54.0537C155.298 54.0313 155.264 53.9613 155.286 53.8997C155.309 53.8353 155.379 53.8017 155.44 53.8241C155.505 53.8465 155.538 53.9165 155.516 53.9781C155.496 54.0285 155.449 54.0621 155.401 54.0621C155.401 54.0621 155.373 54.0621 155.362 54.0537ZM150.342 53.5553C150.33 53.4881 150.375 53.4265 150.442 53.4153C150.51 53.4041 150.571 53.4489 150.582 53.5161C150.594 53.5833 150.549 53.6449 150.482 53.6561C150.482 53.6561 150.468 53.6561 150.462 53.6561C150.403 53.6561 150.353 53.6141 150.342 53.5553ZM155.418 53.1101V53.1045V53.0989C155.418 53.0317 155.471 52.9757 155.538 52.9757C155.606 52.9757 155.662 53.0317 155.662 53.0989V53.1045V53.1101C155.662 53.1773 155.606 53.2333 155.538 53.2333C155.471 53.2333 155.415 53.1773 155.415 53.1101H155.418ZM150.442 52.8161C150.375 52.8049 150.33 52.7405 150.342 52.6761C150.353 52.6089 150.414 52.5641 150.482 52.5753C150.549 52.5865 150.594 52.6509 150.582 52.7153C150.574 52.7741 150.521 52.8189 150.462 52.8189C150.462 52.8189 150.448 52.8189 150.442 52.8189V52.8161ZM155.284 52.3121C155.261 52.2477 155.295 52.1805 155.359 52.1581C155.424 52.1357 155.494 52.1693 155.516 52.2337C155.538 52.2981 155.505 52.3653 155.44 52.3877C155.44 52.3877 155.412 52.3933 155.401 52.3933C155.351 52.3933 155.303 52.3625 155.286 52.3121H155.284ZM150.675 52.0069C150.616 51.9761 150.594 51.9005 150.624 51.8417C150.655 51.7829 150.731 51.7605 150.79 51.7941C150.848 51.8249 150.871 51.9005 150.837 51.9593C150.815 52.0013 150.773 52.0237 150.731 52.0237C150.711 52.0237 150.692 52.0181 150.675 52.0097V52.0069ZM154.9 51.6093C154.858 51.5561 154.866 51.4777 154.92 51.4385C154.973 51.3965 155.051 51.4077 155.09 51.4581C155.132 51.5113 155.121 51.5897 155.071 51.6289C155.048 51.6457 155.023 51.6541 154.995 51.6541C154.959 51.6541 154.922 51.6373 154.9 51.6065V51.6093ZM151.159 51.3181C151.112 51.2677 151.114 51.1921 151.165 51.1445C151.215 51.0997 151.291 51.1025 151.336 51.1529C151.383 51.2005 151.378 51.2789 151.33 51.3237C151.308 51.3461 151.277 51.3573 151.246 51.3573C151.212 51.3573 151.179 51.3433 151.156 51.3181H151.159ZM154.306 51.0689C154.25 51.0325 154.234 50.9569 154.27 50.9009C154.306 50.8449 154.382 50.8281 154.441 50.8645C154.497 50.9009 154.514 50.9765 154.477 51.0325C154.455 51.0689 154.416 51.0885 154.374 51.0885C154.351 51.0885 154.326 51.0829 154.306 51.0689ZM151.837 50.8225C151.809 50.7609 151.837 50.6881 151.898 50.6629C151.96 50.6349 152.03 50.6629 152.058 50.7245C152.086 50.7861 152.058 50.8589 151.996 50.8841C151.98 50.8925 151.963 50.8925 151.946 50.8925C151.898 50.8925 151.854 50.8645 151.834 50.8197L151.837 50.8225ZM153.57 50.7497C153.506 50.7329 153.466 50.6657 153.48 50.6013C153.497 50.5369 153.564 50.4977 153.629 50.5117C153.696 50.5285 153.735 50.5957 153.718 50.6601C153.704 50.7161 153.654 50.7525 153.601 50.7525C153.601 50.7525 153.581 50.7525 153.573 50.7497H153.57ZM152.64 50.5761C152.635 50.5089 152.685 50.4501 152.752 50.4445C152.82 50.4389 152.878 50.4893 152.884 50.5565C152.89 50.6237 152.839 50.6825 152.772 50.6881H152.764C152.699 50.6881 152.646 50.6405 152.64 50.5761Z" fill="#2C3E50"/>
<path d="M154.892 53.1073H154.052C154.052 52.8217 153.94 52.5557 153.738 52.3541L154.332 51.7605C154.693 52.1217 154.889 52.6005 154.889 53.1073H154.892Z" fill="#C0392B"/>
<path d="M153.74 52.3542C153.538 52.1526 153.269 52.0406 152.986 52.0406V51.2006C153.496 51.2006 153.975 51.3994 154.336 51.7606L153.742 52.3542H153.74Z" fill="#E67E22"/>
<path d="M152.232 52.3542L151.639 51.7606C152 51.3994 152.479 51.2006 152.985 51.2006V52.0406C152.7 52.0406 152.434 52.1526 152.232 52.3542Z" fill="#F1C40F"/>
<path d="M151.92 53.1073H151.08C151.08 52.5977 151.279 52.1189 151.637 51.7577L152.231 52.3513C152.029 52.5529 151.917 52.8189 151.917 53.1045L151.92 53.1073Z" fill="#27AE60"/>
<path d="M150.847 52.3769L150.822 52.4543C150.813 52.4853 150.83 52.5183 150.861 52.5281L152.82 53.1482C152.851 53.158 152.884 53.1408 152.894 53.1099L152.918 53.0324C152.928 53.0015 152.911 52.9684 152.88 52.9586L150.921 52.3386C150.89 52.3288 150.857 52.3459 150.847 52.3769Z" fill="#233140"/>
<path d="M153.185 53.1857C153.14 53.2977 153.014 53.3537 152.902 53.3089C152.79 53.2641 152.734 53.1381 152.779 53.0261C152.824 52.9141 152.95 52.8581 153.062 52.9029C153.174 52.9477 153.23 53.0737 153.185 53.1857Z" fill="#34495E"/>
<path d="M153.115 53.1578C153.087 53.2306 153.003 53.2698 152.928 53.239C152.855 53.211 152.816 53.127 152.847 53.0514C152.877 52.9758 152.959 52.9394 153.034 52.9702C153.107 52.9982 153.146 53.0822 153.115 53.1578Z" fill="#56799C"/>
<path d="M152.986 66.9057C154.75 66.9057 156.181 65.4754 156.181 63.7109C156.181 61.9465 154.75 60.5161 152.986 60.5161C151.221 60.5161 149.791 61.9465 149.791 63.7109C149.791 65.4754 151.221 66.9057 152.986 66.9057Z" fill="#34495E"/>
<path d="M151.526 66.2421L150.064 63.7109L151.526 61.1797H154.446L155.908 63.7109L154.446 66.2421H151.526Z" fill="#F39C12"/>
<path d="M152.977 66.1917C154.347 66.1917 155.458 65.081 155.458 63.7109C155.458 62.3408 154.347 61.2301 152.977 61.2301C151.607 61.2301 150.496 62.3408 150.496 63.7109C150.496 65.081 151.607 66.1917 152.977 66.1917Z" fill="#F1C40F"/>
<path d="M152.977 65.4693C153.948 65.4693 154.736 64.6821 154.736 63.7109C154.736 62.7398 153.948 61.9525 152.977 61.9525C152.006 61.9525 151.219 62.7398 151.219 63.7109C151.219 64.6821 152.006 65.4693 152.977 65.4693Z" fill="#C0392B"/>
<path d="M152.985 58.4385C150.073 58.4385 147.713 60.7989 147.713 63.7109C147.713 66.6229 150.073 68.9833 152.985 68.9833C155.897 68.9833 158.258 66.6229 158.258 63.7109C158.258 60.7989 155.897 58.4385 152.985 58.4385ZM152.985 67.6953C150.784 67.6953 149.001 65.9117 149.001 63.7109C149.001 61.5101 150.784 59.7265 152.985 59.7265C155.186 59.7265 156.97 61.5101 156.97 63.7109C156.97 65.9117 155.186 67.6953 152.985 67.6953Z" fill="#E74C3C"/>
<path d="M154.774 63.7108C154.774 64.6992 153.973 65.5 152.985 65.5C151.996 65.5 151.195 64.6992 151.195 63.7108C151.195 62.7224 151.996 61.9216 152.985 61.9216C153.973 61.9216 154.774 62.7224 154.774 63.7108Z" fill="#E74C3C"/>
<path d="M157.644 64.0721C156.465 64.4557 155.196 64.4557 154.018 64.0721V63.3469C155.196 62.9633 156.465 62.9633 157.644 63.3469V64.0721Z" fill="#E74C3C"/>
<path d="M153.349 59.0516C153.732 60.2304 153.732 61.4988 153.349 62.6776H152.624C152.24 61.4988 152.24 60.2304 152.624 59.0516H153.349Z" fill="#E74C3C"/>
<path d="M148.328 63.3497C149.507 62.9661 150.775 62.9661 151.954 63.3497V64.0749C150.775 64.4585 149.507 64.4585 148.328 64.0749V63.3497Z" fill="#E74C3C"/>
<path d="M152.624 68.37C152.24 67.1912 152.24 65.9228 152.624 64.744H153.349C153.732 65.9228 153.732 67.1912 153.349 68.37H152.624Z" fill="#E74C3C"/>
<path d="M147.715 63.666C147.715 63.68 147.715 63.6968 147.715 63.7108C147.715 66.6228 150.075 68.9832 152.987 68.9832C155.899 68.9832 158.26 66.6228 158.26 63.7108C158.26 63.6968 158.26 63.68 158.26 63.666H147.718H147.715ZM152.444 67.6532C150.677 67.4124 149.283 66.018 149.042 64.2512C149.781 64.3912 150.54 64.3884 151.276 64.2428C151.45 64.8028 151.892 65.2424 152.45 65.416C152.304 66.1552 152.301 66.9112 152.441 67.6504L152.444 67.6532ZM153.528 67.6532C153.668 66.914 153.665 66.1552 153.519 65.4188C154.079 65.2452 154.519 64.8028 154.692 64.2456C155.432 64.3912 156.188 64.394 156.927 64.254C156.686 66.0208 155.292 67.4152 153.525 67.656L153.528 67.6532Z" fill="#C0392B"/>
<path d="M152.977 64.8756C153.621 64.8756 154.142 64.3541 154.142 63.7108C154.142 63.0675 153.621 62.546 152.977 62.546C152.334 62.546 151.812 63.0675 151.812 63.7108C151.812 64.3541 152.334 64.8756 152.977 64.8756Z" fill="#34495E"/>
<path d="M153.806 63.7109C153.806 64.1701 153.434 64.5397 152.977 64.5397C152.521 64.5397 152.148 64.1673 152.148 63.7109C152.148 63.2545 152.521 62.8821 152.977 62.8821C153.434 62.8821 153.806 63.2545 153.806 63.7109Z" fill="#ECF0F1"/>
<path d="M79.3865 29.2037C78.5913 29.2037 77.8493 28.8033 77.4153 28.1369C76.1945 26.2609 74.0805 25.0233 71.6781 25.0233C69.2757 25.0233 67.1617 26.2637 65.9409 28.1369C65.5069 28.8033 64.7649 29.2037 63.9697 29.2037H60.5957V34.5209H63.9697C64.7649 34.5209 65.5069 34.9213 65.9409 35.5877C67.1617 37.4609 69.2757 38.7013 71.6781 38.7013C74.0805 38.7013 76.1945 37.4609 77.4153 35.5877C77.8493 34.9213 78.5913 34.5209 79.3865 34.5209H81.4417V29.2037H79.3865Z" fill="#E3E7E8"/>
<path d="M74.3171 22.4725H69.0391V27.5685H74.3171V22.4725Z" fill="#E3E7E8"/>
<path d="M79.3865 29.2037C78.5885 29.2037 77.8493 28.8005 77.4153 28.1369C76.1973 26.2609 74.0805 25.0205 71.6781 25.0205C69.2757 25.0205 67.1617 26.2637 65.9409 28.1369C65.5069 28.8033 64.7621 29.2037 63.9697 29.2037H60.5957V34.5209H63.9697C64.7649 34.5209 65.5069 34.9241 65.9409 35.5877C67.1589 37.4637 69.2701 38.7041 71.6781 38.7041C74.0861 38.7041 76.1945 37.4609 77.4153 35.5877C77.8493 34.9213 78.5885 34.5209 79.3865 34.5209H81.4417V29.2037H79.3865Z" fill="#E3E7E8"/>
<path d="M79.3801 31.9813C77.6973 31.9813 76.1853 32.8829 75.2389 34.2773C74.4353 35.4617 73.1109 36.1673 71.6801 36.1673C70.2493 36.1673 68.8661 35.4337 68.0737 34.2045C67.1693 32.8129 65.6349 31.9841 63.9717 31.9841H60.5977V34.5237H63.9717C64.7669 34.5237 65.5089 34.9269 65.9429 35.5905C67.1609 37.4665 69.2721 38.7069 71.6801 38.7069C74.0881 38.7069 76.1965 37.4637 77.4173 35.5905C77.8513 34.9241 78.5905 34.5237 79.3885 34.5237H81.4437V31.9841H79.3801V31.9813Z" fill="#BDC3C7"/>
<path d="M84.0281 28.2545H79.9961V35.4729H84.0281V28.2545Z" fill="#34495E"/>
<path d="M84.0281 31.9337H79.9961V35.4701H84.0281V31.9337Z" fill="#222F3D"/>
<path d="M63.3504 28.2545H59.3184V35.4729H63.3504V28.2545Z" fill="#34495E"/>
<path d="M63.3504 31.9337H59.3184V35.4701H63.3504V31.9337Z" fill="#222F3D"/>
<path d="M62.858 28.2545H62.1328V35.4729H62.858V28.2545Z" fill="#F1C40F"/>
<path d="M62.858 31.9337H62.1328V35.4701H62.858V31.9337Z" fill="#F39C12"/>
<path d="M81.4361 28.2545H80.7109V35.4729H81.4361V28.2545Z" fill="#F1C40F"/>
<path d="M81.4361 31.9337H80.7109V35.4701H81.4361V31.9337Z" fill="#F39C12"/>
<path d="M72.2874 26.5746C69.031 26.5746 66.3906 29.215 66.3906 32.4714C66.3906 35.7278 69.031 38.3682 72.2874 38.3682C75.5438 38.3682 78.1842 35.7278 78.1842 32.4714C78.1842 29.215 75.5438 26.5746 72.2874 26.5746ZM72.2874 36.929C69.8262 36.929 67.8326 34.9354 67.8326 32.4742C67.8326 30.013 69.8262 28.0194 72.2874 28.0194C74.7486 28.0194 76.7422 30.013 76.7422 32.4742C76.7422 34.9354 74.7486 36.929 72.2874 36.929Z" fill="#7F8C8D"/>
<path d="M72.2883 34.4734C73.3924 34.4734 74.2875 33.5783 74.2875 32.4742C74.2875 31.37 73.3924 30.475 72.2883 30.475C71.1841 30.475 70.2891 31.37 70.2891 32.4742C70.2891 33.5783 71.1841 34.4734 72.2883 34.4734Z" fill="#7F8C8D"/>
<path d="M77.4978 32.0682H73.4434V32.8774H77.4978V32.0682Z" fill="#7F8C8D"/>
<path d="M72.6901 27.2606H71.8809V31.315H72.6901V27.2606Z" fill="#7F8C8D"/>
<path d="M71.1306 32.0682H67.0762V32.8774H71.1306V32.0682Z" fill="#7F8C8D"/>
<path d="M72.6901 33.6278H71.8809V37.6822H72.6901V33.6278Z" fill="#7F8C8D"/>
<path d="M73.8727 32.4742C73.8727 33.3506 73.1643 34.059 72.2879 34.059C71.4115 34.059 70.7031 33.3506 70.7031 32.4742C70.7031 31.5978 71.4115 30.8894 72.2879 30.8894C73.1643 30.8894 73.8727 31.5978 73.8727 32.4742Z" fill="#7F8C8D"/>
<path d="M71.6051 33.6558L70.9219 32.4742L71.6051 31.2898H72.9715L73.6547 32.4742L72.9715 33.6558H71.6051Z" fill="#7F8C8D"/>
<path d="M72.8985 32.4742C72.8985 32.8102 72.6241 33.0846 72.2881 33.0846C71.9521 33.0846 71.6777 32.8102 71.6777 32.4742C71.6777 32.1382 71.9521 31.8638 72.2881 31.8638C72.6241 31.8638 72.8985 32.1382 72.8985 32.4742Z" fill="#7F8C8D"/>
<path d="M71.678 25.9641C68.4216 25.9641 65.7812 28.6045 65.7812 31.8609C65.7812 35.1173 68.4216 37.7577 71.678 37.7577C74.9344 37.7577 77.5748 35.1173 77.5748 31.8609C77.5748 28.6045 74.9344 25.9641 71.678 25.9641ZM71.678 36.3185C69.2168 36.3185 67.2232 34.3249 67.2232 31.8637C67.2232 29.4025 69.2168 27.4089 71.678 27.4089C74.1392 27.4089 76.1328 29.4025 76.1328 31.8637C76.1328 34.3249 74.1392 36.3185 71.678 36.3185Z" fill="#C0392B"/>
<path d="M71.6789 33.8601C72.783 33.8601 73.6781 32.965 73.6781 31.8609C73.6781 30.7568 72.783 29.8617 71.6789 29.8617C70.5748 29.8617 69.6797 30.7568 69.6797 31.8609C69.6797 32.965 70.5748 33.8601 71.6789 33.8601Z" fill="#C0392B"/>
<path d="M76.8884 31.4578H72.834V32.267H76.8884V31.4578Z" fill="#C0392B"/>
<path d="M72.0807 26.6501H71.2715V30.7045H72.0807V26.6501Z" fill="#C0392B"/>
<path d="M70.5212 31.4578H66.4668V32.267H70.5212V31.4578Z" fill="#C0392B"/>
<path d="M72.0807 33.0173H71.2715V37.0717H72.0807V33.0173Z" fill="#C0392B"/>
<path d="M73.2634 31.8609C73.2634 32.7373 72.555 33.4457 71.6786 33.4457C70.8022 33.4457 70.0938 32.7373 70.0938 31.8609C70.0938 30.9845 70.8022 30.2761 71.6786 30.2761C72.555 30.2761 73.2634 30.9845 73.2634 31.8609Z" fill="#95A5A6"/>
<path d="M70.9957 33.0453L70.3125 31.8609L70.9957 30.6793H72.3621L73.0453 31.8609L72.3621 33.0453H70.9957Z" fill="#BDC3C7"/>
<path d="M72.2892 31.8609C72.2892 32.1969 72.0148 32.4713 71.6788 32.4713C71.3428 32.4713 71.0684 32.1969 71.0684 31.8609C71.0684 31.5249 71.3428 31.2505 71.6788 31.2505C72.0148 31.2505 72.2892 31.5249 72.2892 31.8609Z" fill="#ECF0F1"/>
<path d="M74.3733 20.5098H69.0449V24.343H74.3733V20.5098Z" fill="#E3E7E8"/>
<path d="M70.8649 20.5098H69.0449V24.343H70.8649V20.5098Z" fill="#BDC3C7"/>
<path d="M74.713 23.1389H68.707V24.3457H74.713V23.1389Z" fill="#34495E"/>
<path d="M70.5242 23.1389H68.707V24.3457H70.5242V23.1389Z" fill="#222F3D"/>
<path d="M78.2633 15.4949H74.0605V20.8233H78.2633V15.4949Z" fill="#E3E7E8"/>
<path d="M78.2633 19.4485H74.0605V20.8233H78.2633V19.4485Z" fill="#BDC3C7"/>
<path d="M77.9552 13.5657L74.4785 17.0424L78.2463 20.8101L81.723 17.3334L77.9552 13.5657Z" fill="#E3E7E8"/>
<path d="M80.3244 15.9341L76.8477 19.4108L78.2455 20.8086L81.7222 17.3319L80.3244 15.9341Z" fill="#BDC3C7"/>
<path d="M77.6594 13.2764L76.5586 14.3772L80.9084 18.727L82.0093 17.6262L77.6594 13.2764Z" fill="#34495E"/>
<path d="M80.5657 16.178L79.4648 17.2788L80.9121 18.7261L82.013 17.6253L80.5657 16.178Z" fill="#222F3D"/>
<path d="M75.2169 19.2917C74.7409 20.7729 73.3493 21.8425 71.7113 21.8425C69.6785 21.8425 68.0293 20.1933 68.0293 18.1605C68.0293 16.1277 69.6785 14.4785 71.7113 14.4785C73.7441 14.4785 75.3933 16.1277 75.3933 18.1605C75.3933 18.5553 75.3317 18.9361 75.2169 19.2917Z" fill="#BDC3C7"/>
<path d="M71.711 20.2829C73.0842 20.2829 74.1974 19.1697 74.1974 17.7965C74.1974 16.4233 73.0842 15.3101 71.711 15.3101C70.3378 15.3101 69.2246 16.4233 69.2246 17.7965C69.2246 19.1697 70.3378 20.2829 71.711 20.2829Z" fill="#E3E7E8"/>
<path d="M74.0606 13.4594H69.3594V15.4978H74.0606V13.4594Z" fill="#E3E7E8"/>
<path d="M70.8658 13.4594H69.3594V15.4978H70.8658V13.4594Z" fill="#BDC3C7"/>
<path d="M74.0611 13.4594H72.5547V15.4978H74.0611V13.4594Z" fill="#BDC3C7"/>
<path d="M72.7225 9.96765H70.6953V13.4593H72.7225V9.96765Z" fill="#202E3B"/>
<path d="M71.7113 10.7714L68.8637 11.155C68.4213 11.2138 68.0293 10.8694 68.0293 10.4242C68.0293 9.97617 68.4213 9.63457 68.8637 9.69337L71.7113 10.077V10.7742V10.7714Z" fill="#C0392B"/>
<path d="M71.0617 10.6005H68.9113C68.4689 10.6005 68.2421 10.2729 68.2197 9.93127C68.1021 10.0601 68.0293 10.2309 68.0293 10.4213C68.0293 10.8693 68.4213 11.2109 68.8637 11.1521L71.7113 10.7685V10.1469C71.6245 10.3989 71.4061 10.5977 71.0617 10.5977V10.6005Z" fill="#85271E"/>
<path d="M71.7109 10.7714L74.5585 11.155C75.0009 11.2138 75.3929 10.8694 75.3929 10.4242C75.3929 9.97617 75.0009 9.63457 74.5585 9.69337L71.7109 10.077V10.7742V10.7714Z" fill="#C0392B"/>
<path d="M72.3605 10.6005H74.5109C74.9533 10.6005 75.1801 10.2729 75.2025 9.93127C75.3201 10.0601 75.3929 10.2309 75.3929 10.4213C75.3929 10.8693 75.0009 11.2109 74.5585 11.1521L71.7109 10.7685V10.1469C71.7977 10.3989 72.0161 10.5977 72.3605 10.5977V10.6005Z" fill="#85271E"/>
<path d="M73.2061 11.4209H70.2129V13.4593H73.2061V11.4209Z" fill="#34495E"/>
<path d="M73.7754 13.2745H69.6426V13.4565H73.7754V13.2745Z" fill="#597DA1"/>
<path d="M73.4148 11.2631L69.9766 11.576L70.0055 11.8939L73.4437 11.581L73.4148 11.2631Z" fill="#597DA1"/>
<path d="M73.4167 11.8962L69.9785 12.2091L70.0074 12.527L73.4456 12.2141L73.4167 11.8962Z" fill="#597DA1"/>
<path d="M73.4148 12.5263L69.9766 12.8392L70.0055 13.1571L73.4437 12.8442L73.4148 12.5263Z" fill="#597DA1"/>
<path d="M72.5547 10.4213C72.5547 10.8861 72.1767 11.2641 71.7119 11.2641C71.2471 11.2641 70.8691 10.8861 70.8691 10.4213C70.8691 9.95649 71.2471 9.57849 71.7119 9.57849C72.1767 9.57849 72.5547 9.95649 72.5547 10.4213Z" fill="#85271E"/>
<path d="M71.7117 10.6425C72.0055 10.6425 72.2437 10.4043 72.2437 10.1105C72.2437 9.81668 72.0055 9.57849 71.7117 9.57849C71.4179 9.57849 71.1797 9.81668 71.1797 10.1105C71.1797 10.4043 71.4179 10.6425 71.7117 10.6425Z" fill="#C0392B"/>
<path d="M72.0634 9.27051H71.355C71.2453 9.27051 71.1562 9.35951 71.1562 9.46931V9.48611C71.1562 9.5959 71.2453 9.68491 71.355 9.68491H72.0634C72.1732 9.68491 72.2622 9.5959 72.2622 9.48611V9.46931C72.2622 9.35951 72.1732 9.27051 72.0634 9.27051Z" fill="#F1C40F"/>
</g>
<defs>
<clipPath id="clip0_897_25440">
<rect width="126" height="126" fill="white" transform="translate(45.6465 0.66333)"/>
</clipPath>
</defs>
</svg>
