<svg width="199" height="199" viewBox="0 0 199 199" fill="none" xmlns="http://www.w3.org/2000/svg">
<g clip-path="url(#clip0_897_23790)">
<path d="M198.053 0.167358H0.0527344V197.167H198.053V0.167358Z" fill="white"/>
<path d="M129.709 110.552C142.075 96.0168 144.783 89.8359 144.481 72.0202C144.18 54.2045 157.684 29.1028 150.497 34.6188C143.309 40.1338 133.207 58.5326 137.52 72.7383C141.833 86.943 140.817 91.6158 139.3 95.5253C137.783 99.4337 129.502 109.374 129.502 109.374L129.708 110.554L129.709 110.552Z" fill="#9CD499"/>
<path d="M137.252 100.941C137.292 100.882 137.333 100.822 137.372 100.763C137.968 99.3303 140.985 91.9369 141.24 88.4845C141.524 84.6518 138.177 75.7819 140.182 68.2014C142.187 60.6198 142.294 53.9149 142.83 48.7082C143.539 41.8339 149.086 35.3299 152.481 34.1302C152.45 34.0691 152.414 34.0189 152.372 33.9775L151.464 33.9972C151.196 34.1233 150.875 34.3282 150.497 34.6178C143.309 40.1328 133.207 58.5316 137.52 72.7373C141.833 86.942 140.817 91.6148 139.3 95.5243C138.891 96.5782 137.989 98.0725 136.891 99.6908L137.251 100.942L137.252 100.941Z" fill="#74B570"/>
<path d="M127.408 130.956C136.014 110.514 137.326 102.958 137.507 84.6735C137.688 66.389 179.809 36.7345 176.887 43.1223C173.966 49.51 165.868 65.1607 154.336 73.1234C142.805 81.0861 139.689 89.3572 138.721 98.7758C137.753 108.194 129.732 128.452 129.732 128.452L127.662 131.911L127.408 130.957V130.956Z" fill="#9CD499"/>
<path d="M131.153 122.584C131.122 122.584 131.09 122.579 131.06 122.569C130.904 122.518 130.819 122.351 130.87 122.196C130.892 122.132 133.032 115.684 134.466 110.3C135.901 104.914 137.111 95.3263 137.141 91.9221C137.169 88.8095 138.958 78.862 146.802 70.3211C150.703 66.0737 153.576 63.5058 157.554 59.9529C161.482 56.4434 166.372 52.0749 174.399 44.2126C174.516 44.0984 174.704 44.0994 174.819 44.2156C174.933 44.3318 174.932 44.519 174.816 44.6332C166.778 52.5054 161.883 56.8788 157.951 60.3923C153.986 63.9343 151.122 66.4933 147.241 70.72C139.523 79.124 137.764 88.8775 137.737 91.927C137.706 95.3607 136.488 105.026 135.042 110.451C133.604 115.853 131.459 122.316 131.437 122.381C131.395 122.505 131.279 122.584 131.155 122.584H131.153Z" fill="#74B570"/>
<path d="M138.5 140.019C141.35 125.48 140.952 132.739 136.414 112.235C131.22 88.7661 158.927 70.8165 162.42 79.4609C165.913 88.1042 168.486 114.521 166.698 113.51C164.909 112.501 154.709 87.2739 154.278 88.2559C153.848 89.238 136.643 96.2029 136.545 104.867C136.447 113.53 141.487 127.753 141.487 127.753L140.181 140.34L138.501 140.02L138.5 140.019Z" fill="#9CD499"/>
<path d="M140.213 140.251C140.194 140.251 140.176 140.249 140.158 140.246L138.478 139.926C138.401 139.911 138.332 139.866 138.288 139.801C138.243 139.736 138.227 139.656 138.242 139.579C138.572 137.899 138.863 136.486 139.098 135.35C139.943 131.252 139.88 127.372 138.908 123.71C138.247 121.219 137.342 117.808 136.124 112.299C135.21 108.168 135.255 103.976 136.259 99.8386C137.144 96.1921 138.748 92.6629 141.025 89.3493C144.931 83.6659 150.692 78.998 155.706 77.4574C159.225 76.3759 161.773 77.0664 162.695 79.3506C164.18 83.0256 165.685 90.4092 166.722 99.1018C167.156 102.748 167.448 106.203 167.544 108.83C167.704 113.19 167.279 113.56 167.098 113.717C166.941 113.854 166.736 113.873 166.551 113.768C165.553 113.205 162.711 106.978 158.806 98.2429C156.906 93.9916 154.945 89.6064 154.312 88.651C153.981 88.9218 153.288 89.3099 151.928 90.0605C147.055 92.7505 136.915 98.3473 136.84 104.87C136.744 113.381 141.716 127.513 141.766 127.655C141.78 127.696 141.785 127.74 141.781 127.784L140.51 139.987C140.501 140.07 140.459 140.145 140.392 140.194C140.34 140.232 140.278 140.252 140.214 140.252L140.213 140.251ZM138.882 139.401L139.951 139.605L141.183 127.788C140.818 126.742 136.151 113.184 136.245 104.863C136.323 97.9966 146.667 92.2866 151.638 89.5434C152.78 88.913 153.859 88.317 154.01 88.124C154.067 88.0058 154.181 87.9329 154.31 87.9329C154.314 87.9329 154.319 87.9329 154.323 87.9329C154.567 87.9329 154.752 87.9841 156.204 91.0681C157.058 92.8835 158.17 95.3706 159.347 98.0035C160.841 101.345 162.534 105.131 163.931 108.049C165.738 111.825 166.464 112.906 166.753 113.184C166.858 112.927 167.069 111.996 166.945 108.748C166.845 106.125 166.551 102.69 166.119 99.0752C165.089 90.4752 163.603 83.1852 162.143 79.5732C161.349 77.6101 159.066 77.0447 155.879 78.0248C147.143 80.7089 132.858 94.8023 136.702 112.174C137.918 117.67 138.821 121.075 139.481 123.561C140.476 127.312 140.542 131.282 139.678 135.471C139.446 136.595 139.185 137.86 138.881 139.403L138.882 139.401Z" fill="#74B570"/>
<path d="M129.975 111.581L130.172 111.392C130.194 109.527 130.292 107.692 130.504 106.011C129.885 109.126 129.975 111.581 129.975 111.581Z" fill="#74B570"/>
<path d="M138.377 98.6418C137.764 99.8406 137.343 101.109 137.059 102.374C140.002 95.1609 153.255 89.5995 154.179 88.5436L154.35 88.2728C149.72 86.5263 141.522 92.4866 138.376 98.6418H138.377Z" fill="#74B570"/>
<path d="M166.768 113.138C166.623 113.138 166.497 113.034 166.475 112.887L165.252 104.924C165.174 104.418 165.096 103.902 165.017 103.381C163.881 95.937 162.466 86.6741 160.33 82.4238C159.985 81.7392 158.292 80.704 155.752 80.6567C152.296 80.5927 145.452 82.3676 138.5 94.9865C138.421 95.1293 138.241 95.1825 138.097 95.1037C137.954 95.0249 137.901 94.8456 137.98 94.7028C145.082 81.8111 152.175 79.9987 155.763 80.0657C158.58 80.1189 160.44 81.3216 160.86 82.1598C163.038 86.4928 164.401 95.4179 165.603 103.292C165.682 103.814 165.761 104.328 165.838 104.835L167.061 112.798C167.086 112.96 166.974 113.11 166.812 113.135C166.798 113.137 166.782 113.138 166.767 113.138H166.768Z" fill="#74B570"/>
<path d="M161.126 100.402C161.106 100.402 161.085 100.4 161.064 100.396C160.904 100.363 160.801 100.206 160.835 100.046C160.85 99.9716 162.398 92.4156 161.105 84.2116C161.079 84.05 161.19 83.8993 161.352 83.8737C161.515 83.8491 161.666 83.9584 161.692 84.12C163.002 92.4343 161.431 100.091 161.416 100.167C161.387 100.306 161.263 100.402 161.126 100.402Z" fill="#74B570"/>
<path d="M159.176 95.4642C159.157 95.4642 159.136 95.4623 159.115 95.4573C158.955 95.4239 158.852 95.2672 158.885 95.1077C158.9 95.0387 160.347 88.1191 160.299 82.2938C160.298 82.1303 160.43 81.9973 160.594 81.9963C160.759 81.9963 160.892 82.1273 160.893 82.2899C160.941 88.1802 159.481 95.1609 159.466 95.2308C159.437 95.3697 159.314 95.4652 159.176 95.4652V95.4642Z" fill="#74B570"/>
<path d="M157.661 60.5312C157.519 60.5312 157.393 60.4288 157.369 60.284C157.343 60.1234 157.451 59.9707 157.613 59.9442C157.679 59.9333 164.351 58.771 169.547 53.5003C169.662 53.3841 169.85 53.3821 169.967 53.4963C170.084 53.6106 170.086 53.7978 169.971 53.914C164.635 59.3275 157.779 60.5155 157.711 60.5273C157.694 60.5302 157.678 60.5312 157.661 60.5312Z" fill="#74B570"/>
<path d="M151.886 66.6943C151.45 66.6943 151.198 66.6765 151.154 66.6726C150.991 66.6598 150.869 66.517 150.882 66.3544C150.895 66.1919 151.038 66.0708 151.202 66.0836C151.252 66.0875 156.338 66.4441 163.359 63.5058C163.51 63.4428 163.684 63.5137 163.748 63.6634C163.811 63.8141 163.74 63.9875 163.589 64.0505C157.909 66.4273 153.553 66.6943 151.887 66.6943H151.886Z" fill="#74B570"/>
<path d="M147.774 73.0456C146.174 73.0456 145.351 72.755 145.283 72.7294C145.13 72.6723 145.052 72.5028 145.108 72.3492C145.166 72.1965 145.337 72.1187 145.49 72.1748C145.521 72.1857 148.762 73.3056 155.183 70.8884C155.337 70.8303 155.508 70.9071 155.567 71.0598C155.625 71.2125 155.548 71.3829 155.394 71.441C151.986 72.7245 149.454 73.0446 147.775 73.0446L147.774 73.0456Z" fill="#74B570"/>
<path d="M56.7368 150.419C56.5209 149.767 41.4502 130.657 42.162 114.943C42.66 103.939 39.3652 92.0107 39.3652 92.0107C39.3652 92.0107 50.0701 99.9932 50.3988 117.446C50.6017 128.188 50.2612 131.295 50.9482 134.249C51.6353 137.204 57.8248 151.073 57.8248 151.073L56.7368 150.418V150.419Z" fill="#9CD499"/>
<path d="M57.8257 151.37C57.7732 151.37 57.7197 151.356 57.6722 151.327L56.5842 150.672C56.5268 150.638 56.4832 150.586 56.4605 150.524C56.4139 150.43 56.1169 150.006 55.7734 149.515C54.2339 147.319 50.6294 142.173 47.4564 135.81C43.4816 127.838 41.6006 120.812 41.8669 114.929C42.3569 104.101 39.1137 92.2078 39.081 92.0886C39.0473 91.9665 39.0949 91.8374 39.1998 91.7665C39.3047 91.6956 39.4433 91.6985 39.5453 91.7744C39.6562 91.8571 42.2955 93.8498 45.0101 98.0232C47.5099 101.867 50.5264 108.356 50.6977 117.441C50.766 121.074 50.7729 123.812 50.7779 126.01C50.7878 130.3 50.7927 132.258 51.2402 134.182C51.9134 137.076 58.0365 150.815 58.0989 150.953C58.1514 151.071 58.1207 151.209 58.0237 151.295C57.9682 151.344 57.8979 151.369 57.8276 151.369L57.8257 151.37ZM56.4555 150.512C56.4555 150.512 56.4575 150.517 56.4585 150.52C56.4575 150.517 56.4565 150.514 56.4555 150.512ZM56.9644 150.21L57.1742 150.337C55.8041 147.241 51.255 136.871 50.661 134.317C50.1987 132.328 50.1938 130.349 50.1839 126.013C50.1789 123.815 50.172 121.081 50.1037 117.452C49.9354 108.52 46.9772 102.144 44.526 98.369C42.6876 95.5381 40.8521 93.704 39.8849 92.8362C40.6284 95.8326 42.8747 105.768 42.4589 114.956C42.049 124.009 46.6921 135.523 56.2595 149.177C56.7 149.806 56.8832 150.07 56.9644 150.21Z" fill="#74B570"/>
<path d="M51.8758 147.456C52.4441 148.483 52.9421 150.255 53.3628 152.266H54.3617C50.9066 135.386 43.6757 125.481 32.5837 117.971C18.8474 108.672 17.9277 105.884 17.9277 105.884C17.9277 105.884 22.6154 126.873 30.6898 133.305C38.7643 139.737 49.874 143.839 51.8768 147.456H51.8758Z" fill="#9CD499"/>
<path d="M45.9853 150.293C47.3376 150.348 48.6068 151.143 49.7344 152.265H52.0589C49.5037 147.908 46.1684 144.311 42.1401 144.284C31.9738 144.213 29.9503 146.828 22.9668 146.622C17.9841 146.475 14.0449 145.421 14.0449 145.421C14.0449 145.421 17.4931 151.649 26.7466 153.194C33.2895 154.286 41.0907 150.095 45.9863 150.293H45.9853Z" fill="#9CD499"/>
<path d="M54.6684 154.348C54.5327 154.348 54.41 154.255 54.3793 154.118C52.7725 147.052 50.1074 140.866 46.6721 136.229C42.3003 130.329 37.9354 127.133 33.715 124.043C29.7124 121.112 25.9326 118.344 22.6993 113.567C22.6072 113.433 22.6438 113.248 22.7795 113.158C22.9151 113.067 23.1002 113.103 23.1913 113.237C26.3672 117.928 30.1075 120.667 34.0665 123.567C38.3225 126.684 42.724 129.907 47.1493 135.88C50.6826 140.648 53.3101 146.74 54.9574 153.988C54.9941 154.147 54.8931 154.305 54.7337 154.342C54.7119 154.346 54.6892 154.349 54.6684 154.349V154.348Z" fill="#74B570"/>
<path d="M53.7213 155.538C53.6164 155.538 53.5144 155.482 53.46 155.385C50.2781 149.586 47.1596 146.428 43.6451 145.444C40.5454 144.576 37.5388 145.514 34.3559 146.508C33.453 146.79 32.5195 147.081 31.5839 147.328C23.3838 149.494 19.1436 148.022 18.9674 147.959C18.8129 147.903 18.7337 147.733 18.7892 147.581C18.8446 147.427 19.0159 147.348 19.1693 147.403C19.2109 147.418 23.4323 148.87 31.4305 146.757C32.3532 146.513 33.2808 146.224 34.1767 145.943C37.4457 144.923 40.5335 143.959 43.8045 144.875C47.4833 145.905 50.7167 149.155 53.9797 155.102C54.0579 155.245 54.0054 155.425 53.8609 155.503C53.8154 155.528 53.7669 155.539 53.7193 155.539L53.7213 155.538Z" fill="#74B570"/>
<path d="M38.765 127.781C38.7145 127.781 38.6631 127.768 38.6155 127.741C38.5631 127.71 33.322 124.714 26.5366 124.305C26.3732 124.295 26.2485 124.155 26.2584 123.992C26.2683 123.829 26.4098 123.704 26.5732 123.715C33.5052 124.133 38.8621 127.199 38.9155 127.229C39.0571 127.311 39.1046 127.492 39.0224 127.633C38.967 127.728 38.868 127.78 38.766 127.78L38.765 127.781Z" fill="#74B570"/>
<path d="M47.9261 137.741C47.838 137.741 47.7509 137.703 47.6925 137.628C43.4741 132.27 39.1735 131.32 29.8487 129.683C29.6873 129.655 29.5794 129.502 29.6081 129.34C29.6369 129.179 29.7913 129.072 29.9527 129.101C39.4329 130.765 43.8077 131.733 48.1607 137.264C48.2617 137.392 48.239 137.578 48.1103 137.678C48.0558 137.721 47.9915 137.741 47.9271 137.741H47.9261Z" fill="#74B570"/>
<path d="M125.961 155.433C137.489 132.74 149.651 123.669 165.901 120.222C182.151 116.776 184.062 114.541 184.062 114.541C184.062 114.541 171.75 132.212 161.831 135.131C151.913 138.051 140.069 137.671 136.841 140.268C133.612 142.864 127.686 154.355 127.686 154.355L125.688 155.91L125.96 155.432L125.961 155.433Z" fill="#9CD499"/>
<path d="M131.326 163.428C131.227 163.006 136.17 140.028 146.327 139.598C156.485 139.17 158.6 141.711 165.572 141.26C170.546 140.938 174.445 139.746 174.445 139.746C174.445 139.746 171.221 146.09 162.028 147.961C155.527 149.284 147.582 145.369 142.697 145.74C137.811 146.11 134.37 156.129 134.37 156.129L133.042 161.382L131.325 163.428H131.326Z" fill="#9CD499"/>
<path d="M126.59 154.348C126.549 154.348 126.507 154.34 126.468 154.322C126.318 154.255 126.252 154.08 126.319 153.931C126.336 153.893 128.066 150.115 131.289 145.47C134.267 141.178 139.169 135.24 145.614 131.328C151.98 127.462 157.279 126.133 162.404 124.848C167.172 123.652 171.674 122.522 176.396 119.373C176.533 119.282 176.717 119.318 176.808 119.454C176.899 119.59 176.863 119.773 176.727 119.864C171.92 123.07 167.369 124.211 162.549 125.42C157.468 126.695 152.214 128.014 145.924 131.832C139.573 135.69 134.73 141.554 131.786 145.796C128.589 150.4 126.878 154.138 126.861 154.175C126.811 154.284 126.703 154.349 126.59 154.349V154.348Z" fill="#74B570"/>
<path d="M132.672 156.818C132.635 156.818 132.599 156.811 132.563 156.797C132.411 156.737 132.335 156.566 132.396 156.414C135.882 147.632 139.403 142.646 143.478 140.722C147.126 139 150.632 139.96 154.342 140.976C155.248 141.224 156.186 141.48 157.116 141.692C165.207 143.527 169.352 141.923 169.392 141.906C169.545 141.845 169.718 141.918 169.779 142.069C169.841 142.221 169.767 142.393 169.615 142.455C169.441 142.524 165.256 144.145 156.984 142.269C156.041 142.056 155.098 141.797 154.185 141.547C150.583 140.561 147.182 139.63 143.732 141.257C139.801 143.112 136.375 147.997 132.947 156.632C132.901 156.748 132.789 156.819 132.671 156.819L132.672 156.818Z" fill="#74B570"/>
<path d="M169.189 128.377C169.157 128.377 169.126 128.372 169.094 128.361C162.656 126.188 156.666 126.992 156.606 127.001C156.444 127.023 156.293 126.911 156.27 126.75C156.248 126.588 156.361 126.438 156.523 126.416C156.584 126.407 162.708 125.582 169.285 127.802C169.44 127.854 169.524 128.022 169.471 128.176C169.43 128.299 169.314 128.377 169.19 128.377H169.189Z" fill="#74B570"/>
<path d="M144.301 132.781C144.198 132.781 144.098 132.728 144.043 132.632C143.962 132.49 144.011 132.31 144.154 132.229C150.284 128.746 154.702 129.494 164.111 131.518C164.272 131.553 164.374 131.71 164.339 131.87C164.304 132.029 164.147 132.131 163.986 132.096C154.73 130.106 150.389 129.368 144.448 132.743C144.401 132.77 144.351 132.782 144.301 132.783V132.781Z" fill="#74B570"/>
<path d="M65.4727 41.6339H119.601C119.601 37.9667 116.613 34.994 112.927 34.994H72.1472C68.4615 34.994 65.4736 37.9667 65.4736 41.6339H65.4727Z" fill="#93B1C2"/>
<path d="M136.132 38.4316H47.8984V156.524H136.132V38.4316Z" fill="#BDCCD4"/>
<path d="M132.371 43.468H51.6621V151.489H132.371V43.468Z" fill="white"/>
<path opacity="0.7" d="M59.1194 65.6581H126.176C126.703 65.6581 127.129 66.0836 127.129 66.6066V66.6716C127.129 67.1957 126.702 67.6202 126.176 67.6202H59.1194C58.5927 67.6202 58.166 67.1947 58.166 66.6716V66.6066C58.166 66.0826 58.5937 65.6581 59.1194 65.6581Z" fill="#9EC8FF"/>
<path opacity="0.7" d="M59.1194 69.4661H126.176C126.703 69.4661 127.129 69.8916 127.129 70.4146V70.4796C127.129 71.0037 126.702 71.4282 126.176 71.4282H59.1194C58.5927 71.4282 58.166 71.0027 58.166 70.4796V70.4146C58.166 69.8906 58.5937 69.4661 59.1194 69.4661Z" fill="#9EC8FF"/>
<path opacity="0.7" d="M111.956 80.3119H59.1263C58.5977 80.3119 58.166 79.8815 58.166 79.3565C58.166 78.8314 58.5986 78.401 59.1263 78.401H111.956C112.484 78.401 112.916 78.8314 112.916 79.3565C112.916 79.8815 112.483 80.3119 111.956 80.3119Z" fill="#9EC8FF"/>
<path opacity="0.7" d="M111.956 83.7368H59.1263C58.5977 83.7368 58.166 83.3064 58.166 82.7814C58.166 82.2564 58.5986 81.8259 59.1263 81.8259H111.956C112.484 81.8259 112.916 82.2564 112.916 82.7814C112.916 83.3064 112.483 83.7368 111.956 83.7368Z" fill="#9EC8FF"/>
<path opacity="0.7" d="M111.956 93.6399H59.1263C58.5977 93.6399 58.166 93.2095 58.166 92.6845C58.166 92.1595 58.5986 91.729 59.1263 91.729H111.956C112.484 91.729 112.916 92.1595 112.916 92.6845C112.916 93.2095 112.483 93.6399 111.956 93.6399Z" fill="#9EC8FF"/>
<path opacity="0.7" d="M111.956 97.0639H59.1263C58.5977 97.0639 58.166 96.6334 58.166 96.1084C58.166 95.5834 58.5986 95.153 59.1263 95.153H111.956C112.484 95.153 112.916 95.5834 112.916 96.1084C112.916 96.6334 112.483 97.0639 111.956 97.0639Z" fill="#9EC8FF"/>
<path opacity="0.7" d="M111.956 109.327H59.1263C58.5977 109.327 58.166 108.897 58.166 108.372C58.166 107.847 58.5986 107.416 59.1263 107.416H111.956C112.484 107.416 112.916 107.847 112.916 108.372C112.916 108.897 112.483 109.327 111.956 109.327Z" fill="#9EC8FF"/>
<path opacity="0.7" d="M111.956 112.751H59.1263C58.5977 112.751 58.166 112.32 58.166 111.795C58.166 111.27 58.5986 110.84 59.1263 110.84H111.956C112.484 110.84 112.916 111.27 112.916 111.795C112.916 112.32 112.483 112.751 111.956 112.751Z" fill="#9EC8FF"/>
<path opacity="0.7" d="M111.956 121.577H59.1263C58.5977 121.577 58.166 121.146 58.166 120.621C58.166 120.096 58.5986 119.666 59.1263 119.666H111.956C112.484 119.666 112.916 120.096 112.916 120.621C112.916 121.146 112.483 121.577 111.956 121.577Z" fill="#9EC8FF"/>
<path opacity="0.7" d="M111.956 125H59.1263C58.5977 125 58.166 124.57 58.166 124.045C58.166 123.52 58.5986 123.089 59.1263 123.089H111.956C112.484 123.089 112.916 123.52 112.916 124.045C112.916 124.57 112.483 125 111.956 125Z" fill="#9EC8FF"/>
<path opacity="0.7" d="M128.327 142.178H75.4974C74.9688 142.178 74.5371 141.747 74.5371 141.222C74.5371 140.697 74.9697 140.267 75.4974 140.267H128.327C128.855 140.267 129.287 140.697 129.287 141.222C129.287 141.747 128.854 142.178 128.327 142.178Z" fill="#9EC8FF"/>
<path opacity="0.7" d="M128.327 146.95H75.4974C74.9688 146.95 74.5371 146.52 74.5371 145.995C74.5371 145.47 74.9697 145.039 75.4974 145.039H128.327C128.855 145.039 129.287 145.47 129.287 145.995C129.287 146.52 128.854 146.95 128.327 146.95Z" fill="#9EC8FF"/>
<g opacity="0.8">
<path d="M120.989 85.0034H117.92C116.585 85.0034 115.5 83.9239 115.5 82.5961V79.5426C115.5 78.2148 116.585 77.1353 117.92 77.1353H120.989C122.323 77.1353 123.408 78.2148 123.408 79.5426V82.5961C123.408 83.9239 122.323 85.0034 120.989 85.0034ZM117.92 78.5143C117.349 78.5143 116.886 78.9752 116.886 79.5426V82.5961C116.886 83.1635 117.349 83.6244 117.92 83.6244H120.989C121.559 83.6244 122.022 83.1635 122.022 82.5961V79.5426C122.022 78.9752 121.559 78.5143 120.989 78.5143H117.92Z" fill="#9EC8FF"/>
</g>
<g opacity="0.8">
<path d="M120.989 97.9818H117.92C116.585 97.9818 115.5 96.9023 115.5 95.5745V92.521C115.5 91.1932 116.585 90.1136 117.92 90.1136H120.989C122.323 90.1136 123.408 91.1932 123.408 92.521V95.5745C123.408 96.9023 122.323 97.9818 120.989 97.9818ZM117.92 91.4926C117.349 91.4926 116.886 91.9536 116.886 92.521V95.5745C116.886 96.1418 117.349 96.6028 117.92 96.6028H120.989C121.559 96.6028 122.022 96.1418 122.022 95.5745V92.521C122.022 91.9536 121.559 91.4926 120.989 91.4926H117.92Z" fill="#9EC8FF"/>
</g>
<path d="M119.646 83.1871C119.636 83.1871 119.627 83.1871 119.617 83.1871C119.443 83.1782 119.28 83.0945 119.174 82.9566L116.969 80.0932C116.769 79.8341 116.818 79.4628 117.078 79.2648C117.339 79.0658 117.711 79.1151 117.911 79.3741L119.69 81.683L124.583 76.4674C124.806 76.229 125.183 76.2162 125.422 76.4388C125.662 76.6615 125.675 77.0357 125.451 77.2741L120.079 82.9999C119.966 83.1201 119.809 83.1881 119.645 83.1881L119.646 83.1871Z" fill="#F37168"/>
<path d="M119.646 96.1655C119.636 96.1655 119.627 96.1655 119.617 96.1655C119.443 96.1566 119.28 96.0729 119.174 95.935L116.969 93.0716C116.769 92.8125 116.818 92.4412 117.078 92.2432C117.339 92.0452 117.711 92.0935 117.911 92.3525L119.69 94.6614L124.583 89.4458C124.806 89.2074 125.183 89.1946 125.422 89.4172C125.662 89.6398 125.675 90.0141 125.451 90.2525L120.079 95.9783C119.966 96.0985 119.809 96.1665 119.645 96.1665L119.646 96.1655Z" fill="#F37168"/>
<path d="M120.989 113.272H117.92C116.641 113.272 115.6 112.237 115.6 110.963V107.91C115.6 106.637 116.64 105.601 117.92 105.601H120.989C122.268 105.601 123.31 106.636 123.31 107.91V110.963C123.31 112.236 122.269 113.272 120.989 113.272ZM117.92 106.783C117.295 106.783 116.788 107.288 116.788 107.91V110.963C116.788 111.585 117.295 112.09 117.92 112.09H120.989C121.614 112.09 122.122 111.585 122.122 110.963V107.91C122.122 107.288 121.614 106.783 120.989 106.783H117.92Z" fill="#9EC8FF"/>
<g opacity="0.8">
<path d="M120.989 126.349H117.92C116.585 126.349 115.5 125.269 115.5 123.941V120.888C115.5 119.56 116.585 118.481 117.92 118.481H120.989C122.323 118.481 123.408 119.56 123.408 120.888V123.941C123.408 125.269 122.323 126.349 120.989 126.349ZM117.92 119.86C117.349 119.86 116.886 120.321 116.886 120.888V123.941C116.886 124.509 117.349 124.97 117.92 124.97H120.989C121.559 124.97 122.022 124.509 122.022 123.941V120.888C122.022 120.321 121.559 119.86 120.989 119.86H117.92Z" fill="#9EC8FF"/>
</g>
<path d="M119.646 111.554C119.636 111.554 119.627 111.554 119.617 111.554C119.443 111.545 119.28 111.462 119.174 111.324L116.969 108.46C116.769 108.201 116.818 107.83 117.078 107.632C117.339 107.434 117.711 107.482 117.911 107.741L119.69 110.05L124.583 104.834C124.806 104.596 125.183 104.583 125.422 104.806C125.662 105.029 125.675 105.403 125.451 105.641L120.079 111.367C119.966 111.487 119.809 111.555 119.645 111.555L119.646 111.554Z" fill="#F37168"/>
<path d="M119.646 124.532C119.636 124.532 119.627 124.532 119.617 124.532C119.443 124.524 119.28 124.44 119.174 124.302L116.969 121.439C116.769 121.179 116.818 120.808 117.078 120.61C117.339 120.411 117.711 120.46 117.911 120.719L119.69 123.028L124.583 117.813C124.806 117.574 125.183 117.562 125.422 117.784C125.662 118.007 125.675 118.381 125.451 118.619L120.079 124.345C119.966 124.465 119.809 124.533 119.645 124.533L119.646 124.532Z" fill="#F37168"/>
<path d="M103.486 46.3767H80.546C75.3376 46.3767 71.1152 42.1757 71.1152 36.9936C71.1152 35.8884 72.0151 34.993 73.1259 34.993H110.905C112.016 34.993 112.916 35.8884 112.916 36.9936C112.916 42.1757 108.694 46.3767 103.485 46.3767H103.486Z" fill="#93B1C2"/>
<path d="M74.5468 35.7042H110.64C111.392 35.7042 112.001 36.311 112.001 37.0586V37.1187C112.001 40.6233 109.142 43.468 105.62 43.468H79.5671C76.0447 43.468 73.1855 40.6233 73.1855 37.1187V37.0586C73.1855 36.311 73.7954 35.7052 74.5458 35.7052L74.5468 35.7042Z" fill="#D6E7F0"/>
<path opacity="0.7" d="M128.597 48.2719H55.4336V61.3152H128.597V48.2719Z" fill="#9EC8FF"/>
<path d="M68.9866 51.741V58.1277H67.5293V51.741H68.9866Z" fill="white"/>
<path d="M70.2422 58.1277V51.741H71.9371L73.2706 54.0813C73.6518 54.7541 74.0329 55.55 74.318 56.27H74.3467C74.2517 55.4268 74.223 54.564 74.223 53.6075V51.741H75.5565V58.1277H74.0329L72.6617 55.6642C72.2806 54.9816 71.8618 54.1572 71.547 53.4086L71.5183 53.4184C71.5559 54.2616 71.5757 55.1619 71.5757 56.205V58.1287H70.2422V58.1277Z" fill="white"/>
<path d="M76.8624 56.6404C77.2525 56.8394 77.8524 57.0383 78.4722 57.0383C79.1384 57.0383 79.4909 56.7635 79.4909 56.3469C79.4909 55.9302 79.1859 55.7214 78.4147 55.4466C77.3475 55.0772 76.6525 54.4892 76.6525 53.5613C76.6525 52.4719 77.5673 51.6376 79.081 51.6376C79.8047 51.6376 80.3383 51.7893 80.7195 51.9597L80.3957 53.1249C80.1383 53.0018 79.6809 52.8215 79.0523 52.8215C78.4236 52.8215 78.1187 53.1062 78.1187 53.4372C78.1187 53.845 78.4811 54.0242 79.3097 54.3375C80.4432 54.7541 80.9769 55.3422 80.9769 56.2424C80.9769 57.3131 80.1482 58.2233 78.386 58.2233C77.6524 58.2233 76.9287 58.0342 76.5664 57.8352L76.8614 56.6414L76.8624 56.6404Z" fill="white"/>
<path d="M83.4045 51.741V55.418C83.4045 56.5172 83.8233 57.0767 84.5668 57.0767C85.3103 57.0767 85.7479 56.5458 85.7479 55.418V51.741H87.1953V55.3234C87.1953 57.2944 86.1954 58.2331 84.5193 58.2331C82.8432 58.2331 81.9473 57.3427 81.9473 55.3047V51.7419H83.4045V51.741Z" fill="white"/>
<path d="M88.4532 51.8267C88.9194 51.7509 89.6154 51.6937 90.3866 51.6937C91.339 51.6937 92.0053 51.8356 92.4627 52.1961C92.8438 52.4995 93.0527 52.9447 93.0527 53.5327C93.0527 54.3473 92.4716 54.9068 91.9191 55.1058V55.1343C92.3666 55.3146 92.6141 55.7411 92.7765 56.3281C92.9765 57.0482 93.1764 57.8825 93.3002 58.1287H91.8142C91.7093 57.9485 91.5568 57.4274 91.3667 56.6414C91.1955 55.8455 90.9192 55.6278 90.3282 55.618H89.8896V58.1287H88.4512V51.8267H88.4532ZM89.8916 54.5749H90.4629C91.1865 54.5749 91.6152 54.2143 91.6152 53.6558C91.6152 53.0688 91.2153 52.7743 90.548 52.7654C90.1956 52.7654 89.9956 52.794 89.8906 52.8127V54.5749H89.8916Z" fill="white"/>
<path d="M95.6809 56.4887L95.2236 58.1277H93.7188L95.6809 51.741H97.5857L99.5766 58.1277H98.0144L97.5194 56.4887H95.6809ZM97.3095 55.4081L96.9095 54.0528C96.7957 53.6735 96.6808 53.1997 96.5858 52.8205H96.567C96.4719 53.1997 96.3769 53.6824 96.272 54.0528L95.8908 55.4081H97.3105H97.3095Z" fill="white"/>
<path d="M100.434 58.1277V51.741H102.128L103.462 54.0813C103.843 54.7541 104.224 55.55 104.509 56.27H104.538C104.443 55.4268 104.414 54.564 104.414 53.6075V51.741H105.748V58.1277H104.224L102.853 55.6642C102.472 54.9816 102.053 54.1572 101.738 53.4086L101.71 53.4184C101.747 54.2616 101.767 55.1619 101.767 56.205V58.1287H100.434V58.1277Z" fill="white"/>
<path d="M111.72 57.9485C111.454 58.0814 110.854 58.2233 110.073 58.2233C107.853 58.2233 106.711 56.8492 106.711 55.0299C106.711 52.8501 108.273 51.6376 110.216 51.6376C110.968 51.6376 111.539 51.7893 111.797 51.9222L111.502 53.0688C111.207 52.9457 110.797 52.8324 110.283 52.8324C109.13 52.8324 108.236 53.5238 108.236 54.9452C108.236 56.2247 108.998 57.0295 110.293 57.0295C110.731 57.0295 111.216 56.9349 111.503 56.8206L111.721 57.9485H111.72Z" fill="white"/>
<path d="M116.491 55.4278H114.129V56.9437H116.768V58.1287H112.672V51.7419H116.634V52.9269H114.129V54.2537H116.491V55.4288V55.4278Z" fill="white"/>
<path d="M109.645 36.772H91.9065C91.38 36.772 90.9531 37.1967 90.9531 37.7205V37.9579C90.9531 38.4818 91.38 38.9065 91.9065 38.9065H109.645C110.172 38.9065 110.599 38.4818 110.599 37.9579V37.7205C110.599 37.1967 110.172 36.772 109.645 36.772Z" fill="#F2F2F2"/>
<path opacity="0.5" d="M165.591 163.479C138.504 157.935 116.01 160.441 108.224 159.968C100.438 159.496 55.3055 159.016 45.7708 162.26C36.2361 165.504 52.4622 169.931 71.2851 167.876C90.1079 165.82 101.685 166.237 131.652 168.401C161.619 170.564 169.294 164.238 165.591 163.479Z" fill="#BDCCD4"/>
<path d="M72.606 82.9408C76.6719 85.8623 85.4067 87.1359 88.1925 87.2856C90.9784 87.4353 86.6461 95.077 86.6461 95.077C86.6461 95.077 79.1568 95.9763 75.6175 95.077C72.0783 94.1777 72.606 82.9408 72.606 82.9408Z" fill="#D54A41"/>
<path d="M65.6279 158.708C65.6784 160.706 66.8229 161.894 68.69 163.278C70.6482 164.728 70.7482 164.888 68.0376 165.244C65.327 165.601 64.5736 164.378 62.7668 163.853C60.9601 163.328 62.1144 162.055 62.0134 160.856C61.9135 159.658 61.7422 157.71 61.7422 157.71L65.6279 158.709V158.708Z" fill="#303C60"/>
<path d="M81.4414 157.709C81.4414 157.709 82.6463 159.097 84.253 160.476C85.8598 161.855 89.9257 162.325 87.9675 162.839C86.0103 163.353 83.8164 163.075 81.8008 163.364C79.7852 163.653 78.0279 163.373 77.8774 162.839C77.7269 162.305 77.8774 158.509 77.8774 158.509L81.4414 157.71V157.709Z" fill="#303C60"/>
<path d="M86.9888 70.3023C89.5084 67.9216 94.1406 70.9564 94.5772 72.9736C95.7008 78.1636 96.1978 83.5299 94.8306 85.6388C93.4634 87.7467 81.2884 89.0735 81.4369 88.3249C81.5854 87.5763 81.6191 82.9182 83.6357 80.6399C85.6523 78.3616 84.7356 76.1611 85.1048 74.0571C85.5494 71.5267 86.5839 70.6835 86.9878 70.3023H86.9888Z" fill="#58556E"/>
<path d="M81.7849 85.4723C80.9266 91.5202 80.0979 102.907 77.614 105.68C75.1291 108.451 73.7461 115.062 73.7461 115.062C73.7461 115.062 81.776 110.698 85.0628 99.9705C86.0934 96.6048 83.5778 88.7474 82.9679 87.9978C82.3581 87.2482 81.7849 85.4713 81.7849 85.4713V85.4723Z" fill="#7EC1D6"/>
<path d="M99.1871 102.082C98.6911 102.682 97.3616 105.587 96.6874 105.587C94.3906 105.587 94.2213 106.483 92.9759 107.139C91.376 107.982 91.7146 109.275 91.8275 109.35C91.9403 109.424 95.3449 108.831 96.4884 108.09C97.4378 107.474 98.112 107.139 98.5743 106.465C99.0376 105.79 101.656 103.842 101.656 103.842L99.1871 102.082Z" fill="#F09959"/>
<path d="M96.863 84.1415C99.1865 85.5382 99.6132 86.8364 101.897 90.7824C104.181 94.7283 104.583 96.1516 105.486 97.5749C106.39 98.9982 106.691 100.646 104.783 102.445C102.96 104.163 102.11 104.863 101.11 104.595C100.437 104.414 99.9043 102.461 98.9677 102.815C98.0312 103.169 99.6875 100.422 100.541 99.6474C101.006 99.2258 101.193 99.2583 101.043 99.0652C100.892 98.8731 98.0312 96.7505 95.6463 93.6783C93.2614 90.607 96.862 84.1405 96.862 84.1405L96.863 84.1415Z" fill="#9BD6E8"/>
<path d="M104.156 98.8988C103.026 98.3934 101.613 98.4654 100.575 98.6614C100.842 98.885 101.01 99.0238 101.044 99.0662C101.194 99.2583 101.006 99.2258 100.542 99.6483C100.377 99.7981 100.182 100.021 99.9824 100.281C100.773 99.8641 101.64 99.4888 102.35 99.3863C104.156 99.1243 104.27 99.6109 105.211 100.211C106.152 100.81 106.002 99.7242 104.156 98.8997V98.8988Z" fill="#7EC1D6"/>
<path d="M99.1999 86.2326C98.5772 85.3865 97.9149 84.7738 96.8635 84.1425C96.8635 84.1425 93.2639 90.608 95.6478 93.6802C96.4052 94.6554 97.21 95.534 97.9604 96.2865C98.009 94.217 98.2277 89.5905 99.1999 86.2326Z" fill="#7EC1D6"/>
<path d="M88.0208 82.0051C84.9082 82.7045 82.3966 83.6175 81.7541 85.4142C81.4422 86.2859 83.248 100.672 85.0547 102.27C88.5425 105.356 94.2915 102.47 94.2915 102.47C94.2915 102.47 96.9021 96.0029 97.9376 85.1453C98.2069 84.1662 91.9828 82.2425 90.9789 82.0435C89.975 81.8445 88.0218 82.0061 88.0218 82.0061L88.0208 82.0051Z" fill="#9BD6E8"/>
<path d="M89.07 158.32C89.07 158.32 84.805 164.192 87.3652 163.985C89.9253 163.777 91.5964 161.155 91.5964 161.155C91.5964 161.155 92.4855 164.128 95.0446 163.99C97.6047 163.852 96.1603 162.293 95.0446 160.475C93.9903 158.757 93.9348 156.956 93.9348 156.956L89.069 158.32H89.07Z" fill="#F09959"/>
<path d="M89.4362 84.8143C88.3799 84.8143 87.5156 83.9544 87.5156 82.9034V75.7858C87.5156 74.7348 88.3799 73.8759 89.4362 73.8759C90.4926 73.8759 91.3558 74.7358 91.3558 75.7858V82.9034C91.3558 83.9544 90.4916 84.8143 89.4362 84.8143Z" fill="#F09959"/>
<path d="M89.4362 73.8759C88.3799 73.8759 87.5156 74.7358 87.5156 75.7858V79.0077C88.7591 80.7827 90.2144 81.88 91.3558 82.532V75.7858C91.3558 74.7348 90.4916 73.8759 89.4362 73.8759Z" fill="#E38540"/>
<path d="M94.3248 74.8323C94.9247 77.3785 93.903 79.7937 92.0418 80.2281C90.1806 80.6625 88.1858 78.9506 87.5858 76.4053C86.9859 73.8591 88.0076 71.4439 89.8688 71.0095C91.73 70.5751 93.7248 72.287 94.3248 74.8323Z" fill="#F09959"/>
<path d="M85.4865 101.414C85.4865 101.414 79.501 105.908 81.4206 120.629C83.3402 135.35 85.3737 134.9 85.4865 141.979C85.5994 149.058 88.6486 158.834 90.4563 160.745C92.2631 162.655 96.7013 152.415 96.7013 143.324C96.7013 138.013 96.7042 135.461 97.9457 127.146C99.1881 118.83 98.9268 106.694 93.957 101.413C88.9872 96.131 85.4865 101.413 85.4865 101.413V101.414Z" fill="#F09959"/>
<path d="M90.3356 134.334C90.3306 130.85 89.1713 123.447 89.4357 113.212L81.8008 123.336C83.6006 135.321 85.3826 135.363 85.4875 141.979C85.5727 147.343 87.3448 154.255 88.9842 158.12C90.0495 158.5 90.7652 158.947 90.9553 159.508C91.2088 160.258 91.377 160.675 91.477 160.795C91.5127 160.773 91.5493 160.747 91.5859 160.719C91.6731 160.092 91.2167 156.893 90.7157 152.238C89.8703 144.369 90.3405 137.816 90.3356 134.333V134.334Z" fill="#E38540"/>
<path d="M82.7984 96.1555C83.7933 101.975 83.1963 102.762 81.8004 107.594C80.4055 112.426 80.3867 125.237 80.3867 125.237C80.3867 125.237 84.1705 126.81 91.4925 126.136C98.8146 125.462 99.8313 124.675 99.8313 124.675C99.8313 124.675 98.9987 112.202 97.9463 108.494C96.894 104.785 95.2496 102.25 95.1684 99.865C95.0872 97.4813 82.7984 96.1565 82.7984 96.1565V96.1555Z" fill="#9BD6E8"/>
<path d="M87.3652 163.985C89.9253 163.777 91.5964 161.155 91.5964 161.155C91.5964 161.155 92.4854 164.128 95.0446 163.99C97.2434 163.871 96.489 162.705 95.5247 161.227C95.4366 161.559 95.1644 161.87 94.4417 161.842C92.93 161.784 91.5093 159.956 91.5093 159.956C91.5093 159.956 88.87 161.979 87.8909 161.834C86.9127 161.691 88.367 159.348 88.368 159.346C87.278 161.02 85.4861 164.136 87.3632 163.984L87.3652 163.985Z" fill="#3E6BAB"/>
<path d="M102.327 129.688C102.026 133.06 102.34 135.607 101.731 138.379C101.123 141.15 99.8415 142.05 99.8415 142.05L98.7129 129.089L102.327 129.688Z" fill="#F09959"/>
<path d="M93.8941 115.454C91.4597 110.322 91.2211 108.637 92.614 107.438C94.0069 106.239 94.2326 104.591 96.5294 105.19C98.8262 105.789 99.5786 107.1 100.708 107.588C101.838 108.074 101.612 111.109 100.182 111.932C98.751 112.757 93.8941 115.454 93.8941 115.454Z" fill="#7A4E34"/>
<path d="M92.0438 160.195C92.0438 160.195 91.9439 161.752 92.3765 162.452C92.8091 163.153 93.1299 163.471 91.4964 163.503C89.8629 163.534 89.4154 163.121 89.2867 162.133C89.159 161.145 89.1748 160.848 89.4075 160.249C89.6391 159.648 92.0438 160.194 92.0438 160.194V160.195Z" fill="#63ACC2"/>
<path d="M100.52 160.442C100.52 160.442 102.365 162.09 103.457 162.465C104.549 162.839 103.017 163.664 101.089 163.252C99.1601 162.84 99.3146 163.402 98.3364 162.952C97.3573 162.503 98.2543 160.112 98.2543 160.112L100.519 160.444L100.52 160.442Z" fill="#63ACC2"/>
<path d="M100.745 134.633C100.745 134.633 100.745 147.144 100.895 152.013C101.046 156.883 101.147 160.179 101.049 160.72C101.007 160.948 98.934 160.646 98.0302 160.72C97.1263 160.795 95.2126 149.541 94.4186 143.473C93.6247 137.404 93.2891 132.985 93.2891 132.985L100.744 134.633H100.745Z" fill="#3E6BAB"/>
<path d="M94.4193 143.473C94.7926 146.33 95.4153 150.336 96.0627 153.767C96.9537 149.855 98.71 142.905 100.752 138.886C100.744 136.411 100.744 134.633 100.744 134.633L96.0637 133.597C95.1519 133.767 94.2481 133.934 93.3828 134.094C93.5313 135.772 93.862 139.217 94.4193 143.472V143.473Z" fill="#2E5B9A"/>
<path d="M90.0533 131.936C89.6771 138.079 89.093 152.243 89.291 155.385C89.5068 158.794 89.0742 160.105 89.0742 160.105C89.0742 160.105 89.9028 160.404 91.2582 160.554L92.1175 160.648C92.1175 160.648 95.5498 151.639 96.228 145.42C96.9061 139.202 98.7129 134.332 98.7129 134.332L90.0533 131.935V131.936Z" fill="#3E6BAB"/>
<path d="M99.8648 118.902C102.779 122.796 103.08 130.438 103.08 130.438C103.08 130.438 101.891 131.337 100.754 130.887C99.6163 130.438 99.8648 118.901 99.8648 118.901V118.902Z" fill="#EDC055"/>
<path d="M96.755 116.838C100.219 117.626 101.65 121.597 101.725 124.743C101.8 127.889 101.198 136.355 101.198 136.655C101.198 136.954 94.4216 137.554 91.9367 137.029L89.4518 136.505C89.4518 136.505 88.7736 123.994 89.4518 120.922C90.1299 117.851 94.5721 116.428 94.5721 116.428L96.756 116.838H96.755Z" fill="#F5CE5C"/>
<path d="M95.5536 125.344C95.3655 124.202 96.902 124.014 97.5831 124.108C98.2642 124.202 98.4266 124.951 98.7127 125.045C98.9988 125.138 99.3938 124.701 99.7522 124.957C100.11 125.213 99.6958 125.944 99.2443 125.981C98.7929 126.019 98.5286 125.576 98.2088 125.779C97.889 125.981 98.0207 126.112 97.9643 126.112C97.9078 126.112 96.7782 126.243 96.7782 126.243C96.7782 126.243 96.2892 125.925 95.9496 125.963C95.611 126 95.7387 126.356 95.7387 126.356C95.7387 126.356 95.1774 126.318 95.3091 125.925C95.4407 125.532 95.5536 125.344 95.5536 125.344Z" fill="#EDC055"/>
<path d="M98.114 126.112C98.4576 125.733 98.811 126.094 98.9615 126.225C99.112 126.356 98.6952 126.615 98.3596 126.618C98.023 126.622 98.115 126.112 98.115 126.112H98.114Z" fill="#EDC055"/>
<path d="M95.8924 126.356C95.8548 126.075 96.4191 126.131 96.5894 126.356C96.7587 126.58 96.2132 126.805 96.0439 126.749C95.8746 126.693 95.8934 126.356 95.8934 126.356H95.8924Z" fill="#EDC055"/>
<path d="M94.9506 126.618C94.913 126.505 93.4636 125.906 93.6329 125.363C93.8022 124.82 94.7625 125.99 94.7625 125.99C94.7625 125.99 94.1041 124.557 94.4427 124.445C94.7813 124.333 94.913 125.344 94.9506 125.644C94.9882 125.943 94.9506 126.618 94.9506 126.618Z" fill="#EDC055"/>
<path d="M98.9912 124.202C98.9912 124.202 99.0912 122.985 99.505 123.228C99.9189 123.472 99.2476 124.202 99.2476 124.202C99.2476 124.202 100.107 123.529 100.314 123.903C100.521 124.277 98.9902 124.438 98.9902 124.438V124.203L98.9912 124.202Z" fill="#EDC055"/>
<path d="M92.3901 131.936C92.6951 128.115 93.5158 122.796 91.1813 118.975L90.5567 118.902C90.0349 119.473 89.6211 120.145 89.4498 120.923C88.7717 123.995 89.4498 136.506 89.4498 136.506L91.9347 137.03C92.0476 137.054 92.1694 137.075 92.2991 137.095C92.2426 135.988 92.2109 134.183 92.3901 131.937V131.936Z" fill="#EDC055"/>
<path d="M95.7389 118.975C94.7242 118.975 93.8945 118.149 93.8945 117.14V113.768C93.8945 112.759 94.7251 111.933 95.7389 111.933C96.7527 111.933 97.5833 112.76 97.5833 113.768V117.14C97.8506 118.902 96.9279 119.127 95.7389 118.975Z" fill="#F09959"/>
<path d="M97.5843 117.288V112.832C97.5843 112.337 97.1774 111.932 96.6804 111.932H94.7984C94.3014 111.932 93.8945 112.337 93.8945 112.832V115.69C95.3578 117.006 96.6923 117.292 97.5843 117.288Z" fill="#E38540"/>
<path d="M100.527 111.47C100.863 113.883 99.6322 116.045 97.7789 116.3C95.9256 116.555 94.1505 114.808 93.8149 112.395C93.4793 109.983 94.7099 107.821 96.5632 107.566C98.4164 107.311 100.192 109.058 100.527 111.47Z" fill="#FCA96A"/>
<path d="M90.4918 118.975C87.1159 120.473 86.815 131.337 86.6645 132.985C86.514 134.633 87.3427 140.252 87.7941 141.75C88.2455 143.248 89.5236 144.436 89.5909 142.572C89.6583 140.707 89.1494 139.728 89.1494 139.728C89.1494 139.728 89.8266 141.151 90.0533 140.402C90.279 139.652 89.0742 138.529 89.0742 137.855C89.0742 137.18 90.0533 133.209 90.0533 131.936C90.0533 130.662 91.9353 126.542 91.9353 123.17C91.9353 119.799 90.4918 118.975 90.4918 118.975Z" fill="#FCA96A"/>
<path d="M91.6325 117.95C88.5476 119.2 87.6081 122.796 86.6468 126.241L85.6855 129.688C85.6855 129.688 90.7306 131.465 91.0315 131.25C91.3325 131.036 92.4621 124.818 92.3869 122.271C92.3116 119.724 91.6315 117.95 91.6315 117.95H91.6325Z" fill="#F5CE5C"/>
<path d="M94.5004 112.457C94.7271 113.052 94.5836 113.659 94.1787 113.812C93.7737 113.964 93.2619 113.606 93.0352 113.011C92.8085 112.416 92.952 111.809 93.357 111.657C93.7619 111.504 94.2737 111.862 94.5004 112.457Z" fill="#FCA96A"/>
<path d="M93.4782 111.146C93.4782 111.146 94.4157 114.038 94.6058 112.985C94.7959 111.932 94.4949 111.446 95.2097 111.146C95.9255 110.847 94.984 108.824 96.0007 109.011C97.0175 109.198 97.8451 110.419 99.3895 110.127C100.933 109.834 101.573 109.497 100.933 108.636C100.293 107.774 95.0216 106.95 95.0216 106.95L92.7812 109.504L93.4782 111.146Z" fill="#7A4E34"/>
<path d="M98.335 163.251C99.3141 163.7 99.1596 163.139 101.087 163.55C103.016 163.962 104.781 162.951 103.69 162.576C103.664 162.567 103.637 162.557 103.611 162.548C103.252 162.727 102.903 162.981 102.752 163.101C102.501 163.301 101.848 163.151 100.951 163.002C100.053 162.852 100.208 163.11 99.9912 162.877C99.7744 162.644 98.8913 162.03 97.8845 162.029C97.8479 162.563 97.936 163.069 98.334 163.252L98.335 163.251Z" fill="#2E5B9A"/>
<path d="M89.206 160.807C90.0089 162.435 89.6258 162.726 90.3039 162.838C90.9821 162.951 91.2108 162.425 91.9354 162.677C92.6601 162.928 92.5601 162.927 92.7245 163.126C92.8888 163.325 92.8136 163.569 92.5126 163.647C92.2116 163.725 90.6554 163.743 90.0525 163.647C89.4505 163.55 89.0486 162.429 89.0733 162.028C89.0981 161.628 89.206 160.806 89.206 160.806V160.807Z" fill="#2E5B9A"/>
<path d="M69.5611 78.1508C68.3722 76.4891 67.1772 71.965 68.2395 71.503C69.3018 71.0411 69.0355 70.3141 70.0977 68.9607C71.16 67.6074 75.4408 67.0784 76.701 69.3567C77.9623 71.635 78.5028 71.8655 78.5474 73.0879C78.5919 74.3093 75.5724 77.347 75.5724 77.347L69.5611 78.1508Z" fill="#58556E"/>
<path d="M97.6101 104.687C97.2636 105.204 96.9319 105.587 96.6874 105.587C94.3906 105.587 94.2213 106.483 92.9759 107.139C91.376 107.982 91.7146 109.275 91.8275 109.35C91.9403 109.424 95.3449 108.832 96.4884 108.09C97.4378 107.474 98.112 107.139 98.5743 106.465C98.6624 106.336 98.8307 106.16 99.0426 105.961C98.5278 105.581 98.0486 105.154 97.6101 104.687Z" fill="#F09959"/>
<path d="M70.3477 72.3029C70.3477 72.3029 69.5943 81.5264 67.938 82.5331C66.2818 83.5407 63.1187 87.2867 63.5712 95.3775C64.0226 103.468 64.6255 106.958 65.2274 110.084C65.8293 113.208 77.1243 111.304 78.3291 110.084C79.5339 108.863 80.8892 97.7001 78.3291 92.0442C75.7689 86.3874 72.9078 83.191 72.6069 81.7923C72.3059 80.3936 74.2632 74.7752 74.2632 74.7752L70.3477 72.3029Z" fill="#F09959"/>
<path d="M72.5762 81.4899C72.5386 79.7268 74.2632 74.7752 74.2632 74.7752L70.3477 72.3029C70.3477 72.3029 70.1834 74.3132 69.8398 76.56C70.3477 79.6825 71.3644 80.8812 72.5762 81.4899Z" fill="#E38540"/>
<path d="M77.4961 74.8944C77.8733 77.6041 76.9358 79.7248 74.9746 79.9947C73.0144 80.2646 70.7731 78.5822 70.3959 75.8725C70.0187 73.1628 71.3017 70.7475 73.2629 70.4777C75.2231 70.2078 77.119 72.1847 77.4961 74.8944Z" fill="#F09959"/>
<path d="M98.9908 85.2635C100.144 85.9766 101.022 87.7605 100.517 89.2094C100.012 90.6583 99.3135 88.7996 98.5453 87.7358C97.777 86.673 98.1285 84.7306 98.9908 85.2635Z" fill="#F09959"/>
<path d="M78.4845 104.65C77.6935 114.111 80.3675 135.461 80.3863 140.293C80.4051 145.125 82.3445 158.338 82.3445 158.338C82.3445 158.338 79.1825 159.242 77.94 159.346C76.6976 159.452 73.1098 147.372 72.5782 140.967C72.0475 134.562 68.6895 123.196 68.6895 123.196L69.8398 103.695L78.4855 104.65H78.4845Z" fill="#3E6BAB"/>
<path d="M78.4855 104.65L69.8398 103.695L68.6895 123.196C68.6895 123.196 72.0475 134.563 72.5782 140.967C72.5851 141.051 72.593 141.136 72.6009 141.221C72.6653 131.35 75.5501 127.064 78.5984 116.611C78.336 112.021 78.2291 107.713 78.4845 104.65H78.4855Z" fill="#2E5B9A"/>
<path d="M78.146 107.819C74.0801 121.528 70.3527 134.45 67.8688 142.991C65.3839 151.531 66.1304 160.311 66.1304 160.311L61.9516 160.643C61.9516 160.643 57.2521 146.566 60.4141 138.947C63.5762 131.328 62.0724 126.738 62.6733 119.619C63.3515 111.589 64.4899 105.721 64.4899 105.721L78.146 107.82V107.819Z" fill="#3E6BAB"/>
<path d="M78.329 92.0442C76.9539 89.0064 75.4926 86.6789 74.3868 84.9571C73.8987 84.8891 73.281 84.8281 72.5791 84.8143C71.4138 84.7916 69.3843 83.3033 68.1745 82.3262C68.0973 82.4138 68.0181 82.4838 67.9369 82.533C66.2807 83.5407 63.1176 87.2866 63.5701 95.3774C64.0215 103.468 62.3147 106.231 62.9176 109.356C63.5196 112.48 77.1242 111.303 78.329 110.082C79.5338 108.862 80.8891 97.6991 78.329 92.0432V92.0442Z" fill="#F37168"/>
<path d="M67.7363 80.5936L66.5137 83.8027L74.2624 86.937L75.1574 86.1726C75.1574 86.1726 73.9614 84.44 74.2624 83.391C74.5634 82.342 74.9148 82.0425 74.2624 81.7923C73.61 81.5431 71.2894 81.1432 69.8391 80.5936C68.3887 80.044 67.9888 79.9327 67.7363 80.5936Z" fill="#F37168"/>
<path d="M79.7117 98.5935C79.5573 96.1852 79.1405 93.837 78.3277 92.0433C78.0287 91.3823 77.7248 90.7569 77.4228 90.1619L76.4457 89.7394C76.4457 89.7394 71.0244 85.4329 67.4852 86.2367C63.9459 87.0405 63.7955 100.157 65.8289 101.595C67.8624 103.033 73.9608 99.3825 75.8438 99.0653C77.0664 98.8595 78.7098 98.6881 79.7117 98.5925V98.5935Z" fill="#D54A41"/>
<path d="M93.4545 93.2036C91.2428 93.1996 88.9787 93.0164 87.1016 92.4432C81.4547 90.7204 70.8835 86.413 68.8045 86.6947C67.1749 86.9153 65.2652 88.6972 65.4909 94.2408C65.7166 99.7844 68.5777 98.6605 72.1516 97.7513C75.7255 96.8422 80.5478 97.3987 87.1006 97.7513C89.3212 97.8705 91.7536 97.5149 93.999 96.9919C93.8772 95.7222 93.6911 94.4634 93.4535 93.2036H93.4545Z" fill="#F37168"/>
<path d="M101.588 93.6104C101.205 93.4035 97.9466 93.5729 94.832 93.4941C95.0261 94.5767 95.53 96.3674 95.6468 97.4607C98.9861 96.4925 101.651 96.3969 101.651 96.3969C101.651 96.3969 102.282 93.9847 101.588 93.6104Z" fill="#F09959"/>
<path d="M91.7602 92.9593C93.7571 92.9908 97.0676 92.7435 97.523 93.044C97.9784 93.3444 98.7843 96.8746 97.1884 97.3248C91.3543 98.9727 84.8035 97.7877 76.9726 97.2568C69.1417 96.7259 85.841 92.0432 85.841 92.0432C85.841 92.0432 90.097 92.9327 91.7592 92.9593H91.7602Z" fill="#F37168"/>
<path d="M69.5605 78.1508C70.89 77.4967 70.2297 76.2261 70.3455 75.3829C70.4614 74.5398 70.0921 73.865 70.4089 73.9222C70.7267 73.9793 70.6554 77.1569 71.0564 77.1362C71.4573 77.1155 71.3078 74.7387 71.7305 74.6727C72.1533 74.6067 72.3196 74.0148 71.9879 72.9736C71.6563 71.9325 71.9216 71.0075 72.8176 71.833C73.7135 72.6584 75.7044 74.5733 76.8657 74.3093C78.0269 74.0453 77.9606 72.8564 77.8616 72.7244C77.7616 72.5924 74.7758 69.2572 74.7758 69.2572L68.8694 72.6249L68.7031 75.6952L69.5605 78.1498V78.1508Z" fill="#58556E"/>
<path d="M70.6213 74.5457C70.7005 75.3446 70.7282 76.5551 70.7975 76.7285C70.2709 76.9422 69.5977 76.5128 69.2927 75.7701C68.9878 75.0274 69.0165 74.0522 69.5491 73.8552C69.8808 73.7331 70.5283 73.6159 70.6203 74.5457H70.6213Z" fill="#F09959"/>
<path d="M93.9992 72.753C93.1617 75.45 88.4928 75.4874 88.2671 76.237C88.0414 76.9866 88.1978 79.3279 87.5137 81.1817C86.4218 84.1426 85.7208 85.689 84.2002 86.1392C82.6806 86.5883 82.041 84.0835 82.041 84.0835C82.041 84.0835 84.7655 80.5079 84.916 80.4331C85.0665 80.3582 86.5 71.2184 86.5 71.2184C86.5 71.2184 90.1491 70.5525 90.3372 70.455C90.5253 70.3575 93.1607 71.5188 93.1607 71.5188L93.9982 72.755L93.9992 72.753Z" fill="#58556E"/>
<path d="M98.1221 93.7522C98.7032 93.7522 101.677 92.0955 102.241 92.0432C102.807 91.991 105.027 92.5929 105.027 92.5929C105.027 92.5929 100.743 95.8976 100.663 95.8552C100.585 95.8119 98.1211 93.7522 98.1211 93.7522H98.1221Z" fill="#F09959"/>
<path d="M110.599 96.5998L107.362 96.2866C107.362 96.2866 105.629 97.8144 104.049 98.169C102.469 98.5236 101.188 96.8402 101.188 96.8402L103.641 93.9797L107.965 93.4941L111.241 93.8281L110.6 96.5998H110.599Z" fill="#E38540"/>
<path d="M99.8301 96.1555C99.8301 96.1555 101.828 97.7562 103.522 97.9857C105.216 98.2152 106.157 97.3947 106.76 96.8401C107.362 96.2865 105.48 95.7172 104.803 95.0563C104.125 94.3963 104.615 93.303 104.615 93.303H101.656L99.8311 96.1555H99.8301Z" fill="#F09959"/>
<path d="M110.599 93.4942L107.324 93.1366C107.324 93.1366 105.968 91.9457 105.29 92.0442C104.613 92.1427 102.878 93.4942 102.878 93.4942C102.878 93.4942 101.393 94.8761 101.91 95.0258C102.428 95.1756 103.934 94.7402 104.122 94.3954C104.31 94.0517 103.746 94.5146 105.44 94.3954C107.134 94.2763 107.322 93.9788 107.322 93.9788L110.597 94.2388V93.4932L110.599 93.4942Z" fill="#E38540"/>
<path d="M100.798 96.9929C101.226 96.3379 101.823 95.9478 102.88 96.529C103.937 97.1101 104.245 97.9277 104.05 98.169C103.855 98.4103 101.864 97.7681 101.118 97.5445C100.539 97.3711 100.798 96.9939 100.798 96.9939V96.9929Z" fill="#E38540"/>
<path d="M141.332 77.2071C141.9 75.0756 143.457 69.9339 140.98 68.8071C138.502 67.6802 137.264 66.0244 134.786 66.8706C132.308 67.7157 132.804 69.6532 131.919 70.7091C131.034 71.765 132.521 75.2174 133.936 76.4497C135.352 77.6819 141.332 77.2071 141.332 77.2071Z" fill="#58556E"/>
<path d="M110.57 93.2262L108.484 93.1366L107.588 97.1613L111.093 97.8183L110.57 93.2262Z" fill="#F2E5DE"/>
<path d="M143.713 85.3944C146.988 89.9737 144.993 93.4744 140.908 96.4432C136.823 99.4119 127.207 100.339 123.141 100.518C119.075 100.697 108.91 97.5927 108.91 97.5927L109.538 93.1375C109.538 93.1375 119.164 94.0516 122.891 93.4162C126.618 92.7799 139.833 85.3954 139.833 85.3954H143.713V85.3944Z" fill="#58556E"/>
<path d="M136.076 87.4344C134.909 88.055 133.562 88.7603 132.172 89.4645C130.822 92.9593 130.443 96.5418 123.894 98.9195C122.375 99.4711 120.932 99.8553 119.602 100.118C120.97 100.395 122.214 100.559 123.142 100.518C126.089 100.388 132.714 100.764 137.273 99.3549C137.136 95.868 136.192 90.354 136.076 87.4344Z" fill="#3A384D"/>
<path d="M139.907 72.8485L142.392 80.8782L137.271 87.1468L138.777 81.7637L137.271 76.2566L139.907 72.8485Z" fill="#F09959"/>
<path d="M139.907 72.8485L137.271 76.2566L138.768 81.7322C139.699 80.1326 140.474 78.2079 140.907 76.0813L139.907 72.8485Z" fill="#E38540"/>
<path d="M139.992 76.0911C139.135 78.7428 136.834 80.3779 134.852 79.7435C132.869 79.1092 131.956 76.4467 132.811 73.7951C133.668 71.1435 135.968 69.5084 137.951 70.1427C139.934 70.7771 140.847 73.4395 139.992 76.0911Z" fill="#F09959"/>
<path d="M137.548 84.1356C137.548 84.1356 136.034 85.0349 136.038 85.7343C136.042 86.4336 136.038 86.8335 136.038 86.8335C136.038 86.8335 134.737 88.8154 133.733 91.3704C132.729 93.9255 132.782 95.2238 132.782 95.2238L139.147 85.5865L137.549 84.1366L137.548 84.1356Z" fill="#F37168"/>
<path d="M146.508 160.123C146.457 162.121 144.243 163.533 143.192 164.062C139.898 165.727 139.327 166.766 142.941 166.714C145.675 166.674 147.559 165.611 150.521 165.411C152.399 165.284 151.046 163.208 151.147 162.01C151.247 160.811 150.393 159.125 150.393 159.125L146.508 160.123Z" fill="#3A384D"/>
<path d="M130.694 159.125C130.694 159.125 130.028 160.036 128.423 161.415C126.816 162.794 121.154 162.839 124.169 164.255C126 165.114 129.371 164.491 131.387 164.78C133.402 165.068 135.16 164.789 135.31 164.255C135.461 163.72 134.897 160.067 134.897 160.067L130.694 159.125Z" fill="#3A384D"/>
<path d="M133.651 106.066C134.442 115.527 131.768 136.876 131.749 141.709C131.731 146.541 128.986 160.594 128.986 160.594C128.986 160.594 134.284 162.734 135.526 162.838C136.769 162.944 139.401 150.581 139.932 144.175C140.462 137.77 143.445 124.611 143.445 124.611L142.295 105.11L133.649 106.066H133.651Z" fill="#58556E"/>
<path d="M139.221 149.652C139.55 147.65 139.804 145.737 139.933 144.175C140.464 137.77 143.447 124.611 143.447 124.611L143.063 118.105L133.54 117.97C133.342 121.452 133.054 125.098 132.766 128.488C136.424 136.422 138.332 144.781 139.219 149.652H139.221Z" fill="#3A384D"/>
<path d="M133.99 109.234C137.673 129.089 140.385 136.985 142.87 145.525C145.354 154.065 144.788 162.839 144.788 162.839L151.678 163.714C151.678 163.714 154.371 148.172 151.722 140.36C150.097 135.569 151.173 129.077 150.572 121.959C149.895 113.928 149.307 105.719 149.307 105.719L133.99 109.233V109.234Z" fill="#58556E"/>
<path d="M148.312 116.166L136.406 121.282C136.46 121.526 136.353 122.734 136.406 122.974C142.238 123.458 145.928 122.908 150.705 124.058C150.595 122.665 150.372 119.382 150.279 117.97L148.312 116.165V116.166Z" fill="#3A384D"/>
<path d="M143.261 81.6111C148.231 86.2888 150.039 91.2326 149.871 93.9492C149.532 99.4484 150.583 120.597 150.583 120.597C150.583 120.597 147.664 121.258 142.772 122.149C137.881 123.038 133.161 121.737 133.161 121.737C133.161 121.737 132.334 106.628 132.372 97.1396C132.396 91.3547 143.261 81.6111 143.261 81.6111Z" fill="#58556E"/>
<path d="M148.127 121.115C148.256 118.615 149.156 101.012 149.015 100.733C148.865 100.433 143.142 87.1477 143.142 87.1477C140.08 91.2936 139.887 99.934 139.933 104.579C139.975 108.765 141.242 120.125 141.492 122.334C141.916 122.288 142.344 122.227 142.772 122.149C144.929 121.757 146.756 121.397 148.126 121.116L148.127 121.115Z" fill="#3A384D"/>
<path d="M142.87 80.3404L141.916 78.4916L137.272 82.2375L136.996 87.3694L142.87 80.3404Z" fill="#F2E5DE"/>
<path d="M142.067 84.4853C142.067 84.4853 143.961 83.6204 145.705 84.2223C144.988 83.3495 144.331 82.4828 143.261 81.4751C143.261 81.4751 132.396 91.2187 132.372 97.0036C132.366 98.4171 132.4 99.8503 132.464 101.265C132.499 98.3669 132.079 96.2728 134.938 92.4894C137.472 89.1364 142.87 86.3833 142.87 86.3833L142.067 84.4853Z" fill="#3A384D"/>
<path d="M142.919 79.8805L144.285 82.4779L140.908 84.8853L141.815 86.3835C141.815 86.3835 137.744 88.9602 136.039 90.2791C133.182 92.4895 132.178 97.7208 132.178 97.7208C132.178 97.7208 132.58 92.4895 136.039 88.1515C139.203 84.184 142.92 79.8805 142.92 79.8805H142.919Z" fill="#58556E"/>
<path d="M138.245 120.864L152.73 122.613L151.749 132.152L137.973 130.748L138.245 120.864Z" fill="#BDCCD4"/>
<path d="M146.534 114.693L145.078 120.005L142.869 121.489L144.658 121.775C144.658 121.775 144.334 124.933 143.727 126.369C143.121 127.805 143.773 128.283 146.233 126.609C148.693 124.934 149.375 124.121 149.21 122.159C149.045 120.196 148.593 119.958 148.844 118.331C149.095 116.704 146.485 114.358 146.485 114.358L146.535 114.693H146.534Z" fill="#F09959"/>
<path d="M144.98 117.371L144.479 120.099L149.239 120.864L150.028 117.371H144.98Z" fill="#F2E5DE"/>
<path d="M146.291 85.3945C148.086 86.1283 150.37 92.6381 153.71 104.235C154.517 107.037 150.028 119.718 150.028 119.718C150.028 119.718 144.291 119.354 144.22 118.438C144.18 117.913 146.743 107.85 146.404 106.88C146.066 105.911 144.088 102.955 142.392 96.3555C140.696 89.756 143.021 84.0578 146.291 85.3945Z" fill="#58556E"/>
<path d="M132.954 69.794C131.176 74.2314 135.038 73.7734 136.663 72.4003C138.287 71.0272 138.497 72.2141 138.464 73.8443C138.434 75.375 139.047 74.256 138.906 75.9818C138.764 77.7075 138.652 77.7892 139.222 77.1904C139.791 76.5915 139.969 74.4077 139.969 74.4077C139.969 74.4077 139.836 77.2347 140.648 77.4277C141.46 77.6208 141.332 77.2081 141.332 77.2081L141.515 72.4712L137.937 68.4918C137.937 68.4918 133.345 68.5273 133.34 68.6681C133.335 68.809 132.954 69.795 132.954 69.795V69.794Z" fill="#58556E"/>
<path d="M139.97 74.4068C140.521 73.209 141.735 73.7734 141.411 75.182C141.087 76.5905 139.756 76.7176 139.756 76.7176L139.97 74.4068Z" fill="#F09959"/>
<path d="M43.0483 32.1474C50.3396 32.1474 59.9189 29.4179 62.878 28.5186C63.3255 28.3827 63.7878 28.6861 63.7878 29.1175V49.2953C63.7878 64.8868 43.3651 77.5263 43.3651 77.5263C43.3651 77.5263 22.9434 64.8868 22.9434 49.2953V30.0533C22.9434 29.6396 23.371 29.3382 23.8096 29.4426C26.6252 30.1134 35.7589 32.1474 43.0483 32.1474Z" fill="#93B1C2"/>
<path opacity="0.7" d="M43.3655 35.4668C48.8352 35.4668 55.6355 33.682 59.052 32.2735C60.0707 31.8538 61.2251 32.5325 61.2251 33.553V49.7454C61.2251 63.3807 43.3655 74.4344 43.3655 74.4344C43.3655 74.4344 25.5059 63.3807 25.5059 49.7454V34.2572C25.5059 33.2772 26.577 32.6005 27.5829 32.9413C30.9657 34.0898 37.8432 35.4658 43.3645 35.4658L43.3655 35.4668Z" fill="#9EC8FF"/>
<path d="M43.5551 39.859V70.126C43.5551 70.126 29.3516 61.1212 29.3516 50.4211V38.1559C29.3516 37.4408 30.1356 36.9483 30.8682 37.2014C33.5214 38.1185 39.1417 39.8599 43.5551 39.8599V39.859Z" fill="#D6E7F0"/>
<path d="M43.5547 39.8589V70.126C43.5547 70.126 58.2661 61.1212 58.2661 50.4211V38.1273C58.2661 37.4201 57.4969 36.9256 56.7682 37.166C54.015 38.0731 48.0255 39.8589 43.5557 39.8589H43.5547Z" fill="#D6E7F0"/>
<mask id="mask0_897_23790" style="mask-type:luminance" maskUnits="userSpaceOnUse" x="22" y="28" width="42" height="50">
<path d="M43.0483 32.1474C50.3396 32.1474 59.9189 29.4179 62.878 28.5186C63.3255 28.3827 63.7878 28.6861 63.7878 29.1175V49.2953C63.7878 64.8868 43.3651 77.5263 43.3651 77.5263C43.3651 77.5263 22.9434 64.8868 22.9434 49.2953V30.0533C22.9434 29.6396 23.371 29.3382 23.8096 29.4426C26.6252 30.1134 35.7589 32.1474 43.0483 32.1474Z" fill="white"/>
</mask>
<g mask="url(#mask0_897_23790)">
<g style="mix-blend-mode:overlay">
<path d="M28.5652 49.0973C30.4501 55.2121 31.5173 64.8642 32.0173 70.5713C26.7515 65.6866 21.5223 59.9234 21.259 56.9123C20.9293 53.1456 20.2838 42.285 20.3957 34.735C22.5717 37.3088 26.5762 42.6445 28.5652 49.0973Z" fill="url(#paint0_linear_897_23790)"/>
<path d="M38.4243 61.3152C36.8789 54.1848 32.4387 36.3888 20.5488 30.8689C20.7231 28.5187 21.0488 27.0008 21.5943 26.9683C23.7723 26.8373 26.3463 28.0843 26.3463 28.0843C37.9619 28.0183 43.6386 45.5513 44.1663 48.5723C44.6939 51.5933 44.0999 78.2671 42.9783 78.9832C42.7337 79.1398 41.5863 78.4611 39.936 77.2427C39.8944 74.0345 39.6548 66.9967 38.4243 61.3162V61.3152Z" fill="url(#paint1_linear_897_23790)"/>
</g>
</g>
</g>
<path d="M46.1836 187.868H48.4336C48.3164 188.946 48.0078 189.911 47.5078 190.762C47.0078 191.614 46.3008 192.29 45.3867 192.79C44.4727 193.282 43.332 193.528 41.9648 193.528C40.9648 193.528 40.0547 193.341 39.2344 192.966C38.4219 192.591 37.7227 192.059 37.1367 191.372C36.5508 190.677 36.0977 189.844 35.7773 188.876C35.4648 187.899 35.3086 186.813 35.3086 185.618V183.919C35.3086 182.723 35.4648 181.641 35.7773 180.673C36.0977 179.696 36.5547 178.86 37.1484 178.165C37.75 177.469 38.4727 176.934 39.3164 176.559C40.1602 176.184 41.1094 175.997 42.1641 175.997C43.4531 175.997 44.543 176.239 45.4336 176.723C46.3242 177.208 47.0156 177.88 47.5078 178.739C48.0078 179.591 48.3164 180.579 48.4336 181.704H46.1836C46.0742 180.907 45.8711 180.223 45.5742 179.653C45.2773 179.075 44.8555 178.63 44.3086 178.317C43.7617 178.005 43.0469 177.848 42.1641 177.848C41.4062 177.848 40.7383 177.993 40.1602 178.282C39.5898 178.571 39.1094 178.981 38.7188 179.512C38.3359 180.044 38.0469 180.68 37.8516 181.423C37.6562 182.165 37.5586 182.989 37.5586 183.895V185.618C37.5586 186.454 37.6445 187.239 37.8164 187.973C37.9961 188.708 38.2656 189.352 38.625 189.907C38.9844 190.462 39.4414 190.899 39.9961 191.219C40.5508 191.532 41.207 191.688 41.9648 191.688C42.9258 191.688 43.6914 191.536 44.2617 191.231C44.832 190.927 45.2617 190.489 45.5508 189.919C45.8477 189.348 46.0586 188.665 46.1836 187.868ZM56.3555 180.614V193.294H54.1758V180.614H56.3555ZM60.6094 180.614V182.372H50.0039V180.614H60.6094ZM64.9102 183.052V198.169H62.7305V180.614H64.7227L64.9102 183.052ZM73.4531 186.848V187.094C73.4531 188.016 73.3438 188.872 73.125 189.661C72.9062 190.442 72.5859 191.122 72.1641 191.7C71.75 192.278 71.2383 192.727 70.6289 193.048C70.0195 193.368 69.3203 193.528 68.5312 193.528C67.7266 193.528 67.0156 193.395 66.3984 193.13C65.7812 192.864 65.2578 192.477 64.8281 191.969C64.3984 191.462 64.0547 190.852 63.7969 190.141C63.5469 189.43 63.375 188.63 63.2812 187.739V186.427C63.375 185.489 63.5508 184.649 63.8086 183.907C64.0664 183.165 64.4062 182.532 64.8281 182.009C65.2578 181.477 65.7773 181.075 66.3867 180.802C66.9961 180.52 67.6992 180.38 68.4961 180.38C69.293 180.38 70 180.536 70.6172 180.848C71.2344 181.153 71.7539 181.591 72.1758 182.161C72.5977 182.731 72.9141 183.415 73.125 184.212C73.3438 185.001 73.4531 185.88 73.4531 186.848ZM71.2734 187.094V186.848C71.2734 186.216 71.207 185.622 71.0742 185.067C70.9414 184.505 70.7344 184.012 70.4531 183.591C70.1797 183.161 69.8281 182.825 69.3984 182.583C68.9688 182.333 68.457 182.208 67.8633 182.208C67.3164 182.208 66.8398 182.302 66.4336 182.489C66.0352 182.677 65.6953 182.93 65.4141 183.251C65.1328 183.563 64.9023 183.923 64.7227 184.329C64.5508 184.727 64.4219 185.141 64.3359 185.571V188.606C64.4922 189.153 64.7109 189.669 64.9922 190.153C65.2734 190.63 65.6484 191.016 66.1172 191.313C66.5859 191.602 67.1758 191.747 67.8867 191.747C68.4727 191.747 68.9766 191.626 69.3984 191.384C69.8281 191.134 70.1797 190.794 70.4531 190.364C70.7344 189.934 70.9414 189.442 71.0742 188.887C71.207 188.325 71.2734 187.727 71.2734 187.094ZM83.6953 191.126V184.598C83.6953 184.098 83.5938 183.665 83.3906 183.298C83.1953 182.923 82.8984 182.634 82.5 182.43C82.1016 182.227 81.6094 182.126 81.0234 182.126C80.4766 182.126 79.9961 182.219 79.582 182.407C79.1758 182.594 78.8555 182.841 78.6211 183.145C78.3945 183.45 78.2812 183.778 78.2812 184.13H76.1133C76.1133 183.677 76.2305 183.227 76.4648 182.782C76.6992 182.337 77.0352 181.934 77.4727 181.575C77.918 181.208 78.4492 180.919 79.0664 180.708C79.6914 180.489 80.3867 180.38 81.1523 180.38C82.0742 180.38 82.8867 180.536 83.5898 180.848C84.3008 181.161 84.8555 181.634 85.2539 182.266C85.6602 182.891 85.8633 183.677 85.8633 184.622V190.528C85.8633 190.95 85.8984 191.399 85.9688 191.876C86.0469 192.352 86.1602 192.762 86.3086 193.106V193.294H84.0469C83.9375 193.044 83.8516 192.712 83.7891 192.298C83.7266 191.876 83.6953 191.485 83.6953 191.126ZM84.0703 185.606L84.0938 187.13H81.9023C81.2852 187.13 80.7344 187.18 80.25 187.282C79.7656 187.376 79.3594 187.52 79.0312 187.716C78.7031 187.911 78.4531 188.157 78.2812 188.454C78.1094 188.743 78.0234 189.083 78.0234 189.473C78.0234 189.872 78.1133 190.235 78.293 190.563C78.4727 190.891 78.7422 191.153 79.1016 191.348C79.4688 191.536 79.918 191.63 80.4492 191.63C81.1133 191.63 81.6992 191.489 82.207 191.208C82.7148 190.927 83.1172 190.583 83.4141 190.177C83.7188 189.77 83.8828 189.376 83.9062 188.993L84.832 190.036C84.7773 190.364 84.6289 190.727 84.3867 191.126C84.1445 191.524 83.8203 191.907 83.4141 192.274C83.0156 192.634 82.5391 192.934 81.9844 193.177C81.4375 193.411 80.8203 193.528 80.1328 193.528C79.2734 193.528 78.5195 193.36 77.8711 193.024C77.2305 192.688 76.7305 192.239 76.3711 191.677C76.0195 191.106 75.8438 190.469 75.8438 189.766C75.8438 189.087 75.9766 188.489 76.2422 187.973C76.5078 187.45 76.8906 187.016 77.3906 186.673C77.8906 186.321 78.4922 186.055 79.1953 185.876C79.8984 185.696 80.6836 185.606 81.5508 185.606H84.0703ZM90.7383 180.614L93.5156 185.231L96.3281 180.614H98.8711L94.7227 186.872L99 193.294H96.4922L93.5625 188.536L90.6328 193.294H88.1133L92.3789 186.872L88.2422 180.614H90.7383ZM100.371 187.094V186.825C100.371 185.911 100.504 185.063 100.77 184.282C101.035 183.493 101.418 182.809 101.918 182.231C102.418 181.645 103.023 181.192 103.734 180.872C104.445 180.544 105.242 180.38 106.125 180.38C107.016 180.38 107.816 180.544 108.527 180.872C109.246 181.192 109.855 181.645 110.355 182.231C110.863 182.809 111.25 183.493 111.516 184.282C111.781 185.063 111.914 185.911 111.914 186.825V187.094C111.914 188.009 111.781 188.856 111.516 189.637C111.25 190.419 110.863 191.102 110.355 191.688C109.855 192.266 109.25 192.719 108.539 193.048C107.836 193.368 107.039 193.528 106.148 193.528C105.258 193.528 104.457 193.368 103.746 193.048C103.035 192.719 102.426 192.266 101.918 191.688C101.418 191.102 101.035 190.419 100.77 189.637C100.504 188.856 100.371 188.009 100.371 187.094ZM102.539 186.825V187.094C102.539 187.727 102.613 188.325 102.762 188.887C102.91 189.442 103.133 189.934 103.43 190.364C103.734 190.794 104.113 191.134 104.566 191.384C105.02 191.626 105.547 191.747 106.148 191.747C106.742 191.747 107.262 191.626 107.707 191.384C108.16 191.134 108.535 190.794 108.832 190.364C109.129 189.934 109.352 189.442 109.5 188.887C109.656 188.325 109.734 187.727 109.734 187.094V186.825C109.734 186.2 109.656 185.61 109.5 185.055C109.352 184.493 109.125 183.997 108.82 183.567C108.523 183.13 108.148 182.786 107.695 182.536C107.25 182.286 106.727 182.161 106.125 182.161C105.531 182.161 105.008 182.286 104.555 182.536C104.109 182.786 103.734 183.13 103.43 183.567C103.133 183.997 102.91 184.493 102.762 185.055C102.613 185.61 102.539 186.2 102.539 186.825ZM120.586 187.716H116.426L116.402 185.981H119.801C120.473 185.981 121.031 185.915 121.477 185.782C121.93 185.649 122.27 185.45 122.496 185.184C122.723 184.919 122.836 184.591 122.836 184.2C122.836 183.895 122.77 183.63 122.637 183.403C122.512 183.169 122.32 182.977 122.062 182.829C121.805 182.673 121.484 182.559 121.102 182.489C120.727 182.411 120.285 182.372 119.777 182.372H117V193.294H114.832V180.614H119.777C120.582 180.614 121.305 180.684 121.945 180.825C122.594 180.966 123.145 181.18 123.598 181.469C124.059 181.751 124.41 182.11 124.652 182.548C124.895 182.985 125.016 183.501 125.016 184.094C125.016 184.477 124.938 184.841 124.781 185.184C124.625 185.528 124.395 185.833 124.09 186.098C123.785 186.364 123.41 186.583 122.965 186.755C122.52 186.919 122.008 187.024 121.43 187.071L120.586 187.716ZM120.586 193.294H115.641L116.719 191.536H120.586C121.188 191.536 121.688 191.462 122.086 191.313C122.484 191.157 122.781 190.938 122.977 190.657C123.18 190.368 123.281 190.024 123.281 189.626C123.281 189.227 123.18 188.887 122.977 188.606C122.781 188.317 122.484 188.098 122.086 187.95C121.688 187.794 121.188 187.716 120.586 187.716H117.293L117.316 185.981H121.43L122.215 186.637C122.91 186.692 123.5 186.864 123.984 187.153C124.469 187.442 124.836 187.809 125.086 188.255C125.336 188.692 125.461 189.169 125.461 189.684C125.461 190.278 125.348 190.802 125.121 191.255C124.902 191.708 124.582 192.087 124.16 192.391C123.738 192.688 123.227 192.915 122.625 193.071C122.023 193.219 121.344 193.294 120.586 193.294ZM135.844 191.126V184.598C135.844 184.098 135.742 183.665 135.539 183.298C135.344 182.923 135.047 182.634 134.648 182.43C134.25 182.227 133.758 182.126 133.172 182.126C132.625 182.126 132.145 182.219 131.73 182.407C131.324 182.594 131.004 182.841 130.77 183.145C130.543 183.45 130.43 183.778 130.43 184.13H128.262C128.262 183.677 128.379 183.227 128.613 182.782C128.848 182.337 129.184 181.934 129.621 181.575C130.066 181.208 130.598 180.919 131.215 180.708C131.84 180.489 132.535 180.38 133.301 180.38C134.223 180.38 135.035 180.536 135.738 180.848C136.449 181.161 137.004 181.634 137.402 182.266C137.809 182.891 138.012 183.677 138.012 184.622V190.528C138.012 190.95 138.047 191.399 138.117 191.876C138.195 192.352 138.309 192.762 138.457 193.106V193.294H136.195C136.086 193.044 136 192.712 135.938 192.298C135.875 191.876 135.844 191.485 135.844 191.126ZM136.219 185.606L136.242 187.13H134.051C133.434 187.13 132.883 187.18 132.398 187.282C131.914 187.376 131.508 187.52 131.18 187.716C130.852 187.911 130.602 188.157 130.43 188.454C130.258 188.743 130.172 189.083 130.172 189.473C130.172 189.872 130.262 190.235 130.441 190.563C130.621 190.891 130.891 191.153 131.25 191.348C131.617 191.536 132.066 191.63 132.598 191.63C133.262 191.63 133.848 191.489 134.355 191.208C134.863 190.927 135.266 190.583 135.562 190.177C135.867 189.77 136.031 189.376 136.055 188.993L136.98 190.036C136.926 190.364 136.777 190.727 136.535 191.126C136.293 191.524 135.969 191.907 135.562 192.274C135.164 192.634 134.688 192.934 134.133 193.177C133.586 193.411 132.969 193.528 132.281 193.528C131.422 193.528 130.668 193.36 130.02 193.024C129.379 192.688 128.879 192.239 128.52 191.677C128.168 191.106 127.992 190.469 127.992 189.766C127.992 189.087 128.125 188.489 128.391 187.973C128.656 187.45 129.039 187.016 129.539 186.673C130.039 186.321 130.641 186.055 131.344 185.876C132.047 185.696 132.832 185.606 133.699 185.606H136.219ZM150.023 186.11V187.868H143.32V186.11H150.023ZM143.777 180.614V193.294H141.609V180.614H143.777ZM151.781 180.614V193.294H149.602V180.614H151.781ZM157.617 189.86L163.465 180.614H165.645V193.294H163.465V184.048L157.617 193.294H155.461V180.614H157.617V189.86ZM174.387 193.528C173.504 193.528 172.703 193.38 171.984 193.083C171.273 192.778 170.66 192.352 170.145 191.805C169.637 191.259 169.246 190.61 168.973 189.86C168.699 189.11 168.562 188.29 168.562 187.399V186.907C168.562 185.876 168.715 184.958 169.02 184.153C169.324 183.341 169.738 182.653 170.262 182.091C170.785 181.528 171.379 181.102 172.043 180.813C172.707 180.524 173.395 180.38 174.105 180.38C175.012 180.38 175.793 180.536 176.449 180.848C177.113 181.161 177.656 181.598 178.078 182.161C178.5 182.716 178.812 183.372 179.016 184.13C179.219 184.88 179.32 185.7 179.32 186.591V187.563H169.852V185.794H177.152V185.63C177.121 185.067 177.004 184.52 176.801 183.989C176.605 183.458 176.293 183.02 175.863 182.677C175.434 182.333 174.848 182.161 174.105 182.161C173.613 182.161 173.16 182.266 172.746 182.477C172.332 182.68 171.977 182.985 171.68 183.391C171.383 183.798 171.152 184.294 170.988 184.88C170.824 185.466 170.742 186.141 170.742 186.907V187.399C170.742 188.001 170.824 188.567 170.988 189.098C171.16 189.622 171.406 190.083 171.727 190.481C172.055 190.88 172.449 191.192 172.91 191.419C173.379 191.645 173.91 191.759 174.504 191.759C175.27 191.759 175.918 191.602 176.449 191.29C176.98 190.977 177.445 190.559 177.844 190.036L179.156 191.079C178.883 191.493 178.535 191.887 178.113 192.262C177.691 192.637 177.172 192.942 176.555 193.177C175.945 193.411 175.223 193.528 174.387 193.528Z" fill="black"/>
<defs>
<linearGradient id="paint0_linear_897_23790" x1="3.82209" y1="18.9001" x2="50.2571" y2="93.426" gradientUnits="userSpaceOnUse">
<stop stop-color="white"/>
<stop offset="1"/>
</linearGradient>
<linearGradient id="paint1_linear_897_23790" x1="12.2566" y1="13.6442" x2="58.6926" y2="88.171" gradientUnits="userSpaceOnUse">
<stop stop-color="white"/>
<stop offset="1"/>
</linearGradient>
<clipPath id="clip0_897_23790">
<rect width="198" height="197" fill="white" transform="translate(0.0527344 0.167358)"/>
</clipPath>
</defs>
</svg>
