<svg width="225" height="170" viewBox="0 0 225 170" fill="none" xmlns="http://www.w3.org/2000/svg">
<g clip-path="url(#clip0_897_23793)">
<path d="M165.378 2.91635C168.904 3.99637 174.176 8.90327 178.8 16.7305C184.486 26.3593 187.866 27.2027 195.911 22.4588C203.957 17.7149 213.408 20.9024 220.248 33.5335C227.088 46.1646 215.105 55.9847 204 71.3721C192.894 86.7596 215.068 82.7802 222.252 100.753C229.435 118.725 219.304 138.887 185.972 138.647C152.592 138.407 96.7668 136.718 96.7668 136.718C96.7668 136.718 36.9456 142.69 21.6456 133.747C2.39958 122.498 35.397 118.326 19.5487 111.308C3.7005 104.289 3.92505 97.7344 4.22129 85.2336C4.5597 70.9736 17.6501 68.7799 23.9797 63.9287C30.3093 59.0775 34.1161 53.811 25.0666 45.1771C16.0171 36.5432 9.08867 30.7267 13.664 19.2871C20.2266 2.87744 36.155 0.759456 53.6552 7.71598C71.1554 14.6725 74.1262 23.5798 103.009 18.4226C119.118 15.5464 135.356 -6.27699 165.378 2.91635Z" fill="url(#paint0_linear_897_23793)"/>
<g opacity="0.9">
<path d="M12.5577 2.55457C11.8282 16.8956 10.212 100.075 70.5614 104.521C70.5614 104.521 82.5733 48.0312 14.0199 1.35676C13.4201 0.948728 12.6052 1.61756 12.5577 2.55457Z" fill="#91B3FA"/>
<path opacity="0.45" d="M18.9121 13.2801C20.0507 17.1911 21.262 21.0853 22.5028 24.9669C23.7457 28.8484 25.0277 32.7174 26.3507 36.5727C28.9926 44.2842 31.8011 51.9391 34.8088 59.5129C36.3227 63.2956 37.8851 67.0594 39.5149 70.7937C41.1574 74.5217 42.8653 78.2203 44.6627 81.8747C46.476 85.5197 48.3884 89.1162 50.4504 92.6224C52.5167 96.1232 54.7285 99.5463 57.2481 102.724C57.3852 102.896 57.3556 103.146 57.1838 103.282C57.012 103.418 56.7611 103.389 56.6251 103.218L56.6229 103.215C54.0854 99.9838 51.8758 96.525 49.8137 92.9946C47.7569 89.4591 45.854 85.8394 44.0523 82.1744C42.2665 78.5011 40.5713 74.7857 38.9435 71.0419C37.3284 67.2928 35.7819 63.5164 34.2828 59.7211C31.3056 52.122 28.5309 44.4472 25.9238 36.7178C24.6186 32.853 23.3536 28.9757 22.1275 25.0857C20.9035 21.1947 19.7112 17.2952 18.5885 13.3716C18.5632 13.2822 18.6148 13.1897 18.7044 13.1634C18.794 13.1382 18.8868 13.1897 18.9132 13.2791L18.9121 13.2801Z" fill="white"/>
</g>
<path d="M0.0101736 60.4278C-0.110009 59.6738 0.865154 59.2605 1.32374 59.8705C5.75994 65.7732 17.8773 80.8883 29.7806 86.7932C49.1636 96.4072 67.6 117.059 63.7447 132.938C63.7447 132.938 13.0763 142.541 0.00911934 60.4278H0.0101736Z" fill="#BDD0FB"/>
<path d="M5.26226 69.271C5.34344 69.4182 5.4573 69.6033 5.55956 69.7737L5.8811 70.2911L6.53683 71.3206L7.86937 73.3681C8.76863 74.7268 9.6837 76.074 10.6125 77.4127C12.4637 80.0933 14.3582 82.7434 16.3074 85.3525C20.2176 90.5612 24.2595 95.6732 28.5702 100.553C30.7356 102.982 32.9094 105.405 35.1834 107.733C37.4574 110.061 39.7851 112.335 42.1983 114.516C47.0076 118.895 52.1512 122.92 57.7049 126.333C57.7808 126.379 57.8051 126.477 57.7597 126.552C57.7155 126.626 57.6195 126.65 57.5457 126.609C54.6803 125.024 51.9372 123.224 49.2764 121.315C46.6302 119.383 44.1001 117.3 41.6269 115.154C36.731 110.803 32.1472 106.113 27.8439 101.187C25.688 98.7271 23.6132 96.199 21.5765 93.6425C19.5407 91.0849 17.562 88.4832 15.6601 85.8257C13.7541 83.1725 11.887 80.4908 10.0959 77.7587C9.20403 76.3905 8.32375 75.015 7.46139 73.6279C7.03232 72.9328 6.6043 72.2376 6.18577 71.5362L5.56694 70.4783L5.26332 69.9451C5.16422 69.761 5.06512 69.598 4.96286 69.3814C4.92491 69.3025 4.95865 69.2079 5.03771 69.1711C5.11362 69.1353 5.20428 69.1648 5.24434 69.2373L5.26226 69.2699V69.271Z" fill="#DCE5FE"/>
<path d="M207.216 4.47281C210.159 15.0164 224.774 77.0752 168.86 101.216C168.86 101.216 148.694 62.8319 205.655 4.07529C206.154 3.56104 207.024 3.78399 207.216 4.47281Z" fill="#91B3FA"/>
<path d="M203.262 14.7356C202.81 18.2049 202.286 21.6616 201.732 25.1141C201.177 28.5666 200.581 32.0128 199.946 35.4506C198.675 42.3282 197.25 49.1786 195.614 55.9815C193.972 62.7824 192.131 69.5412 189.923 76.1886C188.83 79.5149 187.614 82.8044 186.274 86.0444C184.929 89.2824 183.454 92.4731 181.727 95.5396C181.625 95.7205 181.395 95.7846 181.214 95.6837C181.032 95.5817 180.968 95.3524 181.069 95.1715V95.1694L181.071 95.1684C182.794 92.1471 184.275 88.988 185.629 85.7763C186.977 82.5625 188.204 79.294 189.311 75.9846C191.546 69.3719 193.419 62.6362 195.092 55.8553C196.761 49.0723 198.22 42.2368 199.525 35.3728C200.177 31.9403 200.79 28.5004 201.363 25.0542C201.935 21.608 202.476 18.1545 202.946 14.6946C202.957 14.6063 203.038 14.5453 203.126 14.5568C203.213 14.5684 203.275 14.6483 203.263 14.7356H203.262Z" fill="#DCE5FE"/>
<path d="M173.585 136.141C173.585 136.141 172.648 124.181 183.492 110.906C193.554 98.5893 218.449 69.9367 223.352 54.9509C223.569 54.2874 224.535 54.381 224.611 55.075C225.429 62.5216 226.008 81.3311 214.945 101.183C200.68 126.782 173.585 136.14 173.585 136.14V136.141Z" fill="#BDD0FB"/>
<path d="M220.322 68.7273C220.271 70.3836 220.014 72.0283 219.667 73.6489C219.625 73.8518 219.587 74.0559 219.541 74.2578L219.392 74.8614L219.094 76.0697L218.745 77.2644C218.624 77.6619 218.521 78.0647 218.378 78.4538C217.331 81.6034 216.027 84.672 214.46 87.6029C214.099 88.3517 213.66 89.0584 213.249 89.7809L212.625 90.8598C212.518 91.0386 212.422 91.2226 212.307 91.3962L211.969 91.9199L210.616 94.0147C210.398 94.3691 210.144 94.6983 209.904 95.0369L209.174 96.0475L208.444 97.0581L208.077 97.5619L207.688 98.0488L206.13 99.9953C205.867 100.317 205.615 100.649 205.345 100.964L204.537 101.907L202.918 103.795L201.279 105.664C200.731 106.285 200.189 106.912 199.631 107.525C198.525 108.76 197.412 109.987 196.285 111.201C195.167 112.423 194.028 113.628 192.896 114.837L189.463 118.429C187.174 120.821 184.88 123.208 182.67 125.666C182.109 126.273 181.58 126.905 181.039 127.53C180.765 127.839 180.513 128.165 180.253 128.486C179.996 128.809 179.731 129.125 179.482 129.454C178.998 130.12 178.489 130.771 178.053 131.471L177.713 131.987C177.657 132.073 177.597 132.157 177.545 132.247L177.393 132.515L176.785 133.591L176.783 133.595C176.759 133.638 176.704 133.653 176.661 133.629C176.62 133.605 176.604 133.553 176.624 133.511C177.359 132.018 178.252 130.61 179.228 129.265C179.471 128.929 179.731 128.605 179.982 128.274C180.236 127.946 180.482 127.611 180.751 127.295C181.279 126.655 181.798 126.006 182.347 125.384L183.16 124.441C183.433 124.13 183.715 123.825 183.991 123.516L184.824 122.593L185.665 121.679C186.786 120.458 187.919 119.251 189.047 118.038C191.305 115.616 193.563 113.196 195.793 110.753C198.027 108.313 200.22 105.837 202.393 103.344L204.006 101.459L204.813 100.517C205.082 100.204 205.334 99.8776 205.595 99.5589L207.15 97.6355L207.539 97.1549L207.905 96.6564L208.635 95.6584C210.613 93.0209 212.364 90.2194 213.966 87.3411C215.579 84.4659 216.934 81.4488 218.038 78.3412C218.189 77.9574 218.299 77.5599 218.433 77.1697L218.817 75.994L219.153 74.8036L219.32 74.2073C219.372 74.0075 219.416 73.8066 219.465 73.6058C219.556 73.204 219.662 72.8044 219.744 72.3995L219.98 71.1839C220.112 70.3699 220.25 69.5528 220.298 68.7283C220.298 68.722 220.304 68.7167 220.31 68.7178C220.316 68.7178 220.321 68.723 220.321 68.7294L220.322 68.7273Z" fill="#DCE5FE"/>
<path d="M118.844 51.6214C118.815 51.6435 118.777 51.6519 118.74 51.6425C118.673 51.6257 118.631 51.5584 118.648 51.491C118.687 51.3301 118.724 51.1692 118.759 51.0073C118.774 50.94 118.84 50.8958 118.908 50.9105C118.975 50.9253 119.018 50.9915 119.005 51.0588C118.97 51.2229 118.933 51.3869 118.893 51.5499C118.886 51.5794 118.869 51.6036 118.847 51.6204L118.844 51.6214Z" fill="#91B3FA"/>
<path d="M113.451 60.0481C113.398 60.0881 113.321 60.0786 113.278 60.0261C113.235 59.9724 113.244 59.8936 113.298 59.8504C113.548 59.6517 113.795 59.4414 114.032 59.2268C114.083 59.1806 114.163 59.1837 114.209 59.2352C114.256 59.2868 114.253 59.3656 114.201 59.4119C113.961 59.6306 113.71 59.8431 113.456 60.046C113.455 60.046 113.453 60.0481 113.452 60.0492L113.451 60.0481ZM112.17 60.9673C112.17 60.9673 112.166 60.9704 112.163 60.9725C111.89 61.1481 111.608 61.3175 111.323 61.4763C111.263 61.5099 111.186 61.4889 111.152 61.4279C111.118 61.3679 111.137 61.2922 111.201 61.2575C111.48 61.1019 111.757 60.9357 112.027 60.7622C112.085 60.7243 112.163 60.7412 112.2 60.8001C112.236 60.8558 112.222 60.9294 112.169 60.9683L112.17 60.9673ZM115.304 58.3024C115.257 58.3371 115.191 58.3361 115.146 58.2951C115.094 58.2488 115.09 58.1699 115.136 58.1184C115.349 57.8818 115.558 57.6347 115.757 57.3833C115.8 57.3286 115.878 57.3202 115.933 57.3623C115.987 57.4054 115.996 57.4832 115.954 57.5379C115.752 57.7935 115.54 58.0448 115.324 58.2856C115.318 58.2919 115.312 58.2972 115.305 58.3024H115.304ZM109.923 62.164C109.915 62.1693 109.907 62.1745 109.898 62.1787C109.599 62.307 109.293 62.428 108.987 62.5384C108.921 62.5615 108.85 62.5279 108.826 62.4627C108.803 62.3975 108.836 62.326 108.902 62.3028C109.204 62.1945 109.505 62.0757 109.798 61.9495C109.862 61.9221 109.936 61.9516 109.963 62.0147C109.986 62.0694 109.968 62.1304 109.923 62.164ZM116.845 56.277C116.805 56.3075 116.748 56.3107 116.703 56.2823C116.645 56.2455 116.627 56.1676 116.665 56.1098L116.713 56.0341C116.868 55.7891 117.018 55.5367 117.158 55.2832C117.192 55.2233 117.268 55.2012 117.329 55.2348C117.389 55.2685 117.411 55.3442 117.377 55.4052C117.234 55.6618 117.082 55.9184 116.925 56.1676L116.877 56.2444C116.868 56.2581 116.858 56.2686 116.846 56.2781L116.845 56.277ZM107.51 62.979C107.497 62.9885 107.481 62.9959 107.465 63.0001C107.149 63.0789 106.828 63.1483 106.508 63.2072C106.44 63.2199 106.374 63.1746 106.363 63.1073C106.35 63.039 106.395 62.9748 106.463 62.9622C106.777 62.9044 107.093 62.836 107.404 62.7582C107.472 62.7414 107.539 62.7824 107.556 62.8497C107.569 62.9002 107.549 62.9506 107.51 62.9801V62.979ZM118.037 54.0307C118.002 54.057 117.955 54.0633 117.913 54.0454C117.85 54.0181 117.82 53.9445 117.847 53.8814C117.974 53.588 118.092 53.2872 118.2 52.9865C118.223 52.9213 118.294 52.8876 118.36 52.9107C118.425 52.9339 118.459 53.0054 118.436 53.0706C118.327 53.3756 118.206 53.6816 118.078 53.9802C118.069 54.0013 118.055 54.0181 118.038 54.0307H118.037ZM104.995 63.3913C104.977 63.4049 104.955 63.4134 104.931 63.4155C104.606 63.4418 104.277 63.4586 103.953 63.4649C103.883 63.4659 103.826 63.4113 103.825 63.3429C103.824 63.2735 103.879 63.2167 103.949 63.2157C104.267 63.2093 104.591 63.1936 104.911 63.1673C104.98 63.162 105.041 63.2125 105.046 63.2819C105.049 63.3261 105.029 63.3671 104.995 63.3923V63.3913ZM102.448 63.3913C102.425 63.4091 102.395 63.4186 102.363 63.4155C102.038 63.3892 101.711 63.3513 101.39 63.305C101.321 63.2945 101.274 63.2314 101.285 63.1631C101.295 63.0947 101.358 63.0474 101.427 63.0579C101.743 63.1042 102.065 63.141 102.384 63.1673C102.453 63.1725 102.504 63.2335 102.499 63.3019C102.496 63.3387 102.477 63.3713 102.449 63.3923L102.448 63.3913ZM99.9372 62.9748C99.9077 62.9969 99.8697 63.0053 99.8318 62.9959C99.5176 62.917 99.2013 62.8265 98.8914 62.7277C98.825 62.7067 98.7891 62.6362 98.8102 62.571C98.8313 62.5058 98.9019 62.469 98.9673 62.49C99.272 62.5878 99.584 62.6762 99.8929 62.754C99.9604 62.7708 100 62.8392 99.9836 62.9054C99.9762 62.9349 99.9593 62.958 99.9372 62.9748ZM97.5283 62.1525C97.4935 62.1787 97.446 62.1851 97.4028 62.1672C97.1055 62.0368 96.8072 61.8959 96.5183 61.7486C96.4572 61.7171 96.4329 61.6414 96.4646 61.5804C96.4962 61.5194 96.5721 61.4952 96.6332 61.5267C96.9179 61.6729 97.211 61.8117 97.503 61.939C97.5662 61.9663 97.5957 62.0399 97.5673 62.1041C97.5578 62.1251 97.5441 62.1419 97.5272 62.1546L97.5283 62.1525ZM95.2849 60.9483C95.2438 60.9788 95.1868 60.982 95.1415 60.9525C94.8674 60.7759 94.5965 60.5887 94.3361 60.3962C94.2802 60.3552 94.2686 60.2774 94.3097 60.2217C94.3508 60.1659 94.4288 60.1544 94.4847 60.1954C94.7409 60.3847 95.0076 60.5687 95.2775 60.7433C95.3355 60.7811 95.3523 60.8579 95.3144 60.9157C95.306 60.9284 95.2954 60.9399 95.2838 60.9483H95.2849ZM93.266 59.3982C93.2186 59.4329 93.1522 59.4308 93.1068 59.3909C92.8675 59.1732 92.6303 58.945 92.4037 58.7115C92.3552 58.6621 92.3562 58.5832 92.4058 58.5348C92.4553 58.4875 92.5344 58.4875 92.5829 58.537C92.8064 58.7673 93.0394 58.9923 93.2755 59.2058C93.3272 59.2521 93.3303 59.3309 93.2839 59.3825C93.2787 59.3888 93.2724 59.394 93.266 59.3982ZM91.5287 57.539C91.4749 57.5789 91.3979 57.5695 91.3558 57.5158C91.2683 57.4054 91.1829 57.2939 91.0996 57.1825C90.9878 57.0331 90.8782 56.8806 90.7738 56.7303C90.7359 56.6745 90.7485 56.5988 90.8023 56.5588C90.8033 56.5588 90.8044 56.5567 90.8065 56.5557C90.8634 56.5168 90.9415 56.5304 90.9805 56.5872C91.0827 56.7355 91.1913 56.8859 91.3009 57.0321C91.3832 57.1425 91.4675 57.2519 91.5529 57.3602C91.5961 57.4149 91.5866 57.4927 91.5318 57.5358C91.5318 57.5358 91.5297 57.5369 91.5287 57.5379V57.539Z" fill="#91B3FA"/>
<path d="M90.1159 55.4115C90.1159 55.4115 90.1065 55.4178 90.1012 55.421C90.04 55.4546 89.9641 55.4326 89.9315 55.3716C89.8503 55.2243 89.7712 55.0761 89.6953 54.9257C89.6637 54.8636 89.689 54.789 89.7501 54.7574C89.8123 54.7259 89.8872 54.7511 89.9188 54.8121C89.9937 54.9593 90.0706 55.1055 90.1507 55.2506C90.1813 55.3064 90.1655 55.3747 90.1159 55.4105V55.4115Z" fill="#91B3FA"/>
<path d="M88.8479 43.462C88.8173 43.4851 88.7762 43.4935 88.7372 43.4819C88.6707 43.462 88.6339 43.3926 88.6539 43.3263C88.7024 43.1654 88.754 43.0056 88.8078 42.8468C88.8299 42.7816 88.9006 42.7458 88.967 42.7679C89.0323 42.79 89.0682 42.8604 89.0461 42.9267C88.9933 43.0834 88.9427 43.2411 88.8942 43.3989C88.8858 43.4252 88.87 43.4472 88.8489 43.463L88.8479 43.462Z" fill="#91B3FA"/>
<path d="M116.876 39.635C116.876 39.635 116.871 39.6392 116.867 39.6403C116.809 39.6771 116.731 39.6603 116.694 39.6014C116.514 39.3164 116.321 39.0346 116.122 38.7622C116.082 38.7064 116.094 38.6297 116.148 38.5887C116.148 38.5887 116.148 38.5887 116.149 38.5887C116.205 38.5477 116.283 38.5603 116.324 38.616C116.527 38.8926 116.723 39.1807 116.906 39.4699C116.941 39.5257 116.927 39.5982 116.876 39.6371V39.635ZM115.245 37.5002C115.194 37.5381 115.122 37.5318 115.077 37.4845C114.851 37.2352 114.611 36.9902 114.368 36.7567C114.318 36.7094 114.316 36.6295 114.365 36.5801C114.412 36.5306 114.492 36.5285 114.542 36.5769C114.789 36.8146 115.032 37.0638 115.263 37.3162C115.309 37.3677 115.306 37.4466 115.254 37.4929C115.251 37.496 115.248 37.4981 115.245 37.5002ZM113.267 35.6799C113.223 35.7125 113.161 35.7135 113.115 35.6788C112.849 35.4727 112.571 35.2729 112.29 35.0836C112.233 35.0447 112.217 34.9669 112.256 34.9101C112.295 34.8533 112.373 34.8375 112.43 34.8764C112.716 35.0689 112.997 35.2718 113.268 35.4811C113.323 35.5232 113.334 35.602 113.29 35.6567C113.283 35.6662 113.275 35.6735 113.266 35.6809L113.267 35.6799ZM111.006 34.2244C110.968 34.2528 110.916 34.2581 110.872 34.2349C110.574 34.0772 110.266 33.9268 109.958 33.789C109.895 33.7606 109.866 33.687 109.895 33.6239C109.923 33.5608 109.997 33.5324 110.06 33.5608C110.373 33.7007 110.686 33.8532 110.989 34.0141C111.05 34.0467 111.073 34.1224 111.041 34.1834C111.031 34.2002 111.02 34.2139 111.005 34.2255L111.006 34.2244ZM108.528 33.177C108.497 33.2001 108.455 33.2085 108.415 33.1959C108.093 33.0918 107.764 32.9972 107.437 32.9151C107.37 32.8983 107.33 32.8299 107.347 32.7637C107.363 32.6964 107.432 32.6564 107.498 32.6733C107.831 32.7574 108.165 32.8531 108.492 32.9593C108.557 32.9803 108.594 33.0508 108.572 33.117C108.563 33.1423 108.547 33.1633 108.527 33.1791L108.528 33.177ZM105.909 32.5744C105.883 32.5933 105.851 32.6028 105.816 32.5975C105.482 32.5502 105.141 32.5145 104.804 32.4903C104.734 32.485 104.683 32.4251 104.688 32.3567C104.693 32.2884 104.753 32.2358 104.822 32.241C105.164 32.2663 105.51 32.3031 105.85 32.3504C105.918 32.3599 105.966 32.423 105.956 32.4913C105.951 32.526 105.933 32.5544 105.907 32.5744H105.909ZM103.222 32.4335C103.202 32.4482 103.178 32.4577 103.152 32.4577C102.813 32.4692 102.472 32.4924 102.137 32.526C102.068 32.5334 102.006 32.4829 102 32.4146C101.992 32.3462 102.043 32.2841 102.111 32.2778C102.453 32.2442 102.8 32.22 103.143 32.2084C103.213 32.2063 103.271 32.26 103.273 32.3294C103.274 32.3714 103.254 32.4103 103.222 32.4335ZM89.6166 41.4417C89.5808 41.468 89.5323 41.4754 89.489 41.4554C89.4258 41.426 89.3984 41.3523 89.4279 41.2892C89.5723 40.979 89.7283 40.6688 89.8928 40.368C89.9265 40.307 90.0024 40.2849 90.0625 40.3186C90.1237 40.3512 90.1458 40.428 90.1121 40.4879C89.9508 40.7845 89.7969 41.0894 89.6545 41.3955C89.6451 41.4154 89.6324 41.4312 89.6155 41.4428L89.6166 41.4417ZM100.551 32.7553C100.537 32.7658 100.52 32.7732 100.502 32.7774C100.17 32.8468 99.8384 32.9277 99.5127 33.0182C99.4462 33.0371 99.3767 32.9982 99.3587 32.9309C99.3398 32.8646 99.3798 32.7952 99.4462 32.7774C99.7773 32.6848 100.115 32.6028 100.451 32.5323C100.518 32.5187 100.585 32.5618 100.6 32.6291C100.61 32.6785 100.59 32.7269 100.552 32.7553H100.551ZM90.9512 39.1113C90.9091 39.1429 90.85 39.145 90.8047 39.1134C90.7478 39.0745 90.733 38.9967 90.7731 38.9399C90.9681 38.6581 91.1758 38.3783 91.3888 38.1102C91.4309 38.0565 91.51 38.0471 91.5648 38.0902C91.6186 38.1333 91.6281 38.2122 91.5848 38.2658C91.3751 38.5298 91.1716 38.8042 90.9797 39.0819C90.9713 39.0934 90.9618 39.1029 90.9512 39.1113ZM97.9745 33.5293C97.9661 33.5356 97.9566 33.5408 97.9461 33.5451C97.6319 33.6702 97.3177 33.8069 97.0131 33.951C96.9509 33.9804 96.876 33.9541 96.8465 33.8921C96.817 33.83 96.8423 33.7554 96.9055 33.7259C97.2155 33.5787 97.5349 33.4399 97.8533 33.3126C97.9176 33.2874 97.9903 33.319 98.0156 33.382C98.0367 33.4357 98.0188 33.4956 97.9745 33.5282V33.5293ZM92.6654 37.0417C92.6169 37.0775 92.5474 37.0743 92.5031 37.0301C92.4535 36.9818 92.4535 36.9029 92.502 36.8535C92.7434 36.6095 92.9954 36.3697 93.2516 36.1426C93.3043 36.0953 93.3823 36.1016 93.4287 36.1531C93.4751 36.2046 93.4698 36.2835 93.4181 36.3298C93.1651 36.5538 92.9174 36.7893 92.6802 37.0291C92.676 37.0333 92.6707 37.0375 92.6654 37.0417ZM95.5698 34.7334C95.5698 34.7334 95.5635 34.7376 95.5603 34.7397C95.2725 34.9164 94.9868 35.1057 94.7117 35.3013C94.6548 35.3412 94.5767 35.3286 94.5367 35.2718C94.4966 35.2161 94.5103 35.1425 94.5662 35.0973C94.8466 34.8985 95.1365 34.7071 95.4286 34.5273C95.4876 34.4915 95.5646 34.5094 95.6015 34.5683C95.6363 34.624 95.6215 34.6955 95.5698 34.7344V34.7334Z" fill="#91B3FA"/>
<path d="M117.907 41.5469C117.899 41.5522 117.892 41.5564 117.883 41.5606C117.82 41.589 117.746 41.5606 117.718 41.4975C117.65 41.3471 117.58 41.1978 117.507 41.0485C117.477 40.9864 117.502 40.9118 117.565 40.8813C117.627 40.8508 117.702 40.877 117.733 40.9391C117.806 41.0895 117.878 41.242 117.948 41.3944C117.972 41.4491 117.954 41.5112 117.909 41.5459L117.907 41.5469Z" fill="#91B3FA"/>
<path d="M115.079 44.3348C115.065 44.257 115.001 44.197 114.922 44.1855L112.674 43.8679C112.24 42.9025 111.649 41.9991 110.908 41.1999L111.496 39.0136C111.517 38.9368 111.487 38.8558 111.42 38.8106L109.163 37.2889C109.097 37.2447 109.01 37.2468 108.947 37.2941L107.133 38.6539C106.113 38.2658 105.052 38.0566 103.992 38.0156L102.858 36.0532C102.818 35.9849 102.739 35.9481 102.661 35.9638L99.986 36.4802C99.908 36.4949 99.8479 36.558 99.8363 36.6369L99.518 38.88C98.5502 39.3122 97.6446 39.9022 96.8434 40.6415L94.6516 40.0547C94.5747 40.0336 94.4935 40.0641 94.4482 40.1304L92.9227 42.3819C92.8784 42.4482 92.8805 42.5344 92.928 42.5975L94.2921 44.4074C93.9031 45.4243 93.6933 46.4833 93.6522 47.5402L91.685 48.6728C91.6165 48.7127 91.5796 48.7916 91.5954 48.8694L92.1131 51.5374C92.1278 51.6152 92.1911 51.6752 92.2701 51.6867L94.5188 52.0043C94.9521 52.9697 95.5435 53.8731 96.2846 54.6723L95.6964 56.8586C95.6753 56.9354 95.7059 57.0164 95.7723 57.0616L98.0294 58.5833C98.0958 58.6275 98.1823 58.6254 98.2455 58.5781L100.06 57.2172C101.079 57.6053 102.141 57.8146 103.2 57.8556L104.335 59.8179C104.375 59.8863 104.454 59.9231 104.532 59.9073L107.206 59.391C107.284 59.3762 107.345 59.3131 107.356 59.2343L107.675 56.9911C108.642 56.5589 109.548 55.969 110.349 55.2297L112.541 55.8165C112.618 55.8375 112.699 55.807 112.743 55.7408L114.269 53.4892C114.313 53.423 114.311 53.3367 114.263 53.2736L112.899 51.4638C113.288 50.4469 113.498 49.3879 113.539 48.331L115.506 47.1994C115.575 47.1595 115.612 47.0806 115.596 47.0028L115.078 44.3348H115.079Z" fill="#91B3FA"/>
<path d="M105.119 49.9684C104.456 50.4616 103.565 50.6236 102.731 50.3228C102.092 50.0925 101.581 49.6277 101.293 49.0135C101.004 48.3994 100.973 47.7106 101.204 47.0733C101.434 46.436 101.9 45.9259 102.516 45.6389C103.132 45.3507 103.822 45.3192 104.461 45.5495C105.78 46.0248 106.465 47.4834 105.989 48.799C105.814 49.2827 105.505 49.6813 105.119 49.9684ZM102.221 46.1047C101.865 46.3697 101.594 46.7325 101.439 47.1585C101.23 47.7337 101.259 48.3542 101.519 48.9073C101.779 49.4605 102.24 49.8801 102.815 50.0872C104.005 50.5163 105.322 49.9001 105.753 48.7138C106.183 47.5276 105.565 46.213 104.376 45.784C103.8 45.5758 103.177 45.6041 102.623 45.8639C102.479 45.9312 102.345 46.0111 102.222 46.1037L102.221 46.1047Z" fill="#BDD0FB"/>
<path d="M107.549 53.3062C105.328 54.9573 102.211 55.1203 99.7905 53.4892C99.1505 53.0581 98.6097 52.5354 98.1722 51.9507C96.5181 49.736 96.3537 46.6273 97.9898 44.2128C98.9913 42.7342 100.51 41.7331 102.267 41.3934C104.023 41.0537 105.807 41.4176 107.29 42.4166C107.652 42.6606 107.989 42.9393 108.296 43.2453C108.324 43.2737 108.353 43.3031 108.381 43.3326C108.385 43.3368 108.389 43.34 108.392 43.3442C108.429 43.3936 108.425 43.4651 108.378 43.5093C108.33 43.5555 108.249 43.5555 108.201 43.5051C107.885 43.1769 107.532 42.8793 107.151 42.6227C105.724 41.6605 104.007 41.3114 102.316 41.6374C100.625 41.9644 99.1632 42.9277 98.1996 44.3516C96.6257 46.6757 96.7827 49.6687 98.3757 51.8003C98.7963 52.364 99.3171 52.8667 99.9328 53.2821C102.878 55.2675 106.895 54.4914 108.885 51.5532C109.54 50.5867 109.918 49.4646 109.982 48.3068C109.986 48.2374 110.045 48.1848 110.113 48.189C110.152 48.1911 110.186 48.21 110.207 48.2395C110.224 48.2626 110.234 48.291 110.232 48.3215C110.166 49.5246 109.773 50.6908 109.093 51.6951C108.661 52.3324 108.137 52.873 107.551 53.3083L107.549 53.3062Z" fill="#BDD0FB"/>
<path d="M136.385 34.2696C136.369 34.2906 136.344 34.3043 136.316 34.3054C136.266 34.3075 136.223 34.2686 136.22 34.217C136.215 34.0961 136.209 33.9752 136.199 33.8542C136.196 33.8037 136.234 33.7596 136.284 33.7564C136.335 33.7522 136.379 33.7911 136.382 33.8416C136.392 33.9646 136.398 34.0877 136.403 34.2107C136.403 34.2328 136.397 34.2538 136.384 34.2696H136.385Z" fill="#91B3FA"/>
<path d="M134.303 41.3008C134.273 41.3398 134.217 41.3492 134.176 41.3198C134.135 41.2903 134.124 41.2335 134.154 41.1925C134.289 41.0011 134.421 40.8034 134.544 40.6047C134.57 40.5615 134.627 40.5479 134.671 40.5752C134.714 40.6015 134.728 40.6583 134.7 40.7014C134.575 40.9044 134.442 41.1052 134.304 41.2987C134.304 41.2987 134.303 41.3008 134.302 41.3008H134.303ZM133.587 42.2084C133.587 42.2084 133.585 42.2116 133.583 42.2137C133.426 42.3935 133.261 42.5691 133.093 42.7384C133.058 42.7742 133 42.7742 132.964 42.7384C132.928 42.7027 132.926 42.6459 132.964 42.6091C133.128 42.4429 133.291 42.2694 133.446 42.0927C133.479 42.0549 133.537 42.0507 133.575 42.0843C133.612 42.1159 133.617 42.1705 133.588 42.2084H133.587ZM135.251 39.695C135.225 39.7287 135.179 39.7413 135.139 39.7223C135.093 39.7003 135.074 39.6456 135.095 39.6004C135.198 39.39 135.294 39.1734 135.383 38.9557C135.402 38.9084 135.456 38.8863 135.503 38.9052C135.551 38.9242 135.573 38.9778 135.554 39.0251C135.463 39.246 135.365 39.4657 135.262 39.6803C135.259 39.6855 135.256 39.6908 135.253 39.6961L135.251 39.695ZM132.246 43.5072C132.242 43.5124 132.236 43.5177 132.231 43.5229C132.048 43.6744 131.856 43.8216 131.663 43.9615C131.622 43.9909 131.565 43.9814 131.534 43.9404C131.505 43.8994 131.513 43.8426 131.555 43.8121C131.746 43.6744 131.934 43.5292 132.115 43.381C132.154 43.3484 132.212 43.3547 132.245 43.3936C132.272 43.4272 132.272 43.4746 132.247 43.5072H132.246ZM135.925 37.9556C135.903 37.9851 135.864 37.9987 135.826 37.9882C135.778 37.9735 135.749 37.923 135.764 37.8746L135.783 37.8115C135.842 37.6075 135.896 37.3993 135.944 37.1921C135.956 37.1427 136.005 37.1122 136.054 37.1238C136.103 37.1353 136.134 37.1837 136.122 37.2331C136.074 37.4435 136.019 37.6548 135.959 37.862L135.94 37.9262C135.937 37.9367 135.931 37.9472 135.925 37.9556ZM130.712 44.5714C130.705 44.5809 130.696 44.5893 130.685 44.5956C130.478 44.7155 130.265 44.8291 130.052 44.9353C130.007 44.9584 129.952 44.9395 129.929 44.8943C129.905 44.849 129.924 44.7944 129.97 44.7712C130.18 44.6671 130.388 44.5546 130.592 44.4368C130.636 44.4116 130.692 44.4263 130.717 44.4704C130.736 44.503 130.733 44.543 130.711 44.5714H130.712ZM136.308 36.131C136.289 36.1563 136.257 36.171 136.223 36.1668C136.173 36.1605 136.137 36.1142 136.143 36.0648C136.173 35.8324 136.195 35.5958 136.209 35.3623C136.212 35.3118 136.255 35.2729 136.306 35.2761C136.356 35.2792 136.395 35.3223 136.392 35.3728C136.377 35.6105 136.355 35.8502 136.326 36.0858C136.324 36.1026 136.317 36.1174 136.308 36.13V36.131ZM129.024 45.3717C129.014 45.3854 129 45.3959 128.983 45.4022C128.76 45.4863 128.531 45.5652 128.304 45.6357C128.256 45.6504 128.204 45.6241 128.189 45.5757C128.174 45.5273 128.201 45.4758 128.25 45.4611C128.474 45.3917 128.698 45.3149 128.919 45.2318C128.966 45.214 129.019 45.2381 129.037 45.2855C129.048 45.316 129.042 45.3496 129.024 45.3738V45.3717ZM127.229 45.887C127.216 45.9038 127.196 45.9164 127.174 45.9217C126.94 45.969 126.702 46.009 126.466 46.0405C126.415 46.0479 126.369 46.0121 126.362 45.9617C126.356 45.9112 126.391 45.8649 126.441 45.8586C126.673 45.8271 126.907 45.7871 127.138 45.7419C127.188 45.7314 127.236 45.764 127.247 45.8134C127.252 45.8407 127.246 45.867 127.23 45.887H127.229ZM125.374 46.1026C125.359 46.1236 125.333 46.1383 125.304 46.1383C125.067 46.1467 124.825 46.1467 124.586 46.1394C124.535 46.1383 124.495 46.0952 124.496 46.0447C124.497 45.9943 124.54 45.9543 124.591 45.9553C124.826 45.9617 125.063 45.9617 125.297 45.9543C125.348 45.9522 125.39 45.9922 125.392 46.0426C125.392 46.0647 125.386 46.0847 125.373 46.1015L125.374 46.1026ZM123.508 46.0111C123.489 46.0363 123.457 46.051 123.423 46.0468C123.187 46.0153 122.949 45.9764 122.715 45.9312C122.665 45.9217 122.632 45.8733 122.642 45.8239C122.651 45.7745 122.7 45.7419 122.749 45.7513C122.979 45.7966 123.214 45.8344 123.446 45.866C123.497 45.8723 123.532 45.9185 123.525 45.969C123.523 45.9858 123.517 46.0006 123.507 46.0121L123.508 46.0111ZM121.682 45.6167C121.66 45.6462 121.62 45.6609 121.582 45.6493C121.353 45.5799 121.124 45.5031 120.901 45.4201C120.854 45.4022 120.83 45.3496 120.848 45.3023C120.865 45.255 120.918 45.2308 120.966 45.2487C121.185 45.3296 121.409 45.4053 121.636 45.4737C121.685 45.4884 121.712 45.54 121.697 45.5883C121.694 45.5988 121.689 45.6083 121.682 45.6167ZM119.943 44.9332C119.917 44.9679 119.869 44.9794 119.829 44.9595C119.616 44.8553 119.403 44.7418 119.194 44.6229C119.15 44.5977 119.135 44.542 119.161 44.4978C119.186 44.4536 119.242 44.4389 119.286 44.4641C119.491 44.5809 119.701 44.6923 119.91 44.7954C119.956 44.8175 119.975 44.8722 119.952 44.9184C119.949 44.9237 119.946 44.929 119.943 44.9332ZM118.34 43.9751C118.31 44.014 118.253 44.0235 118.213 43.9941C118.13 43.9341 118.046 43.8731 117.964 43.8111C117.856 43.728 117.747 43.6439 117.643 43.5576C117.605 43.5261 117.598 43.4703 117.628 43.4314C117.628 43.4314 117.629 43.4293 117.63 43.4283C117.663 43.3894 117.72 43.3831 117.76 43.4157C117.862 43.4998 117.968 43.5829 118.076 43.6649C118.156 43.7259 118.238 43.7858 118.321 43.8447C118.362 43.8742 118.371 43.932 118.342 43.973C118.342 43.973 118.342 43.9741 118.341 43.9751H118.34Z" fill="#91B3FA"/>
<path d="M116.912 42.7636C116.912 42.7636 116.907 42.7699 116.904 42.7731C116.868 42.8088 116.81 42.8088 116.774 42.7731C116.687 42.6858 116.601 42.5975 116.517 42.507C116.482 42.4702 116.484 42.4124 116.521 42.3777C116.558 42.343 116.616 42.3451 116.651 42.3819C116.733 42.4702 116.817 42.5575 116.904 42.6437C116.937 42.6763 116.94 42.7279 116.912 42.7636Z" fill="#91B3FA"/>
<path d="M113.585 34.5998C113.568 34.6219 113.541 34.6366 113.51 34.6356C113.46 34.6356 113.419 34.5935 113.42 34.543C113.421 34.42 113.425 34.297 113.43 34.1739C113.433 34.1234 113.476 34.0845 113.526 34.0866C113.576 34.0887 113.615 34.1318 113.613 34.1823C113.608 34.3033 113.605 34.4253 113.603 34.5462C113.603 34.5662 113.595 34.5851 113.584 34.6009L113.585 34.5998Z" fill="#91B3FA"/>
<path d="M132.559 26.2205C132.559 26.2205 132.555 26.2247 132.554 26.2257C132.521 26.2636 132.463 26.2668 132.425 26.2331C132.239 26.0691 132.046 25.9092 131.85 25.7578C131.81 25.7273 131.803 25.6694 131.833 25.6295C131.864 25.5895 131.922 25.5821 131.962 25.6137C132.161 25.7683 132.357 25.9302 132.546 26.0974C132.582 26.129 132.587 26.1837 132.559 26.2215V26.2205ZM130.974 25.0469C130.946 25.0837 130.893 25.0942 130.853 25.069C130.642 24.9396 130.424 24.8155 130.204 24.6998C130.159 24.6767 130.142 24.621 130.166 24.5757C130.19 24.5316 130.246 24.5137 130.291 24.5379C130.514 24.6557 130.736 24.7819 130.95 24.9133C130.993 24.9396 131.007 24.9964 130.98 25.0395C130.978 25.0416 130.977 25.0448 130.975 25.0469H130.974ZM129.209 24.1645C129.185 24.1961 129.142 24.2098 129.102 24.194C128.872 24.1036 128.636 24.0184 128.399 23.9416C128.35 23.9258 128.324 23.8743 128.339 23.8259C128.355 23.7775 128.407 23.7513 128.455 23.767C128.696 23.8449 128.936 23.93 129.169 24.0226C129.217 24.0415 129.24 24.0941 129.221 24.1414C129.218 24.1498 129.213 24.1561 129.208 24.1635L129.209 24.1645ZM127.319 23.5977C127.298 23.6251 127.263 23.6398 127.227 23.6324C126.985 23.5819 126.737 23.5388 126.492 23.5031C126.442 23.4957 126.407 23.4494 126.414 23.4C126.422 23.3495 126.468 23.3148 126.519 23.3222C126.768 23.3569 127.02 23.4011 127.266 23.4526C127.316 23.4631 127.347 23.5115 127.337 23.5609C127.334 23.5746 127.328 23.5872 127.32 23.5977H127.319ZM125.36 23.3622C125.342 23.3853 125.315 23.399 125.284 23.3979C125.037 23.3895 124.786 23.3895 124.538 23.3979C124.487 23.4 124.445 23.3601 124.443 23.3096C124.441 23.2591 124.481 23.217 124.532 23.2149C124.783 23.2065 125.038 23.2065 125.29 23.2149C125.34 23.217 125.38 23.2591 125.378 23.3096C125.378 23.3296 125.371 23.3474 125.359 23.3622H125.36ZM123.391 23.4684C123.377 23.4873 123.356 23.4999 123.331 23.5041C123.086 23.5388 122.839 23.5819 122.596 23.6335C122.546 23.644 122.498 23.6124 122.487 23.563C122.477 23.5136 122.509 23.4652 122.558 23.4547C122.805 23.4032 123.056 23.359 123.306 23.3232C123.356 23.3159 123.403 23.3506 123.41 23.4011C123.413 23.4263 123.407 23.4505 123.392 23.4694L123.391 23.4684ZM121.469 23.9132C121.459 23.9279 121.443 23.9384 121.425 23.9448C121.189 24.0215 120.952 24.1067 120.723 24.1982C120.675 24.2171 120.623 24.194 120.604 24.1467C120.585 24.0993 120.608 24.0468 120.655 24.0278C120.889 23.9342 121.129 23.848 121.369 23.7702C121.417 23.7544 121.469 23.7807 121.485 23.8291C121.494 23.8585 121.488 23.8901 121.471 23.9132H121.469ZM113.716 33.0203C113.696 33.0466 113.664 33.0613 113.629 33.055C113.578 33.0477 113.544 33.0003 113.552 32.9509C113.59 32.7027 113.637 32.4524 113.692 32.2074C113.704 32.158 113.752 32.1264 113.802 32.138C113.851 32.1485 113.883 32.1979 113.871 32.2474C113.817 32.4892 113.771 32.7353 113.733 32.9793C113.731 32.9951 113.725 33.0087 113.715 33.0203H113.716ZM119.653 24.682C119.645 24.6925 119.635 24.7009 119.622 24.7072C119.403 24.8229 119.186 24.947 118.974 25.0774C118.93 25.1037 118.874 25.091 118.847 25.0479C118.821 25.0048 118.835 24.948 118.877 24.9217C119.091 24.7903 119.312 24.663 119.536 24.5452C119.581 24.5211 119.636 24.5389 119.66 24.5831C119.677 24.6157 119.673 24.6536 119.652 24.682H119.653ZM114.182 31.1074C114.159 31.1379 114.118 31.1516 114.08 31.139C114.031 31.1232 114.006 31.0706 114.022 31.0233C114.102 30.7846 114.192 30.5458 114.287 30.3134C114.306 30.2672 114.359 30.244 114.407 30.2629C114.454 30.2819 114.476 30.3355 114.457 30.3828C114.364 30.611 114.276 30.8466 114.197 31.0811C114.194 31.0906 114.189 31.1 114.183 31.1074H114.182ZM117.994 25.7494C117.989 25.7557 117.984 25.7609 117.977 25.7662C117.781 25.9176 117.588 26.0775 117.403 26.2415C117.365 26.2752 117.307 26.272 117.273 26.2342C117.239 26.1963 117.243 26.1385 117.281 26.1048C117.469 25.9376 117.665 25.7756 117.865 25.6211C117.905 25.5906 117.963 25.5969 117.993 25.6368C118.02 25.6705 118.019 25.7157 117.993 25.7483L117.994 25.7494ZM114.969 29.3018C114.941 29.3375 114.892 29.3491 114.852 29.327C114.807 29.3028 114.791 29.2471 114.815 29.2029C114.935 28.9821 115.064 28.7623 115.198 28.5498C115.226 28.5057 115.283 28.4941 115.325 28.5214C115.368 28.5488 115.381 28.6056 115.353 28.6476C115.222 28.8569 115.094 29.0725 114.976 29.2902C114.974 29.2944 114.971 29.2986 114.969 29.3018ZM116.545 27.087C116.545 27.087 116.542 27.0912 116.539 27.0933C116.373 27.2763 116.211 27.4677 116.056 27.6612C116.024 27.7012 115.966 27.7075 115.926 27.6759C115.886 27.6444 115.882 27.5897 115.911 27.5476C116.068 27.351 116.234 27.1564 116.402 26.9713C116.436 26.9335 116.495 26.9314 116.532 26.965C116.568 26.9976 116.572 27.0513 116.544 27.0881L116.545 27.087Z" fill="#91B3FA"/>
<path d="M133.673 27.3584C133.673 27.3584 133.665 27.3689 133.659 27.3731C133.62 27.4057 133.562 27.4015 133.53 27.3626C133.451 27.27 133.371 27.1796 133.289 27.0891C133.256 27.0513 133.258 26.9934 133.296 26.9598C133.334 26.9261 133.392 26.9282 133.425 26.9661C133.509 27.0576 133.59 27.1501 133.67 27.2437C133.698 27.2774 133.698 27.3247 133.673 27.3584Z" fill="#91B3FA"/>
<path d="M132.25 29.897C132.224 29.8455 132.167 29.816 132.109 29.8234L130.459 30.0547C129.956 29.4627 129.356 28.9453 128.671 28.532L128.64 26.8715C128.639 26.8136 128.601 26.7621 128.545 26.7442L126.645 26.1301C126.589 26.1122 126.529 26.1311 126.493 26.1774L125.491 27.5035C124.693 27.4372 123.904 27.5035 123.148 27.6896L121.948 26.537C121.906 26.4971 121.843 26.4876 121.791 26.5139L120.011 27.4204C119.96 27.4467 119.93 27.5035 119.938 27.5613L120.17 29.2071C119.576 29.7088 119.057 30.3071 118.643 30.9907L116.978 31.0212C116.92 31.0222 116.869 31.0601 116.851 31.1158L116.235 33.0119C116.217 33.0677 116.236 33.1276 116.283 33.1634L117.612 34.1624C117.546 34.9585 117.612 35.7462 117.799 36.5002L116.643 37.6969C116.603 37.739 116.594 37.8021 116.62 37.8536L117.529 39.6288C117.555 39.6803 117.612 39.7098 117.67 39.7024L119.32 39.471C119.822 40.0631 120.423 40.5805 121.108 40.9938L121.138 42.6543C121.139 42.7122 121.177 42.7637 121.233 42.7816L123.134 43.3957C123.19 43.4136 123.25 43.3947 123.286 43.3484L124.287 42.0223C125.085 42.0885 125.875 42.0223 126.631 41.8361L127.831 42.9887C127.873 43.0287 127.936 43.0382 127.988 43.0119L129.767 42.1054C129.819 42.0791 129.848 42.0223 129.841 41.9644L129.609 40.3186C130.203 39.8181 130.721 39.2186 131.136 38.5351L132.8 38.5046C132.858 38.5046 132.91 38.4657 132.928 38.4099L133.544 36.5139C133.561 36.4581 133.542 36.3982 133.496 36.3624L132.167 35.3634C132.233 34.5673 132.167 33.7796 131.98 33.0256L133.136 31.8288C133.176 31.7868 133.185 31.7237 133.159 31.6722L132.25 29.897Z" fill="#91B3FA"/>
<path d="M126.38 35.886C126.013 36.3676 125.418 36.6631 124.769 36.62C124.271 36.5874 123.817 36.3634 123.488 35.989C123.159 35.6147 122.997 35.1362 123.03 34.6398C123.062 34.1434 123.287 33.6902 123.662 33.3621C124.037 33.035 124.517 32.872 125.015 32.9046C126.041 32.973 126.822 33.8605 126.753 34.8848C126.728 35.2613 126.592 35.6052 126.379 35.8849L126.38 35.886ZM123.55 33.7501C123.353 34.0088 123.236 34.3201 123.214 34.6514C123.184 35.0983 123.331 35.5305 123.627 35.8681C123.924 36.2057 124.334 36.4076 124.782 36.437C125.707 36.498 126.51 35.7966 126.572 34.8733C126.633 33.9499 125.93 33.1496 125.004 33.0876C124.556 33.0581 124.123 33.2043 123.784 33.4998C123.697 33.5766 123.619 33.6597 123.55 33.7501Z" fill="#BDD0FB"/>
<path d="M128.771 37.7464C127.542 39.3606 125.379 40.1073 123.34 39.4479C122.802 39.2733 122.313 39.0146 121.887 38.6918C120.269 37.4666 119.521 35.3087 120.181 33.2748C120.586 32.0297 121.452 31.0159 122.62 30.4207C123.789 29.8255 125.121 29.7203 126.369 30.1231C126.674 30.222 126.968 30.3492 127.246 30.5038C127.273 30.5185 127.298 30.5332 127.324 30.548C127.327 30.5501 127.331 30.5522 127.334 30.5543C127.371 30.5816 127.381 30.6332 127.358 30.6731C127.334 30.7162 127.276 30.732 127.233 30.7068C126.943 30.5396 126.634 30.4018 126.312 30.2977C125.11 29.9096 123.829 30.0106 122.704 30.5837C121.579 31.1569 120.745 32.1328 120.355 33.3306C119.719 35.2877 120.439 37.3646 121.996 38.5446C122.407 38.8558 122.877 39.1051 123.395 39.2723C125.876 40.0747 128.548 38.7128 129.352 36.2394C129.616 35.4254 129.654 34.5578 129.462 33.7291C129.451 33.6797 129.481 33.6303 129.531 33.6187C129.558 33.6124 129.586 33.6187 129.607 33.6345C129.624 33.6471 129.636 33.665 129.64 33.6871C129.84 34.5484 129.8 35.4496 129.525 36.2951C129.352 36.8325 129.092 37.3184 128.767 37.7443L128.771 37.7464Z" fill="#BDD0FB"/>
<path d="M180.295 130.061C180.295 131.377 179.214 132.454 177.894 132.454H48.0572C46.7363 132.454 45.6568 131.377 45.6568 130.061L44.5762 55.6324C44.5762 54.3168 46.1301 51.7477 48.9786 51.9402L175.868 48.6654C177.525 48.6223 179.126 49.2585 180.3 50.4258C181.473 51.5921 182.115 53.1874 182.076 54.8384L180.293 130.061H180.295Z" fill="url(#paint1_linear_897_23793)"/>
<path d="M177.923 127.766C177.923 129.012 176.9 130.032 175.651 130.032H51.1878C49.9385 130.032 48.9159 129.012 48.9159 127.766L47.8965 60.1986C48.0167 56.133 51.5905 54.6712 53.7559 54.7575L175.372 51.5027C176.536 51.4711 177.662 51.9181 178.486 52.7394C179.31 53.5596 179.761 54.6828 179.731 55.8438L177.922 127.766H177.923Z" fill="url(#paint2_linear_897_23793)"/>
<path opacity="0.37" d="M50.262 95.548C50.145 95.548 50.0491 95.4544 50.048 95.3377L49.9668 89.8577C49.9647 89.7399 50.0596 89.6421 50.1777 89.641C50.2926 89.6347 50.3938 89.7336 50.3948 89.8514L50.476 95.3314C50.4781 95.4492 50.3833 95.547 50.2652 95.548H50.262Z" fill="white"/>
<path opacity="0.37" d="M50.0639 82.1209C49.9469 82.1209 49.851 82.0273 49.8499 81.9106L49.541 60.9242C49.5473 59.513 49.9838 58.3867 50.8367 57.5706C52.3874 56.0878 54.8132 56.1625 54.9155 56.1667L93.7501 55.1266C93.8672 55.1161 93.9673 55.216 93.9705 55.3348C93.9736 55.4526 93.8798 55.5515 93.7617 55.5546L54.9155 56.5947C54.8048 56.5905 52.5561 56.5221 51.135 57.8798C50.3686 58.6128 49.9764 59.636 49.9711 60.9232L50.28 81.9053C50.2821 82.0231 50.1873 82.1209 50.0692 82.1219H50.066L50.0639 82.1209Z" fill="white"/>
<path opacity="0.29" d="M54.4008 124.018C54.5316 118.434 54.4831 68.9808 54.1615 64.7101C53.84 60.4394 60.508 59.6381 70.7456 59.1575C80.9832 58.6769 167.362 56.7735 169.586 56.5936C174.585 56.1888 175.62 63.6427 175.12 79.8252C174.744 91.982 174.121 112.009 173.834 121.218C173.749 123.961 171.503 126.137 168.752 126.144C147.966 126.201 68.2987 126.429 62.9949 126.587C56.892 126.768 54.3492 126.232 54.4008 124.018Z" fill="white"/>
<path d="M187.548 138.632H41.0335C39.2307 138.632 37.7559 137.161 37.7559 135.363C37.7559 133.564 39.2307 132.093 41.0335 132.093H187.548C189.351 132.093 190.826 133.564 190.826 135.363C190.826 137.161 189.351 138.632 187.548 138.632Z" fill="url(#paint3_linear_897_23793)"/>
<path d="M92.5443 89.3581H137.151C137.628 89.3581 137.879 88.7923 137.558 88.44L115.228 63.9802C115.01 63.7404 114.633 63.7415 114.414 63.9802L92.1384 88.44C91.8169 88.7923 92.0678 89.3581 92.5454 89.3581H92.5443Z" fill="url(#paint4_linear_897_23793)"/>
<path d="M94.8223 89.3581V114.451C94.8223 115.035 95.2967 115.509 95.8828 115.509H106.037C106.264 115.509 106.447 115.326 106.447 115.1V99.7671C106.447 99.6041 106.58 99.4716 106.743 99.4716H114.571C114.725 99.4716 114.849 99.5957 114.849 99.7493V115.163C114.849 115.353 115.004 115.508 115.195 115.508H133.66C134.301 115.508 134.821 114.989 134.821 114.35V89.3571H94.8233L94.8223 89.3581Z" fill="url(#paint5_linear_897_23793)"/>
<path d="M134.22 25.9639C134.198 26.0049 132.822 27.0155 132.822 27.0155C132.822 27.0155 133.126 29.184 134.359 30.04C135.716 30.9812 137.632 29.2649 137.632 29.2649C137.632 29.2649 139.156 29.6267 139.967 26.4613C140.152 25.7346 139.079 25.6736 137.783 25.8072C136.113 25.9796 134.22 25.9649 134.22 25.9649V25.9639Z" fill="url(#paint6_linear_897_23793)"/>
<path d="M131.646 33.361C132.185 32.9918 132.779 32.7131 133.41 32.5417C133.647 32.4776 134.926 32.8488 135.718 32.8299C136.803 32.8046 137.908 32.3125 138.803 32.5344C139.692 32.7552 140.419 33.0444 140.84 33.342C142.098 34.2338 142.836 35.8975 143.286 37.5454C142.434 38.4182 141.362 38.8052 141.362 38.8052L141.164 46.8144L136.415 49.2374L130.997 46.5231L131.191 38.6959C131.191 38.6959 129.47 37.8966 129.344 37.6053C129.217 37.314 130.128 34.4 131.646 33.3588V33.361Z" fill="url(#paint7_linear_897_23793)"/>
<path d="M129.425 37.5728C129.425 37.5728 127.12 43.9498 132.378 46.5715C133.47 46.4264 133.05 44.6176 133.05 44.6176C133.05 44.6176 130.765 44.1128 131.451 38.7937C130.82 38.2752 129.425 37.5728 129.425 37.5728Z" fill="url(#paint8_linear_897_23793)"/>
<path d="M143.177 37.5728C143.177 37.5728 144.763 44.2296 140.224 46.5715C139.132 46.4264 139.552 44.6176 139.552 44.6176C139.552 44.6176 141.394 43.7132 141.151 38.7937C141.782 38.2752 143.177 37.5728 143.177 37.5728Z" fill="url(#paint9_linear_897_23793)"/>
<path d="M140.469 40.0051H131.814C131.329 40.0051 130.936 40.3973 130.936 40.8811V46.1435C130.936 46.6273 131.329 47.0195 131.814 47.0195H140.469C140.954 47.0195 141.347 46.6273 141.347 46.1435V40.8811C141.347 40.3973 140.954 40.0051 140.469 40.0051Z" fill="url(#paint10_linear_897_23793)"/>
<path d="M145.914 49.0986C144.723 48.8262 141.969 48.9724 141.969 48.9724L141.857 49.2753L141.672 50.7791C141.672 50.7791 144.295 51.2502 145.587 51.2492C145.719 51.2492 145.84 51.2292 145.95 51.1955C145.989 51.1598 146.028 51.124 146.064 51.0841C146.612 50.4868 146.454 49.6086 145.914 49.0986Z" fill="url(#paint11_linear_897_23793)"/>
<path d="M141.178 48.8872L141.644 48.9072C141.895 48.9177 142.131 49.0397 142.299 49.2448C142.467 49.4498 142.554 49.7222 142.539 49.9988C142.528 50.2196 142.437 50.4257 142.287 50.573C142.137 50.7191 141.941 50.7938 141.741 50.7801L141.027 50.7297L141.177 48.8883L141.178 48.8872Z" fill="url(#paint12_linear_897_23793)"/>
<path d="M125.497 48.9535C126.694 48.7169 129.444 48.9482 129.444 48.9482L129.548 49.2542L129.696 50.7633C129.696 50.7633 127.062 51.1545 125.77 51.1135C125.638 51.1093 125.518 51.0862 125.408 51.0483C125.369 51.0115 125.332 50.9736 125.296 50.9337C124.763 50.3195 124.943 49.4467 125.496 48.9535H125.497Z" fill="url(#paint13_linear_897_23793)"/>
<path d="M130.236 48.8883L129.769 48.8936C129.518 48.8967 129.278 49.0113 129.105 49.2112C128.932 49.411 128.839 49.6802 128.846 49.9578C128.852 50.1787 128.938 50.3879 129.084 50.5394C129.231 50.6908 129.425 50.7707 129.624 50.7623L130.339 50.7339L130.236 48.8883Z" fill="url(#paint14_linear_897_23793)"/>
<path d="M146.246 44.3831C145.705 43.1421 144.384 42.9413 143.26 43.5207C143.24 43.546 136.116 47.1888 129.834 48.7841C130.014 49.3594 130.106 49.9714 130.126 50.5729C130.129 50.7065 130.127 50.839 130.12 50.9694C134.938 50.7223 140.165 49.1196 144.659 47.7115C146.052 47.2635 146.845 45.7575 146.246 44.382V44.3831Z" fill="url(#paint15_linear_897_23793)"/>
<path d="M141.21 50.6687C141.191 49.9757 141.326 49.33 141.616 48.7327C141.625 48.7053 141.634 48.679 141.644 48.6517C141.285 48.5413 140.821 48.3909 140.213 48.1848C135.751 46.662 132.348 45.1245 129.1 43.3536C127.838 42.6658 126.404 43.1264 126 44.6166C125.639 45.9458 126.431 47.0816 127.633 47.4802C131.228 48.6738 129.356 48.3425 130.531 48.719C133.684 49.6917 137.609 50.5783 141.219 50.8201C141.216 50.7697 141.212 50.7192 141.211 50.6687H141.21Z" fill="url(#paint16_linear_897_23793)"/>
<path d="M133.412 32.5418C133.412 32.5418 133.892 34.6156 136.222 34.5725C138.594 34.5294 138.806 32.5344 138.806 32.5344L137.256 32.2032L137.126 30.4806L134.795 30.6531L134.752 32.2894L133.412 32.5407V32.5418Z" fill="url(#paint17_linear_897_23793)"/>
<path d="M135.121 25.601C135.121 25.601 132.449 30.7634 135.618 32.0159C137.853 32.8993 139.256 28.5876 138.837 27.4203C138.191 25.6146 137.765 25.8292 137.765 25.8292L135.121 25.602V25.601Z" fill="url(#paint18_linear_897_23793)"/>
<path d="M139.48 25.132C140.8 25.4937 139.672 28.3489 137.685 27.6738C135.697 26.9986 134.917 27.0081 134.607 27.5528C134.297 28.0976 134.231 30.0294 133.559 29.0745C132.823 28.0271 132.412 25.9249 133.315 25.2466C134.122 24.6409 134.31 23.7018 135.278 23.7344C136.563 23.7775 137.556 23.2096 138.137 23.6187C138.803 24.0888 138.508 24.8649 139.48 25.1309V25.132Z" fill="url(#paint19_linear_897_23793)"/>
<path d="M134.487 27.9966C134.487 27.9966 133.917 27.3856 133.826 28.1218C133.734 28.859 134.027 29.8086 134.371 29.288C134.713 28.7675 134.487 27.9966 134.487 27.9966Z" fill="url(#paint20_linear_897_23793)"/>
<path d="M136.756 41.9044C136.81 42.2766 136.611 42.6142 136.238 42.6689C135.865 42.7236 135.518 42.467 135.463 42.0947C135.408 41.7224 135.579 41.3533 135.951 41.2976C136.324 41.2429 136.701 41.531 136.756 41.9033V41.9044Z" fill="url(#paint21_linear_897_23793)"/>
<path d="M84.3286 86.3537L73.0526 86.7417C72.7215 86.7565 72.4074 86.6324 72.1681 86.4031C71.9298 86.1728 71.798 85.8647 71.798 85.5334V81.2491C71.798 80.2017 71.3869 79.2205 70.6394 78.4854C69.9099 77.7682 68.9558 77.3801 67.929 77.3717V64.5881C67.929 62.4481 66.1832 60.7076 64.0389 60.7076H51.4124V63.3798H64.0389C64.7073 63.3798 65.2513 63.9225 65.2513 64.5892V77.4064L30.7674 77.8912C30.4438 77.8891 30.1317 77.7724 29.8998 77.5431C29.6668 77.3139 29.5382 77.0079 29.5382 76.6819V35.6221H26.8594V76.6819C26.8594 77.7293 27.2705 78.7105 28.018 79.4455C28.7654 80.1806 29.7501 80.5824 30.8043 80.5624L67.891 80.0418C68.2136 80.045 68.5267 80.1607 68.7587 80.3899C68.9917 80.6192 69.1203 80.9252 69.1203 81.2512V85.5355C69.1203 86.5977 69.542 87.5883 70.3073 88.3266C71.04 89.0322 71.9941 89.416 73.0062 89.416C73.0526 89.416 73.0979 89.416 73.1443 89.4139L84.3286 89.029V86.3558V86.3537Z" fill="url(#paint22_linear_897_23793)"/>
<path d="M84.329 91.614L53.8976 92.1325C51.7891 92.1682 50.0739 93.9097 50.0739 96.013C50.0739 96.6797 49.5299 97.2223 48.8615 97.2223H33.8535V99.8945H48.8615C51.0069 99.8945 52.7516 98.153 52.7516 96.013C52.7516 95.3578 53.2861 94.8152 53.9429 94.8047L84.329 94.2862V91.614Z" fill="url(#paint23_linear_897_23793)"/>
<path d="M84.3279 97.2223H76.5815C74.4361 97.2223 72.6914 98.9627 72.6914 101.103V102.544C72.6914 103.21 72.1474 103.753 71.479 103.753H48.3081C46.1627 103.753 44.418 105.493 44.418 107.633V112.838C44.418 113.902 44.8407 114.894 45.6093 115.632C46.3419 116.336 47.2939 116.718 48.3049 116.718C48.3545 116.718 48.404 116.718 48.4536 116.715L61.8792 116.219L61.7801 113.549L48.3545 114.045C48.0224 114.057 47.7082 113.938 47.4689 113.708C47.2296 113.477 47.0978 113.168 47.0978 112.837V107.632C47.0978 106.966 47.6418 106.423 48.3102 106.423H71.4811C73.6265 106.423 75.3712 104.683 75.3712 102.541V101.101C75.3712 100.434 75.9152 99.8913 76.5836 99.8913H84.33V97.2191L84.3279 97.2223Z" fill="url(#paint24_linear_897_23793)"/>
<path d="M84.3278 80.8936H78.3672C77.6988 80.8936 77.1549 80.351 77.1549 79.6843V52.3861C77.1549 50.2692 75.4291 48.5287 73.308 48.5056C68.9941 48.4593 60.0964 48.4909 55.1763 48.514H55.1647C53.8184 48.514 52.7147 47.4245 52.702 46.0805C52.682 44.0246 52.6672 41.1557 52.7031 39.165C52.7147 38.533 53.1996 38.0229 53.8311 37.9798L68.7632 36.9524L68.5787 34.2865L53.6466 35.3139C51.6183 35.4538 50.0612 37.088 50.0243 39.1166C49.9874 41.1379 50.0032 44.033 50.0222 46.1058C50.0496 48.9115 52.3531 51.1862 55.1626 51.1862H55.1868C60.0985 51.163 68.9814 51.1315 73.2764 51.1767C73.9363 51.1841 74.4729 51.7267 74.4729 52.3861V79.6843C74.4729 81.8243 76.2187 83.5658 78.363 83.5658H84.3236V80.8936H84.3278Z" fill="url(#paint25_linear_897_23793)"/>
<path d="M165.247 28.7917V51.5217C165.247 52.119 164.8 52.6343 164.207 52.7184L158.171 53.5786C156.267 53.85 154.83 55.5021 154.83 57.4202V78.4612C154.83 79.0796 154.366 79.5959 153.749 79.6632L143.744 80.7475V83.4354L154.038 82.3197C156.016 82.1051 157.508 80.4467 157.508 78.4612V57.4202C157.508 56.8219 157.955 56.3076 158.549 56.2235L164.584 55.3633C166.488 55.0919 167.925 53.4398 167.925 51.5217V28.7917H165.246H165.247Z" fill="url(#paint26_linear_897_23793)"/>
<path d="M183.402 94.9434V84.7531C183.402 84.0927 183.941 83.5501 184.603 83.5438L189.493 83.5006C191.584 83.4817 193.277 81.8349 193.347 79.7505L194.411 48.1354L191.735 48.046L190.67 79.6611C190.648 80.31 190.121 80.8232 189.469 80.8295L184.579 80.8737C182.452 80.8926 180.723 82.6341 180.723 84.7542V94.9098L178.713 94.8835C177.671 94.8687 176.675 95.2673 175.929 96.0013C175.182 96.7364 174.771 97.7176 174.771 98.764V118.545C174.771 118.871 174.643 119.176 174.41 119.405C174.177 119.635 173.87 119.754 173.543 119.754L155.432 119.523C154.772 119.515 154.236 118.972 154.236 118.314V104.075C154.236 101.935 152.49 100.194 150.346 100.194H143.746V102.866H150.346C151.014 102.866 151.558 103.409 151.558 104.076V118.315C151.558 120.428 153.281 122.168 155.398 122.195L173.509 122.427C173.526 122.427 173.543 122.427 173.56 122.427C174.59 122.427 175.557 122.03 176.292 121.308C177.039 120.573 177.45 119.593 177.45 118.546V98.765C177.45 98.439 177.577 98.133 177.81 97.9048C178.043 97.6755 178.354 97.5514 178.678 97.5567L198.712 97.8196L198.746 95.1485L183.402 94.9466V94.9434Z" fill="url(#paint27_linear_897_23793)"/>
<path d="M166.512 125.44C165.588 125.44 164.835 124.699 164.822 123.777L164.388 92.1271L171.695 91.7149C173.753 91.5982 175.366 89.8966 175.366 87.8396V76.5883H172.687V87.8396C172.687 88.4801 172.184 89.0101 171.543 89.0469L143.744 90.6159V93.2923L161.711 92.2775C161.75 95.1032 161.789 97.929 161.827 100.755C161.865 103.511 162.233 120.891 162.312 125.439C162.312 126.652 163.299 127.636 164.516 127.636H185.296V125.439H166.511L166.512 125.44Z" fill="url(#paint28_linear_897_23793)"/>
<path d="M33.8839 17.9999L21.6538 18.4037C19.2807 18.7886 17.5645 20.5469 17.5645 22.5934V33.8048C17.5645 36.1605 19.8195 38.0702 22.6005 38.0702H33.6193C36.4004 38.0702 38.6554 36.1605 38.6554 33.8048V23.4463C38.6554 20.7688 37.3028 17.9988 33.8839 17.9999Z" fill="url(#paint29_linear_897_23793)"/>
<path opacity="0.89" d="M33.6132 18.8118L22.1801 19.1798C19.962 19.53 18.3574 21.1317 18.3574 22.9951V33.2054C18.3574 35.3507 20.4659 37.0901 23.0656 37.0901H33.3665C35.9673 37.0901 38.0747 35.3507 38.0747 33.2054V23.7723C38.0747 21.3336 36.8107 18.8107 33.6132 18.8118Z" fill="white"/>
<path d="M34.7887 29.3198C35.5936 25.6126 33.2333 21.9564 29.5169 21.1535C25.8005 20.3506 22.1353 22.7051 21.3304 26.4123C20.5255 30.1196 22.8858 33.7757 26.6022 34.5786C30.3186 35.3815 33.9839 33.0271 34.7887 29.3198Z" fill="url(#paint30_linear_897_23793)"/>
<path d="M27.2305 24.1393C27.2305 23.8984 27.3011 23.7081 27.4413 23.5682C27.5815 23.4284 27.7787 23.3579 28.0306 23.3579C28.2678 23.3579 28.4576 23.4284 28.601 23.5682C28.7433 23.7081 28.815 23.8984 28.815 24.1393C28.815 24.3801 28.7422 24.5789 28.5957 24.7156C28.4492 24.8523 28.2615 24.9206 28.0317 24.9206C27.8019 24.9206 27.5973 24.8523 27.4508 24.7156C27.3043 24.5789 27.2315 24.3864 27.2315 24.1393H27.2305ZM28.7486 31.8193H27.2906V25.7304H28.7486V31.8193Z" fill="url(#paint31_linear_897_23793)"/>
<path d="M203.739 33.6587L191.509 34.0625C189.136 34.4474 187.42 36.2057 187.42 38.2522V49.4636C187.42 51.8193 189.675 53.729 192.456 53.729H203.475C206.256 53.729 208.511 51.8193 208.511 49.4636V39.1051C208.511 36.4276 207.158 33.6576 203.739 33.6587Z" fill="url(#paint32_linear_897_23793)"/>
<path opacity="0.89" d="M203.469 34.4716L192.036 34.8396C189.817 35.1898 188.213 36.7915 188.213 38.6549V48.8652C188.213 51.0105 190.32 52.7499 192.921 52.7499H203.222C205.823 52.7499 207.93 51.0105 207.93 48.8652V39.4321C207.93 36.9934 206.666 34.4705 203.469 34.4716Z" fill="white"/>
<path d="M204.634 45.4104C205.685 41.7413 203.555 37.9174 199.876 36.8694C196.198 35.8215 192.365 37.9464 191.314 41.6155C190.264 45.2846 192.394 49.1086 196.072 50.1565C199.75 51.2045 203.584 49.0796 204.634 45.4104Z" fill="url(#paint33_linear_897_23793)"/>
<path d="M194.371 41.343C194.911 45.2477 196.909 47.0775 199.615 47.902L201.177 46.6495C198.332 45.5011 196.335 43.461 195.488 40.2094L194.372 41.342L194.371 41.343Z" fill="url(#paint34_linear_897_23793)"/>
<path d="M199.519 47.8726C201.165 48.1429 201.361 48.1576 202.709 47.2669C202.859 47.167 202.874 46.9493 202.736 46.8325L200.356 44.8082C200.263 44.7293 200.12 44.7608 200.069 44.8723L199.677 45.7367L199.518 47.8737L199.519 47.8726Z" fill="url(#paint35_linear_897_23793)"/>
<path d="M194.314 41.4387C194.152 39.937 194.179 39.7109 195.109 38.4615C195.217 38.3164 195.436 38.3132 195.546 38.4573L197.445 40.936C197.519 41.0328 197.48 41.1737 197.366 41.2178L196.48 41.5628L194.501 41.6038C194.405 41.6059 194.324 41.5333 194.313 41.4387H194.314Z" fill="url(#paint36_linear_897_23793)"/>
<path d="M171.612 13.928L159.382 14.3318C157.009 14.7167 155.293 16.475 155.293 18.5215V29.7329C155.293 32.0886 157.548 33.9983 160.329 33.9983H171.348C174.129 33.9983 176.384 32.0886 176.384 29.7329V19.3744C176.384 16.6969 175.031 13.9269 171.612 13.928Z" fill="url(#paint37_linear_897_23793)"/>
<path opacity="0.89" d="M171.342 14.7399L159.909 15.1079C157.69 15.4581 156.086 17.0598 156.086 18.9232V29.1335C156.086 31.2788 158.194 33.0182 160.794 33.0182H171.095C173.696 33.0182 175.803 31.2788 175.803 29.1335V19.7004C175.803 17.2617 174.539 14.7388 171.342 14.7399Z" fill="white"/>
<path d="M162.03 28.4467L152.75 37.3161C152.361 37.6884 152.371 38.312 152.774 38.6706L152.84 38.7295C153.196 39.046 153.743 39.0134 154.058 38.6569L162.603 28.9893L162.031 28.4477L162.03 28.4467Z" fill="url(#paint38_linear_897_23793)"/>
<path d="M168.401 29.1365C171.414 27.8122 172.8 24.346 171.496 21.3947C170.193 18.4433 166.693 17.1243 163.68 18.4487C160.667 19.7731 159.281 23.2392 160.585 26.1906C161.889 29.1419 165.388 30.4609 168.401 29.1365Z" fill="#BDD0FB"/>
<path d="M163.417 17.8547C160.065 19.328 158.523 23.1854 159.973 26.4696C161.424 29.7539 165.317 31.2219 168.671 29.7486C172.023 28.2753 173.565 24.4189 172.115 21.1337C170.664 17.8494 166.771 16.3813 163.417 17.8547ZM168.284 28.8747C165.424 30.1314 162.102 28.8789 160.864 26.0774C159.626 23.2758 160.942 19.9853 163.802 18.7286C166.662 17.4719 169.984 18.7244 171.222 21.5259C172.46 24.3275 171.144 27.618 168.283 28.8747H168.284Z" fill="url(#paint39_linear_897_23793)"/>
<path d="M47.2081 51.8087L34.978 52.2125C32.605 52.5974 30.8887 54.3558 30.8887 56.4022V67.6136C30.8887 69.9693 33.1437 71.8791 35.9247 71.8791H46.9435C49.7246 71.8791 51.9796 69.9693 51.9796 67.6136V57.2551C51.9796 54.5777 50.627 51.8077 47.2081 51.8087Z" fill="url(#paint40_linear_897_23793)"/>
<path opacity="0.89" d="M46.9374 52.6216L35.5043 52.9897C33.2862 53.3398 31.6816 54.9415 31.6816 56.805V67.0152C31.6816 69.1605 33.789 70.8999 36.3898 70.8999H46.6907C49.2915 70.8999 51.3989 69.1605 51.3989 67.0152V57.5821C51.3989 55.1434 50.1349 52.6205 46.9374 52.6216Z" fill="white"/>
<path d="M41.3424 68.395C37.5957 68.395 34.5469 65.3537 34.5469 61.6162C34.5469 57.8787 37.5957 54.8374 41.3424 54.8374C45.0892 54.8374 48.138 57.8787 48.138 61.6162C48.138 65.3537 45.0892 68.395 41.3424 68.395ZM41.3424 55.9732C38.223 55.9732 35.6854 58.5044 35.6854 61.6162C35.6854 64.728 38.223 67.2592 41.3424 67.2592C44.4619 67.2592 46.9994 64.728 46.9994 61.6162C46.9994 58.5044 44.4619 55.9732 41.3424 55.9732Z" fill="url(#paint41_linear_897_23793)"/>
<path fill-rule="evenodd" clip-rule="evenodd" d="M39.2148 64.2264V59.3531C39.2148 58.8326 39.7831 58.5097 40.2322 58.7758L44.3489 61.2124C44.7886 61.4722 44.7886 62.1074 44.3489 62.3682L40.2322 64.8048C39.7831 65.0708 39.2148 64.748 39.2148 64.2274V64.2264Z" fill="url(#paint42_linear_897_23793)"/>
<path d="M180.745 58.6801L168.515 59.0839C166.142 59.4688 164.426 61.2271 164.426 63.2736V74.485C164.426 76.8406 166.681 78.7504 169.462 78.7504H180.481C183.262 78.7504 185.517 76.8406 185.517 74.485V64.1264C185.517 61.449 184.164 58.679 180.745 58.6801Z" fill="url(#paint43_linear_897_23793)"/>
<path opacity="0.89" d="M180.475 59.4919L169.041 59.86C166.823 60.2102 165.219 61.8118 165.219 63.6753V73.8856C165.219 76.0309 167.326 77.7703 169.927 77.7703H180.228C182.829 77.7703 184.936 76.0309 184.936 73.8856V64.4525C184.936 62.0137 183.672 59.4909 180.475 59.4919Z" fill="white"/>
<path d="M168.364 69.1701C167.911 66.521 168.871 65.0487 169.757 64.28C171.424 62.834 174.394 62.4996 177.328 63.4271C180.203 64.3378 182.229 66.9732 181.846 69.3026C181.694 70.2259 180.906 72.245 176.966 72.5658C177.792 72.9622 178.914 73.4502 179.943 73.7383C180.135 73.792 180.257 73.9749 180.232 74.1726C180.206 74.3693 180.044 74.5144 179.846 74.5186C179.73 74.5207 179.583 74.5228 179.41 74.5228C176.959 74.5228 169.211 74.1253 168.364 69.1701ZM175.566 71.8927C178.815 71.9611 180.846 70.9652 181.139 69.1869C181.462 67.2277 179.617 64.9015 177.111 64.1075C174.898 63.4071 171.912 63.3545 170.226 64.8184C169.139 65.7617 168.75 67.1856 169.068 69.0502C169.696 72.7235 174.843 73.5806 177.886 73.7636C176.549 73.2062 175.451 72.5984 175.384 72.5616L174.136 71.8675L175.566 71.8938V71.8927Z" fill="url(#paint44_linear_897_23793)"/>
<path d="M31.4816 88.5652L19.2515 88.969C16.8784 89.3539 15.1621 91.1122 15.1621 93.1587V104.37C15.1621 106.726 17.4171 108.636 20.1982 108.636H31.217C33.998 108.636 36.253 106.726 36.253 104.37V94.0116C36.253 91.3341 34.9004 88.5641 31.4816 88.5652Z" fill="url(#paint45_linear_897_23793)"/>
<path opacity="0.89" d="M31.2108 89.3771L19.7777 89.7451C17.5596 90.0953 15.9551 91.697 15.9551 93.5605V103.771C15.9551 105.916 18.0625 107.655 20.6633 107.655H30.9641C33.5649 107.655 35.6723 105.916 35.6723 103.771V94.3376C35.6723 91.8989 34.4083 89.376 31.2108 89.3771Z" fill="white"/>
<path d="M32.3657 100.598C33.4201 96.9301 31.294 93.1039 27.6169 92.0521C23.9398 91.0003 20.1042 93.1212 19.0498 96.7892C17.9954 100.457 20.1215 104.283 23.7986 105.335C27.4757 106.387 31.3113 104.266 32.3657 100.598Z" fill="url(#paint46_linear_897_23793)"/>
<path d="M28.1438 95.2283C28.1438 96.4819 27.1254 97.8343 25.8688 97.8343C24.6121 97.8343 23.5938 96.4808 23.5938 95.2283C23.5938 93.9759 24.6121 93.0862 25.8688 93.0862C27.1254 93.0862 28.1438 93.9748 28.1438 95.2283Z" fill="url(#paint47_linear_897_23793)"/>
<path d="M23.0464 102.66H28.6001C29.1852 102.66 29.7018 102.284 29.88 101.727L30.1783 100.796C30.3976 100.113 30.0413 99.3749 29.3666 99.1288C27.1063 98.3044 24.7701 98.4106 22.376 99.2046C21.7055 99.4275 21.3333 100.143 21.5178 100.823L21.7476 101.67C21.9068 102.254 22.4382 102.659 23.0454 102.659L23.0464 102.66Z" fill="url(#paint48_linear_897_23793)"/>
<path d="M208.648 86.6334L196.417 87.0373C194.044 87.4221 192.328 89.1805 192.328 91.2269V102.438C192.328 104.794 194.583 106.704 197.364 106.704H208.383C211.164 106.704 213.419 104.794 213.419 102.438V92.0798C213.419 89.4024 212.066 86.6324 208.648 86.6334Z" fill="url(#paint49_linear_897_23793)"/>
<path opacity="0.89" d="M208.377 87.4453L196.944 87.8134C194.726 88.1636 193.121 89.7652 193.121 91.6287V101.839C193.121 103.984 195.229 105.724 197.829 105.724H208.13C210.731 105.724 212.838 103.984 212.838 101.839V92.4058C212.838 89.9671 211.574 87.4443 208.377 87.4453Z" fill="white"/>
<path d="M209.618 98.0879C210.505 94.3761 208.208 90.6497 204.487 89.7647C200.766 88.8798 197.031 91.1714 196.143 94.8832C195.256 98.595 197.554 102.321 201.275 103.206C204.996 104.091 208.731 101.8 209.618 98.0879Z" fill="url(#paint50_linear_897_23793)"/>
<path d="M207.808 92.8843H198.765C198.544 92.8843 198.363 93.0641 198.363 93.2849C198.363 93.5058 198.544 93.6856 198.765 93.6856H207.808C208.03 93.6856 208.21 93.5058 208.21 93.2849C208.21 93.0641 208.03 92.8843 207.808 92.8843Z" fill="url(#paint51_linear_897_23793)"/>
<path d="M206.98 94.7845H198.822C198.6 94.7845 198.42 94.9644 198.42 95.1852C198.42 95.4061 198.6 95.5859 198.822 95.5859H206.98C207.202 95.5859 207.382 95.4061 207.382 95.1852C207.382 94.9644 207.202 94.7845 206.98 94.7845Z" fill="url(#paint52_linear_897_23793)"/>
<path d="M206.034 96.7048H198.765C198.544 96.7048 198.363 96.8847 198.363 97.1055C198.363 97.3263 198.544 97.5062 198.765 97.5062H206.034C206.255 97.5062 206.436 97.3263 206.436 97.1055C206.436 96.8847 206.255 96.7048 206.034 96.7048Z" fill="url(#paint53_linear_897_23793)"/>
<path d="M205.316 98.3938H198.794C198.573 98.3938 198.393 98.5736 198.393 98.7945C198.393 99.0153 198.573 99.1951 198.794 99.1951H205.316C205.537 99.1951 205.717 99.0153 205.717 98.7945C205.717 98.5736 205.537 98.3938 205.316 98.3938Z" fill="url(#paint54_linear_897_23793)"/>
<path d="M204.408 100.295H198.851C198.629 100.295 198.449 100.475 198.449 100.696C198.449 100.917 198.629 101.097 198.851 101.097H204.408C204.629 101.097 204.809 100.917 204.809 100.696C204.809 100.475 204.629 100.295 204.408 100.295Z" fill="url(#paint55_linear_897_23793)"/>
<path d="M81.4581 25.2415L69.228 25.6453C66.855 26.0302 65.1387 27.7885 65.1387 29.835V41.0464C65.1387 43.402 67.3937 45.3118 70.1747 45.3118H81.1935C83.9746 45.3118 86.2296 43.402 86.2296 41.0464V30.6878C86.2296 28.0104 84.877 25.2404 81.4581 25.2415Z" fill="url(#paint56_linear_897_23793)"/>
<path opacity="0.89" d="M81.1874 26.0533L69.7543 26.4214C67.5362 26.7716 65.9316 28.3732 65.9316 30.2367V40.447C65.9316 42.5923 68.039 44.3317 70.6398 44.3317H80.9407C83.5415 44.3317 85.6489 42.5923 85.6489 40.447V31.0139C85.6489 28.5752 84.3849 26.0523 81.1874 26.0533Z" fill="white"/>
<path d="M82.4306 36.6793C83.3093 32.9655 81.0036 29.2443 77.2806 28.3677C73.5576 27.4912 69.8272 29.7912 68.9485 33.5051C68.0698 37.2189 70.3755 40.9401 74.0985 41.8166C77.8215 42.6931 81.5519 40.3931 82.4306 36.6793Z" fill="url(#paint57_linear_897_23793)"/>
<path d="M80.6187 31.4913H71.5755C71.3541 31.4913 71.1738 31.6712 71.1738 31.892C71.1738 32.1128 71.3541 32.2927 71.5755 32.2927H80.6187C80.8401 32.2927 81.0203 32.1128 81.0203 31.892C81.0203 31.6712 80.8401 31.4913 80.6187 31.4913Z" fill="url(#paint58_linear_897_23793)"/>
<path d="M79.7908 33.3927H71.6321C71.4107 33.3927 71.2305 33.5725 71.2305 33.7934C71.2305 34.0142 71.4107 34.194 71.6321 34.194H79.7908C80.0122 34.194 80.1925 34.0142 80.1925 33.7934C80.1925 33.5725 80.0122 33.3927 79.7908 33.3927Z" fill="url(#paint59_linear_897_23793)"/>
<path d="M78.8444 35.313H71.5755C71.3541 35.313 71.1738 35.4928 71.1738 35.7137C71.1738 35.9345 71.3541 36.1143 71.5755 36.1143H78.8444C79.0658 36.1143 79.2461 35.9345 79.2461 35.7137C79.2461 35.4928 79.0658 35.313 78.8444 35.313Z" fill="url(#paint60_linear_897_23793)"/>
<path d="M78.1262 37.0009H71.6048C71.3834 37.0009 71.2031 37.1807 71.2031 37.4015C71.2031 37.6224 71.3834 37.8022 71.6048 37.8022H78.1262C78.3476 37.8022 78.5279 37.6224 78.5279 37.4015C78.5279 37.1807 78.3476 37.0009 78.1262 37.0009Z" fill="url(#paint61_linear_897_23793)"/>
<path d="M77.2183 38.9022H71.6614C71.44 38.9022 71.2598 39.082 71.2598 39.3029C71.2598 39.5237 71.44 39.7036 71.6614 39.7036H77.2183C77.4397 39.7036 77.6199 39.5237 77.6199 39.3029C77.6199 39.082 77.4397 38.9022 77.2183 38.9022Z" fill="url(#paint62_linear_897_23793)"/>
<path d="M75.7257 108.487L63.4956 108.891C61.1225 109.276 59.4062 111.034 59.4062 113.081V124.292C59.4062 126.648 61.6612 128.558 64.4423 128.558H75.4611C78.2422 128.558 80.4972 126.648 80.4972 124.292V113.934C80.4972 111.256 79.1446 108.486 75.7257 108.487Z" fill="url(#paint63_linear_897_23793)"/>
<path opacity="0.89" d="M75.455 109.299L64.0218 109.667C61.8038 110.017 60.1992 111.619 60.1992 113.483V123.693C60.1992 125.838 62.3066 127.578 64.9074 127.578H75.2083C77.8091 127.578 79.9165 125.838 79.9165 123.693V114.26C79.9165 111.821 78.6524 109.298 75.455 109.299Z" fill="white"/>
<path d="M76.7 120.045C77.5695 116.37 75.288 112.688 71.6041 111.82C67.9202 110.953 64.229 113.229 63.3595 116.904C62.49 120.579 64.7715 124.261 68.4554 125.128C72.1393 125.995 75.8306 123.719 76.7 120.045Z" fill="url(#paint64_linear_897_23793)"/>
<path d="M68.0515 115.89H66.8897C66.7133 115.89 66.5703 116.032 66.5703 116.208V121.258C66.5703 121.434 66.7133 121.577 66.8897 121.577H68.0515C68.2279 121.577 68.3709 121.434 68.3709 121.258V116.208C68.3709 116.032 68.2279 115.89 68.0515 115.89Z" fill="url(#paint65_linear_897_23793)"/>
<path d="M72.2991 115.89H71.17V114.528C71.17 114.085 70.9086 113.794 70.4647 113.794H70.4363C69.9924 113.794 69.6329 114.119 69.6329 114.562L69.2366 115.927C69.0594 115.927 68.7695 116.053 68.7695 116.228V121.462C68.7695 121.639 69.2081 121.876 69.3852 121.876H72.2991C72.9622 121.876 73.4714 121.245 73.4714 120.583V117.109C73.4714 116.447 72.9633 115.89 72.2991 115.89Z" fill="url(#paint66_linear_897_23793)"/>
<path d="M200.56 115.311L188.33 115.715C185.957 116.1 184.24 117.858 184.24 119.905V131.116C184.24 133.472 186.495 135.382 189.276 135.382H200.295C203.076 135.382 205.331 133.472 205.331 131.116V120.758C205.331 118.08 203.979 115.31 200.56 115.311Z" fill="url(#paint67_linear_897_23793)"/>
<path opacity="0.89" d="M200.289 116.123L188.856 116.491C186.638 116.841 185.033 118.443 185.033 120.307V130.517C185.033 132.662 187.141 134.402 189.741 134.402H200.042C202.643 134.402 204.75 132.662 204.75 130.517V121.084C204.75 118.645 203.486 116.122 200.289 116.123Z" fill="white"/>
<path d="M201.456 126.852C202.334 123.179 200.061 119.491 196.379 118.616C192.697 117.74 189 120.008 188.123 123.681C187.245 127.353 189.518 131.041 193.2 131.916C196.882 132.792 200.578 130.524 201.456 126.852Z" fill="url(#paint68_linear_897_23793)"/>
<path d="M199.289 122.201C199.274 122.192 199.255 122.195 199.243 122.206L195.046 125.692C194.684 125.993 194.12 125.979 193.777 125.66L190.656 122.775C190.63 122.751 190.587 122.753 190.564 122.78C190.48 122.878 190.422 123.004 190.422 123.142V128.155C190.422 128.448 190.66 128.686 190.954 128.686H198.723C199.022 128.686 199.27 128.468 199.286 128.17L199.583 122.719C199.596 122.492 199.471 122.299 199.287 122.201H199.289Z" fill="url(#paint69_linear_897_23793)"/>
<path d="M195.047 125.298C195.084 125.267 195.121 125.237 195.158 125.206C195.56 124.872 195.963 124.538 196.364 124.204C196.93 123.734 197.496 123.264 198.061 122.794C198.296 122.599 198.53 122.405 198.765 122.21C198.828 122.157 198.887 122.099 198.948 122.043C198.984 122.01 199.221 121.811 199.179 121.765C199.169 121.755 199.155 121.753 199.141 121.75C198.897 121.722 198.651 121.759 198.405 121.773C198.149 121.787 197.892 121.801 197.636 121.816C196.978 121.852 196.319 121.889 195.661 121.925C194.943 121.965 194.224 122.005 193.506 122.045C192.921 122.078 192.337 122.11 191.752 122.143C191.571 122.153 191.388 122.163 191.207 122.173C191.081 122.181 190.512 122.183 190.679 122.401C190.742 122.486 190.84 122.539 190.917 122.611C191.055 122.738 191.192 122.866 191.33 122.994C191.855 123.48 192.379 123.966 192.904 124.453C193.196 124.724 193.488 124.996 193.781 125.266C194.124 125.584 194.688 125.598 195.05 125.298H195.047Z" fill="url(#paint70_linear_897_23793)"/>
</g>
<path d="M12.2559 160.692L20.6582 147.543H22.9199V164.606H20.6582V151.445L12.2559 164.606H10.0059V147.543H12.2559V160.692ZM35.3066 157.422V159.18H28.6035V157.422H35.3066ZM29.0605 151.926V164.606H26.8926V151.926H29.0605ZM37.0645 151.926V164.606H34.8848V151.926H37.0645ZM45.7246 151.926V164.606H43.5449V151.926H45.7246ZM49.9785 151.926V153.684H39.373V151.926H49.9785ZM56.4355 164.84C55.5527 164.84 54.752 164.692 54.0332 164.395C53.3223 164.09 52.709 163.664 52.1934 163.117C51.6855 162.57 51.2949 161.922 51.0215 161.172C50.748 160.422 50.6113 159.602 50.6113 158.711V158.219C50.6113 157.188 50.7637 156.27 51.0684 155.465C51.373 154.652 51.7871 153.965 52.3105 153.402C52.834 152.84 53.4277 152.414 54.0918 152.125C54.7559 151.836 55.4434 151.692 56.1543 151.692C57.0605 151.692 57.8418 151.848 58.498 152.16C59.1621 152.473 59.7051 152.91 60.127 153.473C60.5488 154.027 60.8613 154.684 61.0645 155.442C61.2676 156.192 61.3691 157.012 61.3691 157.902V158.875H51.9004V157.106H59.2012V156.942C59.1699 156.379 59.0527 155.832 58.8496 155.301C58.6543 154.77 58.3418 154.332 57.9121 153.988C57.4824 153.645 56.8965 153.473 56.1543 153.473C55.6621 153.473 55.209 153.578 54.7949 153.789C54.3809 153.992 54.0254 154.297 53.7285 154.703C53.4316 155.109 53.2012 155.606 53.0371 156.192C52.873 156.777 52.791 157.453 52.791 158.219V158.711C52.791 159.313 52.873 159.879 53.0371 160.41C53.209 160.934 53.4551 161.395 53.7754 161.793C54.1035 162.192 54.498 162.504 54.959 162.731C55.4277 162.957 55.959 163.07 56.5527 163.07C57.3184 163.07 57.9668 162.914 58.498 162.602C59.0293 162.289 59.4941 161.871 59.8926 161.348L61.2051 162.391C60.9316 162.805 60.584 163.199 60.1621 163.574C59.7402 163.949 59.2207 164.254 58.6035 164.488C57.9941 164.723 57.2715 164.84 56.4355 164.84ZM66.0684 154.363V169.481H63.8887V151.926H65.8809L66.0684 154.363ZM74.6113 158.16V158.406C74.6113 159.328 74.502 160.184 74.2832 160.973C74.0645 161.754 73.7441 162.434 73.3223 163.012C72.9082 163.59 72.3965 164.039 71.7871 164.359C71.1777 164.68 70.4785 164.84 69.6895 164.84C68.8848 164.84 68.1738 164.707 67.5566 164.442C66.9395 164.176 66.416 163.789 65.9863 163.281C65.5566 162.774 65.2129 162.164 64.9551 161.453C64.7051 160.742 64.5332 159.942 64.4395 159.051V157.738C64.5332 156.801 64.709 155.961 64.9668 155.219C65.2246 154.477 65.5645 153.844 65.9863 153.32C66.416 152.789 66.9355 152.387 67.5449 152.113C68.1543 151.832 68.8574 151.692 69.6543 151.692C70.4512 151.692 71.1582 151.848 71.7754 152.16C72.3926 152.465 72.9121 152.902 73.334 153.473C73.7559 154.043 74.0723 154.727 74.2832 155.524C74.502 156.313 74.6113 157.192 74.6113 158.16ZM72.4316 158.406V158.16C72.4316 157.527 72.3652 156.934 72.2324 156.379C72.0996 155.817 71.8926 155.324 71.6113 154.902C71.3379 154.473 70.9863 154.137 70.5566 153.895C70.127 153.645 69.6152 153.52 69.0215 153.52C68.4746 153.52 67.998 153.613 67.5918 153.801C67.1934 153.988 66.8535 154.242 66.5723 154.563C66.291 154.875 66.0605 155.234 65.8809 155.641C65.709 156.039 65.5801 156.453 65.4941 156.883V159.918C65.6504 160.465 65.8691 160.981 66.1504 161.465C66.4316 161.942 66.8066 162.328 67.2754 162.625C67.7441 162.914 68.334 163.059 69.0449 163.059C69.6309 163.059 70.1348 162.938 70.5566 162.695C70.9863 162.445 71.3379 162.106 71.6113 161.676C71.8926 161.246 72.0996 160.754 72.2324 160.199C72.3652 159.637 72.4316 159.039 72.4316 158.406ZM85.9785 157.422V159.18H79.2754V157.422H85.9785ZM79.7324 151.926V164.606H77.5645V151.926H79.7324ZM87.7363 151.926V164.606H85.5566V151.926H87.7363ZM96.4902 164.84C95.6074 164.84 94.8066 164.692 94.0879 164.395C93.377 164.09 92.7637 163.664 92.248 163.117C91.7402 162.57 91.3496 161.922 91.0762 161.172C90.8027 160.422 90.666 159.602 90.666 158.711V158.219C90.666 157.188 90.8184 156.27 91.123 155.465C91.4277 154.652 91.8418 153.965 92.3652 153.402C92.8887 152.84 93.4824 152.414 94.1465 152.125C94.8105 151.836 95.498 151.692 96.209 151.692C97.1152 151.692 97.8965 151.848 98.5527 152.16C99.2168 152.473 99.7598 152.91 100.182 153.473C100.604 154.027 100.916 154.684 101.119 155.442C101.322 156.192 101.424 157.012 101.424 157.902V158.875H91.9551V157.106H99.2559V156.942C99.2246 156.379 99.1074 155.832 98.9043 155.301C98.709 154.77 98.3965 154.332 97.9668 153.988C97.5371 153.645 96.9512 153.473 96.209 153.473C95.7168 153.473 95.2637 153.578 94.8496 153.789C94.4355 153.992 94.0801 154.297 93.7832 154.703C93.4863 155.109 93.2559 155.606 93.0918 156.192C92.9277 156.777 92.8457 157.453 92.8457 158.219V158.711C92.8457 159.313 92.9277 159.879 93.0918 160.41C93.2637 160.934 93.5098 161.395 93.8301 161.793C94.1582 162.192 94.5527 162.504 95.0137 162.731C95.4824 162.957 96.0137 163.07 96.6074 163.07C97.373 163.07 98.0215 162.914 98.5527 162.602C99.084 162.289 99.5488 161.871 99.9473 161.348L101.26 162.391C100.986 162.805 100.639 163.199 100.217 163.574C99.7949 163.949 99.2754 164.254 98.6582 164.488C98.0488 164.723 97.3262 164.84 96.4902 164.84ZM108.982 151.926V164.606H106.803V151.926H108.982ZM113.236 151.926V153.684H102.631V151.926H113.236ZM129.771 151.926V153.719H123.361V151.926H129.771ZM123.678 151.926V164.606H121.51V151.926H123.678ZM131.693 151.926V164.606H129.514V151.926H131.693ZM134.6 158.406V158.137C134.6 157.223 134.732 156.375 134.998 155.594C135.264 154.805 135.646 154.121 136.146 153.543C136.646 152.957 137.252 152.504 137.963 152.184C138.674 151.856 139.471 151.692 140.354 151.692C141.244 151.692 142.045 151.856 142.756 152.184C143.475 152.504 144.084 152.957 144.584 153.543C145.092 154.121 145.479 154.805 145.744 155.594C146.01 156.375 146.143 157.223 146.143 158.137V158.406C146.143 159.32 146.01 160.168 145.744 160.949C145.479 161.731 145.092 162.414 144.584 163C144.084 163.578 143.479 164.031 142.768 164.359C142.064 164.68 141.268 164.84 140.377 164.84C139.486 164.84 138.686 164.68 137.975 164.359C137.264 164.031 136.654 163.578 136.146 163C135.646 162.414 135.264 161.731 134.998 160.949C134.732 160.168 134.6 159.32 134.6 158.406ZM136.768 158.137V158.406C136.768 159.039 136.842 159.637 136.99 160.199C137.139 160.754 137.361 161.246 137.658 161.676C137.963 162.106 138.342 162.445 138.795 162.695C139.248 162.938 139.775 163.059 140.377 163.059C140.971 163.059 141.49 162.938 141.936 162.695C142.389 162.445 142.764 162.106 143.061 161.676C143.357 161.246 143.58 160.754 143.729 160.199C143.885 159.637 143.963 159.039 143.963 158.406V158.137C143.963 157.512 143.885 156.922 143.729 156.367C143.58 155.805 143.354 155.309 143.049 154.879C142.752 154.442 142.377 154.098 141.924 153.848C141.479 153.598 140.955 153.473 140.354 153.473C139.76 153.473 139.236 153.598 138.783 153.848C138.338 154.098 137.963 154.442 137.658 154.879C137.361 155.309 137.139 155.805 136.99 156.367C136.842 156.922 136.768 157.512 136.768 158.137ZM151.029 154.363V169.481H148.85V151.926H150.842L151.029 154.363ZM159.572 158.16V158.406C159.572 159.328 159.463 160.184 159.244 160.973C159.025 161.754 158.705 162.434 158.283 163.012C157.869 163.59 157.357 164.039 156.748 164.359C156.139 164.68 155.439 164.84 154.65 164.84C153.846 164.84 153.135 164.707 152.518 164.442C151.9 164.176 151.377 163.789 150.947 163.281C150.518 162.774 150.174 162.164 149.916 161.453C149.666 160.742 149.494 159.942 149.4 159.051V157.738C149.494 156.801 149.67 155.961 149.928 155.219C150.186 154.477 150.525 153.844 150.947 153.32C151.377 152.789 151.896 152.387 152.506 152.113C153.115 151.832 153.818 151.692 154.615 151.692C155.412 151.692 156.119 151.848 156.736 152.16C157.354 152.465 157.873 152.902 158.295 153.473C158.717 154.043 159.033 154.727 159.244 155.524C159.463 156.313 159.572 157.192 159.572 158.16ZM157.393 158.406V158.16C157.393 157.527 157.326 156.934 157.193 156.379C157.061 155.817 156.854 155.324 156.572 154.902C156.299 154.473 155.947 154.137 155.518 153.895C155.088 153.645 154.576 153.52 153.982 153.52C153.436 153.52 152.959 153.613 152.553 153.801C152.154 153.988 151.814 154.242 151.533 154.563C151.252 154.875 151.021 155.234 150.842 155.641C150.67 156.039 150.541 156.453 150.455 156.883V159.918C150.611 160.465 150.83 160.981 151.111 161.465C151.393 161.942 151.768 162.328 152.236 162.625C152.705 162.914 153.295 163.059 154.006 163.059C154.592 163.059 155.096 162.938 155.518 162.695C155.947 162.445 156.299 162.106 156.572 161.676C156.854 161.246 157.061 160.754 157.193 160.199C157.326 159.637 157.393 159.039 157.393 158.406ZM166.568 151.926V164.606H164.389V151.926H166.568ZM170.822 151.926V153.684H160.217V151.926H170.822ZM180.244 162.438V155.91C180.244 155.41 180.143 154.977 179.939 154.609C179.744 154.234 179.447 153.945 179.049 153.742C178.65 153.539 178.158 153.438 177.572 153.438C177.025 153.438 176.545 153.531 176.131 153.719C175.725 153.906 175.404 154.152 175.17 154.457C174.943 154.762 174.83 155.09 174.83 155.442H172.662C172.662 154.988 172.779 154.539 173.014 154.094C173.248 153.649 173.584 153.246 174.021 152.887C174.467 152.52 174.998 152.231 175.615 152.02C176.24 151.801 176.936 151.692 177.701 151.692C178.623 151.692 179.436 151.848 180.139 152.16C180.85 152.473 181.404 152.945 181.803 153.578C182.209 154.203 182.412 154.988 182.412 155.934V161.84C182.412 162.262 182.447 162.711 182.518 163.188C182.596 163.664 182.709 164.074 182.857 164.418V164.606H180.596C180.486 164.356 180.4 164.024 180.338 163.609C180.275 163.188 180.244 162.797 180.244 162.438ZM180.619 156.918L180.643 158.442H178.451C177.834 158.442 177.283 158.492 176.799 158.594C176.314 158.688 175.908 158.832 175.58 159.027C175.252 159.223 175.002 159.469 174.83 159.766C174.658 160.055 174.572 160.395 174.572 160.785C174.572 161.184 174.662 161.547 174.842 161.875C175.021 162.203 175.291 162.465 175.65 162.66C176.018 162.848 176.467 162.942 176.998 162.942C177.662 162.942 178.248 162.801 178.756 162.52C179.264 162.238 179.666 161.895 179.963 161.488C180.268 161.082 180.432 160.688 180.455 160.305L181.381 161.348C181.326 161.676 181.178 162.039 180.936 162.438C180.693 162.836 180.369 163.219 179.963 163.586C179.564 163.945 179.088 164.246 178.533 164.488C177.986 164.723 177.369 164.84 176.682 164.84C175.822 164.84 175.068 164.672 174.42 164.336C173.779 164 173.279 163.551 172.92 162.988C172.568 162.418 172.393 161.781 172.393 161.078C172.393 160.399 172.525 159.801 172.791 159.285C173.057 158.762 173.439 158.328 173.939 157.984C174.439 157.633 175.041 157.367 175.744 157.188C176.447 157.008 177.232 156.918 178.1 156.918H180.619ZM194.295 151.926V153.719H188.166V151.926H194.295ZM196.205 151.926V164.606H194.037V151.926H196.205ZM187.639 151.926H189.818L189.49 158.043C189.436 158.988 189.346 159.824 189.221 160.551C189.104 161.27 188.939 161.887 188.729 162.402C188.525 162.918 188.268 163.34 187.955 163.668C187.65 163.988 187.283 164.227 186.854 164.383C186.424 164.531 185.928 164.606 185.365 164.606H184.686V162.695L185.154 162.66C185.49 162.637 185.775 162.559 186.01 162.426C186.252 162.293 186.455 162.098 186.619 161.84C186.783 161.574 186.916 161.234 187.018 160.82C187.127 160.406 187.209 159.914 187.264 159.344C187.326 158.774 187.373 158.109 187.404 157.352L187.639 151.926ZM201.479 156.285H205.287C206.311 156.285 207.174 156.465 207.877 156.824C208.58 157.176 209.111 157.664 209.471 158.289C209.838 158.906 210.021 159.609 210.021 160.399C210.021 160.984 209.92 161.535 209.717 162.051C209.514 162.559 209.209 163.004 208.803 163.387C208.404 163.77 207.908 164.07 207.314 164.289C206.729 164.5 206.053 164.606 205.287 164.606H199.896V151.926H202.064V162.824H205.287C205.912 162.824 206.412 162.711 206.787 162.484C207.162 162.258 207.432 161.965 207.596 161.606C207.76 161.246 207.842 160.871 207.842 160.481C207.842 160.098 207.76 159.723 207.596 159.356C207.432 158.988 207.162 158.684 206.787 158.442C206.412 158.192 205.912 158.067 205.287 158.067H201.479V156.285ZM214.533 151.926V164.606H212.365V151.926H214.533Z" fill="black"/>
<defs>
<linearGradient id="paint0_linear_897_23793" x1="224.436" y1="69.6716" x2="4.14328" y2="69.6716" gradientUnits="userSpaceOnUse">
<stop stop-color="#DAE3FE"/>
<stop offset="1" stop-color="#E9EFFD"/>
</linearGradient>
<linearGradient id="paint1_linear_897_23793" x1="101.117" y1="126.732" x2="131.645" y2="34.9206" gradientUnits="userSpaceOnUse">
<stop stop-color="#2B3582"/>
<stop offset="1" stop-color="#150E42"/>
</linearGradient>
<linearGradient id="paint2_linear_897_23793" x1="73.3593" y1="141.146" x2="156.127" y2="40.7887" gradientUnits="userSpaceOnUse">
<stop stop-color="#FE7062"/>
<stop offset="1" stop-color="#FF928E"/>
</linearGradient>
<linearGradient id="paint3_linear_897_23793" x1="108.567" y1="166.581" x2="120.068" y2="103.545" gradientUnits="userSpaceOnUse">
<stop stop-color="#2B3582"/>
<stop offset="1" stop-color="#150E42"/>
</linearGradient>
<linearGradient id="paint4_linear_897_23793" x1="103.481" y1="56.1645" x2="124.886" y2="117.938" gradientUnits="userSpaceOnUse">
<stop stop-color="#2B3582"/>
<stop offset="1" stop-color="#150E42"/>
</linearGradient>
<linearGradient id="paint5_linear_897_23793" x1="99.3597" y1="57.5926" x2="120.765" y2="119.367" gradientUnits="userSpaceOnUse">
<stop stop-color="#2B3582"/>
<stop offset="1" stop-color="#150E42"/>
</linearGradient>
<linearGradient id="paint6_linear_897_23793" x1="142.434" y1="18.5531" x2="136.812" y2="26.5626" gradientUnits="userSpaceOnUse">
<stop stop-color="#09005D"/>
<stop offset="1" stop-color="#1A0F91"/>
</linearGradient>
<linearGradient id="paint7_linear_897_23793" x1="136.127" y1="32.0275" x2="137.482" y2="73.118" gradientUnits="userSpaceOnUse">
<stop stop-color="#FE7062"/>
<stop offset="1" stop-color="#FF928E"/>
</linearGradient>
<linearGradient id="paint8_linear_897_23793" x1="134.943" y1="31.6279" x2="132.122" y2="39.3881" gradientUnits="userSpaceOnUse">
<stop stop-color="#FF928E"/>
<stop offset="1" stop-color="#FEB3B1"/>
</linearGradient>
<linearGradient id="paint9_linear_897_23793" x1="147.315" y1="26.0511" x2="143.51" y2="36.9655" gradientUnits="userSpaceOnUse">
<stop stop-color="#FF928E"/>
<stop offset="1" stop-color="#FEB3B1"/>
</linearGradient>
<linearGradient id="paint10_linear_897_23793" x1="136.26" y1="38.6864" x2="135.796" y2="57.56" gradientUnits="userSpaceOnUse">
<stop stop-color="#09005D"/>
<stop offset="1" stop-color="#1A0F91"/>
</linearGradient>
<linearGradient id="paint11_linear_897_23793" x1="141.673" y1="50.0641" x2="146.603" y2="50.1021" gradientUnits="userSpaceOnUse">
<stop stop-color="#4042E2"/>
<stop offset="1" stop-color="#4F52FF"/>
</linearGradient>
<linearGradient id="paint12_linear_897_23793" x1="144.931" y1="41.2009" x2="139.749" y2="55.2705" gradientUnits="userSpaceOnUse">
<stop stop-color="#FF928E"/>
<stop offset="1" stop-color="#FEB3B1"/>
</linearGradient>
<linearGradient id="paint13_linear_897_23793" x1="129.707" y1="50.1011" x2="124.776" y2="50.0019" gradientUnits="userSpaceOnUse">
<stop stop-color="#4042E2"/>
<stop offset="1" stop-color="#4F52FF"/>
</linearGradient>
<linearGradient id="paint14_linear_897_23793" x1="134.502" y1="36.9628" x2="129.318" y2="51.0409" gradientUnits="userSpaceOnUse">
<stop stop-color="#FF928E"/>
<stop offset="1" stop-color="#FEB3B1"/>
</linearGradient>
<linearGradient id="paint15_linear_897_23793" x1="137.906" y1="49.5087" x2="137.054" y2="58.2502" gradientUnits="userSpaceOnUse">
<stop stop-color="#4042E2"/>
<stop offset="1" stop-color="#4F52FF"/>
</linearGradient>
<linearGradient id="paint16_linear_897_23793" x1="135.332" y1="34.0582" x2="134.349" y2="42.2079" gradientUnits="userSpaceOnUse">
<stop stop-color="#4042E2"/>
<stop offset="1" stop-color="#4F52FF"/>
</linearGradient>
<linearGradient id="paint17_linear_897_23793" x1="136.133" y1="34.6419" x2="136.013" y2="24.2234" gradientUnits="userSpaceOnUse">
<stop stop-color="#FF928E"/>
<stop offset="1" stop-color="#FEB3B1"/>
</linearGradient>
<linearGradient id="paint18_linear_897_23793" x1="138.49" y1="38.5712" x2="137.084" y2="31.6822" gradientUnits="userSpaceOnUse">
<stop stop-color="#FF928E"/>
<stop offset="1" stop-color="#FEB3B1"/>
</linearGradient>
<linearGradient id="paint19_linear_897_23793" x1="142.663" y1="17.3364" x2="136.337" y2="26.3483" gradientUnits="userSpaceOnUse">
<stop stop-color="#09005D"/>
<stop offset="1" stop-color="#1A0F91"/>
</linearGradient>
<linearGradient id="paint20_linear_897_23793" x1="145.016" y1="48.4754" x2="141.672" y2="42.2861" gradientUnits="userSpaceOnUse">
<stop stop-color="#FF928E"/>
<stop offset="1" stop-color="#FEB3B1"/>
</linearGradient>
<linearGradient id="paint21_linear_897_23793" x1="136.21" y1="37.2183" x2="135.907" y2="51.6919" gradientUnits="userSpaceOnUse">
<stop stop-color="#4042E2"/>
<stop offset="1" stop-color="#4F52FF"/>
</linearGradient>
<linearGradient id="paint22_linear_897_23793" x1="26.8583" y1="62.5175" x2="87.7664" y2="62.5175" gradientUnits="userSpaceOnUse">
<stop stop-color="#4042E2"/>
<stop offset="1" stop-color="#4F52FF"/>
</linearGradient>
<linearGradient id="paint23_linear_897_23793" x1="33.8525" y1="95.7543" x2="86.255" y2="95.7543" gradientUnits="userSpaceOnUse">
<stop stop-color="#4042E2"/>
<stop offset="1" stop-color="#4F52FF"/>
</linearGradient>
<linearGradient id="paint24_linear_897_23793" x1="44.4169" y1="106.972" x2="86.2308" y2="106.972" gradientUnits="userSpaceOnUse">
<stop stop-color="#4042E2"/>
<stop offset="1" stop-color="#4F52FF"/>
</linearGradient>
<linearGradient id="paint25_linear_897_23793" x1="50.0032" y1="58.9272" x2="86.2318" y2="58.9272" gradientUnits="userSpaceOnUse">
<stop stop-color="#4042E2"/>
<stop offset="1" stop-color="#4F52FF"/>
</linearGradient>
<linearGradient id="paint26_linear_897_23793" x1="142.335" y1="56.1141" x2="167.926" y2="56.1141" gradientUnits="userSpaceOnUse">
<stop stop-color="#4042E2"/>
<stop offset="1" stop-color="#4F52FF"/>
</linearGradient>
<linearGradient id="paint27_linear_897_23793" x1="142.481" y1="85.2337" x2="198.747" y2="85.2337" gradientUnits="userSpaceOnUse">
<stop stop-color="#4042E2"/>
<stop offset="1" stop-color="#4F52FF"/>
</linearGradient>
<linearGradient id="paint28_linear_897_23793" x1="142.404" y1="102.113" x2="185.297" y2="102.113" gradientUnits="userSpaceOnUse">
<stop stop-color="#4042E2"/>
<stop offset="1" stop-color="#4F52FF"/>
</linearGradient>
<linearGradient id="paint29_linear_897_23793" x1="41.4248" y1="5.9724" x2="18.3098" y2="44.7531" gradientUnits="userSpaceOnUse">
<stop stop-color="#4042E2"/>
<stop offset="1" stop-color="#4F52FF"/>
</linearGradient>
<linearGradient id="paint30_linear_897_23793" x1="21.1738" y1="27.8669" x2="34.943" y2="27.8669" gradientUnits="userSpaceOnUse">
<stop stop-color="#4042E2"/>
<stop offset="1" stop-color="#4F52FF"/>
</linearGradient>
<linearGradient id="paint31_linear_897_23793" x1="27.2305" y1="27.5886" x2="28.8139" y2="27.5886" gradientUnits="userSpaceOnUse">
<stop stop-color="#DAE3FE"/>
<stop offset="1" stop-color="#E9EFFD"/>
</linearGradient>
<linearGradient id="paint32_linear_897_23793" x1="211.28" y1="21.6312" x2="188.165" y2="60.4119" gradientUnits="userSpaceOnUse">
<stop stop-color="#4042E2"/>
<stop offset="1" stop-color="#4F52FF"/>
</linearGradient>
<linearGradient id="paint33_linear_897_23793" x1="191.048" y1="43.5118" x2="204.901" y2="43.5118" gradientUnits="userSpaceOnUse">
<stop stop-color="#4042E2"/>
<stop offset="1" stop-color="#4F52FF"/>
</linearGradient>
<linearGradient id="paint34_linear_897_23793" x1="194.371" y1="44.0562" x2="201.177" y2="44.0562" gradientUnits="userSpaceOnUse">
<stop stop-color="#DAE3FE"/>
<stop offset="1" stop-color="#E9EFFD"/>
</linearGradient>
<linearGradient id="paint35_linear_897_23793" x1="199.519" y1="46.3993" x2="202.832" y2="46.3993" gradientUnits="userSpaceOnUse">
<stop stop-color="#DAE3FE"/>
<stop offset="1" stop-color="#E9EFFD"/>
</linearGradient>
<linearGradient id="paint36_linear_897_23793" x1="194.238" y1="39.978" x2="197.484" y2="39.978" gradientUnits="userSpaceOnUse">
<stop stop-color="#DAE3FE"/>
<stop offset="1" stop-color="#E9EFFD"/>
</linearGradient>
<linearGradient id="paint37_linear_897_23793" x1="179.152" y1="1.9005" x2="156.038" y2="40.6812" gradientUnits="userSpaceOnUse">
<stop stop-color="#4042E2"/>
<stop offset="1" stop-color="#4F52FF"/>
</linearGradient>
<linearGradient id="paint38_linear_897_23793" x1="161.944" y1="8.01246" x2="154.16" y2="53.1222" gradientUnits="userSpaceOnUse">
<stop stop-color="#4042E2"/>
<stop offset="1" stop-color="#4F52FF"/>
</linearGradient>
<linearGradient id="paint39_linear_897_23793" x1="171.197" y1="9.70035" x2="161.706" y2="35.8021" gradientUnits="userSpaceOnUse">
<stop stop-color="#4042E2"/>
<stop offset="1" stop-color="#4F52FF"/>
</linearGradient>
<linearGradient id="paint40_linear_897_23793" x1="54.748" y1="39.7812" x2="31.634" y2="78.5619" gradientUnits="userSpaceOnUse">
<stop stop-color="#4042E2"/>
<stop offset="1" stop-color="#4F52FF"/>
</linearGradient>
<linearGradient id="paint41_linear_897_23793" x1="47.4317" y1="40.4743" x2="37.629" y2="74.6798" gradientUnits="userSpaceOnUse">
<stop stop-color="#4042E2"/>
<stop offset="1" stop-color="#4F52FF"/>
</linearGradient>
<linearGradient id="paint42_linear_897_23793" x1="47.7119" y1="40.5542" x2="37.9092" y2="74.7597" gradientUnits="userSpaceOnUse">
<stop stop-color="#4042E2"/>
<stop offset="1" stop-color="#4F52FF"/>
</linearGradient>
<linearGradient id="paint43_linear_897_23793" x1="188.286" y1="46.6526" x2="165.171" y2="85.4333" gradientUnits="userSpaceOnUse">
<stop stop-color="#4042E2"/>
<stop offset="1" stop-color="#4F52FF"/>
</linearGradient>
<linearGradient id="paint44_linear_897_23793" x1="183.156" y1="36.3035" x2="171.489" y2="82.4837" gradientUnits="userSpaceOnUse">
<stop stop-color="#4042E2"/>
<stop offset="1" stop-color="#4F52FF"/>
</linearGradient>
<linearGradient id="paint45_linear_897_23793" x1="39.0225" y1="76.5377" x2="15.9075" y2="115.318" gradientUnits="userSpaceOnUse">
<stop stop-color="#4042E2"/>
<stop offset="1" stop-color="#4F52FF"/>
</linearGradient>
<linearGradient id="paint46_linear_897_23793" x1="18.7766" y1="98.6951" x2="32.6302" y2="98.6951" gradientUnits="userSpaceOnUse">
<stop stop-color="#4042E2"/>
<stop offset="1" stop-color="#4F52FF"/>
</linearGradient>
<linearGradient id="paint47_linear_897_23793" x1="23.5937" y1="95.4608" x2="28.1438" y2="95.4608" gradientUnits="userSpaceOnUse">
<stop stop-color="#DAE3FE"/>
<stop offset="1" stop-color="#E9EFFD"/>
</linearGradient>
<linearGradient id="paint48_linear_897_23793" x1="21.4714" y1="100.61" x2="30.2437" y2="100.61" gradientUnits="userSpaceOnUse">
<stop stop-color="#DAE3FE"/>
<stop offset="1" stop-color="#E9EFFD"/>
</linearGradient>
<linearGradient id="paint49_linear_897_23793" x1="216.189" y1="74.6059" x2="193.073" y2="113.387" gradientUnits="userSpaceOnUse">
<stop stop-color="#4042E2"/>
<stop offset="1" stop-color="#4F52FF"/>
</linearGradient>
<linearGradient id="paint50_linear_897_23793" x1="195.953" y1="96.4877" x2="209.806" y2="96.4877" gradientUnits="userSpaceOnUse">
<stop stop-color="#4042E2"/>
<stop offset="1" stop-color="#4F52FF"/>
</linearGradient>
<linearGradient id="paint51_linear_897_23793" x1="198.362" y1="93.2849" x2="208.21" y2="93.2849" gradientUnits="userSpaceOnUse">
<stop stop-color="#DAE3FE"/>
<stop offset="1" stop-color="#E9EFFD"/>
</linearGradient>
<linearGradient id="paint52_linear_897_23793" x1="198.42" y1="95.1863" x2="207.382" y2="95.1863" gradientUnits="userSpaceOnUse">
<stop stop-color="#DAE3FE"/>
<stop offset="1" stop-color="#E9EFFD"/>
</linearGradient>
<linearGradient id="paint53_linear_897_23793" x1="198.363" y1="97.1055" x2="206.436" y2="97.1055" gradientUnits="userSpaceOnUse">
<stop stop-color="#DAE3FE"/>
<stop offset="1" stop-color="#E9EFFD"/>
</linearGradient>
<linearGradient id="paint54_linear_897_23793" x1="198.393" y1="98.7945" x2="205.718" y2="98.7945" gradientUnits="userSpaceOnUse">
<stop stop-color="#DAE3FE"/>
<stop offset="1" stop-color="#E9EFFD"/>
</linearGradient>
<linearGradient id="paint55_linear_897_23793" x1="198.449" y1="100.696" x2="204.809" y2="100.696" gradientUnits="userSpaceOnUse">
<stop stop-color="#DAE3FE"/>
<stop offset="1" stop-color="#E9EFFD"/>
</linearGradient>
<linearGradient id="paint56_linear_897_23793" x1="88.999" y1="13.214" x2="65.884" y2="51.9947" gradientUnits="userSpaceOnUse">
<stop stop-color="#4042E2"/>
<stop offset="1" stop-color="#4F52FF"/>
</linearGradient>
<linearGradient id="paint57_linear_897_23793" x1="68.7617" y1="35.095" x2="82.6153" y2="35.095" gradientUnits="userSpaceOnUse">
<stop stop-color="#4042E2"/>
<stop offset="1" stop-color="#4F52FF"/>
</linearGradient>
<linearGradient id="paint58_linear_897_23793" x1="71.1738" y1="31.892" x2="81.0203" y2="31.892" gradientUnits="userSpaceOnUse">
<stop stop-color="#DAE3FE"/>
<stop offset="1" stop-color="#E9EFFD"/>
</linearGradient>
<linearGradient id="paint59_linear_897_23793" x1="71.2315" y1="33.7934" x2="80.1925" y2="33.7934" gradientUnits="userSpaceOnUse">
<stop stop-color="#DAE3FE"/>
<stop offset="1" stop-color="#E9EFFD"/>
</linearGradient>
<linearGradient id="paint60_linear_897_23793" x1="71.1738" y1="35.7137" x2="79.2461" y2="35.7137" gradientUnits="userSpaceOnUse">
<stop stop-color="#DAE3FE"/>
<stop offset="1" stop-color="#E9EFFD"/>
</linearGradient>
<linearGradient id="paint61_linear_897_23793" x1="71.2031" y1="37.4026" x2="78.5279" y2="37.4026" gradientUnits="userSpaceOnUse">
<stop stop-color="#DAE3FE"/>
<stop offset="1" stop-color="#E9EFFD"/>
</linearGradient>
<linearGradient id="paint62_linear_897_23793" x1="71.2598" y1="39.3029" x2="77.6199" y2="39.3029" gradientUnits="userSpaceOnUse">
<stop stop-color="#DAE3FE"/>
<stop offset="1" stop-color="#E9EFFD"/>
</linearGradient>
<linearGradient id="paint63_linear_897_23793" x1="83.2666" y1="96.4598" x2="60.1516" y2="135.241" gradientUnits="userSpaceOnUse">
<stop stop-color="#4042E2"/>
<stop offset="1" stop-color="#4F52FF"/>
</linearGradient>
<linearGradient id="paint64_linear_897_23793" x1="63.1713" y1="118.476" x2="76.8794" y2="118.476" gradientUnits="userSpaceOnUse">
<stop stop-color="#4042E2"/>
<stop offset="1" stop-color="#4F52FF"/>
</linearGradient>
<linearGradient id="paint65_linear_897_23793" x1="66.5703" y1="118.733" x2="68.3709" y2="118.733" gradientUnits="userSpaceOnUse">
<stop stop-color="#DAE3FE"/>
<stop offset="1" stop-color="#E9EFFD"/>
</linearGradient>
<linearGradient id="paint66_linear_897_23793" x1="68.7695" y1="117.835" x2="73.4714" y2="117.835" gradientUnits="userSpaceOnUse">
<stop stop-color="#DAE3FE"/>
<stop offset="1" stop-color="#E9EFFD"/>
</linearGradient>
<linearGradient id="paint67_linear_897_23793" x1="208.101" y1="103.284" x2="184.986" y2="142.065" gradientUnits="userSpaceOnUse">
<stop stop-color="#4042E2"/>
<stop offset="1" stop-color="#4F52FF"/>
</linearGradient>
<linearGradient id="paint68_linear_897_23793" x1="187.938" y1="125.263" x2="201.646" y2="125.263" gradientUnits="userSpaceOnUse">
<stop stop-color="#4042E2"/>
<stop offset="1" stop-color="#4F52FF"/>
</linearGradient>
<linearGradient id="paint69_linear_897_23793" x1="190.422" y1="125.441" x2="199.586" y2="125.441" gradientUnits="userSpaceOnUse">
<stop stop-color="#DAE3FE"/>
<stop offset="1" stop-color="#E9EFFD"/>
</linearGradient>
<linearGradient id="paint70_linear_897_23793" x1="190.648" y1="123.628" x2="199.184" y2="123.628" gradientUnits="userSpaceOnUse">
<stop stop-color="#DAE3FE"/>
<stop offset="1" stop-color="#E9EFFD"/>
</linearGradient>
<clipPath id="clip0_897_23793">
<rect width="225" height="138" fill="white" transform="translate(0 0.671143)"/>
</clipPath>
</defs>
</svg>
