<svg width="290" height="177" viewBox="0 0 290 177" fill="none" xmlns="http://www.w3.org/2000/svg">
<path d="M3.58789 156.51H5.7793L11.3691 170.42L16.9473 156.51H19.1504L12.2129 173.572H10.502L3.58789 156.51ZM2.87305 156.51H4.80664L5.12305 166.916V173.572H2.87305V156.51ZM17.9199 156.51H19.8535V173.572H17.6035V166.916L17.9199 156.51ZM22.9238 167.373V167.104C22.9238 166.189 23.0566 165.342 23.3223 164.561C23.5879 163.771 23.9707 163.088 24.4707 162.51C24.9707 161.924 25.5762 161.471 26.2871 161.15C26.998 160.822 27.7949 160.658 28.6777 160.658C29.5684 160.658 30.3691 160.822 31.0801 161.15C31.7988 161.471 32.4082 161.924 32.9082 162.51C33.416 163.088 33.8027 163.771 34.0684 164.561C34.334 165.342 34.4668 166.189 34.4668 167.104V167.373C34.4668 168.287 34.334 169.135 34.0684 169.916C33.8027 170.697 33.416 171.381 32.9082 171.967C32.4082 172.545 31.8027 172.998 31.0918 173.326C30.3887 173.646 29.5918 173.807 28.7012 173.807C27.8105 173.807 27.0098 173.646 26.2988 173.326C25.5879 172.998 24.9785 172.545 24.4707 171.967C23.9707 171.381 23.5879 170.697 23.3223 169.916C23.0566 169.135 22.9238 168.287 22.9238 167.373ZM25.0918 167.104V167.373C25.0918 168.006 25.166 168.604 25.3145 169.166C25.4629 169.721 25.6855 170.213 25.9824 170.643C26.2871 171.072 26.666 171.412 27.1191 171.662C27.5723 171.904 28.0996 172.025 28.7012 172.025C29.2949 172.025 29.8145 171.904 30.2598 171.662C30.7129 171.412 31.0879 171.072 31.3848 170.643C31.6816 170.213 31.9043 169.721 32.0527 169.166C32.209 168.604 32.2871 168.006 32.2871 167.373V167.104C32.2871 166.479 32.209 165.889 32.0527 165.334C31.9043 164.771 31.6777 164.275 31.373 163.846C31.0762 163.408 30.7012 163.064 30.248 162.814C29.8027 162.564 29.2793 162.439 28.6777 162.439C28.084 162.439 27.5605 162.564 27.1074 162.814C26.6621 163.064 26.2871 163.408 25.9824 163.846C25.6855 164.275 25.4629 164.771 25.3145 165.334C25.166 165.889 25.0918 166.479 25.0918 167.104ZM45.3184 155.373H47.0996C47.0996 156.139 46.9824 156.748 46.748 157.201C46.5137 157.646 46.1934 157.99 45.7871 158.232C45.3887 158.475 44.9355 158.658 44.4277 158.783C43.9277 158.908 43.4082 159.029 42.8691 159.146C42.1973 159.287 41.5723 159.51 40.9941 159.814C40.4238 160.111 39.9316 160.533 39.5176 161.08C39.1113 161.627 38.8105 162.338 38.6152 163.213C38.4277 164.088 38.377 165.17 38.4629 166.459V167.537H36.6816V166.459C36.6816 165.014 36.8184 163.752 37.0918 162.674C37.373 161.596 37.7676 160.686 38.2754 159.943C38.7832 159.201 39.3848 158.611 40.0801 158.174C40.7832 157.736 41.5566 157.436 42.4004 157.271C43.0098 157.154 43.5332 157.029 43.9707 156.896C44.4082 156.756 44.7402 156.568 44.9668 156.334C45.2012 156.1 45.3184 155.779 45.3184 155.373ZM42.752 161.619C43.5801 161.619 44.3184 161.764 44.9668 162.053C45.6152 162.342 46.166 162.744 46.6191 163.26C47.0723 163.775 47.416 164.385 47.6504 165.088C47.8926 165.783 48.0137 166.541 48.0137 167.361V167.619C48.0137 168.502 47.8848 169.322 47.627 170.08C47.377 170.83 47.0059 171.486 46.5137 172.049C46.0293 172.604 45.4355 173.037 44.7324 173.35C44.0371 173.662 43.2441 173.818 42.3535 173.818C41.4629 173.818 40.666 173.662 39.9629 173.35C39.2676 173.037 38.6738 172.604 38.1816 172.049C37.6895 171.486 37.3145 170.83 37.0566 170.08C36.8066 169.322 36.6816 168.502 36.6816 167.619V167.361C36.6816 167.166 36.7168 166.975 36.7871 166.787C36.8574 166.6 36.9434 166.408 37.0449 166.213C37.1543 166.018 37.252 165.811 37.3379 165.592C37.627 164.889 38.0215 164.236 38.5215 163.635C39.0293 163.033 39.6348 162.549 40.3379 162.182C41.0488 161.807 41.8535 161.619 42.752 161.619ZM42.3301 163.389C41.5332 163.389 40.877 163.572 40.3613 163.939C39.8535 164.307 39.4746 164.795 39.2246 165.404C38.9746 166.006 38.8496 166.658 38.8496 167.361V167.619C38.8496 168.213 38.9199 168.775 39.0605 169.307C39.2012 169.838 39.4121 170.311 39.6934 170.725C39.9824 171.131 40.3457 171.451 40.7832 171.686C41.2285 171.92 41.752 172.037 42.3535 172.037C42.9551 172.037 43.4746 171.92 43.9121 171.686C44.3496 171.451 44.709 171.131 44.9902 170.725C45.2715 170.311 45.4824 169.838 45.623 169.307C45.7637 168.775 45.834 168.213 45.834 167.619V167.361C45.834 166.83 45.7637 166.326 45.623 165.85C45.4824 165.373 45.2676 164.951 44.9785 164.584C44.6973 164.217 44.334 163.928 43.8887 163.717C43.4512 163.498 42.9316 163.389 42.3301 163.389ZM52.6074 170.139L58.4551 160.893H60.6348V173.572H58.4551V164.326L52.6074 173.572H50.4512V160.893H52.6074V170.139ZM72.5879 160.893V162.686H66.459V160.893H72.5879ZM74.498 160.893V173.572H72.3301V160.893H74.498ZM65.9316 160.893H68.1113L67.7832 167.01C67.7285 167.955 67.6387 168.791 67.5137 169.518C67.3965 170.236 67.2324 170.854 67.0215 171.369C66.8184 171.885 66.5605 172.307 66.248 172.635C65.9434 172.955 65.5762 173.193 65.1465 173.35C64.7168 173.498 64.2207 173.572 63.6582 173.572H62.9785V171.662L63.4473 171.627C63.7832 171.604 64.0684 171.525 64.3027 171.393C64.5449 171.26 64.748 171.064 64.9121 170.807C65.0762 170.541 65.209 170.201 65.3105 169.787C65.4199 169.373 65.502 168.881 65.5566 168.311C65.6191 167.74 65.666 167.076 65.6973 166.318L65.9316 160.893ZM79.7715 165.252H83.5801C84.6035 165.252 85.4668 165.432 86.1699 165.791C86.873 166.143 87.4043 166.631 87.7637 167.256C88.1309 167.873 88.3145 168.576 88.3145 169.365C88.3145 169.951 88.2129 170.502 88.0098 171.018C87.8066 171.525 87.502 171.971 87.0957 172.354C86.6973 172.736 86.2012 173.037 85.6074 173.256C85.0215 173.467 84.3457 173.572 83.5801 173.572H78.1895V160.893H80.3574V171.791H83.5801C84.2051 171.791 84.7051 171.678 85.0801 171.451C85.4551 171.225 85.7246 170.932 85.8887 170.572C86.0527 170.213 86.1348 169.838 86.1348 169.447C86.1348 169.064 86.0527 168.689 85.8887 168.322C85.7246 167.955 85.4551 167.65 85.0801 167.408C84.7051 167.158 84.2051 167.033 83.5801 167.033H79.7715V165.252ZM99.623 166.389V168.146H92.9199V166.389H99.623ZM93.377 160.893V173.572H91.209V160.893H93.377ZM101.381 160.893V173.572H99.2012V160.893H101.381ZM106.654 165.252H110.463C111.486 165.252 112.35 165.432 113.053 165.791C113.756 166.143 114.287 166.631 114.646 167.256C115.014 167.873 115.197 168.576 115.197 169.365C115.197 169.951 115.096 170.502 114.893 171.018C114.689 171.525 114.385 171.971 113.979 172.354C113.58 172.736 113.084 173.037 112.49 173.256C111.904 173.467 111.229 173.572 110.463 173.572H105.072V160.893H107.24V171.791H110.463C111.088 171.791 111.588 171.678 111.963 171.451C112.338 171.225 112.607 170.932 112.771 170.572C112.936 170.213 113.018 169.838 113.018 169.447C113.018 169.064 112.936 168.689 112.771 168.322C112.607 167.955 112.338 167.65 111.963 167.408C111.588 167.158 111.088 167.033 110.463 167.033H106.654V165.252ZM119.709 160.893V173.572H117.541V160.893H119.709ZM128.768 173.807C127.885 173.807 127.084 173.658 126.365 173.361C125.654 173.057 125.041 172.631 124.525 172.084C124.018 171.537 123.627 170.889 123.354 170.139C123.08 169.389 122.943 168.568 122.943 167.678V167.186C122.943 166.154 123.096 165.236 123.4 164.432C123.705 163.619 124.119 162.932 124.643 162.369C125.166 161.807 125.76 161.381 126.424 161.092C127.088 160.803 127.775 160.658 128.486 160.658C129.393 160.658 130.174 160.814 130.83 161.127C131.494 161.439 132.037 161.877 132.459 162.439C132.881 162.994 133.193 163.65 133.396 164.408C133.6 165.158 133.701 165.979 133.701 166.869V167.842H124.232V166.072H131.533V165.908C131.502 165.346 131.385 164.799 131.182 164.268C130.986 163.736 130.674 163.299 130.244 162.955C129.814 162.611 129.229 162.439 128.486 162.439C127.994 162.439 127.541 162.545 127.127 162.756C126.713 162.959 126.357 163.264 126.061 163.67C125.764 164.076 125.533 164.572 125.369 165.158C125.205 165.744 125.123 166.42 125.123 167.186V167.678C125.123 168.279 125.205 168.846 125.369 169.377C125.541 169.9 125.787 170.361 126.107 170.76C126.436 171.158 126.83 171.471 127.291 171.697C127.76 171.924 128.291 172.037 128.885 172.037C129.65 172.037 130.299 171.881 130.83 171.568C131.361 171.256 131.826 170.838 132.225 170.314L133.537 171.357C133.264 171.771 132.916 172.166 132.494 172.541C132.072 172.916 131.553 173.221 130.936 173.455C130.326 173.689 129.604 173.807 128.768 173.807ZM147.354 160.893V173.572H145.174V160.893H147.354ZM151.607 160.893V162.65H141.002V160.893H151.607ZM158.064 173.807C157.182 173.807 156.381 173.658 155.662 173.361C154.951 173.057 154.338 172.631 153.822 172.084C153.314 171.537 152.924 170.889 152.65 170.139C152.377 169.389 152.24 168.568 152.24 167.678V167.186C152.24 166.154 152.393 165.236 152.697 164.432C153.002 163.619 153.416 162.932 153.939 162.369C154.463 161.807 155.057 161.381 155.721 161.092C156.385 160.803 157.072 160.658 157.783 160.658C158.689 160.658 159.471 160.814 160.127 161.127C160.791 161.439 161.334 161.877 161.756 162.439C162.178 162.994 162.49 163.65 162.693 164.408C162.896 165.158 162.998 165.979 162.998 166.869V167.842H153.529V166.072H160.83V165.908C160.799 165.346 160.682 164.799 160.479 164.268C160.283 163.736 159.971 163.299 159.541 162.955C159.111 162.611 158.525 162.439 157.783 162.439C157.291 162.439 156.838 162.545 156.424 162.756C156.01 162.959 155.654 163.264 155.357 163.67C155.061 164.076 154.83 164.572 154.666 165.158C154.502 165.744 154.42 166.42 154.42 167.186V167.678C154.42 168.279 154.502 168.846 154.666 169.377C154.838 169.9 155.084 170.361 155.404 170.76C155.732 171.158 156.127 171.471 156.588 171.697C157.057 171.924 157.588 172.037 158.182 172.037C158.947 172.037 159.596 171.881 160.127 171.568C160.658 171.256 161.123 170.838 161.521 170.314L162.834 171.357C162.561 171.771 162.213 172.166 161.791 172.541C161.369 172.916 160.85 173.221 160.232 173.455C159.623 173.689 158.9 173.807 158.064 173.807ZM174.002 160.893V162.686H167.873V160.893H174.002ZM175.912 160.893V173.572H173.744V160.893H175.912ZM167.346 160.893H169.525L169.197 167.01C169.143 167.955 169.053 168.791 168.928 169.518C168.811 170.236 168.646 170.854 168.436 171.369C168.232 171.885 167.975 172.307 167.662 172.635C167.357 172.955 166.99 173.193 166.561 173.35C166.131 173.498 165.635 173.572 165.072 173.572H164.393V171.662L164.861 171.627C165.197 171.604 165.482 171.525 165.717 171.393C165.959 171.26 166.162 171.064 166.326 170.807C166.49 170.541 166.623 170.201 166.725 169.787C166.834 169.373 166.916 168.881 166.971 168.311C167.033 167.74 167.08 167.076 167.111 166.318L167.346 160.893ZM184.666 173.807C183.783 173.807 182.982 173.658 182.264 173.361C181.553 173.057 180.939 172.631 180.424 172.084C179.916 171.537 179.525 170.889 179.252 170.139C178.979 169.389 178.842 168.568 178.842 167.678V167.186C178.842 166.154 178.994 165.236 179.299 164.432C179.604 163.619 180.018 162.932 180.541 162.369C181.064 161.807 181.658 161.381 182.322 161.092C182.986 160.803 183.674 160.658 184.385 160.658C185.291 160.658 186.072 160.814 186.729 161.127C187.393 161.439 187.936 161.877 188.357 162.439C188.779 162.994 189.092 163.65 189.295 164.408C189.498 165.158 189.6 165.979 189.6 166.869V167.842H180.131V166.072H187.432V165.908C187.4 165.346 187.283 164.799 187.08 164.268C186.885 163.736 186.572 163.299 186.143 162.955C185.713 162.611 185.127 162.439 184.385 162.439C183.893 162.439 183.439 162.545 183.025 162.756C182.611 162.959 182.256 163.264 181.959 163.67C181.662 164.076 181.432 164.572 181.268 165.158C181.104 165.744 181.021 166.42 181.021 167.186V167.678C181.021 168.279 181.104 168.846 181.268 169.377C181.439 169.9 181.686 170.361 182.006 170.76C182.334 171.158 182.729 171.471 183.189 171.697C183.658 171.924 184.189 172.037 184.783 172.037C185.549 172.037 186.197 171.881 186.729 171.568C187.26 171.256 187.725 170.838 188.123 170.314L189.436 171.357C189.162 171.771 188.814 172.166 188.393 172.541C187.971 172.916 187.451 173.221 186.834 173.455C186.225 173.689 185.502 173.807 184.666 173.807ZM197.205 172.025C197.721 172.025 198.197 171.92 198.635 171.709C199.072 171.498 199.432 171.209 199.713 170.842C199.994 170.467 200.154 170.041 200.193 169.564H202.256C202.217 170.314 201.963 171.014 201.494 171.662C201.033 172.303 200.428 172.822 199.678 173.221C198.928 173.611 198.104 173.807 197.205 173.807C196.252 173.807 195.42 173.639 194.709 173.303C194.006 172.967 193.42 172.506 192.951 171.92C192.49 171.334 192.143 170.662 191.908 169.904C191.682 169.139 191.568 168.33 191.568 167.479V166.986C191.568 166.135 191.682 165.33 191.908 164.572C192.143 163.807 192.49 163.131 192.951 162.545C193.42 161.959 194.006 161.498 194.709 161.162C195.42 160.826 196.252 160.658 197.205 160.658C198.197 160.658 199.064 160.861 199.807 161.268C200.549 161.666 201.131 162.213 201.553 162.908C201.982 163.596 202.217 164.377 202.256 165.252H200.193C200.154 164.729 200.006 164.256 199.748 163.834C199.498 163.412 199.154 163.076 198.717 162.826C198.287 162.568 197.783 162.439 197.205 162.439C196.541 162.439 195.982 162.572 195.529 162.838C195.084 163.096 194.729 163.447 194.463 163.893C194.205 164.33 194.018 164.818 193.9 165.357C193.791 165.889 193.736 166.432 193.736 166.986V167.479C193.736 168.033 193.791 168.58 193.9 169.119C194.01 169.658 194.193 170.146 194.451 170.584C194.717 171.021 195.072 171.373 195.518 171.639C195.971 171.896 196.533 172.025 197.205 172.025ZM207.037 170.139L212.885 160.893H215.064V173.572H212.885V164.326L207.037 173.572H204.881V160.893H207.037V170.139ZM223.619 172.025C224.135 172.025 224.611 171.92 225.049 171.709C225.486 171.498 225.846 171.209 226.127 170.842C226.408 170.467 226.568 170.041 226.607 169.564H228.67C228.631 170.314 228.377 171.014 227.908 171.662C227.447 172.303 226.842 172.822 226.092 173.221C225.342 173.611 224.518 173.807 223.619 173.807C222.666 173.807 221.834 173.639 221.123 173.303C220.42 172.967 219.834 172.506 219.365 171.92C218.904 171.334 218.557 170.662 218.322 169.904C218.096 169.139 217.982 168.33 217.982 167.479V166.986C217.982 166.135 218.096 165.33 218.322 164.572C218.557 163.807 218.904 163.131 219.365 162.545C219.834 161.959 220.42 161.498 221.123 161.162C221.834 160.826 222.666 160.658 223.619 160.658C224.611 160.658 225.479 160.861 226.221 161.268C226.963 161.666 227.545 162.213 227.967 162.908C228.396 163.596 228.631 164.377 228.67 165.252H226.607C226.568 164.729 226.42 164.256 226.162 163.834C225.912 163.412 225.568 163.076 225.131 162.826C224.701 162.568 224.197 162.439 223.619 162.439C222.955 162.439 222.396 162.572 221.943 162.838C221.498 163.096 221.143 163.447 220.877 163.893C220.619 164.33 220.432 164.818 220.314 165.357C220.205 165.889 220.15 166.432 220.15 166.986V167.479C220.15 168.033 220.205 168.58 220.314 169.119C220.424 169.658 220.607 170.146 220.865 170.584C221.131 171.021 221.486 171.373 221.932 171.639C222.385 171.896 222.947 172.025 223.619 172.025ZM236.275 160.893V173.572H234.096V160.893H236.275ZM240.529 160.893V162.65H229.924V160.893H240.529ZM246.986 173.807C246.104 173.807 245.303 173.658 244.584 173.361C243.873 173.057 243.26 172.631 242.744 172.084C242.236 171.537 241.846 170.889 241.572 170.139C241.299 169.389 241.162 168.568 241.162 167.678V167.186C241.162 166.154 241.314 165.236 241.619 164.432C241.924 163.619 242.338 162.932 242.861 162.369C243.385 161.807 243.979 161.381 244.643 161.092C245.307 160.803 245.994 160.658 246.705 160.658C247.611 160.658 248.393 160.814 249.049 161.127C249.713 161.439 250.256 161.877 250.678 162.439C251.1 162.994 251.412 163.65 251.615 164.408C251.818 165.158 251.92 165.979 251.92 166.869V167.842H242.451V166.072H249.752V165.908C249.721 165.346 249.604 164.799 249.4 164.268C249.205 163.736 248.893 163.299 248.463 162.955C248.033 162.611 247.447 162.439 246.705 162.439C246.213 162.439 245.76 162.545 245.346 162.756C244.932 162.959 244.576 163.264 244.279 163.67C243.982 164.076 243.752 164.572 243.588 165.158C243.424 165.744 243.342 166.42 243.342 167.186V167.678C243.342 168.279 243.424 168.846 243.588 169.377C243.76 169.9 244.006 170.361 244.326 170.76C244.654 171.158 245.049 171.471 245.51 171.697C245.979 171.924 246.51 172.037 247.104 172.037C247.869 172.037 248.518 171.881 249.049 171.568C249.58 171.256 250.045 170.838 250.443 170.314L251.756 171.357C251.482 171.771 251.135 172.166 250.713 172.541C250.291 172.916 249.771 173.221 249.154 173.455C248.545 173.689 247.822 173.807 246.986 173.807ZM261.74 170.689L266.053 160.893H268.139L262.49 173.572H260.99L255.365 160.893H257.451L261.74 170.689ZM256.818 160.893V173.572H254.65V160.893H256.818ZM266.592 173.572V160.893H268.771V173.572H266.592ZM274.045 165.252H277.854C278.877 165.252 279.74 165.432 280.443 165.791C281.146 166.143 281.678 166.631 282.037 167.256C282.404 167.873 282.588 168.576 282.588 169.365C282.588 169.951 282.486 170.502 282.283 171.018C282.08 171.525 281.775 171.971 281.369 172.354C280.971 172.736 280.475 173.037 279.881 173.256C279.295 173.467 278.619 173.572 277.854 173.572H272.463V160.893H274.631V171.791H277.854C278.479 171.791 278.979 171.678 279.354 171.451C279.729 171.225 279.998 170.932 280.162 170.572C280.326 170.213 280.408 169.838 280.408 169.447C280.408 169.064 280.326 168.689 280.162 168.322C279.998 167.955 279.729 167.65 279.354 167.408C278.979 167.158 278.479 167.033 277.854 167.033H274.045V165.252ZM287.1 160.893V173.572H284.932V160.893H287.1Z" fill="black"/>
<g clip-path="url(#clip0_897_23796)">
<g opacity="0.41">
<path d="M228.102 92.9781C228.267 90.1377 228.194 87.2818 227.875 84.4568C226.378 71.1796 219.593 58.6579 209.611 49.8244C206.049 46.6718 201.996 43.8506 199.678 39.6883C195.775 32.6816 196.071 24.6305 191.227 17.7125C186.376 10.7868 179.311 5.3873 171.34 2.61239C147.572 -5.65838 114.301 7.80764 117.295 36.5626C117.307 36.6667 117.318 36.817 117.33 37.0059C117.729 42.9796 113.058 48.0014 107.117 48.144C85.1875 48.6682 66.313 65.6452 62.2755 87.1508C59.6773 100.983 63.9297 116.141 74.004 125.922C81.5224 133.226 91.6121 137.238 101.709 139.994C121.95 145.52 143.25 146.68 164.121 144.564C183.655 142.587 204.261 136.945 216.895 121.853C223.634 113.801 227.495 103.477 228.102 92.9704V92.9781Z" fill="#E1E2FE"/>
</g>
<g opacity="0.31">
<path d="M106.322 9.26059C107.615 7.79781 107.483 5.55917 106.026 4.26045C104.569 2.96174 102.34 3.09474 101.047 4.55752C99.7535 6.0203 99.8859 8.25893 101.343 9.55765C102.799 10.8564 105.028 10.7234 106.322 9.26059Z" fill="#E1E2FE"/>
</g>
<path opacity="0.47" d="M218.488 113.59C221.619 106.833 222.867 99.3373 221.251 91.4211C219.466 82.6801 214.047 75.9664 215.928 66.6434C217.071 60.9626 217.359 55.7018 217.939 50.0826C219.132 38.5436 211.672 28.3767 202.415 22.8847C194.896 18.4255 186.085 16.7529 177.442 16.8723C169.662 16.9803 161.898 18.4217 154.361 20.3603C147.096 22.2295 139.996 24.6922 132.381 23.9137C126.049 23.2662 120.346 20.5183 114.447 18.4679C100.366 13.5733 83.3145 12.8834 70.4385 20.3333C62.1756 25.1161 56.392 32.8782 53.8283 41.2299C51.7789 47.9012 51.5179 54.1409 53.053 60.951C54.473 67.2562 56.6798 73.4343 56.6184 79.9746C56.5531 86.6498 53.1336 92.6081 54.4807 99.4722C55.4325 104.328 58.3339 108.591 61.6882 112.217C70.9144 122.199 83.7942 128.227 97.0502 131.095C114.697 134.914 132.689 131.268 150.181 135.068C161.653 137.562 173.013 142.372 184.956 140.491C192.417 139.315 199.364 135.658 205.097 130.721C210.724 125.876 215.471 120.068 218.48 113.578L218.488 113.59Z" fill="#E1E2FE"/>
<path opacity="0.81" d="M202.385 102.956C202.872 97.4488 201.022 91.7718 202.569 86.3183C204.419 79.7857 209.78 74.895 211.964 68.4818C215.191 59.0086 215.038 48.3907 211.116 39.1564C209.227 34.705 206.468 30.5735 202.699 27.7138C196.889 23.3048 189.278 22.3374 182.117 22.8962C171.463 23.7287 160.218 28.3613 149.507 27.0971C143.596 26.3995 141.789 19.9749 138.738 15.7354C135.283 10.941 130.582 7.17559 125.382 4.67046C115.802 0.0533219 104.308 -0.382185 94.5216 3.8033C84.0711 8.27399 74.9639 19.1848 75.5626 31.5293C75.8389 37.241 78.1148 42.9103 77.0632 48.5217C75.7391 55.5631 70.4582 61.9801 66.6281 67.7149C62.3987 74.0509 59.8389 81.6048 59.34 89.3129C59.3361 89.4016 59.3285 89.4864 59.3246 89.575C58.5379 102.871 66.8929 115 79.4925 119.162L106.304 128.019C133.51 137.003 160.69 136.706 185.705 123.521C191.117 120.669 199.932 112.167 201.747 106.305C202.089 105.199 202.285 104.082 202.385 102.96V102.956Z" fill="#E1E2FE"/>
<g opacity="0.73">
<path d="M93.4157 55.3434C93.2277 55.3434 93.0358 55.3164 92.8477 55.2663L89.6239 54.3799C88.4879 54.0677 87.8201 52.8884 88.131 51.7476L89.2094 47.7933C87.2368 46.772 85.4944 45.4154 84.0168 43.7504L80.4706 45.7815C79.9755 46.0667 79.3999 46.1361 78.8511 45.9858C78.3022 45.8355 77.8417 45.477 77.5615 44.9799L75.9074 42.0624C75.3241 41.0372 75.681 39.7268 76.7019 39.141L80.248 37.1099C79.5726 34.9863 79.2962 32.7895 79.4267 30.5658L75.4891 29.4828C74.3531 29.1706 73.6853 27.9913 73.9962 26.8505L74.8789 23.6131C75.1897 22.4723 76.3641 21.8017 77.5001 22.1138L81.4378 23.1968C82.4548 21.2158 83.8057 19.4661 85.4637 17.9823L83.4411 14.4212C83.1571 13.924 83.088 13.3459 83.2377 12.7948C83.3874 12.2436 83.7443 11.7811 84.2394 11.4998L87.1408 9.83871C88.1617 9.2529 89.4666 9.61132 90.0499 10.6365L92.0725 14.1976C94.1871 13.5193 96.3747 13.2418 98.5891 13.3729L99.6676 9.41862C99.9784 8.27782 101.153 7.60722 102.289 7.9194L105.513 8.80583C106.649 9.11801 107.316 10.2973 107.006 11.4381L105.927 15.3924C107.9 16.4137 109.642 17.7703 111.12 19.4353L114.666 17.4042C115.161 17.119 115.737 17.0496 116.285 17.1999C116.834 17.3502 117.295 17.7087 117.575 18.2058L119.229 21.1195C119.513 21.6167 119.582 22.1948 119.433 22.7459C119.283 23.297 118.926 23.7595 118.431 24.0409L114.885 26.0719C115.56 28.1955 115.836 30.3923 115.706 32.6161L119.644 33.6991C120.192 33.8494 120.653 34.2078 120.933 34.705C121.217 35.2022 121.286 35.7803 121.137 36.3314L120.254 39.5688C119.943 40.7096 118.769 41.3802 117.633 41.068L113.695 39.985C112.678 41.966 111.327 43.7157 109.669 45.1996L111.692 48.7607C111.976 49.2579 112.045 49.836 111.895 50.3871C111.745 50.9382 111.388 51.4007 110.893 51.682L107.992 53.3431C107.497 53.6283 106.921 53.6977 106.372 53.5474C105.823 53.3971 105.363 53.0387 105.083 52.5415L103.06 48.9804C100.946 49.6587 98.758 49.9362 96.5436 49.8051L95.4651 53.7594C95.3154 54.3105 94.9585 54.773 94.4634 55.0543C94.1372 55.2393 93.7765 55.3357 93.4119 55.3357L93.4157 55.3434ZM84.2739 42.2743L84.5848 42.6405C86.1238 44.4711 87.9928 45.9241 90.142 46.9686L90.5719 47.1767L89.244 52.052C89.1749 52.3064 89.2094 52.5723 89.3399 52.7997C89.4704 53.0271 89.6815 53.1928 89.9348 53.2622L93.1586 54.1486C93.4119 54.218 93.6767 54.1833 93.9031 54.0523C94.1296 53.9212 94.2946 53.7093 94.3637 53.4549L95.6916 48.5795L96.1675 48.6181C98.5469 48.8185 100.892 48.5217 103.145 47.7355L103.598 47.5775L106.092 51.9672C106.223 52.1946 106.434 52.3604 106.687 52.4297C106.94 52.4991 107.205 52.4644 107.432 52.3334L110.333 50.6723C110.559 50.5412 110.724 50.3293 110.794 50.0749C110.863 49.8205 110.828 49.5546 110.698 49.3272L108.203 44.9375L108.568 44.6253C110.387 43.0798 111.837 41.2029 112.877 39.0446L113.085 38.613L117.94 39.9465C118.462 40.0891 119.003 39.7808 119.145 39.2566L120.027 36.0192C120.096 35.7649 120.062 35.4989 119.931 35.2715C119.801 35.0441 119.59 34.8784 119.337 34.809L114.482 33.4756L114.52 32.9977C114.72 30.612 114.424 28.2533 113.641 25.991L113.484 25.5362L117.855 23.0311C118.082 22.9001 118.247 22.6881 118.316 22.4337C118.385 22.1794 118.35 21.9134 118.22 21.686L116.566 18.7724C116.435 18.545 116.224 18.3793 115.971 18.3099C115.717 18.2405 115.453 18.2752 115.226 18.4062L110.855 20.9114L110.544 20.5452C109.005 18.7146 107.136 17.2616 104.987 16.2172L104.557 16.009L105.885 11.1337C105.954 10.8793 105.919 10.6134 105.789 10.386C105.658 10.1586 105.447 9.99287 105.194 9.9235L101.97 9.03707C101.448 8.89447 100.907 9.2028 100.765 9.72694L99.4373 14.6023L98.9614 14.5638C96.5819 14.3634 94.237 14.6601 91.9842 15.4463L91.5313 15.6044L89.0367 11.2146C88.9062 10.9872 88.6951 10.8215 88.4418 10.7521C88.1886 10.6827 87.9237 10.7174 87.6973 10.8485L84.7959 12.5096C84.5695 12.6406 84.4044 12.8526 84.3353 13.1069C84.2663 13.3613 84.3008 13.6272 84.4313 13.8546L86.9259 18.2444L86.5613 18.5566C84.7383 20.102 83.2914 21.9789 82.2514 24.1372L82.0441 24.5689L77.1893 23.2354C76.936 23.166 76.6711 23.2007 76.4447 23.3317C76.2183 23.4628 76.0533 23.6747 75.9842 23.9291L75.1015 27.1665C75.0324 27.4209 75.0669 27.6868 75.1974 27.9142C75.3279 28.1416 75.539 28.3073 75.7923 28.3767L80.6472 29.7102L80.6088 30.1881C80.4092 32.5737 80.7047 34.9324 81.4877 37.1947L81.645 37.6495L77.2737 40.1546C77.0473 40.2856 76.8822 40.4976 76.8132 40.752C76.7441 41.0064 76.7786 41.2723 76.9091 41.4997L78.5632 44.4172C78.6937 44.6446 78.9048 44.8103 79.1581 44.8797C79.4114 44.949 79.6762 44.9143 79.9026 44.7833L84.2739 42.2782V42.2743ZM97.5836 41.253C96.7316 41.253 95.8758 41.1374 95.0314 40.9061C92.556 40.224 90.4874 38.6168 89.2171 36.3776C87.9429 34.1384 87.6167 31.5331 88.296 29.0473C88.9753 26.5575 90.5757 24.4841 92.8055 23.2084C95.0353 21.9288 97.6297 21.6012 100.105 22.2834C102.581 22.9656 104.649 24.5727 105.919 26.8119C107.194 29.0511 107.52 31.6564 106.841 34.1423C106.161 36.6282 104.561 38.7055 102.331 39.9812C100.861 40.8252 99.2301 41.253 97.5836 41.253ZM97.5568 23.0889C96.106 23.0889 94.6707 23.4666 93.3773 24.2104C91.4123 25.3358 90.0039 27.1626 89.4052 29.3517C88.8103 31.5408 89.0981 33.834 90.2188 35.8072C91.3394 37.7805 93.1586 39.195 95.3385 39.7962C97.5184 40.3936 99.8019 40.1045 101.767 38.9791C103.732 37.8537 105.14 36.0269 105.739 33.8378C106.338 31.6487 106.046 29.3556 104.929 27.3823C103.809 25.409 101.989 23.9946 99.8096 23.3934C99.065 23.1891 98.3128 23.0889 97.5606 23.0889H97.5568Z" fill="white"/>
</g>
<g opacity="0.69">
<path d="M186.74 44.9143L165.026 45.3113C164.4 45.3229 163.882 44.9259 163.87 44.4249L163.609 29.9452C163.602 29.4442 164.105 29.028 164.73 29.0164L186.445 28.6194C187.074 28.6079 187.588 29.0049 187.6 29.5059L187.861 43.9855C187.869 44.4865 187.366 44.9028 186.74 44.9143ZM164.738 29.2862C164.258 29.2939 163.874 29.5868 163.882 29.9414L164.143 44.421C164.151 44.7717 164.546 45.0531 165.022 45.0415L186.736 44.6446C187.216 44.6368 187.6 44.3439 187.592 43.9894L187.331 29.5097C187.324 29.159 186.928 28.8777 186.452 28.8854L164.738 29.2823V29.2862Z" fill="white"/>
<path d="M187.361 31.5554L163.785 31.9852L163.79 32.255L187.366 31.8252L187.361 31.5554Z" fill="white"/>
<path d="M165.483 31.2518C165.203 31.2556 164.973 31.0321 164.965 30.7508C164.961 30.4694 165.184 30.2382 165.464 30.2305C165.744 30.2266 165.974 30.4501 165.982 30.7315C165.986 31.0128 165.763 31.2441 165.483 31.2518ZM165.468 30.5041C165.337 30.5041 165.23 30.6159 165.234 30.7469C165.234 30.8779 165.345 30.9858 165.475 30.982C165.606 30.982 165.713 30.8702 165.709 30.7392C165.709 30.6082 165.598 30.5002 165.468 30.5041Z" fill="white"/>
<path d="M166.883 31.2248C166.603 31.2287 166.373 31.0051 166.365 30.7238C166.361 30.4424 166.584 30.2112 166.864 30.2035C167.144 30.1996 167.375 30.4232 167.382 30.7045C167.386 30.9859 167.164 31.2171 166.883 31.2248ZM166.868 30.4771C166.738 30.4771 166.63 30.5889 166.634 30.7199C166.634 30.851 166.745 30.9589 166.876 30.955C167.006 30.955 167.114 30.8433 167.11 30.7122C167.11 30.5812 166.999 30.4733 166.868 30.4771Z" fill="white"/>
<path d="M168.256 31.2017C167.976 31.2055 167.746 30.982 167.738 30.7006C167.734 30.4193 167.957 30.1881 168.237 30.1803C168.517 30.1765 168.748 30.4 168.755 30.6814C168.759 30.9627 168.537 31.194 168.256 31.2017ZM168.241 30.454C168.111 30.454 168.003 30.5657 168.007 30.6968C168.007 30.8278 168.118 30.9357 168.249 30.9319C168.379 30.9319 168.487 30.8201 168.483 30.6891C168.483 30.558 168.372 30.4501 168.241 30.454Z" fill="white"/>
</g>
<g opacity="0.69">
<path d="M113.867 131.449L92.1526 131.846C91.527 131.858 91.0089 131.461 90.9974 130.96L90.7364 116.48C90.7287 115.979 91.2315 115.563 91.8571 115.551L113.572 115.154C114.201 115.143 114.715 115.54 114.727 116.041L114.988 130.52C114.995 131.021 114.493 131.438 113.867 131.449ZM91.8647 115.821C91.385 115.829 91.0012 116.122 91.0089 116.476L91.2699 130.956C91.2776 131.307 91.6729 131.588 92.1487 131.58L113.863 131.183C114.343 131.175 114.727 130.883 114.719 130.528L114.458 116.048C114.451 115.698 114.055 115.416 113.579 115.424L91.8647 115.821Z" fill="white"/>
<path d="M114.482 118.09L90.9062 118.52L90.9111 118.79L114.487 118.36L114.482 118.09Z" fill="white"/>
<path d="M92.61 117.79C92.3298 117.794 92.0995 117.571 92.0918 117.289C92.088 117.008 92.3106 116.777 92.5908 116.769C92.8709 116.765 93.1012 116.989 93.1089 117.27C93.1127 117.551 92.8901 117.783 92.61 117.79ZM92.5946 117.043C92.4641 117.043 92.3567 117.154 92.3605 117.286C92.3605 117.417 92.4718 117.524 92.6023 117.521C92.7328 117.517 92.8402 117.409 92.8364 117.278C92.8364 117.147 92.7251 117.039 92.5946 117.043Z" fill="white"/>
<path d="M94.0064 117.763C93.7263 117.767 93.496 117.544 93.4883 117.262C93.4845 116.981 93.7071 116.75 93.9873 116.742C94.2674 116.738 94.4977 116.962 94.5054 117.243C94.5092 117.524 94.2866 117.756 94.0064 117.763ZM93.9911 117.016C93.8606 117.016 93.7531 117.128 93.757 117.259C93.7608 117.39 93.8683 117.498 93.9988 117.494C94.1293 117.494 94.2367 117.382 94.2329 117.251C94.229 117.12 94.1216 117.012 93.9911 117.016Z" fill="white"/>
<path d="M95.3795 117.74C95.0993 117.744 94.8691 117.521 94.8614 117.239C94.8575 116.958 95.0801 116.727 95.3603 116.719C95.6405 116.715 95.8707 116.939 95.8784 117.22C95.8822 117.501 95.6597 117.733 95.3795 117.74ZM95.3641 116.993C95.2336 116.993 95.1262 117.104 95.13 117.235C95.13 117.366 95.2413 117.474 95.3718 117.471C95.5023 117.471 95.6098 117.359 95.6059 117.228C95.6059 117.097 95.4946 116.989 95.3641 116.993Z" fill="white"/>
</g>
<g opacity="0.55">
<path d="M204.087 90.4884L201.842 88.6809C202.587 87.2819 203.013 85.7711 203.128 84.2487L205.991 83.9327C206.532 83.871 206.92 83.3854 206.862 82.842L206.632 80.7338C206.574 80.1904 206.087 79.8012 205.546 79.859L202.683 80.175C202.241 78.7143 201.501 77.3307 200.468 76.1283L202.268 73.8736C202.61 73.4458 202.541 72.8253 202.115 72.4823L200.464 71.1565C200.038 70.8135 199.42 70.8829 199.079 71.3107L197.279 73.5653C195.886 72.8176 194.381 72.3898 192.865 72.2742L192.551 69.403C192.493 68.8595 192.006 68.4703 191.465 68.5281L189.365 68.7593C188.824 68.821 188.436 69.3066 188.494 69.85L188.809 72.7251C187.354 73.1684 185.976 73.9122 184.779 74.9489L182.534 73.1414C182.108 72.7984 181.49 72.8677 181.148 73.2955L179.828 74.9528C179.487 75.3806 179.556 76.0011 179.982 76.3441L182.227 78.1516C181.482 79.5506 181.056 81.0614 180.941 82.5838L178.082 82.8998C177.541 82.9615 177.153 83.4471 177.211 83.9905L177.441 86.0987C177.502 86.6421 177.986 87.0313 178.527 86.9735L181.39 86.6575C181.832 88.1182 182.572 89.5018 183.605 90.7042L181.805 92.9589C181.463 93.3867 181.532 94.0072 181.958 94.3502L183.608 95.676C184.034 96.019 184.652 95.9496 184.994 95.5218L186.794 93.2672C188.187 94.0149 189.691 94.4427 191.207 94.5583L191.522 97.4296C191.583 97.973 192.067 98.3622 192.608 98.3044L194.708 98.0732C195.249 98.0115 195.636 97.5259 195.579 96.9825L195.264 94.1112C196.719 93.668 198.096 92.9242 199.294 91.8874L201.539 93.695C201.965 94.038 202.583 93.9686 202.924 93.5408L204.245 91.8836C204.586 91.4558 204.517 90.8353 204.091 90.4923L204.087 90.4884ZM188.459 87.8908C185.996 85.9098 185.6 82.2986 187.577 79.8243C189.549 77.35 193.146 76.953 195.609 78.9379C198.073 80.9188 198.469 84.5301 196.496 87.0044C194.523 89.4787 190.927 89.8756 188.463 87.8946L188.459 87.8908Z" fill="white"/>
<path d="M192.497 98.4971C192.232 98.4971 191.975 98.4085 191.764 98.2389C191.519 98.0423 191.365 97.761 191.331 97.4449L191.031 94.7317C189.561 94.6007 188.153 94.1921 186.844 93.5061L185.144 95.6374C184.948 95.8841 184.668 96.0382 184.353 96.0729C184.043 96.1076 183.735 96.019 183.49 95.8224L181.843 94.4966C181.598 94.3001 181.444 94.0187 181.41 93.7027C181.375 93.3905 181.463 93.0822 181.659 92.8355L183.359 90.7042C182.411 89.5673 181.705 88.2762 181.26 86.8656L178.558 87.1662C178.247 87.2009 177.94 87.1123 177.695 86.9119C177.449 86.7153 177.296 86.434 177.261 86.1179L177.031 84.0098C176.996 83.6976 177.084 83.3893 177.284 83.1426C177.48 82.8959 177.76 82.7418 178.075 82.7071L180.776 82.4065C180.907 80.9304 181.314 79.516 181.997 78.1979L179.875 76.4905C179.629 76.294 179.475 76.0126 179.441 75.7004C179.406 75.3883 179.495 75.0799 179.694 74.8333L181.014 73.1761C181.21 72.9294 181.49 72.7752 181.805 72.7405C182.116 72.7059 182.423 72.7945 182.669 72.9949L184.791 74.7022C185.923 73.7503 187.209 73.0412 188.613 72.5902L188.314 69.877C188.241 69.2295 188.709 68.6437 189.354 68.5743L191.453 68.3431C192.098 68.2737 192.682 68.74 192.751 69.3875L193.05 72.1046C194.52 72.2357 195.928 72.6442 197.237 73.3302L198.937 71.1989C199.344 70.6902 200.085 70.6093 200.591 71.0178L202.238 72.3436C202.483 72.5401 202.637 72.8215 202.671 73.1375C202.706 73.4497 202.618 73.758 202.418 74.0047L200.718 76.136C201.666 77.2729 202.372 78.564 202.821 79.9746L205.523 79.674C205.834 79.6393 206.141 79.7279 206.386 79.9283C206.632 80.1249 206.786 80.4062 206.82 80.7223L207.05 82.8304C207.085 83.1426 206.997 83.4509 206.797 83.6976C206.601 83.9442 206.321 84.0984 206.007 84.1331L203.305 84.4337C203.174 85.9098 202.767 87.3242 202.084 88.6423L204.207 90.3497C204.452 90.5462 204.606 90.8276 204.64 91.1436C204.675 91.4558 204.587 91.7641 204.387 92.0108L203.067 93.6641C202.66 94.1729 201.919 94.2538 201.413 93.8491L199.29 92.1418C198.158 93.0937 196.876 93.8029 195.468 94.2538L195.767 96.9671C195.802 97.2792 195.713 97.5876 195.514 97.8342C195.318 98.0809 195.038 98.235 194.723 98.2697L192.624 98.501C192.582 98.5048 192.536 98.5087 192.493 98.5087L192.497 98.4971ZM186.744 93.0167L186.886 93.0937C188.237 93.8222 189.696 94.2461 191.223 94.3617L191.38 94.3733L191.714 97.4064C191.737 97.6184 191.841 97.8072 192.006 97.9383C192.171 98.0732 192.378 98.1348 192.589 98.1078L194.689 97.8766C194.9 97.8535 195.088 97.7494 195.218 97.5837C195.353 97.418 195.41 97.2099 195.387 96.9979L195.053 93.9647L195.207 93.9185C196.673 93.4714 198.005 92.7392 199.164 91.7333L199.283 91.6292L201.654 93.5369C201.996 93.8106 202.495 93.7566 202.767 93.4136L204.088 91.7602C204.222 91.5945 204.28 91.3864 204.256 91.1744C204.233 90.9625 204.13 90.7736 203.965 90.6426L201.593 88.7348L201.67 88.5922C202.395 87.2356 202.817 85.7711 202.932 84.2372L202.944 84.0791L205.964 83.7438C206.175 83.7207 206.363 83.6166 206.494 83.4509C206.628 83.2852 206.686 83.0771 206.663 82.8651L206.433 80.757C206.41 80.545 206.306 80.3561 206.141 80.2251C205.976 80.0941 205.769 80.0285 205.558 80.0555L202.537 80.3908L202.491 80.2367C202.05 78.7644 201.317 77.4271 200.315 76.2631L200.211 76.1437L202.111 73.7619C202.242 73.5961 202.303 73.388 202.28 73.1761C202.257 72.9641 202.153 72.7752 201.988 72.6442L200.342 71.3184C200 71.0448 199.501 71.0987 199.229 71.4417L197.329 73.8235L197.187 73.7464C195.836 73.018 194.378 72.5941 192.85 72.4785L192.693 72.4669L192.359 69.4338C192.313 68.9983 191.918 68.6822 191.484 68.7285L189.385 68.9597C189.174 68.9829 188.986 69.0869 188.855 69.2526C188.721 69.4184 188.663 69.6265 188.686 69.8384L189.02 72.8716L188.867 72.9178C187.401 73.361 186.069 74.0972 184.91 75.1031L184.791 75.2071L182.419 73.2994C182.254 73.1645 182.047 73.1067 181.836 73.1298C181.625 73.1529 181.437 73.257 181.306 73.4227L179.986 75.0799C179.855 75.2457 179.794 75.4538 179.817 75.6658C179.84 75.8777 179.944 76.0666 180.109 76.1976L182.481 78.1054L182.404 78.248C181.678 79.6046 181.256 81.0691 181.141 82.603L181.13 82.7611L178.109 83.0964C177.898 83.1195 177.71 83.2235 177.58 83.3893C177.445 83.555 177.388 83.7631 177.411 83.9751L177.641 86.0832C177.664 86.2952 177.768 86.4841 177.933 86.6151C178.098 86.7461 178.305 86.8078 178.516 86.7847L181.536 86.4494L181.582 86.6035C182.024 88.0758 182.757 89.4131 183.759 90.577L183.862 90.6965L181.962 93.0783C181.828 93.244 181.771 93.4522 181.794 93.6641C181.817 93.8761 181.92 94.065 182.085 94.196L183.732 95.5218C183.897 95.6528 184.104 95.7145 184.315 95.6914C184.526 95.6682 184.714 95.5642 184.845 95.3985L186.744 93.0167ZM192.033 89.3438C190.736 89.3438 189.431 88.9198 188.345 88.0449C187.113 87.0545 186.341 85.64 186.169 84.0676C185.996 82.4913 186.445 80.9458 187.431 79.7087C188.418 78.4715 189.826 77.6968 191.392 77.5234C192.962 77.35 194.501 77.8009 195.733 78.7914C198.273 80.8379 198.684 84.5763 196.646 87.1277C195.479 88.5884 193.764 89.3476 192.033 89.3476V89.3438ZM192.048 77.8703C191.845 77.8703 191.638 77.8818 191.434 77.905C189.968 78.0668 188.652 78.7914 187.731 79.9476C185.827 82.3333 186.211 85.8289 188.587 87.7443C190.962 89.6559 194.443 89.2705 196.351 86.8849C198.254 84.4992 197.87 81.0036 195.495 79.0882C194.504 78.2904 193.303 77.8703 192.052 77.8703H192.048Z" fill="white"/>
</g>
<g opacity="0.38">
<path d="M218.411 107.62H196.681C196.305 107.62 196.002 107.253 196.002 106.806V98.7746C196.002 98.3236 196.309 97.9614 196.681 97.9614H218.411C218.787 97.9614 219.09 98.3275 219.09 98.7746V106.806C219.09 107.253 218.783 107.62 218.411 107.62ZM196.681 98.3468C196.52 98.3468 196.386 98.5433 196.386 98.7746V106.806C196.386 107.038 196.52 107.234 196.681 107.234H218.411C218.572 107.234 218.707 107.038 218.707 106.806V98.7746C218.707 98.5433 218.572 98.3468 218.411 98.3468H196.681Z" fill="white"/>
<path d="M215.183 101.064H200.473V101.449H215.183V101.064Z" fill="white"/>
<path d="M215.184 101.642H200.474C200.263 101.642 200.09 101.469 200.09 101.257C200.09 101.045 200.263 100.871 200.474 100.871H215.184C215.395 100.871 215.568 101.045 215.568 101.257C215.568 101.469 215.395 101.642 215.184 101.642Z" fill="white"/>
<path d="M207.047 102.817H200.473V103.203H207.047V102.817Z" fill="white"/>
<path d="M207.048 103.396H200.474C200.263 103.396 200.09 103.222 200.09 103.01C200.09 102.798 200.263 102.625 200.474 102.625H207.048C207.259 102.625 207.432 102.798 207.432 103.01C207.432 103.222 207.259 103.396 207.048 103.396Z" fill="white"/>
<path d="M215.182 102.817H208.607V103.203H215.182V102.817Z" fill="white"/>
<path d="M215.183 103.396H208.608C208.397 103.396 208.225 103.222 208.225 103.01C208.225 102.798 208.397 102.625 208.608 102.625H215.183C215.394 102.625 215.566 102.798 215.566 103.01C215.566 103.222 215.394 103.396 215.183 103.396Z" fill="white"/>
<path d="M215.183 104.652H200.473V105.037H215.183V104.652Z" fill="white"/>
<path d="M215.184 105.23H200.474C200.263 105.23 200.09 105.057 200.09 104.845C200.09 104.633 200.263 104.459 200.474 104.459H215.184C215.395 104.459 215.568 104.633 215.568 104.845C215.568 105.057 215.395 105.23 215.184 105.23Z" fill="white"/>
</g>
<g opacity="0.55">
<path d="M157.904 143.316C157.601 143.316 157.313 143.212 157.071 143.019C156.791 142.795 156.618 142.476 156.58 142.121L156.311 139.658C154.976 139.52 153.694 139.146 152.493 138.544L150.95 140.479C150.489 141.057 149.645 141.15 149.073 140.687L147.48 139.404C147.204 139.18 147.028 138.86 146.989 138.506C146.951 138.151 147.051 137.801 147.273 137.519L148.816 135.585C147.968 134.54 147.327 133.365 146.901 132.085L144.449 132.355C143.716 132.432 143.055 131.904 142.975 131.168L142.752 129.129C142.672 128.393 143.201 127.73 143.934 127.649L146.387 127.379C146.525 126.038 146.897 124.751 147.496 123.545L145.569 121.995C144.994 121.533 144.901 120.689 145.362 120.111L146.64 118.511C146.863 118.23 147.181 118.056 147.534 118.018C147.887 117.979 148.237 118.079 148.517 118.303L150.443 119.852C151.483 119.001 152.654 118.357 153.928 117.929L153.659 115.466C153.621 115.112 153.721 114.761 153.943 114.48C154.166 114.198 154.485 114.025 154.838 113.986L156.868 113.763C157.221 113.724 157.57 113.825 157.85 114.048C158.131 114.272 158.303 114.592 158.342 114.946L158.61 117.409C159.946 117.548 161.228 117.921 162.429 118.523L163.972 116.588C164.432 116.01 165.273 115.917 165.848 116.38L167.441 117.663C167.717 117.887 167.894 118.207 167.932 118.561C167.971 118.916 167.871 119.267 167.648 119.548L166.106 121.483C166.954 122.527 167.595 123.703 168.021 124.982L170.473 124.712C171.202 124.631 171.866 125.163 171.947 125.899L172.169 127.938C172.25 128.674 171.72 129.337 170.987 129.418L168.535 129.688C168.397 131.029 168.025 132.316 167.426 133.519L169.352 135.068C169.633 135.292 169.805 135.612 169.844 135.966C169.882 136.321 169.782 136.671 169.56 136.953L168.282 138.552C168.059 138.833 167.741 139.007 167.387 139.045C167.034 139.088 166.685 138.984 166.405 138.76L164.478 137.211C163.438 138.063 162.268 138.706 160.994 139.134L161.262 141.597C161.343 142.333 160.813 142.996 160.08 143.077L158.05 143.3C158 143.304 157.95 143.308 157.9 143.308L157.904 143.316ZM152.289 137.566L152.569 137.716C153.851 138.406 155.233 138.81 156.684 138.918L157.002 138.941L157.34 142.036C157.355 142.187 157.432 142.325 157.547 142.418C157.666 142.514 157.816 142.556 157.966 142.541L159.996 142.318C160.145 142.302 160.284 142.225 160.376 142.106C160.472 141.986 160.514 141.84 160.498 141.685L160.161 138.591L160.468 138.498C161.857 138.078 163.124 137.381 164.221 136.425L164.463 136.217L166.885 138.163C167.004 138.259 167.149 138.302 167.303 138.286C167.453 138.271 167.591 138.194 167.683 138.074L168.961 136.475C169.057 136.355 169.099 136.205 169.084 136.055C169.068 135.904 168.992 135.766 168.877 135.673L166.455 133.723L166.605 133.442C167.291 132.154 167.694 130.767 167.802 129.31L167.825 128.99L170.907 128.651C171.218 128.616 171.444 128.335 171.41 128.023L171.187 125.984C171.152 125.672 170.868 125.448 170.561 125.479L167.48 125.818L167.387 125.51C166.969 124.115 166.274 122.843 165.323 121.741L165.115 121.498L167.057 119.066C167.153 118.947 167.196 118.8 167.18 118.646C167.165 118.496 167.088 118.357 166.973 118.264L165.38 116.981C165.138 116.785 164.778 116.823 164.582 117.07L162.644 119.502L162.364 119.351C161.082 118.661 159.7 118.257 158.25 118.149L157.931 118.126L157.593 115.031C157.578 114.881 157.501 114.742 157.386 114.649C157.267 114.553 157.117 114.511 156.968 114.526L154.937 114.75C154.788 114.765 154.65 114.842 154.557 114.958C154.462 115.077 154.419 115.224 154.435 115.378L154.772 118.473L154.465 118.565C153.076 118.985 151.813 119.683 150.712 120.639L150.47 120.847L148.048 118.9C147.93 118.804 147.784 118.762 147.63 118.777C147.48 118.792 147.342 118.87 147.25 118.985L145.972 120.585C145.876 120.704 145.834 120.854 145.849 121.005C145.865 121.155 145.942 121.294 146.057 121.386L148.478 123.336L148.329 123.618C147.642 124.905 147.239 126.292 147.131 127.749L147.108 128.069L144.026 128.408C143.716 128.443 143.489 128.724 143.524 129.037L143.746 131.075C143.781 131.387 144.061 131.611 144.372 131.58L147.454 131.241L147.546 131.549C147.964 132.945 148.659 134.216 149.61 135.319L149.818 135.561L147.876 137.993C147.78 138.113 147.738 138.259 147.753 138.413C147.768 138.564 147.845 138.702 147.96 138.795L149.553 140.078C149.795 140.275 150.155 140.236 150.351 139.99L152.293 137.558L152.289 137.566ZM157.455 134.467C156.158 134.467 154.853 134.043 153.767 133.164C152.535 132.174 151.764 130.759 151.591 129.183C151.418 127.607 151.867 126.061 152.853 124.824C153.84 123.587 155.248 122.812 156.818 122.639C158.388 122.465 159.93 122.916 161.159 123.907C162.387 124.897 163.162 126.312 163.335 127.888C163.507 129.464 163.058 131.01 162.072 132.247C160.905 133.708 159.19 134.467 157.455 134.467ZM157.47 123.375C157.279 123.375 157.09 123.386 156.899 123.406C155.532 123.556 154.308 124.231 153.452 125.31C152.593 126.385 152.205 127.734 152.355 129.102C152.504 130.474 153.176 131.704 154.25 132.563C156.461 134.344 159.704 133.985 161.477 131.765C162.337 130.69 162.724 129.341 162.575 127.973C162.425 126.601 161.753 125.371 160.679 124.512C159.758 123.772 158.637 123.375 157.474 123.375H157.47Z" fill="white"/>
</g>
<g opacity="0.61">
<path opacity="0.74" d="M106.821 49.237L71.7108 49.6677C70.9839 49.6767 70.4017 50.2757 70.4106 51.0057L71.1246 109.691C71.1335 110.421 71.73 111.005 72.457 110.996L107.567 110.566C108.294 110.557 108.876 109.958 108.867 109.228L108.153 50.5427C108.144 49.8126 107.548 49.2281 106.821 49.237Z" fill="#6D6CD4"/>
<path d="M108.279 50.5258L108.321 54.0137L70.5755 54.4723L70.5333 50.9189C70.5256 50.2175 71.0821 49.6471 71.7806 49.6355L106.935 49.2077C107.668 49.2 108.267 49.7897 108.279 50.5219V50.5258Z" fill="#3E479B"/>
<path d="M73.1364 52.738C72.7066 52.738 72.3574 52.395 72.3535 51.9633C72.3535 51.5317 72.6951 51.181 73.1249 51.1771C73.5548 51.1771 73.904 51.5201 73.9078 51.9518C73.9078 52.3834 73.5663 52.7342 73.1364 52.738ZM73.1288 51.4893C72.8716 51.4893 72.6644 51.7013 72.6644 51.9595C72.6644 52.2177 72.8755 52.4258 73.1326 52.4258C73.3897 52.4258 73.597 52.2139 73.597 51.9556C73.597 51.6974 73.3859 51.4893 73.1288 51.4893Z" fill="white"/>
<path d="M75.7302 52.7187C75.3003 52.7187 74.9511 52.3757 74.9473 51.9441C74.9473 51.5124 75.2888 51.1617 75.7187 51.1578C76.1485 51.1578 76.4978 51.5008 76.5016 51.9325C76.5016 52.3641 76.16 52.7149 75.7302 52.7187ZM75.7225 51.47C75.4654 51.47 75.2581 51.682 75.2581 51.9402C75.2581 52.1984 75.4692 52.4065 75.7263 52.4065C75.9835 52.4065 76.1907 52.1946 76.1907 51.9364C76.1907 51.6781 75.9796 51.47 75.7225 51.47Z" fill="white"/>
<path d="M78.2556 52.6995C77.8257 52.6995 77.4765 52.3565 77.4727 51.9248C77.4727 51.4932 77.8142 51.1425 78.2441 51.1386C78.6739 51.1386 79.0231 51.4816 79.027 51.9133C79.027 52.3449 78.6854 52.6956 78.2556 52.6995ZM78.2479 51.4508C77.9908 51.4508 77.7835 51.6628 77.7835 51.921C77.7835 52.1792 77.9946 52.3873 78.2517 52.3873C78.5089 52.3873 78.7161 52.1753 78.7161 51.9171C78.7161 51.6589 78.505 51.4508 78.2479 51.4508Z" fill="white"/>
<path d="M91.2538 59.8911L73.8108 60.0222C73.6381 60.0222 73.4999 59.8834 73.4961 59.7139C73.4961 59.5404 73.6343 59.4017 73.8031 59.3978L91.2462 59.2668C91.4189 59.2668 91.557 59.4055 91.5609 59.5751C91.5609 59.7485 91.4227 59.8873 91.2538 59.8911Z" fill="white"/>
<path d="M97.0686 59.8449L93.4495 59.8719C93.2768 59.8719 93.1386 59.7331 93.1348 59.5635C93.1348 59.3901 93.2729 59.2513 93.4418 59.2475L97.0609 59.2205C97.2336 59.2205 97.3718 59.3593 97.3756 59.5288C97.3756 59.7023 97.2374 59.841 97.0686 59.8449Z" fill="#3E479B"/>
<path d="M91.3613 74.4324L73.9182 74.5634C73.7455 74.5634 73.6074 74.4247 73.6035 74.2551C73.6035 74.0817 73.7417 73.9429 73.9105 73.9391L91.3536 73.808C91.5263 73.808 91.6645 73.9468 91.6683 74.1164C91.6683 74.2898 91.5301 74.4285 91.3613 74.4324Z" fill="white"/>
<path d="M97.176 74.3862L93.5569 74.4132C93.3842 74.4132 93.246 74.2744 93.2422 74.1049C93.2422 73.9314 93.3804 73.7927 93.5492 73.7888L97.1683 73.7618C97.341 73.7618 97.4792 73.9006 97.483 74.0702C97.483 74.2436 97.3449 74.3823 97.176 74.3862Z" fill="#599AF2"/>
<path d="M91.3046 66.8284L73.8616 66.9594C73.6889 66.9594 73.5507 66.8207 73.5469 66.6511C73.5469 66.4777 73.685 66.3389 73.8539 66.3351L91.297 66.204C91.4697 66.204 91.6078 66.3428 91.6117 66.5124C91.6117 66.6858 91.4735 66.8245 91.3046 66.8284Z" fill="#599AF2"/>
<path d="M97.1193 66.786L93.5003 66.813C93.3275 66.813 93.1894 66.6742 93.1855 66.5046C93.1855 66.3312 93.3237 66.1925 93.4926 66.1886L97.1117 66.1616C97.2844 66.1616 97.4225 66.3004 97.4264 66.4699C97.4264 66.6434 97.2882 66.7821 97.1193 66.786Z" fill="white"/>
<path d="M103.078 66.7398L99.4592 66.7668C99.2865 66.7668 99.1484 66.628 99.1445 66.4584C99.1445 66.285 99.2827 66.1463 99.4516 66.1424L103.071 66.1154C103.243 66.1154 103.382 66.2542 103.385 66.4237C103.385 66.5972 103.247 66.7359 103.078 66.7398Z" fill="#3E479B"/>
<path d="M85.4668 63.3482L73.8381 63.4368C73.6654 63.4368 73.5273 63.2981 73.5234 63.1285C73.5234 62.9551 73.6616 62.8163 73.8305 62.8125L85.4592 62.7238C85.6319 62.7238 85.77 62.8626 85.7739 63.0321C85.7739 63.2056 85.6357 63.3443 85.4668 63.3482Z" fill="#3E479B"/>
<path d="M92.7043 63.2942L87.6038 63.3328C87.4311 63.3328 87.2929 63.194 87.2891 63.0244C87.2891 62.851 87.4272 62.7123 87.5961 62.7084L92.6966 62.6699C92.8693 62.6699 93.0075 62.8086 93.0113 62.9782C93.0113 63.1516 92.8731 63.2904 92.7043 63.2942Z" fill="#F7A9B4"/>
<path d="M92.7618 70.6092L81.1331 70.6979C80.9604 70.6979 80.8222 70.5591 80.8184 70.3895C80.8184 70.2161 80.9565 70.0774 81.1254 70.0735L92.7541 69.9849C92.9268 69.9849 93.065 70.1236 93.0688 70.2932C93.0688 70.4666 92.9306 70.6054 92.7618 70.6092Z" fill="#3E479B"/>
<path d="M78.9914 70.7133L73.8909 70.7518C73.7182 70.7518 73.58 70.6131 73.5762 70.4435C73.5762 70.2701 73.7143 70.1313 73.8832 70.1275L78.9837 70.0889C79.1564 70.0889 79.2946 70.2277 79.2984 70.3973C79.2984 70.5707 79.1603 70.7094 78.9914 70.7133Z" fill="#F7A9B4"/>
<path d="M91.4003 79.3347L73.9573 79.4658C73.7846 79.4658 73.6464 79.327 73.6426 79.1575C73.6426 78.984 73.7807 78.8453 73.9496 78.8414L91.3927 78.7104C91.5654 78.7104 91.7035 78.8491 91.7074 79.0187C91.7074 79.1921 91.5692 79.3309 91.4003 79.3347Z" fill="#F7A9B4"/>
<path d="M97.2151 79.2885L93.596 79.3155C93.4233 79.3155 93.2851 79.1768 93.2812 79.0072C93.2812 78.8338 93.4194 78.695 93.5883 78.6912L97.2074 78.6642C97.3801 78.6642 97.5182 78.8029 97.5221 78.9725C97.5221 79.1459 97.3839 79.2847 97.2151 79.2885Z" fill="#3E479B"/>
<path d="M91.5117 93.8761L74.0686 94.0071C73.8959 94.0071 73.7577 93.8684 73.7539 93.6988C73.7539 93.5253 73.8921 93.3866 74.0609 93.3827L91.504 93.2517C91.6767 93.2517 91.8148 93.3905 91.8187 93.56C91.8187 93.7335 91.6805 93.8722 91.5117 93.8761Z" fill="white"/>
<path d="M97.3264 93.8298L93.7073 93.8568C93.5346 93.8568 93.3964 93.718 93.3926 93.5485C93.3926 93.375 93.5307 93.2363 93.6996 93.2324L97.3187 93.2054C97.4914 93.2054 97.6296 93.3442 97.6334 93.5138C97.6334 93.6872 97.4952 93.8259 97.3264 93.8298Z" fill="#599AF2"/>
<path d="M91.4531 86.2759L74.01 86.4069C73.8373 86.4069 73.6992 86.2682 73.6953 86.0986C73.6953 85.9252 73.8335 85.7864 74.0023 85.7826L91.4454 85.6516C91.6181 85.6516 91.7563 85.7903 91.7601 85.9599C91.7601 86.1333 91.6219 86.272 91.4531 86.2759Z" fill="#599AF2"/>
<path d="M97.2678 86.2296L93.6487 86.2566C93.476 86.2566 93.3378 86.1179 93.334 85.9483C93.334 85.7749 93.4721 85.6361 93.641 85.6323L97.2601 85.6053C97.4328 85.6053 97.571 85.744 97.5748 85.9136C97.5748 86.087 97.4367 86.2258 97.2678 86.2296Z" fill="white"/>
<path d="M103.229 86.1834L99.6097 86.2104C99.437 86.2104 99.2988 86.0716 99.295 85.902C99.2912 85.7325 99.4332 85.5899 99.602 85.586L103.221 85.559C103.394 85.559 103.532 85.6978 103.536 85.8673C103.536 86.0408 103.398 86.1795 103.229 86.1834Z" fill="#3E479B"/>
<path d="M85.6133 82.7918L73.9846 82.8805C73.8119 82.8805 73.6738 82.7417 73.6699 82.5722C73.6699 82.3987 73.8081 82.26 73.977 82.2561L85.6056 82.1675C85.7784 82.1675 85.9165 82.3062 85.9204 82.4758C85.9204 82.6492 85.7822 82.788 85.6133 82.7918Z" fill="#3E479B"/>
<path d="M92.8508 82.7379L87.7503 82.7764C87.5775 82.7764 87.4394 82.6377 87.4355 82.4681C87.4355 82.2947 87.5737 82.1559 87.7426 82.1521L92.8431 82.1135C93.0158 82.1135 93.1539 82.2523 93.1578 82.4218C93.1578 82.5953 93.0196 82.734 92.8508 82.7379Z" fill="#F7A9B4"/>
<path d="M92.9082 90.0528L81.2795 90.1415C81.1068 90.1415 80.9687 90.0027 80.9648 89.8331C80.9648 89.6597 81.103 89.521 81.2719 89.5171L92.9006 89.4285C93.0733 89.4285 93.2114 89.5672 93.2153 89.7368C93.2153 89.9102 93.0771 90.049 92.9082 90.0528Z" fill="#3E479B"/>
<path d="M79.1379 90.1569L74.0374 90.1954C73.8647 90.1954 73.7265 90.0567 73.7227 89.8871C73.7227 89.7137 73.8608 89.5749 74.0297 89.5711L79.1302 89.5325C79.3029 89.5325 79.4411 89.6713 79.4449 89.8409C79.4449 90.0143 79.3067 90.153 79.1379 90.1569Z" fill="#F7A9B4"/>
<path d="M91.5429 98.3737L74.0999 98.5048C73.9272 98.5048 73.789 98.366 73.7852 98.1965C73.7852 98.023 73.9233 97.8843 74.0922 97.8804L91.5352 97.7494C91.7079 97.7494 91.8461 97.8881 91.8499 98.0577C91.8499 98.2311 91.7118 98.3699 91.5429 98.3737Z" fill="#F7A9B4"/>
<path d="M97.3557 98.3275L93.7366 98.3545C93.5639 98.3545 93.4257 98.2157 93.4219 98.0461C93.4219 97.8727 93.56 97.734 93.7289 97.7301L97.348 97.7031C97.5207 97.7031 97.6589 97.8419 97.6627 98.0114C97.6627 98.1849 97.5245 98.3236 97.3557 98.3275Z" fill="#3E479B"/>
<path d="M97.426 107.508L93.8069 107.535C93.6342 107.535 93.496 107.396 93.4922 107.226C93.4922 107.053 93.6304 106.914 93.7992 106.91L97.4183 106.883C97.591 106.883 97.7292 107.022 97.733 107.192C97.733 107.365 97.5949 107.504 97.426 107.508Z" fill="white"/>
<path d="M103.385 107.465L99.7659 107.492C99.5932 107.492 99.455 107.354 99.4512 107.184C99.4512 107.011 99.5893 106.872 99.7582 106.868L103.377 106.841C103.55 106.841 103.688 106.98 103.692 107.149C103.692 107.323 103.554 107.462 103.385 107.465Z" fill="#3E479B"/>
<path d="M85.7539 101.831L74.1253 101.919C73.9525 101.919 73.8144 101.781 73.8105 101.611C73.8105 101.438 73.9487 101.299 74.1176 101.295L85.7463 101.206C85.919 101.206 86.0571 101.345 86.061 101.515C86.061 101.688 85.9228 101.827 85.7539 101.831Z" fill="#3E479B"/>
<path d="M92.9972 101.777L87.8967 101.815C87.724 101.815 87.5859 101.677 87.582 101.507C87.582 101.334 87.7202 101.195 87.8891 101.191L92.9896 101.152C93.1623 101.152 93.3004 101.291 93.3043 101.461C93.3043 101.634 93.1661 101.773 92.9972 101.777Z" fill="#F7A9B4"/>
</g>
<path d="M103.191 20.63V28.3882L103.195 30.1919L103.203 51.7283L103.222 93.8722L103.23 115.409V117.212V122.454C103.23 124.82 104.719 126.832 106.803 127.618C107.405 127.846 108.05 127.973 108.729 127.973H112.648L155.797 127.953C156.952 127.953 158.019 127.595 158.902 126.986C160.345 125.992 161.293 124.323 161.293 122.431L161.246 20.6069C161.246 18.9111 160.483 17.3926 159.282 16.3828C158.326 15.5774 157.094 15.0879 155.747 15.0879L108.679 15.1072C105.644 15.1072 103.184 17.5815 103.184 20.63H103.191Z" fill="#4C65BA"/>
<path d="M103.594 22.557V30.0647L103.598 31.8067L103.605 52.6455L103.624 93.4213L103.632 114.26V116.002V121.074C103.632 123.363 105.098 125.31 107.155 126.069C107.746 126.289 108.387 126.412 109.055 126.412H112.92L155.47 126.393C156.606 126.393 157.661 126.046 158.533 125.456C159.956 124.493 160.889 122.878 160.889 121.051L160.847 22.5377C160.847 20.8959 160.091 19.4275 158.909 18.4486C157.965 17.6701 156.752 17.196 155.424 17.196L109.009 17.2153C106.015 17.2153 103.59 19.6087 103.59 22.5609L103.594 22.557Z" fill="#3E479B"/>
<path d="M158.226 30.6004L158.26 112.433C158.26 113.166 157.669 113.755 156.944 113.759L107.585 113.782C106.856 113.782 106.269 113.189 106.265 112.46L106.23 30.6274C106.23 29.8952 106.822 29.3016 107.547 29.3016L156.906 29.2785C157.635 29.2785 158.222 29.872 158.226 30.6004Z" fill="white"/>
<path d="M158.226 30.5657V35.8727L106.234 35.8959V30.5272C106.234 29.8258 106.795 29.2592 107.493 29.2592L156.898 29.2361C157.631 29.2361 158.226 29.8335 158.226 30.5657Z" fill="#599AF2"/>
<path d="M151.805 31.8106C151.698 31.8106 151.613 31.7258 151.613 31.6179C151.613 31.51 151.698 31.4252 151.805 31.4252H155.704C155.812 31.4252 155.896 31.51 155.896 31.6179C155.896 31.7258 155.812 31.8106 155.704 31.8106H151.805Z" fill="white"/>
<path d="M151.805 32.8127C151.698 32.8127 151.613 32.7279 151.613 32.6199C151.613 32.512 151.698 32.4272 151.805 32.4272H155.704C155.812 32.4272 155.896 32.512 155.896 32.6199C155.896 32.7279 155.812 32.8127 155.704 32.8127H151.805Z" fill="white"/>
<path d="M151.805 33.8147C151.698 33.8147 151.613 33.7299 151.613 33.622C151.613 33.514 151.698 33.4293 151.805 33.4293H155.704C155.812 33.4293 155.896 33.514 155.896 33.622C155.896 33.7299 155.812 33.8147 155.704 33.8147H151.805Z" fill="white"/>
<path d="M110.879 34.4506C110.829 34.4506 110.779 34.4313 110.745 34.3928L109.328 32.9706C109.206 32.8473 109.206 32.6469 109.328 32.5274L110.691 31.1593C110.768 31.0822 110.887 31.0822 110.963 31.1593C111.04 31.2325 111.04 31.3558 110.963 31.4329L109.651 32.751L111.017 34.123C111.094 34.1962 111.094 34.3196 111.017 34.3966C110.979 34.4352 110.929 34.4545 110.883 34.4545L110.879 34.4506Z" fill="white"/>
<path d="M132.274 24.38C131.498 24.38 130.865 23.748 130.865 22.9656C130.865 22.1871 131.495 21.5511 132.274 21.5511C133.049 21.5511 133.682 22.1832 133.682 22.9656C133.682 23.7441 133.053 24.38 132.274 24.38ZM132.274 22.1524C131.825 22.1524 131.464 22.5185 131.464 22.9694C131.464 23.4165 131.829 23.7826 132.274 23.7826C132.489 23.7826 132.692 23.6978 132.846 23.5437C132.999 23.3895 133.084 23.1853 133.084 22.9656C133.084 22.7459 132.999 22.5455 132.846 22.3913C132.692 22.2372 132.489 22.1524 132.274 22.1524Z" fill="white"/>
<path d="M130.935 123.934C130.436 123.934 130.033 123.525 130.033 123.028V120.349C130.033 119.848 130.436 119.444 130.935 119.444H133.602C134.101 119.444 134.504 119.848 134.504 120.349V123.028C134.504 123.529 134.101 123.934 133.602 123.934H130.935ZM133.602 119.825H130.935C130.647 119.825 130.417 120.06 130.417 120.349V123.028C130.417 123.317 130.651 123.548 130.939 123.548H133.606C133.894 123.548 134.124 123.313 134.124 123.024V120.346C134.124 120.057 133.89 119.825 133.602 119.825Z" fill="white"/>
<path d="M114.866 120.265C114.758 120.265 114.674 120.18 114.674 120.072C114.674 119.964 114.758 119.879 114.866 119.879H117.433C117.541 119.879 117.625 119.964 117.625 120.072C117.625 120.18 117.541 120.265 117.433 120.265H114.866Z" fill="white"/>
<path d="M114.866 121.656C114.758 121.656 114.674 121.571 114.674 121.463C114.674 121.355 114.758 121.271 114.866 121.271H117.433C117.541 121.271 117.625 121.355 117.625 121.463C117.625 121.571 117.541 121.656 117.433 121.656H114.866Z" fill="white"/>
<path d="M114.866 123.067C114.758 123.067 114.674 122.982 114.674 122.874C114.674 122.766 114.758 122.681 114.866 122.681H117.433C117.541 122.681 117.625 122.766 117.625 122.874C117.625 122.982 117.541 123.067 117.433 123.067H114.866Z" fill="white"/>
<path d="M150.319 123.926C150.269 123.926 150.219 123.907 150.185 123.868L148.166 121.841L150.131 119.864C150.208 119.787 150.327 119.787 150.403 119.864C150.48 119.941 150.48 120.06 150.403 120.137L148.707 121.841L150.453 123.595C150.53 123.672 150.53 123.791 150.453 123.868C150.415 123.907 150.365 123.926 150.319 123.926Z" fill="white"/>
<path opacity="0.36" d="M158.229 35.9652H106.314V53.0386H158.229V35.9652Z" fill="#599AF2"/>
<path opacity="0.43" d="M129.744 39.4185H111.104C110.805 39.4185 110.562 39.6618 110.562 39.9619V43.1068C110.562 43.4069 110.805 43.6502 111.104 43.6502H129.744C130.043 43.6502 130.285 43.4069 130.285 43.1068V39.9619C130.285 39.6618 130.043 39.4185 129.744 39.4185Z" fill="white"/>
<path opacity="0.43" d="M139.987 46.0165H111.108C110.809 46.0165 110.566 46.2598 110.566 46.56V47.589C110.566 47.8891 110.809 48.1324 111.108 48.1324H139.987C140.286 48.1324 140.529 47.8891 140.529 47.589V46.56C140.529 46.2598 140.286 46.0165 139.987 46.0165Z" fill="white"/>
<path opacity="0.43" d="M151.835 47.7779C150.772 47.7779 149.77 47.3616 149.018 46.6062C148.266 45.8508 147.851 44.8449 147.848 43.7774C147.848 42.7098 148.262 41.7039 149.014 40.9446C149.767 40.1893 150.768 39.773 151.831 39.7692C152.894 39.7692 153.896 40.1854 154.648 40.9408C155.401 41.6962 155.815 42.7021 155.819 43.7697C155.819 44.8372 155.404 45.8431 154.652 46.6024C153.9 47.3578 152.898 47.774 151.835 47.7779ZM151.835 40.54C150.976 40.54 150.166 40.8753 149.559 41.4881C148.953 42.1009 148.615 42.9102 148.619 43.7735C148.619 44.6368 148.953 45.45 149.563 46.059C150.17 46.6679 150.979 47.0032 151.839 47.0032C152.699 47.0032 153.508 46.6679 154.115 46.0551C154.721 45.4423 155.059 44.633 155.055 43.7697C155.055 42.9064 154.721 42.0932 154.111 41.4842C153.505 40.8753 152.695 40.54 151.835 40.54Z" fill="white"/>
<path d="M121.247 59.2321H112.662C111.696 59.2321 110.912 60.0189 110.912 60.9895V69.611C110.912 70.5816 111.696 71.3684 112.662 71.3684H121.247C122.214 71.3684 122.998 70.5816 122.998 69.611V60.9895C122.998 60.0189 122.214 59.2321 121.247 59.2321Z" fill="#4C65BA"/>
<g opacity="0.36">
<path d="M119.563 65.36C119.563 66.8053 118.397 67.9807 116.957 67.9807C115.518 67.9807 114.348 66.8091 114.348 65.3639C114.348 63.9186 115.514 62.7431 116.954 62.7431C118.393 62.7431 119.563 63.9147 119.563 65.36Z" fill="#599AF2"/>
</g>
<g opacity="0.26">
<path d="M132.33 61.1205H125.537C125.295 61.1205 125.1 61.3173 125.1 61.5599V62.8587C125.1 63.1014 125.295 63.2981 125.537 63.2981H132.33C132.572 63.2981 132.768 63.1014 132.768 62.8587V61.5599C132.768 61.3173 132.572 61.1205 132.33 61.1205Z" fill="#3E479B"/>
<path d="M125.101 66.6434C124.89 66.6434 124.717 66.4699 124.717 66.258C124.717 66.046 124.89 65.8726 125.101 65.8726L138.188 65.8649C138.399 65.8649 138.571 66.0383 138.571 66.2503C138.571 66.4622 138.399 66.6357 138.188 66.6357L125.101 66.6434Z" fill="#3E479B"/>
<path d="M125.101 69.3952C124.89 69.3952 124.717 69.2217 124.717 69.0097C124.717 68.7978 124.89 68.6243 125.101 68.6243L146.443 68.6166C146.654 68.6166 146.827 68.7901 146.827 69.002C146.827 69.214 146.654 69.3874 146.443 69.3874L125.101 69.3952Z" fill="#3E479B"/>
<path d="M141.108 66.6357C140.897 66.6357 140.725 66.4622 140.725 66.2503C140.725 66.0383 140.897 65.8649 141.108 65.8649H154.195C154.407 65.861 154.579 66.0306 154.579 66.2426C154.579 66.4545 154.407 66.628 154.195 66.628H141.108V66.6357Z" fill="#3E479B"/>
</g>
<path d="M121.263 94.5389H112.678C111.711 94.5389 110.928 95.3258 110.928 96.2964V104.918C110.928 105.888 111.711 106.675 112.678 106.675H121.263C122.23 106.675 123.013 105.888 123.013 104.918V96.2964C123.013 95.3258 122.23 94.5389 121.263 94.5389Z" fill="#599AF2"/>
<g opacity="0.57">
<path d="M119.579 100.667C119.579 102.112 118.412 103.288 116.973 103.288C115.534 103.288 114.363 102.116 114.363 100.671C114.363 99.2255 115.53 98.05 116.969 98.05C118.408 98.05 119.579 99.2216 119.579 100.667Z" fill="#3E479B"/>
</g>
<g opacity="0.26">
<path d="M132.346 96.4274H125.553C125.311 96.4274 125.115 96.6241 125.115 96.8668V98.1656C125.115 98.4083 125.311 98.605 125.553 98.605H132.346C132.587 98.605 132.783 98.4083 132.783 98.1656V96.8668C132.783 96.6241 132.587 96.4274 132.346 96.4274Z" fill="#3E479B"/>
<path d="M125.116 101.95C124.905 101.95 124.732 101.777 124.732 101.565C124.732 101.353 124.905 101.179 125.116 101.179H138.203V101.176C138.414 101.176 138.587 101.349 138.587 101.561C138.587 101.773 138.414 101.946 138.203 101.946H125.116V101.95Z" fill="#3E479B"/>
<path d="M125.116 104.702C124.905 104.702 124.732 104.529 124.732 104.317C124.732 104.105 124.905 103.931 125.116 103.931L146.459 103.924C146.67 103.924 146.842 104.097 146.842 104.309C146.842 104.521 146.67 104.694 146.459 104.694L125.116 104.702Z" fill="#3E479B"/>
<path d="M141.124 101.943C140.913 101.943 140.74 101.769 140.74 101.557C140.74 101.345 140.913 101.172 141.124 101.172H154.211C154.422 101.168 154.595 101.337 154.595 101.553C154.595 101.769 154.422 101.939 154.211 101.939H141.124V101.943Z" fill="#3E479B"/>
</g>
<path d="M121.255 76.845H112.67C111.703 76.845 110.92 77.6319 110.92 78.6025V87.224C110.92 88.1946 111.703 88.9814 112.67 88.9814H121.255C122.222 88.9814 123.005 88.1946 123.005 87.224V78.6025C123.005 77.6319 122.222 76.845 121.255 76.845Z" fill="#F7A9B4"/>
<path opacity="0.43" d="M119.571 82.973C119.571 84.4182 118.404 85.5937 116.965 85.5937C115.526 85.5937 114.355 84.4221 114.355 82.9768C114.355 81.5316 115.522 80.3561 116.961 80.3561C118.401 80.3561 119.571 81.5277 119.571 82.973Z" fill="white"/>
<g opacity="0.26">
<path d="M132.338 78.7335H125.545C125.303 78.7335 125.107 78.9302 125.107 79.1729V80.4717C125.107 80.7143 125.303 80.9111 125.545 80.9111H132.338C132.58 80.9111 132.775 80.7143 132.775 80.4717V79.1729C132.775 78.9302 132.58 78.7335 132.338 78.7335Z" fill="#3E479B"/>
<path d="M125.108 84.2563C124.897 84.2563 124.725 84.0829 124.725 83.8709C124.725 83.659 124.897 83.4855 125.108 83.4855H131.161C131.372 83.4855 131.544 83.659 131.544 83.8709C131.544 84.0829 131.372 84.2563 131.161 84.2563H125.108Z" fill="#3E479B"/>
<path d="M125.108 87.0081C124.897 87.0081 124.725 86.8347 124.725 86.6227C124.725 86.4107 124.897 86.2373 125.108 86.2373H137.532V86.2335C137.743 86.2335 137.915 86.4069 137.915 86.6189C137.915 86.8308 137.743 87.0043 137.532 87.0043H125.108V87.0081Z" fill="#3E479B"/>
<path d="M133.698 84.2525C133.487 84.2525 133.314 84.0791 133.314 83.8671C133.314 83.6551 133.487 83.4817 133.698 83.4817H145.787C145.999 83.4778 146.171 83.6474 146.171 83.8632C146.171 84.0791 145.999 84.2486 145.787 84.2486H133.698V84.2525Z" fill="#3E479B"/>
<path d="M148.036 84.2448C147.825 84.2448 147.652 84.0714 147.652 83.8594C147.652 83.6474 147.825 83.474 148.036 83.474H154.088C154.3 83.474 154.472 83.6436 154.472 83.8556C154.472 84.0675 154.3 84.241 154.088 84.241H148.036V84.2448Z" fill="#3E479B"/>
</g>
<path opacity="0.39" d="M196.33 87.8493L171.781 88.1505C171.054 88.1595 170.472 88.7585 170.481 89.4885L170.986 131.009C170.995 131.739 171.591 132.323 172.318 132.315L196.867 132.013C197.594 132.004 198.176 131.405 198.168 130.675L197.662 89.155C197.654 88.425 197.057 87.8404 196.33 87.8493Z" fill="white"/>
<path opacity="0.39" d="M196.33 87.8493L171.781 88.1505C171.054 88.1595 170.472 88.7585 170.481 89.4885L170.986 131.009C170.995 131.739 171.591 132.323 172.318 132.315L196.867 132.013C197.594 132.004 198.176 131.405 198.168 130.675L197.662 89.155C197.654 88.425 197.057 87.8404 196.33 87.8493Z" fill="#F7A9B4"/>
<path d="M197.748 89.151L197.775 91.29L170.595 91.6215L170.568 89.417C170.561 88.7155 171.117 88.1451 171.816 88.1336L196.409 87.833C197.142 87.8253 197.74 88.4149 197.752 89.1472L197.748 89.151Z" fill="#F7A9B4"/>
<path d="M172.433 90.3689C172.126 90.3689 171.873 90.1223 171.869 89.8101C171.869 89.5018 172.115 89.2474 172.426 89.2435C172.733 89.2435 172.986 89.4902 172.99 89.8024C172.99 90.1107 172.744 90.3651 172.433 90.3689ZM172.426 89.4709C172.241 89.4709 172.092 89.6251 172.092 89.8101C172.092 89.9951 172.245 90.1454 172.429 90.1454C172.614 90.1454 172.763 89.9912 172.763 89.8062C172.763 89.6212 172.61 89.4709 172.426 89.4709Z" fill="white"/>
<path d="M174.302 90.3574C173.995 90.3574 173.742 90.1107 173.738 89.7985C173.734 89.4864 173.984 89.2358 174.295 89.232C174.602 89.232 174.855 89.4787 174.859 89.7908C174.859 90.0992 174.613 90.3535 174.302 90.3574ZM174.295 89.4594C174.111 89.4594 173.961 89.6135 173.961 89.7985C173.961 89.9835 174.114 90.1338 174.299 90.1338C174.483 90.1338 174.633 89.9797 174.633 89.7947C174.633 89.6097 174.479 89.4594 174.295 89.4594Z" fill="white"/>
<path d="M176.119 90.3419C175.812 90.3419 175.559 90.0953 175.555 89.7831C175.555 89.4748 175.8 89.2204 176.111 89.2166C176.418 89.2166 176.672 89.4632 176.675 89.7754C176.675 90.0837 176.43 90.3381 176.119 90.3419ZM176.111 89.4439C175.927 89.4439 175.777 89.5981 175.777 89.7831C175.777 89.9681 175.931 90.1184 176.115 90.1184C176.299 90.1184 176.449 89.9642 176.449 89.7792C176.449 89.5942 176.295 89.4439 176.111 89.4439Z" fill="white"/>
<path d="M185.483 95.5218L172.922 95.6181C172.799 95.6181 172.695 95.5179 172.695 95.3946C172.695 95.2713 172.795 95.1672 172.918 95.1672L185.479 95.0709C185.602 95.0709 185.706 95.1711 185.706 95.2944C185.706 95.4177 185.606 95.5218 185.483 95.5218Z" fill="white"/>
<path d="M189.67 95.4871L187.064 95.5063C186.942 95.5063 186.838 95.4061 186.838 95.2828C186.838 95.1595 186.938 95.0554 187.06 95.0554L189.666 95.0361C189.789 95.0361 189.893 95.1363 189.893 95.2597C189.893 95.383 189.793 95.4871 189.67 95.4871Z" fill="white"/>
<path d="M185.559 105.993L172.998 106.09C172.875 106.09 172.771 105.989 172.771 105.866C172.771 105.743 172.871 105.639 172.994 105.639L185.555 105.542C185.678 105.542 185.782 105.643 185.782 105.766C185.782 105.889 185.682 105.993 185.559 105.993Z" fill="white"/>
<path d="M189.746 105.962L187.14 105.982C187.018 105.982 186.914 105.881 186.914 105.758C186.914 105.635 187.014 105.531 187.137 105.531L189.743 105.511C189.865 105.511 189.969 105.612 189.969 105.735C189.969 105.858 189.869 105.962 189.746 105.962Z" fill="white"/>
<path d="M185.52 100.517L172.959 100.613C172.836 100.613 172.732 100.513 172.732 100.389C172.732 100.266 172.832 100.162 172.955 100.162L185.516 100.066C185.639 100.066 185.743 100.166 185.743 100.289C185.743 100.413 185.643 100.517 185.52 100.517Z" fill="white"/>
<path d="M189.703 100.486L187.098 100.505C186.975 100.505 186.871 100.405 186.871 100.282C186.871 100.158 186.971 100.054 187.094 100.054L189.7 100.035C189.822 100.035 189.926 100.135 189.926 100.258C189.926 100.382 189.826 100.486 189.703 100.486Z" fill="white"/>
<path d="M193.998 100.455L191.392 100.474C191.27 100.474 191.166 100.374 191.166 100.251C191.166 100.127 191.266 100.023 191.389 100.023L193.995 100.004C194.117 100.004 194.221 100.104 194.221 100.228C194.221 100.351 194.121 100.455 193.998 100.455Z" fill="white"/>
<path d="M181.314 98.0115L172.939 98.077C172.817 98.077 172.713 97.9768 172.713 97.8535C172.713 97.7301 172.813 97.6261 172.935 97.6261L181.31 97.5605C181.432 97.5605 181.536 97.6608 181.536 97.7841C181.536 97.9074 181.436 98.0115 181.314 98.0115Z" fill="white"/>
<path d="M186.526 97.973L182.853 97.9999C182.731 97.9999 182.627 97.8997 182.627 97.7764C182.627 97.6531 182.727 97.549 182.85 97.549L186.522 97.522C186.645 97.522 186.749 97.6222 186.749 97.7456C186.749 97.8689 186.649 97.973 186.526 97.973Z" fill="white"/>
<path d="M186.565 103.238L178.191 103.303C178.068 103.303 177.965 103.203 177.965 103.08C177.965 102.956 178.065 102.852 178.187 102.852L186.562 102.787C186.684 102.787 186.788 102.887 186.788 103.01C186.788 103.133 186.688 103.238 186.565 103.238Z" fill="white"/>
<path d="M176.651 103.315L172.978 103.342C172.856 103.342 172.752 103.241 172.752 103.118C172.752 102.995 172.852 102.891 172.975 102.891L176.647 102.864C176.77 102.864 176.874 102.964 176.874 103.087C176.874 103.211 176.774 103.315 176.651 103.315Z" fill="white"/>
<path d="M185.587 109.523L173.025 109.62C172.902 109.62 172.799 109.52 172.799 109.396C172.799 109.273 172.899 109.169 173.021 109.169L185.583 109.073C185.706 109.073 185.809 109.173 185.809 109.296C185.809 109.419 185.709 109.523 185.587 109.523Z" fill="white"/>
<path d="M189.774 109.493L187.168 109.512C187.045 109.512 186.941 109.412 186.941 109.288C186.941 109.165 187.041 109.061 187.164 109.061L189.77 109.042C189.893 109.042 189.996 109.142 189.996 109.265C189.996 109.389 189.897 109.493 189.774 109.493Z" fill="white"/>
<path d="M185.667 119.995L173.105 120.091C172.983 120.091 172.879 119.991 172.879 119.868C172.879 119.744 172.979 119.64 173.101 119.64L185.663 119.544C185.786 119.544 185.889 119.644 185.889 119.768C185.889 119.891 185.789 119.995 185.667 119.995Z" fill="white"/>
<path d="M189.854 119.964L187.248 119.983C187.125 119.983 187.021 119.883 187.021 119.76C187.021 119.637 187.121 119.532 187.244 119.532L189.85 119.513C189.973 119.513 190.076 119.613 190.076 119.737C190.076 119.86 189.977 119.964 189.854 119.964Z" fill="white"/>
<path d="M185.624 114.522L173.062 114.619C172.94 114.619 172.836 114.518 172.836 114.395C172.836 114.272 172.936 114.168 173.059 114.168L185.62 114.071C185.743 114.071 185.846 114.172 185.846 114.295C185.846 114.418 185.746 114.522 185.624 114.522Z" fill="white"/>
<path d="M189.811 114.487L187.205 114.507C187.082 114.507 186.979 114.407 186.979 114.283C186.979 114.16 187.078 114.056 187.201 114.056L189.807 114.037C189.93 114.037 190.033 114.137 190.033 114.26C190.033 114.383 189.934 114.487 189.811 114.487Z" fill="white"/>
<path d="M194.102 114.457L191.496 114.476C191.373 114.476 191.27 114.376 191.27 114.252C191.27 114.129 191.369 114.025 191.492 114.025L194.098 114.006C194.221 114.006 194.324 114.106 194.324 114.229C194.324 114.353 194.225 114.457 194.102 114.457Z" fill="white"/>
<path d="M181.419 112.013L173.045 112.079C172.922 112.079 172.818 111.979 172.818 111.855C172.818 111.732 172.918 111.628 173.041 111.628L181.415 111.562C181.538 111.562 181.642 111.663 181.642 111.786C181.642 111.909 181.542 112.013 181.419 112.013Z" fill="white"/>
<path d="M186.634 111.975L182.961 112.002C182.838 112.002 182.734 111.901 182.734 111.778C182.734 111.655 182.834 111.551 182.957 111.551L186.63 111.524C186.753 111.524 186.856 111.624 186.856 111.747C186.856 111.871 186.756 111.975 186.634 111.975Z" fill="white"/>
<path d="M186.673 117.239L178.299 117.305C178.176 117.305 178.072 117.205 178.072 117.081C178.072 116.958 178.172 116.854 178.295 116.854L186.669 116.788C186.792 116.788 186.895 116.889 186.895 117.012C186.895 117.135 186.796 117.239 186.673 117.239Z" fill="white"/>
<path d="M176.759 117.316L173.086 117.343C172.963 117.343 172.859 117.243 172.859 117.12C172.859 116.997 172.959 116.892 173.082 116.892L176.755 116.865C176.878 116.865 176.981 116.966 176.981 117.089C176.981 117.212 176.881 117.316 176.759 117.316Z" fill="white"/>
<path d="M185.69 123.232L173.129 123.329C173.006 123.329 172.902 123.229 172.902 123.105C172.902 122.982 173.002 122.878 173.125 122.878L185.686 122.781C185.809 122.781 185.913 122.882 185.913 123.005C185.913 123.128 185.813 123.232 185.69 123.232Z" fill="white"/>
<path d="M189.877 123.202L187.271 123.221C187.149 123.221 187.045 123.121 187.045 122.997C187.045 122.874 187.145 122.77 187.268 122.77L189.873 122.751C189.996 122.751 190.1 122.851 190.1 122.974C190.1 123.097 190 123.202 189.877 123.202Z" fill="white"/>
<path d="M189.926 129.815L187.32 129.834C187.197 129.834 187.094 129.734 187.094 129.611C187.094 129.487 187.194 129.383 187.316 129.383L189.922 129.364C190.045 129.364 190.149 129.464 190.149 129.588C190.149 129.711 190.049 129.815 189.926 129.815Z" fill="white"/>
<path d="M194.221 129.78L191.615 129.8C191.492 129.8 191.389 129.699 191.389 129.576C191.389 129.453 191.488 129.349 191.611 129.349L194.217 129.329C194.34 129.329 194.444 129.43 194.444 129.553C194.444 129.676 194.344 129.78 194.221 129.78Z" fill="white"/>
<path d="M181.522 125.726L173.148 125.791C173.025 125.791 172.922 125.691 172.922 125.568C172.922 125.445 173.022 125.34 173.144 125.34L181.519 125.275C181.641 125.275 181.745 125.375 181.745 125.498C181.745 125.622 181.645 125.726 181.522 125.726Z" fill="white"/>
<path d="M186.737 125.684L183.064 125.711C182.942 125.711 182.838 125.61 182.838 125.487C182.838 125.364 182.938 125.26 183.06 125.26L186.733 125.233C186.856 125.233 186.96 125.333 186.96 125.456C186.96 125.579 186.86 125.684 186.737 125.684Z" fill="white"/>
<path opacity="0.22" d="M203.977 24.524L174.42 24.8297C173.693 24.8372 173.11 25.4351 173.117 26.1652L173.626 75.8257C173.634 76.5558 174.229 77.1415 174.956 77.134L204.514 76.8283C205.241 76.8208 205.824 76.2229 205.817 75.4929L205.307 25.8323C205.3 25.1023 204.704 24.5165 203.977 24.524Z" fill="#3E479B"/>
<path d="M202.22 22.2261L172.662 22.5317C171.935 22.5393 171.352 23.1372 171.359 23.8672L171.869 73.5278C171.876 74.2578 172.471 74.8435 173.198 74.836L202.756 74.5304C203.483 74.5228 204.066 73.9249 204.059 73.1949L203.549 23.5343C203.542 22.8043 202.947 22.2186 202.22 22.2261Z" fill="white"/>
<path d="M203.655 23.5282L203.682 26.307L171.49 26.6385L171.459 23.7942C171.451 23.0927 172.012 22.5223 172.706 22.5146L202.308 22.2102C203.041 22.2024 203.639 22.7921 203.647 23.5282H203.655Z" fill="#599AF2"/>
<path d="M199.682 23.906C199.579 23.906 199.49 23.8212 199.49 23.7133C199.49 23.6053 199.575 23.5205 199.682 23.5205L202.096 23.4974C202.188 23.482 202.288 23.5822 202.288 23.6901C202.288 23.798 202.204 23.8828 202.096 23.8828L199.682 23.906Z" fill="white"/>
<path d="M199.686 24.5264C199.582 24.5264 199.494 24.4417 199.494 24.3337C199.494 24.2258 199.579 24.141 199.686 24.141L202.1 24.1179C202.188 24.1179 202.292 24.2027 202.292 24.3106C202.292 24.4185 202.208 24.5033 202.1 24.5033L199.686 24.5264Z" fill="white"/>
<path d="M199.694 25.1469C199.59 25.1469 199.502 25.0621 199.502 24.9542C199.502 24.8463 199.586 24.7615 199.694 24.7615L202.108 24.7384C202.211 24.7384 202.3 24.8232 202.3 24.9311C202.3 25.039 202.215 25.1238 202.108 25.1238L199.694 25.1469Z" fill="white"/>
<path d="M174.36 25.7905C174.31 25.7905 174.264 25.7713 174.226 25.7366L173.339 24.8656C173.236 24.7615 173.232 24.5919 173.336 24.4879L174.172 23.6323C174.249 23.5552 174.368 23.5552 174.445 23.6323C174.521 23.7055 174.521 23.8288 174.445 23.9059L173.693 24.6767L174.495 25.4668C174.571 25.54 174.571 25.6634 174.495 25.7404C174.456 25.779 174.406 25.7982 174.356 25.7982L174.36 25.7905Z" fill="white"/>
<path opacity="0.36" d="M202.676 74.629L173.021 74.7986C172.307 74.8024 171.724 74.2243 171.72 73.5036L171.662 63.1825L203.908 63.0013L203.965 73.3225C203.969 74.0393 203.393 74.6251 202.676 74.629Z" fill="#599AF2"/>
<path d="M194.082 31.4028L181.129 31.4754C180.892 31.4768 180.7 31.6711 180.702 31.9095L180.71 33.3316C180.711 33.57 180.904 33.7622 181.142 33.7608L194.094 33.6882C194.332 33.6869 194.523 33.4925 194.522 33.2541L194.514 31.832C194.513 31.5936 194.319 31.4015 194.082 31.4028Z" fill="#4C65BA"/>
<path opacity="0.32" d="M177.091 39.0211L198.202 38.9027C199.204 38.897 200.022 39.7095 200.028 40.7154L200.03 41.1625C200.036 42.1684 199.227 42.99 198.225 42.9956L177.113 43.114C176.112 43.1196 175.294 42.3071 175.288 41.3012L175.286 40.8542C175.28 39.8483 176.089 39.0267 177.091 39.0211Z" fill="#599AF2"/>
<path opacity="0.43" d="M178.678 41.0718C178.682 41.7694 178.121 42.3359 177.431 42.3398C176.736 42.3436 176.172 41.7809 176.168 41.0872C176.164 40.3935 176.724 39.8231 177.415 39.8192C178.11 39.8154 178.674 40.3781 178.678 41.0718Z" fill="white"/>
<path d="M177.873 40.7134C177.873 40.9639 177.673 41.1682 177.424 41.1682C177.174 41.1682 176.971 40.9677 176.971 40.7172C176.971 40.4667 177.17 40.2625 177.42 40.2625C177.669 40.2625 177.873 40.4629 177.873 40.7134Z" fill="white"/>
<path d="M178.099 41.8888L176.76 41.8965V41.7308C176.76 41.3416 177.071 41.0217 177.458 41.0178C177.811 41.0178 178.095 41.2992 178.099 41.6537V41.8888Z" fill="white"/>
<path opacity="0.32" d="M177.128 45.6921L198.239 45.5737C199.241 45.5681 200.059 46.3805 200.065 47.3864L200.067 47.8335C200.073 48.8394 199.264 49.661 198.262 49.6666L177.151 49.785C176.149 49.7906 175.331 48.9782 175.325 47.9723L175.323 47.5252C175.317 46.5193 176.126 45.6977 177.128 45.6921Z" fill="#599AF2"/>
<path opacity="0.43" d="M178.715 47.7432C178.719 48.4408 178.159 49.0073 177.468 49.0112C176.773 49.015 176.209 48.4523 176.205 47.7586C176.201 47.061 176.762 46.4945 177.452 46.4906C178.147 46.4868 178.711 47.0495 178.715 47.7432Z" fill="white"/>
<path d="M177.035 47.5464L177.879 47.5417C177.948 47.5413 178.002 47.595 178.003 47.6643L178.007 48.4159C178.007 48.4852 177.954 48.5395 177.885 48.5399L177.04 48.5446C176.971 48.545 176.917 48.4913 176.917 48.422L176.913 47.6704C176.912 47.6011 176.966 47.5468 177.035 47.5464Z" fill="white"/>
<path d="M177.019 47.6353V47.3231C177.019 47.2422 177.05 47.1651 177.108 47.1034C177.165 47.0456 177.242 47.0109 177.323 47.0109H177.607C177.68 47.0109 177.749 47.0379 177.802 47.0919C177.856 47.1458 177.883 47.2152 177.883 47.2884V47.6314H177.791V47.2884C177.791 47.2383 177.768 47.1959 177.737 47.1612C177.703 47.1265 177.66 47.1073 177.61 47.1073H177.323C177.265 47.1073 177.211 47.1304 177.173 47.1728C177.135 47.2113 177.112 47.2653 177.112 47.3231V47.6353H177.016H177.019Z" fill="white"/>
<path d="M192.708 57.1162L183.601 57.1663C182.5 57.174 181.601 56.2799 181.594 55.1738C181.586 54.0677 182.477 53.1658 183.578 53.1581L192.685 53.108C193.787 53.1003 194.685 53.9944 194.692 55.1006C194.7 56.2067 193.81 57.1085 192.708 57.1162Z" fill="#F7A9B4"/>
<path d="M178.995 67.4412C178.784 67.4412 178.611 67.2716 178.611 67.0597C178.611 66.8477 178.78 66.6743 178.991 66.6704L196.615 66.5702C196.826 66.5702 196.998 66.7398 196.998 66.9517C196.998 67.1637 196.83 67.3371 196.619 67.341L178.995 67.4412Z" fill="white"/>
<path d="M182.581 70.1005C182.37 70.1005 182.197 69.9309 182.197 69.7189C182.197 69.5069 182.366 69.3335 182.577 69.3297L193.055 69.2719C193.266 69.2719 193.438 69.4414 193.438 69.6534C193.438 69.8654 193.269 70.0388 193.058 70.0427L182.581 70.1005Z" fill="white"/>
<path opacity="0.22" d="M181.474 58.2389L151.916 58.5446C151.189 58.5521 150.606 59.15 150.613 59.88L151.122 109.541C151.13 110.271 151.725 110.856 152.452 110.849L182.01 110.543C182.737 110.536 183.32 109.938 183.313 109.208L182.803 59.5471C182.796 58.8171 182.2 58.2314 181.474 58.2389Z" fill="#3E479B"/>
<path d="M179.712 55.9371L150.154 56.2427C149.427 56.2503 148.844 56.8482 148.851 57.5782L149.361 107.239C149.368 107.969 149.964 108.555 150.691 108.547L180.248 108.241C180.975 108.234 181.558 107.636 181.551 106.906L181.042 57.2453C181.034 56.5153 180.439 55.9296 179.712 55.9371Z" fill="white"/>
<path opacity="0.42" d="M179.712 55.9371L150.154 56.2427C149.427 56.2503 148.844 56.8482 148.851 57.5782L149.361 107.239C149.368 107.969 149.964 108.555 150.691 108.547L180.248 108.241C180.975 108.234 181.558 107.636 181.551 106.906L181.042 57.2453C181.034 56.5153 180.439 55.9296 179.712 55.9371Z" fill="#599AF2"/>
<path d="M181.145 57.2395L181.172 60.0183L148.98 60.3498L148.949 57.5055C148.942 56.804 149.502 56.2336 150.197 56.2259L179.798 55.9215C180.531 55.9138 181.13 56.5034 181.137 57.2395H181.145Z" fill="#599AF2"/>
<path d="M177.172 57.6173C177.069 57.6173 176.98 57.5325 176.98 57.4246C176.98 57.3167 177.065 57.2319 177.172 57.2319L179.586 57.2087C179.675 57.2087 179.778 57.2935 179.778 57.4014C179.778 57.5094 179.694 57.5941 179.586 57.5941L177.172 57.6173Z" fill="white"/>
<path d="M177.18 58.2378C177.077 58.2378 176.988 58.153 176.988 58.045C176.988 57.9371 177.073 57.8523 177.18 57.8523L179.594 57.8292C179.698 57.8292 179.786 57.914 179.786 58.0219C179.786 58.1298 179.702 58.2146 179.594 58.2146L177.18 58.2378Z" fill="white"/>
<path d="M177.184 58.8583C177.08 58.8583 176.992 58.7735 176.992 58.6656C176.992 58.5577 177.077 58.4729 177.184 58.4729L179.598 58.4498C179.702 58.4498 179.79 58.5346 179.79 58.6425C179.79 58.7504 179.706 58.8352 179.598 58.8352L177.184 58.8583Z" fill="white"/>
<path d="M151.851 59.5019C151.801 59.5019 151.755 59.4826 151.716 59.4479L150.83 58.5769C150.726 58.4729 150.722 58.3033 150.826 58.1992L151.662 57.3436C151.739 57.2666 151.858 57.2666 151.935 57.3436C152.012 57.4169 152.012 57.5402 151.935 57.6173L151.183 58.3881L151.985 59.1782C152.062 59.2514 152.062 59.3747 151.985 59.4518C151.946 59.4903 151.897 59.5096 151.847 59.5096L151.851 59.5019Z" fill="white"/>
<g opacity="0.36">
<path d="M180.17 108.34L150.515 108.51C149.801 108.514 149.218 107.936 149.214 107.215L149.156 96.8938L181.402 96.7126L181.459 107.034C181.463 107.751 180.888 108.336 180.17 108.34Z" fill="white"/>
<path d="M150.508 108.703C150.112 108.703 149.744 108.548 149.464 108.271C149.18 107.99 149.026 107.616 149.022 107.219L148.965 96.705L181.594 96.52L181.652 107.034C181.656 107.859 180.992 108.529 180.174 108.537L150.519 108.706H150.511L150.508 108.703ZM149.349 97.0904L149.406 107.219C149.406 107.516 149.525 107.793 149.732 108.001C149.94 108.209 150.216 108.321 150.508 108.321H150.515L180.17 108.151C180.777 108.151 181.272 107.647 181.268 107.038L181.21 96.9092L149.349 97.0904Z" fill="white"/>
</g>
<path d="M153.735 67.2291L153.738 64.9013C153.739 64.485 154.073 64.1502 154.487 64.1507L177.733 64.1792C178.148 64.1797 178.481 64.5154 178.481 64.9316L178.478 67.2595C178.477 67.6757 178.143 68.0106 177.729 68.0101L154.483 67.9816C154.068 67.9811 153.735 67.6454 153.735 67.2291Z" fill="white"/>
<path d="M177.842 70.9792L154.366 70.9484C154.016 70.9484 153.732 70.6632 153.732 70.3125C153.732 69.9618 154.016 69.6766 154.366 69.6766L177.842 69.7074C178.191 69.7074 178.475 69.9926 178.475 70.3433C178.475 70.694 178.191 70.9792 177.842 70.9792Z" fill="white"/>
<path d="M177.838 73.9083L154.362 73.8774C154.013 73.8774 153.729 73.5922 153.729 73.2415C153.729 72.8908 154.013 72.6056 154.362 72.6056L177.838 72.6364C178.187 72.6364 178.471 72.9216 178.471 73.2723C178.471 73.6231 178.187 73.9083 177.838 73.9083Z" fill="white"/>
<path d="M156.906 78.2017C156.906 79.0842 156.192 79.7972 155.313 79.7972C154.435 79.7972 153.725 79.0804 153.725 78.1978C153.725 77.3152 154.438 76.6022 155.317 76.6022C156.196 76.6022 156.906 77.3191 156.906 78.2017Z" fill="#F7A9B4"/>
<path d="M156.898 85.4473C156.898 86.3298 156.185 87.0428 155.306 87.0428C154.427 87.0428 153.717 86.326 153.717 85.4434C153.717 84.5608 154.431 83.8478 155.31 83.8478C156.188 83.8478 156.898 84.5647 156.898 85.4473Z" fill="#F7A9B4"/>
<path d="M156.891 92.4809C156.891 93.3635 156.177 94.0803 155.298 94.0765C154.419 94.0765 153.709 93.3596 153.709 92.477C153.709 91.5945 154.423 90.8815 155.302 90.8815C156.181 90.8815 156.891 91.5983 156.891 92.4809Z" fill="#F7A9B4"/>
<path d="M173.036 77.6351L157.807 77.6159C157.7 77.6159 157.615 77.5311 157.615 77.4232C157.615 77.3153 157.7 77.2305 157.807 77.2305L173.036 77.2497C173.143 77.2497 173.228 77.3345 173.228 77.4424C173.228 77.5504 173.143 77.6351 173.036 77.6351Z" fill="white"/>
<path d="M165.421 79.25L157.807 79.2423C157.7 79.2423 157.615 79.1575 157.615 79.0496C157.615 78.9417 157.7 78.8569 157.807 78.8569L165.421 78.8646C165.529 78.8646 165.613 78.9494 165.613 79.0573C165.613 79.1652 165.529 79.25 165.421 79.25Z" fill="white"/>
<path d="M173.028 85.1197L157.799 85.1004C157.692 85.1004 157.607 85.0156 157.607 84.9077C157.607 84.7998 157.692 84.715 157.799 84.715L173.028 84.7343C173.135 84.7343 173.22 84.8191 173.22 84.927C173.22 85.0349 173.135 85.1197 173.028 85.1197Z" fill="white"/>
<path d="M165.41 86.7345L157.795 86.7268C157.688 86.7268 157.604 86.642 157.604 86.5341C157.604 86.4262 157.688 86.3414 157.795 86.3414L165.41 86.3491C165.517 86.3491 165.602 86.4339 165.602 86.5418C165.602 86.6498 165.517 86.7345 165.41 86.7345Z" fill="white"/>
<path d="M173.02 91.9529L157.792 91.9336C157.684 91.9336 157.6 91.8488 157.6 91.7409C157.6 91.633 157.684 91.5482 157.792 91.5482L173.02 91.5675C173.128 91.5675 173.212 91.6523 173.212 91.7602C173.212 91.8681 173.128 91.9529 173.02 91.9529Z" fill="white"/>
<path d="M165.404 93.5677L157.79 93.56C157.682 93.56 157.598 93.4752 157.598 93.3673C157.598 93.2594 157.682 93.1746 157.79 93.1746L165.404 93.1823C165.511 93.1823 165.596 93.2671 165.596 93.375C165.596 93.4829 165.511 93.5677 165.404 93.5677Z" fill="white"/>
<path d="M156.487 101.153C156.276 101.153 156.104 100.983 156.104 100.771C156.104 100.559 156.272 100.386 156.483 100.382L174.107 100.281C174.318 100.281 174.491 100.451 174.491 100.663C174.491 100.875 174.322 101.048 174.111 101.052L156.487 101.153Z" fill="white"/>
<path d="M160.075 103.812C159.864 103.812 159.691 103.642 159.691 103.43C159.691 103.218 159.86 103.045 160.071 103.041L170.549 102.983C170.76 102.983 170.932 103.153 170.932 103.365C170.932 103.577 170.764 103.75 170.553 103.754L160.075 103.812Z" fill="white"/>
<path d="M113.049 39.7037H85.5359C85.1946 39.7037 84.918 39.9815 84.918 40.3242V48.356C84.918 48.6987 85.1946 48.9765 85.5359 48.9765H113.049C113.391 48.9765 113.667 48.6987 113.667 48.356V40.3242C113.667 39.9815 113.391 39.7037 113.049 39.7037Z" fill="#599AF2"/>
<path d="M89.7536 47.1497C88.1149 47.1497 86.7793 45.8123 86.7793 44.1628C86.7793 42.5133 88.1149 41.1759 89.7536 41.1759C91.3924 41.1759 92.728 42.5171 92.728 44.1628C92.728 45.8085 91.3924 47.1497 89.7536 47.1497Z" fill="#F7A9B4"/>
<path d="M89.4894 45.2843L88.3764 43.7389C88.2804 43.6078 88.3111 43.4228 88.4416 43.3265C88.5069 43.2802 88.5836 43.261 88.6604 43.2725C88.7371 43.2841 88.8062 43.3265 88.8523 43.392L89.5584 44.3748L93.0931 40.8252C93.1468 40.7712 93.2198 40.7404 93.3004 40.7404C93.3771 40.7404 93.4539 40.7712 93.5076 40.8252C93.6227 40.9408 93.6227 41.1258 93.5076 41.2414L89.4855 45.2805L89.4894 45.2843Z" fill="white"/>
<path opacity="0.38" d="M109.953 43.0027H95.2427C95.1352 43.0027 95.0508 42.9179 95.0508 42.81C95.0508 42.7021 95.1352 42.6173 95.2427 42.6173H109.953C110.061 42.6173 110.145 42.7021 110.145 42.81C110.145 42.9179 110.061 43.0027 109.953 43.0027Z" fill="white"/>
<path opacity="0.38" d="M101.817 44.7525H95.2427C95.1352 44.7525 95.0508 44.6677 95.0508 44.5598C95.0508 44.4519 95.1352 44.3671 95.2427 44.3671H101.817C101.924 44.3671 102.009 44.4519 102.009 44.5598C102.009 44.6677 101.924 44.7525 101.817 44.7525Z" fill="white"/>
<path opacity="0.38" d="M109.952 44.7525H103.377C103.27 44.7525 103.186 44.6677 103.186 44.5598C103.186 44.4519 103.27 44.3671 103.377 44.3671H109.952C110.059 44.3671 110.144 44.4519 110.144 44.5598C110.144 44.6677 110.059 44.7525 109.952 44.7525Z" fill="white"/>
<path opacity="0.38" d="M109.953 46.587H95.2427C95.1352 46.587 95.0508 46.5022 95.0508 46.3943C95.0508 46.2864 95.1352 46.2016 95.2427 46.2016H109.953C110.061 46.2016 110.145 46.2864 110.145 46.3943C110.145 46.5022 110.061 46.587 109.953 46.587Z" fill="white"/>
<path d="M218.28 82.3101H190.766C190.425 82.3101 190.148 82.5879 190.148 82.9306V90.9624C190.148 91.3051 190.425 91.5829 190.766 91.5829H218.28C218.621 91.5829 218.898 91.3051 218.898 90.9624V82.9306C218.898 82.5879 218.621 82.3101 218.28 82.3101Z" fill="#599AF2"/>
<path d="M194.984 89.7561C193.345 89.7561 192.01 88.4149 192.01 86.7692C192.01 85.1236 193.345 83.7823 194.984 83.7823C196.623 83.7823 197.958 85.1236 197.958 86.7692C197.958 88.4149 196.623 89.7561 194.984 89.7561Z" fill="#F7A9B4"/>
<path d="M194.719 87.8946L193.606 86.3491C193.56 86.2836 193.541 86.2065 193.552 86.1294C193.564 86.0524 193.606 85.983 193.671 85.9367C193.732 85.8905 193.809 85.8712 193.89 85.8828C193.967 85.8943 194.036 85.9367 194.082 86.0023L194.788 86.985L198.323 83.4355C198.438 83.3198 198.622 83.3198 198.737 83.4355C198.852 83.5511 198.852 83.7361 198.737 83.8517L194.715 87.8907L194.719 87.8946Z" fill="white"/>
<path opacity="0.38" d="M215.184 85.6092H200.473C200.366 85.6092 200.281 85.5244 200.281 85.4165C200.281 85.3085 200.366 85.2238 200.473 85.2238H215.184C215.291 85.2238 215.376 85.3085 215.376 85.4165C215.376 85.5244 215.291 85.6092 215.184 85.6092Z" fill="white"/>
<path opacity="0.38" d="M207.047 87.3628H200.473C200.366 87.3628 200.281 87.278 200.281 87.1701C200.281 87.0621 200.366 86.9774 200.473 86.9774H207.047C207.155 86.9774 207.239 87.0621 207.239 87.1701C207.239 87.278 207.155 87.3628 207.047 87.3628Z" fill="white"/>
<path opacity="0.38" d="M215.182 87.3628H208.608C208.5 87.3628 208.416 87.278 208.416 87.1701C208.416 87.0621 208.5 86.9774 208.608 86.9774H215.182C215.29 86.9774 215.374 87.0621 215.374 87.1701C215.374 87.278 215.29 87.3628 215.182 87.3628Z" fill="white"/>
<path opacity="0.38" d="M215.184 89.1973H200.473C200.366 89.1973 200.281 89.1125 200.281 89.0046C200.281 88.8967 200.366 88.8119 200.473 88.8119H215.184C215.291 88.8119 215.376 88.8967 215.376 89.0046C215.376 89.1125 215.291 89.1973 215.184 89.1973Z" fill="white"/>
</g>
<defs>
<clipPath id="clip0_897_23796">
<rect width="176.119" height="145.351" fill="white" transform="translate(52.0703 0.211304)"/>
</clipPath>
</defs>
</svg>
