<svg width="203" height="206" viewBox="0 0 203 206" fill="none" xmlns="http://www.w3.org/2000/svg">
<path d="M8.80664 163.919L3.1582 179.469H0.849609L7.35352 162.407H8.8418L8.80664 163.919ZM13.541 179.469L7.88086 163.919L7.8457 162.407H9.33398L15.8613 179.469H13.541ZM13.248 173.153V175.005H3.66211V173.153H13.248ZM22.3535 166.79V179.469H20.1738V166.79H22.3535ZM26.6074 166.79V168.548H16.002V166.79H26.6074ZM27.6738 173.27V173.001C27.6738 172.087 27.8066 171.239 28.0723 170.458C28.3379 169.669 28.7207 168.985 29.2207 168.407C29.7207 167.821 30.3262 167.368 31.0371 167.048C31.748 166.719 32.5449 166.555 33.4277 166.555C34.3184 166.555 35.1191 166.719 35.8301 167.048C36.5488 167.368 37.1582 167.821 37.6582 168.407C38.166 168.985 38.5527 169.669 38.8184 170.458C39.084 171.239 39.2168 172.087 39.2168 173.001V173.27C39.2168 174.184 39.084 175.032 38.8184 175.813C38.5527 176.594 38.166 177.278 37.6582 177.864C37.1582 178.442 36.5527 178.895 35.8418 179.223C35.1387 179.544 34.3418 179.704 33.4512 179.704C32.5605 179.704 31.7598 179.544 31.0488 179.223C30.3379 178.895 29.7285 178.442 29.2207 177.864C28.7207 177.278 28.3379 176.594 28.0723 175.813C27.8066 175.032 27.6738 174.184 27.6738 173.27ZM29.8418 173.001V173.27C29.8418 173.903 29.916 174.501 30.0645 175.063C30.2129 175.618 30.4355 176.11 30.7324 176.54C31.0371 176.969 31.416 177.309 31.8691 177.559C32.3223 177.802 32.8496 177.923 33.4512 177.923C34.0449 177.923 34.5645 177.802 35.0098 177.559C35.4629 177.309 35.8379 176.969 36.1348 176.54C36.4316 176.11 36.6543 175.618 36.8027 175.063C36.959 174.501 37.0371 173.903 37.0371 173.27V173.001C37.0371 172.376 36.959 171.786 36.8027 171.231C36.6543 170.669 36.4277 170.173 36.123 169.743C35.8262 169.305 35.4512 168.962 34.998 168.712C34.5527 168.462 34.0293 168.337 33.4277 168.337C32.834 168.337 32.3105 168.462 31.8574 168.712C31.4121 168.962 31.0371 169.305 30.7324 169.743C30.4355 170.173 30.2129 170.669 30.0645 171.231C29.916 171.786 29.8418 172.376 29.8418 173.001ZM49.2246 176.587L53.5371 166.79H55.623L49.9746 179.469H48.4746L42.8496 166.79H44.9355L49.2246 176.587ZM44.3027 166.79V179.469H42.1348V166.79H44.3027ZM54.0762 179.469V166.79H56.2559V179.469H54.0762ZM68.3496 172.286V174.044H61.6465V172.286H68.3496ZM62.1035 166.79V179.469H59.9355V166.79H62.1035ZM70.1074 166.79V179.469H67.9277V166.79H70.1074ZM75.3809 171.149H79.1895C80.2129 171.149 81.0762 171.329 81.7793 171.688C82.4824 172.04 83.0137 172.528 83.373 173.153C83.7402 173.77 83.9238 174.473 83.9238 175.262C83.9238 175.848 83.8223 176.399 83.6191 176.915C83.416 177.423 83.1113 177.868 82.7051 178.251C82.3066 178.634 81.8105 178.934 81.2168 179.153C80.6309 179.364 79.9551 179.469 79.1895 179.469H73.7988V166.79H75.9668V177.688H79.1895C79.8145 177.688 80.3145 177.575 80.6895 177.348C81.0645 177.122 81.334 176.829 81.498 176.469C81.6621 176.11 81.7441 175.735 81.7441 175.344C81.7441 174.962 81.6621 174.587 81.498 174.219C81.334 173.852 81.0645 173.548 80.6895 173.305C80.3145 173.055 79.8145 172.93 79.1895 172.93H75.3809V171.149ZM88.4355 166.79V179.469H86.2676V166.79H88.4355ZM97.4941 179.704C96.6113 179.704 95.8105 179.555 95.0918 179.259C94.3809 178.954 93.7676 178.528 93.252 177.981C92.7441 177.434 92.3535 176.786 92.0801 176.036C91.8066 175.286 91.6699 174.466 91.6699 173.575V173.083C91.6699 172.052 91.8223 171.134 92.127 170.329C92.4316 169.516 92.8457 168.829 93.3691 168.266C93.8926 167.704 94.4863 167.278 95.1504 166.989C95.8145 166.7 96.502 166.555 97.2129 166.555C98.1191 166.555 98.9004 166.712 99.5566 167.024C100.221 167.337 100.764 167.774 101.186 168.337C101.607 168.891 101.92 169.548 102.123 170.305C102.326 171.055 102.428 171.876 102.428 172.766V173.739H92.959V171.969H100.26V171.805C100.229 171.243 100.111 170.696 99.9082 170.165C99.7129 169.634 99.4004 169.196 98.9707 168.852C98.541 168.509 97.9551 168.337 97.2129 168.337C96.7207 168.337 96.2676 168.442 95.8535 168.653C95.4395 168.856 95.084 169.161 94.7871 169.567C94.4902 169.973 94.2598 170.469 94.0957 171.055C93.9316 171.641 93.8496 172.317 93.8496 173.083V173.575C93.8496 174.177 93.9316 174.743 94.0957 175.274C94.2676 175.798 94.5137 176.259 94.834 176.657C95.1621 177.055 95.5566 177.368 96.0176 177.594C96.4863 177.821 97.0176 177.934 97.6113 177.934C98.377 177.934 99.0254 177.778 99.5566 177.466C100.088 177.153 100.553 176.735 100.951 176.212L102.264 177.255C101.99 177.669 101.643 178.063 101.221 178.438C100.799 178.813 100.279 179.118 99.6621 179.352C99.0527 179.587 98.3301 179.704 97.4941 179.704ZM115.986 177.923C116.502 177.923 116.979 177.817 117.416 177.606C117.854 177.395 118.213 177.106 118.494 176.739C118.775 176.364 118.936 175.938 118.975 175.462H121.037C120.998 176.212 120.744 176.911 120.275 177.559C119.814 178.2 119.209 178.719 118.459 179.118C117.709 179.509 116.885 179.704 115.986 179.704C115.033 179.704 114.201 179.536 113.49 179.2C112.787 178.864 112.201 178.403 111.732 177.817C111.271 177.231 110.924 176.559 110.689 175.802C110.463 175.036 110.35 174.227 110.35 173.376V172.884C110.35 172.032 110.463 171.227 110.689 170.469C110.924 169.704 111.271 169.028 111.732 168.442C112.201 167.856 112.787 167.395 113.49 167.059C114.201 166.723 115.033 166.555 115.986 166.555C116.979 166.555 117.846 166.759 118.588 167.165C119.33 167.563 119.912 168.11 120.334 168.805C120.764 169.493 120.998 170.274 121.037 171.149H118.975C118.936 170.626 118.787 170.153 118.529 169.731C118.279 169.309 117.936 168.973 117.498 168.723C117.068 168.466 116.564 168.337 115.986 168.337C115.322 168.337 114.764 168.469 114.311 168.735C113.865 168.993 113.51 169.344 113.244 169.79C112.986 170.227 112.799 170.716 112.682 171.255C112.572 171.786 112.518 172.329 112.518 172.884V173.376C112.518 173.93 112.572 174.477 112.682 175.016C112.791 175.555 112.975 176.044 113.232 176.481C113.498 176.919 113.854 177.27 114.299 177.536C114.752 177.794 115.314 177.923 115.986 177.923ZM128.643 166.79V179.469H126.463V166.79H128.643ZM132.896 166.79V168.548H122.291V166.79H132.896ZM142.318 177.302V170.774C142.318 170.274 142.217 169.841 142.014 169.473C141.818 169.098 141.521 168.809 141.123 168.606C140.725 168.403 140.232 168.302 139.646 168.302C139.1 168.302 138.619 168.395 138.205 168.583C137.799 168.77 137.479 169.016 137.244 169.321C137.018 169.626 136.904 169.954 136.904 170.305H134.736C134.736 169.852 134.854 169.403 135.088 168.958C135.322 168.512 135.658 168.11 136.096 167.751C136.541 167.384 137.072 167.094 137.689 166.884C138.314 166.665 139.01 166.555 139.775 166.555C140.697 166.555 141.51 166.712 142.213 167.024C142.924 167.337 143.479 167.809 143.877 168.442C144.283 169.067 144.486 169.852 144.486 170.798V176.704C144.486 177.126 144.521 177.575 144.592 178.052C144.67 178.528 144.783 178.938 144.932 179.282V179.469H142.67C142.561 179.219 142.475 178.887 142.412 178.473C142.35 178.052 142.318 177.661 142.318 177.302ZM142.693 171.782L142.717 173.305H140.525C139.908 173.305 139.357 173.356 138.873 173.458C138.389 173.552 137.982 173.696 137.654 173.891C137.326 174.087 137.076 174.333 136.904 174.63C136.732 174.919 136.646 175.259 136.646 175.649C136.646 176.048 136.736 176.411 136.916 176.739C137.096 177.067 137.365 177.329 137.725 177.524C138.092 177.712 138.541 177.805 139.072 177.805C139.736 177.805 140.322 177.665 140.83 177.384C141.338 177.102 141.74 176.759 142.037 176.352C142.342 175.946 142.506 175.552 142.529 175.169L143.455 176.212C143.4 176.54 143.252 176.903 143.01 177.302C142.768 177.7 142.443 178.083 142.037 178.45C141.639 178.809 141.162 179.11 140.607 179.352C140.061 179.587 139.443 179.704 138.756 179.704C137.896 179.704 137.143 179.536 136.494 179.2C135.854 178.864 135.354 178.415 134.994 177.852C134.643 177.282 134.467 176.645 134.467 175.942C134.467 175.262 134.6 174.665 134.865 174.149C135.131 173.626 135.514 173.192 136.014 172.848C136.514 172.497 137.115 172.231 137.818 172.052C138.521 171.872 139.307 171.782 140.174 171.782H142.693ZM156.498 172.286V174.044H149.795V172.286H156.498ZM150.252 166.79V179.469H148.084V166.79H150.252ZM158.256 166.79V179.469H156.076V166.79H158.256ZM161.936 179.469V166.79H164.104V177.688H169.939V166.79H172.119V179.469H161.936ZM173.619 177.688L173.408 183.231H171.475V179.469H169.822V177.688H173.619ZM178.318 176.036L184.166 166.79H186.346V179.469H184.166V170.223L178.318 179.469H176.162V166.79H178.318V176.036ZM192.17 176.036L198.018 166.79H200.197V179.469H198.018V170.223L192.17 179.469H190.014V166.79H192.17V176.036Z" fill="black"/>
<g clip-path="url(#clip0_897_25169)">
<g style="mix-blend-mode:multiply" opacity="0.4">
<path d="M105.717 149.843C151.149 149.843 187.979 128.491 187.979 102.153C187.979 75.8147 151.149 54.4633 105.717 54.4633C60.2851 54.4633 23.4551 75.8147 23.4551 102.153C23.4551 128.491 60.2851 149.843 105.717 149.843Z" fill="#13515B"/>
</g>
<path d="M105.717 138.468C151.149 138.468 187.979 117.116 187.979 90.7782C187.979 64.4399 151.149 43.0884 105.717 43.0884C60.2851 43.0884 23.4551 64.4399 23.4551 90.7782C23.4551 117.116 60.2851 138.468 105.717 138.468Z" fill="#CCC6BA"/>
<mask id="mask0_897_25169" style="mask-type:luminance" maskUnits="userSpaceOnUse" x="23" y="43" width="165" height="96">
<path d="M105.717 138.468C151.149 138.468 187.979 117.116 187.979 90.7782C187.979 64.4399 151.149 43.0884 105.717 43.0884C60.2851 43.0884 23.4551 64.4399 23.4551 90.7782C23.4551 117.116 60.2851 138.468 105.717 138.468Z" fill="white"/>
</mask>
<g mask="url(#mask0_897_25169)">
<g style="mix-blend-mode:multiply">
<path d="M125.78 116.836L124.586 102.423L117.297 101.802L93.931 108.715L89.1465 118.467L94.9454 124.191H106.759L108.994 120.324H113.428L112.513 116.836H125.78Z" fill="#CCC6BA"/>
</g>
<g style="mix-blend-mode:multiply">
<path d="M91.1205 119.278C91.1744 118.657 90.6986 118.341 89.8728 118.341H85.3396L80.7256 115.051C81.1295 114.546 81.3988 114.06 81.4257 113.663C81.4796 113.041 81.0038 112.726 80.178 112.726L59.1098 112.762C58.3019 112.762 57.1618 113.068 55.8782 113.681C53.3019 114.916 51.1205 116.926 51.0218 118.17C50.9589 118.882 51.6053 119.179 52.6376 119.08C52.5119 119.089 52.3773 119.116 52.2606 119.116L66.0218 119.089C65.8692 119.152 65.7166 119.215 65.555 119.287C62.9787 120.522 60.7974 122.532 60.6986 123.776C60.6358 124.488 61.2821 124.786 62.3234 124.686C62.1977 124.695 62.0631 124.723 61.9464 124.723L80.169 124.695L85.4652 127.769H89.1457L90.2229 121.847L89.6663 121.451C90.5011 120.666 91.0397 119.882 91.0936 119.278H91.1205Z" fill="#CCC6BA"/>
</g>
<g style="mix-blend-mode:multiply">
<path d="M110.977 69.5787C112.01 64.2338 106.543 62.4942 97.6291 64.3961C95.0618 64.9369 92.6291 65.4506 89.0295 66.1266C84.4873 66.9829 81.0941 67.5147 81.0582 67.5237C78.1946 67.9653 75.7171 68.3529 73.5986 68.6143C71.534 68.8667 68.805 69.1821 66.7673 69.4075C65.6812 69.5247 64.2539 69.6508 63.1946 69.732C61.3454 69.8762 44.8104 72.436 24.8374 72.0214L1.49805 95.7355C2.82659 95.7355 15.5914 95.7536 16.8751 95.7716C24.1372 95.8978 28.437 96.2493 31.6776 96.5828C32.5304 96.6729 33.6524 96.7991 34.4603 96.9163C35.9774 97.1416 37.9702 97.4571 39.4424 97.7185C41.0223 97.9979 42.8625 98.4486 44.3347 98.8181C44.3526 98.8181 46.498 99.3048 49.2 100.233C51.4532 101.008 109.487 77.3302 110.986 69.5787H110.977Z" fill="#CCC6BA"/>
</g>
<path d="M132.109 127.093L96.9382 147.481L85.8789 141.073L121.049 120.685L132.109 127.093Z" fill="#7EA33D"/>
<path d="M201.497 86.8664L166.327 107.264L155.268 100.846L190.438 80.4579L201.497 86.8664Z" fill="#7EA33D"/>
</g>
<path d="M123.788 63.4136L123.151 60.1508C123.995 64.4682 121.517 68.9478 115.745 72.2016C105.862 77.7719 90.0539 77.6097 80.4399 71.8411C74.991 68.5692 72.702 64.1978 73.5458 60.0156C73.3303 61.0972 73.1059 62.1878 72.8905 63.2694C72.0287 67.5688 74.3716 72.0484 79.9641 75.4104C89.8205 81.3322 106.041 81.4944 116.185 75.7799C122.101 72.445 124.65 67.8482 123.779 63.4136H123.788Z" fill="url(#paint0_linear_897_25169)"/>
<path d="M123.304 61.8243C123.327 53.8049 112.168 47.2725 98.3807 47.2339C84.5935 47.1952 73.3986 53.6649 73.3763 61.6844C73.354 69.7038 84.5127 76.2362 98.2999 76.2748C112.087 76.3135 123.282 69.8438 123.304 61.8243Z" fill="#5F5F64"/>
<path d="M112.72 36.3555C112.783 34.2193 111.436 32.0561 108.672 30.3976C103.16 27.0897 94.0934 26.9996 88.4202 30.1903C85.4758 31.8488 84.0306 34.0661 84.0845 36.2743C83.9678 31.5874 83.86 26.9095 83.7433 22.2225C83.7344 21.8349 83.7254 21.3302 83.7164 20.9426C83.6985 20.1765 83.6715 19.158 83.6536 18.3918C83.6446 18.0042 83.6356 17.4995 83.6266 17.1119C83.5997 15.832 83.5638 14.5611 83.5369 13.2812C83.5189 12.5151 83.483 11.4966 83.474 10.7305C83.4202 8.41402 84.9372 6.08857 88.0162 4.35801C93.9588 1.00503 103.465 1.10418 109.237 4.57433C112.137 6.31391 113.546 8.57626 113.483 10.8206C113.232 19.3382 112.98 27.8468 112.72 36.3645V36.3555Z" fill="url(#paint1_linear_897_25169)"/>
<path d="M112.397 10.6674C112.397 8.63033 111.095 6.5843 108.456 4.99795C103.097 1.78017 94.2729 1.69004 88.7522 4.79965C85.9515 6.37699 84.5332 8.47711 84.5332 10.5862V9.92826C84.5332 7.81913 85.9515 5.71902 88.7522 4.14168C94.2729 1.03206 103.088 1.1222 108.456 4.33997C111.095 5.92632 112.406 7.97236 112.397 10.0094C112.397 10.2077 112.397 10.4691 112.397 10.6674Z" fill="url(#paint2_linear_897_25169)"/>
<path d="M121.293 57.0862C120.629 55.7072 120.01 54.4092 119.175 52.4083C118.125 49.8936 117.478 47.9196 117.469 47.9016C116.931 46.2341 116.464 44.792 116.141 43.5031C115.827 42.2502 115.441 40.5647 115.18 39.3028C115.037 38.6268 114.884 37.7165 114.776 37.0315C114.355 34.2644 113.951 30.9835 113.825 25.7828C113.735 21.862 113.825 17.6437 114.148 10.2347C114.049 12.5331 112.46 14.8135 109.399 16.5351C103.188 20.0413 93.2414 19.9331 87.2001 16.3097C84.3276 14.5792 82.8464 12.3709 82.7657 10.1446C83.017 17.0218 83.1247 21.3122 83.008 25.6205C82.8554 30.8753 82.4245 34.2283 82.0116 36.8061C81.9039 37.4821 81.7513 38.3835 81.6077 39.0505C81.3384 40.3123 80.9434 41.9888 80.6292 43.2417C80.2881 44.5937 79.7405 46.2702 79.2917 47.6222C79.2917 47.6402 78.6364 49.5961 77.5053 52.2821C76.5628 54.5174 75.6651 56.3471 75.3599 56.951C73.0709 61.5749 74.9919 66.7756 81.1858 70.4891C90.3779 76.0053 105.495 76.1585 114.947 70.8316C121.464 67.1542 123.592 61.8363 121.276 57.0772L121.293 57.0862Z" fill="url(#paint3_linear_897_25169)"/>
<path d="M109.408 16.5351C103.196 20.0413 93.2503 19.9331 87.209 16.3097C81.1677 12.6864 81.3113 6.89978 87.5232 3.4026C93.735 -0.103605 103.681 0.0045557 109.722 3.62793C115.764 7.2513 115.62 13.0379 109.408 16.5351ZM108.178 15.796C113.699 12.6864 113.825 7.55776 108.457 4.33999C103.098 1.12221 94.2736 1.03208 88.753 4.14169C83.2323 7.2513 83.1066 12.3799 88.4747 15.5977C93.8337 18.8155 102.658 18.9056 108.178 15.796Z" fill="#F2ECDD"/>
<path d="M86.0948 85.262L85.4575 81.9992C86.3013 86.3166 83.8237 90.7962 78.0517 94.05C68.1684 99.6203 52.3605 99.4581 42.7465 93.6895C37.2977 90.4176 35.0086 86.0462 35.8524 81.864C35.637 82.9456 35.4126 84.0362 35.1971 85.1178C34.3354 89.4172 36.6783 93.8968 42.2707 97.2588C52.1271 103.181 68.3479 103.343 78.4916 97.6283C84.4072 94.2934 86.9566 89.6966 86.0858 85.271L86.0948 85.262Z" fill="url(#paint4_linear_897_25169)"/>
<path d="M85.6129 83.6705C85.6352 75.6511 74.4765 69.1187 60.6893 69.0801C46.9021 69.0414 35.7072 75.5111 35.6849 83.5305C35.6626 91.55 46.8213 98.0824 60.6085 98.121C74.3958 98.1597 85.5906 91.69 85.6129 83.6705Z" fill="#5F5F64"/>
<path d="M75.0266 58.2039C75.0895 56.0677 73.743 53.9045 70.9782 52.246C65.4665 48.9381 56.4001 48.848 50.7268 52.0387C47.7825 53.6972 46.3372 55.9145 46.3911 58.1227C46.2744 53.4358 46.1667 48.7578 46.05 44.0709C46.041 43.6833 46.032 43.1786 46.023 42.791C46.0051 42.0249 45.9782 41.0063 45.9602 40.2402C45.9512 39.8526 45.9423 39.3479 45.9333 38.9603C45.9064 37.6804 45.8704 36.4095 45.8435 35.1296C45.8256 34.3635 45.7897 33.345 45.7807 32.5788C45.7268 30.2624 47.2439 27.937 50.3229 26.2064C56.2654 22.8534 65.7717 22.9526 71.5437 26.4227C74.4432 28.1623 75.8525 30.4247 75.7897 32.669C75.5383 41.1866 75.287 49.6952 75.0266 58.2129V58.2039Z" fill="url(#paint5_linear_897_25169)"/>
<path d="M74.7034 32.5248C74.7034 30.4878 73.4018 28.4417 70.7626 26.8554C65.4036 23.6376 56.5795 23.5475 51.0589 26.6571C48.2582 28.2344 46.8398 30.3345 46.8398 32.4437V31.7857C46.8398 29.6766 48.2582 27.5764 51.0589 25.9991C56.5795 22.8895 65.3946 22.9796 70.7626 26.1974C73.4018 27.7837 74.7124 29.8298 74.7034 31.8668C74.7034 32.0651 74.7034 32.3265 74.7034 32.5248Z" fill="url(#paint6_linear_897_25169)"/>
<path d="M83.6001 78.9346C82.9359 77.5556 82.3165 76.2576 81.4816 74.2567C80.4314 71.7419 79.785 69.768 79.7761 69.75C79.2375 68.0825 78.7707 66.6404 78.4475 65.3515C78.1333 64.0986 77.7473 62.4131 77.487 61.1512C77.3434 60.4752 77.1908 59.5649 77.0831 58.8799C76.6612 56.1128 76.2572 52.8319 76.1315 47.6312C76.0418 43.7104 76.1315 39.4921 76.4547 32.0831C76.356 34.3815 74.7671 36.6619 71.706 38.3835C65.4942 41.8897 55.5481 41.7815 49.5068 38.1581C46.6342 36.4276 45.1531 34.2193 45.0723 31.993C45.3236 38.8702 45.4314 43.1605 45.3147 47.4689C45.1621 52.7237 44.7312 56.0767 44.3183 58.6545C44.2105 59.3305 44.0579 60.2319 43.9143 60.8989C43.645 62.1607 43.25 63.8372 42.9358 65.0901C42.5947 66.4421 42.0472 68.1186 41.5983 69.4706C41.5983 69.4886 40.943 71.4445 39.812 74.1305C38.8694 76.3658 37.9718 78.1955 37.6666 78.7994C35.3775 83.4233 37.2985 88.624 43.4924 92.3375C52.6845 97.8537 67.8012 98.0069 77.2536 92.68C83.7707 89.0025 85.8982 83.6847 83.5822 78.9256L83.6001 78.9346Z" fill="url(#paint7_linear_897_25169)"/>
<path d="M71.7149 38.3925C65.503 41.8987 55.5569 41.7905 49.5156 38.1672C43.4743 34.5438 43.6179 28.7572 49.8298 25.26C56.0416 21.7538 65.9878 21.862 72.0291 25.4854C78.0704 29.1087 77.9267 34.8953 71.7149 38.3925ZM70.4851 37.6534C76.0057 34.5438 76.1314 29.4152 70.7634 26.1974C65.4043 22.9796 56.5802 22.8895 51.0596 25.9991C45.5389 29.1087 45.4133 34.2373 50.7813 37.4551C56.1404 40.6729 64.9644 40.763 70.4851 37.6534Z" fill="#F2ECDD"/>
<path d="M137.297 59.7271V76.6722L158.706 89.1197V72.1746L137.297 59.7271Z" fill="#3B3B3F"/>
<path d="M158.707 72.1746V89.1197L171.427 81.7468V64.8016L158.707 72.1746Z" fill="#48484D"/>
<path d="M137.297 59.7271L158.706 72.1746L171.426 64.8016L150.017 52.3542L137.297 59.7271Z" fill="#5F5F64"/>
<path d="M156.569 11.0099C157.691 11.6679 159.514 11.6679 160.636 11.0099C161.201 10.6854 161.479 10.2528 161.479 9.82013V64.8648C161.479 65.2974 161.201 65.721 160.636 66.0545C159.505 66.7125 157.691 66.7125 156.569 66.0545C156.013 65.7301 155.734 65.3064 155.734 64.8828V9.83816C155.734 10.2618 156.013 10.6854 156.569 11.0099Z" fill="url(#paint8_linear_897_25169)"/>
<path d="M156.587 8.63937C155.456 9.29735 155.456 10.3519 156.569 11.0009C157.691 11.6589 159.513 11.6589 160.635 11.0009C161.757 10.3519 161.766 9.28833 160.635 8.63937C159.522 7.99041 157.7 7.99041 156.578 8.63937H156.587Z" fill="#F2ECDD"/>
<path opacity="0.9" d="M156.991 8.88274C156.084 9.40552 156.084 10.2528 156.973 10.7756C157.871 11.2983 159.325 11.2983 160.231 10.7756C161.129 10.2528 161.138 9.40552 160.231 8.88274C159.334 8.35997 157.88 8.35997 156.982 8.88274H156.991Z" fill="url(#paint9_linear_897_25169)"/>
<path d="M155.734 17.5806C155.734 18.0043 156.013 18.4279 156.569 18.7524C157.691 19.4104 159.514 19.4104 160.636 18.7524C161.201 18.4279 161.479 17.9953 161.479 17.5626V15.4535C161.479 15.8861 161.201 16.3098 160.636 16.6433C159.505 17.3012 157.691 17.3012 156.569 16.6433C156.013 16.3188 155.734 15.8951 155.734 15.4715V17.5806ZM155.734 23.214C155.734 23.6376 156.013 24.0613 156.569 24.3857C157.691 25.0437 159.514 25.0437 160.636 24.3857C161.201 24.0613 161.479 23.6286 161.479 23.196V21.0868C161.479 21.5195 161.201 21.9431 160.636 22.2766C159.505 22.9346 157.691 22.9346 156.569 22.2766C156.013 21.9521 155.734 21.5285 155.734 21.1049V23.214ZM155.734 28.8474C155.734 29.271 156.013 29.6946 156.569 30.0191C157.691 30.6771 159.514 30.6771 160.636 30.0191C161.201 29.6946 161.479 29.262 161.479 28.8293V26.7202C161.479 27.1528 161.201 27.5765 160.636 27.91C159.505 28.5679 157.691 28.5679 156.569 27.91C156.013 27.5855 155.734 27.1619 155.734 26.7382V28.8474ZM155.734 34.4807C155.734 34.9043 156.013 35.328 156.569 35.6525C157.691 36.3104 159.514 36.3104 160.636 35.6525C161.201 35.328 161.479 34.8953 161.479 34.4627V32.3536C161.479 32.7862 161.201 33.2098 160.636 33.5433C159.505 34.2013 157.691 34.2013 156.569 33.5433C156.013 33.2188 155.734 32.7952 155.734 32.3716V34.4807ZM155.734 40.1141C155.734 40.5377 156.013 40.9613 156.569 41.2858C157.691 41.9438 159.514 41.9438 160.636 41.2858C161.201 40.9613 161.479 40.5287 161.479 40.096V37.9869C161.479 38.4196 161.201 38.8432 160.636 39.1767C159.505 39.8347 157.691 39.8347 156.569 39.1767C156.013 38.8522 155.734 38.4286 155.734 38.0049V40.1141ZM155.734 45.7474C155.734 46.1711 156.013 46.5947 156.569 46.9192C157.691 47.5771 159.514 47.5771 160.636 46.9192C161.201 46.5947 161.479 46.162 161.479 45.7294V43.6203C161.479 44.0529 161.201 44.4765 160.636 44.81C159.505 45.468 157.691 45.468 156.569 44.81C156.013 44.4855 155.734 44.0619 155.734 43.6383V45.7474ZM155.734 51.3808C155.734 51.8044 156.013 52.228 156.569 52.5525C157.691 53.2105 159.514 53.2105 160.636 52.5525C161.201 52.228 161.479 51.7954 161.479 51.3628V49.2536C161.479 49.6863 161.201 50.1099 160.636 50.4434C159.505 51.1014 157.691 51.1014 156.569 50.4434C156.013 50.1189 155.734 49.6953 155.734 49.2716V51.3808ZM155.734 57.0141C155.734 57.4378 156.013 57.8614 156.569 58.1859C157.691 58.8438 159.514 58.8438 160.636 58.1859C161.201 57.8614 161.479 57.4287 161.479 56.9961V54.887C161.479 55.3196 161.201 55.7432 160.636 56.0767C159.505 56.7347 157.691 56.7347 156.569 56.0767C156.013 55.7523 155.734 55.3286 155.734 54.905V57.0141ZM155.734 62.6475C155.734 63.0711 156.013 63.4947 156.569 63.8192C157.691 64.4772 159.514 64.4772 160.636 63.8192C161.201 63.4947 161.479 63.0621 161.479 62.6295V60.5203C161.479 60.953 161.201 61.3766 160.636 61.7101C159.505 62.3681 157.691 62.3681 156.569 61.7101C156.013 61.3856 155.734 60.962 155.734 60.5384V62.6475Z" fill="url(#paint10_linear_897_25169)"/>
<path d="M146.929 5.42158C148.051 6.07955 149.873 6.07955 150.995 5.42158C151.561 5.09709 151.839 4.66445 151.839 4.23181V59.2765C151.839 59.7091 151.561 60.1327 150.995 60.4662C149.864 61.1242 148.051 61.1242 146.929 60.4662C146.372 60.1417 146.094 59.7181 146.094 59.2945V4.24984C146.094 4.67347 146.372 5.09709 146.929 5.42158Z" fill="url(#paint11_linear_897_25169)"/>
<path d="M146.946 3.05105C145.815 3.70903 145.815 4.76359 146.928 5.41256C148.05 6.07053 149.873 6.07053 150.995 5.41256C152.117 4.76359 152.126 3.70002 150.995 3.05105C149.882 2.40209 148.059 2.40209 146.937 3.05105H146.946Z" fill="#F2ECDD"/>
<path opacity="0.9" d="M147.35 3.28539C146.444 3.80817 146.444 4.65542 147.332 5.1782C148.23 5.70097 149.684 5.70097 150.591 5.1782C151.488 4.65542 151.497 3.80817 150.591 3.28539C149.693 2.76262 148.239 2.76262 147.341 3.28539H147.35Z" fill="url(#paint12_linear_897_25169)"/>
<path d="M146.094 11.9923C146.094 12.416 146.372 12.8396 146.929 13.1641C148.051 13.822 149.873 13.822 150.995 13.1641C151.561 12.8396 151.839 12.4069 151.839 11.9743V9.86517C151.839 10.2978 151.561 10.7214 150.995 11.0549C149.864 11.7129 148.051 11.7129 146.929 11.0549C146.372 10.7305 146.094 10.3068 146.094 9.8832V11.9923ZM146.094 17.6257C146.094 18.0493 146.372 18.4729 146.929 18.7974C148.051 19.4554 149.873 19.4554 150.995 18.7974C151.561 18.4729 151.839 18.0403 151.839 17.6077V15.4985C151.839 15.9312 151.561 16.3548 150.995 16.6883C149.864 17.3463 148.051 17.3463 146.929 16.6883C146.372 16.3638 146.094 15.9402 146.094 15.5166V17.6257ZM146.094 23.259C146.094 23.6827 146.372 24.1063 146.929 24.4308C148.051 25.0888 149.873 25.0888 150.995 24.4308C151.561 24.1063 151.839 23.6737 151.839 23.241V21.1319C151.839 21.5645 151.561 21.9882 150.995 22.3216C149.864 22.9796 148.051 22.9796 146.929 22.3216C146.372 21.9972 146.094 21.5735 146.094 21.1499V23.259ZM146.094 28.8924C146.094 29.316 146.372 29.7397 146.929 30.0641C148.051 30.7221 149.873 30.7221 150.995 30.0641C151.561 29.7397 151.839 29.307 151.839 28.8744V26.7652C151.839 27.1979 151.561 27.6215 150.995 27.955C149.864 28.613 148.051 28.613 146.929 27.955C146.372 27.6305 146.094 27.2069 146.094 26.7833V28.8924ZM146.094 34.5257C146.094 34.9494 146.372 35.373 146.929 35.6975C148.051 36.3555 149.873 36.3555 150.995 35.6975C151.561 35.373 151.839 34.9404 151.839 34.5077V32.3986C151.839 32.8312 151.561 33.2549 150.995 33.5884C149.864 34.2463 148.051 34.2463 146.929 33.5884C146.372 33.2639 146.094 32.8403 146.094 32.4166V34.5257ZM146.094 40.1591C146.094 40.5827 146.372 41.0064 146.929 41.3308C148.051 41.9888 149.873 41.9888 150.995 41.3308C151.561 41.0064 151.839 40.5737 151.839 40.1411V38.0319C151.839 38.4646 151.561 38.8882 150.995 39.2217C149.864 39.8797 148.051 39.8797 146.929 39.2217C146.372 38.8972 146.094 38.4736 146.094 38.05V40.1591ZM146.094 45.7925C146.094 46.2161 146.372 46.6397 146.929 46.9642C148.051 47.6222 149.873 47.6222 150.995 46.9642C151.561 46.6397 151.839 46.2071 151.839 45.7744V43.6653C151.839 44.0979 151.561 44.5216 150.995 44.8551C149.864 45.513 148.051 45.513 146.929 44.8551C146.372 44.5306 146.094 44.107 146.094 43.6833V45.7925ZM146.094 51.4258C146.094 51.8494 146.372 52.2731 146.929 52.5976C148.051 53.2555 149.873 53.2555 150.995 52.5976C151.561 52.2731 151.839 51.8404 151.839 51.4078V49.2987C151.839 49.7313 151.561 50.1549 150.995 50.4884C149.864 51.1464 148.051 51.1464 146.929 50.4884C146.372 50.1639 146.094 49.7403 146.094 49.3167V51.4258ZM146.094 57.0592C146.094 57.4828 146.372 57.9064 146.929 58.2309C148.051 58.8889 149.873 58.8889 150.995 58.2309C151.561 57.9064 151.839 57.4738 151.839 57.0411V54.932C151.839 55.3647 151.561 55.7883 150.995 56.1218C149.864 56.7798 148.051 56.7798 146.929 56.1218C146.372 55.7973 146.094 55.3737 146.094 54.95V57.0592Z" fill="url(#paint13_linear_897_25169)"/>
<path d="M81.1125 77.835L81.1035 109.238L103.985 122.595V91.1928L81.1125 77.835Z" fill="#3B3B3F"/>
<path d="M103.984 91.1929V122.595L159.729 90.2735V58.8709L103.984 91.1929Z" fill="#48484D"/>
<path d="M81.1133 77.835L103.986 91.1928L159.731 58.8709L136.849 45.5221L81.1133 77.835Z" fill="#5F5F64"/>
<path d="M157.55 58.8709L136.85 46.793L83.2949 77.844L103.995 89.9219L157.55 58.8709Z" fill="#A09595"/>
<path d="M110.627 90.3365L110.609 118.702L113.428 120.333L113.437 91.968L110.627 90.3365Z" fill="#3B3B3F"/>
<path d="M113.437 91.968L113.428 120.333L117.889 117.737L117.898 89.3721L113.437 91.968Z" fill="#48484D"/>
<path d="M110.627 90.3365L113.437 91.968L117.898 89.3721L115.088 87.7497L110.627 90.3365Z" fill="#5F5F64"/>
<path d="M103.957 94.2033L103.939 122.568L106.758 124.191L106.767 95.8257L103.957 94.2033Z" fill="#3B3B3F"/>
<path d="M106.767 95.8257L106.758 124.191L111.219 121.604L111.228 93.2389L106.767 95.8257Z" fill="#48484D"/>
<path d="M103.957 94.2033L106.767 95.8257L111.228 93.2389L108.418 91.6165L103.957 94.2033Z" fill="#5F5F64"/>
<path d="M155.251 64.4682L155.242 92.8333L158.052 94.4557L158.07 66.0906L155.251 64.4682Z" fill="#3B3B3F"/>
<path d="M158.071 66.0906L158.053 94.4556L162.523 91.8688L162.532 63.5037L158.071 66.0906Z" fill="#48484D"/>
<path d="M155.252 64.4682L158.071 66.0906L162.532 63.5038L159.722 61.8813L155.252 64.4682Z" fill="#5F5F64"/>
<path d="M148.581 68.335L148.572 96.7L151.391 98.3224L151.4 69.9574L148.581 68.335Z" fill="#3B3B3F"/>
<path d="M151.4 69.9573L151.391 98.3224L155.852 95.7356L155.861 67.3705L151.4 69.9573Z" fill="#48484D"/>
<path d="M148.582 68.3349L151.401 69.9573L155.862 67.3705L153.052 65.7481L148.582 68.3349Z" fill="#5F5F64"/>
<path d="M119.955 96.1141L119.982 113.321L125.781 116.836L125.853 99.5753L119.955 96.1141Z" fill="#3B3B3F"/>
<path d="M144.723 81.7558L144.75 98.9623L150.557 102.478L150.62 85.2169L144.723 81.7558Z" fill="#3B3B3F"/>
<path d="M119.955 96.1141L125.853 99.5753L150.646 85.2079L144.749 81.7378L119.955 96.1141Z" fill="#5F5F64"/>
<path d="M136.848 46.793L83.293 77.844L84.5497 78.5741L136.848 48.2621L156.291 59.601L157.548 58.8709L136.848 46.793Z" fill="#8C8080"/>
<path d="M134.247 52.246L131.096 54.0667L133.43 55.4278H135.36L134.247 52.246Z" fill="#8C8080"/>
<path d="M132.541 52.6156V53.7873L135.36 55.4278L135.351 54.256L132.541 52.6156Z" fill="#DBDBDB"/>
<path d="M135.352 54.256L135.361 55.4278L138.188 53.7873L138.179 52.6156L135.352 54.256Z" fill="#EDEDED"/>
<path d="M132.541 52.6156L135.351 54.256L138.178 52.6156L135.369 50.9752L132.541 52.6156Z" fill="#F4F4F4"/>
<path d="M134.157 51.8675C133.502 52.246 133.502 52.868 134.157 53.2465C134.813 53.6251 135.872 53.6251 136.527 53.2465C137.183 52.868 137.183 52.246 136.527 51.8675C135.872 51.4889 134.813 51.4889 134.157 51.8675Z" fill="#A09595"/>
<path d="M134.858 52.2731C134.589 52.4263 134.589 52.6787 134.858 52.8319C135.128 52.9851 135.558 52.9851 135.828 52.8319C136.097 52.6787 136.097 52.4263 135.828 52.2731C135.558 52.1198 135.128 52.1198 134.858 52.2731Z" fill="#F4F4F4"/>
<path d="M127.459 56.1758L124.309 58.0056L126.643 59.3576H128.573L127.459 56.1758Z" fill="#8C8080"/>
<path d="M125.754 56.5454V57.7171L128.573 59.3576L128.564 58.1858L125.754 56.5454Z" fill="#DBDBDB"/>
<path d="M128.564 58.1858L128.573 59.3576L131.401 57.7171L131.392 56.5454L128.564 58.1858Z" fill="#EDEDED"/>
<path d="M125.754 56.5454L128.564 58.1858L131.391 56.5454L128.582 54.905L125.754 56.5454Z" fill="#F4F4F4"/>
<path d="M127.37 55.8063C126.715 56.1849 126.715 56.8068 127.37 57.1854C128.026 57.5639 129.085 57.5639 129.74 57.1854C130.396 56.8068 130.396 56.1849 129.74 55.8063C129.085 55.4278 128.026 55.4278 127.37 55.8063Z" fill="#A09595"/>
<path d="M128.071 56.2119C127.802 56.3651 127.802 56.6175 128.071 56.7707C128.34 56.924 128.771 56.924 129.041 56.7707C129.31 56.6175 129.31 56.3651 129.041 56.2119C128.771 56.0587 128.34 56.0587 128.071 56.2119Z" fill="#F4F4F4"/>
<path d="M120.672 60.1147L117.521 61.9354L119.855 63.2964H121.785L120.672 60.1147Z" fill="#8C8080"/>
<path d="M118.967 60.4843V61.656L121.785 63.2964L121.776 62.1247L118.967 60.4843Z" fill="#DBDBDB"/>
<path d="M121.777 62.1247L121.786 63.2964L124.614 61.656L124.605 60.4843L121.777 62.1247Z" fill="#EDEDED"/>
<path d="M118.967 60.4842L121.776 62.1247L124.604 60.4842L121.794 58.8438L118.967 60.4842Z" fill="#F4F4F4"/>
<path d="M120.583 59.7361C119.928 60.1147 119.928 60.7366 120.583 61.1152C121.239 61.4937 122.298 61.4937 122.953 61.1152C123.608 60.7366 123.608 60.1147 122.953 59.7361C122.298 59.3576 121.239 59.3576 120.583 59.7361Z" fill="#A09595"/>
<path d="M121.284 60.1417C121.015 60.2949 121.015 60.5473 121.284 60.7005C121.553 60.8538 121.984 60.8538 122.253 60.7005C122.523 60.5473 122.523 60.2949 122.253 60.1417C121.984 59.9885 121.553 59.9885 121.284 60.1417Z" fill="#F4F4F4"/>
<path d="M113.887 64.0446L110.736 65.8743L113.07 67.2263H115L113.887 64.0446Z" fill="#8C8080"/>
<path d="M112.182 64.4141V65.5859L115 67.2263L114.991 66.0546L112.182 64.4141Z" fill="#DBDBDB"/>
<path d="M114.992 66.0546L115.001 67.2263L117.829 65.5859L117.82 64.4141L114.992 66.0546Z" fill="#EDEDED"/>
<path d="M112.182 64.4141L114.991 66.0545L117.819 64.4141L115.009 62.7737L112.182 64.4141Z" fill="#F4F4F4"/>
<path d="M113.798 63.675C113.143 64.0536 113.143 64.6755 113.798 65.0541C114.453 65.4326 115.513 65.4326 116.168 65.0541C116.823 64.6755 116.823 64.0536 116.168 63.675C115.513 63.2965 114.453 63.2965 113.798 63.675Z" fill="#A09595"/>
<path d="M114.499 64.0806C114.23 64.2338 114.23 64.4862 114.499 64.6394C114.768 64.7927 115.199 64.7927 115.468 64.6394C115.738 64.4862 115.738 64.2338 115.468 64.0806C115.199 63.9274 114.768 63.9274 114.499 64.0806Z" fill="#F4F4F4"/>
<path d="M107.1 67.9834L103.949 69.8041L106.283 71.1651H108.204L107.1 67.9834Z" fill="#8C8080"/>
<path d="M105.395 68.353V69.5247L108.204 71.1651V69.9934L105.395 68.353Z" fill="#DBDBDB"/>
<path d="M108.205 69.9934V71.1651L111.042 69.5247L111.033 68.353L108.205 69.9934Z" fill="#EDEDED"/>
<path d="M105.395 68.353L108.204 69.9934L111.032 68.353L108.222 66.7125L105.395 68.353Z" fill="#F4F4F4"/>
<path d="M107.011 67.6048C106.356 67.9834 106.356 68.6053 107.011 68.9839C107.666 69.3624 108.726 69.3624 109.381 68.9839C110.036 68.6053 110.036 67.9834 109.381 67.6048C108.726 67.2263 107.666 67.2263 107.011 67.6048Z" fill="#A09595"/>
<path d="M107.712 68.0104C107.442 68.1637 107.442 68.416 107.712 68.5693C107.981 68.7225 108.412 68.7225 108.681 68.5693C108.951 68.416 108.951 68.1637 108.681 68.0104C108.412 67.8572 107.981 67.8572 107.712 68.0104Z" fill="#F4F4F4"/>
<path d="M100.315 71.9132L97.1641 73.7429L99.498 75.0949H101.419L100.315 71.9132Z" fill="#8C8080"/>
<path d="M98.6094 72.2828V73.4545L101.419 75.0949V73.9232L98.6094 72.2828Z" fill="#DBDBDB"/>
<path d="M101.42 73.9232V75.0949L104.257 73.4545L104.248 72.2828L101.42 73.9232Z" fill="#EDEDED"/>
<path d="M98.6094 72.2828L101.419 73.9232L104.247 72.2828L101.437 70.6423L98.6094 72.2828Z" fill="#F4F4F4"/>
<path d="M100.226 71.5437C99.5706 71.9222 99.5706 72.5442 100.226 72.9227C100.881 73.3013 101.94 73.3013 102.596 72.9227C103.251 72.5442 103.251 71.9222 102.596 71.5437C101.94 71.1651 100.881 71.1651 100.226 71.5437Z" fill="#A09595"/>
<path d="M100.927 71.9493C100.657 72.1025 100.657 72.3549 100.927 72.5081C101.196 72.6613 101.627 72.6613 101.896 72.5081C102.165 72.3549 102.165 72.1025 101.896 71.9493C101.627 71.796 101.196 71.796 100.927 71.9493Z" fill="#F4F4F4"/>
<path d="M93.5278 75.8521L90.377 77.6727L92.7109 79.0338H94.6319L93.5278 75.8521Z" fill="#8C8080"/>
<path d="M91.8223 76.2216V77.3934L94.632 79.0338V77.8621L91.8223 76.2216Z" fill="#DBDBDB"/>
<path d="M94.6328 77.8621V79.0338L97.4605 77.3934V76.2216L94.6328 77.8621Z" fill="#EDEDED"/>
<path d="M91.8223 76.2216L94.632 77.862L97.4596 76.2216L94.6499 74.5812L91.8223 76.2216Z" fill="#F4F4F4"/>
<path d="M93.429 75.4735C92.7737 75.8521 92.7737 76.474 93.429 76.8525C94.0843 77.2311 95.1435 77.2311 95.7988 76.8525C96.4541 76.474 96.4541 75.8521 95.7988 75.4735C95.1435 75.0949 94.0843 75.0949 93.429 75.4735Z" fill="#A09595"/>
<path d="M94.1375 75.8791C93.8682 76.0323 93.8682 76.2847 94.1375 76.4379C94.4068 76.5911 94.8377 76.5911 95.107 76.4379C95.3763 76.2847 95.3763 76.0323 95.107 75.8791C94.8377 75.7259 94.4068 75.7259 94.1375 75.8791Z" fill="#F4F4F4"/>
<path d="M138.994 54.9951L135.834 56.8248L138.177 58.1768H140.098L138.994 54.9951Z" fill="#8C8080"/>
<path d="M137.289 55.3647V56.5364L140.099 58.1769V57.0051L137.289 55.3647Z" fill="#DBDBDB"/>
<path d="M140.1 57.0051V58.1769L142.927 56.5364V55.3647L140.1 57.0051Z" fill="#EDEDED"/>
<path d="M137.289 55.3647L140.099 57.0051L142.926 55.3647L140.117 53.7242L137.289 55.3647Z" fill="#F4F4F4"/>
<path d="M138.896 54.6166C138.24 54.9951 138.24 55.617 138.896 55.9956C139.551 56.3742 140.61 56.3742 141.266 55.9956C141.921 55.617 141.921 54.9951 141.266 54.6166C140.61 54.238 139.551 54.238 138.896 54.6166Z" fill="#A09595"/>
<path d="M139.597 55.0221C139.327 55.1754 139.327 55.4277 139.597 55.581C139.866 55.7342 140.297 55.7342 140.566 55.581C140.835 55.4277 140.835 55.1754 140.566 55.0221C140.297 54.8689 139.866 54.8689 139.597 55.0221Z" fill="#F4F4F4"/>
<path d="M132.207 58.9249L129.047 60.7546L131.39 62.1066H133.311L132.207 58.9249Z" fill="#8C8080"/>
<path d="M130.492 59.2945L130.501 60.4662L133.311 62.1067V60.9349L130.492 59.2945Z" fill="#DBDBDB"/>
<path d="M133.311 60.9349V62.1067L136.138 60.4753V59.2945L133.311 60.9349Z" fill="#EDEDED"/>
<path d="M130.492 59.2945L133.311 60.9349L136.139 59.2945L133.329 57.6541L130.492 59.2945Z" fill="#F4F4F4"/>
<path d="M132.109 58.5554C131.453 58.934 131.453 59.5559 132.109 59.9344C132.764 60.313 133.823 60.313 134.478 59.9344C135.134 59.5559 135.134 58.934 134.478 58.5554C133.823 58.1768 132.764 58.1768 132.109 58.5554Z" fill="#A09595"/>
<path d="M132.809 58.961C132.54 59.1142 132.54 59.3666 132.809 59.5198C133.079 59.673 133.51 59.673 133.779 59.5198C134.048 59.3666 134.048 59.1142 133.779 58.961C133.51 58.8078 133.079 58.8078 132.809 58.961Z" fill="#F4F4F4"/>
<path d="M125.42 62.8638L122.26 64.6935L124.603 66.0455H126.524L125.42 62.8638Z" fill="#8C8080"/>
<path d="M123.705 63.2333L123.714 64.4051L126.524 66.0455V64.8738L123.705 63.2333Z" fill="#DBDBDB"/>
<path d="M126.523 64.8738V66.0455L129.351 64.4051V63.2333L126.523 64.8738Z" fill="#EDEDED"/>
<path d="M123.705 63.2333L126.524 64.8738L129.351 63.2333L126.542 61.5929L123.705 63.2333Z" fill="#F4F4F4"/>
<path d="M125.322 62.4852C124.666 62.8638 124.666 63.4857 125.322 63.8643C125.977 64.2428 127.036 64.2428 127.691 63.8643C128.347 63.4857 128.347 62.8638 127.691 62.4852C127.036 62.1067 125.977 62.1067 125.322 62.4852Z" fill="#A09595"/>
<path d="M126.022 62.8908C125.753 63.044 125.753 63.2964 126.022 63.4496C126.292 63.6029 126.722 63.6029 126.992 63.4496C127.261 63.2964 127.261 63.044 126.992 62.8908C126.722 62.7376 126.292 62.7376 126.022 62.8908Z" fill="#F4F4F4"/>
<path d="M118.634 66.7936L115.475 68.6234L117.818 69.9844H119.739L118.634 66.7936Z" fill="#8C8080"/>
<path d="M116.92 67.1632L116.929 68.3349L119.739 69.9844V68.8036L116.92 67.1632Z" fill="#DBDBDB"/>
<path d="M119.738 68.8036V69.9844L122.566 68.344V67.1632L119.738 68.8036Z" fill="#EDEDED"/>
<path d="M116.92 67.1632L119.739 68.8036L122.566 67.1632L119.748 65.5228L116.92 67.1632Z" fill="#F4F4F4"/>
<path d="M118.536 66.4241C117.881 66.8027 117.881 67.4246 118.536 67.8032C119.192 68.1817 120.251 68.1817 120.906 67.8032C121.562 67.4246 121.562 66.8027 120.906 66.4241C120.251 66.0456 119.192 66.0456 118.536 66.4241Z" fill="#A09595"/>
<path d="M119.237 66.8297C118.968 66.9829 118.968 67.2353 119.237 67.3885C119.506 67.5418 119.937 67.5418 120.207 67.3885C120.476 67.2353 120.476 66.9829 120.207 66.8297C119.937 66.6765 119.506 66.6765 119.237 66.8297Z" fill="#F4F4F4"/>
<path d="M111.847 70.7325L108.688 72.5622L111.03 73.9142H112.951L111.847 70.7325Z" fill="#8C8080"/>
<path d="M110.133 71.1021L110.142 72.2738L112.951 73.9142V72.7425L110.133 71.1021Z" fill="#DBDBDB"/>
<path d="M112.951 72.7425V73.9142L115.779 72.2738V71.1021L112.951 72.7425Z" fill="#EDEDED"/>
<path d="M110.133 71.102L112.951 72.7425L115.779 71.102L112.96 69.4616L110.133 71.102Z" fill="#F4F4F4"/>
<path d="M111.749 70.3539C111.094 70.7325 111.094 71.3544 111.749 71.733C112.405 72.1115 113.464 72.1115 114.119 71.733C114.774 71.3544 114.774 70.7325 114.119 70.3539C113.464 69.9754 112.405 69.9754 111.749 70.3539Z" fill="#A09595"/>
<path d="M112.45 70.7595C112.181 70.9127 112.181 71.1651 112.45 71.3183C112.719 71.4716 113.15 71.4716 113.42 71.3183C113.689 71.1651 113.689 70.9127 113.42 70.7595C113.15 70.6063 112.719 70.6063 112.45 70.7595Z" fill="#F4F4F4"/>
<path d="M105.062 74.6623L101.902 76.492L104.245 77.853H106.166L105.062 74.6623Z" fill="#8C8080"/>
<path d="M103.348 75.0319L103.357 76.2036L106.166 77.853V76.6723L103.348 75.0319Z" fill="#DBDBDB"/>
<path d="M106.166 76.6723V77.853L108.994 76.2126V75.0319L106.166 76.6723Z" fill="#EDEDED"/>
<path d="M103.348 75.0319L106.166 76.6723L108.994 75.0319L106.175 73.3914L103.348 75.0319Z" fill="#F4F4F4"/>
<path d="M104.964 74.2928C104.309 74.6713 104.309 75.2933 104.964 75.6718C105.619 76.0504 106.679 76.0504 107.334 75.6718C107.989 75.2933 107.989 74.6713 107.334 74.2928C106.679 73.9142 105.619 73.9142 104.964 74.2928Z" fill="#A09595"/>
<path d="M105.665 74.6984C105.396 74.8516 105.396 75.104 105.665 75.2572C105.934 75.4104 106.365 75.4104 106.634 75.2572C106.904 75.104 106.904 74.8516 106.634 74.6984C106.365 74.5451 105.934 74.5451 105.665 74.6984Z" fill="#F4F4F4"/>
<path d="M98.275 78.6011L95.1152 80.4309L97.4581 81.7829H99.3791L98.275 78.6011Z" fill="#8C8080"/>
<path d="M96.5605 78.9707L96.5695 80.1424L99.3792 81.7829L99.3702 80.6111L96.5605 78.9707Z" fill="#DBDBDB"/>
<path d="M99.3711 80.6111L99.3801 81.7829L102.208 80.1424V78.9707L99.3711 80.6111Z" fill="#EDEDED"/>
<path d="M96.5605 78.9707L99.3702 80.6111L102.207 78.9707L99.3882 77.3303L96.5605 78.9707Z" fill="#F4F4F4"/>
<path d="M98.177 78.2226C97.5217 78.6011 97.5217 79.2231 98.177 79.6016C98.8323 79.9802 99.8916 79.9802 100.547 79.6016C101.202 79.2231 101.202 78.6011 100.547 78.2226C99.8916 77.844 98.8323 77.844 98.177 78.2226Z" fill="#A09595"/>
<path d="M98.8778 78.6372C98.6085 78.7904 98.6085 79.0428 98.8778 79.196C99.1471 79.3493 99.5779 79.3493 99.8472 79.196C100.117 79.0428 100.117 78.7904 99.8472 78.6372C99.5779 78.484 99.1471 78.484 98.8778 78.6372Z" fill="#F4F4F4"/>
<path d="M157.548 58.8709L156.291 59.601L136.848 48.2621V46.793L157.548 58.8709Z" fill="#776B6B"/>
<mask id="mask1_897_25169" style="mask-type:luminance" maskUnits="userSpaceOnUse" x="126" y="91" width="24" height="26">
<path d="M126.912 104.848L127.065 116.097L149.461 103.117L149.524 91.5804L126.912 104.848Z" fill="white"/>
</mask>
<g mask="url(#mask1_897_25169)">
<g style="mix-blend-mode:multiply" opacity="0.6">
<path d="M123.725 115.024H129.03L129.164 114.934H123.725V115.024Z" fill="#A09595"/>
</g>
<g style="mix-blend-mode:multiply" opacity="0.6">
<path d="M153.069 100.945L153.769 100.54L149.559 91.4091C149.559 91.4091 125.412 105.218 123.743 106.371C123.743 106.371 123.734 106.371 123.725 106.371V114.231L124.443 113.816H131.041L131.175 113.726H124.577L126.471 112.618H133.069L133.204 112.527H126.633L128.527 111.419H135.089L135.224 111.329H129.281L132.19 109.634H138.195V109.562H132.306L135.358 107.795H141.265L141.4 107.705H134.91L136.786 106.615H143.294L143.428 106.525H136.938L138.814 105.434H145.322L145.457 105.344H138.967L140.843 104.253H147.351L147.486 104.163H140.996L142.872 103.072H149.38L149.515 102.982H143.024L144.901 101.892H151.409L151.543 101.802H145.053L146.624 100.882L152.997 100.9L153.069 100.945ZM129.138 111.356H128.707L131.615 109.67H132.055L129.147 111.356H129.138ZM135.224 107.831L132.172 109.598H131.741L134.793 107.831H135.224Z" fill="#A09595"/>
</g>
<path opacity="0.7" d="M123.375 107.011L153.187 89.6155L153.169 100.972L123.357 118.368L123.375 107.011Z" fill="url(#paint14_linear_897_25169)"/>
<path d="M153.178 96.5017L151.643 97.403V92.8423L153.187 91.9409V91.7967L151.643 92.698V90.5258L151.517 90.5979V92.7792L149.587 93.9058V91.7246L149.462 91.7967V93.9779L147.532 95.1046V92.9234L147.406 92.9955V95.1497L145.476 96.2763V94.1222L145.35 94.1943V96.3485L143.42 97.4751V95.3209L143.295 95.393V97.5472L141.365 98.6739V96.5197L141.239 96.5918V98.719L139.309 99.8456V97.7185L139.183 97.7906V99.9177L137.253 101.044V98.9083L137.128 98.9804V101.117L135.198 102.243V100.107L135.072 100.179V102.288L133.142 103.415V101.306L133.016 101.378V103.487L131.086 104.614V102.505L130.961 102.577V104.686L129.031 105.812V103.703L128.905 103.775V105.858L126.975 106.984V104.902L126.849 104.974V107.056L124.919 108.183V106.101L124.794 106.173V108.255L123.321 109.111V109.256L124.794 108.399V112.96L123.312 113.825V113.97L124.794 113.104V117.512L124.919 117.44V113.032L126.849 111.906V116.313L126.975 116.241V111.833L128.905 110.707V115.114L129.031 115.042V110.662L130.961 109.535V113.916L131.086 113.843V109.463L133.016 108.336V112.717L133.142 112.645V108.264L135.072 107.137V111.527L135.198 111.455V108.003L138.178 106.281V109.724L138.268 109.67V106.227L141.23 104.506V107.931L141.356 107.859V103.523L143.286 102.396V106.732L143.411 106.66V102.324L145.341 101.198V105.533L145.467 105.461V101.126L147.397 99.9989V104.334L147.523 104.262V99.9538L149.453 98.8271V103.136L149.578 103.063V98.755L151.508 97.6284V101.946L151.634 101.874V97.5562L153.169 96.6549V96.5107L153.178 96.5017ZM126.894 111.671V111.743L124.964 112.87V112.789C124.964 107.714 124.964 109.535 124.964 108.309L126.894 107.183C126.894 108.219 126.894 106.353 126.894 111.671ZM128.95 110.481V110.545L127.02 111.671V111.599C127.02 106.281 127.02 108.769 127.02 107.11L128.95 105.984C128.95 108.021 128.95 104.56 128.95 110.481ZM131.006 109.292V109.373L129.076 110.499V110.472V105.939L131.006 104.812V109.292ZM133.061 108.174L131.131 109.301V109.22C131.131 104.145 131.131 105.966 131.131 104.74L133.061 103.613V108.174ZM135.117 106.975L133.187 108.102V103.541L135.117 102.414V106.975ZM137.289 101.171L139.219 100.044V104.605L137.289 105.731V101.171ZM135.234 102.369L137.163 101.243V105.803L135.234 106.93V102.369ZM141.266 104.388L135.234 107.886V107.074C135.889 106.687 140.242 104.145 141.266 103.55V104.388ZM141.266 103.397L139.336 104.524V99.9628L141.266 98.8361V103.397ZM143.321 102.225L141.391 103.352V98.7911L143.321 97.6644V102.225ZM145.377 101.026L143.447 102.153V97.5923L145.377 96.4656V101.026ZM147.433 99.8276L145.503 100.954V96.3935L147.433 95.2669V99.8276ZM149.488 98.6559L147.558 99.7825V95.2218L149.488 94.0951V98.6559ZM151.544 97.4571L149.614 98.5838V94.023L151.544 92.8963V97.4571Z" fill="#489B8D"/>
</g>
<path d="M121.094 84.1624L121.076 93.2659L143.024 80.566L143.042 71.4355L121.094 84.1624Z" fill="white"/>
<g style="mix-blend-mode:multiply" opacity="0.6">
<path d="M139.999 80.575L138.329 81.5485H141.049V81.7017H138.06L136.274 82.7382H138.994V82.8914H136.004L134.218 83.928H136.938V84.0812H133.949L132.162 85.1177H134.882V85.271H131.893L130.107 86.3075H132.827V86.4607H129.837L128.051 87.4973H130.771V87.6505H127.782L125.995 88.687H128.715V88.8403H125.726L123.94 89.8768H126.66V90.03H123.67L121.884 91.0666H124.604V91.2198H121.615L120.654 91.7786V83.964L143.222 71.0028L143.006 80.575H139.972H139.999ZM120.681 92.4096H122.584V92.2563H120.681V92.4096Z" fill="#A09595"/>
</g>
<path opacity="0.7" d="M121.094 84.1624L143.042 71.4355L143.024 80.566L121.076 93.2659L121.094 84.1624Z" fill="url(#paint15_linear_897_25169)"/>
<path d="M120.412 83.6576L120.395 93.6624L121.077 93.2568L121.095 84.2074L143.043 71.4805L143.025 80.575L143.707 80.1334L143.734 70.1285L120.412 83.6576Z" fill="#48484D"/>
<path d="M143.042 75.9152L141.157 77.0148V72.5802L141.032 72.6523V77.0869L139.102 78.2136V73.77L138.976 73.8421V78.2496L137.046 79.3763V74.9597L136.92 75.0318V79.4484L134.99 80.5751V76.1585L134.865 76.2306V80.6472L132.935 81.7738V77.3573L132.809 77.4294V81.8189L130.879 82.9456V78.5561L130.753 78.6282V83.0177L128.823 84.1444V79.7548L128.698 79.8269V84.2165L126.768 85.3431V80.9536L126.642 81.0257V85.3882L124.712 86.5149V82.1434L124.586 82.2155V86.587L122.656 87.7136V83.3422L122.531 83.4143V87.7858L121.059 88.642V88.7862L122.531 87.93V92.4006L122.656 92.3285C122.656 87.272 122.656 89.0837 122.656 87.8579L124.586 86.7312C124.586 87.7677 124.586 85.902 124.586 91.2108L124.712 91.1387C124.712 85.8389 124.712 88.3175 124.712 86.6591L126.642 85.5324C126.642 87.5694 126.642 84.1173 126.642 90.0211L126.768 89.949V85.4874L128.698 84.3607V88.8313L128.823 88.7592C128.823 83.7027 128.823 85.5144 128.823 84.2886L130.753 83.1619V87.6415L130.879 87.5694V83.0898L132.809 81.9631V86.4518L132.935 86.3797V81.9181L134.865 80.7914V85.262L134.99 85.1899V80.7193L136.92 79.5926V84.0722L137.046 84.0001V79.5205L138.976 78.3938V82.8825L139.102 82.8104V78.3488L141.032 77.2221V81.6927L141.157 81.6206V77.15L143.042 76.0504V75.9061V75.9152Z" fill="#489B8D"/>
<path d="M125.851 99.5753L125.779 116.836L127.063 116.097L127.072 104.866L149.397 91.8147L149.379 103.163L150.582 102.469L150.645 85.2079L125.851 99.5753Z" fill="#48484D"/>
<path d="M62.0809 113.158C61.0486 113.158 60.0163 112.888 59.0917 112.356L38.0504 100.161C37.7991 100.017 37.7093 99.6924 37.8619 99.4401C38.0055 99.1877 38.3287 99.0975 38.58 99.2508L59.6213 111.446C61.1384 112.329 63.0325 112.329 64.5495 111.446L84.0917 100.116C84.3431 99.9718 84.6662 100.053 84.8098 100.305C84.9535 100.558 84.8727 100.882 84.6213 101.026L65.0792 112.356C64.1546 112.888 63.1222 113.158 62.0899 113.158H62.0809Z" fill="#5F5F64"/>
<path d="M72.2793 115.835L72.2883 117.953L79.9543 122.433V120.306L72.2793 115.835Z" fill="#3B3B3F"/>
<path d="M79.9551 120.306V122.433L87.675 117.953V115.835L79.9551 120.306Z" fill="#48484D"/>
<path d="M72.2793 115.835L79.9543 120.306L87.6743 115.835L79.9992 111.356L72.2793 115.835Z" fill="#5F5F64"/>
<path d="M75.9947 96.1411C78.1581 97.403 81.668 97.403 83.8403 96.1411C84.9355 95.5102 85.483 94.6719 85.4741 93.8427L85.5369 115.222C85.5369 116.052 84.9893 116.89 83.9031 117.521C81.7308 118.783 78.2119 118.783 76.0575 117.521C74.9803 116.899 74.4507 116.079 74.4417 115.258L74.3789 93.8788C74.3789 94.699 74.9175 95.5192 75.9947 96.1411Z" fill="url(#paint16_linear_897_25169)"/>
<path d="M76.03 91.5714C73.8577 92.8332 73.8397 94.8793 76.0031 96.1411C78.1665 97.403 81.6763 97.403 83.8487 96.1411C86.0211 94.8793 86.039 92.8422 83.8756 91.5804C81.7123 90.3185 78.2024 90.3185 76.03 91.5804V91.5714Z" fill="#F2ECDD"/>
<path d="M78.2117 91.1567C79.1722 90.5979 80.7162 90.5979 81.6767 91.1567C82.6372 91.7156 82.6283 92.6169 81.6678 93.1667C80.7072 93.7255 79.1543 93.7255 78.2028 93.1667C77.2512 92.6079 77.2512 91.7066 78.2117 91.1477V91.1567Z" fill="#FFF9E9"/>
<path d="M81.4902 121.171L81.4992 123.298L89.1653 127.769V125.651L81.4902 121.171Z" fill="#3B3B3F"/>
<path d="M89.166 125.651V127.769L96.8949 123.298L96.8859 121.171L89.166 125.651Z" fill="#48484D"/>
<path d="M81.4902 121.171L89.1653 125.651L96.8852 121.171L89.2102 116.701L81.4902 121.171Z" fill="#5F5F64"/>
<path d="M85.2154 101.477C87.3788 102.739 90.8887 102.739 93.061 101.477C94.1562 100.846 94.7037 100.008 94.6948 99.1786L94.7576 120.558C94.7576 121.388 94.21 122.226 93.1238 122.857C90.9515 124.119 87.4326 124.119 85.2782 122.857C84.201 122.235 83.6714 121.415 83.6624 120.594L83.5996 99.2147C83.5996 100.035 84.1382 100.855 85.2154 101.477Z" fill="url(#paint17_linear_897_25169)"/>
<path d="M85.2429 96.9163C83.0706 98.1781 83.0526 100.224 85.216 101.486C87.3794 102.748 90.8892 102.748 93.0616 101.486C95.2339 100.224 95.2519 98.1872 93.0885 96.9253C90.9251 95.6634 87.4153 95.6634 85.2429 96.9253V96.9163Z" fill="#F2ECDD"/>
<path d="M87.4246 96.4927C88.3851 95.9338 89.9291 95.9338 90.8896 96.4927C91.8411 97.0515 91.8411 97.9528 90.8806 98.5026C89.9201 99.0615 88.3672 99.0615 87.4157 98.5026C86.4641 97.9438 86.4641 97.0425 87.4246 96.4837V96.4927Z" fill="#FFF9E9"/>
<path d="M67.6473 124.083C66.8214 124.083 65.9956 123.866 65.2595 123.443L34.3798 105.542C33.5898 105.082 33.123 104.271 33.123 103.361C33.123 102.451 33.5898 101.63 34.3798 101.18L42.8807 96.2493C43.132 96.1051 43.4552 96.1862 43.5988 96.4386C43.7424 96.691 43.6616 97.0155 43.4103 97.1597L34.9094 102.09C34.4516 102.351 34.1823 102.829 34.1823 103.361C34.1823 103.893 34.4516 104.361 34.9094 104.632L65.7891 122.532C66.9381 123.199 68.3744 123.199 69.5234 122.532L75.7891 118.9C76.0405 118.756 76.3636 118.837 76.5072 119.089C76.6509 119.342 76.5701 119.666 76.3187 119.81L70.053 123.443C69.3169 123.866 68.4911 124.083 67.6563 124.083H67.6473Z" fill="#5F5F64"/>
<path d="M76.8492 129.41C76.0233 129.41 75.1975 129.193 74.4614 128.77L43.5817 110.869C43.3303 110.725 43.2406 110.4 43.3932 110.148C43.5368 109.896 43.86 109.805 44.1113 109.959L74.991 127.859C76.14 128.526 77.5763 128.526 78.7253 127.859L84.991 124.227C85.2424 124.083 85.5655 124.164 85.7091 124.416C85.8528 124.668 85.772 124.993 85.5206 125.137L79.2549 128.77C78.5188 129.193 77.693 129.41 76.8582 129.41H76.8492Z" fill="#5F5F64"/>
<path d="M56.1115 46.802C54.2982 46.6668 52.8889 48.2982 52.9787 50.4434C53.0684 52.5885 54.6124 54.4363 56.4257 54.5625C58.239 54.6977 59.6483 53.0663 59.5586 50.9211C59.4688 48.7759 57.9248 46.9281 56.1115 46.802Z" fill="#8C8080"/>
<path d="M94.1994 24.4398C92.3861 24.3046 90.9768 25.936 91.0666 28.0812C91.1563 30.2264 92.7003 32.0741 94.5136 32.2003C96.3269 32.3355 97.7362 30.7041 97.6465 28.5589C97.5567 26.4137 96.0127 24.566 94.1994 24.4398Z" fill="#8C8080"/>
</g>
<defs>
<linearGradient id="paint0_linear_897_25169" x1="72.7199" y1="69.9844" x2="123.95" y2="69.9844" gradientUnits="userSpaceOnUse">
<stop stop-color="#3B3B3F"/>
<stop offset="1" stop-color="#48484D"/>
</linearGradient>
<linearGradient id="paint1_linear_897_25169" x1="83.4561" y1="19.1309" x2="113.474" y2="19.1309" gradientUnits="userSpaceOnUse">
<stop stop-color="#B8AF9A"/>
<stop offset="1" stop-color="#9E947C"/>
</linearGradient>
<linearGradient id="paint2_linear_897_25169" x1="84.5332" y1="6.26883" x2="112.397" y2="6.26883" gradientUnits="userSpaceOnUse">
<stop stop-color="#D3C9B2"/>
<stop offset="0.14" stop-color="#CDC3AB"/>
<stop offset="1" stop-color="#AEA388"/>
</linearGradient>
<linearGradient id="paint3_linear_897_25169" x1="79.0673" y1="42.4395" x2="117.595" y2="42.4395" gradientUnits="userSpaceOnUse">
<stop stop-color="#AEA388"/>
<stop offset="0.6" stop-color="#CDC3AB"/>
<stop offset="1" stop-color="#E4DBC6"/>
</linearGradient>
<linearGradient id="paint4_linear_897_25169" x1="35.0266" y1="91.8327" x2="86.2564" y2="91.8327" gradientUnits="userSpaceOnUse">
<stop stop-color="#3B3B3F"/>
<stop offset="1" stop-color="#48484D"/>
</linearGradient>
<linearGradient id="paint5_linear_897_25169" x1="45.7627" y1="40.9793" x2="75.7897" y2="40.9793" gradientUnits="userSpaceOnUse">
<stop stop-color="#B8AF9A"/>
<stop offset="1" stop-color="#9E947C"/>
</linearGradient>
<linearGradient id="paint6_linear_897_25169" x1="46.8488" y1="28.1172" x2="74.7124" y2="28.1172" gradientUnits="userSpaceOnUse">
<stop stop-color="#D3C9B2"/>
<stop offset="0.14" stop-color="#CDC3AB"/>
<stop offset="1" stop-color="#AEA388"/>
</linearGradient>
<linearGradient id="paint7_linear_897_25169" x1="41.3739" y1="64.2879" x2="79.9017" y2="64.2879" gradientUnits="userSpaceOnUse">
<stop stop-color="#AEA388"/>
<stop offset="0.6" stop-color="#CDC3AB"/>
<stop offset="1" stop-color="#E4DBC6"/>
</linearGradient>
<linearGradient id="paint8_linear_897_25169" x1="155.734" y1="38.1852" x2="161.488" y2="38.1852" gradientUnits="userSpaceOnUse">
<stop stop-color="#AEA388"/>
<stop offset="0.6" stop-color="#CDC3AB"/>
<stop offset="1" stop-color="#E4DBC6"/>
</linearGradient>
<linearGradient id="paint9_linear_897_25169" x1="156.309" y1="9.82915" x2="160.914" y2="9.82915" gradientUnits="userSpaceOnUse">
<stop stop-color="#B8AF9A"/>
<stop offset="1" stop-color="#9E947C"/>
</linearGradient>
<linearGradient id="paint10_linear_897_25169" x1="155.734" y1="39.8707" x2="161.488" y2="39.8707" gradientUnits="userSpaceOnUse">
<stop stop-color="#776B6B"/>
<stop offset="0.86" stop-color="#9A8E8E"/>
<stop offset="1" stop-color="#A09595"/>
</linearGradient>
<linearGradient id="paint11_linear_897_25169" x1="146.094" y1="32.5879" x2="151.848" y2="32.5879" gradientUnits="userSpaceOnUse">
<stop stop-color="#AEA388"/>
<stop offset="0.6" stop-color="#CDC3AB"/>
<stop offset="1" stop-color="#E4DBC6"/>
</linearGradient>
<linearGradient id="paint12_linear_897_25169" x1="146.668" y1="4.24081" x2="151.273" y2="4.24081" gradientUnits="userSpaceOnUse">
<stop stop-color="#B8AF9A"/>
<stop offset="1" stop-color="#9E947C"/>
</linearGradient>
<linearGradient id="paint13_linear_897_25169" x1="146.094" y1="34.2824" x2="151.848" y2="34.2824" gradientUnits="userSpaceOnUse">
<stop stop-color="#776B6B"/>
<stop offset="0.86" stop-color="#9A8E8E"/>
<stop offset="1" stop-color="#A09595"/>
</linearGradient>
<linearGradient id="paint14_linear_897_25169" x1="123.357" y1="103.992" x2="153.187" y2="103.992" gradientUnits="userSpaceOnUse">
<stop stop-color="#72C9B2"/>
<stop offset="0.57" stop-color="#60BCB0"/>
<stop offset="1" stop-color="#51B1AF"/>
</linearGradient>
<linearGradient id="paint15_linear_897_25169" x1="121.076" y1="82.3507" x2="143.042" y2="82.3507" gradientUnits="userSpaceOnUse">
<stop stop-color="#72C9B2"/>
<stop offset="0.57" stop-color="#60BCB0"/>
<stop offset="1" stop-color="#51B1AF"/>
</linearGradient>
<linearGradient id="paint16_linear_897_25169" x1="74.3879" y1="106.155" x2="85.5459" y2="106.155" gradientUnits="userSpaceOnUse">
<stop stop-color="#AEA388"/>
<stop offset="0.6" stop-color="#CDC3AB"/>
<stop offset="1" stop-color="#E4DBC6"/>
</linearGradient>
<linearGradient id="paint17_linear_897_25169" x1="83.5996" y1="111.491" x2="94.7576" y2="111.491" gradientUnits="userSpaceOnUse">
<stop stop-color="#AEA388"/>
<stop offset="0.6" stop-color="#CDC3AB"/>
<stop offset="1" stop-color="#E4DBC6"/>
</linearGradient>
<clipPath id="clip0_897_25169">
<rect width="200" height="149" fill="white" transform="translate(1.49805 0.842773)"/>
</clipPath>
</defs>
</svg>
