<svg width="166" height="138" viewBox="0 0 166 138" fill="none" xmlns="http://www.w3.org/2000/svg">
<path d="M106.718 99.7104L106.712 99.9891L107.088 99.9891L107.089 99.7073L106.718 99.7104ZM4.99903 99.7104L8.67922 101.32L8.7455 98.1011L4.99903 99.7104ZM106.863 11.5305L106.853 13.2264L107.596 13.2202L107.606 11.5244L106.863 11.5305ZM106.833 16.618L106.813 20.0097L107.556 20.0035L107.576 16.6119L106.833 16.618ZM106.793 23.4013L106.774 26.793L107.516 26.7868L107.536 23.3952L106.793 23.4013ZM106.754 30.1846L106.734 33.5763L107.477 33.5701L107.497 30.1785L106.754 30.1846ZM106.714 36.9679L106.694 40.3596L107.437 40.3534L107.457 36.9618L106.714 36.9679ZM106.674 43.7512L106.654 47.1429L107.397 47.1367L107.417 43.7451L106.674 43.7512ZM106.635 50.5345L106.615 53.9262L107.357 53.92L107.377 50.5284L106.635 50.5345ZM106.595 57.3178L106.575 60.7095L107.318 60.7033L107.338 57.3117L106.595 57.3178ZM106.555 64.1011L106.535 67.4928L107.278 67.4866L107.298 64.095L106.555 64.1011ZM106.515 70.8844L106.496 74.2761L107.238 74.2699L107.258 70.8783L106.515 70.8844ZM106.476 77.6677L106.456 81.0594L107.199 81.0532L107.218 77.6616L106.476 77.6677ZM106.436 84.451L106.416 87.8427L107.159 87.8365L107.179 84.4448L106.436 84.451ZM106.396 91.2343L106.376 94.626L107.119 94.6198L107.139 91.2281L106.396 91.2343ZM106.357 98.0176L106.347 99.7134L107.089 99.7073L107.099 98.0114L106.357 98.0176ZM106.724 99.4316L104.412 99.4316L104.4 99.9891L106.712 99.9891L106.724 99.4316ZM99.7883 99.4316L95.1647 99.4316L95.1533 99.9891L99.7769 99.9891L99.7883 99.4316ZM90.5412 99.4316L85.9176 99.4316L85.9061 99.9891L90.5297 99.9891L90.5412 99.4316ZM81.294 99.4316L76.6704 99.4316L76.6589 99.9891L81.2825 99.9891L81.294 99.4316ZM72.0468 99.4316L67.4232 99.4316L67.4117 99.9891L72.0353 99.9891L72.0468 99.4316ZM62.7996 99.4316L58.176 99.4316L58.1646 99.9891L62.7881 99.9891L62.7996 99.4316ZM53.5524 99.4316L48.9289 99.4316L48.9174 99.9891L53.541 99.9891L53.5524 99.4316ZM44.3053 99.4316L39.6817 99.4316L39.6702 99.9891L44.2938 99.9891L44.3053 99.4316ZM35.0581 99.4316L30.4345 99.4316L30.423 99.9891L35.0466 99.9891L35.0581 99.4316ZM25.8109 99.4316L21.1873 99.4316L21.1758 99.9891L25.7994 99.9891L25.8109 99.4316ZM16.5637 99.4316L11.9401 99.4316L11.9287 99.9891L16.5522 99.9891L16.5637 99.4316Z" fill="url(#paint0_linear_2_62736)"/>
<path d="M104.055 11.9373L72.7782 11.8582" stroke="url(#paint1_linear_2_62736)" stroke-width="0.656675" stroke-dasharray="3.94 3.94"/>
<defs>
<linearGradient id="paint0_linear_2_62736" x1="136.452" y1="32.2583" x2="60.6011" y2="139.162" gradientUnits="userSpaceOnUse">
<stop stop-color="#0026AA"/>
<stop offset="1" stop-color="#30CFFF"/>
</linearGradient>
<linearGradient id="paint1_linear_2_62736" x1="97.4031" y1="17.7152" x2="83.9132" y2="2.18567" gradientUnits="userSpaceOnUse">
<stop stop-color="#0026AA"/>
<stop offset="1" stop-color="#30CFFF"/>
</linearGradient>
</defs>
</svg>
