<svg width="112" height="153" viewBox="0 0 112 153" fill="none" xmlns="http://www.w3.org/2000/svg">
<path d="M33.3398 3.53303L33.3388 3.11931L32.926 3.12023L32.926 3.53304L33.3398 3.53303ZM111.633 3.35848L107.49 0.979057L107.501 5.75635L111.633 3.35848ZM33.3397 151.713L33.3397 152.126L33.7535 152.126L33.7535 151.713L33.3397 151.713ZM0.50317 152.126L3.23955 152.126L3.23955 151.299L0.503169 151.299L0.50317 152.126ZM8.71231 152.126L14.1851 152.126L14.1851 151.299L8.71231 151.299L8.71231 152.126ZM19.6578 152.126L25.1306 152.126L25.1306 151.299L19.6578 151.299L19.6578 152.126ZM30.6034 152.126L33.3397 152.126L33.3397 151.299L30.6034 151.299L30.6034 152.126ZM33.7535 151.713L33.7535 149.243L32.926 149.243L32.926 151.713L33.7535 151.713ZM33.7535 144.304L33.7535 139.364L32.926 139.364L32.926 144.304L33.7535 144.304ZM33.7535 134.425L33.7535 129.486L32.926 129.486L32.926 134.425L33.7535 134.425ZM33.7535 124.546L33.7535 119.607L32.926 119.607L32.926 124.546L33.7535 124.546ZM33.7535 114.668L33.7535 109.728L32.926 109.728L32.926 114.668L33.7535 114.668ZM33.7535 104.789L33.7535 99.8497L32.926 99.8497L32.926 104.789L33.7535 104.789ZM33.7535 94.9104L33.7535 89.9711L32.926 89.9711L32.926 94.9104L33.7535 94.9104ZM33.7535 85.0318L33.7535 80.0925L32.926 80.0925L32.926 85.0318L33.7535 85.0318ZM33.7535 75.1532L33.7535 70.2138L32.926 70.2138L32.926 75.1532L33.7535 75.1532ZM33.7535 65.2745L33.7535 60.3352L32.926 60.3352L32.926 65.2745L33.7535 65.2745ZM33.7535 55.3959L33.7535 50.4566L32.926 50.4566L32.926 55.3959L33.7535 55.3959ZM33.7535 45.5173L33.7535 40.5779L32.926 40.5779L32.926 45.5173L33.7535 45.5173ZM33.7535 35.6386L33.7535 30.6993L32.926 30.6993L32.926 35.6386L33.7535 35.6386ZM33.7535 25.76L33.7535 20.8207L32.926 20.8207L32.926 25.76L33.7535 25.76ZM33.7535 15.8814L33.7535 10.942L32.926 10.942L32.926 15.8814L33.7535 15.8814ZM33.7535 6.00272L33.7535 3.53302L32.926 3.53304L32.926 6.00271L33.7535 6.00272ZM33.3407 3.94675L35.7873 3.9413L35.7855 3.11385L33.3388 3.11931L33.3407 3.94675ZM40.6806 3.93038L45.5739 3.91949L45.5721 3.09203L40.6788 3.10294L40.6806 3.93038ZM50.4673 3.90857L55.3606 3.89767L55.3587 3.07021L50.4654 3.08111L50.4673 3.90857ZM60.2539 3.88676L65.1472 3.87584L65.1453 3.0484L60.252 3.0593L60.2539 3.88676ZM70.0405 3.86494L74.9338 3.85402L74.9319 3.02658L70.0386 3.03749L70.0405 3.86494ZM79.8271 3.84312L84.7204 3.83221L84.7186 3.00475L79.8252 3.01567L79.8271 3.84312ZM89.6137 3.8213L94.507 3.81039L94.5052 2.98294L89.6119 2.99385L89.6137 3.8213ZM99.4003 3.79948L104.294 3.78858L104.292 2.96112L99.3985 2.97203L99.4003 3.79948Z" fill="url(#paint0_linear_885_4891)"/>
<defs>
<linearGradient id="paint0_linear_885_4891" x1="-18.9962" y1="133.424" x2="107.036" y2="-0.952922" gradientUnits="userSpaceOnUse">
<stop stop-color="#0026AA"/>
<stop offset="1" stop-color="#30CFFF"/>
</linearGradient>
</defs>
</svg>
