<svg width="83" height="83" viewBox="0 0 83 83" fill="none" xmlns="http://www.w3.org/2000/svg">
<path d="M0.375 74.6502C0.742173 73.1361 1.72531 72.0491 2.79874 70.9822C8.17793 65.6418 13.529 60.2712 18.8902 54.9127C20.8023 53.0016 22.3954 53.0036 24.3135 54.9308C24.5944 55.2135 24.8311 55.5384 25.1361 55.9014C25.9487 54.9749 26.659 54.1627 27.3713 53.3505C27.4455 53.4006 27.5197 53.4488 27.594 53.4989C27.4154 53.2743 27.2448 53.0437 27.0542 52.8271C23.8961 49.2454 21.6911 45.1403 20.411 40.5559C19.161 36.0757 18.9002 31.5254 19.6947 26.929C21.2216 18.0951 25.6859 11.0921 33.0414 6.01435C39.1128 1.82702 45.9085 0.0421849 53.28 0.657852C54.9734 0.800237 56.6508 1.16523 58.3282 1.45802C58.7696 1.53422 59.0705 1.48609 59.4678 1.19531C59.9533 0.840346 60.6155 0.571618 61.2114 0.551564C63.3723 0.477363 65.5352 0.505439 67.6981 0.527499C69.2511 0.543542 70.2222 1.53222 70.2563 3.10046C70.2803 4.2215 70.2843 5.34253 70.2543 6.46156C70.2402 6.98297 70.3867 7.33794 70.808 7.68487C77.385 13.1256 81.2494 20.1005 82.1643 28.5674C83.0933 37.1667 80.8762 44.9678 75.4589 51.7642C70.6315 57.8206 64.3454 61.5326 56.7531 63.0467C56.0729 63.1831 55.3868 63.2794 54.7006 63.3857C53.884 63.512 53.2439 63.1109 53.1255 62.405C53.0132 61.7472 53.4706 61.2218 54.2672 61.0273C56.5906 60.4577 58.9923 60.0847 61.2194 59.2505C68.5528 56.503 73.938 51.5035 77.2125 44.4063C80.8421 36.541 80.9504 28.5213 77.5877 20.5216C75.9665 16.6652 73.5528 13.3362 70.2803 10.4062C70.2803 11.8461 70.2542 13.1336 70.3024 14.4171C70.3124 14.6618 70.5913 14.9104 70.7779 15.131C73.633 18.4881 75.5492 22.3165 76.446 26.6262C77.7061 32.6866 77.0058 38.5404 74.1567 44.0333C70.9405 50.2341 66.0368 54.6681 59.3735 56.878C50.8322 59.7097 42.7684 58.5185 35.425 53.2843C29.9354 49.3717 26.4363 44.0132 25.1602 37.4134C23.2962 27.7692 25.9969 19.4427 33.2059 12.7366C38.0454 8.23436 43.896 6.01034 50.5112 5.87397C52.951 5.82384 55.3547 6.15874 57.7102 6.8085C57.965 6.87869 58.2198 6.93886 58.595 7.03512C58.595 6.09056 58.6271 5.21619 58.5689 4.34784C58.5569 4.16735 58.2339 3.91467 58.0091 3.85651C54.4879 2.91797 50.9004 2.60913 47.2969 3.13255C36.7191 4.67272 28.9924 10.2358 24.3376 19.8638C21.7072 25.3026 20.9648 31.1143 22.1225 37.0323C24.464 49.0027 31.6569 56.6815 43.2881 60.2131C44.7809 60.6663 46.376 60.7806 47.9249 61.0493C48.2138 61.0995 48.5088 61.1215 48.7957 61.1817C49.5441 61.3361 49.9654 61.8696 49.8711 62.5233C49.7768 63.1711 49.201 63.6043 48.4666 63.5401C45.6396 63.2914 42.8748 62.7459 40.1982 61.7833C36.366 60.4036 32.915 58.3761 29.8652 55.6708C29.7087 55.5324 29.5402 55.4061 29.3255 55.2336C28.5811 56.0659 27.8568 56.872 27.0482 57.7745C27.3472 58.0432 27.7806 58.3962 28.1718 58.7912C29.7047 60.3374 29.7167 62.1042 28.1879 63.6464C25.5354 66.3176 22.8669 68.9708 20.2044 71.632C17.2589 74.576 14.3015 77.5059 11.3782 80.4719C10.5054 81.3563 9.55433 82.0783 8.3866 82.5034H6.62497C3.73574 81.0816 1.46649 79.0721 0.377006 75.9376V74.6562L0.375 74.6502ZM70.2643 45.5053C70.3325 45.5213 70.4007 45.5394 70.4709 45.5554C73.6812 40.8266 75.0275 35.5944 74.5279 29.899C74.1668 25.7819 72.7984 22.0157 70.3486 18.6566C70.2643 21.9274 70.2663 25.1762 70.2643 28.423C70.2643 28.7419 70.2703 29.0668 70.2282 29.3816C70.1439 30.0013 69.7346 30.3322 69.1427 30.3643C68.5528 30.3964 68.0974 30.1156 67.9609 29.5059C67.8807 29.147 67.8666 28.768 67.8666 28.3969C67.8626 20.2328 67.8626 12.0667 67.8626 3.90264V2.95006H61.0589V53.5791C63.3843 52.4882 65.3646 51.0763 67.1824 49.4118C67.678 48.9586 67.8827 48.5094 67.8787 47.8316C67.8466 43.6422 67.8586 39.4529 67.8646 35.2635C67.8646 34.1686 68.282 33.6311 69.0845 33.6351C69.8791 33.6391 70.2603 34.1605 70.2643 35.2796C70.2703 36.7195 70.2643 38.1614 70.2643 39.6013C70.2643 41.5686 70.2643 43.5359 70.2643 45.5033V45.5053ZM58.3603 9.63215C50.8703 6.7724 38.8459 8.04986 31.5727 18.1011C24.9355 27.2759 26.2015 38.4121 30.7902 44.7633C30.7902 44.4143 30.7902 44.1576 30.7902 43.8989C30.7902 39.4709 30.7842 35.0449 30.7922 30.617C30.7962 28.8101 31.7432 27.8635 33.559 27.8495C35.427 27.8354 37.295 27.8495 39.1629 27.8434C39.4458 27.8434 39.7287 27.8154 40.0678 27.7993C40.0678 27.4223 40.0678 27.1315 40.0678 26.8427C40.0678 25.0559 40.0578 23.2691 40.0718 21.4822C40.0859 19.7154 41.0369 18.7609 42.7865 18.7448C44.1468 18.7328 45.5092 18.7428 46.8695 18.7428C47.6601 18.7428 48.4506 18.7428 49.3334 18.7428C49.3334 18.3558 49.3334 18.069 49.3334 17.7822C49.3334 16.0756 49.3294 14.369 49.3334 12.6623C49.3394 10.5366 50.2323 9.63816 52.337 9.63616C54.3053 9.63415 56.2736 9.63616 58.3603 9.63616V9.63215ZM58.597 12.0808H51.7913V56.0919C53.8358 55.6808 55.778 55.2737 57.7282 54.9067C58.4425 54.7724 58.6171 54.4094 58.6151 53.6994C58.591 40.1508 58.597 26.6001 58.597 13.0514C58.597 12.7406 58.597 12.4277 58.597 12.0808ZM49.2772 55.8453V21.1934H42.4655C42.4655 21.5284 42.4655 21.8151 42.4655 22.1019C42.4655 32.5823 42.4655 43.0647 42.4655 53.545C42.4655 53.7055 42.4213 53.8839 42.4775 54.0203C42.5578 54.2108 42.6761 54.4675 42.8407 54.5277C44.8992 55.2837 47.022 55.741 49.2772 55.8453ZM33.1939 30.2901V31.3409C33.1939 35.795 33.1918 40.251 33.1939 44.7051C33.1939 45.8502 32.8588 47.1798 33.3263 48.0943C33.8841 49.1872 35.0799 50.0014 36.1072 50.7976C37.309 51.7301 38.6272 52.5142 40.0197 53.4448V30.2901H33.1939ZM12.6382 64.5629C9.5764 67.6211 6.50659 70.6634 3.46888 73.7397C2.51584 74.7043 2.55597 75.9577 3.50099 76.9604C4.23333 77.7365 4.99978 78.4805 5.76021 79.2306C6.92593 80.3797 8.05353 80.3696 9.22929 79.1965C12.1025 76.3327 14.9696 73.465 17.8388 70.5952C17.9973 70.4347 18.1357 70.2543 18.228 70.15C16.3541 68.2769 14.5262 66.45 12.6402 64.5629H12.6382ZM17.9251 59.2425C19.8372 61.1556 21.6771 62.9946 23.5611 64.8777C24.5502 63.887 25.6096 62.8402 26.6489 61.7773C27.0783 61.3381 26.9238 60.915 26.5306 60.5239C25.114 59.1141 23.6955 57.7043 22.289 56.2844C21.8215 55.8132 21.3942 55.7951 20.9186 56.2724C19.9054 57.2932 18.8761 58.2979 17.9251 59.2404V59.2425ZM21.5587 66.8029C19.6987 64.9379 17.8609 63.0969 16.0732 61.308C15.5796 61.7693 15.0278 62.2867 14.5563 62.7279C16.4283 64.5909 18.2722 66.4239 20.1341 68.2769C20.5916 67.8036 21.1092 67.2682 21.5567 66.8049L21.5587 66.8029Z" fill="url(#paint0_linear_897_23367)"/>
<defs>
<linearGradient id="paint0_linear_897_23367" x1="41.3724" y1="0.503418" x2="41.3724" y2="82.5034" gradientUnits="userSpaceOnUse">
<stop stop-color="#0026AA"/>
<stop offset="1" stop-color="#30CFFF"/>
</linearGradient>
</defs>
</svg>
