<svg width="267" height="201" viewBox="0 0 267 201" fill="none" xmlns="http://www.w3.org/2000/svg">
<path d="M19.5938 182.672V191C19.3125 191.417 18.8646 191.885 18.25 192.406C17.6354 192.917 16.7865 193.365 15.7031 193.75C14.6302 194.125 13.2448 194.312 11.5469 194.312C10.1615 194.312 8.88542 194.073 7.71875 193.594C6.5625 193.104 5.55729 192.396 4.70312 191.469C3.85938 190.531 3.20312 189.396 2.73438 188.062C2.27604 186.719 2.04688 185.198 2.04688 183.5V181.734C2.04688 180.036 2.24479 178.521 2.64062 177.188C3.04688 175.854 3.64062 174.724 4.42188 173.797C5.20312 172.859 6.16146 172.151 7.29688 171.672C8.43229 171.182 9.73438 170.938 11.2031 170.938C12.9427 170.938 14.3958 171.24 15.5625 171.844C16.7396 172.438 17.6562 173.26 18.3125 174.312C18.9792 175.365 19.4062 176.562 19.5938 177.906H16.5781C16.4427 177.083 16.1719 176.333 15.7656 175.656C15.3698 174.979 14.8021 174.438 14.0625 174.031C13.3229 173.615 12.3698 173.406 11.2031 173.406C10.151 173.406 9.23958 173.599 8.46875 173.984C7.69792 174.37 7.0625 174.922 6.5625 175.641C6.0625 176.359 5.6875 177.229 5.4375 178.25C5.19792 179.271 5.07812 180.422 5.07812 181.703V183.5C5.07812 184.812 5.22917 185.984 5.53125 187.016C5.84375 188.047 6.28646 188.927 6.85938 189.656C7.43229 190.375 8.11458 190.922 8.90625 191.297C9.70833 191.672 10.5938 191.859 11.5625 191.859C12.6354 191.859 13.5052 191.771 14.1719 191.594C14.8385 191.406 15.3594 191.188 15.7344 190.938C16.1094 190.677 16.3958 190.432 16.5938 190.203V185.109H11.3281V182.672H19.5938ZM34.125 191.109V182.406C34.125 181.74 33.9896 181.161 33.7188 180.672C33.4583 180.172 33.0625 179.786 32.5312 179.516C32 179.245 31.3438 179.109 30.5625 179.109C29.8333 179.109 29.1927 179.234 28.6406 179.484C28.099 179.734 27.6719 180.062 27.3594 180.469C27.0573 180.875 26.9062 181.312 26.9062 181.781H24.0156C24.0156 181.177 24.1719 180.578 24.4844 179.984C24.7969 179.391 25.2448 178.854 25.8281 178.375C26.4219 177.885 27.1302 177.5 27.9531 177.219C28.7865 176.927 29.7135 176.781 30.7344 176.781C31.9635 176.781 33.0469 176.99 33.9844 177.406C34.9323 177.823 35.6719 178.453 36.2031 179.297C36.7448 180.13 37.0156 181.177 37.0156 182.438V190.312C37.0156 190.875 37.0625 191.474 37.1562 192.109C37.2604 192.745 37.4115 193.292 37.6094 193.75V194H34.5938C34.4479 193.667 34.3333 193.224 34.25 192.672C34.1667 192.109 34.125 191.589 34.125 191.109ZM34.625 183.75L34.6562 185.781H31.7344C30.9115 185.781 30.1771 185.849 29.5312 185.984C28.8854 186.109 28.3438 186.302 27.9062 186.562C27.4688 186.823 27.1354 187.151 26.9062 187.547C26.6771 187.932 26.5625 188.385 26.5625 188.906C26.5625 189.438 26.6823 189.922 26.9219 190.359C27.1615 190.797 27.5208 191.146 28 191.406C28.4896 191.656 29.0885 191.781 29.7969 191.781C30.6823 191.781 31.4635 191.594 32.1406 191.219C32.8177 190.844 33.3542 190.385 33.75 189.844C34.1562 189.302 34.375 188.776 34.4062 188.266L35.6406 189.656C35.5677 190.094 35.3698 190.578 35.0469 191.109C34.724 191.641 34.2917 192.151 33.75 192.641C33.2188 193.12 32.5833 193.521 31.8438 193.844C31.1146 194.156 30.2917 194.312 29.375 194.312C28.2292 194.312 27.224 194.089 26.3594 193.641C25.5052 193.193 24.8385 192.594 24.3594 191.844C23.8906 191.083 23.6562 190.234 23.6562 189.297C23.6562 188.391 23.8333 187.594 24.1875 186.906C24.5417 186.208 25.0521 185.63 25.7188 185.172C26.3854 184.703 27.1875 184.349 28.125 184.109C29.0625 183.87 30.1094 183.75 31.2656 183.75H34.625ZM51.4062 189.516C51.4062 189.099 51.3125 188.714 51.125 188.359C50.9479 187.995 50.5781 187.667 50.0156 187.375C49.4635 187.073 48.6302 186.812 47.5156 186.594C46.5781 186.396 45.7292 186.161 44.9688 185.891C44.2188 185.62 43.5781 185.292 43.0469 184.906C42.526 184.521 42.125 184.068 41.8438 183.547C41.5625 183.026 41.4219 182.417 41.4219 181.719C41.4219 181.052 41.5677 180.422 41.8594 179.828C42.1615 179.234 42.5833 178.708 43.125 178.25C43.6771 177.792 44.3385 177.432 45.1094 177.172C45.8802 176.911 46.7396 176.781 47.6875 176.781C49.0417 176.781 50.1979 177.021 51.1562 177.5C52.1146 177.979 52.849 178.62 53.3594 179.422C53.8698 180.214 54.125 181.094 54.125 182.062H51.2344C51.2344 181.594 51.0938 181.141 50.8125 180.703C50.5417 180.255 50.1406 179.885 49.6094 179.594C49.0885 179.302 48.4479 179.156 47.6875 179.156C46.8854 179.156 46.2344 179.281 45.7344 179.531C45.2448 179.771 44.8854 180.078 44.6562 180.453C44.4375 180.828 44.3281 181.224 44.3281 181.641C44.3281 181.953 44.3802 182.234 44.4844 182.484C44.599 182.724 44.7969 182.948 45.0781 183.156C45.3594 183.354 45.7552 183.542 46.2656 183.719C46.776 183.896 47.4271 184.073 48.2188 184.25C49.6042 184.562 50.7448 184.938 51.6406 185.375C52.5365 185.812 53.2031 186.349 53.6406 186.984C54.0781 187.62 54.2969 188.391 54.2969 189.297C54.2969 190.036 54.1406 190.714 53.8281 191.328C53.526 191.943 53.0833 192.474 52.5 192.922C51.9271 193.359 51.2396 193.703 50.4375 193.953C49.6458 194.193 48.7552 194.312 47.7656 194.312C46.276 194.312 45.0156 194.047 43.9844 193.516C42.9531 192.984 42.1719 192.297 41.6406 191.453C41.1094 190.609 40.8438 189.719 40.8438 188.781H43.75C43.7917 189.573 44.0208 190.203 44.4375 190.672C44.8542 191.13 45.3646 191.458 45.9688 191.656C46.5729 191.844 47.1719 191.938 47.7656 191.938C48.5573 191.938 49.2188 191.833 49.75 191.625C50.2917 191.417 50.7031 191.13 50.9844 190.766C51.2656 190.401 51.4062 189.984 51.4062 189.516ZM70.2344 181.375L73.6406 178.953C74.2969 178.505 74.8021 178.057 75.1562 177.609C75.5208 177.151 75.7031 176.526 75.7031 175.734C75.7031 175.12 75.4635 174.562 74.9844 174.062C74.5052 173.552 73.8281 173.297 72.9531 173.297C72.349 173.297 71.8385 173.438 71.4219 173.719C71.0052 174 70.6927 174.375 70.4844 174.844C70.276 175.302 70.1719 175.807 70.1719 176.359C70.1719 176.828 70.2865 177.312 70.5156 177.812C70.7448 178.312 71.0625 178.833 71.4688 179.375C71.875 179.917 72.3385 180.49 72.8594 181.094L83.625 194H80.1562L71.3281 183.438C70.5469 182.521 69.849 181.682 69.2344 180.922C68.6198 180.151 68.1354 179.406 67.7812 178.688C67.4375 177.969 67.2656 177.224 67.2656 176.453C67.2656 175.266 67.5 174.266 67.9688 173.453C68.4479 172.63 69.1146 172.005 69.9688 171.578C70.8229 171.151 71.8229 170.938 72.9688 170.938C74.0833 170.938 75.0417 171.161 75.8438 171.609C76.6562 172.047 77.2812 172.63 77.7188 173.359C78.1562 174.078 78.375 174.87 78.375 175.734C78.375 176.464 78.2448 177.12 77.9844 177.703C77.724 178.276 77.3594 178.802 76.8906 179.281C76.4323 179.76 75.8958 180.229 75.2812 180.688L70.7656 184.047C70.0156 184.599 69.4688 185.125 69.125 185.625C68.7812 186.125 68.5573 186.568 68.4531 186.953C68.3594 187.339 68.3125 187.646 68.3125 187.875C68.3125 188.615 68.474 189.292 68.7969 189.906C69.1198 190.521 69.6094 191.016 70.2656 191.391C70.9323 191.755 71.7656 191.938 72.7656 191.938C73.6406 191.938 74.4896 191.74 75.3125 191.344C76.1458 190.938 76.8906 190.365 77.5469 189.625C78.2031 188.875 78.724 187.984 79.1094 186.953C79.5052 185.911 79.7031 184.76 79.7031 183.5H82.2969C82.2969 184.531 82.1979 185.505 82 186.422C81.8021 187.339 81.4948 188.193 81.0781 188.984C80.6719 189.766 80.151 190.479 79.5156 191.125C79.4219 191.219 79.349 191.328 79.2969 191.453C79.2448 191.578 79.1719 191.688 79.0781 191.781C78.2969 192.625 77.3333 193.26 76.1875 193.688C75.0521 194.104 73.9115 194.312 72.7656 194.312C71.2552 194.312 69.9479 194.036 68.8438 193.484C67.75 192.932 66.9062 192.172 66.3125 191.203C65.7188 190.234 65.4219 189.125 65.4219 187.875C65.4219 186.917 65.625 186.073 66.0312 185.344C66.4479 184.615 67.0156 183.932 67.7344 183.297C68.4635 182.661 69.2969 182.021 70.2344 181.375ZM111.828 181.906V183.344C111.828 185.052 111.615 186.583 111.188 187.938C110.76 189.292 110.146 190.443 109.344 191.391C108.542 192.339 107.578 193.062 106.453 193.562C105.339 194.062 104.089 194.312 102.703 194.312C101.359 194.312 100.125 194.062 99 193.562C97.8854 193.062 96.9167 192.339 96.0938 191.391C95.2812 190.443 94.651 189.292 94.2031 187.938C93.7552 186.583 93.5312 185.052 93.5312 183.344V181.906C93.5312 180.198 93.75 178.672 94.1875 177.328C94.6354 175.974 95.2656 174.823 96.0781 173.875C96.8906 172.917 97.8542 172.188 98.9688 171.688C100.094 171.188 101.328 170.938 102.672 170.938C104.057 170.938 105.307 171.188 106.422 171.688C107.547 172.188 108.51 172.917 109.312 173.875C110.125 174.823 110.745 175.974 111.172 177.328C111.609 178.672 111.828 180.198 111.828 181.906ZM108.844 183.344V181.875C108.844 180.521 108.703 179.323 108.422 178.281C108.151 177.24 107.75 176.365 107.219 175.656C106.688 174.948 106.036 174.411 105.266 174.047C104.505 173.682 103.641 173.5 102.672 173.5C101.734 173.5 100.885 173.682 100.125 174.047C99.375 174.411 98.7292 174.948 98.1875 175.656C97.6562 176.365 97.2448 177.24 96.9531 178.281C96.6615 179.323 96.5156 180.521 96.5156 181.875V183.344C96.5156 184.708 96.6615 185.917 96.9531 186.969C97.2448 188.01 97.6615 188.891 98.2031 189.609C98.7552 190.318 99.4062 190.854 100.156 191.219C100.917 191.583 101.766 191.766 102.703 191.766C103.682 191.766 104.552 191.583 105.312 191.219C106.073 190.854 106.714 190.318 107.234 189.609C107.766 188.891 108.167 188.01 108.438 186.969C108.708 185.917 108.844 184.708 108.844 183.344ZM119.047 177.094V194H116.141V177.094H119.047ZM115.922 172.609C115.922 172.141 116.062 171.745 116.344 171.422C116.635 171.099 117.062 170.938 117.625 170.938C118.177 170.938 118.599 171.099 118.891 171.422C119.193 171.745 119.344 172.141 119.344 172.609C119.344 173.057 119.193 173.443 118.891 173.766C118.599 174.078 118.177 174.234 117.625 174.234C117.062 174.234 116.635 174.078 116.344 173.766C116.062 173.443 115.922 173.057 115.922 172.609ZM126.828 170V194H123.922V170H126.828ZM148.234 185.078H142.156V182.625H148.234C149.411 182.625 150.365 182.438 151.094 182.062C151.823 181.688 152.354 181.167 152.688 180.5C153.031 179.833 153.203 179.073 153.203 178.219C153.203 177.438 153.031 176.703 152.688 176.016C152.354 175.328 151.823 174.776 151.094 174.359C150.365 173.932 149.411 173.719 148.234 173.719H142.859V194H139.844V171.25H148.234C149.953 171.25 151.406 171.547 152.594 172.141C153.781 172.734 154.682 173.557 155.297 174.609C155.911 175.651 156.219 176.844 156.219 178.188C156.219 179.646 155.911 180.891 155.297 181.922C154.682 182.953 153.781 183.74 152.594 184.281C151.406 184.812 149.953 185.078 148.234 185.078ZM162.734 177.094V194H159.828V177.094H162.734ZM159.609 172.609C159.609 172.141 159.75 171.745 160.031 171.422C160.323 171.099 160.75 170.938 161.312 170.938C161.865 170.938 162.286 171.099 162.578 171.422C162.88 171.745 163.031 172.141 163.031 172.609C163.031 173.057 162.88 173.443 162.578 173.766C162.286 174.078 161.865 174.234 161.312 174.234C160.75 174.234 160.323 174.078 160.031 173.766C159.75 173.443 159.609 173.057 159.609 172.609ZM170.266 180.344V200.5H167.359V177.094H170.016L170.266 180.344ZM181.656 185.406V185.734C181.656 186.964 181.51 188.104 181.219 189.156C180.927 190.198 180.5 191.104 179.938 191.875C179.385 192.646 178.703 193.245 177.891 193.672C177.078 194.099 176.146 194.312 175.094 194.312C174.021 194.312 173.073 194.135 172.25 193.781C171.427 193.427 170.729 192.911 170.156 192.234C169.583 191.557 169.125 190.745 168.781 189.797C168.448 188.849 168.219 187.781 168.094 186.594V184.844C168.219 183.594 168.453 182.474 168.797 181.484C169.141 180.495 169.594 179.651 170.156 178.953C170.729 178.245 171.422 177.708 172.234 177.344C173.047 176.969 173.984 176.781 175.047 176.781C176.109 176.781 177.052 176.99 177.875 177.406C178.698 177.812 179.391 178.396 179.953 179.156C180.516 179.917 180.938 180.828 181.219 181.891C181.51 182.943 181.656 184.115 181.656 185.406ZM178.75 185.734V185.406C178.75 184.562 178.661 183.771 178.484 183.031C178.307 182.281 178.031 181.625 177.656 181.062C177.292 180.49 176.823 180.042 176.25 179.719C175.677 179.385 174.995 179.219 174.203 179.219C173.474 179.219 172.839 179.344 172.297 179.594C171.766 179.844 171.312 180.182 170.938 180.609C170.562 181.026 170.255 181.505 170.016 182.047C169.786 182.578 169.615 183.13 169.5 183.703V187.75C169.708 188.479 170 189.167 170.375 189.812C170.75 190.448 171.25 190.964 171.875 191.359C172.5 191.745 173.286 191.938 174.234 191.938C175.016 191.938 175.688 191.776 176.25 191.453C176.823 191.12 177.292 190.667 177.656 190.094C178.031 189.521 178.307 188.865 178.484 188.125C178.661 187.375 178.75 186.578 178.75 185.734ZM192.359 194.312C191.182 194.312 190.115 194.115 189.156 193.719C188.208 193.312 187.391 192.745 186.703 192.016C186.026 191.286 185.505 190.422 185.141 189.422C184.776 188.422 184.594 187.328 184.594 186.141V185.484C184.594 184.109 184.797 182.885 185.203 181.812C185.609 180.729 186.161 179.812 186.859 179.062C187.557 178.312 188.349 177.745 189.234 177.359C190.12 176.974 191.036 176.781 191.984 176.781C193.193 176.781 194.234 176.99 195.109 177.406C195.995 177.823 196.719 178.406 197.281 179.156C197.844 179.896 198.26 180.771 198.531 181.781C198.802 182.781 198.938 183.875 198.938 185.062V186.359H186.312V184H196.047V183.781C196.005 183.031 195.849 182.302 195.578 181.594C195.318 180.885 194.901 180.302 194.328 179.844C193.755 179.385 192.974 179.156 191.984 179.156C191.328 179.156 190.724 179.297 190.172 179.578C189.62 179.849 189.146 180.255 188.75 180.797C188.354 181.339 188.047 182 187.828 182.781C187.609 183.562 187.5 184.464 187.5 185.484V186.141C187.5 186.943 187.609 187.698 187.828 188.406C188.057 189.104 188.385 189.719 188.812 190.25C189.25 190.781 189.776 191.198 190.391 191.5C191.016 191.802 191.724 191.953 192.516 191.953C193.536 191.953 194.401 191.745 195.109 191.328C195.818 190.911 196.438 190.354 196.969 189.656L198.719 191.047C198.354 191.599 197.891 192.125 197.328 192.625C196.766 193.125 196.073 193.531 195.25 193.844C194.438 194.156 193.474 194.312 192.359 194.312ZM205.453 170V194H202.547V170H205.453ZM213.234 177.094V194H210.328V177.094H213.234ZM210.109 172.609C210.109 172.141 210.25 171.745 210.531 171.422C210.823 171.099 211.25 170.938 211.812 170.938C212.365 170.938 212.786 171.099 213.078 171.422C213.38 171.745 213.531 172.141 213.531 172.609C213.531 173.057 213.38 173.443 213.078 173.766C212.786 174.078 212.365 174.234 211.812 174.234C211.25 174.234 210.823 174.078 210.531 173.766C210.25 173.443 210.109 173.057 210.109 172.609ZM220.766 180.703V194H217.875V177.094H220.609L220.766 180.703ZM220.078 184.906L218.875 184.859C218.885 183.703 219.057 182.635 219.391 181.656C219.724 180.667 220.193 179.807 220.797 179.078C221.401 178.349 222.12 177.786 222.953 177.391C223.797 176.984 224.729 176.781 225.75 176.781C226.583 176.781 227.333 176.896 228 177.125C228.667 177.344 229.234 177.698 229.703 178.188C230.182 178.677 230.547 179.312 230.797 180.094C231.047 180.865 231.172 181.807 231.172 182.922V194H228.266V182.891C228.266 182.005 228.135 181.297 227.875 180.766C227.615 180.224 227.234 179.833 226.734 179.594C226.234 179.344 225.62 179.219 224.891 179.219C224.172 179.219 223.516 179.37 222.922 179.672C222.339 179.974 221.833 180.391 221.406 180.922C220.99 181.453 220.661 182.062 220.422 182.75C220.193 183.427 220.078 184.146 220.078 184.906ZM242.578 194.312C241.401 194.312 240.333 194.115 239.375 193.719C238.427 193.312 237.609 192.745 236.922 192.016C236.245 191.286 235.724 190.422 235.359 189.422C234.995 188.422 234.812 187.328 234.812 186.141V185.484C234.812 184.109 235.016 182.885 235.422 181.812C235.828 180.729 236.38 179.812 237.078 179.062C237.776 178.312 238.568 177.745 239.453 177.359C240.339 176.974 241.255 176.781 242.203 176.781C243.411 176.781 244.453 176.99 245.328 177.406C246.214 177.823 246.938 178.406 247.5 179.156C248.062 179.896 248.479 180.771 248.75 181.781C249.021 182.781 249.156 183.875 249.156 185.062V186.359H236.531V184H246.266V183.781C246.224 183.031 246.068 182.302 245.797 181.594C245.536 180.885 245.12 180.302 244.547 179.844C243.974 179.385 243.193 179.156 242.203 179.156C241.547 179.156 240.943 179.297 240.391 179.578C239.839 179.849 239.365 180.255 238.969 180.797C238.573 181.339 238.266 182 238.047 182.781C237.828 183.562 237.719 184.464 237.719 185.484V186.141C237.719 186.943 237.828 187.698 238.047 188.406C238.276 189.104 238.604 189.719 239.031 190.25C239.469 190.781 239.995 191.198 240.609 191.5C241.234 191.802 241.943 191.953 242.734 191.953C243.755 191.953 244.62 191.745 245.328 191.328C246.036 190.911 246.656 190.354 247.188 189.656L248.938 191.047C248.573 191.599 248.109 192.125 247.547 192.625C246.984 193.125 246.292 193.531 245.469 193.844C244.656 194.156 243.693 194.312 242.578 194.312ZM262.375 189.516C262.375 189.099 262.281 188.714 262.094 188.359C261.917 187.995 261.547 187.667 260.984 187.375C260.432 187.073 259.599 186.812 258.484 186.594C257.547 186.396 256.698 186.161 255.938 185.891C255.188 185.62 254.547 185.292 254.016 184.906C253.495 184.521 253.094 184.068 252.812 183.547C252.531 183.026 252.391 182.417 252.391 181.719C252.391 181.052 252.536 180.422 252.828 179.828C253.13 179.234 253.552 178.708 254.094 178.25C254.646 177.792 255.307 177.432 256.078 177.172C256.849 176.911 257.708 176.781 258.656 176.781C260.01 176.781 261.167 177.021 262.125 177.5C263.083 177.979 263.818 178.62 264.328 179.422C264.839 180.214 265.094 181.094 265.094 182.062H262.203C262.203 181.594 262.062 181.141 261.781 180.703C261.51 180.255 261.109 179.885 260.578 179.594C260.057 179.302 259.417 179.156 258.656 179.156C257.854 179.156 257.203 179.281 256.703 179.531C256.214 179.771 255.854 180.078 255.625 180.453C255.406 180.828 255.297 181.224 255.297 181.641C255.297 181.953 255.349 182.234 255.453 182.484C255.568 182.724 255.766 182.948 256.047 183.156C256.328 183.354 256.724 183.542 257.234 183.719C257.745 183.896 258.396 184.073 259.188 184.25C260.573 184.562 261.714 184.938 262.609 185.375C263.505 185.812 264.172 186.349 264.609 186.984C265.047 187.62 265.266 188.391 265.266 189.297C265.266 190.036 265.109 190.714 264.797 191.328C264.495 191.943 264.052 192.474 263.469 192.922C262.896 193.359 262.208 193.703 261.406 193.953C260.615 194.193 259.724 194.312 258.734 194.312C257.245 194.312 255.984 194.047 254.953 193.516C253.922 192.984 253.141 192.297 252.609 191.453C252.078 190.609 251.812 189.719 251.812 188.781H254.719C254.76 189.573 254.99 190.203 255.406 190.672C255.823 191.13 256.333 191.458 256.938 191.656C257.542 191.844 258.141 191.938 258.734 191.938C259.526 191.938 260.188 191.833 260.719 191.625C261.26 191.417 261.672 191.13 261.953 190.766C262.234 190.401 262.375 189.984 262.375 189.516Z" fill="black"/>
<g clip-path="url(#clip0_973_6067)">
<path d="M154.959 30.3445V99.3262C154.959 105.503 149.933 110.529 143.757 110.529H136.781C134.724 110.529 133.047 112.205 133.047 114.263V168.039H125.579V114.263C125.579 108.087 130.605 103.06 136.781 103.06H143.757C145.814 103.06 147.491 101.384 147.491 99.3262V30.3445C147.491 28.287 145.814 26.6103 143.757 26.6103H136.781C130.605 26.6103 125.579 21.5841 125.579 15.4078V0.000488281H133.047V15.4078C133.047 17.4653 134.724 19.1419 136.781 19.1419H143.757C149.933 19.1419 154.959 24.1682 154.959 30.3445Z" fill="#E3E7E8"/>
<path d="M154.959 30.3445V99.3262C154.959 105.503 149.932 110.529 143.756 110.529H136.781C134.723 110.529 133.046 112.205 133.046 114.263V168.039H129.312V114.263C129.312 110.144 132.662 106.795 136.781 106.795H143.756C147.875 106.795 151.224 103.445 151.224 99.3262V30.3445C151.224 26.2257 147.875 22.8761 143.756 22.8761H136.781C132.662 22.8761 129.312 19.5266 129.312 15.4078V0.000488281H133.046V15.4078C133.046 17.4653 134.723 19.1419 136.781 19.1419H143.756C149.932 19.1419 154.959 24.1682 154.959 30.3445Z" fill="#BDC3C7"/>
<g style="mix-blend-mode:multiply">
<path d="M136.781 26.6105H140.093V19.1421H136.781C134.724 19.1421 133.047 17.4655 133.047 15.4079V12.7902L132.255 13.5819C129.966 15.871 126.945 14.7731 125.579 12.6782V15.4079C125.579 21.5843 130.605 26.6105 136.781 26.6105Z" fill="#BDC3C7"/>
</g>
<g style="mix-blend-mode:multiply">
<path d="M143.757 19.1418H140.773V26.6102H143.757C145.814 26.6102 147.491 28.2869 147.491 30.3444V99.3261C147.491 101.384 145.814 103.06 143.757 103.06H136.781C130.605 103.06 125.579 108.087 125.579 114.263V158.961C127.304 156.508 131.609 156.65 133.047 159.372V114.263C133.047 112.205 134.724 110.529 136.781 110.529H143.757C149.933 110.529 154.959 105.502 154.959 99.3261V30.3444C154.959 24.1681 149.933 19.1418 143.757 19.1418Z" fill="#BDC3C7"/>
</g>
<path d="M213.332 80.2856V87.754H136.968C130.791 87.754 125.765 82.7277 125.765 76.5514V30.3445C125.765 24.1682 130.791 19.1419 136.968 19.1419H163.854C165.911 19.1419 167.588 17.4653 167.588 15.4078V0.000488281H175.056V15.4078C175.056 21.5841 170.03 26.6103 163.854 26.6103H136.968C134.91 26.6103 133.233 28.287 133.233 30.3445V76.5514C133.233 78.6089 134.91 80.2856 136.968 80.2856H213.332Z" fill="#E3E7E8"/>
<path d="M213.331 80.2856V84.0198H136.967C132.848 84.0198 129.499 80.6702 129.499 76.5514V30.3445C129.499 26.2257 132.848 22.8761 136.967 22.8761H163.853C167.972 22.8761 171.322 19.5266 171.322 15.4078V0.000488281H175.056V15.4078C175.056 21.5841 170.03 26.6103 163.853 26.6103H136.967C134.909 26.6103 133.233 28.287 133.233 30.3445V76.5514C133.233 78.6089 134.909 80.2856 136.967 80.2856H213.331Z" fill="#BDC3C7"/>
<g style="mix-blend-mode:multiply">
<path d="M132.255 71.286L133.233 72.2644V51.928C131.743 54.6017 127.445 54.6875 125.765 52.1968V71.9208C127.206 70.0052 130.063 69.0978 132.255 71.286Z" fill="#BDC3C7"/>
</g>
<path d="M213.333 38.2756V45.744H178.792C176.734 45.744 175.057 47.4207 175.057 49.4782V54.609C175.057 60.7853 170.031 65.8116 163.855 65.8116H94.7723C92.7148 65.8116 91.0381 67.4882 91.0381 69.5457V118.561C91.0381 124.737 86.0119 129.763 79.8356 129.763H45.2943V122.295H79.8356C81.8931 122.295 83.5698 120.618 83.5698 118.561V69.5457C83.5698 63.3694 88.596 58.3432 94.7723 58.3432H163.855C165.912 58.3432 167.589 56.6703 167.589 54.609V49.4782C167.589 43.3019 172.615 38.2756 178.792 38.2756H213.333Z" fill="#E3E7E8"/>
<path d="M213.333 42.0098V45.744H178.792C176.734 45.744 175.057 47.4206 175.057 49.4781V54.6089C175.057 60.7853 170.031 65.8115 163.855 65.8115H94.7723C92.7148 65.8115 91.0381 67.4881 91.0381 69.5457V118.561C91.0381 124.737 86.0119 129.763 79.8356 129.763H45.2943V126.029H79.8356C83.9544 126.029 87.3039 122.679 87.3039 118.561V69.5457C87.3039 65.4269 90.6535 62.0773 94.7723 62.0773H163.855C167.974 62.0773 171.323 58.7277 171.323 54.6089V49.4781C171.323 45.3593 174.673 42.0098 178.792 42.0098H213.333Z" fill="#BDC3C7"/>
<g style="mix-blend-mode:multiply">
<path d="M99.9634 58.343C102.331 60.1653 102.084 64.5007 99.239 65.8114H118.9C115.576 64.9301 115.031 60.4192 117.26 58.343H99.9634Z" fill="#BDC3C7"/>
</g>
<g style="mix-blend-mode:multiply">
<path d="M75.66 122.295H58.2251C60.6971 123.997 60.5776 128.303 57.8778 129.763H75.9998C73.3 128.303 73.188 123.997 75.66 122.295Z" fill="#BDC3C7"/>
</g>
<path d="M213.333 122.295V129.763H159.829C157.772 129.763 156.095 131.44 156.095 133.497V142.325C156.095 148.501 151.069 153.528 144.893 153.528H73.5024C67.3223 153.528 62.2998 148.501 62.2998 142.325V91.6745C62.2998 89.617 60.6232 87.9403 58.5656 87.9403H45.2943V80.4719H58.5656C64.742 80.4719 69.7682 85.4981 69.7682 91.6745V142.325C69.7682 144.383 71.4411 146.059 73.5024 146.059H144.893C146.954 146.059 148.627 144.383 148.627 142.325V133.497C148.627 127.321 153.653 122.295 159.829 122.295H213.333Z" fill="#E3E7E8"/>
<path d="M213.333 126.029V129.764H159.829C157.772 129.764 156.095 131.44 156.095 133.498V142.325C156.095 148.502 151.069 153.528 144.893 153.528H73.5024C67.3223 153.528 62.2998 148.502 62.2998 142.325V91.6749C62.2998 89.6174 60.6232 87.9407 58.5656 87.9407H45.2943V84.2065H58.5656C62.6807 84.2065 66.034 87.5561 66.034 91.6749V142.325C66.034 146.444 69.3836 149.794 73.5024 149.794H144.893C149.011 149.794 152.361 146.444 152.361 142.325V133.498C152.361 129.379 155.711 126.029 159.829 126.029H213.333Z" fill="#BDC3C7"/>
<g style="mix-blend-mode:multiply">
<path d="M180.39 122.295H163.183C165.655 123.998 165.536 128.303 162.836 129.764H180.73C178.03 128.303 177.918 123.998 180.39 122.295Z" fill="#BDC3C7"/>
</g>
<path d="M175.057 114.263V168.039H167.589V114.263C167.589 112.205 165.912 110.528 163.855 110.528H115.531C109.354 110.528 104.328 105.502 104.328 99.3259V49.4782C104.328 47.4207 102.651 45.744 100.594 45.744H45.2943V38.2756H100.594C106.77 38.2756 111.796 43.3019 111.796 49.4782V99.3259C111.796 101.383 113.469 103.06 115.531 103.06H163.855C170.031 103.06 175.057 108.086 175.057 114.263Z" fill="#BDC3C7"/>
<path d="M175.057 114.263V168.039H171.323V114.263C171.323 110.144 167.974 106.794 163.855 106.794H115.531C111.412 106.794 108.062 103.445 108.062 99.3259V49.4782C108.062 45.3594 104.713 42.0098 100.594 42.0098H45.2943V38.2756H100.594C106.77 38.2756 111.796 43.3019 111.796 49.4782V99.3259C111.796 101.383 113.469 103.06 115.531 103.06H163.855C170.031 103.06 175.057 108.086 175.057 114.263Z" fill="#E3E7E8"/>
<path d="M133.028 116.354V139.596H125.567V135.809C125.567 134.159 124.23 132.822 122.58 132.822H122.345V126.959H122.58C122.815 126.959 123.043 126.933 123.263 126.881C124.585 126.571 125.567 125.387 125.567 123.972V116.354H133.028Z" fill="#E3E7E8"/>
<path d="M128.499 118.311V123.147C128.499 125.208 126.826 126.881 124.764 126.881H123.263C124.585 126.571 125.567 125.387 125.567 123.972V118.311H128.499Z" fill="#BDC3C7"/>
<path d="M133.506 139.596H125.201V143.427H133.506V139.596Z" fill="#34495E"/>
<path d="M132.144 116.354H124.855V120.525H132.144V116.354Z" fill="#34495E"/>
<path d="M133.849 116.354H130.04V120.525H133.849V116.354Z" fill="#222F3D"/>
<path d="M133.85 116.978H124.855V117.597H133.85V116.978Z" fill="#F1C40F"/>
<path d="M133.849 116.978H130.04V117.597H133.849V116.978Z" fill="#F39C12"/>
<path d="M122.531 128.132H116.429V131.653H122.531V128.132Z" fill="#202E3B"/>
<path d="M122.531 127.295H118.969V132.489H122.531V127.295Z" fill="#34495E"/>
<path d="M122.53 126.881H122.209V132.9H122.53V126.881Z" fill="#597DA1"/>
<path d="M119.251 126.881L119.8 132.852L119.244 132.9L118.695 126.933L119.251 126.881Z" fill="#597DA1"/>
<path d="M120.357 126.881L120.902 132.852L120.346 132.9L119.801 126.933L120.357 126.881Z" fill="#597DA1"/>
<path d="M121.459 126.881L122.008 132.852L121.452 132.9L120.903 126.933L121.459 126.881Z" fill="#597DA1"/>
<path d="M112.448 137.642C116.73 137.642 120.201 134.172 120.201 129.89C120.201 125.609 116.73 122.138 112.448 122.138C108.167 122.138 104.696 125.609 104.696 129.89C104.696 134.172 108.167 137.642 112.448 137.642Z" fill="#82271D"/>
<path d="M112.449 137.097C116.429 137.097 119.656 133.87 119.656 129.89C119.656 125.91 116.429 122.683 112.449 122.683C108.468 122.683 105.242 125.91 105.242 129.89C105.242 133.87 108.468 137.097 112.449 137.097Z" fill="#F1C40F"/>
<path d="M112.449 136.735C116.23 136.735 119.294 133.67 119.294 129.89C119.294 126.11 116.23 123.045 112.449 123.045C108.669 123.045 105.605 126.11 105.605 129.89C105.605 133.67 108.669 136.735 112.449 136.735Z" fill="#C0392B"/>
<path d="M112.449 135.805C115.716 135.805 118.364 133.157 118.364 129.89C118.364 126.624 115.716 123.975 112.449 123.975C109.182 123.975 106.534 126.624 106.534 129.89C106.534 133.157 109.182 135.805 112.449 135.805Z" fill="#ECF0F1"/>
<path d="M112.448 123.975C115.716 123.975 118.363 126.623 118.363 129.89C118.363 133.158 115.716 135.805 112.448 135.805V123.975Z" fill="#CED4D9"/>
<path d="M113.288 129.89C113.288 130.357 112.911 130.734 112.444 130.734C111.977 130.734 111.6 130.357 111.6 129.89C111.6 129.423 111.977 129.046 112.444 129.046C112.911 129.046 113.288 129.423 113.288 129.89Z" fill="#34495E"/>
<path d="M112.418 135.667V133.871C112.65 133.871 112.881 133.848 113.109 133.807L113.423 135.577C113.094 135.637 112.754 135.667 112.414 135.667H112.418ZM109.509 134.898C109.218 134.73 108.938 134.535 108.68 134.319L109.83 132.937C110.01 133.087 110.2 133.221 110.405 133.337L109.509 134.898ZM116.145 134.3L114.987 132.926C115.163 132.777 115.331 132.609 115.48 132.429L116.858 133.583C116.642 133.841 116.403 134.084 116.145 134.3ZM106.944 131.869C106.828 131.552 106.738 131.223 106.679 130.891L108.449 130.573C108.49 130.801 108.55 131.029 108.632 131.246L106.948 131.869H106.944ZM118.128 130.857L116.358 130.547C116.399 130.32 116.417 130.084 116.417 129.849L117.844 129.804L118.214 129.812C118.214 130.185 118.184 130.525 118.128 130.857ZM108.613 128.497L106.918 127.896C107.033 127.575 107.175 127.265 107.343 126.974L108.904 127.866C108.792 128.064 108.691 128.277 108.613 128.497ZM115.861 127.806C115.742 127.605 115.603 127.411 115.45 127.235L116.817 126.066C117.034 126.32 117.232 126.597 117.403 126.884L115.861 127.806ZM110.364 126.387L109.453 124.838C109.744 124.67 110.051 124.52 110.364 124.405L110.995 126.089C110.775 126.171 110.562 126.272 110.364 126.391V126.387ZM113.74 126.063C113.52 125.984 113.292 125.924 113.064 125.887L113.359 124.113C113.692 124.169 114.02 124.251 114.338 124.363L113.74 126.059V126.063Z" fill="#34495E"/>
<path d="M114.835 127.28L112.878 130.032L112.173 129.532L114.129 126.779C114.174 126.72 114.26 126.705 114.32 126.746L114.801 127.089C114.861 127.134 114.876 127.22 114.835 127.28Z" fill="#34495E"/>
<path d="M114.417 127.366L112.639 129.864L112.408 129.7L114.185 127.202C114.2 127.183 114.226 127.175 114.249 127.19L114.405 127.302C114.424 127.317 114.432 127.343 114.417 127.366Z" fill="#F1C40F"/>
<path d="M112.739 129.89C112.739 130.05 112.609 130.185 112.444 130.185C112.28 130.185 112.15 130.054 112.15 129.89C112.15 129.726 112.28 129.595 112.444 129.595C112.609 129.595 112.739 129.726 112.739 129.89Z" fill="#F1C40F"/>
<path d="M128.499 133.919V139.595H125.568V135.809C125.568 134.158 124.231 132.822 122.581 132.822H122.532V130.185H124.765C126.826 130.185 128.499 131.854 128.499 133.919Z" fill="#BDC3C7"/>
<path d="M191.055 29.2537H188.217V34.3695H191.055V29.2537Z" fill="#202E3B"/>
<path d="M191.728 31.5166H187.542V34.3658H191.728V31.5166Z" fill="#34495E"/>
<path d="M192.926 34.2388H186.343V38.5555H192.926V34.2388Z" fill="#E3E7E8"/>
<path d="M186.343 38.5555H188.512C189.132 38.5555 189.633 38.0551 189.633 37.4352V34.2388H186.343V38.5555Z" fill="#BDC3C7"/>
<path d="M192.524 34.1118H186.743V34.3695H192.524V34.1118Z" fill="#597DA1"/>
<path d="M187.259 31.3003L187.219 31.7466L192.027 32.1842L192.068 31.7379L187.259 31.3003Z" fill="#597DA1"/>
<path d="M187.256 32.1834L187.215 32.6296L192.024 33.0672L192.064 32.621L187.256 32.1834Z" fill="#597DA1"/>
<path d="M187.256 33.0662L187.215 33.5125L192.024 33.9501L192.064 33.5038L187.256 33.0662Z" fill="#597DA1"/>
<path d="M189.151 29.2537H190.118C190.279 29.2537 190.409 29.123 190.409 28.9624C190.409 28.8018 190.279 28.6711 190.118 28.6711H189.151C188.99 28.6711 188.86 28.8018 188.86 28.9624C188.86 29.123 188.99 29.2537 189.151 29.2537Z" fill="#F1C40F"/>
<path d="M179.356 31.1359L180.223 30.2658H193.449L193.767 30.5832L194.398 29.9484L193.819 29.3696H179.853L178.722 30.5011L179.356 31.1359Z" fill="#C0392B"/>
<path d="M191.448 29.3696H187.825V30.2658H191.448V29.3696Z" fill="#E74C3C"/>
<path d="M196.298 38.5554H182.971V45.7997H196.298V38.5554Z" fill="#E3E7E8"/>
<path d="M196.298 42.178H182.971V45.8001H196.298V42.178Z" fill="#BDC3C7"/>
<path d="M198.172 38.5857V45.774L197.769 47.4059H194.83L194.427 45.774V38.5857L194.527 38.1824L194.83 36.9539H197.769L198.071 38.1824L198.172 38.5857Z" fill="#F39C12"/>
<path d="M197.731 44.4857H194.867C194.382 42.9883 194.382 41.3714 194.867 39.874H197.731C198.217 41.3714 198.217 42.9883 197.731 44.4857Z" fill="#F1C40F"/>
<path d="M198.07 38.1824C198.022 38.7537 197.91 39.3251 197.731 39.874H194.866C194.683 39.3251 194.571 38.7537 194.527 38.1824L194.829 36.9539H197.768L198.07 38.1824Z" fill="#FFE372"/>
<path d="M198.07 46.1774C198.022 45.6061 197.91 45.0348 197.731 44.4858H194.866C194.683 45.0348 194.571 45.6061 194.527 46.1774L194.829 47.406H197.768L198.07 46.1774Z" fill="#D35400"/>
<path d="M184.842 38.5855V45.7738L184.438 47.4056H181.499L181.096 45.7738V38.5855L181.197 38.1822L181.499 36.9536H184.438L184.741 38.1822L184.842 38.5855Z" fill="#F39C12"/>
<path d="M184.405 44.4855H181.541C181.055 42.9881 181.055 41.3712 181.541 39.8738H184.405C184.89 41.3712 184.89 42.9881 184.405 44.4855Z" fill="#F1C40F"/>
<path d="M184.74 38.1822C184.691 38.7535 184.579 39.3248 184.4 39.8737H181.536C181.353 39.3248 181.241 38.7535 181.196 38.1822L181.499 36.9536H184.438L184.74 38.1822Z" fill="#FFE372"/>
<path d="M184.74 46.1769C184.691 45.6056 184.579 45.0343 184.4 44.4854H181.536C181.353 45.0343 181.241 45.6056 181.196 46.1769L181.499 47.4055H184.438L184.74 46.1769Z" fill="#D35400"/>
<path d="M186.343 37.2227V38.5558H185.01C185.746 38.5558 186.343 37.9583 186.343 37.2227Z" fill="#BDC3C7"/>
<path d="M192.927 37.2227V38.5558H194.26C193.524 38.5558 192.927 37.9583 192.927 37.2227Z" fill="#E3E7E8"/>
<path d="M185.257 37.7527H184.832V46.6064H185.257V37.7527Z" fill="#34495E"/>
<path d="M194.399 37.7527H193.973V46.6064H194.399V37.7527Z" fill="#34495E"/>
<path d="M189.636 44.7357C187.545 44.7357 185.909 43.6117 185.909 42.1778C185.909 40.7439 187.545 39.6199 189.636 39.6199C191.727 39.6199 193.363 40.7439 193.363 42.1778C193.363 43.6117 191.727 44.7357 189.636 44.7357Z" fill="#ECF0F1"/>
<path d="M192.613 42.1775C192.613 43.1783 191.28 43.9886 189.633 43.9886C187.986 43.9886 186.653 43.1783 186.653 42.1775C186.653 41.1768 187.986 40.3665 189.633 40.3665C191.28 40.3665 192.613 41.1768 192.613 42.1775Z" fill="#2980B9"/>
<path d="M60.9824 72.3055H62.0205V65.259H60.9824C54.9106 65.259 49.9666 70.1994 49.9666 76.2749V77.4586H57.013V76.2749C57.013 74.0867 58.7942 72.3055 60.9824 72.3055Z" fill="#E3E7E8"/>
<path d="M60.9827 72.3055H62.0208V68.7842H60.9827C56.849 68.7842 53.4919 72.1487 53.4919 76.275V77.4587H57.0133V76.275C57.0133 74.0867 58.7945 72.3055 60.9827 72.3055Z" fill="#BDC3C7"/>
<path d="M58.0699 77.4587H48.9025V79.9196H58.0699V77.4587Z" fill="#3B536B"/>
<path d="M58.0694 77.4587H54.0701V79.9196H58.0694V77.4587Z" fill="#2C3E50"/>
<path d="M78.0357 64.165H75.5748V73.3325H78.0357V64.165Z" fill="#3B536B"/>
<path d="M78.0357 69.6877H75.5748V73.3323H78.0357V69.6877Z" fill="#2C3E50"/>
<path d="M78.8176 64.7585H78.0371V72.7348H78.8176V64.7585Z" fill="#2C3E50"/>
<path d="M78.8176 69.5681H78.0371V72.7384H78.8176V69.5681Z" fill="#1C2833"/>
<path d="M83.5266 64.2284V73.2688L83.0188 75.3226H79.3219L78.8141 73.2688V64.2284L78.941 63.7205L79.3219 62.1746H83.0188L83.3997 63.7205L83.5266 64.2284Z" fill="#F39C12"/>
<path d="M82.9741 71.6481C81.7716 71.6481 80.5692 71.6481 79.3706 71.6481C78.7582 69.7623 78.7582 67.7346 79.3706 65.8489H82.9741C83.5865 67.7346 83.5865 69.7623 82.9741 71.6481Z" fill="#F1C40F"/>
<path d="M83.3989 63.7205C83.3391 64.4375 83.1972 65.1582 82.9732 65.849H79.3697C79.1381 65.1582 79 64.4412 78.944 63.7205L79.3249 62.1746H83.0217L83.4026 63.7205H83.3989Z" fill="#FFE372"/>
<path d="M83.3989 73.7767C83.3391 73.0597 83.1972 72.339 82.9732 71.6482H79.3697C79.1381 72.339 79 73.056 78.944 73.7767L79.3249 75.3226H83.0217L83.4026 73.7767H83.3989Z" fill="#D35400"/>
<path d="M57.2789 79.8931H49.7246V80.4084H57.2789V79.8931Z" fill="#F1C40F"/>
<path d="M75.5726 65.259H62.0175V72.3316H75.5726V65.259Z" fill="#E3E7E8"/>
<path d="M75.5726 68.7952H62.0175V72.3314H75.5726V68.7952Z" fill="#BDC3C7"/>
<path d="M191.846 98.8516H185.203V119.927H191.846V98.8516Z" fill="#E3E7E8"/>
<path d="M197.344 103.566L186.151 114.759L190.848 119.456L202.041 108.263L197.344 103.566Z" fill="#E3E7E8"/>
<path d="M191.95 118.352C190.662 117.063 190.662 114.972 191.95 113.684L199.71 105.924L202.044 108.258L191.95 118.352Z" fill="#BDC3C7"/>
<path d="M188.522 98.8516H185.203V119.927H188.522V98.8516Z" fill="#BDC3C7"/>
<path d="M196.933 103.154L195.167 104.921L200.683 110.437L202.449 108.67L196.933 103.154Z" fill="#3B536B"/>
<path d="M200.018 106.243L198.251 108.009L200.683 110.441L202.45 108.674L200.018 106.243Z" fill="#2C3E50"/>
<path d="M192.398 103.355H184.646V105.435H192.398V103.355Z" fill="#3B536B"/>
<path d="M187.727 103.355H184.646V105.435H187.727V103.355Z" fill="#2C3E50"/>
<path d="M191.898 102.698H185.15V103.355H191.898V102.698Z" fill="#2C3E50"/>
<path d="M187.831 102.698H185.15V103.355H187.831V102.698Z" fill="#1C2833"/>
<path d="M192.346 98.7134H184.698L182.966 99.1428V102.268L184.698 102.698H192.346L192.776 102.589L194.083 102.268V99.1428L192.776 98.8217L192.346 98.7134Z" fill="#F39C12"/>
<path d="M186.068 99.1803V102.227C187.662 102.746 189.38 102.746 190.975 102.227V99.1803C189.38 98.6613 187.662 98.6613 186.068 99.1803Z" fill="#F1C40F"/>
<path d="M192.776 98.822C192.167 98.8743 191.558 98.9938 190.976 99.1842V102.231C191.558 102.426 192.167 102.545 192.776 102.594L194.083 102.272V99.1469L192.776 98.8257V98.822Z" fill="#FFE372"/>
<path d="M184.269 98.822C184.878 98.8743 185.482 98.9938 186.069 99.1842V102.231C185.486 102.426 184.878 102.545 184.269 102.594L182.962 102.272V99.1469L184.269 98.8257V98.822Z" fill="#D35400"/>
<path d="M192.398 119.924H184.646V122.004H192.398V119.924Z" fill="#3B536B"/>
<path d="M188.029 119.924H184.646V122.004H188.029V119.924Z" fill="#2C3E50"/>
<path d="M191.73 121.985H185.34V122.422H191.73V121.985Z" fill="#F1C40F"/>
<path d="M119.321 75.3782H117.853V74.2654H119.321C119.429 74.3737 119.489 74.4334 119.597 74.5417V75.1056C119.489 75.2139 119.429 75.2736 119.321 75.3819V75.3782Z" fill="#34495E"/>
<path d="M119.321 78.791H117.853V77.6782H119.321C119.429 77.7865 119.489 77.8463 119.597 77.9545V78.5184C119.489 78.6267 119.429 78.6865 119.321 78.7947V78.791Z" fill="#34495E"/>
<path d="M119.321 82.2043H117.853V81.0916H119.321C119.429 81.1998 119.489 81.2596 119.597 81.3679V81.9317C119.489 82.04 119.429 82.0998 119.321 82.2081V82.2043Z" fill="#34495E"/>
<path d="M116.061 73.5V82.9662H114.429V82.4994C114.429 82.0438 114.059 81.6742 113.604 81.6742H112.875C112.42 81.6742 112.05 82.0476 112.05 82.4994V88.1828H104.093V68.2759H112.05V73.9593C112.05 74.4149 112.424 74.7846 112.875 74.7846H113.604C114.059 74.7846 114.429 74.4149 114.429 73.9593V73.4963H116.061V73.5Z" fill="#BDC3C7"/>
<path d="M111.05 68.2793H107.502V88.1863H111.05V68.2793Z" fill="#E3E7E8"/>
<path d="M117.984 73.5H116.401V82.9699H117.984V73.5Z" fill="#BDC3C7"/>
<path d="M117.696 73.5H116.688V82.9699H117.696V73.5Z" fill="#E3E7E8"/>
<path d="M116.4 73.9629H116.06V82.5067H116.4V73.9629Z" fill="#34495E"/>
<path d="M115.773 73.5H114.764V82.9699H115.773V73.5Z" fill="#E3E7E8"/>
<path d="M119.186 74.1796V75.4567L119.086 75.748H118.361L118.26 75.4567V74.1796L118.286 74.1087L118.361 73.8921H119.086L119.16 74.1087L119.186 74.1796Z" fill="#F39C12"/>
<path d="M119.077 75.2278H118.372C118.252 74.963 118.252 74.6757 118.372 74.4109H119.077C119.196 74.6757 119.196 74.963 119.077 75.2278Z" fill="#F1C40F"/>
<path d="M119.159 74.1085C119.148 74.2092 119.118 74.3099 119.077 74.4069H118.372C118.327 74.3099 118.301 74.2092 118.29 74.1085L118.365 73.8921H119.088L119.163 74.1085H119.159Z" fill="#FFE372"/>
<path d="M119.159 75.5311C119.148 75.4304 119.118 75.3297 119.077 75.2327H118.372C118.327 75.3297 118.301 75.4304 118.29 75.5311L118.365 75.7475H119.088L119.163 75.5311H119.159Z" fill="#D35400"/>
<path d="M119.186 77.5927V78.8698L119.086 79.1611H118.361L118.26 78.8698V77.5927L118.286 77.5218L118.361 77.3052H119.086L119.16 77.5218L119.186 77.5927Z" fill="#F39C12"/>
<path d="M119.077 78.6412H118.372C118.252 78.3763 118.252 78.0891 118.372 77.8242H119.077C119.196 78.0891 119.196 78.3763 119.077 78.6412Z" fill="#F1C40F"/>
<path d="M119.159 77.5215C119.148 77.6223 119.118 77.723 119.077 77.82H118.372C118.327 77.723 118.301 77.6223 118.29 77.5215L118.365 77.3052H119.088L119.163 77.5215H119.159Z" fill="#FFE372"/>
<path d="M119.159 78.9442C119.148 78.8435 119.118 78.7427 119.077 78.6458H118.372C118.327 78.7427 118.301 78.8435 118.29 78.9442L118.365 79.1605H119.088L119.163 78.9442H119.159Z" fill="#D35400"/>
<path d="M119.186 81.0053V82.2824L119.086 82.5737H118.361L118.26 82.2824V81.0053L118.286 80.9344L118.361 80.7178H119.086L119.16 80.9344L119.186 81.0053Z" fill="#F39C12"/>
<path d="M119.077 82.0538H118.372C118.252 81.7889 118.252 81.5017 118.372 81.2368H119.077C119.196 81.5017 119.196 81.7889 119.077 82.0538Z" fill="#F1C40F"/>
<path d="M119.159 80.9341C119.148 81.0349 119.118 81.1356 119.077 81.2326H118.372C118.327 81.1356 118.301 81.0349 118.29 80.9341L118.365 80.7178H119.088L119.163 80.9341H119.159Z" fill="#FFE372"/>
<path d="M119.159 82.3568C119.148 82.2561 119.118 82.1553 119.077 82.0583H118.372C118.327 82.1553 118.301 82.2561 118.29 82.3568L118.365 82.5731H119.088L119.163 82.3568H119.159Z" fill="#D35400"/>
<path d="M114.433 80.3668V82.5027C114.433 82.0471 114.063 81.6775 113.607 81.6775H112.879C112.424 81.6775 112.054 82.0509 112.054 82.5027V80.3668C112.054 79.9112 112.427 79.5415 112.879 79.5415H113.607C114.063 79.5415 114.433 79.9149 114.433 80.3668Z" fill="#95A5A6"/>
<path d="M112.535 68.1079H103.469V69.6427H112.535V68.1079Z" fill="#3B536B"/>
<path d="M107.072 68.1079H103.469V69.6427H107.072V68.1079Z" fill="#2C3E50"/>
<path d="M112.535 86.6819H103.469V88.2166H112.535V86.6819Z" fill="#3B536B"/>
<path d="M107.072 86.6819H103.469V88.2166H107.072V86.6819Z" fill="#2C3E50"/>
<path d="M96.6457 146.586H93.8226C92.7472 144.876 90.8465 143.733 88.6769 143.733C86.5073 143.733 84.6066 144.876 83.5312 146.586H80.7081V153.039H83.5312C84.6066 154.749 86.5073 155.892 88.6769 155.892C90.8465 155.892 92.7472 154.749 93.8226 153.039H96.6457V146.586Z" fill="#E3E7E8"/>
<path d="M80.7081 149.954V153.035H83.5312C84.6066 154.745 86.5073 155.888 88.6769 155.888C90.8465 155.888 92.7472 154.745 93.8226 153.035H96.6457V149.954H80.7081Z" fill="#BDC3C7"/>
<path d="M81.4926 146.216V153.404L80.7794 155.036H75.5814L74.8682 153.404V146.216L75.0437 145.813L75.5814 144.584H80.7794L81.3134 145.813L81.4926 146.216Z" fill="#95A5A6"/>
<path d="M80.7122 152.116C79.0243 152.116 77.3327 152.116 75.6449 152.116C74.7823 150.619 74.7823 149.002 75.6449 147.505H80.7122C81.5748 149.002 81.5748 150.619 80.7122 152.116Z" fill="#BDC3C7"/>
<path d="M81.313 145.813C81.2272 146.384 81.0292 146.955 80.7118 147.504H75.6445C75.3197 146.955 75.1218 146.384 75.0433 145.813L75.5773 144.584H80.7753L81.3093 145.813H81.313Z" fill="#ECF0F1"/>
<path d="M81.3132 153.808C81.2273 153.237 81.0294 152.665 80.712 152.116H75.6447C75.3198 152.665 75.1219 153.237 75.0435 153.808L75.5774 155.037H80.7754L81.3094 153.808H81.3132Z" fill="#7F8C8D"/>
<path d="M101.901 146.216V153.405L101.188 155.036H95.9896L95.2764 153.405V146.216L95.4556 145.813L95.9896 144.584H101.188L101.722 145.813L101.901 146.216Z" fill="#95A5A6"/>
<path d="M101.125 152.116C99.4367 152.116 97.7451 152.116 96.0572 152.116C95.1946 150.619 95.1946 149.002 96.0572 147.505H101.125C101.987 149.002 101.987 150.619 101.125 152.116Z" fill="#BDC3C7"/>
<path d="M101.722 145.813C101.636 146.384 101.438 146.956 101.12 147.505H96.0531C95.7282 146.956 95.5303 146.384 95.4519 145.813L95.9859 144.584H101.184L101.718 145.813H101.722Z" fill="#ECF0F1"/>
<path d="M101.722 153.808C101.636 153.237 101.438 152.665 101.12 152.116H96.0531C95.7282 152.665 95.5303 153.237 95.4519 153.808L95.9859 155.037H101.184L101.718 153.808H101.722Z" fill="#7F8C8D"/>
<path d="M90.1002 138.617H87.2622V143.733H90.1002V138.617Z" fill="#202E3B"/>
<path d="M90.7718 140.88H86.5858V143.729H90.7718V140.88Z" fill="#34495E"/>
<path d="M91.5681 143.475H85.7876V143.733H91.5681V143.475Z" fill="#597DA1"/>
<path d="M91.5681 143.729H85.7876V145.018H91.5681V143.729Z" fill="#E3E7E8"/>
<path d="M91.07 140.66L86.2616 141.098L86.3022 141.544L91.1106 141.107L91.07 140.66Z" fill="#597DA1"/>
<path d="M91.0691 141.546L86.2606 141.983L86.3012 142.429L91.1097 141.992L91.0691 141.546Z" fill="#597DA1"/>
<path d="M91.07 142.427L86.2616 142.864L86.3022 143.311L91.1106 142.873L91.07 142.427Z" fill="#597DA1"/>
<path d="M89.1622 138.617H88.1951C88.0345 138.617 87.9038 138.486 87.9038 138.326C87.9038 138.165 88.0345 138.034 88.1951 138.034H89.1622C89.3228 138.034 89.4535 138.165 89.4535 138.326C89.4535 138.486 89.3228 138.617 89.1622 138.617Z" fill="#F1C40F"/>
<path d="M91.5269 138.733H85.4178L84.839 139.312L85.4738 139.947L85.7875 139.629H91.5269V138.733Z" fill="#C0392B"/>
<path d="M92.0944 139.629H90.4886V138.733H91.7209L92.591 137.867L93.2221 138.502L92.0944 139.629Z" fill="#C0392B"/>
<path d="M93.7187 136.735H101.721V137.631H94.0921L93.222 138.501L92.5909 137.867L93.7187 136.735Z" fill="#C0392B"/>
<path d="M90.4886 138.733H86.8665V139.629H90.4886V138.733Z" fill="#E74C3C"/>
<path d="M91.048 147.826H86.3093C85.4844 147.826 84.8157 148.494 84.8157 149.319V150.593C84.8157 151.418 85.4844 152.086 86.3093 152.086H91.048C91.873 152.086 92.5417 151.418 92.5417 150.593V149.319C92.5417 148.494 91.873 147.826 91.048 147.826Z" fill="#F1C40F"/>
<path d="M91.0485 148.199H86.3098C85.6911 148.199 85.1896 148.701 85.1896 149.319V150.593C85.1896 151.211 85.6911 151.713 86.3098 151.713H91.0485C91.6672 151.713 92.1688 151.211 92.1688 150.593V149.319C92.1688 148.701 91.6672 148.199 91.0485 148.199Z" fill="#2980B9"/>
<path d="M133.155 32.4543H125.851V52.548H133.155V32.4543Z" fill="#E3E7E8"/>
<path d="M133.155 36.6927V51.2859C132.057 51.8423 130.817 52.1485 129.503 52.1485C128.188 52.1485 126.948 51.8386 125.851 51.2859V36.6927C126.948 36.1363 128.188 35.8301 129.503 35.8301C130.817 35.8301 132.057 36.14 133.155 36.6927Z" fill="#BDC3C7"/>
<path d="M129.506 32.4543H125.851V52.548H129.506V32.4543Z" fill="#BDC3C7"/>
<path d="M133.771 30.9343H125.239V33.2234H133.771V30.9343Z" fill="#3B536B"/>
<path d="M128.629 30.9343H125.239V33.2234H128.629V30.9343Z" fill="#2C3E50"/>
<path d="M133.976 30.21H125.032V30.9344H133.976V30.21Z" fill="#2C3E50"/>
<path d="M128.587 30.21H125.032V30.9344H128.587V30.21Z" fill="#1C2833"/>
<path d="M133.771 52.5479H125.239V54.8369H133.771V52.5479Z" fill="#3B536B"/>
<path d="M128.958 52.5479H125.239V54.8369H128.958V52.5479Z" fill="#2C3E50"/>
<path d="M134.17 54.8147H124.865V55.2927H134.17V54.8147Z" fill="#F1C40F"/>
<path d="M129.502 50.6622C134.008 50.6622 137.661 47.0092 137.661 42.503C137.661 37.9967 134.008 34.3438 129.502 34.3438C124.995 34.3438 121.342 37.9967 121.342 42.503C121.342 47.0092 124.995 50.6622 129.502 50.6622Z" fill="#F1C40F"/>
<path d="M129.503 50.1992C133.753 50.1992 137.199 46.7535 137.199 42.5031C137.199 38.2526 133.753 34.8069 129.503 34.8069C125.252 34.8069 121.807 38.2526 121.807 42.5031C121.807 46.7535 125.252 50.1992 129.503 50.1992Z" fill="#C0392B"/>
<path d="M136.092 42.503C136.092 43.7652 135.737 44.9415 135.125 45.9459C133.967 47.8354 131.88 49.0939 129.501 49.0939C128.724 49.0939 127.981 48.9594 127.29 48.713C125.7 48.1454 124.389 46.9841 123.627 45.4941C123.168 44.5942 122.91 43.5785 122.91 42.4993C122.91 41.1363 123.325 39.8742 124.031 38.8248C125.214 37.066 127.223 35.9084 129.501 35.9084C133.142 35.9084 136.092 38.8585 136.092 42.4993V42.503Z" fill="#F1E8C6"/>
<path d="M124.422 46.3903C123.963 45.4904 123.705 44.4747 123.705 43.3955C123.705 42.0325 124.116 40.7704 124.826 39.7211C126.009 37.9623 128.018 36.8047 130.296 36.8047C132.04 36.8047 133.627 37.4843 134.803 38.5896C133.605 36.9652 131.674 35.9084 129.497 35.9084C127.32 35.9084 125.21 37.066 124.027 38.8248C123.321 39.8742 122.906 41.14 122.906 42.4993C122.906 43.5785 123.164 44.5942 123.623 45.4904C123.97 46.1737 124.441 46.7824 124.994 47.3015C124.781 47.0139 124.587 46.7077 124.422 46.3866V46.3903Z" fill="#C7BFA3"/>
<path d="M129.696 48.7427L129.67 47.9025L129.8 47.895L129.845 48.7352C129.797 48.7352 129.744 48.739 129.696 48.7427ZM128.501 48.6643C128.452 48.6568 128.4 48.6493 128.351 48.6381L128.508 47.8092C128.549 47.8166 128.594 47.8241 128.635 47.8316L128.501 48.6643ZM131.033 48.556L130.827 47.7382C130.868 47.727 130.913 47.7158 130.954 47.7046L131.178 48.5149C131.13 48.5299 131.081 48.5411 131.033 48.5523V48.556ZM127.198 48.3058C127.149 48.2871 127.104 48.2685 127.059 48.2498L127.388 47.4768C127.429 47.4955 127.466 47.5104 127.508 47.5254L127.198 48.3095V48.3058ZM132.299 48.0855L131.921 47.3349C131.959 47.3162 132 47.2938 132.037 47.2752L132.433 48.0183C132.388 48.0407 132.343 48.0631 132.299 48.0855ZM126.006 47.6747C125.965 47.6448 125.924 47.6187 125.883 47.5888L126.372 46.9017C126.406 46.9279 126.443 46.9503 126.481 46.9764L126.01 47.6747H126.006ZM133.43 47.3536L132.9 46.7001C132.933 46.674 132.967 46.6441 132.997 46.6179L133.542 47.2565C133.505 47.2901 133.464 47.32 133.426 47.3536H133.43ZM124.976 46.8009C124.942 46.7636 124.909 46.7262 124.875 46.6889L125.499 46.125C125.528 46.1586 125.558 46.1885 125.588 46.2184L124.979 46.7972L124.976 46.8009ZM134.382 46.3976L133.725 45.8711C133.751 45.8375 133.777 45.8039 133.803 45.7703L134.472 46.2781C134.442 46.3192 134.412 46.3566 134.378 46.3976H134.382ZM124.158 45.7292C124.132 45.6881 124.106 45.6433 124.083 45.5985L124.815 45.1803C124.838 45.2176 124.86 45.255 124.882 45.2923L124.162 45.7292H124.158ZM135.107 45.2587L134.352 44.889C134.371 44.8517 134.39 44.8106 134.408 44.7695L135.17 45.1243C135.148 45.1691 135.129 45.2139 135.107 45.2587ZM123.59 44.5081C123.575 44.4596 123.561 44.4148 123.546 44.3662L124.348 44.1123L124.389 44.2393L123.59 44.5081ZM135.57 43.9928L134.752 43.7912C134.763 43.7501 134.771 43.7053 134.782 43.6642L135.603 43.8434C135.592 43.892 135.581 43.9405 135.57 43.9891V43.9928ZM123.299 43.1937C123.295 43.1452 123.288 43.0929 123.284 43.0443L124.124 42.9734C124.124 43.0182 124.132 43.0593 124.136 43.1041L123.299 43.1974V43.1937ZM135.745 42.656L134.905 42.6373C134.905 42.5925 134.905 42.5514 134.905 42.5066L135.745 42.4842V42.5066C135.745 42.5552 135.745 42.6074 135.745 42.656ZM124.132 41.9315L123.295 41.8419C123.299 41.7934 123.307 41.7411 123.314 41.6926L124.151 41.8008C124.147 41.8457 124.139 41.8867 124.136 41.9315H124.132ZM134.8 41.4498C134.793 41.4088 134.782 41.3639 134.774 41.3229L135.596 41.1399C135.607 41.1884 135.618 41.237 135.626 41.2855L134.8 41.4498ZM124.378 40.7926L123.579 40.5237C123.594 40.4752 123.613 40.4304 123.628 40.3819L124.419 40.6694C124.404 40.7105 124.389 40.7515 124.378 40.7926ZM134.453 40.337C134.434 40.296 134.42 40.2586 134.401 40.2213L135.163 39.8628C135.185 39.9076 135.204 39.9524 135.226 40.001L134.457 40.3408L134.453 40.337ZM124.867 39.7321L124.147 39.2989C124.173 39.2579 124.199 39.2131 124.225 39.172L124.938 39.6201C124.916 39.6574 124.894 39.6948 124.871 39.7321H124.867ZM133.871 39.3251C133.844 39.2915 133.818 39.2541 133.792 39.2205L134.461 38.7089C134.49 38.75 134.52 38.7874 134.55 38.8284L133.871 39.3251ZM125.573 38.7986L124.961 38.2198C124.994 38.1824 125.028 38.1488 125.065 38.1115L125.663 38.7015C125.633 38.7313 125.603 38.7649 125.573 38.7948V38.7986ZM133.086 38.4587C133.053 38.4289 133.023 38.4027 132.989 38.3729L133.531 37.7306C133.568 37.7642 133.605 37.7941 133.647 37.8277L133.086 38.4587ZM126.462 38.0368L125.988 37.3422C126.029 37.3123 126.07 37.2862 126.115 37.2601L126.57 37.9658C126.533 37.9882 126.499 38.0144 126.462 38.0368ZM132.134 37.7829C132.097 37.7605 132.06 37.7418 132.018 37.7194L132.411 36.9763C132.455 36.9987 132.5 37.0248 132.545 37.0472L132.134 37.7829ZM127.493 37.4879L127.179 36.7074C127.224 36.6887 127.272 36.6701 127.317 36.6514L127.612 37.4393C127.571 37.4542 127.53 37.4692 127.489 37.4879H127.493ZM131.059 37.3273C131.018 37.3161 130.977 37.3011 130.936 37.2899L131.16 36.4796C131.208 36.4946 131.257 36.5058 131.305 36.5207L131.062 37.3273H131.059ZM128.617 37.1742L128.478 36.3452C128.527 36.3377 128.579 36.3303 128.628 36.3228L128.744 37.1555C128.702 37.163 128.658 37.1667 128.617 37.1742ZM129.912 37.1182C129.871 37.1182 129.826 37.1107 129.785 37.1107L129.826 36.2705C129.879 36.2705 129.927 36.278 129.976 36.2817L129.912 37.1219V37.1182Z" fill="#34495E"/>
<path d="M134.42 42.9995C134.42 43.4102 129.954 43.7426 129.543 43.7426C129.132 43.7426 128.8 43.4102 128.8 42.9995C128.8 42.5887 129.132 42.2563 129.543 42.2563C129.954 42.2563 134.42 42.5887 134.42 42.9995Z" fill="#C7BFA3"/>
<path d="M134.378 42.5029C134.378 42.9136 129.912 43.246 129.501 43.246C129.091 43.246 128.758 42.9136 128.758 42.5029C128.758 42.0921 129.091 41.7598 129.501 41.7598C129.912 41.7598 134.378 42.0921 134.378 42.5029Z" fill="#2C3E50"/>
<path d="M128.762 42.5029C128.762 42.0921 129.095 41.7598 129.505 41.7598C129.916 41.7598 134.382 42.0921 134.382 42.5029H128.766H128.762Z" fill="#34495E"/>
<path d="M133.206 42.5778L130.746 42.7421C130.48 42.7533 130.249 42.645 130.249 42.4994C130.249 42.3537 130.484 42.2455 130.746 42.2567L133.206 42.421C133.233 42.421 133.251 42.4546 133.251 42.4956C133.251 42.5367 133.233 42.5703 133.206 42.5703V42.5778Z" fill="#F1C40F"/>
<path d="M129.501 43.2239C129.899 43.2239 130.221 42.9012 130.221 42.5032C130.221 42.1051 129.899 41.7825 129.501 41.7825C129.103 41.7825 128.78 42.1051 128.78 42.5032C128.78 42.9012 129.103 43.2239 129.501 43.2239Z" fill="#507191"/>
<path d="M129.755 42.5027C129.755 42.6444 129.644 42.7563 129.502 42.7563C129.36 42.7563 129.248 42.6444 129.248 42.5027C129.248 42.3609 129.36 42.249 129.502 42.249C129.644 42.249 129.755 42.3609 129.755 42.5027Z" fill="#2C3E50"/>
<path d="M130.107 45.9085L130.1 45.8898C130.085 45.845 130.063 45.8002 130.036 45.7591L129.502 44.6426L128.968 45.7554C128.942 45.7964 128.92 45.8413 128.905 45.8861L128.898 45.9047C128.879 45.9645 128.864 46.0317 128.864 46.0989C128.864 46.4499 129.148 46.7375 129.502 46.7375C129.857 46.7375 130.141 46.4537 130.141 46.0989C130.141 46.0317 130.126 45.9645 130.107 45.9047V45.9085Z" fill="#2C3E50"/>
<path d="M189.583 155.324H189.587L189.572 155.29C189.542 155.208 189.508 155.13 189.46 155.059L188.519 153.098L187.578 155.059C187.533 155.13 187.496 155.208 187.466 155.29L187.451 155.32H187.455C187.421 155.428 187.395 155.54 187.395 155.66C187.395 156.28 187.895 156.78 188.515 156.78C189.135 156.78 189.635 156.28 189.635 155.66C189.635 155.54 189.613 155.428 189.576 155.32L189.583 155.324Z" fill="#2980B9"/>
<path d="M189.583 155.324H189.587L189.572 155.29C189.542 155.208 189.508 155.13 189.46 155.059L188.519 153.098L188.5 153.135V156.78C188.5 156.78 188.511 156.78 188.519 156.78C189.139 156.78 189.639 156.28 189.639 155.66C189.639 155.54 189.617 155.428 189.579 155.32L189.583 155.324Z" fill="#186AA1"/>
<path d="M188.395 155.435C188.395 155.648 188.223 155.823 188.007 155.823C187.79 155.823 187.619 155.652 187.619 155.435C187.619 155.219 187.79 155.047 188.007 155.047C188.223 155.047 188.395 155.219 188.395 155.435Z" fill="#ECF0F1"/>
<path d="M181.637 138.232H179.651V141.814H181.637V138.232Z" fill="#202E3B"/>
<path d="M182.108 139.815H179.177V141.809H182.108V139.815Z" fill="#34495E"/>
<path d="M182.948 141.724H178.34V144.244H182.948V141.724Z" fill="#E3E7E8"/>
<path d="M180.644 141.724H178.34V144.244H180.644V141.724Z" fill="#BDC3C7"/>
<path d="M190.827 149.229V152.609H186.216V149.651C186.216 149.073 185.749 148.606 185.17 148.606H175.405V143.998H185.596C188.482 143.998 190.824 146.339 190.824 149.226L190.827 149.229Z" fill="#E3E7E8"/>
<path d="M188.307 149.651V152.609H186.216V149.651C186.216 149.073 185.749 148.606 185.17 148.606H175.405V146.515H185.17C186.903 146.515 188.307 147.922 188.307 149.651Z" fill="#BDC3C7"/>
<path d="M186.286 151.53H190.752C191.051 151.53 191.29 151.772 191.29 152.067C191.29 152.366 191.047 152.609 190.752 152.609H186.286C185.988 152.609 185.749 152.366 185.749 152.071C185.749 151.772 185.991 151.53 186.286 151.53Z" fill="#F39C12"/>
<path d="M186.832 151.53H190.208C190.432 151.53 190.615 151.649 190.615 151.798C190.615 151.948 190.432 152.067 190.208 152.067H186.832C186.608 152.067 186.425 151.948 186.425 151.798C186.425 151.649 186.608 151.53 186.832 151.53Z" fill="#F1C40F"/>
<path d="M182.667 141.634H178.619V141.814H182.667V141.634Z" fill="#597DA1"/>
<path d="M182.322 139.654L178.953 139.961L178.981 140.273L182.35 139.966L182.322 139.654Z" fill="#597DA1"/>
<path d="M182.322 140.275L178.953 140.582L178.981 140.894L182.35 140.588L182.322 140.275Z" fill="#597DA1"/>
<path d="M182.318 140.896L178.949 141.203L178.977 141.515L182.346 141.208L182.318 140.896Z" fill="#597DA1"/>
<path d="M180.983 138.232H180.307C180.195 138.232 180.105 138.143 180.105 138.031C180.105 137.919 180.195 137.829 180.307 137.829H180.983C181.095 137.829 181.184 137.919 181.184 138.031C181.184 138.143 181.095 138.232 180.983 138.232Z" fill="#F1C40F"/>
<path d="M187.84 139.547L187.235 138.942H177.974L177.75 139.162L177.309 138.718L177.713 138.314H187.492L188.284 139.106L187.84 139.547Z" fill="#C0392B"/>
<path d="M181.909 138.314H179.373V138.942H181.909V138.314Z" fill="#E74C3C"/>
<path d="M180.643 149.622C182.476 149.622 183.963 148.135 183.963 146.302C183.963 144.468 182.476 142.982 180.643 142.982C178.81 142.982 177.323 144.468 177.323 146.302C177.323 148.135 178.81 149.622 180.643 149.622Z" fill="#ECF0F1"/>
<path d="M180.644 148.606C181.916 148.606 182.948 147.574 182.948 146.302C182.948 145.029 181.916 143.998 180.644 143.998C179.371 143.998 178.34 145.029 178.34 146.302C178.34 147.574 179.371 148.606 180.644 148.606Z" fill="#2980B9"/>
<path d="M175.405 143.389H175.057V149.237H175.405V143.389Z" fill="#34495E"/>
<path d="M91.5822 110.181H82.8704V112.519H91.5822V110.181Z" fill="#3B536B"/>
<path d="M86.332 110.181H82.8704V112.519H86.332V110.181Z" fill="#2C3E50"/>
<path d="M91.019 112.519H83.4386V113.258H91.019V112.519Z" fill="#2C3E50"/>
<path d="M86.4521 112.519H83.4386V113.258H86.4521V112.519Z" fill="#1C2833"/>
<path d="M91.5822 91.5625H82.8704V93.9001H91.5822V91.5625Z" fill="#3B536B"/>
<path d="M86.6718 91.5625H82.8704V93.9001H86.6718V91.5625Z" fill="#2C3E50"/>
<path d="M91.5821 91.0957H82.9001V91.5849H91.5821V91.0957Z" fill="#F1C40F"/>
<path d="M92.7568 103.619C93.448 100.574 91.54 97.5456 88.4951 96.8544C85.4502 96.1632 82.4214 98.0712 81.7302 101.116C81.039 104.161 82.947 107.19 85.9919 107.881C89.0368 108.572 92.0656 106.664 92.7568 103.619Z" fill="#E3E7E8"/>
<path d="M87.2442 106.712C89.6427 106.712 91.5871 104.768 91.5871 102.369C91.5871 99.9707 89.6427 98.0264 87.2442 98.0264C84.8457 98.0264 82.9014 99.9707 82.9014 102.369C82.9014 104.768 84.8457 106.712 87.2442 106.712Z" fill="#34495E"/>
<path d="M85.258 105.809L83.2751 102.369L85.258 98.9302H89.2274L91.214 102.369L89.2274 105.809H85.258Z" fill="#F39C12"/>
<path d="M87.2293 105.741C89.0916 105.741 90.6012 104.231 90.6012 102.369C90.6012 100.507 89.0916 98.9971 87.2293 98.9971C85.367 98.9971 83.8573 100.507 83.8573 102.369C83.8573 104.231 85.367 105.741 87.2293 105.741Z" fill="#F1C40F"/>
<path d="M101.998 100.618H83.2407C82.7767 100.618 82.4005 100.994 82.4005 101.458V103.28C82.4005 103.744 82.7767 104.12 83.2407 104.12H101.998C102.462 104.12 102.838 103.744 102.838 103.28V101.458C102.838 100.994 102.462 100.618 101.998 100.618Z" fill="#C0392B"/>
<path d="M101.998 100.618H91.7362V104.12H101.998C102.461 104.12 102.838 103.743 102.838 103.28V101.454C102.838 100.991 102.461 100.614 101.998 100.614V100.618Z" fill="#8F2A20"/>
<path d="M101.998 100.618H96.176V104.12H101.998C102.461 104.12 102.838 103.743 102.838 103.28V101.454C102.838 100.991 102.461 100.614 101.998 100.614V100.618Z" fill="#E74C3C"/>
<path d="M89.6158 102.369C89.6158 103.687 88.5478 104.759 87.2259 104.759C85.904 104.759 84.8361 103.691 84.8361 102.369C84.8361 101.047 85.904 99.9792 87.2259 99.9792C88.5478 99.9792 89.6158 101.047 89.6158 102.369Z" fill="#C0392B"/>
<path d="M87.2298 103.949C88.1022 103.949 88.8094 103.241 88.8094 102.369C88.8094 101.497 88.1022 100.79 87.2298 100.79C86.3575 100.79 85.6503 101.497 85.6503 102.369C85.6503 103.241 86.3575 103.949 87.2298 103.949Z" fill="#34495E"/>
<path d="M87.2301 103.497C87.853 103.497 88.3579 102.992 88.3579 102.369C88.3579 101.747 87.853 101.242 87.2301 101.242C86.6073 101.242 86.1024 101.747 86.1024 102.369C86.1024 102.992 86.6073 103.497 87.2301 103.497Z" fill="#ECF0F1"/>
<path d="M199.092 79.7743H195.324C193.886 77.489 191.351 75.9617 188.449 75.9617C185.548 75.9617 183.012 77.4852 181.575 79.7743H177.807V88.3928H181.575C183.012 90.6781 185.548 92.2054 188.449 92.2054C191.351 92.2054 193.886 90.6818 195.324 88.3928H199.092V79.7743Z" fill="#E3E7E8"/>
<path d="M190.196 72.6082H186.7V75.9652H190.196V72.6082Z" fill="#202E3B"/>
<path d="M190.361 73.0935H186.537V75.9614H190.361V73.0935Z" fill="#34495E"/>
<path d="M191.092 75.4609H185.808V75.9613H191.092V75.4609Z" fill="#F1C40F"/>
<path d="M192.619 75.9617H184.281V77.1379H192.619V75.9617Z" fill="#E3E7E8"/>
<path d="M190.633 72.8898L186.237 73.2898L186.274 73.6951L190.67 73.2951L190.633 72.8898Z" fill="#597DA1"/>
<path d="M190.631 73.693L186.235 74.093L186.272 74.4984L190.668 74.0983L190.631 73.693Z" fill="#597DA1"/>
<path d="M190.629 74.4999L186.233 74.8999L186.27 75.3053L190.666 74.9052L190.629 74.4999Z" fill="#597DA1"/>
<path d="M177.806 79.4231H175.827V88.766H177.806V79.4231Z" fill="#3B536B"/>
<path d="M177.806 84.6921H175.827V88.7661H177.806V84.6921Z" fill="#2C3E50"/>
<path d="M175.845 80.2258H175.431V87.9257H175.845V80.2258Z" fill="#F1C40F"/>
<path d="M201.071 79.4231H199.092V88.766H201.071V79.4231Z" fill="#3B536B"/>
<path d="M201.071 84.6921H199.092V88.7661H201.071V84.6921Z" fill="#2C3E50"/>
<path d="M201.462 80.2258H201.047V87.9257H201.462V80.2258Z" fill="#F1C40F"/>
<path d="M193.111 70.9686C193.673 68.3937 192.042 65.8503 189.467 65.288C186.892 64.7256 184.348 66.3571 183.786 68.9321C183.224 71.5071 184.855 74.0504 187.43 74.6128C190.005 75.1751 192.549 73.5436 193.111 70.9686Z" fill="#2980B9"/>
<path d="M192.496 69.942C192.496 70.7188 192.279 71.4395 191.902 72.0556C191.189 73.2169 189.908 73.9899 188.448 73.9899C187.97 73.9899 187.514 73.9078 187.089 73.7547C186.11 73.4074 185.304 72.6941 184.837 71.7755C184.557 71.2229 184.396 70.5993 184.396 69.9383C184.396 69.1019 184.65 68.3251 185.083 67.6791C185.811 66.6 187.044 65.8867 188.444 65.8867C190.681 65.8867 192.496 67.7015 192.496 69.9383V69.942Z" fill="#F1C40F"/>
<path d="M192.406 69.9421C192.406 70.7001 192.193 71.4059 191.823 72.0108C191.129 73.146 189.874 73.904 188.448 73.904C187.981 73.904 187.533 73.8219 187.118 73.6762C186.162 73.3364 185.375 72.6381 184.919 71.7419C184.643 71.2042 184.49 70.5918 184.49 69.9458C184.49 69.128 184.736 68.37 185.162 67.7389C185.871 66.6821 187.081 65.9875 188.448 65.9875C190.636 65.9875 192.406 67.7613 192.406 69.9458V69.9421Z" fill="#FFE066"/>
<path d="M192.265 69.942C192.265 70.6739 192.059 71.3573 191.705 71.9361C191.032 73.0302 189.826 73.7621 188.448 73.7621C188 73.7621 187.567 73.6837 187.168 73.5418C186.245 73.2132 185.487 72.541 185.047 71.6784C184.781 71.1593 184.632 70.5693 184.632 69.9457C184.632 69.1578 184.871 68.4259 185.282 67.8172C185.969 66.7978 187.13 66.1294 188.452 66.1294C190.562 66.1294 192.272 67.8397 192.272 69.9495L192.265 69.942Z" fill="#DEF0FF"/>
<path d="M185.02 70.618C185.02 69.83 185.259 69.0981 185.67 68.4895C186.357 67.47 187.518 66.8016 188.84 66.8016C190.162 66.8016 191.23 67.4178 191.925 68.3662C191.324 67.0443 189.994 66.1257 188.448 66.1257C187.126 66.1257 185.965 66.7942 185.278 67.8136C184.867 68.4223 184.628 69.1542 184.628 69.9421C184.628 70.5657 184.778 71.1557 185.043 71.6747C185.132 71.8502 185.241 72.0183 185.356 72.1789C185.143 71.7009 185.02 71.1706 185.02 70.6142V70.618Z" fill="#ADBCC7"/>
<path d="M188.157 73.5046C188.067 73.4971 188 73.4187 188.007 73.3291C188.015 73.2395 188.093 73.1722 188.183 73.1797C188.272 73.1872 188.34 73.2656 188.332 73.3552C188.325 73.4411 188.254 73.5046 188.168 73.5046H188.157ZM189.127 73.288C189.105 73.2021 189.157 73.1125 189.247 73.0901C189.333 73.0677 189.422 73.12 189.445 73.2058C189.467 73.2955 189.415 73.3814 189.329 73.4038C189.329 73.4038 189.303 73.4075 189.288 73.4075C189.217 73.4075 189.15 73.3589 189.131 73.2843L189.127 73.288ZM187.014 73.2171C186.932 73.1797 186.894 73.0864 186.928 73.0042C186.965 72.922 187.059 72.8847 187.141 72.9183C187.223 72.9557 187.26 73.049 187.223 73.1312C187.197 73.1909 187.137 73.2283 187.074 73.2283C187.051 73.2283 187.029 73.2245 187.01 73.2133L187.014 73.2171ZM190.173 72.8884C190.124 72.8138 190.147 72.7129 190.222 72.6644C190.296 72.6158 190.397 72.6382 190.449 72.7129C190.498 72.7876 190.476 72.8884 190.401 72.937C190.375 72.9557 190.341 72.9631 190.311 72.9631C190.259 72.9631 190.207 72.937 190.173 72.8884ZM186.028 72.5748C185.965 72.515 185.957 72.4105 186.017 72.347C186.08 72.2798 186.181 72.276 186.248 72.3358C186.312 72.3955 186.319 72.5001 186.26 72.5636C186.226 72.6009 186.185 72.6158 186.14 72.6158C186.103 72.6158 186.062 72.6009 186.028 72.571V72.5748ZM191.036 72.164C190.965 72.108 190.953 72.0072 191.006 71.9362C191.062 71.8653 191.163 71.8541 191.234 71.9101C191.305 71.9661 191.316 72.0669 191.26 72.1379C191.226 72.1789 191.181 72.2014 191.133 72.2014C191.099 72.2014 191.062 72.1901 191.032 72.1677L191.036 72.164ZM185.304 71.6487C185.263 71.5703 185.292 71.4732 185.367 71.4284C185.446 71.3873 185.543 71.4172 185.587 71.4956C185.629 71.574 185.599 71.6711 185.524 71.7159C185.498 71.7271 185.472 71.7346 185.446 71.7346C185.39 71.7346 185.334 71.7047 185.304 71.6487ZM191.614 71.2043C191.529 71.1744 191.484 71.0811 191.514 70.9989C191.543 70.9131 191.637 70.8682 191.719 70.8981C191.805 70.928 191.85 71.0213 191.82 71.1035C191.794 71.1707 191.73 71.2155 191.667 71.2155C191.667 71.2155 191.629 71.2155 191.614 71.2043ZM184.919 70.5396C184.904 70.45 184.964 70.3679 185.053 70.3529C185.143 70.338 185.225 70.3977 185.24 70.4874C185.255 70.577 185.195 70.6591 185.106 70.6741C185.106 70.6741 185.087 70.6741 185.08 70.6741C185.001 70.6741 184.934 70.6181 184.919 70.5396ZM191.689 69.9459V69.9384V69.931C191.689 69.8413 191.76 69.7667 191.85 69.7667C191.939 69.7667 192.014 69.8413 192.014 69.931V69.9384V69.9459C192.014 70.0355 191.939 70.1102 191.85 70.1102C191.76 70.1102 191.685 70.0355 191.685 69.9459H191.689ZM185.053 69.5538C184.964 69.5389 184.904 69.453 184.919 69.3671C184.934 69.2775 185.016 69.2177 185.106 69.2327C185.195 69.2476 185.255 69.3335 185.24 69.4194C185.229 69.4978 185.158 69.5575 185.08 69.5575C185.08 69.5575 185.061 69.5575 185.053 69.5575V69.5538ZM191.51 68.8817C191.48 68.7958 191.525 68.7061 191.611 68.6763C191.697 68.6464 191.79 68.6912 191.82 68.7771C191.85 68.863 191.805 68.9526 191.719 68.9825C191.719 68.9825 191.682 68.9899 191.667 68.9899C191.6 68.9899 191.536 68.9489 191.514 68.8817H191.51ZM185.363 68.4746C185.285 68.4336 185.255 68.3327 185.296 68.2543C185.337 68.1759 185.438 68.146 185.517 68.1908C185.595 68.2319 185.625 68.3327 185.58 68.4111C185.55 68.4672 185.494 68.497 185.438 68.497C185.412 68.497 185.386 68.4896 185.363 68.4784V68.4746ZM190.998 67.9444C190.942 67.8734 190.953 67.7689 191.024 67.7166C191.095 67.6606 191.2 67.6755 191.252 67.7427C191.308 67.8137 191.293 67.9182 191.226 67.9705C191.196 67.9929 191.163 68.0041 191.125 68.0041C191.077 68.0041 191.028 67.9817 190.998 67.9406V67.9444ZM186.009 67.556C185.946 67.4888 185.95 67.388 186.017 67.3245C186.084 67.2647 186.185 67.2685 186.245 67.3357C186.308 67.3992 186.301 67.5037 186.237 67.5635C186.207 67.5934 186.166 67.6083 186.125 67.6083C186.08 67.6083 186.036 67.5896 186.006 67.556H186.009ZM190.207 67.2237C190.132 67.1751 190.11 67.0743 190.158 66.9996C190.207 66.9249 190.307 66.9025 190.386 66.9511C190.461 66.9996 190.483 67.1004 190.434 67.1751C190.405 67.2237 190.352 67.2498 190.296 67.2498C190.266 67.2498 190.233 67.2423 190.207 67.2237ZM186.913 66.8951C186.876 66.8129 186.913 66.7158 186.995 66.6822C187.077 66.6449 187.171 66.6822 187.208 66.7644C187.245 66.8465 187.208 66.9436 187.126 66.9772C187.104 66.9884 187.081 66.9884 187.059 66.9884C186.995 66.9884 186.935 66.9511 186.909 66.8913L186.913 66.8951ZM189.225 66.798C189.139 66.7756 189.086 66.686 189.105 66.6001C189.127 66.5142 189.217 66.4619 189.303 66.4806C189.393 66.503 189.445 66.5926 189.422 66.6785C189.404 66.7532 189.337 66.8017 189.266 66.8017C189.266 66.8017 189.239 66.8017 189.228 66.798H189.225ZM187.985 66.5665C187.977 66.4768 188.045 66.3984 188.134 66.3909C188.224 66.3835 188.302 66.4507 188.31 66.5403C188.317 66.6299 188.25 66.7084 188.16 66.7158H188.149C188.063 66.7158 187.992 66.6523 187.985 66.5665Z" fill="#2C3E50"/>
<path d="M190.986 69.9421H189.866C189.866 69.5613 189.717 69.2065 189.448 68.9376L190.239 68.146C190.721 68.6277 190.983 69.2663 190.983 69.9421H190.986Z" fill="#C0392B"/>
<path d="M189.453 68.9377C189.184 68.6688 188.825 68.5194 188.448 68.5194V67.3992C189.128 67.3992 189.766 67.6643 190.248 68.146L189.456 68.9377H189.453Z" fill="#E67E22"/>
<path d="M187.44 68.9377L186.648 68.146C187.13 67.6643 187.768 67.3992 188.444 67.3992V68.5194C188.063 68.5194 187.709 68.6688 187.44 68.9377Z" fill="#F1C40F"/>
<path d="M187.025 69.942H185.905C185.905 69.2623 186.17 68.6238 186.648 68.1421L187.439 68.9337C187.17 69.2026 187.021 69.5573 187.021 69.9382L187.025 69.942Z" fill="#27AE60"/>
<path d="M185.593 68.9677L185.56 69.071C185.547 69.1123 185.57 69.1563 185.611 69.1694L188.225 69.9964C188.266 70.0094 188.31 69.9865 188.323 69.9452L188.356 69.842C188.369 69.8007 188.346 69.7566 188.305 69.7436L185.691 68.9166C185.65 68.9036 185.606 68.9265 185.593 68.9677Z" fill="#233140"/>
<path d="M188.712 70.0463C188.652 70.1955 188.485 70.2701 188.335 70.2104C188.186 70.1507 188.112 69.9829 188.171 69.8337C188.231 69.6844 188.399 69.6098 188.548 69.6695C188.697 69.7292 188.772 69.8971 188.712 70.0463Z" fill="#34495E"/>
<path d="M188.619 70.0089C188.582 70.1059 188.47 70.1581 188.369 70.1171C188.272 70.0798 188.22 69.9679 188.261 69.8672C188.302 69.7664 188.41 69.7179 188.511 69.759C188.608 69.7963 188.66 69.9082 188.619 70.0089Z" fill="#56799C"/>
<path d="M188.444 88.3439C190.797 88.3439 192.704 86.4363 192.704 84.0832C192.704 81.7301 190.797 79.8225 188.444 79.8225C186.09 79.8225 184.183 81.7301 184.183 84.0832C184.183 86.4363 186.09 88.3439 188.444 88.3439Z" fill="#34495E"/>
<path d="M186.498 87.4592L184.549 84.0835L186.498 80.7078H190.393L192.342 84.0835L190.393 87.4592H186.498Z" fill="#F39C12"/>
<path d="M188.433 87.3916C190.261 87.3916 191.742 85.9104 191.742 84.0832C191.742 82.2559 190.261 80.7747 188.433 80.7747C186.606 80.7747 185.125 82.2559 185.125 84.0832C185.125 85.9104 186.606 87.3916 188.433 87.3916Z" fill="#F1C40F"/>
<path d="M188.434 86.4282C189.729 86.4282 190.779 85.3783 190.779 84.0831C190.779 82.788 189.729 81.738 188.434 81.738C187.139 81.738 186.089 82.788 186.089 84.0831C186.089 85.3783 187.139 86.4282 188.434 86.4282Z" fill="#C0392B"/>
<path d="M188.445 77.0518C184.562 77.0518 181.414 80.1997 181.414 84.0832C181.414 87.9668 184.562 91.1147 188.445 91.1147C192.329 91.1147 195.477 87.9668 195.477 84.0832C195.477 80.1997 192.329 77.0518 188.445 77.0518ZM188.445 89.397C185.51 89.397 183.131 87.0183 183.131 84.0832C183.131 81.1482 185.51 78.7695 188.445 78.7695C191.38 78.7695 193.759 81.1482 193.759 84.0832C193.759 87.0183 191.38 89.397 188.445 89.397Z" fill="#E74C3C"/>
<path d="M190.832 84.0832C190.832 85.4013 189.764 86.4693 188.446 86.4693C187.128 86.4693 186.06 85.4013 186.06 84.0832C186.06 82.765 187.128 81.697 188.446 81.697C189.764 81.697 190.832 82.765 190.832 84.0832Z" fill="#E74C3C"/>
<path d="M194.659 84.565C193.087 85.0765 191.395 85.0765 189.823 84.565V83.5978C191.395 83.0862 193.087 83.0862 194.659 83.5978V84.565Z" fill="#E74C3C"/>
<path d="M188.93 77.8696C189.441 79.4417 189.441 81.1333 188.93 82.7054H187.963C187.451 81.1333 187.451 79.4417 187.963 77.8696H188.93Z" fill="#E74C3C"/>
<path d="M182.236 83.6015C183.808 83.0899 185.499 83.0899 187.071 83.6015V84.5686C185.499 85.0802 183.808 85.0802 182.236 84.5686V83.6015Z" fill="#E74C3C"/>
<path d="M187.963 90.297C187.451 88.7249 187.451 87.0333 187.963 85.4612H188.93C189.441 87.0333 189.441 88.7249 188.93 90.297H187.963Z" fill="#E74C3C"/>
<path d="M181.417 84.0237C181.417 84.0424 181.417 84.0648 181.417 84.0834C181.417 87.967 184.565 91.1149 188.449 91.1149C192.332 91.1149 195.48 87.967 195.48 84.0834C195.48 84.0648 195.48 84.0424 195.48 84.0237H181.421H181.417ZM187.724 89.3412C185.368 89.02 183.508 87.1604 183.187 84.8041C184.173 84.9908 185.185 84.9871 186.167 84.7929C186.399 85.5398 186.989 86.126 187.732 86.3576C187.538 87.3434 187.534 88.3516 187.721 89.3374L187.724 89.3412ZM189.169 89.3412C189.356 88.3553 189.352 87.3434 189.158 86.3613C189.905 86.1298 190.491 85.5398 190.723 84.7967C191.709 84.9908 192.717 84.9946 193.703 84.8079C193.382 87.1641 191.522 89.0238 189.166 89.3449L189.169 89.3412Z" fill="#C0392B"/>
<path d="M188.434 85.6366C189.292 85.6366 189.987 84.9411 189.987 84.0832C189.987 83.2253 189.292 82.5298 188.434 82.5298C187.576 82.5298 186.88 83.2253 186.88 84.0832C186.88 84.9411 187.576 85.6366 188.434 85.6366Z" fill="#34495E"/>
<path d="M189.539 84.0833C189.539 84.6958 189.043 85.1887 188.434 85.1887C187.825 85.1887 187.329 84.692 187.329 84.0833C187.329 83.4747 187.825 82.978 188.434 82.978C189.043 82.978 189.539 83.4747 189.539 84.0833Z" fill="#ECF0F1"/>
<path d="M90.2901 38.0622C89.2296 38.0622 88.2401 37.5282 87.6613 36.6395C86.0331 34.1376 83.2138 32.4871 80.0099 32.4871C76.806 32.4871 73.9867 34.1413 72.3586 36.6395C71.7798 37.5282 70.7902 38.0622 69.7297 38.0622H65.23V45.1534H69.7297C70.7902 45.1534 71.7798 45.6874 72.3586 46.5762C73.9867 49.0743 76.806 50.7286 80.0099 50.7286C83.2138 50.7286 86.0331 49.0743 87.6613 46.5762C88.2401 45.6874 89.2296 45.1534 90.2901 45.1534H93.031V38.0622H90.2901Z" fill="#E3E7E8"/>
<path d="M83.5325 29.0854H76.4935V35.8817H83.5325V29.0854Z" fill="#E3E7E8"/>
<path d="M90.2901 38.0625C89.2259 38.0625 88.2401 37.5248 87.6613 36.6398C86.0369 34.1379 83.2138 32.4836 80.0099 32.4836C76.806 32.4836 73.9867 34.1416 72.3586 36.6398C71.7798 37.5285 70.7865 38.0625 69.7297 38.0625H65.23V45.1537H69.7297C70.7902 45.1537 71.7798 45.6915 72.3586 46.5765C73.9829 49.0784 76.7985 50.7326 80.0099 50.7326C83.2213 50.7326 86.0331 49.0746 87.6613 46.5765C88.2401 45.6877 89.2259 45.1537 90.2901 45.1537H93.031V38.0625H90.2901Z" fill="#E3E7E8"/>
<path d="M90.2828 41.7668C88.0386 41.7668 86.0221 42.9693 84.76 44.8289C83.6883 46.4084 81.922 47.3495 80.0138 47.3495C78.1056 47.3495 76.2609 46.3711 75.2042 44.7318C73.998 42.8759 71.9517 41.7706 69.7336 41.7706H65.2339V45.1575H69.7336C70.7941 45.1575 71.7837 45.6952 72.3625 46.5802C73.9868 49.0821 76.8024 50.7364 80.0138 50.7364C83.2252 50.7364 86.0371 49.0784 87.6652 46.5802C88.244 45.6915 89.2298 45.1575 90.294 45.1575H93.0349V41.7706H90.2828V41.7668Z" fill="#BDC3C7"/>
<path d="M96.4822 36.7966H91.105V46.4234H96.4822V36.7966Z" fill="#34495E"/>
<path d="M96.4822 41.7031H91.105V46.4194H96.4822V41.7031Z" fill="#222F3D"/>
<path d="M68.9054 36.7966H63.5282V46.4234H68.9054V36.7966Z" fill="#34495E"/>
<path d="M68.9054 41.7031H63.5282V46.4194H68.9054V41.7031Z" fill="#222F3D"/>
<path d="M68.2489 36.7966H67.2817V46.4234H68.2489V36.7966Z" fill="#F1C40F"/>
<path d="M68.2489 41.7031H67.2817V46.4194H68.2489V41.7031Z" fill="#F39C12"/>
<path d="M93.0242 36.7966H92.057V46.4234H93.0242V36.7966Z" fill="#F1C40F"/>
<path d="M93.0242 41.7031H92.057V46.4194H93.0242V41.7031Z" fill="#F39C12"/>
<path d="M80.8253 34.5562C76.4824 34.5562 72.9611 38.0775 72.9611 42.4204C72.9611 46.7632 76.4824 50.2846 80.8253 50.2846C85.1681 50.2846 88.6895 46.7632 88.6895 42.4204C88.6895 38.0775 85.1681 34.5562 80.8253 34.5562ZM80.8253 48.3652C77.5429 48.3652 74.8842 45.7064 74.8842 42.4241C74.8842 39.1417 77.5429 36.483 80.8253 36.483C84.1076 36.483 86.7664 39.1417 86.7664 42.4241C86.7664 45.7064 84.1076 48.3652 80.8253 48.3652Z" fill="#7F8C8D"/>
<path d="M80.8248 45.09C82.2973 45.09 83.491 43.8963 83.491 42.4238C83.491 40.9513 82.2973 39.7576 80.8248 39.7576C79.3523 39.7576 78.1586 40.9513 78.1586 42.4238C78.1586 43.8963 79.3523 45.09 80.8248 45.09Z" fill="#7F8C8D"/>
<path d="M87.7743 41.8826H82.3672V42.9617H87.7743V41.8826Z" fill="#7F8C8D"/>
<path d="M81.3638 35.4709H80.2847V40.8781H81.3638V35.4709Z" fill="#7F8C8D"/>
<path d="M79.2826 41.8826H73.8755V42.9617H79.2826V41.8826Z" fill="#7F8C8D"/>
<path d="M81.3638 43.9624H80.2847V49.3695H81.3638V43.9624Z" fill="#7F8C8D"/>
<path d="M82.938 42.4239C82.938 43.5927 81.9933 44.5374 80.8245 44.5374C79.6557 44.5374 78.7109 43.5927 78.7109 42.4239C78.7109 41.2551 79.6557 40.3103 80.8245 40.3103C81.9933 40.3103 82.938 41.2551 82.938 42.4239Z" fill="#7F8C8D"/>
<path d="M79.9136 43.9996L79.0024 42.4238L79.9136 40.8442H81.7359L82.647 42.4238L81.7359 43.9996H79.9136Z" fill="#7F8C8D"/>
<path d="M81.6391 42.4242C81.6391 42.8723 81.2731 43.2382 80.825 43.2382C80.3769 43.2382 80.011 42.8723 80.011 42.4242C80.011 41.9761 80.3769 41.6101 80.825 41.6101C81.2731 41.6101 81.6391 41.9761 81.6391 42.4242Z" fill="#7F8C8D"/>
<path d="M80.0104 33.7422C75.6676 33.7422 72.1462 37.2635 72.1462 41.6064C72.1462 45.9493 75.6676 49.4706 80.0104 49.4706C84.3533 49.4706 87.8746 45.9493 87.8746 41.6064C87.8746 37.2635 84.3533 33.7422 80.0104 33.7422ZM80.0104 47.5512C76.7281 47.5512 74.0693 44.8925 74.0693 41.6101C74.0693 38.3278 76.7281 35.669 80.0104 35.669C83.2928 35.669 85.9515 38.3278 85.9515 41.6101C85.9515 44.8925 83.2928 47.5512 80.0104 47.5512Z" fill="#C0392B"/>
<path d="M80.0098 44.2729C81.4823 44.2729 82.6761 43.0791 82.6761 41.6066C82.6761 40.1341 81.4823 38.9404 80.0098 38.9404C78.5373 38.9404 77.3436 40.1341 77.3436 41.6066C77.3436 43.0791 78.5373 44.2729 80.0098 44.2729Z" fill="#C0392B"/>
<path d="M86.9585 41.0688H81.5514V42.148H86.9585V41.0688Z" fill="#C0392B"/>
<path d="M80.5481 34.657H79.4689V40.0641H80.5481V34.657Z" fill="#C0392B"/>
<path d="M78.4677 41.0688H73.0605V42.148H78.4677V41.0688Z" fill="#C0392B"/>
<path d="M80.5481 43.1484H79.4689V48.5555H80.5481V43.1484Z" fill="#C0392B"/>
<path d="M82.1231 41.6062C82.1231 42.775 81.1784 43.7198 80.0095 43.7198C78.8407 43.7198 77.896 42.775 77.896 41.6062C77.896 40.4374 78.8407 39.4927 80.0095 39.4927C81.1784 39.4927 82.1231 40.4374 82.1231 41.6062Z" fill="#95A5A6"/>
<path d="M79.0988 43.1857L78.1876 41.6061L79.0988 40.0303H80.9211L81.8322 41.6061L80.9211 43.1857H79.0988Z" fill="#BDC3C7"/>
<path d="M80.8243 41.6063C80.8243 42.0544 80.4583 42.4203 80.0102 42.4203C79.5621 42.4203 79.1962 42.0544 79.1962 41.6063C79.1962 41.1582 79.5621 40.7922 80.0102 40.7922C80.4583 40.7922 80.8243 41.1582 80.8243 41.6063Z" fill="#ECF0F1"/>
<path d="M83.6069 26.4683H76.5007V31.5804H83.6069V26.4683Z" fill="#E3E7E8"/>
<path d="M78.928 26.4683H76.5007V31.5804H78.928V26.4683Z" fill="#BDC3C7"/>
<path d="M84.0584 29.9746H76.0486V31.584H84.0584V29.9746Z" fill="#34495E"/>
<path d="M78.4721 29.9746H76.0486V31.584H78.4721V29.9746Z" fill="#222F3D"/>
<path d="M88.7937 19.7805H83.1887V26.8867H88.7937V19.7805Z" fill="#E3E7E8"/>
<path d="M88.7937 25.053H83.1887V26.8865H88.7937V25.053Z" fill="#BDC3C7"/>
<path d="M88.3826 17.2073L83.746 21.844L88.7708 26.8688L93.4075 22.2321L88.3826 17.2073Z" fill="#E3E7E8"/>
<path d="M91.5412 20.366L86.9045 25.0027L88.7687 26.8669L93.4054 22.2302L91.5412 20.366Z" fill="#BDC3C7"/>
<path d="M87.9879 16.8217L86.5198 18.2898L92.3209 24.0909L93.789 22.6228L87.9879 16.8217Z" fill="#34495E"/>
<path d="M91.8653 20.6913L90.3972 22.1594L92.3274 24.0896L93.7955 22.6215L91.8653 20.6913Z" fill="#222F3D"/>
<path d="M84.7308 24.8439C84.096 26.8193 82.2401 28.2457 80.0556 28.2457C77.3446 28.2457 75.1451 26.0463 75.1451 23.3353C75.1451 20.6242 77.3446 18.4248 80.0556 18.4248C82.7666 18.4248 84.9661 20.6242 84.9661 23.3353C84.9661 23.8618 84.8839 24.3696 84.7308 24.8439Z" fill="#BDC3C7"/>
<path d="M80.0547 26.1656C81.8861 26.1656 83.3707 24.681 83.3707 22.8497C83.3707 21.0183 81.8861 19.5337 80.0547 19.5337C78.2234 19.5337 76.7388 21.0183 76.7388 22.8497C76.7388 24.681 78.2234 26.1656 80.0547 26.1656Z" fill="#E3E7E8"/>
<path d="M83.189 17.0654H76.9193V19.7839H83.189V17.0654Z" fill="#E3E7E8"/>
<path d="M78.9283 17.0654H76.9193V19.7839H78.9283V17.0654Z" fill="#BDC3C7"/>
<path d="M83.1886 17.0654H81.1796V19.7839H83.1886V17.0654Z" fill="#BDC3C7"/>
<path d="M81.4039 12.4092H78.7003V17.0657H81.4039V12.4092Z" fill="#202E3B"/>
<path d="M80.0556 13.4809L76.2579 13.9925C75.6679 14.0709 75.1451 13.6116 75.1451 13.0178C75.1451 12.4204 75.6679 11.9648 76.2579 12.0432L80.0556 12.5548V13.4846V13.4809Z" fill="#C0392B"/>
<path d="M79.1893 13.2531H76.3214C75.7314 13.2531 75.4289 12.8162 75.3991 12.3606C75.2422 12.5324 75.1451 12.7602 75.1451 13.0141C75.1451 13.6115 75.6679 14.0671 76.2579 13.9887L80.0556 13.4771V12.6481C79.9398 12.9842 79.6486 13.2493 79.1893 13.2493V13.2531Z" fill="#85271E"/>
<path d="M80.0549 13.4809L83.8526 13.9925C84.4426 14.0709 84.9654 13.6116 84.9654 13.0178C84.9654 12.4204 84.4426 11.9648 83.8526 12.0432L80.0549 12.5548V13.4846V13.4809Z" fill="#C0392B"/>
<path d="M80.9213 13.2531H83.7891C84.3791 13.2531 84.6816 12.8162 84.7115 12.3606C84.8683 12.5324 84.9654 12.7602 84.9654 13.0141C84.9654 13.6115 84.4426 14.0671 83.8526 13.9887L80.0549 13.4771V12.6481C80.1707 12.9842 80.462 13.2493 80.9213 13.2493V13.2531Z" fill="#85271E"/>
<path d="M82.0496 14.3469H78.0577V17.0654H82.0496V14.3469Z" fill="#34495E"/>
<path d="M82.8088 16.8191H77.2971V17.0618H82.8088V16.8191Z" fill="#597DA1"/>
<path d="M82.3277 14.1369L77.7424 14.5542L77.781 14.9781L82.3663 14.5609L82.3277 14.1369Z" fill="#597DA1"/>
<path d="M82.3287 14.9809L77.7434 15.3982L77.782 15.8221L82.3673 15.4048L82.3287 14.9809Z" fill="#597DA1"/>
<path d="M82.3277 15.8217L77.7424 16.239L77.781 16.663L82.3663 16.2457L82.3277 15.8217Z" fill="#597DA1"/>
<path d="M81.1794 13.0141C81.1794 13.634 80.6753 14.1381 80.0554 14.1381C79.4355 14.1381 78.9314 13.634 78.9314 13.0141C78.9314 12.3943 79.4355 11.8901 80.0554 11.8901C80.6753 11.8901 81.1794 12.3943 81.1794 13.0141Z" fill="#85271E"/>
<path d="M80.0564 13.3091C80.4483 13.3091 80.7659 12.9915 80.7659 12.5996C80.7659 12.2078 80.4483 11.8901 80.0564 11.8901C79.6646 11.8901 79.3469 12.2078 79.3469 12.5996C79.3469 12.9915 79.6646 13.3091 80.0564 13.3091Z" fill="#C0392B"/>
<path d="M80.527 11.4792H79.5823C79.4358 11.4792 79.3171 11.598 79.3171 11.7444V11.7668C79.3171 11.9132 79.4358 12.0319 79.5823 12.0319H80.527C80.6734 12.0319 80.7921 11.9132 80.7921 11.7668V11.7444C80.7921 11.598 80.6734 11.4792 80.527 11.4792Z" fill="#F1C40F"/>
</g>
<defs>
<clipPath id="clip0_973_6067">
<rect width="168.039" height="168.039" fill="white" transform="translate(45.2942)"/>
</clipPath>
</defs>
</svg>
