<svg width="265" height="297" viewBox="0 0 265 297" fill="none" xmlns="http://www.w3.org/2000/svg">
<g clip-path="url(#clip0_973_3805)">
<path d="M264.964 0.691162H0.90332V263.418H264.964V0.691162Z" fill="white"/>
<path d="M173.817 147.902C190.309 128.517 193.92 120.274 193.517 96.5143C193.116 72.7546 211.126 39.2779 201.541 46.6343C191.956 53.9893 178.482 78.5267 184.234 97.4719C189.987 116.416 188.631 122.648 186.608 127.862C184.586 133.074 173.541 146.331 173.541 146.331L173.816 147.905L173.817 147.902Z" fill="#9CD499"/>
<path d="M183.876 135.084C183.93 135.005 183.984 134.925 184.037 134.846C184.832 132.936 188.854 123.076 189.195 118.472C189.573 113.36 185.11 101.531 187.784 91.4213C190.457 81.3102 190.6 72.3683 191.316 65.4245C192.261 56.2566 199.659 47.5827 204.186 45.9827C204.145 45.9012 204.096 45.8342 204.041 45.7791L202.83 45.8053C202.472 45.9735 202.044 46.2467 201.54 46.6329C191.955 53.988 178.481 78.5253 184.233 97.4706C189.986 116.414 188.63 122.646 186.607 127.86C186.062 129.266 184.859 131.259 183.395 133.417L183.874 135.085L183.876 135.084Z" fill="#74B570"/>
<path d="M170.749 175.113C182.226 147.851 183.976 137.774 184.217 113.389C184.459 89.0043 240.632 49.456 236.736 57.9749C232.84 66.4938 222.04 87.3662 206.661 97.9856C191.282 108.605 187.127 119.636 185.836 132.197C184.545 144.758 173.848 171.774 173.848 171.774L171.087 176.387L170.749 175.114V175.113Z" fill="#9CD499"/>
<path d="M175.743 163.949C175.703 163.949 175.66 163.942 175.619 163.929C175.412 163.861 175.299 163.637 175.367 163.431C175.396 163.346 178.249 154.747 180.163 147.566C182.076 140.384 183.69 127.597 183.73 123.057C183.767 118.906 186.153 105.639 196.614 94.2487C201.817 88.5843 205.648 85.1596 210.953 80.4214C216.192 75.7409 222.713 69.9149 233.418 59.4295C233.574 59.2771 233.825 59.2784 233.978 59.4334C234.131 59.5884 234.13 59.838 233.974 59.9904C223.255 70.489 216.727 76.3215 211.483 81.0072C206.195 85.7311 202.375 89.1439 197.2 94.7807C186.907 105.989 184.56 118.996 184.525 123.063C184.484 127.643 182.859 140.532 180.931 147.767C179.013 154.971 176.151 163.591 176.122 163.678C176.067 163.844 175.912 163.949 175.746 163.949H175.743Z" fill="#74B570"/>
<path d="M185.54 187.2C189.341 167.811 188.81 177.492 182.758 150.146C175.832 118.848 212.783 94.9092 217.441 106.438C222.099 117.965 225.531 153.195 223.146 151.847C220.76 150.501 207.157 116.857 206.583 118.167C206.009 119.477 183.063 128.765 182.932 140.32C182.802 151.874 189.523 170.842 189.523 170.842L187.782 187.628L185.541 187.201L185.54 187.2Z" fill="#9CD499"/>
<path d="M187.828 187.51C187.803 187.51 187.777 187.507 187.754 187.503L185.513 187.076C185.41 187.057 185.319 186.996 185.26 186.909C185.2 186.823 185.179 186.716 185.199 186.614C185.639 184.373 186.027 182.488 186.34 180.973C187.467 175.508 187.383 170.333 186.087 165.45C185.205 162.128 183.999 157.579 182.373 150.231C181.155 144.722 181.216 139.131 182.554 133.614C183.735 128.751 185.874 124.044 188.91 119.625C194.119 112.045 201.803 105.82 208.489 103.766C213.183 102.323 216.58 103.244 217.81 106.29C219.791 111.192 221.798 121.039 223.18 132.631C223.76 137.494 224.149 142.101 224.277 145.605C224.49 151.42 223.923 151.913 223.682 152.123C223.473 152.306 223.2 152.331 222.953 152.191C221.622 151.44 217.831 143.135 212.624 131.486C210.089 125.816 207.475 119.968 206.63 118.694C206.189 119.055 205.265 119.573 203.451 120.574C196.952 124.161 183.428 131.625 183.329 140.324C183.201 151.675 189.832 170.522 189.898 170.711C189.918 170.766 189.924 170.824 189.919 170.883L188.224 187.158C188.212 187.268 188.155 187.368 188.065 187.434C187.997 187.485 187.913 187.511 187.829 187.511L187.828 187.51ZM186.052 186.376L187.478 186.648L189.12 170.888C188.634 169.493 182.41 151.412 182.536 140.315C182.639 131.157 196.435 123.542 203.064 119.884C204.588 119.043 206.027 118.248 206.227 117.991C206.304 117.833 206.456 117.736 206.627 117.736C206.633 117.736 206.639 117.736 206.645 117.736C206.971 117.736 207.218 117.804 209.153 121.917C210.293 124.338 211.775 127.655 213.345 131.167C215.337 135.623 217.595 140.672 219.458 144.563C221.869 149.6 222.837 151.041 223.222 151.412C223.362 151.07 223.643 149.828 223.478 145.496C223.345 141.998 222.953 137.417 222.376 132.596C221.003 121.127 219.021 111.404 217.074 106.587C216.015 103.969 212.97 103.215 208.72 104.522C197.07 108.102 178.018 126.897 183.144 150.065C184.767 157.395 185.971 161.936 186.851 165.252C188.178 170.254 188.265 175.548 187.113 181.135C186.804 182.634 186.456 184.32 186.05 186.379L186.052 186.376Z" fill="#74B570"/>
<path d="M174.172 149.274L174.435 149.022C174.464 146.535 174.595 144.088 174.877 141.845C174.052 146 174.172 149.274 174.172 149.274Z" fill="#74B570"/>
<path d="M185.377 132.018C184.559 133.617 183.997 135.309 183.618 136.995C187.543 127.375 205.218 119.959 206.45 118.55L206.678 118.189C200.503 115.86 189.571 123.809 185.375 132.018H185.377Z" fill="#74B570"/>
<path d="M223.241 151.351C223.049 151.351 222.88 151.211 222.851 151.016L221.22 140.396C221.116 139.721 221.011 139.033 220.906 138.338C219.391 128.411 217.505 116.057 214.656 110.389C214.196 109.476 211.938 108.095 208.55 108.032C203.941 107.947 194.814 110.314 185.543 127.143C185.437 127.333 185.197 127.404 185.006 127.299C184.814 127.194 184.744 126.955 184.848 126.765C194.32 109.572 203.78 107.155 208.565 107.244C212.321 107.315 214.802 108.919 215.363 110.037C218.268 115.815 220.085 127.718 221.687 138.22C221.793 138.916 221.899 139.601 222.002 140.278L223.632 150.897C223.665 151.113 223.516 151.314 223.301 151.347C223.281 151.349 223.26 151.351 223.24 151.351H223.241Z" fill="#74B570"/>
<path d="M215.715 134.366C215.688 134.366 215.661 134.363 215.633 134.358C215.419 134.313 215.282 134.104 215.327 133.891C215.348 133.791 217.411 123.715 215.687 112.773C215.653 112.558 215.801 112.357 216.017 112.323C216.234 112.29 216.436 112.436 216.47 112.651C218.217 123.74 216.123 133.95 216.102 134.052C216.063 134.238 215.898 134.366 215.715 134.366Z" fill="#74B570"/>
<path d="M213.116 127.78C213.09 127.78 213.062 127.778 213.035 127.771C212.821 127.726 212.683 127.517 212.728 127.305C212.748 127.213 214.677 117.984 214.614 110.216C214.612 109.998 214.788 109.82 215.007 109.819C215.228 109.819 215.404 109.994 215.406 110.21C215.469 118.066 213.523 127.376 213.503 127.469C213.464 127.654 213.3 127.781 213.116 127.781V127.78Z" fill="#74B570"/>
<path d="M211.096 81.1922C210.905 81.1922 210.738 81.0555 210.706 80.8624C210.67 80.6483 210.816 80.4447 211.031 80.4092C211.119 80.3948 220.017 78.8447 226.947 71.8154C227.1 71.6604 227.351 71.6578 227.507 71.8102C227.663 71.9626 227.665 72.2121 227.512 72.3672C220.396 79.5869 211.253 81.1711 211.162 81.1869C211.139 81.1908 211.118 81.1922 211.096 81.1922Z" fill="#74B570"/>
<path d="M203.393 89.4116C202.812 89.4116 202.476 89.388 202.418 89.3827C202.2 89.3656 202.037 89.1751 202.054 88.9584C202.072 88.7417 202.263 88.5801 202.481 88.5972C202.548 88.6024 209.331 89.0779 218.694 85.1594C218.896 85.0753 219.129 85.1699 219.213 85.3695C219.298 85.5705 219.203 85.8017 219.002 85.8858C211.426 89.0556 205.617 89.4116 203.395 89.4116H203.393Z" fill="#74B570"/>
<path d="M197.908 97.8817C195.775 97.8817 194.676 97.4942 194.586 97.4601C194.382 97.3839 194.277 97.1579 194.353 96.953C194.429 96.7494 194.658 96.6456 194.862 96.7205C194.903 96.7349 199.226 98.2285 207.789 95.0049C207.994 94.9274 208.222 95.0298 208.3 95.2335C208.378 95.4371 208.275 95.6643 208.071 95.7418C203.525 97.4535 200.149 97.8804 197.909 97.8804L197.908 97.8817Z" fill="#74B570"/>
<path d="M76.4991 201.073C76.2113 200.204 56.1123 174.718 57.0616 153.76C57.7258 139.085 53.3318 123.177 53.3318 123.177C53.3318 123.177 67.6082 133.823 68.0466 157.099C68.3172 171.425 67.863 175.568 68.7793 179.507C69.6956 183.448 77.9501 201.946 77.9501 201.946L76.4991 201.072V201.073Z" fill="#9CD499"/>
<path d="M77.9499 202.341C77.8799 202.341 77.8086 202.323 77.7452 202.285L76.2942 201.411C76.2176 201.365 76.1596 201.295 76.1292 201.213C76.0671 201.088 75.671 200.522 75.2129 199.867C73.1598 196.938 68.3526 190.076 64.121 181.59C58.82 170.958 56.3114 161.588 56.6666 153.742C57.3202 139.301 52.9948 123.44 52.9513 123.281C52.9064 123.118 52.9698 122.946 53.1097 122.852C53.2497 122.757 53.4345 122.761 53.5705 122.862C53.7184 122.973 57.2383 125.63 60.8586 131.196C64.1923 136.322 68.2153 144.976 68.4437 157.092C68.5348 161.938 68.544 165.588 68.5506 168.52C68.5638 174.241 68.5705 176.853 69.1672 179.418C70.065 183.278 78.2311 201.601 78.3143 201.785C78.3843 201.943 78.3433 202.127 78.2139 202.241C78.14 202.307 78.0463 202.34 77.9525 202.34L77.9499 202.341ZM76.1226 201.197C76.1226 201.197 76.1252 201.203 76.1265 201.207C76.1252 201.203 76.1239 201.199 76.1226 201.197ZM76.8012 200.795L77.0811 200.963C75.2538 196.834 69.187 183.004 68.3948 179.598C67.7783 176.946 67.7717 174.307 67.7585 168.524C67.7519 165.593 67.7426 161.947 67.6515 157.107C67.4271 145.195 63.482 136.692 60.2129 131.657C57.7611 127.882 55.3133 125.436 54.0234 124.278C55.0149 128.274 58.0107 141.525 57.4561 153.779C56.9095 165.852 63.1018 181.207 75.8612 199.417C76.4487 200.255 76.6929 200.607 76.8012 200.795Z" fill="#74B570"/>
<path d="M70.0169 197.122C70.7748 198.491 71.4389 200.854 72 203.536H73.3322C68.7244 181.025 59.0809 167.815 44.2882 157.8C25.969 145.398 24.7424 141.679 24.7424 141.679C24.7424 141.679 30.9941 169.671 41.7625 178.249C52.5308 186.827 67.3473 192.297 70.0183 197.122H70.0169Z" fill="#9CD499"/>
<path d="M62.1609 200.905C63.9644 200.979 65.6571 202.039 67.1609 203.535H70.2609C66.8532 197.724 62.4051 192.927 57.0328 192.891C43.4746 192.796 40.7759 196.284 31.4625 196.009C24.8174 195.814 19.564 194.408 19.564 194.408C19.564 194.408 24.1626 202.713 36.5034 204.774C45.2293 206.231 55.6333 200.641 62.1622 200.905H62.1609Z" fill="#9CD499"/>
<path d="M73.7396 206.314C73.5588 206.314 73.3951 206.189 73.3541 206.006C71.2113 196.582 67.657 188.333 63.0756 182.149C57.2451 174.281 51.4239 170.018 45.7954 165.897C40.4575 161.988 35.4165 158.296 31.1044 151.927C30.9816 151.747 31.0305 151.501 31.2114 151.38C31.3923 151.259 31.6392 151.307 31.7606 151.487C35.9962 157.742 40.9843 161.395 46.2642 165.263C51.9401 169.419 57.8102 173.717 63.712 181.683C68.4241 188.042 71.9282 196.167 74.1252 205.833C74.174 206.046 74.0394 206.256 73.8268 206.304C73.7977 206.311 73.7674 206.315 73.7396 206.315V206.314Z" fill="#74B570"/>
<path d="M72.4774 207.901C72.3375 207.901 72.2015 207.826 72.1289 207.696C67.8854 199.962 63.7264 195.751 59.0394 194.438C54.9055 193.281 50.8957 194.532 46.651 195.857C45.4468 196.233 44.2018 196.622 42.9541 196.951C32.018 199.84 26.3632 197.876 26.1282 197.792C25.9222 197.717 25.8166 197.491 25.8905 197.288C25.9645 197.083 26.1929 196.978 26.3975 197.051C26.453 197.071 32.0827 199.007 42.7495 196.19C43.98 195.864 45.2171 195.479 46.412 195.104C50.7716 193.744 54.8897 192.457 59.2519 193.679C64.1582 195.053 68.4703 199.387 72.822 207.319C72.9263 207.509 72.8563 207.75 72.6636 207.853C72.6028 207.886 72.5381 207.902 72.4748 207.902L72.4774 207.901Z" fill="#74B570"/>
<path d="M52.5305 170.882C52.4631 170.882 52.3945 170.865 52.3311 170.828C52.2611 170.788 45.2714 166.792 36.2221 166.246C36.0042 166.233 35.8379 166.047 35.8511 165.829C35.8643 165.612 36.0531 165.445 36.2709 165.459C45.5157 166.016 52.6599 170.106 52.7311 170.147C52.92 170.256 52.9833 170.497 52.8737 170.685C52.7998 170.811 52.6678 170.881 52.5318 170.881L52.5305 170.882Z" fill="#74B570"/>
<path d="M64.7497 184.166C64.6322 184.166 64.516 184.115 64.4381 184.015C58.8123 176.869 53.0769 175.602 40.641 173.419C40.4258 173.381 40.2818 173.177 40.3201 172.962C40.3584 172.746 40.5644 172.604 40.7796 172.643C53.4228 174.861 59.2572 176.153 65.0626 183.529C65.1973 183.699 65.1669 183.948 64.9953 184.082C64.9227 184.138 64.8368 184.166 64.751 184.166H64.7497Z" fill="#74B570"/>
<path d="M168.82 207.76C184.195 177.496 200.415 165.398 222.087 160.801C243.758 156.205 246.306 153.224 246.306 153.224C246.306 153.224 229.887 176.791 216.659 180.684C203.431 184.578 187.636 184.072 183.331 187.535C179.025 190.998 171.122 206.323 171.122 206.323L168.456 208.396L168.819 207.758L168.82 207.76Z" fill="#9CD499"/>
<path d="M175.977 218.423C175.845 217.859 182.437 187.215 195.983 186.642C209.53 186.07 212.351 189.46 221.649 188.858C228.282 188.428 233.483 186.839 233.483 186.839C233.483 186.839 229.182 195.3 216.922 197.795C208.253 199.559 197.657 194.338 191.142 194.832C184.626 195.326 180.037 208.689 180.037 208.689L178.266 215.694L175.975 218.423H175.977Z" fill="#9CD499"/>
<path d="M169.661 206.313C169.607 206.313 169.551 206.302 169.498 206.278C169.299 206.189 169.21 205.955 169.3 205.756C169.323 205.707 171.629 200.667 175.928 194.472C179.9 188.749 186.438 180.83 195.033 175.612C203.522 170.456 210.589 168.684 217.424 166.97C223.783 165.375 229.787 163.869 236.085 159.669C236.267 159.548 236.513 159.595 236.634 159.777C236.756 159.958 236.707 160.202 236.526 160.323C230.115 164.599 224.045 166.121 217.618 167.733C210.841 169.433 203.834 171.192 195.446 176.285C186.976 181.429 180.518 189.251 176.591 194.907C172.328 201.047 170.045 206.032 170.022 206.082C169.956 206.228 169.812 206.315 169.661 206.315V206.313Z" fill="#74B570"/>
<path d="M177.771 209.607C177.723 209.607 177.674 209.598 177.626 209.579C177.423 209.499 177.323 209.27 177.403 209.068C182.052 197.356 186.748 190.706 192.183 188.141C197.048 185.844 201.723 187.124 206.672 188.48C207.88 188.811 209.13 189.152 210.371 189.435C221.162 191.882 226.689 189.742 226.743 189.72C226.946 189.638 227.177 189.735 227.259 189.938C227.341 190.14 227.243 190.37 227.04 190.451C226.807 190.545 221.227 192.706 210.195 190.204C208.937 189.919 207.679 189.574 206.462 189.241C201.658 187.927 197.122 186.684 192.522 188.854C187.279 191.328 182.709 197.843 178.138 209.359C178.076 209.514 177.927 209.608 177.77 209.608L177.771 209.607Z" fill="#74B570"/>
<path d="M226.472 171.677C226.429 171.677 226.387 171.671 226.345 171.656C217.759 168.758 209.77 169.83 209.69 169.842C209.474 169.871 209.273 169.722 209.243 169.507C209.213 169.292 209.363 169.092 209.58 169.062C209.661 169.05 217.829 167.95 226.6 170.91C226.807 170.98 226.918 171.204 226.848 171.409C226.792 171.573 226.638 171.677 226.473 171.677H226.472Z" fill="#74B570"/>
<path d="M193.279 177.55C193.141 177.55 193.008 177.479 192.934 177.352C192.826 177.163 192.892 176.922 193.082 176.815C201.257 172.169 207.15 173.167 219.698 175.866C219.912 175.912 220.048 176.122 220.002 176.335C219.955 176.548 219.746 176.683 219.53 176.637C207.187 173.982 201.397 172.998 193.474 177.5C193.412 177.536 193.345 177.551 193.279 177.553V177.55Z" fill="#74B570"/>
<path d="M88.1497 55.9907H160.337C160.337 51.1 156.353 47.1355 151.437 47.1355H97.0511C92.1357 47.1355 88.151 51.1 88.151 55.9907H88.1497Z" fill="#93B1C2"/>
<path d="M182.385 51.7202H64.7131V209.213H182.385V51.7202Z" fill="#BDCCD4"/>
<path d="M177.368 58.4365H69.7312V202.498H177.368V58.4365Z" fill="white"/>
<path opacity="0.7" d="M79.6779 88.0302H169.107C169.81 88.0302 170.379 88.5976 170.379 89.2952V89.3819C170.379 90.0807 169.808 90.6469 169.107 90.6469H79.6779C78.9755 90.6469 78.4065 90.0794 78.4065 89.3819V89.2952C78.4065 88.5963 78.9769 88.0302 79.6779 88.0302Z" fill="#9EC8FF"/>
<path opacity="0.7" d="M79.6779 93.1085H169.107C169.81 93.1085 170.379 93.676 170.379 94.3736V94.4603C170.379 95.1591 169.808 95.7253 169.107 95.7253H79.6779C78.9755 95.7253 78.4065 95.1578 78.4065 94.4603V94.3736C78.4065 93.6747 78.9769 93.1085 79.6779 93.1085Z" fill="#9EC8FF"/>
<path opacity="0.7" d="M150.142 107.573H79.6872C78.9821 107.573 78.4065 106.999 78.4065 106.299C78.4065 105.598 78.9835 105.024 79.6872 105.024H150.142C150.848 105.024 151.423 105.598 151.423 106.299C151.423 106.999 150.846 107.573 150.142 107.573Z" fill="#9EC8FF"/>
<path opacity="0.7" d="M150.142 112.14H79.6872C78.9821 112.14 78.4065 111.566 78.4065 110.866C78.4065 110.166 78.9835 109.592 79.6872 109.592H150.142C150.848 109.592 151.423 110.166 151.423 110.866C151.423 111.566 150.846 112.14 150.142 112.14Z" fill="#9EC8FF"/>
<path opacity="0.7" d="M150.142 125.348H79.6872C78.9821 125.348 78.4065 124.774 78.4065 124.073C78.4065 123.373 78.9835 122.799 79.6872 122.799H150.142C150.848 122.799 151.423 123.373 151.423 124.073C151.423 124.774 150.846 125.348 150.142 125.348Z" fill="#9EC8FF"/>
<path opacity="0.7" d="M150.142 129.914H79.6872C78.9821 129.914 78.4065 129.34 78.4065 128.64C78.4065 127.94 78.9835 127.365 79.6872 127.365H150.142C150.848 127.365 151.423 127.94 151.423 128.64C151.423 129.34 150.846 129.914 150.142 129.914Z" fill="#9EC8FF"/>
<path opacity="0.7" d="M150.142 146.269H79.6872C78.9821 146.269 78.4065 145.694 78.4065 144.994C78.4065 144.294 78.9835 143.72 79.6872 143.72H150.142C150.848 143.72 151.423 144.294 151.423 144.994C151.423 145.694 150.846 146.269 150.142 146.269Z" fill="#9EC8FF"/>
<path opacity="0.7" d="M150.142 150.835H79.6872C78.9821 150.835 78.4065 150.261 78.4065 149.56C78.4065 148.86 78.9835 148.286 79.6872 148.286H150.142C150.848 148.286 151.423 148.86 151.423 149.56C151.423 150.261 150.846 150.835 150.142 150.835Z" fill="#9EC8FF"/>
<path opacity="0.7" d="M150.142 162.605H79.6872C78.9821 162.605 78.4065 162.031 78.4065 161.331C78.4065 160.631 78.9835 160.057 79.6872 160.057H150.142C150.848 160.057 151.423 160.631 151.423 161.331C151.423 162.031 150.846 162.605 150.142 162.605Z" fill="#9EC8FF"/>
<path opacity="0.7" d="M150.142 167.171H79.6872C78.9821 167.171 78.4065 166.597 78.4065 165.897C78.4065 165.197 78.9835 164.623 79.6872 164.623H150.142C150.848 164.623 151.423 165.197 151.423 165.897C151.423 166.597 150.846 167.171 150.142 167.171Z" fill="#9EC8FF"/>
<path opacity="0.7" d="M171.976 190.08H101.521C100.816 190.08 100.24 189.506 100.24 188.806C100.24 188.105 100.817 187.531 101.521 187.531H171.976C172.681 187.531 173.257 188.105 173.257 188.806C173.257 189.506 172.68 190.08 171.976 190.08Z" fill="#9EC8FF"/>
<path opacity="0.7" d="M171.976 196.444H101.521C100.816 196.444 100.24 195.87 100.24 195.17C100.24 194.47 100.817 193.896 101.521 193.896H171.976C172.681 193.896 173.257 194.47 173.257 195.17C173.257 195.87 172.68 196.444 171.976 196.444Z" fill="#9EC8FF"/>
<g opacity="0.8">
<path d="M162.189 113.83H158.096C156.316 113.83 154.869 112.39 154.869 110.619V106.547C154.869 104.776 156.316 103.337 158.096 103.337H162.189C163.968 103.337 165.415 104.776 165.415 106.547V110.619C165.415 112.39 163.968 113.83 162.189 113.83ZM158.096 105.176C157.335 105.176 156.717 105.791 156.717 106.547V110.619C156.717 111.376 157.335 111.991 158.096 111.991H162.189C162.949 111.991 163.567 111.376 163.567 110.619V106.547C163.567 105.791 162.949 105.176 162.189 105.176H158.096Z" fill="#9EC8FF"/>
</g>
<g opacity="0.8">
<path d="M162.189 131.139H158.096C156.316 131.139 154.869 129.699 154.869 127.928V123.856C154.869 122.085 156.316 120.645 158.096 120.645H162.189C163.968 120.645 165.415 122.085 165.415 123.856V127.928C165.415 129.699 163.968 131.139 162.189 131.139ZM158.096 122.484C157.335 122.484 156.717 123.099 156.717 123.856V127.928C156.717 128.685 157.335 129.299 158.096 129.299H162.189C162.949 129.299 163.567 128.685 163.567 127.928V123.856C163.567 123.099 162.949 122.484 162.189 122.484H158.096Z" fill="#9EC8FF"/>
</g>
<path d="M160.399 111.408C160.386 111.408 160.374 111.408 160.36 111.408C160.128 111.396 159.912 111.284 159.77 111.1L156.829 107.282C156.562 106.936 156.628 106.441 156.975 106.177C157.322 105.911 157.819 105.977 158.086 106.323L160.458 109.402L166.983 102.446C167.281 102.128 167.783 102.111 168.103 102.408C168.422 102.705 168.439 103.204 168.141 103.522L160.977 111.158C160.826 111.318 160.617 111.409 160.397 111.409L160.399 111.408Z" fill="#F37168"/>
<path d="M160.399 128.716C160.386 128.716 160.374 128.716 160.36 128.716C160.128 128.704 159.912 128.593 159.77 128.409L156.829 124.59C156.562 124.244 156.628 123.749 156.975 123.485C157.322 123.221 157.819 123.285 158.086 123.631L160.458 126.71L166.983 119.754C167.281 119.437 167.783 119.419 168.103 119.716C168.422 120.013 168.439 120.512 168.141 120.83L160.977 128.466C160.826 128.627 160.617 128.717 160.397 128.717L160.399 128.716Z" fill="#F37168"/>
<path d="M162.188 151.53H158.096C156.39 151.53 155.001 150.15 155.001 148.451V144.379C155.001 142.681 156.388 141.3 158.096 141.3H162.188C163.894 141.3 165.283 142.68 165.283 144.379V148.451C165.283 150.148 163.896 151.53 162.188 151.53ZM158.096 142.876C157.262 142.876 156.585 143.55 156.585 144.379V148.451C156.585 149.28 157.262 149.954 158.096 149.954H162.188C163.022 149.954 163.699 149.28 163.699 148.451V144.379C163.699 143.55 163.022 142.876 162.188 142.876H158.096Z" fill="#9EC8FF"/>
<g opacity="0.8">
<path d="M162.189 168.97H158.096C156.316 168.97 154.869 167.53 154.869 165.759V161.687C154.869 159.916 156.316 158.477 158.096 158.477H162.189C163.968 158.477 165.415 159.916 165.415 161.687V165.759C165.415 167.53 163.968 168.97 162.189 168.97ZM158.096 160.316C157.335 160.316 156.717 160.93 156.717 161.687V165.759C156.717 166.516 157.335 167.131 158.096 167.131H162.189C162.949 167.131 163.567 166.516 163.567 165.759V161.687C163.567 160.93 162.949 160.316 162.189 160.316H158.096Z" fill="#9EC8FF"/>
</g>
<path d="M160.399 149.239C160.386 149.239 160.374 149.239 160.36 149.239C160.128 149.227 159.912 149.116 159.77 148.932L156.829 145.113C156.562 144.768 156.628 144.272 156.975 144.008C157.322 143.744 157.819 143.809 158.086 144.154L160.458 147.233L166.983 140.278C167.281 139.96 167.783 139.943 168.103 140.239C168.422 140.536 168.439 141.035 168.141 141.353L160.977 148.99C160.826 149.15 160.617 149.24 160.397 149.24L160.399 149.239Z" fill="#F37168"/>
<path d="M160.399 166.548C160.386 166.548 160.374 166.548 160.36 166.548C160.128 166.536 159.912 166.424 159.77 166.24L156.829 162.422C156.562 162.076 156.628 161.581 156.975 161.317C157.322 161.051 157.819 161.117 158.086 161.463L160.458 164.542L166.983 157.586C167.281 157.268 167.783 157.251 168.103 157.548C168.422 157.845 168.439 158.344 168.141 158.662L160.977 166.298C160.826 166.458 160.617 166.549 160.397 166.549L160.399 166.548Z" fill="#F37168"/>
<path d="M138.847 62.316H108.253C101.307 62.316 95.6755 56.7133 95.6755 49.8023C95.6755 48.3284 96.8757 47.1343 98.3571 47.1343H148.741C150.223 47.1343 151.423 48.3284 151.423 49.8023C151.423 56.7133 145.792 62.316 138.845 62.316H138.847Z" fill="#93B1C2"/>
<path d="M100.253 48.0828H148.389C149.391 48.0828 150.204 48.892 150.204 49.889V49.9691C150.204 54.6431 146.391 58.4368 141.693 58.4368H106.948C102.251 58.4368 98.4375 54.6431 98.4375 49.9691V49.889C98.4375 48.892 99.2508 48.0841 100.252 48.0841L100.253 48.0828Z" fill="#D6E7F0"/>
<path opacity="0.7" d="M172.337 64.8435H74.7639V82.2387H172.337V64.8435Z" fill="#9EC8FF"/>
<path d="M92.8383 69.47V77.9876H90.8948V69.47H92.8383Z" fill="white"/>
<path d="M94.5144 77.9878V69.4702H96.7748L98.5532 72.5914C99.0615 73.4886 99.5698 74.55 99.9501 75.5103H99.9884C99.8616 74.3858 99.8233 73.2351 99.8233 71.9595V69.4702H101.602V77.9878H99.5698L97.7412 74.7024C97.2329 73.7921 96.6744 72.6926 96.2546 71.6942L96.2163 71.7073C96.2664 72.8318 96.2928 74.0325 96.2928 75.4236V77.9891H94.5144V77.9878Z" fill="white"/>
<path d="M103.341 76.004C103.862 76.2693 104.662 76.5347 105.488 76.5347C106.377 76.5347 106.847 76.1682 106.847 75.6125C106.847 75.0569 106.44 74.7784 105.412 74.4119C103.988 73.9192 103.061 73.135 103.061 71.8976C103.061 70.4447 104.281 69.332 106.3 69.332C107.265 69.332 107.977 69.5343 108.485 69.7616L108.053 71.3156C107.71 71.1514 107.1 70.911 106.262 70.911C105.423 70.911 105.017 71.2907 105.017 71.732C105.017 72.2759 105.5 72.515 106.605 72.9327C108.117 73.4884 108.828 74.2726 108.828 75.4733C108.828 76.9012 107.723 78.115 105.373 78.115C104.395 78.115 103.43 77.8628 102.947 77.5974L103.34 76.0053L103.341 76.004Z" fill="white"/>
<path d="M112.067 69.4702V74.374C112.067 75.84 112.626 76.5862 113.617 76.5862C114.609 76.5862 115.192 75.8781 115.192 74.374V69.4702H117.122V74.2479C117.122 76.8765 115.789 78.1284 113.554 78.1284C111.318 78.1284 110.124 76.9409 110.124 74.2229V69.4715H112.067V69.4702Z" fill="white"/>
<path d="M118.799 69.5843C119.421 69.4832 120.349 69.407 121.378 69.407C122.648 69.407 123.537 69.5962 124.147 70.0769C124.655 70.4815 124.933 71.0753 124.933 71.8595C124.933 72.9459 124.158 73.6921 123.422 73.9574V73.9955C124.018 74.2359 124.349 74.8047 124.565 75.5876C124.832 76.5479 125.098 77.6606 125.263 77.989H123.282C123.142 77.7486 122.938 77.0537 122.685 76.0054C122.457 74.944 122.088 74.6536 121.3 74.6405H120.715V77.989H118.797V69.5843H118.799ZM120.718 73.2494H121.479C122.445 73.2494 123.016 72.7686 123.016 72.0237C123.016 71.2408 122.483 70.848 121.593 70.8362C121.123 70.8362 120.856 70.8743 120.716 70.8993V73.2494H120.718Z" fill="white"/>
<path d="M128.439 75.8019L127.829 77.9878H125.822L128.439 69.4702H130.979L133.634 77.9878H131.551L130.89 75.8019H128.439ZM130.611 74.3609L130.077 72.5533C129.925 72.0476 129.772 71.4157 129.645 70.91H129.62C129.494 71.4157 129.367 72.0594 129.227 72.5533L128.719 74.3609H130.612H130.611Z" fill="white"/>
<path d="M134.778 77.9878V69.4702H137.038L138.816 72.5914C139.325 73.4886 139.833 74.55 140.213 75.5103H140.252C140.125 74.3858 140.087 73.2351 140.087 71.9595V69.4702H141.865V77.9878H139.833L138.004 74.7024C137.496 73.7921 136.938 72.6926 136.518 71.6942L136.479 71.7073C136.53 72.8318 136.556 74.0325 136.556 75.4236V77.9891H134.778V77.9878Z" fill="white"/>
<path d="M149.829 77.7485C149.474 77.9258 148.674 78.115 147.632 78.115C144.672 78.115 143.148 76.2825 143.148 73.8562C143.148 70.9491 145.232 69.332 147.822 69.332C148.826 69.332 149.588 69.5343 149.931 69.7117L149.537 71.2407C149.144 71.0765 148.597 70.9255 147.912 70.9255C146.375 70.9255 145.182 71.8476 145.182 73.7432C145.182 75.4496 146.198 76.5229 147.925 76.5229C148.51 76.5229 149.157 76.3968 149.539 76.2444L149.83 77.7485H149.829Z" fill="white"/>
<path d="M156.192 74.3871H153.041V76.4087H156.56V77.989H151.098V69.4714H156.382V71.0517H153.041V72.8212H156.192V74.3884V74.3871Z" fill="white"/>
<path d="M147.061 49.5066H123.404C122.702 49.5066 122.133 50.073 122.133 50.7716V51.0882C122.133 51.7869 122.702 52.3532 123.404 52.3532H147.061C147.764 52.3532 148.333 51.7869 148.333 51.0882V50.7716C148.333 50.073 147.764 49.5066 147.061 49.5066Z" fill="#F2F2F2"/>
<path opacity="0.5" d="M221.672 218.491C185.547 211.096 155.549 214.438 145.165 213.808C134.78 213.178 74.5904 212.539 61.8745 216.865C49.1587 221.19 70.7984 227.095 95.9014 224.354C121.004 221.612 136.444 222.169 176.409 225.054C216.374 227.938 226.61 219.502 221.672 218.491Z" fill="#BDCCD4"/>
<path d="M97.6602 111.082C103.083 114.978 114.732 116.677 118.447 116.876C122.162 117.076 116.385 127.267 116.385 127.267C116.385 127.267 106.397 128.466 101.677 127.267C96.9565 126.068 97.6602 111.082 97.6602 111.082Z" fill="#D54A41"/>
<path d="M88.3553 212.128C88.4226 214.792 89.9489 216.377 92.439 218.223C95.0505 220.157 95.1839 220.369 91.5689 220.845C87.9539 221.321 86.9492 219.689 84.5396 218.989C82.1301 218.289 83.6695 216.591 83.5349 214.993C83.4015 213.394 83.1731 210.797 83.1731 210.797L88.3553 212.129V212.128Z" fill="#303C60"/>
<path d="M109.443 210.796C109.443 210.796 111.05 212.647 113.193 214.486C115.335 216.325 120.758 216.951 118.146 217.637C115.536 218.323 112.61 217.952 109.922 218.337C107.234 218.722 104.89 218.349 104.69 217.637C104.489 216.925 104.69 211.862 104.69 211.862L109.443 210.797V210.796Z" fill="#303C60"/>
<path d="M116.842 94.2262C120.202 91.0512 126.38 95.0985 126.962 97.7888C128.461 104.71 129.124 111.867 127.3 114.68C125.477 117.491 109.24 119.26 109.438 118.262C109.636 117.263 109.681 111.051 112.37 108.013C115.06 104.974 113.837 102.04 114.33 99.2338C114.922 95.8591 116.302 94.7346 116.841 94.2262H116.842Z" fill="#58556E"/>
<path d="M109.901 114.458C108.756 122.523 107.651 137.709 104.338 141.407C101.024 145.104 99.1799 153.919 99.1799 153.919C99.1799 153.919 109.889 148.1 114.272 133.793C115.647 129.304 112.292 118.826 111.479 117.826C110.665 116.826 109.901 114.456 109.901 114.456V114.458Z" fill="#7EC1D6"/>
<path d="M133.111 136.609C132.449 137.409 130.676 141.283 129.777 141.283C126.714 141.283 126.488 142.479 124.827 143.354C122.694 144.478 123.145 146.202 123.296 146.301C123.446 146.401 127.987 145.61 129.512 144.621C130.778 143.8 131.677 143.354 132.293 142.454C132.911 141.554 136.404 138.957 136.404 138.957L133.111 136.609Z" fill="#F09959"/>
<path d="M130.011 112.683C133.11 114.546 133.679 116.277 136.725 121.54C139.771 126.802 140.307 128.7 141.511 130.598C142.716 132.497 143.118 134.694 140.573 137.093C138.143 139.384 137.009 140.318 135.675 139.961C134.777 139.719 134.067 137.115 132.818 137.587C131.569 138.059 133.778 134.395 134.916 133.362C135.536 132.8 135.786 132.843 135.585 132.586C135.385 132.33 131.569 129.499 128.388 125.402C125.208 121.306 130.01 112.682 130.01 112.682L130.011 112.683Z" fill="#9BD6E8"/>
<path d="M139.737 132.364C138.229 131.69 136.345 131.786 134.962 132.048C135.317 132.346 135.541 132.531 135.586 132.587C135.787 132.844 135.536 132.8 134.917 133.364C134.697 133.563 134.437 133.86 134.171 134.207C135.226 133.652 136.381 133.151 137.328 133.014C139.737 132.665 139.889 133.314 141.143 134.114C142.399 134.913 142.198 133.465 139.737 132.365V132.364Z" fill="#7EC1D6"/>
<path d="M133.127 115.472C132.297 114.344 131.414 113.527 130.012 112.685C130.012 112.685 125.211 121.307 128.39 125.404C129.4 126.705 130.474 127.877 131.474 128.88C131.539 126.12 131.831 119.95 133.127 115.472Z" fill="#7EC1D6"/>
<path d="M118.22 109.834C114.069 110.766 110.719 111.984 109.863 114.38C109.447 115.543 111.855 134.728 114.264 136.86C118.916 140.975 126.583 137.127 126.583 137.127C126.583 137.127 130.065 128.502 131.446 114.021C131.805 112.716 123.504 110.15 122.165 109.885C120.826 109.619 118.221 109.835 118.221 109.835L118.22 109.834Z" fill="#9BD6E8"/>
<path d="M119.616 211.61C119.616 211.61 113.928 219.442 117.343 219.165C120.757 218.888 122.986 215.391 122.986 215.391C122.986 215.391 124.171 219.357 127.584 219.171C130.999 218.987 129.072 216.909 127.584 214.484C126.178 212.193 126.104 209.791 126.104 209.791L119.615 211.61H119.616Z" fill="#F09959"/>
<path d="M120.105 113.58C118.696 113.58 117.544 112.433 117.544 111.032V101.539C117.544 100.138 118.696 98.9921 120.105 98.9921C121.514 98.9921 122.665 100.139 122.665 101.539V111.032C122.665 112.433 121.513 113.58 120.105 113.58Z" fill="#F09959"/>
<path d="M120.105 98.9921C118.696 98.9921 117.544 100.139 117.544 101.539V105.836C119.202 108.203 121.143 109.667 122.665 110.536V101.539C122.665 100.138 121.513 98.9921 120.105 98.9921Z" fill="#E38540"/>
<path d="M126.624 100.268C127.424 103.663 126.062 106.884 123.579 107.464C121.097 108.043 118.437 105.76 117.637 102.366C116.837 98.9698 118.199 95.7487 120.681 95.1694C123.164 94.5901 125.824 96.8732 126.624 100.268Z" fill="#F09959"/>
<path d="M114.84 135.718C114.84 135.718 106.857 141.712 109.417 161.344C111.977 180.976 114.689 180.376 114.84 189.817C114.99 199.258 119.057 212.296 121.468 214.844C123.877 217.392 129.796 203.735 129.796 191.612C129.796 184.528 129.8 181.125 131.456 170.035C133.113 158.945 132.764 142.76 126.136 135.716C119.508 128.673 114.84 135.716 114.84 135.716V135.718Z" fill="#F09959"/>
<path d="M121.307 179.622C121.3 174.976 119.754 165.102 120.107 151.452L109.925 164.954C112.325 180.938 114.701 180.995 114.841 189.817C114.955 196.971 117.318 206.189 119.505 211.344C120.925 211.851 121.88 212.447 122.133 213.195C122.471 214.196 122.696 214.751 122.829 214.911C122.877 214.881 122.926 214.847 122.974 214.81C123.091 213.974 122.482 209.707 121.814 203.5C120.686 193.005 121.313 184.266 121.307 179.621V179.622Z" fill="#E38540"/>
<path d="M111.254 128.705C112.581 136.466 111.784 137.516 109.923 143.961C108.062 150.404 108.037 167.489 108.037 167.489C108.037 167.489 113.084 169.587 122.849 168.688C132.613 167.79 133.969 166.74 133.969 166.74C133.969 166.74 132.859 150.106 131.456 145.16C130.052 140.214 127.859 136.833 127.751 133.652C127.643 130.473 111.254 128.707 111.254 128.707V128.705Z" fill="#9BD6E8"/>
<path d="M117.343 219.165C120.758 218.888 122.986 215.391 122.986 215.391C122.986 215.391 124.172 219.357 127.585 219.171C130.517 219.014 129.511 217.458 128.225 215.487C128.108 215.929 127.745 216.344 126.781 216.308C124.765 216.23 122.87 213.792 122.87 213.792C122.87 213.792 119.35 216.49 118.044 216.297C116.74 216.105 118.68 212.982 118.681 212.979C117.227 215.211 114.837 219.367 117.341 219.163L117.343 219.165Z" fill="#3E6BAB"/>
<path d="M137.295 173.426C136.894 177.922 137.312 181.319 136.5 185.016C135.688 188.712 133.98 189.912 133.98 189.912L132.475 172.627L137.295 173.426Z" fill="#F09959"/>
<path d="M126.049 154.442C122.803 147.598 122.485 145.35 124.342 143.752C126.2 142.153 126.501 139.955 129.564 140.754C132.627 141.553 133.631 143.301 135.137 143.951C136.643 144.6 136.342 148.648 134.435 149.746C132.527 150.845 126.049 154.442 126.049 154.442Z" fill="#7A4E34"/>
<path d="M123.58 214.111C123.58 214.111 123.447 216.187 124.024 217.121C124.601 218.056 125.029 218.481 122.85 218.523C120.672 218.565 120.075 218.013 119.903 216.695C119.733 215.378 119.754 214.982 120.064 214.182C120.373 213.381 123.58 214.11 123.58 214.11V214.111Z" fill="#63ACC2"/>
<path d="M134.885 214.44C134.885 214.44 137.345 216.637 138.801 217.138C140.257 217.637 138.215 218.737 135.643 218.188C133.071 217.638 133.277 218.387 131.972 217.788C130.666 217.189 131.863 214 131.863 214L134.884 214.442L134.885 214.44Z" fill="#63ACC2"/>
<path d="M135.187 180.02C135.187 180.02 135.187 196.706 135.387 203.199C135.588 209.694 135.723 214.089 135.592 214.812C135.536 215.115 132.772 214.712 131.566 214.812C130.361 214.911 127.809 199.902 126.75 191.81C125.691 183.717 125.243 177.822 125.243 177.822L135.185 180.02H135.187Z" fill="#3E6BAB"/>
<path d="M126.752 191.81C127.25 195.619 128.08 200.962 128.943 205.538C130.132 200.321 132.474 191.052 135.198 185.692C135.187 182.391 135.187 180.02 135.187 180.02L128.945 178.639C127.729 178.865 126.523 179.088 125.369 179.301C125.567 181.54 126.008 186.133 126.752 191.808V191.81Z" fill="#2E5B9A"/>
<path d="M120.927 176.423C120.426 184.616 119.647 203.507 119.911 207.696C120.199 212.242 119.622 213.991 119.622 213.991C119.622 213.991 120.727 214.39 122.534 214.59L123.68 214.716C123.68 214.716 128.258 202.7 129.162 194.407C130.066 186.114 132.476 179.619 132.476 179.619L120.927 176.422V176.423Z" fill="#3E6BAB"/>
<path d="M134.012 159.041C137.899 164.234 138.3 174.425 138.3 174.425C138.3 174.425 136.714 175.624 135.197 175.024C133.68 174.425 134.012 159.04 134.012 159.04V159.041Z" fill="#EDC055"/>
<path d="M129.864 156.288C134.484 157.339 136.392 162.635 136.492 166.831C136.593 171.027 135.79 182.318 135.79 182.717C135.79 183.116 126.753 183.916 123.439 183.216L120.125 182.517C120.125 182.517 119.22 165.831 120.125 161.736C121.029 157.64 126.953 155.741 126.953 155.741L129.866 156.288H129.864Z" fill="#F5CE5C"/>
<path d="M128.263 167.632C128.012 166.109 130.061 165.859 130.969 165.984C131.878 166.109 132.094 167.108 132.476 167.233C132.857 167.358 133.384 166.775 133.862 167.116C134.339 167.458 133.787 168.432 133.185 168.482C132.583 168.532 132.23 167.941 131.804 168.212C131.377 168.482 131.553 168.657 131.478 168.657C131.402 168.657 129.896 168.832 129.896 168.832C129.896 168.832 129.244 168.407 128.791 168.457C128.339 168.507 128.51 168.981 128.51 168.981C128.51 168.981 127.761 168.932 127.937 168.407C128.112 167.883 128.263 167.632 128.263 167.632Z" fill="#EDC055"/>
<path d="M131.678 168.657C132.136 168.151 132.607 168.632 132.808 168.806C133.008 168.981 132.453 169.327 132.005 169.331C131.556 169.336 131.679 168.657 131.679 168.657H131.678Z" fill="#EDC055"/>
<path d="M128.715 168.981C128.665 168.607 129.417 168.682 129.644 168.981C129.87 169.281 129.143 169.58 128.917 169.505C128.691 169.431 128.716 168.981 128.716 168.981H128.715Z" fill="#EDC055"/>
<path d="M127.458 169.331C127.408 169.181 125.475 168.381 125.701 167.657C125.927 166.933 127.207 168.494 127.207 168.494C127.207 168.494 126.329 166.583 126.781 166.433C127.233 166.283 127.408 167.632 127.458 168.032C127.508 168.431 127.458 169.331 127.458 169.331Z" fill="#EDC055"/>
<path d="M132.849 166.11C132.849 166.11 132.982 164.486 133.534 164.81C134.086 165.135 133.191 166.11 133.191 166.11C133.191 166.11 134.337 165.211 134.613 165.71C134.889 166.209 132.848 166.423 132.848 166.423V166.111L132.849 166.11Z" fill="#EDC055"/>
<path d="M124.045 176.423C124.452 171.327 125.546 164.234 122.433 159.138L121.6 159.041C120.904 159.802 120.352 160.699 120.124 161.737C119.219 165.832 120.124 182.518 120.124 182.518L123.438 183.217C123.588 183.249 123.751 183.278 123.923 183.304C123.848 181.827 123.806 179.419 124.045 176.424V176.423Z" fill="#EDC055"/>
<path d="M128.508 159.138C127.155 159.138 126.049 158.036 126.049 156.691V152.194C126.049 150.848 127.156 149.747 128.508 149.747C129.86 149.747 130.968 150.849 130.968 152.194V156.691C131.325 159.041 130.094 159.341 128.508 159.138Z" fill="#F09959"/>
<path d="M130.969 156.888V150.945C130.969 150.286 130.427 149.746 129.764 149.746H127.254C126.591 149.746 126.049 150.286 126.049 150.945V154.757C128 156.512 129.78 156.893 130.969 156.888Z" fill="#E38540"/>
<path d="M134.895 149.13C135.343 152.347 133.702 155.23 131.23 155.57C128.759 155.911 126.391 153.58 125.944 150.363C125.496 147.146 127.137 144.263 129.609 143.922C132.08 143.582 134.448 145.913 134.895 149.13Z" fill="#FCA96A"/>
<path d="M121.512 159.138C117.01 161.136 116.609 175.625 116.408 177.822C116.207 180.02 117.312 187.514 117.914 189.512C118.516 191.51 120.221 193.095 120.311 190.608C120.4 188.121 119.722 186.815 119.722 186.815C119.722 186.815 120.625 188.714 120.927 187.714C121.228 186.714 119.621 185.217 119.621 184.317C119.621 183.417 120.927 178.122 120.927 176.423C120.927 174.725 123.437 169.23 123.437 164.733C123.437 160.237 121.512 159.138 121.512 159.138Z" fill="#FCA96A"/>
<path d="M123.034 157.771C118.92 159.438 117.667 164.234 116.385 168.829L115.103 173.425C115.103 173.425 121.831 175.795 122.232 175.509C122.634 175.224 124.14 166.931 124.04 163.534C123.939 160.137 123.032 157.771 123.032 157.771H123.034Z" fill="#F5CE5C"/>
<path d="M126.858 150.446C127.16 151.24 126.969 152.049 126.429 152.252C125.889 152.456 125.206 151.978 124.904 151.184C124.601 150.391 124.793 149.582 125.333 149.378C125.873 149.174 126.556 149.653 126.858 150.446Z" fill="#FCA96A"/>
<path d="M125.497 148.698C125.497 148.698 126.747 152.554 127 151.15C127.254 149.746 126.853 149.097 127.806 148.698C128.76 148.298 127.505 145.6 128.861 145.85C130.217 146.099 131.32 147.728 133.38 147.338C135.439 146.948 136.293 146.498 135.439 145.349C134.586 144.2 127.555 143.101 127.555 143.101L124.567 146.508L125.497 148.698Z" fill="#7A4E34"/>
<path d="M131.973 218.186C133.279 218.785 133.073 218.037 135.643 218.586C138.215 219.135 140.569 217.787 139.114 217.286C139.08 217.275 139.044 217.261 139.009 217.248C138.531 217.487 138.065 217.826 137.864 217.987C137.529 218.253 136.659 218.054 135.461 217.854C134.264 217.654 134.471 217.998 134.182 217.687C133.893 217.377 132.715 216.559 131.372 216.557C131.323 217.269 131.441 217.943 131.972 218.188L131.973 218.186Z" fill="#2E5B9A"/>
<path d="M119.799 214.927C120.87 217.099 120.359 217.486 121.263 217.636C122.168 217.787 122.473 217.086 123.439 217.42C124.406 217.755 124.272 217.754 124.491 218.02C124.71 218.285 124.61 218.611 124.209 218.714C123.807 218.818 121.732 218.843 120.928 218.714C120.125 218.586 119.589 217.091 119.622 216.556C119.655 216.021 119.799 214.926 119.799 214.926V214.927Z" fill="#2E5B9A"/>
<path d="M93.6003 104.693C92.0146 102.477 90.421 96.4438 91.8377 95.8277C93.2544 95.2116 92.8992 94.2422 94.3159 92.4372C95.7326 90.6323 101.442 89.9269 103.122 92.9653C104.804 96.0037 105.525 96.3111 105.585 97.9414C105.644 99.5703 101.617 103.622 101.617 103.622L93.6003 104.693Z" fill="#58556E"/>
<path d="M131.006 140.083C130.544 140.772 130.101 141.283 129.775 141.283C126.712 141.283 126.486 142.479 124.825 143.354C122.692 144.478 123.143 146.202 123.294 146.302C123.444 146.401 127.985 145.611 129.51 144.621C130.776 143.8 131.675 143.354 132.292 142.454C132.409 142.282 132.634 142.048 132.916 141.783C132.23 141.276 131.591 140.705 131.006 140.083Z" fill="#F09959"/>
<path d="M94.6472 96.8942C94.6472 96.8942 93.6424 109.195 91.4335 110.538C89.2247 111.881 85.0063 116.877 85.6097 127.667C86.2118 138.458 87.0158 143.112 87.8186 147.28C88.6213 151.447 103.685 148.908 105.291 147.28C106.898 145.652 108.706 130.765 105.291 123.222C101.877 115.678 98.0615 111.415 97.6601 109.55C97.2587 107.684 99.869 100.191 99.869 100.191L94.6472 96.8942Z" fill="#F09959"/>
<path d="M97.62 109.146C97.5698 106.795 99.8698 100.191 99.8698 100.191L94.648 96.8942C94.648 96.8942 94.4288 99.5753 93.9707 102.572C94.648 106.736 96.004 108.335 97.62 109.146Z" fill="#E38540"/>
<path d="M104.181 100.35C104.684 103.964 103.434 106.792 100.818 107.152C98.2042 107.512 95.215 105.269 94.712 101.655C94.209 98.041 95.9201 94.8199 98.5356 94.46C101.15 94.1001 103.678 96.7365 104.181 100.35Z" fill="#F09959"/>
<path d="M132.85 114.179C134.388 115.13 135.56 117.509 134.886 119.441C134.213 121.374 133.281 118.895 132.256 117.476C131.232 116.059 131.7 113.468 132.85 114.179Z" fill="#F09959"/>
<path d="M105.501 140.034C104.446 152.652 108.012 181.125 108.037 187.569C108.062 194.013 110.648 211.634 110.648 211.634C110.648 211.634 106.431 212.84 104.774 212.979C103.117 213.119 98.3327 197.009 97.6237 188.468C96.916 179.925 92.4375 164.767 92.4375 164.767L93.9717 138.76L105.502 140.034H105.501Z" fill="#3E6BAB"/>
<path d="M105.501 140.034L93.9707 138.76L92.4365 164.767C92.4365 164.767 96.915 179.927 97.6227 188.468C97.6319 188.579 97.6425 188.692 97.653 188.807C97.7389 175.641 101.586 169.926 105.651 155.986C105.302 149.864 105.159 144.118 105.5 140.034H105.501Z" fill="#2E5B9A"/>
<path d="M105.049 144.26C99.6266 162.543 94.6556 179.777 91.343 191.167C88.029 202.556 89.0246 214.265 89.0246 214.265L83.4516 214.708C83.4516 214.708 77.1841 195.934 81.4011 185.773C85.6182 175.612 83.6126 169.491 84.4141 159.997C85.3185 149.287 86.8368 141.462 86.8368 141.462L105.049 144.261V144.26Z" fill="#3E6BAB"/>
<path d="M105.292 123.222C103.458 119.171 101.509 116.067 100.034 113.771C99.3833 113.68 98.5595 113.598 97.6234 113.58C96.0694 113.55 93.3628 111.565 91.7494 110.262C91.6464 110.379 91.5407 110.472 91.4325 110.538C89.2236 111.882 85.0052 116.877 85.6086 127.667C86.2107 138.458 83.9345 142.142 84.7385 146.309C85.5413 150.476 103.685 148.906 105.292 147.279C106.899 145.651 108.706 130.764 105.292 123.221V123.222Z" fill="#F37168"/>
<path d="M91.1674 107.951L89.5369 112.231L99.8709 116.411L101.064 115.392C101.064 115.392 99.4695 113.081 99.8709 111.682C100.272 110.283 100.741 109.884 99.8709 109.55C99.0008 109.218 95.906 108.684 93.9718 107.951C92.0375 107.218 91.5041 107.07 91.1674 107.951Z" fill="#F37168"/>
<path d="M107.138 131.957C106.933 128.745 106.377 125.613 105.293 123.221C104.894 122.34 104.489 121.505 104.086 120.712L102.783 120.148C102.783 120.148 95.5528 114.405 90.8327 115.477C86.1126 116.549 85.912 134.041 88.6239 135.959C91.3358 137.877 99.4688 133.009 101.98 132.586C103.611 132.311 105.802 132.083 107.138 131.955V131.957Z" fill="#D54A41"/>
<path d="M125.465 124.768C122.516 124.763 119.496 124.519 116.993 123.754C109.462 121.457 95.3635 115.712 92.5909 116.088C90.4177 116.382 87.8708 118.758 88.1718 126.152C88.4729 133.545 92.2885 132.046 97.0548 130.833C101.821 129.621 108.252 130.363 116.991 130.833C119.953 130.992 123.197 130.518 126.191 129.821C126.029 128.127 125.781 126.448 125.464 124.768H125.465Z" fill="#F37168"/>
<path d="M136.311 125.311C135.8 125.035 131.455 125.261 127.301 125.156C127.56 126.6 128.232 128.988 128.388 130.446C132.841 129.155 136.395 129.027 136.395 129.027C136.395 129.027 137.236 125.81 136.311 125.311Z" fill="#F09959"/>
<path d="M123.206 124.443C125.869 124.485 130.284 124.155 130.891 124.556C131.498 124.956 132.573 129.664 130.445 130.265C122.664 132.462 113.928 130.882 103.484 130.174C93.0407 129.466 115.312 123.221 115.312 123.221C115.312 123.221 120.988 124.407 123.204 124.443H123.206Z" fill="#F37168"/>
<path d="M93.5987 104.694C95.3719 103.821 94.4912 102.127 94.6457 101.002C94.8002 99.8778 94.3077 98.978 94.7302 99.0541C95.154 99.1303 95.059 103.368 95.5937 103.341C96.1284 103.313 95.929 100.143 96.4928 100.055C97.0566 99.9671 97.2784 99.1776 96.8361 97.7891C96.3938 96.4006 96.7476 95.1671 97.9425 96.2679C99.1374 97.3687 101.793 99.9225 103.341 99.5704C104.89 99.2183 104.801 97.6328 104.669 97.4568C104.536 97.2807 100.554 92.8328 100.554 92.8328L92.6771 97.3241L92.4553 101.419L93.5987 104.692V104.694Z" fill="#58556E"/>
<path d="M95.0139 99.8853C95.1196 100.951 95.1565 102.565 95.249 102.796C94.5466 103.081 93.6488 102.509 93.2421 101.518C92.8354 100.528 92.8737 99.2272 93.5841 98.9645C94.0264 98.8016 94.8898 98.6453 95.0126 99.8853H95.0139Z" fill="#F09959"/>
<path d="M126.193 97.4947C125.076 101.091 118.85 101.141 118.549 102.141C118.247 103.141 118.456 106.263 117.544 108.735C116.087 112.684 115.153 114.747 113.125 115.347C111.098 115.946 110.245 112.605 110.245 112.605C110.245 112.605 113.879 107.837 114.079 107.737C114.28 107.637 116.192 95.4481 116.192 95.4481C116.192 95.4481 121.058 94.56 121.309 94.43C121.56 94.2999 125.075 95.8487 125.075 95.8487L126.192 97.4973L126.193 97.4947Z" fill="#58556E"/>
<path d="M131.691 125.5C132.466 125.5 136.432 123.291 137.184 123.221C137.938 123.151 140.9 123.954 140.9 123.954C140.9 123.954 135.185 128.361 135.08 128.305C134.975 128.247 131.689 125.5 131.689 125.5H131.691Z" fill="#F09959"/>
<path d="M148.33 129.298L144.013 128.88C144.013 128.88 141.701 130.918 139.594 131.391C137.487 131.863 135.778 129.618 135.778 129.618L139.05 125.804L144.817 125.156L149.186 125.601L148.332 129.298H148.33Z" fill="#E38540"/>
<path d="M133.969 128.705C133.969 128.705 136.634 130.84 138.893 131.146C141.152 131.452 142.407 130.358 143.211 129.618C144.014 128.88 141.504 128.121 140.601 127.239C139.697 126.359 140.35 124.901 140.35 124.901H136.404L133.971 128.705H133.969Z" fill="#F09959"/>
<path d="M148.331 125.156L143.964 124.679C143.964 124.679 142.156 123.091 141.252 123.222C140.349 123.354 138.034 125.156 138.034 125.156C138.034 125.156 136.054 126.999 136.744 127.199C137.435 127.398 139.443 126.818 139.694 126.358C139.945 125.899 139.192 126.517 141.451 126.358C143.71 126.199 143.961 125.802 143.961 125.802L148.329 126.149V125.155L148.331 125.156Z" fill="#E38540"/>
<path d="M135.259 129.822C135.83 128.948 136.626 128.428 138.036 129.203C139.446 129.978 139.857 131.068 139.597 131.39C139.336 131.712 136.681 130.856 135.686 130.557C134.913 130.326 135.259 129.823 135.259 129.823V129.822Z" fill="#E38540"/>
<path d="M189.316 103.435C190.074 100.592 192.151 93.7352 188.847 92.2324C185.543 90.7296 183.891 88.5214 180.586 89.6498C177.281 90.7769 177.943 93.3608 176.763 94.769C175.582 96.1772 177.565 100.782 179.453 102.425C181.341 104.068 189.316 103.435 189.316 103.435Z" fill="#58556E"/>
<path d="M148.291 124.799L145.509 124.679L144.314 130.047L148.99 130.923L148.291 124.799Z" fill="#F2E5DE"/>
<path d="M192.492 114.354C196.859 120.461 194.199 125.13 188.751 129.089C183.304 133.048 170.479 134.285 165.057 134.524C159.635 134.763 146.078 130.622 146.078 130.622L146.915 124.681C146.915 124.681 159.752 125.9 164.723 125.052C169.694 124.204 187.317 114.355 187.317 114.355H192.492V114.354Z" fill="#58556E"/>
<path d="M182.307 117.075C180.751 117.902 178.954 118.843 177.1 119.782C175.3 124.443 174.795 129.22 166.061 132.392C164.034 133.127 162.111 133.64 160.336 133.99C162.161 134.359 163.82 134.577 165.058 134.524C168.988 134.35 177.824 134.852 183.904 132.972C183.721 128.322 182.462 120.968 182.307 117.075Z" fill="#3A384D"/>
<path d="M187.417 97.6224L190.731 108.331L183.902 116.691L185.911 109.512L183.902 102.168L187.417 97.6224Z" fill="#F09959"/>
<path d="M187.417 97.6224L183.902 102.168L185.899 109.47C187.14 107.337 188.174 104.77 188.75 101.934L187.417 97.6224Z" fill="#E38540"/>
<path d="M187.53 101.947C186.388 105.483 183.318 107.664 180.675 106.818C178.031 105.972 176.813 102.421 177.954 98.8847C179.096 95.3484 182.164 93.1678 184.809 94.0137C187.454 94.8597 188.671 98.4105 187.53 101.947Z" fill="#F09959"/>
<path d="M184.271 112.676C184.271 112.676 182.252 113.875 182.258 114.808C182.263 115.74 182.258 116.274 182.258 116.274C182.258 116.274 180.523 118.917 179.184 122.324C177.845 125.732 177.915 127.463 177.915 127.463L186.405 114.611L184.272 112.677L184.271 112.676Z" fill="#F37168"/>
<path d="M196.219 214.016C196.152 216.68 193.198 218.562 191.798 219.269C187.404 221.489 186.643 222.875 191.462 222.805C195.109 222.752 197.621 221.334 201.572 221.067C204.076 220.898 202.272 218.13 202.406 216.531C202.54 214.933 201.401 212.684 201.401 212.684L196.219 214.016Z" fill="#3A384D"/>
<path d="M175.131 212.684C175.131 212.684 174.244 213.899 172.102 215.738C169.959 217.577 162.408 217.638 166.429 219.525C168.871 220.672 173.367 219.841 176.055 220.225C178.743 220.61 181.087 220.239 181.287 219.525C181.488 218.812 180.737 213.941 180.737 213.941L175.131 212.684Z" fill="#3A384D"/>
<path d="M179.072 141.922C180.127 154.539 176.561 183.012 176.536 189.457C176.511 195.902 172.851 214.643 172.851 214.643C172.851 214.643 179.916 217.497 181.573 217.636C183.23 217.776 186.741 201.289 187.448 192.746C188.156 184.204 192.134 166.655 192.134 166.655L190.6 140.648L179.07 141.922H179.072Z" fill="#58556E"/>
<path d="M186.502 200.051C186.94 197.381 187.278 194.829 187.451 192.747C188.159 184.204 192.137 166.655 192.137 166.655L191.624 157.979L178.924 157.799C178.66 162.443 178.276 167.304 177.892 171.826C182.77 182.407 185.316 193.555 186.499 200.051H186.502Z" fill="#3A384D"/>
<path d="M179.525 146.148C184.437 172.627 188.053 183.157 191.367 194.546C194.681 205.935 193.926 217.637 193.926 217.637L203.114 218.804C203.114 218.804 206.706 198.076 203.173 187.659C201.005 181.269 202.44 172.611 201.639 163.117C200.736 152.407 199.952 141.46 199.952 141.46L179.525 146.147V146.148Z" fill="#58556E"/>
<path d="M198.627 155.392L182.749 162.215C182.82 162.541 182.678 164.151 182.749 164.472C190.527 165.117 195.448 164.384 201.818 165.917C201.671 164.059 201.374 159.681 201.25 157.798L198.627 155.391V155.392Z" fill="#3A384D"/>
<path d="M191.889 109.308C198.517 115.547 200.928 122.14 200.703 125.763C200.252 133.097 201.654 161.302 201.654 161.302C201.654 161.302 197.76 162.184 191.237 163.371C184.713 164.557 178.419 162.822 178.419 162.822C178.419 162.822 177.315 142.672 177.367 130.018C177.399 122.303 191.889 109.308 191.889 109.308Z" fill="#58556E"/>
<path d="M198.378 161.993C198.55 158.658 199.75 135.182 199.562 134.81C199.362 134.411 191.729 116.692 191.729 116.692C187.645 122.221 187.388 133.745 187.45 139.94C187.505 145.521 189.195 160.671 189.529 163.618C190.095 163.556 190.665 163.475 191.237 163.371C194.112 162.848 196.55 162.369 198.377 161.994L198.378 161.993Z" fill="#3A384D"/>
<path d="M191.368 107.614L190.096 105.148L183.903 110.144L183.534 116.988L191.368 107.614Z" fill="#F2E5DE"/>
<path d="M190.297 113.141C190.297 113.141 192.823 111.988 195.149 112.791C194.193 111.627 193.316 110.471 191.889 109.127C191.889 109.127 177.399 122.121 177.367 129.836C177.359 131.721 177.405 133.633 177.49 135.519C177.537 131.654 176.976 128.862 180.789 123.816C184.169 119.344 191.368 115.673 191.368 115.673L190.297 113.141Z" fill="#3A384D"/>
<path d="M191.435 107L193.257 110.464L188.752 113.675L189.963 115.673C189.963 115.673 184.532 119.109 182.259 120.868C178.448 123.816 177.109 130.793 177.109 130.793C177.109 130.793 177.645 123.816 182.259 118.031C186.478 112.74 191.436 107 191.436 107H191.435Z" fill="#58556E"/>
<path d="M185.2 161.658L204.517 163.99L203.209 176.712L184.837 174.839L185.2 161.658Z" fill="#BDCCD4"/>
<path d="M196.255 153.428L194.313 160.513L191.367 162.491L193.753 162.873C193.753 162.873 193.321 167.085 192.512 169C191.702 170.914 192.572 171.552 195.853 169.319C199.134 167.086 200.044 166.001 199.823 163.384C199.603 160.767 199.001 160.449 199.335 158.279C199.67 156.109 196.189 152.981 196.189 152.981L196.256 153.428H196.255Z" fill="#F09959"/>
<path d="M194.182 157L193.513 160.637L199.862 161.658L200.915 157H194.182Z" fill="#F2E5DE"/>
<path d="M195.932 114.354C198.325 115.333 201.371 124.015 205.826 139.48C206.902 143.217 200.915 160.129 200.915 160.129C200.915 160.129 193.265 159.644 193.17 158.423C193.116 157.722 196.534 144.301 196.082 143.008C195.631 141.716 192.993 137.774 190.731 128.972C188.469 120.171 191.571 112.572 195.932 114.354Z" fill="#58556E"/>
<path d="M178.144 93.5489C175.772 99.4668 180.923 98.856 183.089 97.0248C185.256 95.1936 185.536 96.7765 185.492 98.9505C185.451 100.992 186.27 99.4996 186.081 101.801C185.892 104.103 185.743 104.212 186.502 103.413C187.262 102.614 187.499 99.7019 187.499 99.7019C187.499 99.7019 187.322 103.472 188.405 103.73C189.488 103.987 189.317 103.437 189.317 103.437L189.562 97.1193L184.789 91.8123C184.789 91.8123 178.665 91.8595 178.659 92.0474C178.652 92.2352 178.144 93.5502 178.144 93.5502V93.5489Z" fill="#58556E"/>
<path d="M187.5 99.7005C188.235 98.1031 189.854 98.8558 189.422 100.734C188.99 102.613 187.215 102.782 187.215 102.782L187.5 99.7005Z" fill="#F09959"/>
<path d="M58.2446 43.3385C67.9686 43.3385 80.7439 39.6984 84.6902 38.4991C85.287 38.3178 85.9036 38.7224 85.9036 39.2978V66.2076C85.9036 87.0011 58.6671 103.858 58.6671 103.858C58.6671 103.858 31.4319 87.0011 31.4319 66.2076V40.5457C31.4319 39.994 32.0023 39.592 32.5871 39.7313C36.3421 40.6258 48.5232 43.3385 58.2446 43.3385Z" fill="#93B1C2"/>
<path opacity="0.7" d="M58.6674 47.7656C65.9621 47.7656 75.0312 45.3853 79.5876 43.5068C80.9462 42.9472 82.4856 43.8523 82.4856 45.2132V66.8081C82.4856 84.9927 58.6674 99.7343 58.6674 99.7343C58.6674 99.7343 34.8491 84.9927 34.8491 66.8081V46.1525C34.8491 44.8454 36.2777 43.9429 37.6191 44.3975C42.1306 45.9292 51.3027 47.7643 58.6661 47.7643L58.6674 47.7656Z" fill="#9EC8FF"/>
<path d="M58.9185 53.6227V93.988C58.9185 93.988 39.9761 81.9788 39.9761 67.7088V51.3514C39.9761 50.3977 41.0218 49.7409 41.9988 50.0785C45.5372 51.3015 53.0325 53.624 58.9185 53.624V53.6227Z" fill="#D6E7F0"/>
<path d="M58.9182 53.6229V93.9883C58.9182 93.9883 78.5379 81.979 78.5379 67.709V51.3135C78.5379 50.3704 77.512 49.7109 76.5403 50.0314C72.8685 51.2413 64.8807 53.6229 58.9195 53.6229H58.9182Z" fill="#D6E7F0"/>
<mask id="mask0_973_3805" style="mask-type:luminance" maskUnits="userSpaceOnUse" x="31" y="38" width="55" height="66">
<path d="M58.2443 43.338C67.9684 43.338 80.7436 39.6979 84.69 38.4986C85.2868 38.3173 85.9034 38.7219 85.9034 39.2973V66.2071C85.9034 87.0006 58.6668 103.857 58.6668 103.857C58.6668 103.857 31.4316 87.0006 31.4316 66.2071V40.5452C31.4316 39.9935 32.002 39.5915 32.5869 39.7308C36.3418 40.6254 48.523 43.338 58.2443 43.338Z" fill="white"/>
</mask>
<g mask="url(#mask0_973_3805)">
<g style="mix-blend-mode:overlay">
<path d="M38.9294 65.9432C41.4432 74.0982 42.8665 86.9705 43.5333 94.5817C36.5106 88.0674 29.5368 80.3813 29.1855 76.3656C28.7459 71.3422 27.8851 56.8581 28.0342 46.7891C30.9363 50.2216 36.2769 57.3375 38.9294 65.9432Z" fill="url(#paint0_linear_973_3805)"/>
<path d="M52.0764 82.2373C50.0155 72.7279 44.0939 48.9944 28.2371 41.6328C28.4694 38.4985 28.9038 36.4742 29.6313 36.4308C32.536 36.2561 35.9688 37.9192 35.9688 37.9192C51.4599 37.8312 59.0305 61.2139 59.7342 65.2428C60.4379 69.2717 59.6457 104.845 58.1498 105.8C57.8237 106.009 56.2935 105.104 54.0925 103.479C54.0371 99.2002 53.7176 89.8143 52.0764 82.2386V82.2373Z" fill="url(#paint1_linear_973_3805)"/>
</g>
</g>
</g>
<path d="M1 232H265V297H1V232Z" fill="white"/>
<path d="M69.0625 235.25V258H66.0469V235.25H69.0625ZM77 244.703V258H74.1094V241.094H76.8438L77 244.703ZM76.3125 248.906L75.1094 248.859C75.1198 247.703 75.2917 246.635 75.625 245.656C75.9583 244.667 76.4271 243.807 77.0312 243.078C77.6354 242.349 78.3542 241.786 79.1875 241.391C80.0312 240.984 80.9635 240.781 81.9844 240.781C82.8177 240.781 83.5677 240.896 84.2344 241.125C84.901 241.344 85.4688 241.698 85.9375 242.188C86.4167 242.677 86.7812 243.312 87.0312 244.094C87.2812 244.865 87.4062 245.807 87.4062 246.922V258H84.5V246.891C84.5 246.005 84.3698 245.297 84.1094 244.766C83.849 244.224 83.4688 243.833 82.9688 243.594C82.4688 243.344 81.8542 243.219 81.125 243.219C80.4062 243.219 79.75 243.37 79.1562 243.672C78.5729 243.974 78.0677 244.391 77.6406 244.922C77.224 245.453 76.8958 246.062 76.6562 246.75C76.4271 247.427 76.3125 248.146 76.3125 248.906ZM101.641 253.516C101.641 253.099 101.547 252.714 101.359 252.359C101.182 251.995 100.812 251.667 100.25 251.375C99.6979 251.073 98.8646 250.812 97.75 250.594C96.8125 250.396 95.9635 250.161 95.2031 249.891C94.4531 249.62 93.8125 249.292 93.2812 248.906C92.7604 248.521 92.3594 248.068 92.0781 247.547C91.7969 247.026 91.6562 246.417 91.6562 245.719C91.6562 245.052 91.8021 244.422 92.0938 243.828C92.3958 243.234 92.8177 242.708 93.3594 242.25C93.9115 241.792 94.5729 241.432 95.3438 241.172C96.1146 240.911 96.974 240.781 97.9219 240.781C99.276 240.781 100.432 241.021 101.391 241.5C102.349 241.979 103.083 242.62 103.594 243.422C104.104 244.214 104.359 245.094 104.359 246.062H101.469C101.469 245.594 101.328 245.141 101.047 244.703C100.776 244.255 100.375 243.885 99.8438 243.594C99.3229 243.302 98.6823 243.156 97.9219 243.156C97.1198 243.156 96.4688 243.281 95.9688 243.531C95.4792 243.771 95.1198 244.078 94.8906 244.453C94.6719 244.828 94.5625 245.224 94.5625 245.641C94.5625 245.953 94.6146 246.234 94.7188 246.484C94.8333 246.724 95.0312 246.948 95.3125 247.156C95.5938 247.354 95.9896 247.542 96.5 247.719C97.0104 247.896 97.6615 248.073 98.4531 248.25C99.8385 248.562 100.979 248.938 101.875 249.375C102.771 249.812 103.438 250.349 103.875 250.984C104.312 251.62 104.531 252.391 104.531 253.297C104.531 254.036 104.375 254.714 104.062 255.328C103.76 255.943 103.318 256.474 102.734 256.922C102.161 257.359 101.474 257.703 100.672 257.953C99.8802 258.193 98.9896 258.312 98 258.312C96.5104 258.312 95.25 258.047 94.2188 257.516C93.1875 256.984 92.4062 256.297 91.875 255.453C91.3438 254.609 91.0781 253.719 91.0781 252.781H93.9844C94.026 253.573 94.2552 254.203 94.6719 254.672C95.0885 255.13 95.599 255.458 96.2031 255.656C96.8073 255.844 97.4062 255.938 98 255.938C98.7917 255.938 99.4531 255.833 99.9844 255.625C100.526 255.417 100.938 255.13 101.219 254.766C101.5 254.401 101.641 253.984 101.641 253.516ZM118.672 254.094V241.094H121.578V258H118.812L118.672 254.094ZM119.219 250.531L120.422 250.5C120.422 251.625 120.302 252.667 120.062 253.625C119.833 254.573 119.458 255.396 118.938 256.094C118.417 256.792 117.734 257.339 116.891 257.734C116.047 258.12 115.021 258.312 113.812 258.312C112.99 258.312 112.234 258.193 111.547 257.953C110.87 257.714 110.286 257.344 109.797 256.844C109.307 256.344 108.927 255.693 108.656 254.891C108.396 254.089 108.266 253.125 108.266 252V241.094H111.156V252.031C111.156 252.792 111.24 253.422 111.406 253.922C111.583 254.411 111.818 254.802 112.109 255.094C112.411 255.375 112.745 255.573 113.109 255.688C113.484 255.802 113.87 255.859 114.266 255.859C115.495 255.859 116.469 255.625 117.188 255.156C117.906 254.677 118.422 254.036 118.734 253.234C119.057 252.422 119.219 251.521 119.219 250.531ZM128.875 243.75V258H125.984V241.094H128.797L128.875 243.75ZM134.156 241L134.141 243.688C133.901 243.635 133.672 243.604 133.453 243.594C133.245 243.573 133.005 243.562 132.734 243.562C132.068 243.562 131.479 243.667 130.969 243.875C130.458 244.083 130.026 244.375 129.672 244.75C129.318 245.125 129.036 245.573 128.828 246.094C128.63 246.604 128.5 247.167 128.438 247.781L127.625 248.25C127.625 247.229 127.724 246.271 127.922 245.375C128.13 244.479 128.448 243.688 128.875 243C129.302 242.302 129.844 241.76 130.5 241.375C131.167 240.979 131.958 240.781 132.875 240.781C133.083 240.781 133.323 240.807 133.594 240.859C133.865 240.901 134.052 240.948 134.156 241ZM146.172 255.109V246.406C146.172 245.74 146.036 245.161 145.766 244.672C145.505 244.172 145.109 243.786 144.578 243.516C144.047 243.245 143.391 243.109 142.609 243.109C141.88 243.109 141.24 243.234 140.688 243.484C140.146 243.734 139.719 244.062 139.406 244.469C139.104 244.875 138.953 245.312 138.953 245.781H136.062C136.062 245.177 136.219 244.578 136.531 243.984C136.844 243.391 137.292 242.854 137.875 242.375C138.469 241.885 139.177 241.5 140 241.219C140.833 240.927 141.76 240.781 142.781 240.781C144.01 240.781 145.094 240.99 146.031 241.406C146.979 241.823 147.719 242.453 148.25 243.297C148.792 244.13 149.062 245.177 149.062 246.438V254.312C149.062 254.875 149.109 255.474 149.203 256.109C149.307 256.745 149.458 257.292 149.656 257.75V258H146.641C146.495 257.667 146.38 257.224 146.297 256.672C146.214 256.109 146.172 255.589 146.172 255.109ZM146.672 247.75L146.703 249.781H143.781C142.958 249.781 142.224 249.849 141.578 249.984C140.932 250.109 140.391 250.302 139.953 250.562C139.516 250.823 139.182 251.151 138.953 251.547C138.724 251.932 138.609 252.385 138.609 252.906C138.609 253.438 138.729 253.922 138.969 254.359C139.208 254.797 139.568 255.146 140.047 255.406C140.536 255.656 141.135 255.781 141.844 255.781C142.729 255.781 143.51 255.594 144.188 255.219C144.865 254.844 145.401 254.385 145.797 253.844C146.203 253.302 146.422 252.776 146.453 252.266L147.688 253.656C147.615 254.094 147.417 254.578 147.094 255.109C146.771 255.641 146.339 256.151 145.797 256.641C145.266 257.12 144.63 257.521 143.891 257.844C143.161 258.156 142.339 258.312 141.422 258.312C140.276 258.312 139.271 258.089 138.406 257.641C137.552 257.193 136.885 256.594 136.406 255.844C135.938 255.083 135.703 254.234 135.703 253.297C135.703 252.391 135.88 251.594 136.234 250.906C136.589 250.208 137.099 249.63 137.766 249.172C138.432 248.703 139.234 248.349 140.172 248.109C141.109 247.87 142.156 247.75 143.312 247.75H146.672ZM156.5 244.703V258H153.609V241.094H156.344L156.5 244.703ZM155.812 248.906L154.609 248.859C154.62 247.703 154.792 246.635 155.125 245.656C155.458 244.667 155.927 243.807 156.531 243.078C157.135 242.349 157.854 241.786 158.688 241.391C159.531 240.984 160.464 240.781 161.484 240.781C162.318 240.781 163.068 240.896 163.734 241.125C164.401 241.344 164.969 241.698 165.438 242.188C165.917 242.677 166.281 243.312 166.531 244.094C166.781 244.865 166.906 245.807 166.906 246.922V258H164V246.891C164 246.005 163.87 245.297 163.609 244.766C163.349 244.224 162.969 243.833 162.469 243.594C161.969 243.344 161.354 243.219 160.625 243.219C159.906 243.219 159.25 243.37 158.656 243.672C158.073 243.974 157.568 244.391 157.141 244.922C156.724 245.453 156.396 246.062 156.156 246.75C155.927 247.427 155.812 248.146 155.812 248.906ZM178.062 255.938C178.75 255.938 179.385 255.797 179.969 255.516C180.552 255.234 181.031 254.849 181.406 254.359C181.781 253.859 181.995 253.292 182.047 252.656H184.797C184.745 253.656 184.406 254.589 183.781 255.453C183.167 256.307 182.359 257 181.359 257.531C180.359 258.052 179.26 258.312 178.062 258.312C176.792 258.312 175.682 258.089 174.734 257.641C173.797 257.193 173.016 256.578 172.391 255.797C171.776 255.016 171.312 254.12 171 253.109C170.698 252.089 170.547 251.01 170.547 249.875V249.219C170.547 248.083 170.698 247.01 171 246C171.312 244.979 171.776 244.078 172.391 243.297C173.016 242.516 173.797 241.901 174.734 241.453C175.682 241.005 176.792 240.781 178.062 240.781C179.385 240.781 180.542 241.052 181.531 241.594C182.521 242.125 183.297 242.854 183.859 243.781C184.432 244.698 184.745 245.74 184.797 246.906H182.047C181.995 246.208 181.797 245.578 181.453 245.016C181.12 244.453 180.661 244.005 180.078 243.672C179.505 243.328 178.833 243.156 178.062 243.156C177.177 243.156 176.432 243.333 175.828 243.688C175.234 244.031 174.76 244.5 174.406 245.094C174.062 245.677 173.812 246.328 173.656 247.047C173.51 247.755 173.438 248.479 173.438 249.219V249.875C173.438 250.615 173.51 251.344 173.656 252.062C173.802 252.781 174.047 253.432 174.391 254.016C174.745 254.599 175.219 255.068 175.812 255.422C176.417 255.766 177.167 255.938 178.062 255.938ZM195.062 258.312C193.885 258.312 192.818 258.115 191.859 257.719C190.911 257.312 190.094 256.745 189.406 256.016C188.729 255.286 188.208 254.422 187.844 253.422C187.479 252.422 187.297 251.328 187.297 250.141V249.484C187.297 248.109 187.5 246.885 187.906 245.812C188.312 244.729 188.865 243.812 189.562 243.062C190.26 242.312 191.052 241.745 191.938 241.359C192.823 240.974 193.74 240.781 194.688 240.781C195.896 240.781 196.938 240.99 197.812 241.406C198.698 241.823 199.422 242.406 199.984 243.156C200.547 243.896 200.964 244.771 201.234 245.781C201.505 246.781 201.641 247.875 201.641 249.062V250.359H189.016V248H198.75V247.781C198.708 247.031 198.552 246.302 198.281 245.594C198.021 244.885 197.604 244.302 197.031 243.844C196.458 243.385 195.677 243.156 194.688 243.156C194.031 243.156 193.427 243.297 192.875 243.578C192.323 243.849 191.849 244.255 191.453 244.797C191.057 245.339 190.75 246 190.531 246.781C190.312 247.562 190.203 248.464 190.203 249.484V250.141C190.203 250.943 190.312 251.698 190.531 252.406C190.76 253.104 191.089 253.719 191.516 254.25C191.953 254.781 192.479 255.198 193.094 255.5C193.719 255.802 194.427 255.953 195.219 255.953C196.24 255.953 197.104 255.745 197.812 255.328C198.521 254.911 199.141 254.354 199.672 253.656L201.422 255.047C201.057 255.599 200.594 256.125 200.031 256.625C199.469 257.125 198.776 257.531 197.953 257.844C197.141 258.156 196.177 258.312 195.062 258.312Z" fill="black"/>
<defs>
<linearGradient id="paint0_linear_973_3805" x1="5.93106" y1="25.6711" x2="67.8587" y2="125.062" gradientUnits="userSpaceOnUse">
<stop stop-color="white"/>
<stop offset="1"/>
</linearGradient>
<linearGradient id="paint1_linear_973_3805" x1="17.1782" y1="18.6613" x2="79.1071" y2="118.053" gradientUnits="userSpaceOnUse">
<stop stop-color="white"/>
<stop offset="1"/>
</linearGradient>
<clipPath id="clip0_973_3805">
<rect width="264.061" height="262.727" fill="white" transform="translate(0.904541 0.691406)"/>
</clipPath>
</defs>
</svg>
