<svg width="301" height="240" viewBox="0 0 301 240" fill="none" xmlns="http://www.w3.org/2000/svg">
<g clip-path="url(#clip0_979_9128)">
<path d="M220.757 3.10159C225.459 4.54195 232.49 11.086 238.657 21.5247C246.24 34.366 250.748 35.4908 261.477 29.1641C272.207 22.8375 284.811 27.0884 293.933 43.9338C303.055 60.7791 287.075 73.8756 272.265 94.3969C257.453 114.918 287.026 109.611 296.606 133.58C306.186 157.548 292.675 184.437 248.221 184.117C203.706 183.797 129.254 181.545 129.254 181.545C129.254 181.545 49.4746 189.51 29.0698 177.583C3.40261 162.581 47.4092 157.017 26.2734 147.657C5.13756 138.296 5.43703 129.555 5.83211 112.883C6.28342 93.8654 23.7413 90.9398 32.1826 84.4701C40.624 78.0004 45.701 70.9767 33.6322 59.4622C21.5634 47.9477 12.3234 40.1905 18.4253 24.9342C27.1774 3.0497 48.4201 0.225078 71.7591 9.50257C95.098 18.7801 99.06 30.6592 137.579 23.7814C159.062 19.9455 180.718 -9.15901 220.757 3.10159Z" fill="url(#paint0_linear_979_9128)"/>
<g opacity="0.9">
<path d="M16.9476 2.61885C15.9747 21.7447 13.8193 132.676 94.3036 138.605C94.3036 138.605 110.323 63.2683 18.8977 1.02141C18.0977 0.477245 17.0109 1.36923 16.9476 2.61885Z" fill="#91B3FA"/>
<path opacity="0.45" d="M25.4236 16.9229C26.942 22.1388 28.5575 27.3322 30.2123 32.5088C31.8699 37.6854 33.5796 42.8452 35.3441 47.9867C38.8674 58.2712 42.6129 68.48 46.6241 78.5807C48.6431 83.6255 50.7267 88.645 52.9003 93.6253C55.0908 98.5971 57.3685 103.53 59.7656 108.403C62.1839 113.264 64.7343 118.061 67.4844 122.737C70.24 127.406 73.1897 131.971 76.55 136.209C76.7328 136.438 76.6934 136.772 76.4642 136.952C76.2351 137.135 75.9004 137.096 75.7191 136.867L75.7163 136.864C72.3321 132.554 69.3852 127.941 66.6352 123.233C63.8921 118.518 61.3544 113.691 58.9516 108.803C56.5699 103.904 54.3091 98.9491 52.1383 93.9562C49.9843 88.9564 47.9218 83.92 45.9225 78.8584C41.9521 68.724 38.2516 58.4886 34.7746 48.1803C33.0341 43.0261 31.3469 37.8551 29.7118 32.6673C28.0795 27.4781 26.4893 22.2776 24.992 17.0449C24.9582 16.9257 25.0271 16.8023 25.1466 16.7672C25.2661 16.7336 25.3899 16.8023 25.425 16.9215L25.4236 16.9229Z" fill="white"/>
</g>
<path d="M0.214007 79.8013C0.0537277 78.7957 1.35424 78.2445 1.96584 79.0579C7.88212 86.9301 24.0422 107.088 39.917 114.963C65.767 127.785 90.3544 155.327 85.2128 176.503C85.2128 176.503 17.6395 189.311 0.212601 79.8013H0.214007Z" fill="#BDD0FB"/>
<path d="M7.21819 91.5948C7.32645 91.7911 7.47829 92.038 7.61467 92.2652L8.04349 92.9552L8.918 94.3282L10.6951 97.0589C11.8944 98.8709 13.1148 100.668 14.3534 102.453C16.8223 106.028 19.3488 109.562 21.9485 113.042C27.1632 119.988 32.5536 126.806 38.3026 133.313C41.1904 136.553 44.0895 139.784 47.1222 142.89C50.1549 145.993 53.2592 149.027 56.4775 151.936C62.8915 157.776 69.7512 163.143 77.1578 167.696C77.259 167.756 77.2913 167.888 77.2309 167.987C77.1718 168.085 77.0439 168.118 76.9455 168.063C73.1241 165.949 69.4657 163.548 65.9171 161.003C62.3881 158.426 59.0138 155.648 55.7154 152.786C49.1862 146.983 43.073 140.728 37.3339 134.159C34.4587 130.879 31.6918 127.507 28.9754 124.098C26.2605 120.687 23.6215 117.217 21.0852 113.673C18.5432 110.134 16.0533 106.558 13.6645 102.914C12.4751 101.09 11.3011 99.2552 10.151 97.4053C9.5788 96.4783 9.00798 95.5512 8.44981 94.6158L7.62451 93.2048L7.2196 92.4938C7.08744 92.2483 6.95528 92.031 6.8189 91.742C6.76828 91.6369 6.81327 91.5106 6.91872 91.4616C7.01995 91.4139 7.14086 91.4531 7.19429 91.5499L7.21819 91.5934V91.5948Z" fill="#DCE5FE"/>
<path d="M276.55 5.17749C280.476 19.2389 299.967 102.003 225.397 134.198C225.397 134.198 198.504 83.0075 274.469 4.64735C275.134 3.96153 276.294 4.25886 276.55 5.17749Z" fill="#91B3FA"/>
<path d="M271.276 18.8644C270.673 23.4913 269.974 28.1013 269.236 32.7057C268.495 37.31 267.701 41.906 266.854 46.4908C265.159 55.6631 263.258 64.7989 261.076 73.8716C258.887 82.9416 256.432 91.9554 253.486 100.821C252.028 105.257 250.407 109.644 248.62 113.965C246.826 118.283 244.859 122.538 242.556 126.628C242.42 126.869 242.114 126.955 241.872 126.82C241.63 126.684 241.544 126.378 241.679 126.137V126.134L241.682 126.133C243.979 122.103 245.955 117.89 247.76 113.607C249.558 109.321 251.195 104.962 252.671 100.548C255.652 91.7296 258.149 82.7466 260.38 73.7033C262.605 64.6573 264.551 55.5411 266.292 46.387C267.162 41.8092 267.979 37.2217 268.744 32.6257C269.506 28.0297 270.227 23.424 270.854 18.8098C270.87 18.6919 270.978 18.6106 271.095 18.626C271.211 18.6414 271.293 18.748 271.277 18.8644H271.276Z" fill="#DCE5FE"/>
<path d="M231.699 180.775C231.699 180.775 230.449 164.825 244.912 147.121C258.331 130.695 291.531 92.4826 298.07 72.4971C298.36 71.6121 299.648 71.7369 299.749 72.6626C300.84 82.5936 301.613 107.679 286.859 134.153C267.833 168.294 231.699 180.774 231.699 180.774V180.775Z" fill="#BDD0FB"/>
<path d="M294.027 90.8695C293.96 93.0784 293.617 95.2719 293.154 97.4332C293.098 97.7038 293.047 97.9759 292.985 98.2452L292.787 99.0502L292.389 100.662L291.924 102.255C291.764 102.785 291.626 103.322 291.435 103.841C290.038 108.042 288.299 112.134 286.21 116.043C285.728 117.041 285.143 117.984 284.595 118.947L283.762 120.386C283.62 120.625 283.492 120.87 283.339 121.102L282.888 121.8L281.084 124.594C280.793 125.066 280.454 125.505 280.133 125.957L279.161 127.305L278.186 128.653L277.697 129.324L277.178 129.974L275.1 132.57C274.75 132.999 274.414 133.442 274.054 133.862L272.976 135.12L270.818 137.637L268.631 140.129C267.9 140.958 267.178 141.794 266.434 142.612C264.959 144.258 263.474 145.895 261.971 147.515C260.48 149.145 258.961 150.75 257.451 152.363L252.873 157.154C249.82 160.343 246.76 163.527 243.813 166.805C243.065 167.615 242.359 168.458 241.638 169.291C241.273 169.704 240.937 170.138 240.589 170.566C240.248 170.997 239.893 171.419 239.562 171.856C238.916 172.746 238.237 173.614 237.657 174.546L237.202 175.235C237.128 175.35 237.048 175.462 236.979 175.582L236.776 175.939L235.965 177.374L235.962 177.379C235.93 177.437 235.857 177.457 235.799 177.424C235.744 177.394 235.723 177.323 235.75 177.267C236.73 175.277 237.921 173.399 239.223 171.605C239.548 171.157 239.893 170.725 240.228 170.283C240.567 169.845 240.896 169.399 241.254 168.977C241.959 168.124 242.651 167.259 243.383 166.429L244.467 165.172C244.831 164.757 245.207 164.35 245.575 163.938L246.686 162.707L247.808 161.488C249.302 159.86 250.814 158.249 252.318 156.632C255.329 153.402 258.341 150.175 261.315 146.917C264.294 143.662 267.218 140.361 270.117 137.035L272.269 134.522L273.344 133.265C273.703 132.848 274.039 132.413 274.387 131.988L276.461 129.423L276.98 128.782L277.468 128.117L278.441 126.786C281.08 123.268 283.415 119.532 285.551 115.694C287.702 111.859 289.51 107.835 290.982 103.691C291.183 103.179 291.329 102.649 291.508 102.129L292.021 100.561L292.468 98.9731L292.692 98.1779C292.76 97.9114 292.819 97.6435 292.884 97.3757C293.006 96.8399 293.147 96.307 293.257 95.767L293.572 94.1457C293.747 93.0602 293.932 91.9704 293.996 90.8709C293.996 90.8625 294.003 90.8555 294.012 90.8569C294.02 90.8569 294.026 90.8639 294.026 90.8723L294.027 90.8695Z" fill="#DCE5FE"/>
<path d="M158.696 68.0567C158.656 68.0862 158.606 68.0974 158.556 68.0848C158.466 68.0623 158.412 67.9726 158.434 67.8828C158.486 67.6682 158.535 67.4536 158.582 67.2377C158.601 67.1479 158.69 67.089 158.78 67.1086C158.87 67.1283 158.927 67.2166 158.909 67.3064C158.863 67.5252 158.814 67.744 158.76 67.9614C158.75 68.0006 158.728 68.0329 158.698 68.0553L158.696 68.0567Z" fill="#91B3FA"/>
<path d="M151.504 79.2949C151.432 79.3482 151.329 79.3356 151.273 79.2655C151.216 79.194 151.227 79.0888 151.3 79.0313C151.633 78.7662 151.962 78.4857 152.278 78.1996C152.346 78.1379 152.453 78.1421 152.515 78.2108C152.577 78.2795 152.572 78.3847 152.503 78.4464C152.183 78.7381 151.848 79.0214 151.509 79.2921C151.508 79.2921 151.507 79.2949 151.505 79.2963L151.504 79.2949ZM149.796 80.5207C149.796 80.5207 149.79 80.5249 149.786 80.5277C149.422 80.7619 149.045 80.9877 148.665 81.1995C148.585 81.2444 148.482 81.2164 148.437 81.135C148.392 81.0551 148.418 80.9541 148.502 80.9078C148.875 80.7002 149.244 80.4786 149.604 80.2472C149.682 80.1967 149.786 80.2192 149.835 80.2977C149.883 80.3721 149.864 80.4702 149.794 80.5221L149.796 80.5207ZM153.974 76.9668C153.912 77.0131 153.824 77.0117 153.763 76.957C153.694 76.8953 153.689 76.7901 153.751 76.7214C154.035 76.4058 154.313 76.0762 154.579 75.741C154.636 75.6681 154.74 75.6569 154.813 75.713C154.885 75.7705 154.898 75.8743 154.842 75.9472C154.572 76.288 154.289 76.6232 154.001 76.9444C153.994 76.9528 153.985 76.9598 153.975 76.9668H153.974ZM146.798 82.1168C146.788 82.1238 146.777 82.1308 146.764 82.1364C146.366 82.3075 145.959 82.4688 145.55 82.616C145.462 82.6469 145.367 82.602 145.336 82.5151C145.305 82.4281 145.348 82.3327 145.437 82.3019C145.839 82.1574 146.241 81.9989 146.632 81.8306C146.716 81.7942 146.815 81.8335 146.851 81.9176C146.882 81.9905 146.858 82.0719 146.798 82.1168ZM156.03 74.2656C155.976 74.3063 155.9 74.3105 155.84 74.2726C155.762 74.2235 155.739 74.1197 155.789 74.0426L155.854 73.9416C156.06 73.6148 156.26 73.2782 156.447 72.9402C156.492 72.8603 156.593 72.8308 156.675 72.8757C156.755 72.9206 156.785 73.0216 156.74 73.1029C156.548 73.4451 156.346 73.7873 156.136 74.1197L156.072 74.2221C156.061 74.2404 156.046 74.2544 156.031 74.267L156.03 74.2656ZM143.58 83.2037C143.563 83.2163 143.542 83.2261 143.521 83.2317C143.099 83.3369 142.67 83.4295 142.244 83.508C142.153 83.5249 142.066 83.4646 142.05 83.3748C142.033 83.2836 142.094 83.1981 142.184 83.1812C142.603 83.1041 143.024 83.0129 143.439 82.9092C143.529 82.8867 143.619 82.9414 143.642 83.0312C143.659 83.0985 143.632 83.1658 143.58 83.2051V83.2037ZM157.62 71.2699C157.573 71.3049 157.51 71.3133 157.454 71.2895C157.369 71.253 157.33 71.1549 157.367 71.0707C157.535 70.6794 157.693 70.2783 157.836 69.8772C157.867 69.7902 157.963 69.7454 158.05 69.7762C158.137 69.8071 158.182 69.9024 158.151 69.9894C158.006 70.3961 157.845 70.8042 157.675 71.2026C157.662 71.2306 157.644 71.253 157.621 71.2699H157.62ZM140.227 83.7535C140.203 83.7717 140.173 83.7829 140.141 83.7857C139.708 83.8208 139.269 83.8432 138.836 83.8516C138.743 83.853 138.667 83.7801 138.666 83.6889C138.665 83.5964 138.738 83.5206 138.83 83.5192C139.255 83.5108 139.687 83.4898 140.114 83.4547C140.205 83.4477 140.287 83.515 140.294 83.6076C140.298 83.6665 140.272 83.7212 140.227 83.7549V83.7535ZM136.83 83.7535C136.799 83.7773 136.758 83.7899 136.716 83.7857C136.283 83.7507 135.847 83.7002 135.418 83.6385C135.327 83.6244 135.264 83.5403 135.278 83.4491C135.292 83.358 135.376 83.2948 135.467 83.3089C135.889 83.3706 136.318 83.4197 136.744 83.4547C136.835 83.4617 136.904 83.5431 136.897 83.6343C136.893 83.6833 136.868 83.7268 136.831 83.7549L136.83 83.7535ZM133.481 83.1981C133.441 83.2275 133.391 83.2388 133.34 83.2261C132.921 83.1209 132.499 83.0003 132.086 82.8685C131.997 82.8404 131.95 82.7465 131.978 82.6595C132.006 82.5726 132.1 82.5235 132.187 82.5515C132.594 82.682 133.01 82.7998 133.422 82.9035C133.512 82.926 133.565 83.0172 133.543 83.1055C133.533 83.1448 133.51 83.1756 133.481 83.1981ZM130.268 82.1013C130.222 82.1364 130.158 82.1448 130.101 82.121C129.704 81.9471 129.306 81.7591 128.921 81.5628C128.84 81.5207 128.807 81.4197 128.85 81.3384C128.892 81.257 128.993 81.2248 129.074 81.2668C129.454 81.4618 129.845 81.6469 130.234 81.8166C130.319 81.8531 130.358 81.9513 130.32 82.0368C130.307 82.0649 130.289 82.0873 130.267 82.1041L130.268 82.1013ZM127.276 80.4955C127.221 80.5361 127.145 80.5403 127.085 80.5011C126.719 80.2655 126.358 80.0158 126.011 79.7592C125.936 79.7045 125.921 79.6007 125.976 79.5264C126.031 79.452 126.135 79.4366 126.209 79.4913C126.551 79.7437 126.906 79.9892 127.266 80.222C127.344 80.2725 127.366 80.3749 127.316 80.452C127.304 80.4688 127.29 80.4842 127.275 80.4955H127.276ZM124.584 78.4282C124.521 78.4745 124.432 78.4717 124.372 78.4184C124.052 78.1281 123.736 77.8237 123.434 77.5124C123.369 77.4464 123.37 77.3413 123.437 77.2767C123.503 77.2136 123.608 77.2136 123.673 77.2796C123.971 77.5867 124.282 77.8868 124.596 78.1715C124.665 78.2332 124.67 78.3384 124.608 78.4072C124.601 78.4156 124.592 78.4226 124.584 78.4282ZM122.267 75.9486C122.195 76.0019 122.092 75.9893 122.036 75.9177C121.92 75.7705 121.806 75.6218 121.695 75.4731C121.546 75.274 121.399 75.0706 121.26 74.8701C121.21 74.7957 121.226 74.6948 121.298 74.6415C121.3 74.6415 121.301 74.6387 121.304 74.6373C121.38 74.5854 121.484 74.6036 121.536 74.6793C121.672 74.8771 121.817 75.0776 121.963 75.2726C122.073 75.4198 122.185 75.5657 122.299 75.7102C122.357 75.7831 122.344 75.8869 122.271 75.9444C122.271 75.9444 122.268 75.9458 122.267 75.9472V75.9486Z" fill="#91B3FA"/>
<path d="M120.383 73.1103C120.383 73.1103 120.37 73.1187 120.363 73.1229C120.281 73.1678 120.18 73.1383 120.137 73.0571C120.029 72.8609 119.923 72.6634 119.822 72.463C119.78 72.3804 119.814 72.2809 119.895 72.2389C119.978 72.1968 120.078 72.2305 120.12 72.3117C120.22 72.5079 120.322 72.7026 120.429 72.896C120.47 72.9702 120.449 73.0613 120.383 73.1089V73.1103Z" fill="#91B3FA"/>
<path d="M118.695 57.1738C118.654 57.2046 118.599 57.2158 118.547 57.2004C118.459 57.1738 118.41 57.0813 118.436 56.993C118.501 56.7787 118.57 56.5657 118.641 56.3541C118.671 56.2673 118.765 56.2196 118.853 56.2491C118.94 56.2785 118.988 56.3724 118.959 56.4606C118.888 56.6694 118.821 56.8795 118.756 57.0897C118.745 57.1247 118.724 57.1541 118.696 57.1752L118.695 57.1738Z" fill="#91B3FA"/>
<path d="M156.074 52.0709C156.074 52.0709 156.067 52.0765 156.063 52.0779C155.985 52.127 155.881 52.1045 155.832 52.026C155.592 51.6459 155.334 51.27 155.069 50.9068C155.015 50.8325 155.031 50.7301 155.104 50.6754C155.104 50.6754 155.104 50.6754 155.105 50.6754C155.18 50.6207 155.284 50.6375 155.339 50.7119C155.608 51.0807 155.87 51.465 156.115 51.8507C156.161 51.925 156.143 52.0218 156.074 52.0737V52.0709ZM153.899 49.2238C153.831 49.2743 153.734 49.2659 153.675 49.2028C153.373 48.8704 153.054 48.5436 152.729 48.2322C152.663 48.1691 152.66 48.0625 152.725 47.9966C152.788 47.9307 152.895 47.9279 152.961 47.9924C153.291 48.3094 153.615 48.6418 153.923 48.9784C153.985 49.0471 153.98 49.1523 153.911 49.214C153.907 49.2182 153.903 49.221 153.899 49.2238ZM151.261 46.7961C151.202 46.8396 151.119 46.841 151.059 46.7947C150.703 46.5198 150.333 46.2533 149.958 46.0009C149.882 45.949 149.861 45.8452 149.913 45.7695C149.965 45.6937 150.069 45.6727 150.145 45.7246C150.526 45.9812 150.901 46.2519 151.263 46.531C151.336 46.5871 151.35 46.6923 151.292 46.7652C151.282 46.7779 151.271 46.7877 151.26 46.7975L151.261 46.7961ZM148.245 44.855C148.195 44.8929 148.126 44.8999 148.067 44.8691C147.669 44.6587 147.258 44.4581 146.848 44.2744C146.764 44.2365 146.726 44.1384 146.764 44.0542C146.802 43.9701 146.9 43.9322 146.984 43.9701C147.402 44.1566 147.819 44.36 148.223 44.5745C148.305 44.618 148.335 44.719 148.292 44.8003C148.279 44.8228 148.264 44.841 148.244 44.8564L148.245 44.855ZM144.941 43.4582C144.899 43.489 144.843 43.5002 144.79 43.4834C144.361 43.3446 143.922 43.2183 143.486 43.1089C143.396 43.0865 143.343 42.9953 143.365 42.907C143.388 42.8172 143.479 42.7639 143.568 42.7864C144.011 42.8986 144.456 43.0262 144.892 43.1678C144.979 43.1959 145.029 43.2899 144.999 43.3782C144.988 43.4119 144.967 43.4399 144.94 43.461L144.941 43.4582ZM141.448 42.6545C141.414 42.6798 141.37 42.6924 141.324 42.6854C140.878 42.6223 140.424 42.5746 139.974 42.5423C139.881 42.5353 139.813 42.4554 139.82 42.3642C139.827 42.273 139.907 42.2029 139.998 42.2099C140.455 42.2436 140.916 42.2927 141.369 42.3558C141.46 42.3684 141.524 42.4526 141.511 42.5437C141.504 42.59 141.48 42.6279 141.445 42.6545H141.448ZM137.865 42.4666C137.839 42.4862 137.806 42.4989 137.771 42.4989C137.32 42.5143 136.864 42.5451 136.417 42.59C136.326 42.5998 136.243 42.5325 136.234 42.4413C136.224 42.3502 136.292 42.2674 136.383 42.259C136.839 42.2141 137.301 42.1819 137.76 42.1665C137.853 42.1637 137.93 42.2352 137.933 42.3277C137.934 42.3838 137.907 42.4357 137.865 42.4666ZM119.72 54.4804C119.672 54.5154 119.607 54.5252 119.55 54.4986C119.465 54.4593 119.429 54.3611 119.468 54.277C119.661 53.8633 119.869 53.4495 120.088 53.0484C120.133 52.9671 120.234 52.9376 120.315 52.9825C120.396 53.026 120.426 53.1283 120.381 53.2083C120.166 53.6038 119.96 54.0105 119.771 54.4186C119.758 54.4453 119.741 54.4663 119.718 54.4818L119.72 54.4804ZM134.303 42.8958C134.284 42.9098 134.262 42.9196 134.236 42.9252C133.795 43.0178 133.352 43.1258 132.918 43.2464C132.829 43.2716 132.736 43.2197 132.712 43.13C132.687 43.0416 132.741 42.949 132.829 42.9252C133.271 42.8018 133.72 42.6924 134.169 42.5984C134.259 42.5802 134.348 42.6377 134.367 42.7275C134.381 42.7934 134.355 42.8579 134.304 42.8958H134.303ZM121.5 51.3724C121.444 51.4145 121.365 51.4173 121.304 51.3752C121.228 51.3233 121.209 51.2196 121.262 51.1438C121.522 50.768 121.799 50.3949 122.083 50.0373C122.14 49.9657 122.245 49.9531 122.318 50.0106C122.39 50.0681 122.402 50.1733 122.345 50.2448C122.065 50.5968 121.794 50.9629 121.538 51.3332C121.527 51.3486 121.514 51.3612 121.5 51.3724ZM130.866 43.928C130.855 43.9364 130.842 43.9434 130.828 43.949C130.409 44.1159 129.99 44.2982 129.584 44.4904C129.501 44.5297 129.401 44.4946 129.362 44.4119C129.323 44.3291 129.356 44.2295 129.441 44.1903C129.854 43.9939 130.28 43.8088 130.705 43.6391C130.79 43.6054 130.887 43.6475 130.921 43.7316C130.949 43.8032 130.925 43.8831 130.866 43.9266V43.928ZM123.786 48.6123C123.721 48.66 123.628 48.6558 123.569 48.5969C123.503 48.5324 123.503 48.4272 123.568 48.3613C123.89 48.0359 124.226 47.7161 124.568 47.4132C124.638 47.3501 124.742 47.3585 124.804 47.4272C124.866 47.4959 124.859 47.6011 124.79 47.6628C124.452 47.9616 124.122 48.2757 123.806 48.5955C123.8 48.6011 123.793 48.6067 123.786 48.6123ZM127.659 45.5338C127.659 45.5338 127.651 45.5395 127.647 45.5423C127.263 45.7779 126.882 46.0303 126.515 46.2912C126.439 46.3445 126.335 46.3277 126.282 46.2519C126.228 46.1776 126.246 46.0794 126.321 46.0191C126.695 45.754 127.082 45.4988 127.471 45.259C127.55 45.2113 127.652 45.2351 127.702 45.3137C127.748 45.388 127.728 45.4834 127.659 45.5352V45.5338Z" fill="#91B3FA"/>
<path d="M157.448 54.6199C157.438 54.6269 157.428 54.6325 157.417 54.6381C157.333 54.6759 157.234 54.6381 157.197 54.554C157.107 54.3537 157.013 54.1547 156.916 53.9558C156.875 53.8731 156.909 53.7736 156.993 53.733C157.076 53.6924 157.176 53.7274 157.216 53.8101C157.315 54.0104 157.41 54.2136 157.503 54.4167C157.535 54.4896 157.511 54.5722 157.451 54.6185L157.448 54.6199Z" fill="#91B3FA"/>
<path d="M153.677 58.3385C153.658 58.2347 153.573 58.1548 153.468 58.1393L150.469 57.7158C149.891 56.4283 149.102 55.2235 148.114 54.1576L148.898 51.2419C148.927 51.1395 148.886 51.0315 148.797 50.9712L145.787 48.9418C145.698 48.8829 145.583 48.8857 145.499 48.9488L143.079 50.7622C141.72 50.2447 140.304 49.9656 138.891 49.9109L137.378 47.2938C137.325 47.2027 137.219 47.1536 137.115 47.1746L133.548 47.8633C133.444 47.8829 133.364 47.967 133.349 48.0722L132.924 51.0637C131.633 51.6402 130.426 52.427 129.357 53.4129L126.434 52.6303C126.331 52.6023 126.223 52.643 126.163 52.7313L124.128 55.734C124.069 55.8224 124.072 55.9374 124.135 56.0216L125.955 58.4353C125.436 59.7915 125.156 61.2038 125.101 62.6133L122.478 64.1238C122.386 64.1771 122.337 64.2822 122.358 64.386L123.048 67.9442C123.068 68.0479 123.152 68.1279 123.258 68.1433L126.257 68.5669C126.835 69.8544 127.623 71.0591 128.612 72.125L127.827 75.0408C127.799 75.1432 127.84 75.2511 127.929 75.3114L130.939 77.3409C131.027 77.3998 131.143 77.397 131.227 77.3339L133.647 75.519C135.006 76.0365 136.422 76.3156 137.835 76.3703L139.348 78.9874C139.401 79.0786 139.507 79.1276 139.611 79.1066L143.178 78.418C143.282 78.3983 143.362 78.3142 143.377 78.209L143.802 75.2175C145.093 74.6411 146.3 73.8543 147.369 72.8683L150.292 73.6509C150.394 73.679 150.503 73.6383 150.562 73.5499L152.596 70.5472C152.655 70.4588 152.652 70.3438 152.589 70.2597L150.77 67.846C151.289 66.4898 151.568 65.0775 151.623 63.668L154.247 62.1589C154.338 62.1056 154.387 62.0004 154.366 61.8966L153.676 58.3385H153.677Z" fill="#91B3FA"/>
<path d="M140.394 65.8515C139.51 66.5093 138.322 66.7252 137.209 66.3241C136.357 66.017 135.676 65.3971 135.292 64.578C134.906 63.759 134.864 62.8403 135.172 61.9904C135.48 61.1405 136.102 60.4603 136.923 60.0774C137.744 59.6931 138.665 59.6511 139.517 59.9582C141.275 60.5921 142.189 62.5374 141.554 64.2919C141.32 64.9371 140.909 65.4686 140.394 65.8515ZM136.529 60.6987C136.054 61.0522 135.692 61.536 135.486 62.104C135.207 62.8712 135.247 63.6987 135.593 64.4364C135.94 65.1741 136.554 65.7337 137.322 66.01C138.908 66.5822 140.665 65.7603 141.239 64.1783C141.813 62.5963 140.989 60.8432 139.403 60.271C138.635 59.9933 137.804 60.0311 137.065 60.3776C136.873 60.4673 136.695 60.5739 136.53 60.6973L136.529 60.6987Z" fill="#BDD0FB"/>
<path d="M143.635 70.3032C140.674 72.5051 136.517 72.7225 133.288 70.5472C132.435 69.9722 131.714 69.2751 131.13 68.4953C128.924 65.5417 128.705 61.3959 130.887 58.1758C132.223 56.2039 134.249 54.8687 136.591 54.4157C138.933 53.9627 141.312 54.448 143.29 55.7803C143.773 56.1057 144.223 56.4774 144.632 56.8855C144.67 56.9234 144.708 56.9626 144.746 57.0019C144.75 57.0075 144.756 57.0117 144.76 57.0173C144.809 57.0832 144.803 57.1786 144.741 57.2375C144.677 57.2992 144.569 57.2992 144.505 57.2319C144.083 56.7943 143.612 56.3974 143.105 56.0552C141.201 54.7719 138.912 54.3063 136.657 54.7411C134.402 55.1773 132.452 56.4619 131.167 58.3609C129.068 61.4604 129.277 65.4519 131.402 68.2948C131.963 69.0465 132.657 69.7169 133.478 70.2709C137.407 72.9188 142.763 71.8838 145.418 67.9652C146.291 66.6763 146.796 65.1798 146.88 63.6357C146.886 63.5431 146.964 63.473 147.056 63.4786C147.108 63.4814 147.153 63.5067 147.181 63.5459C147.203 63.5768 147.216 63.6147 147.213 63.6553C147.126 65.2598 146.602 66.8152 145.695 68.1545C145.118 69.0044 144.419 69.7253 143.638 70.306L143.635 70.3032Z" fill="#BDD0FB"/>
<path d="M182.091 44.9148C182.07 44.9429 182.036 44.9611 181.998 44.9625C181.931 44.9653 181.874 44.9134 181.871 44.8448C181.864 44.6837 181.856 44.5225 181.843 44.3614C181.839 44.2942 181.889 44.2353 181.956 44.2311C182.023 44.2255 182.082 44.2774 182.086 44.3446C182.099 44.5085 182.107 44.6725 182.114 44.8364C182.114 44.8658 182.106 44.8938 182.089 44.9148H182.091Z" fill="#91B3FA"/>
<path d="M179.314 54.2926C179.274 54.3445 179.2 54.3571 179.145 54.3178C179.09 54.2785 179.076 54.2028 179.115 54.1481C179.295 53.8929 179.471 53.6292 179.636 53.3641C179.671 53.3066 179.747 53.2884 179.804 53.3249C179.862 53.3599 179.88 53.4356 179.844 53.4931C179.676 53.7638 179.499 54.0317 179.315 54.2898C179.315 54.2898 179.314 54.2926 179.312 54.2926H179.314ZM178.359 55.5029C178.359 55.5029 178.356 55.5071 178.353 55.5099C178.144 55.7498 177.925 55.984 177.701 56.2098C177.653 56.2575 177.576 56.2575 177.528 56.2098C177.48 56.1621 177.477 56.0864 177.528 56.0373C177.747 55.8157 177.964 55.5843 178.171 55.3486C178.216 55.2982 178.293 55.2925 178.343 55.3374C178.393 55.3795 178.4 55.4524 178.36 55.5029H178.359ZM180.579 52.151C180.544 52.1958 180.482 52.2127 180.429 52.1874C180.368 52.158 180.343 52.085 180.371 52.0247C180.507 51.7442 180.635 51.4553 180.755 51.165C180.78 51.1019 180.852 51.0724 180.915 51.0977C180.978 51.1229 181.008 51.1945 180.982 51.2576C180.862 51.5521 180.731 51.8452 180.593 52.1313C180.589 52.1383 180.585 52.1454 180.58 52.1524L180.579 52.151ZM176.571 57.235C176.565 57.242 176.558 57.249 176.551 57.256C176.306 57.458 176.05 57.6543 175.793 57.8409C175.738 57.8801 175.662 57.8675 175.622 57.8128C175.582 57.7581 175.593 57.6824 175.65 57.6417C175.904 57.458 176.154 57.2645 176.396 57.0667C176.448 57.0232 176.526 57.0316 176.569 57.0835C176.606 57.1284 176.606 57.1915 176.572 57.235H176.571ZM181.477 49.8312C181.448 49.8705 181.396 49.8887 181.345 49.8747C181.281 49.8551 181.243 49.7878 181.262 49.7232L181.288 49.6391C181.366 49.367 181.438 49.0893 181.503 48.813C181.518 48.7471 181.584 48.7064 181.649 48.7219C181.715 48.7373 181.756 48.8018 181.74 48.8677C181.676 49.1482 181.603 49.4301 181.522 49.7064L181.497 49.792C181.493 49.806 181.486 49.82 181.477 49.8312ZM174.525 58.6543C174.515 58.6669 174.504 58.6782 174.488 58.6866C174.213 58.8465 173.929 58.9979 173.645 59.1396C173.584 59.1704 173.511 59.1452 173.48 59.0849C173.449 59.0246 173.475 58.9517 173.535 58.9208C173.815 58.782 174.093 58.6319 174.365 58.4748C174.424 58.4411 174.498 58.4608 174.532 58.5197C174.557 58.5632 174.553 58.6165 174.523 58.6543H174.525ZM181.988 47.3979C181.962 47.4316 181.92 47.4512 181.875 47.4456C181.808 47.4372 181.76 47.3755 181.768 47.3096C181.808 46.9996 181.837 46.684 181.856 46.3727C181.86 46.3054 181.917 46.2535 181.985 46.2577C182.052 46.2619 182.104 46.3194 182.1 46.3867C182.081 46.7037 182.051 47.0234 182.012 47.3376C182.009 47.36 182 47.3797 181.988 47.3965V47.3979ZM172.274 59.7216C172.26 59.7399 172.242 59.7539 172.219 59.7623C171.921 59.8745 171.616 59.9797 171.314 60.0736C171.249 60.0933 171.18 60.0582 171.16 59.9937C171.141 59.9292 171.176 59.8605 171.242 59.8408C171.54 59.7483 171.84 59.6459 172.133 59.5351C172.197 59.5112 172.267 59.5435 172.291 59.6066C172.306 59.6473 172.298 59.6922 172.274 59.7244V59.7216ZM169.88 60.4088C169.863 60.4313 169.836 60.4481 169.806 60.4551C169.494 60.5182 169.177 60.5715 168.862 60.6136C168.794 60.6234 168.732 60.5757 168.724 60.5084C168.715 60.4411 168.762 60.3794 168.829 60.371C169.139 60.3289 169.451 60.2756 169.759 60.2153C169.825 60.2013 169.889 60.2448 169.903 60.3107C169.911 60.3471 169.902 60.3822 169.881 60.4088H169.88ZM167.407 60.6964C167.385 60.7244 167.352 60.744 167.312 60.744C166.996 60.7553 166.674 60.7553 166.355 60.7454C166.287 60.744 166.234 60.6865 166.235 60.6192C166.237 60.5519 166.294 60.4986 166.362 60.5C166.675 60.5084 166.992 60.5084 167.304 60.4986C167.371 60.4958 167.428 60.5491 167.43 60.6164C167.43 60.6459 167.422 60.6725 167.405 60.695L167.407 60.6964ZM164.918 60.5743C164.893 60.608 164.849 60.6276 164.804 60.622C164.489 60.5799 164.171 60.5281 163.859 60.4677C163.793 60.4551 163.75 60.3906 163.762 60.3247C163.775 60.2588 163.84 60.2153 163.906 60.2279C164.212 60.2882 164.526 60.3387 164.835 60.3808C164.902 60.3892 164.949 60.4509 164.94 60.5182C164.938 60.5407 164.929 60.5603 164.917 60.5757L164.918 60.5743ZM162.483 60.0484C162.453 60.0877 162.4 60.1073 162.349 60.0919C162.043 59.9993 161.738 59.8969 161.441 59.7861C161.378 59.7623 161.345 59.6922 161.369 59.6291C161.393 59.5659 161.463 59.5337 161.527 59.5575C161.819 59.6655 162.119 59.7665 162.421 59.8577C162.486 59.8773 162.522 59.946 162.503 60.0105C162.498 60.0246 162.491 60.0372 162.483 60.0484ZM160.163 59.1368C160.128 59.1831 160.065 59.1985 160.011 59.1718C159.727 59.033 159.443 58.8815 159.165 58.723C159.106 58.6894 159.086 58.6151 159.12 58.5562C159.154 58.4972 159.228 58.4776 159.287 58.5113C159.56 58.6669 159.84 58.8156 160.119 58.9531C160.18 58.9825 160.205 59.0554 160.176 59.1171C160.171 59.1242 160.167 59.1312 160.163 59.1368ZM158.025 57.8591C157.985 57.911 157.909 57.9236 157.856 57.8844C157.745 57.8044 157.634 57.7231 157.524 57.6403C157.379 57.5295 157.234 57.4173 157.095 57.3023C157.045 57.2602 157.036 57.1859 157.076 57.134C157.076 57.134 157.077 57.1312 157.078 57.1298C157.122 57.0779 157.198 57.0695 157.251 57.113C157.388 57.2252 157.53 57.336 157.673 57.4454C157.78 57.5267 157.89 57.6067 157.999 57.6852C158.054 57.7245 158.067 57.8016 158.027 57.8563C158.027 57.8563 158.027 57.8577 158.026 57.8591H158.025Z" fill="#91B3FA"/>
<path d="M156.121 56.2427C156.121 56.2427 156.114 56.2511 156.11 56.2553C156.062 56.303 155.985 56.303 155.937 56.2553C155.82 56.1391 155.707 56.0214 155.594 55.9009C155.548 55.8518 155.551 55.7748 155.6 55.7286C155.649 55.6823 155.726 55.6851 155.773 55.7342C155.882 55.8518 155.995 55.9681 156.11 56.083C156.153 56.1264 156.158 56.1951 156.121 56.2427Z" fill="#91B3FA"/>
<path d="M151.683 45.3551C151.661 45.3845 151.624 45.4041 151.584 45.4027C151.517 45.4027 151.462 45.3467 151.463 45.2794C151.465 45.1155 151.47 44.9516 151.477 44.7877C151.48 44.7204 151.538 44.6686 151.605 44.6714C151.672 44.6742 151.724 44.7316 151.721 44.7989C151.714 44.96 151.71 45.1225 151.707 45.2836C151.707 45.3102 151.697 45.3355 151.682 45.3565L151.683 45.3551Z" fill="#91B3FA"/>
<path d="M176.987 34.1807C176.987 34.1807 176.983 34.1863 176.982 34.1877C176.937 34.2382 176.859 34.2424 176.809 34.1975C176.561 33.9787 176.304 33.7655 176.043 33.5636C175.989 33.5229 175.979 33.4458 176.02 33.3925C176.061 33.3392 176.138 33.3294 176.192 33.3714C176.457 33.5776 176.719 33.7936 176.971 34.0166C177.018 34.0587 177.025 34.1316 176.987 34.1821V34.1807ZM174.874 32.6155C174.836 32.6646 174.766 32.6786 174.713 32.645C174.431 32.4724 174.14 32.307 173.848 32.1527C173.787 32.1218 173.765 32.0475 173.797 31.9872C173.828 31.9283 173.903 31.9044 173.963 31.9367C174.261 32.0938 174.556 32.2621 174.842 32.4374C174.9 32.4724 174.918 32.5482 174.883 32.6057C174.88 32.6085 174.878 32.6127 174.876 32.6155H174.874ZM172.521 31.4388C172.488 31.4809 172.431 31.4991 172.377 31.4781C172.071 31.3575 171.756 31.2439 171.439 31.1415C171.375 31.1204 171.34 31.0517 171.361 30.9872C171.382 30.9227 171.451 30.8876 171.515 30.9087C171.836 31.0124 172.156 31.1261 172.467 31.2495C172.53 31.2747 172.561 31.3448 172.536 31.408C172.532 31.4192 172.526 31.4276 172.519 31.4374L172.521 31.4388ZM170 30.6829C169.972 30.7193 169.925 30.739 169.877 30.7291C169.554 30.6618 169.224 30.6043 168.897 30.5566C168.83 30.5468 168.784 30.4851 168.793 30.4192C168.803 30.3519 168.865 30.3056 168.933 30.3154C169.264 30.3617 169.6 30.4206 169.929 30.4893C169.996 30.5033 170.038 30.5679 170.024 30.6338C170.019 30.652 170.012 30.6688 170.001 30.6829H170ZM167.387 30.3687C167.364 30.3996 167.327 30.4178 167.286 30.4164C166.956 30.4052 166.621 30.4052 166.291 30.4164C166.223 30.4192 166.167 30.3659 166.164 30.2986C166.161 30.2313 166.215 30.1752 166.282 30.1724C166.617 30.1611 166.957 30.1611 167.293 30.1724C167.361 30.1752 167.414 30.2313 167.411 30.2986C167.411 30.3252 167.402 30.3491 167.386 30.3687H167.387ZM164.761 30.5104C164.743 30.5356 164.715 30.5524 164.681 30.558C164.355 30.6043 164.024 30.6618 163.701 30.7305C163.635 30.7446 163.57 30.7025 163.556 30.6366C163.542 30.5707 163.584 30.5061 163.65 30.4921C163.979 30.4234 164.314 30.3645 164.647 30.3168C164.715 30.307 164.777 30.3533 164.786 30.4206C164.791 30.4543 164.782 30.4865 164.763 30.5118L164.761 30.5104ZM162.198 31.1036C162.184 31.1232 162.163 31.1373 162.139 31.1457C161.824 31.2481 161.509 31.3617 161.203 31.4837C161.139 31.5089 161.069 31.4781 161.044 31.415C161.018 31.3519 161.049 31.2817 161.113 31.2565C161.425 31.1317 161.744 31.0167 162.064 30.9129C162.129 30.8918 162.198 30.9269 162.219 30.9914C162.232 31.0307 162.223 31.0728 162.201 31.1036H162.198ZM151.859 43.2492C151.832 43.2843 151.788 43.3039 151.742 43.2955C151.674 43.2857 151.629 43.2226 151.639 43.1566C151.69 42.8257 151.753 42.4919 151.826 42.1651C151.842 42.0992 151.906 42.0571 151.973 42.0725C152.039 42.0865 152.081 42.1525 152.065 42.2184C151.994 42.5409 151.932 42.8691 151.881 43.1945C151.878 43.2155 151.87 43.2338 151.857 43.2492H151.859ZM159.776 32.1288C159.766 32.1429 159.752 32.1541 159.735 32.1625C159.442 32.3168 159.153 32.4823 158.87 32.6562C158.813 32.6912 158.737 32.6744 158.701 32.6169C158.666 32.5594 158.685 32.4837 158.741 32.4486C159.026 32.2733 159.321 32.1036 159.62 31.9465C159.68 31.9143 159.753 31.9381 159.785 31.997C159.808 32.0405 159.802 32.091 159.774 32.1288H159.776ZM152.48 40.6981C152.449 40.7387 152.394 40.757 152.344 40.7401C152.279 40.7191 152.245 40.649 152.266 40.5859C152.373 40.2675 152.493 39.9491 152.619 39.6392C152.645 39.5775 152.716 39.5466 152.78 39.5719C152.843 39.5971 152.872 39.6686 152.847 39.7318C152.722 40.0361 152.605 40.3503 152.5 40.663C152.496 40.6756 152.488 40.6883 152.481 40.6981H152.48ZM157.564 33.5524C157.557 33.5608 157.55 33.5678 157.542 33.5748C157.28 33.7768 157.023 33.9899 156.775 34.2087C156.725 34.2536 156.647 34.2494 156.602 34.1989C156.557 34.1484 156.562 34.0713 156.612 34.0264C156.864 33.8034 157.125 33.5874 157.391 33.3813C157.445 33.3406 157.522 33.349 157.563 33.4023C157.598 33.4472 157.596 33.5075 157.563 33.551L157.564 33.5524ZM153.529 38.29C153.492 38.3377 153.426 38.3531 153.373 38.3236C153.314 38.2914 153.291 38.2171 153.324 38.1582C153.484 37.8636 153.655 37.5705 153.835 37.2872C153.872 37.2283 153.948 37.2129 154.004 37.2493C154.062 37.2858 154.079 37.3615 154.042 37.4176C153.866 37.6967 153.696 37.9842 153.539 38.2746C153.536 38.2802 153.532 38.2858 153.529 38.29ZM155.631 35.3363C155.631 35.3363 155.627 35.3419 155.624 35.3448C155.402 35.5888 155.185 35.844 154.978 36.1021C154.936 36.1554 154.859 36.1638 154.806 36.1217C154.752 36.0797 154.746 36.0067 154.786 35.9506C154.995 35.6884 155.216 35.4289 155.441 35.1821C155.486 35.1316 155.565 35.1288 155.614 35.1736C155.662 35.2171 155.667 35.2887 155.629 35.3377L155.631 35.3363Z" fill="#91B3FA"/>
<path d="M178.474 35.6973C178.474 35.6973 178.463 35.7113 178.456 35.7169C178.404 35.7603 178.327 35.7547 178.283 35.7029C178.178 35.5796 178.071 35.4591 177.963 35.3386C177.918 35.2882 177.921 35.2111 177.972 35.1663C178.022 35.1215 178.099 35.1243 178.144 35.1747C178.255 35.2966 178.363 35.4199 178.47 35.5446C178.508 35.5894 178.508 35.6525 178.474 35.6973Z" fill="#91B3FA"/>
<path d="M176.576 39.0839C176.54 39.0152 176.465 38.9759 176.387 38.9857L174.187 39.2943C173.516 38.5046 172.716 37.8146 171.802 37.2634L171.762 35.0489C171.76 34.9718 171.71 34.903 171.635 34.8792L169.1 34.0601C169.026 34.0363 168.945 34.0615 168.898 34.1233L167.562 35.8918C166.498 35.8034 165.445 35.8918 164.437 36.14L162.837 34.6029C162.78 34.5496 162.696 34.537 162.627 34.5721L160.254 35.781C160.185 35.8161 160.146 35.8918 160.155 35.9689L160.465 38.1638C159.673 38.8328 158.981 39.6308 158.429 40.5425L156.209 40.5831C156.132 40.5845 156.063 40.635 156.039 40.7094L155.218 43.2381C155.194 43.3124 155.219 43.3923 155.281 43.44L157.054 44.7724C156.965 45.8341 157.054 46.8845 157.303 47.8901L155.762 49.4862C155.708 49.5423 155.696 49.6264 155.731 49.6951L156.943 52.0626C156.978 52.1313 157.054 52.1705 157.131 52.1607L159.331 51.8522C160.001 52.6418 160.802 53.3318 161.716 53.883L161.757 56.0975C161.758 56.1747 161.809 56.2434 161.883 56.2672L164.418 57.0863C164.493 57.1101 164.573 57.0849 164.621 57.0232L165.956 55.2546C167.021 55.343 168.074 55.2546 169.082 55.0064L170.682 56.5435C170.738 56.5968 170.822 56.6094 170.891 56.5744L173.265 55.3654C173.333 55.3304 173.373 55.2546 173.363 55.1775L173.054 52.9826C173.845 52.315 174.537 51.5156 175.089 50.604L177.31 50.5633C177.387 50.5633 177.456 50.5114 177.48 50.4371L178.301 47.9084C178.325 47.834 178.299 47.7541 178.237 47.7064L176.465 46.374C176.553 45.3124 176.465 44.2619 176.216 43.2563L177.757 41.6603C177.81 41.6042 177.823 41.52 177.788 41.4513L176.576 39.0839Z" fill="#91B3FA"/>
<path d="M168.745 47.071C168.256 47.7133 167.463 48.1074 166.597 48.0499C165.933 48.0065 165.327 47.7077 164.889 47.2084C164.45 46.7092 164.234 46.071 164.277 45.4091C164.321 44.7471 164.62 44.1426 165.121 43.705C165.621 43.2688 166.261 43.0515 166.925 43.0949C168.294 43.1861 169.334 44.3698 169.243 45.7358C169.209 46.2379 169.028 46.6965 168.744 47.0696L168.745 47.071ZM164.972 44.2225C164.709 44.5676 164.553 44.9827 164.523 45.4245C164.484 46.0205 164.679 46.597 165.074 47.0472C165.469 47.4974 166.016 47.7666 166.614 47.8059C167.848 47.8873 168.918 46.9518 169.001 45.7204C169.083 44.489 168.145 43.4217 166.911 43.339C166.313 43.2997 165.735 43.4946 165.284 43.8887C165.167 43.9911 165.063 44.1019 164.972 44.2225Z" fill="#BDD0FB"/>
<path d="M171.935 49.5521C170.297 51.7049 167.412 52.7007 164.693 51.8213C163.975 51.5885 163.324 51.2435 162.754 50.8129C160.598 49.179 159.599 46.3011 160.479 43.5887C161.019 41.9281 162.175 40.5761 163.733 39.7823C165.292 38.9885 167.068 38.8483 168.732 39.3854C169.139 39.5172 169.531 39.6869 169.902 39.8931C169.937 39.9127 169.971 39.9324 170.006 39.952C170.01 39.9548 170.015 39.9576 170.019 39.9604C170.068 39.9969 170.082 40.0656 170.051 40.1189C170.019 40.1764 169.942 40.1975 169.884 40.1638C169.497 39.9408 169.085 39.7571 168.656 39.6182C167.054 39.1007 165.345 39.2353 163.844 39.9997C162.344 40.7641 161.232 42.0656 160.711 43.663C159.864 46.2731 160.824 49.043 162.9 50.6166C163.449 51.0317 164.076 51.3641 164.766 51.5871C168.074 52.6572 171.639 50.841 172.71 47.5423C173.063 46.4568 173.113 45.2997 172.857 44.1946C172.842 44.1286 172.883 44.0627 172.949 44.0473C172.985 44.0389 173.022 44.0473 173.05 44.0683C173.073 44.0852 173.089 44.109 173.095 44.1385C173.361 45.2871 173.307 46.489 172.942 47.6166C172.71 48.3333 172.364 48.9813 171.931 49.5493L171.935 49.5521Z" fill="#BDD0FB"/>
<path d="M240.646 172.667C240.646 174.422 239.205 175.858 237.445 175.858H64.2895C62.5278 175.858 61.0881 174.422 61.0881 172.667L59.647 73.4057C59.647 71.6512 61.7194 68.2249 65.5183 68.4816L234.743 64.1142C236.953 64.0567 239.088 64.9052 240.653 66.462C242.218 68.0173 243.074 70.1449 243.022 72.3468L240.645 172.667H240.646Z" fill="url(#paint1_linear_979_9128)"/>
<path d="M237.485 169.606C237.485 171.268 236.122 172.628 234.456 172.628H68.4663C66.8003 172.628 65.4365 171.268 65.4365 169.606L64.0769 79.4955C64.2372 74.0735 69.0034 72.124 71.8912 72.239L234.083 67.8983C235.635 67.8563 237.137 68.4523 238.236 69.5477C239.336 70.6416 239.936 72.1395 239.897 73.6878L237.484 169.606H237.485Z" fill="url(#paint2_linear_979_9128)"/>
<path opacity="0.37" d="M67.2326 126.639C67.0765 126.639 66.9486 126.514 66.9472 126.358L66.8389 119.05C66.8361 118.893 66.9626 118.762 67.1201 118.761C67.2734 118.752 67.4083 118.884 67.4097 119.041L67.518 126.35C67.5208 126.507 67.3943 126.637 67.2368 126.639H67.2326Z" fill="white"/>
<path opacity="0.37" d="M66.9679 108.732C66.8118 108.732 66.6839 108.607 66.6825 108.451L66.2705 80.4629C66.2789 78.5808 66.861 77.0787 67.9984 75.9904C70.0666 74.0129 73.3017 74.1125 73.4381 74.1181L125.23 72.731C125.386 72.717 125.519 72.8502 125.523 73.0087C125.528 73.1658 125.402 73.2976 125.245 73.3018L73.4381 74.6889C73.2905 74.6833 70.2916 74.5921 68.3963 76.4027C67.3742 77.3803 66.8512 78.7449 66.8441 80.4615L67.2561 108.444C67.2589 108.601 67.1324 108.732 66.9749 108.733H66.9707L66.9679 108.732Z" fill="white"/>
<path opacity="0.29" d="M72.7498 164.607C72.9241 157.16 72.8594 91.2074 72.4306 85.5119C72.0018 79.8164 80.8945 78.7477 94.5478 78.1067C108.201 77.4658 223.399 74.9273 226.365 74.6875C233.032 74.1475 234.413 84.0884 233.745 105.67C233.245 121.883 232.414 148.592 232.031 160.873C231.917 164.531 228.921 167.433 225.253 167.443C197.532 167.519 91.2846 167.823 84.2112 168.033C76.0721 168.274 72.6809 167.561 72.7498 164.607Z" fill="white"/>
<path d="M250.321 184.098H54.9236C52.5194 184.098 50.5525 182.135 50.5525 179.737C50.5525 177.339 52.5194 175.377 54.9236 175.377H250.321C252.726 175.377 254.693 177.339 254.693 179.737C254.693 182.135 252.726 184.098 250.321 184.098Z" fill="url(#paint3_linear_979_9128)"/>
<path d="M123.622 118.384H183.111C183.748 118.384 184.082 117.629 183.654 117.159L153.874 84.5389C153.583 84.2191 153.08 84.2205 152.789 84.5389L123.081 117.159C122.652 117.629 122.986 118.384 123.623 118.384H123.622Z" fill="url(#paint4_linear_979_9128)"/>
<path d="M126.659 118.384V151.849C126.659 152.627 127.291 153.26 128.073 153.26H141.615C141.918 153.26 142.162 153.016 142.162 152.714V132.266C142.162 132.048 142.339 131.872 142.557 131.872H152.997C153.202 131.872 153.368 132.037 153.368 132.242V152.798C153.368 153.052 153.574 153.258 153.829 153.258H178.454C179.309 153.258 180.002 152.567 180.002 151.714V118.383H126.66L126.659 118.384Z" fill="url(#paint5_linear_979_9128)"/>
<path d="M179.203 33.8386C179.173 33.8933 177.339 35.2411 177.339 35.2411C177.339 35.2411 177.744 38.133 179.389 39.2746C181.198 40.5299 183.753 38.241 183.753 38.241C183.753 38.241 185.786 38.7234 186.867 34.5019C187.114 33.5328 185.683 33.4515 183.955 33.6296C181.727 33.8596 179.203 33.84 179.203 33.84V33.8386Z" fill="url(#paint6_linear_979_9128)"/>
<path d="M175.772 43.7037C176.49 43.2114 177.283 42.8398 178.124 42.6112C178.44 42.5256 180.146 43.0207 181.202 42.9954C182.65 42.9618 184.123 42.3054 185.317 42.6013C186.502 42.8959 187.472 43.2816 188.033 43.6785C189.71 44.8678 190.695 47.0865 191.295 49.2842C190.159 50.4483 188.729 50.9644 188.729 50.9644L188.465 61.6458L182.132 64.8772L174.906 61.2573L175.164 50.8186C175.164 50.8186 172.87 49.7527 172.701 49.3642C172.532 48.9757 173.747 45.0894 175.772 43.7009V43.7037Z" fill="url(#paint7_linear_979_9128)"/>
<path d="M172.808 49.3206C172.808 49.3206 169.734 57.8253 176.746 61.3217C178.203 61.1281 177.642 58.7159 177.642 58.7159C177.642 58.7159 174.595 58.0427 175.511 50.9489C174.668 50.2574 172.808 49.3206 172.808 49.3206Z" fill="url(#paint8_linear_979_9128)"/>
<path d="M191.147 49.3206C191.147 49.3206 193.263 58.1983 187.209 61.3217C185.753 61.1281 186.313 58.7159 186.313 58.7159C186.313 58.7159 188.77 57.5097 188.445 50.9489C189.287 50.2574 191.147 49.3206 191.147 49.3206Z" fill="url(#paint9_linear_979_9128)"/>
<path d="M187.538 52.5647H175.995C175.348 52.5647 174.824 53.0878 174.824 53.733V60.7511C174.824 61.3963 175.348 61.9193 175.995 61.9193H187.538C188.185 61.9193 188.709 61.3963 188.709 60.7511V53.733C188.709 53.0878 188.185 52.5647 187.538 52.5647Z" fill="url(#paint10_linear_979_9128)"/>
<path d="M194.799 64.6919C193.21 64.3286 189.538 64.5236 189.538 64.5236L189.389 64.9275L189.142 66.933C189.142 66.933 192.64 67.5614 194.363 67.56C194.539 67.56 194.701 67.5333 194.847 67.4884C194.899 67.4407 194.951 67.3931 194.999 67.3398C195.73 66.5432 195.519 65.3721 194.799 64.6919Z" fill="url(#paint11_linear_979_9128)"/>
<path d="M188.482 64.41L189.103 64.4367C189.438 64.4507 189.753 64.6134 189.976 64.8869C190.201 65.1604 190.317 65.5236 190.297 65.8925C190.281 66.187 190.161 66.4619 189.961 66.6582C189.761 66.8532 189.5 66.9528 189.233 66.9345L188.281 66.8672L188.48 64.4114L188.482 64.41Z" fill="url(#paint12_linear_979_9128)"/>
<path d="M167.57 64.4987C169.167 64.1831 172.834 64.4916 172.834 64.4916L172.973 64.8998L173.17 66.9123C173.17 66.9123 169.658 67.4341 167.934 67.3794C167.758 67.3738 167.598 67.3429 167.452 67.2924C167.4 67.2433 167.351 67.1928 167.303 67.1396C166.592 66.3205 166.832 65.1564 167.569 64.4987H167.57Z" fill="url(#paint13_linear_979_9128)"/>
<path d="M173.892 64.4115L173.269 64.4185C172.934 64.4227 172.615 64.5756 172.385 64.8421C172.153 65.1085 172.029 65.4676 172.039 65.8378C172.047 66.1324 172.161 66.4115 172.356 66.6134C172.552 66.8154 172.811 66.922 173.076 66.9107L174.029 66.8729L173.892 64.4115Z" fill="url(#paint14_linear_979_9128)"/>
<path d="M195.243 58.4033C194.522 56.7483 192.76 56.4805 191.26 57.2532C191.233 57.2869 181.733 62.1451 173.355 64.2727C173.595 65.0399 173.718 65.8561 173.744 66.6584C173.749 66.8365 173.746 67.0132 173.736 67.1871C180.161 66.8575 187.133 64.7201 193.126 62.8422C194.984 62.2447 196.042 60.2363 195.243 58.4019V58.4033Z" fill="url(#paint15_linear_979_9128)"/>
<path d="M188.527 66.7857C188.502 65.8615 188.682 65.0004 189.068 64.2038C189.08 64.1673 189.092 64.1322 189.105 64.0958C188.627 63.9485 188.008 63.7479 187.197 63.4731C181.247 61.4422 176.709 59.3918 172.377 57.03C170.694 56.1128 168.78 56.7271 168.242 58.7144C167.761 60.4872 168.817 62.0018 170.42 62.5334C175.214 64.1252 172.719 63.6834 174.285 64.1855C178.49 65.4828 183.724 66.6651 188.538 66.9877C188.534 66.9204 188.53 66.8531 188.529 66.7857H188.527Z" fill="url(#paint16_linear_979_9128)"/>
<path d="M178.126 42.6111C178.126 42.6111 178.766 45.3768 181.873 45.3193C185.036 45.2618 185.319 42.6013 185.319 42.6013L183.252 42.1595L183.079 39.8622L179.971 40.0922L179.913 42.2745L178.126 42.6097V42.6111Z" fill="url(#paint17_linear_979_9128)"/>
<path d="M180.406 33.3547C180.406 33.3547 176.844 40.2396 181.07 41.9099C184.051 43.088 185.921 37.3378 185.362 35.7811C184.501 33.373 183.933 33.6591 183.933 33.6591L180.406 33.3561V33.3547Z" fill="url(#paint18_linear_979_9128)"/>
<path d="M186.22 32.7292C187.98 33.2116 186.476 37.0194 183.826 36.119C181.176 35.2186 180.135 35.2312 179.722 35.9577C179.308 36.6842 179.22 39.2606 178.324 37.9871C177.341 36.5902 176.795 33.7867 177.998 32.882C179.075 32.0742 179.325 30.8218 180.616 30.8653C182.33 30.9228 183.654 30.1654 184.429 30.711C185.317 31.3379 184.924 32.3729 186.22 32.7278V32.7292Z" fill="url(#paint19_linear_979_9128)"/>
<path d="M179.558 36.5498C179.558 36.5498 178.799 35.7349 178.676 36.7167C178.554 37.6998 178.945 38.9663 179.403 38.272C179.86 37.5778 179.558 36.5498 179.558 36.5498Z" fill="url(#paint20_linear_979_9128)"/>
<path d="M182.583 55.0977C182.656 55.5942 182.391 56.0444 181.893 56.1173C181.395 56.1902 180.933 55.848 180.86 55.3515C180.786 54.8551 181.014 54.3628 181.511 54.2884C182.008 54.2155 182.51 54.5998 182.583 55.0963V55.0977Z" fill="url(#paint21_linear_979_9128)"/>
<path d="M112.664 114.377L97.6258 114.894C97.1843 114.914 96.7653 114.748 96.4462 114.443C96.1284 114.136 95.9527 113.725 95.9527 113.283V107.569C95.9527 106.172 95.4044 104.864 94.4075 103.883C93.4346 102.927 92.1622 102.409 90.7928 102.398V85.3494C90.7928 82.4953 88.4645 80.1742 85.6048 80.1742H68.7656V83.7379H85.6048C86.4962 83.7379 87.2217 84.4616 87.2217 85.3508V102.444L41.2327 103.091C40.801 103.088 40.3849 102.932 40.0755 102.627C39.7648 102.321 39.5933 101.913 39.5933 101.478V46.7191H36.0208V101.478C36.0208 102.875 36.5691 104.183 37.5659 105.164C38.5627 106.144 39.8759 106.68 41.2819 106.653L90.7422 105.959C91.1724 105.963 91.59 106.118 91.8993 106.423C92.21 106.729 92.3816 107.137 92.3816 107.572V113.286C92.3816 114.702 92.9439 116.023 93.9647 117.008C94.9418 117.949 96.2142 118.461 97.5639 118.461C97.6258 118.461 97.6862 118.461 97.7481 118.458L112.664 117.945V114.38V114.377Z" fill="url(#paint22_linear_979_9128)"/>
<path d="M112.665 121.392L72.0802 122.084C69.2683 122.131 66.9808 124.454 66.9808 127.259C66.9808 128.148 66.2553 128.872 65.3639 128.872H45.3486V132.435H65.3639C68.225 132.435 70.5519 130.113 70.5519 127.259C70.5519 126.385 71.2647 125.661 72.1406 125.647L112.665 124.956V121.392Z" fill="url(#paint23_linear_979_9128)"/>
<path d="M112.665 128.872H102.334C99.4728 128.872 97.1459 131.193 97.1459 134.047V135.969C97.1459 136.858 96.4205 137.581 95.5291 137.581H64.6275C61.7663 137.581 59.4395 139.902 59.4395 142.757V149.698C59.4395 151.117 60.0032 152.439 61.0282 153.424C62.0053 154.362 63.2749 154.873 64.6232 154.873C64.6893 154.873 64.7554 154.873 64.8215 154.868L82.7264 154.207L82.5942 150.646L64.6893 151.308C64.2464 151.323 63.8275 151.165 63.5083 150.857C63.1892 150.55 63.0134 150.138 63.0134 149.696V142.755C63.0134 141.866 63.7389 141.142 64.6303 141.142H95.5319C98.393 141.142 100.72 138.821 100.72 135.966V134.044C100.72 133.155 101.445 132.431 102.337 132.431H112.668V128.868L112.665 128.872Z" fill="url(#paint24_linear_979_9128)"/>
<path d="M112.664 107.095H104.715C103.824 107.095 103.098 106.372 103.098 105.482V69.0766C103.098 66.2533 100.797 63.9322 97.9678 63.9013C92.2146 63.8396 80.3483 63.8817 73.7867 63.9126H73.7712C71.9758 63.9126 70.5038 62.4596 70.4869 60.6672C70.4602 57.9253 70.4405 54.0993 70.4883 51.4444C70.5038 50.6015 71.1505 49.9213 71.9927 49.8638L91.9067 48.4936L91.6607 44.9382L71.7466 46.3085C69.0416 46.495 66.9649 48.6745 66.9157 51.3799C66.8665 54.0755 66.8876 57.9365 66.9129 60.7009C66.9495 64.4427 70.0215 67.4763 73.7684 67.4763H73.8007C80.3511 67.4455 92.1978 67.4034 97.9256 67.4637C98.8058 67.4735 99.5214 68.1972 99.5214 69.0766V105.482C99.5214 108.337 101.85 110.659 104.709 110.659H112.659V107.095H112.664Z" fill="url(#paint25_linear_979_9128)"/>
<path d="M220.582 37.61V67.9235C220.582 68.7201 219.986 69.4073 219.194 69.5195L211.145 70.6668C208.606 71.0286 206.69 73.2319 206.69 75.7901V103.851C206.69 104.676 206.07 105.364 205.247 105.454L191.905 106.9V110.485L205.632 108.997C208.271 108.711 210.261 106.499 210.261 103.851V75.7901C210.261 74.9921 210.857 74.3062 211.648 74.194L219.698 73.0468C222.237 72.6849 224.153 70.4816 224.153 67.9235V37.61H220.581H220.582Z" fill="url(#paint26_linear_979_9128)"/>
<path d="M244.792 125.832V112.242C244.792 111.361 245.511 110.638 246.394 110.629L252.916 110.572C255.704 110.547 257.962 108.35 258.055 105.57L259.475 63.4073L255.905 63.2881L254.485 105.451C254.455 106.317 253.752 107.001 252.883 107.009L246.361 107.068C243.525 107.094 241.22 109.416 241.22 112.244V125.787L238.538 125.752C237.149 125.733 235.821 126.264 234.825 127.243C233.83 128.224 233.282 129.532 233.282 130.928V157.308C233.282 157.743 233.111 158.15 232.801 158.456C232.49 158.761 232.079 158.921 231.644 158.921L207.491 158.613C206.61 158.602 205.895 157.878 205.895 157V138.01C205.895 135.156 203.567 132.835 200.707 132.835H191.906V136.399H200.707C201.598 136.399 202.324 137.122 202.324 138.012V157.001C202.324 159.819 204.621 162.14 207.446 162.177L231.599 162.485C231.621 162.485 231.644 162.485 231.666 162.485C233.04 162.485 234.33 161.956 235.31 160.993C236.306 160.012 236.854 158.705 236.854 157.31V130.929C236.854 130.494 237.024 130.086 237.335 129.782C237.646 129.476 238.06 129.31 238.492 129.317L265.21 129.668L265.256 126.106L244.792 125.836V125.832Z" fill="url(#paint27_linear_979_9128)"/>
<path d="M222.269 166.503C221.036 166.503 220.032 165.516 220.015 164.286L219.436 122.077L229.181 121.527C231.925 121.371 234.076 119.102 234.076 116.359V101.353H230.504V116.359C230.504 117.213 229.833 117.92 228.978 117.969L191.905 120.061V123.631L215.866 122.277C215.918 126.046 215.97 129.814 216.021 133.583C216.072 137.259 216.562 160.438 216.668 166.502C216.668 168.121 217.984 169.433 219.606 169.433H247.319V166.502H222.268L222.269 166.503Z" fill="url(#paint28_linear_979_9128)"/>
<path d="M45.3893 23.2177L29.0787 23.7562C25.9139 24.2695 23.625 26.6145 23.625 29.3437V44.2957C23.625 47.4373 26.6324 49.9842 30.3413 49.9842H45.0364C48.7453 49.9842 51.7527 47.4373 51.7527 44.2957V30.4812C51.7527 26.9104 49.9488 23.2162 45.3893 23.2177Z" fill="url(#paint29_linear_979_9128)"/>
<path opacity="0.89" d="M45.03 24.3004L29.7823 24.7913C26.8242 25.2583 24.6843 27.3943 24.6843 29.8795V43.4963C24.6843 46.3574 27.4963 48.6772 30.9634 48.6772H44.701C48.1695 48.6772 50.98 46.3574 50.98 43.4963V30.916C50.98 27.6636 49.2943 24.299 45.03 24.3004Z" fill="white"/>
<path d="M46.5977 38.3144C47.6711 33.3702 44.5234 28.4942 39.567 27.4234C34.6107 26.3527 29.7226 29.4926 28.6492 34.4368C27.5757 39.3809 30.7235 44.2569 35.6799 45.3277C40.6362 46.3985 45.5243 43.2585 46.5977 38.3144Z" fill="url(#paint30_linear_979_9128)"/>
<path d="M36.5164 31.4055C36.5164 31.0843 36.6106 30.8304 36.7975 30.6439C36.9845 30.4574 37.2475 30.3634 37.5835 30.3634C37.8998 30.3634 38.1529 30.4574 38.3441 30.6439C38.5339 30.8304 38.6295 31.0843 38.6295 31.4055C38.6295 31.7266 38.5325 31.9917 38.3371 32.174C38.1417 32.3563 37.8914 32.4475 37.5849 32.4475C37.2784 32.4475 37.0056 32.3563 36.8102 32.174C36.6148 31.9917 36.5178 31.735 36.5178 31.4055H36.5164ZM38.5409 41.6479H36.5965V33.5274H38.5409V41.6479Z" fill="url(#paint31_linear_979_9128)"/>
<path d="M271.916 44.1007L255.605 44.6393C252.44 45.1526 250.151 47.4975 250.151 50.2268V65.1788C250.151 68.3204 253.159 70.8673 256.868 70.8673H271.563C275.272 70.8673 278.279 68.3204 278.279 65.1788V51.3642C278.279 47.7935 276.475 44.0993 271.916 44.1007Z" fill="url(#paint32_linear_979_9128)"/>
<path opacity="0.89" d="M271.556 45.1851L256.309 45.6759C253.351 46.143 251.211 48.279 251.211 50.7642V64.381C251.211 67.2421 254.021 69.5618 257.49 69.5618H271.227C274.696 69.5618 277.506 67.2421 277.506 64.381V51.8006C277.506 48.5482 275.821 45.1837 271.556 45.1851Z" fill="white"/>
<path d="M273.11 59.7731C274.511 54.8799 271.67 49.7801 266.764 48.3825C261.859 46.9849 256.747 49.8188 255.346 54.712C253.945 59.6053 256.785 64.7051 261.691 66.1027C266.596 67.5003 271.709 64.6664 273.11 59.7731Z" fill="url(#paint33_linear_979_9128)"/>
<path d="M259.419 54.3487C260.139 59.5561 262.804 61.9965 266.413 63.096L268.496 61.4257C264.702 59.8941 262.039 57.1733 260.908 52.8368L259.421 54.3473L259.419 54.3487Z" fill="url(#paint34_linear_979_9128)"/>
<path d="M266.286 63.0565C268.482 63.4169 268.744 63.4365 270.541 62.2486C270.742 62.1154 270.761 61.8251 270.577 61.6694L267.403 58.9696C267.279 58.8644 267.088 58.9065 267.02 59.0552L266.497 60.208L266.285 63.0579L266.286 63.0565Z" fill="url(#paint35_linear_979_9128)"/>
<path d="M259.345 54.4763C259.129 52.4736 259.165 52.172 260.405 50.5059C260.549 50.3123 260.841 50.3081 260.988 50.5002L263.521 53.8059C263.62 53.935 263.567 54.1229 263.416 54.1818L262.233 54.6418L259.594 54.6965C259.466 54.6993 259.358 54.6025 259.344 54.4763H259.345Z" fill="url(#paint36_linear_979_9128)"/>
<path d="M229.073 17.7872L212.763 18.3258C209.598 18.8391 207.309 21.1841 207.309 23.9133V38.8653C207.309 42.0069 210.316 44.5538 214.025 44.5538H228.72C232.429 44.5538 235.437 42.0069 235.437 38.8653V25.0507C235.437 21.48 233.633 17.7858 229.073 17.7872Z" fill="url(#paint37_linear_979_9128)"/>
<path opacity="0.89" d="M228.714 18.87L213.466 19.3609C210.508 19.8279 208.368 21.9639 208.368 24.4491V38.0659C208.368 40.927 211.18 43.2467 214.647 43.2467H228.385C231.853 43.2467 234.664 40.927 234.664 38.0659V25.4856C234.664 22.2332 232.978 18.8686 228.714 18.87Z" fill="white"/>
<path d="M216.292 37.1501L203.916 48.9788C203.397 49.4753 203.411 50.3069 203.948 50.7852L204.037 50.8637C204.51 51.2859 205.24 51.2424 205.66 50.767L217.056 37.8738L216.294 37.1516L216.292 37.1501Z" fill="url(#paint38_linear_979_9128)"/>
<path d="M224.789 38.0699C228.807 36.3037 230.655 31.6811 228.917 27.7451C227.178 23.809 222.511 22.05 218.493 23.8163C214.475 25.5825 212.627 30.2051 214.365 34.1411C216.104 38.0772 220.771 39.8362 224.789 38.0699Z" fill="#BDD0FB"/>
<path d="M218.143 23.0241C213.672 24.989 211.615 30.1333 213.549 34.5133C215.484 38.8933 220.676 40.8512 225.148 38.8863C229.619 36.9214 231.676 31.7785 229.742 27.3971C227.807 23.0171 222.615 21.0592 218.143 23.0241ZM224.632 37.7208C220.818 39.3968 216.388 37.7264 214.737 33.9902C213.087 30.254 214.841 25.8656 218.656 24.1896C222.47 22.5136 226.9 24.184 228.551 27.9202C230.201 31.6564 228.447 36.0449 224.631 37.7208H224.632Z" fill="url(#paint39_linear_979_9128)"/>
<path d="M63.1574 68.3065L46.8468 68.8451C43.682 69.3584 41.3931 71.7034 41.3931 74.4326V89.3846C41.3931 92.5262 44.4004 95.0731 48.1093 95.0731H62.8045C66.5134 95.0731 69.5207 92.5262 69.5207 89.3846V75.57C69.5207 71.9993 67.7169 68.3051 63.1574 68.3065Z" fill="url(#paint40_linear_979_9128)"/>
<path opacity="0.89" d="M62.7978 69.3906L47.5502 69.8815C44.592 70.3485 42.4521 72.4845 42.4521 74.9697V88.5866C42.4521 91.4476 45.2627 93.7674 48.7312 93.7674H62.4688C65.9373 93.7674 68.7479 91.4476 68.7479 88.5866V76.0062C68.7479 72.7538 67.0621 69.3892 62.7978 69.3906Z" fill="white"/>
<path d="M55.3343 90.4268C50.3375 90.4268 46.2715 86.3708 46.2715 81.3863C46.2715 76.4018 50.3375 72.3458 55.3343 72.3458C60.3311 72.3458 64.3971 76.4018 64.3971 81.3863C64.3971 86.3708 60.3311 90.4268 55.3343 90.4268ZM55.3343 73.8605C51.1741 73.8605 47.7899 77.2363 47.7899 81.3863C47.7899 85.5363 51.1741 88.9121 55.3343 88.9121C59.4946 88.9121 62.8787 85.5363 62.8787 81.3863C62.8787 77.2363 59.4946 73.8605 55.3343 73.8605Z" fill="url(#paint41_linear_979_9128)"/>
<path fill-rule="evenodd" clip-rule="evenodd" d="M52.4951 84.8672V78.3681C52.4951 77.6738 53.2529 77.2433 53.8519 77.5981L59.3422 80.8477C59.9284 81.1941 59.9284 82.0412 59.3422 82.389L53.8519 85.6386C53.2529 85.9934 52.4951 85.5629 52.4951 84.8686V84.8672Z" fill="url(#paint42_linear_979_9128)"/>
<path d="M241.249 77.4701L224.939 78.0087C221.774 78.522 219.485 80.8669 219.485 83.5962V98.5482C219.485 101.69 222.492 104.237 226.201 104.237H240.896C244.605 104.237 247.613 101.69 247.613 98.5482V84.7336C247.613 81.1629 245.809 77.4687 241.249 77.4701Z" fill="url(#paint43_linear_979_9128)"/>
<path opacity="0.89" d="M240.89 78.5527L225.642 79.0436C222.684 79.5106 220.544 81.6466 220.544 84.1318V97.7487C220.544 100.61 223.354 102.929 226.823 102.929H240.561C244.029 102.929 246.84 100.61 246.84 97.7487V85.1683C246.84 81.9159 245.154 78.5513 240.89 78.5527Z" fill="white"/>
<path d="M224.737 91.4601C224.132 87.9272 225.413 85.9637 226.594 84.9385C228.817 83.0101 232.779 82.5641 236.692 83.8011C240.526 85.0156 243.228 88.5303 242.716 91.6368C242.514 92.8682 241.463 95.561 236.208 95.9888C237.31 96.5175 238.806 97.1682 240.178 97.5525C240.434 97.6241 240.597 97.8681 240.564 98.1318C240.53 98.394 240.313 98.5876 240.049 98.5932C239.894 98.596 239.699 98.5988 239.468 98.5988C236.199 98.5988 225.866 98.0686 224.737 91.4601ZM234.341 95.0912C238.674 95.1823 241.383 93.8542 241.774 91.4825C242.204 88.8697 239.744 85.7674 236.402 84.7085C233.451 83.7744 229.468 83.7043 227.22 85.6566C225.77 86.9146 225.251 88.8136 225.676 91.3002C226.512 96.1991 233.378 97.3422 237.435 97.5862C235.652 96.8429 234.187 96.0322 234.099 95.9831L232.434 95.0575L234.341 95.0926V95.0912Z" fill="url(#paint44_linear_979_9128)"/>
<path d="M42.1862 117.326L25.8756 117.865C22.7108 118.378 20.4219 120.723 20.4219 123.452V138.404C20.4219 141.546 23.4292 144.093 27.1382 144.093H41.8333C45.5422 144.093 48.5495 141.546 48.5495 138.404V124.59C48.5495 121.019 46.7457 117.325 42.1862 117.326Z" fill="url(#paint45_linear_979_9128)"/>
<path opacity="0.89" d="M41.8269 118.409L26.5792 118.9C23.6211 119.367 21.4812 121.503 21.4812 123.988V137.605C21.4812 140.466 24.2917 142.786 27.7602 142.786H41.4979C44.9664 142.786 47.7769 140.466 47.7769 137.605V125.024C47.7769 121.772 46.0912 118.407 41.8269 118.409Z" fill="white"/>
<path d="M43.367 133.374C44.7732 128.482 41.9377 123.38 37.0338 121.977C32.1299 120.574 27.0145 123.403 25.6084 128.294C24.2022 133.186 27.0377 138.289 31.9416 139.692C36.8455 141.094 41.9609 138.266 43.367 133.374Z" fill="url(#paint46_linear_979_9128)"/>
<path d="M37.7378 126.212C37.7378 127.884 36.3797 129.688 34.7037 129.688C33.0278 129.688 31.6697 127.883 31.6697 126.212C31.6697 124.542 33.0278 123.355 34.7037 123.355C36.3797 123.355 37.7378 124.541 37.7378 126.212Z" fill="url(#paint47_linear_979_9128)"/>
<path d="M30.9379 136.124H38.3445C39.1248 136.124 39.8137 135.622 40.0513 134.88L40.4492 133.637C40.7417 132.727 40.2665 131.742 39.3666 131.414C36.3523 130.315 33.2366 130.456 30.0437 131.515C29.1495 131.813 28.6532 132.766 28.8993 133.674L29.2058 134.803C29.4181 135.583 30.1267 136.122 30.9365 136.122L30.9379 136.124Z" fill="url(#paint48_linear_979_9128)"/>
<path d="M278.462 114.75L262.152 115.288C258.987 115.802 256.698 118.147 256.698 120.876V135.828C256.698 138.97 259.705 141.516 263.414 141.516H278.109C281.818 141.516 284.826 138.97 284.826 135.828V122.013C284.826 118.443 283.022 114.748 278.462 114.75Z" fill="url(#paint49_linear_979_9128)"/>
<path opacity="0.89" d="M278.103 115.833L262.855 116.323C259.897 116.79 257.757 118.926 257.757 121.412V135.028C257.757 137.89 260.568 140.209 264.036 140.209H277.774C281.242 140.209 284.053 137.89 284.053 135.028V122.448C284.053 119.196 282.367 115.831 278.103 115.833Z" fill="white"/>
<path d="M279.757 130.026C280.94 125.076 277.876 120.106 272.914 118.926C267.951 117.746 262.969 120.802 261.786 125.752C260.603 130.703 263.667 135.672 268.629 136.852C273.592 138.033 278.574 134.976 279.757 130.026Z" fill="url(#paint50_linear_979_9128)"/>
<path d="M277.343 123.086H265.283C264.987 123.086 264.747 123.326 264.747 123.621C264.747 123.915 264.987 124.155 265.283 124.155H277.343C277.638 124.155 277.879 123.915 277.879 123.621C277.879 123.326 277.638 123.086 277.343 123.086Z" fill="url(#paint51_linear_979_9128)"/>
<path d="M276.238 125.621H265.357C265.062 125.621 264.822 125.861 264.822 126.155C264.822 126.45 265.062 126.69 265.357 126.69H276.238C276.533 126.69 276.774 126.45 276.774 126.155C276.774 125.861 276.533 125.621 276.238 125.621Z" fill="url(#paint52_linear_979_9128)"/>
<path d="M274.976 128.182H265.282C264.987 128.182 264.746 128.421 264.746 128.716C264.746 129.011 264.987 129.25 265.282 129.25H274.976C275.271 129.25 275.512 129.011 275.512 128.716C275.512 128.421 275.271 128.182 274.976 128.182Z" fill="url(#paint53_linear_979_9128)"/>
<path d="M274.017 130.434H265.319C265.024 130.434 264.784 130.674 264.784 130.968C264.784 131.263 265.024 131.503 265.319 131.503H274.017C274.312 131.503 274.552 131.263 274.552 130.968C274.552 130.674 274.312 130.434 274.017 130.434Z" fill="url(#paint54_linear_979_9128)"/>
<path d="M272.806 132.97H265.395C265.1 132.97 264.859 133.21 264.859 133.504C264.859 133.799 265.1 134.038 265.395 134.038H272.806C273.101 134.038 273.341 133.799 273.341 133.504C273.341 133.21 273.101 132.97 272.806 132.97Z" fill="url(#paint55_linear_979_9128)"/>
<path d="M108.836 32.8751L92.5255 33.4137C89.3607 33.927 87.0718 36.272 87.0718 39.0012V53.9532C87.0718 57.0948 90.0791 59.6417 93.7881 59.6417H108.483C112.192 59.6417 115.199 57.0948 115.199 53.9532V40.1386C115.199 36.5679 113.396 32.8737 108.836 32.8751Z" fill="url(#paint56_linear_979_9128)"/>
<path opacity="0.89" d="M108.476 33.9576L93.2286 34.4485C90.2705 34.9155 88.1306 37.0515 88.1306 39.5368V53.1536C88.1306 56.0147 90.9411 58.3344 94.4096 58.3344H108.147C111.616 58.3344 114.426 56.0147 114.426 53.1536V40.5732C114.426 37.3208 112.741 33.9562 108.476 33.9576Z" fill="white"/>
<path d="M110.132 48.1292C111.304 43.1763 108.229 38.2136 103.264 37.0446C98.2986 35.8756 93.3235 38.943 92.1517 43.8959C90.9798 48.8488 94.0548 53.8115 99.0199 54.9805C103.985 56.1495 108.96 53.0821 110.132 48.1292Z" fill="url(#paint57_linear_979_9128)"/>
<path d="M107.717 41.2102H95.6563C95.361 41.2102 95.1206 41.45 95.1206 41.7446C95.1206 42.0391 95.361 42.2789 95.6563 42.2789H107.717C108.012 42.2789 108.252 42.0391 108.252 41.7446C108.252 41.45 108.012 41.2102 107.717 41.2102Z" fill="url(#paint58_linear_979_9128)"/>
<path d="M106.611 43.746H95.7307C95.4355 43.746 95.1951 43.9858 95.1951 44.2803C95.1951 44.5748 95.4355 44.8147 95.7307 44.8147H106.611C106.907 44.8147 107.147 44.5748 107.147 44.2803C107.147 43.9858 106.907 43.746 106.611 43.746Z" fill="url(#paint59_linear_979_9128)"/>
<path d="M105.35 46.3068H95.6563C95.361 46.3068 95.1206 46.5466 95.1206 46.8411C95.1206 47.1356 95.361 47.3755 95.6563 47.3755H105.35C105.646 47.3755 105.886 47.1356 105.886 46.8411C105.886 46.5466 105.646 46.3068 105.35 46.3068Z" fill="url(#paint60_linear_979_9128)"/>
<path d="M104.391 48.5579H95.6939C95.3986 48.5579 95.1582 48.7977 95.1582 49.0922C95.1582 49.3867 95.3986 49.6266 95.6939 49.6266H104.391C104.686 49.6266 104.927 49.3867 104.927 49.0922C104.927 48.7977 104.686 48.5579 104.391 48.5579Z" fill="url(#paint61_linear_979_9128)"/>
<path d="M103.18 51.0936H95.7693C95.4741 51.0936 95.2336 51.3335 95.2336 51.628C95.2336 51.9225 95.4741 52.1623 95.7693 52.1623H103.18C103.475 52.1623 103.716 51.9225 103.716 51.628C103.716 51.3335 103.475 51.0936 103.18 51.0936Z" fill="url(#paint62_linear_979_9128)"/>
<path d="M101.193 143.896L84.8827 144.434C81.7179 144.947 79.429 147.292 79.429 150.022V164.974C79.429 168.115 82.4363 170.662 86.1452 170.662H100.84C104.549 170.662 107.557 168.115 107.557 164.974V151.159C107.557 147.588 105.753 143.894 101.193 143.896Z" fill="url(#paint63_linear_979_9128)"/>
<path opacity="0.89" d="M100.834 144.978L85.586 145.469C82.6279 145.936 80.488 148.072 80.488 150.557V164.174C80.488 167.035 83.2986 169.355 86.7671 169.355H100.505C103.973 169.355 106.784 167.035 106.784 164.174V151.594C106.784 148.341 105.098 144.977 100.834 144.978Z" fill="white"/>
<path d="M102.491 159.309C103.65 154.408 100.608 149.497 95.6948 148.341C90.7818 147.184 85.859 150.219 84.6994 155.12C83.5399 160.021 86.5826 164.932 91.4956 166.088C96.4086 167.245 101.331 164.21 102.491 159.309Z" fill="url(#paint64_linear_979_9128)"/>
<path d="M90.9563 153.768H89.407C89.1717 153.768 88.981 153.958 88.981 154.193V160.928C88.981 161.162 89.1717 161.353 89.407 161.353H90.9563C91.1916 161.353 91.3823 161.162 91.3823 160.928V154.193C91.3823 153.958 91.1916 153.768 90.9563 153.768Z" fill="url(#paint65_linear_979_9128)"/>
<path d="M96.6224 153.768H95.1167V151.952C95.1167 151.361 94.768 150.973 94.1761 150.973H94.1381C93.5462 150.973 93.0668 151.406 93.0668 151.997L92.5381 153.817C92.3019 153.817 91.9153 153.985 91.9153 154.22V161.2C91.9153 161.435 92.5002 161.751 92.7364 161.751H96.6224C97.5068 161.751 98.1859 160.909 98.1859 160.027V155.393C98.1859 154.511 97.5082 153.768 96.6224 153.768Z" fill="url(#paint66_linear_979_9128)"/>
<path d="M267.674 152.996L251.364 153.535C248.199 154.048 245.91 156.393 245.91 159.122V174.074C245.91 177.216 248.917 179.763 252.626 179.763H267.321C271.03 179.763 274.038 177.216 274.038 174.074V160.26C274.038 156.689 272.234 152.995 267.674 152.996Z" fill="url(#paint67_linear_979_9128)"/>
<path opacity="0.89" d="M267.315 154.078L252.067 154.569C249.109 155.036 246.969 157.172 246.969 159.658V173.274C246.969 176.136 249.78 178.455 253.248 178.455H266.986C270.454 178.455 273.265 176.136 273.265 173.274V160.694C273.265 157.442 271.579 154.077 267.315 154.078Z" fill="white"/>
<path d="M268.869 168.386C270.04 163.488 267.009 158.571 262.098 157.403C257.188 156.235 252.258 159.259 251.088 164.157C249.917 169.055 252.948 173.973 257.859 175.141C262.769 176.309 267.699 173.285 268.869 168.386Z" fill="url(#paint68_linear_979_9128)"/>
<path d="M265.981 162.184C265.961 162.172 265.936 162.177 265.919 162.191L260.322 166.84C259.84 167.241 259.087 167.223 258.63 166.798L254.467 162.949C254.432 162.917 254.376 162.92 254.345 162.956C254.233 163.087 254.155 163.255 254.155 163.439V170.125C254.155 170.516 254.473 170.833 254.865 170.833H265.226C265.625 170.833 265.956 170.543 265.977 170.144L266.373 162.875C266.39 162.572 266.224 162.315 265.978 162.184H265.981Z" fill="url(#paint69_linear_979_9128)"/>
<path d="M260.322 166.314C260.371 166.273 260.42 166.233 260.469 166.192C261.005 165.746 261.542 165.301 262.078 164.855C262.833 164.228 263.588 163.602 264.341 162.975C264.653 162.715 264.965 162.456 265.279 162.196C265.363 162.126 265.442 162.048 265.524 161.973C265.571 161.93 265.888 161.665 265.831 161.603C265.819 161.589 265.799 161.586 265.781 161.583C265.456 161.545 265.127 161.595 264.799 161.613C264.458 161.632 264.115 161.651 263.773 161.67C262.896 161.719 262.017 161.768 261.14 161.816C260.182 161.869 259.223 161.923 258.266 161.976C257.486 162.019 256.707 162.063 255.926 162.106C255.685 162.12 255.441 162.133 255.2 162.147C255.032 162.157 254.273 162.16 254.495 162.451C254.58 162.564 254.71 162.635 254.813 162.731C254.997 162.9 255.18 163.071 255.364 163.241C256.064 163.89 256.763 164.538 257.463 165.188C257.853 165.55 258.242 165.911 258.633 166.272C259.09 166.695 259.842 166.715 260.324 166.314H260.322Z" fill="url(#paint70_linear_979_9128)"/>
</g>
<path d="M57.9844 212.25V235H54.9688V212.25H57.9844ZM65.9219 221.703V235H63.0312V218.094H65.7656L65.9219 221.703ZM65.2344 225.906L64.0312 225.859C64.0417 224.703 64.2135 223.635 64.5469 222.656C64.8802 221.667 65.349 220.807 65.9531 220.078C66.5573 219.349 67.276 218.786 68.1094 218.391C68.9531 217.984 69.8854 217.781 70.9062 217.781C71.7396 217.781 72.4896 217.896 73.1562 218.125C73.8229 218.344 74.3906 218.698 74.8594 219.188C75.3385 219.677 75.7031 220.312 75.9531 221.094C76.2031 221.865 76.3281 222.807 76.3281 223.922V235H73.4219V223.891C73.4219 223.005 73.2917 222.297 73.0312 221.766C72.7708 221.224 72.3906 220.833 71.8906 220.594C71.3906 220.344 70.776 220.219 70.0469 220.219C69.3281 220.219 68.6719 220.37 68.0781 220.672C67.4948 220.974 66.9896 221.391 66.5625 221.922C66.1458 222.453 65.8177 223.062 65.5781 223.75C65.349 224.427 65.2344 225.146 65.2344 225.906ZM87.7969 218.094V220.312H78.6562V218.094H87.7969ZM81.75 213.984H84.6406V230.812C84.6406 231.385 84.7292 231.818 84.9062 232.109C85.0833 232.401 85.3125 232.594 85.5938 232.688C85.875 232.781 86.1771 232.828 86.5 232.828C86.7396 232.828 86.9896 232.807 87.25 232.766C87.5208 232.714 87.724 232.672 87.8594 232.641L87.875 235C87.6458 235.073 87.3438 235.141 86.9688 235.203C86.6042 235.276 86.1615 235.312 85.6406 235.312C84.9323 235.312 84.2812 235.172 83.6875 234.891C83.0938 234.609 82.6198 234.141 82.2656 233.484C81.9219 232.818 81.75 231.922 81.75 230.797V213.984ZM98.2031 235.312C97.026 235.312 95.9583 235.115 95 234.719C94.0521 234.312 93.2344 233.745 92.5469 233.016C91.8698 232.286 91.349 231.422 90.9844 230.422C90.6198 229.422 90.4375 228.328 90.4375 227.141V226.484C90.4375 225.109 90.6406 223.885 91.0469 222.812C91.4531 221.729 92.0052 220.812 92.7031 220.062C93.401 219.312 94.1927 218.745 95.0781 218.359C95.9635 217.974 96.8802 217.781 97.8281 217.781C99.0365 217.781 100.078 217.99 100.953 218.406C101.839 218.823 102.562 219.406 103.125 220.156C103.688 220.896 104.104 221.771 104.375 222.781C104.646 223.781 104.781 224.875 104.781 226.062V227.359H92.1562V225H101.891V224.781C101.849 224.031 101.693 223.302 101.422 222.594C101.161 221.885 100.745 221.302 100.172 220.844C99.599 220.385 98.8177 220.156 97.8281 220.156C97.1719 220.156 96.5677 220.297 96.0156 220.578C95.4635 220.849 94.9896 221.255 94.5938 221.797C94.1979 222.339 93.8906 223 93.6719 223.781C93.4531 224.562 93.3438 225.464 93.3438 226.484V227.141C93.3438 227.943 93.4531 228.698 93.6719 229.406C93.901 230.104 94.2292 230.719 94.6562 231.25C95.0938 231.781 95.6198 232.198 96.2344 232.5C96.8594 232.802 97.5677 232.953 98.3594 232.953C99.3802 232.953 100.245 232.745 100.953 232.328C101.661 231.911 102.281 231.354 102.812 230.656L104.562 232.047C104.198 232.599 103.734 233.125 103.172 233.625C102.609 234.125 101.917 234.531 101.094 234.844C100.281 235.156 99.3177 235.312 98.2031 235.312ZM111.047 220.75V235H108.156V218.094H110.969L111.047 220.75ZM116.328 218L116.312 220.688C116.073 220.635 115.844 220.604 115.625 220.594C115.417 220.573 115.177 220.562 114.906 220.562C114.24 220.562 113.651 220.667 113.141 220.875C112.63 221.083 112.198 221.375 111.844 221.75C111.49 222.125 111.208 222.573 111 223.094C110.802 223.604 110.672 224.167 110.609 224.781L109.797 225.25C109.797 224.229 109.896 223.271 110.094 222.375C110.302 221.479 110.62 220.688 111.047 220C111.474 219.302 112.016 218.76 112.672 218.375C113.339 217.979 114.13 217.781 115.047 217.781C115.255 217.781 115.495 217.807 115.766 217.859C116.036 217.901 116.224 217.948 116.328 218ZM121.891 221.703V235H119V218.094H121.734L121.891 221.703ZM121.203 225.906L120 225.859C120.01 224.703 120.182 223.635 120.516 222.656C120.849 221.667 121.318 220.807 121.922 220.078C122.526 219.349 123.245 218.786 124.078 218.391C124.922 217.984 125.854 217.781 126.875 217.781C127.708 217.781 128.458 217.896 129.125 218.125C129.792 218.344 130.359 218.698 130.828 219.188C131.307 219.677 131.672 220.312 131.922 221.094C132.172 221.865 132.297 222.807 132.297 223.922V235H129.391V223.891C129.391 223.005 129.26 222.297 129 221.766C128.74 221.224 128.359 220.833 127.859 220.594C127.359 220.344 126.745 220.219 126.016 220.219C125.297 220.219 124.641 220.37 124.047 220.672C123.464 220.974 122.958 221.391 122.531 221.922C122.115 222.453 121.786 223.062 121.547 223.75C121.318 224.427 121.203 225.146 121.203 225.906ZM143.703 235.312C142.526 235.312 141.458 235.115 140.5 234.719C139.552 234.312 138.734 233.745 138.047 233.016C137.37 232.286 136.849 231.422 136.484 230.422C136.12 229.422 135.938 228.328 135.938 227.141V226.484C135.938 225.109 136.141 223.885 136.547 222.812C136.953 221.729 137.505 220.812 138.203 220.062C138.901 219.312 139.693 218.745 140.578 218.359C141.464 217.974 142.38 217.781 143.328 217.781C144.536 217.781 145.578 217.99 146.453 218.406C147.339 218.823 148.062 219.406 148.625 220.156C149.188 220.896 149.604 221.771 149.875 222.781C150.146 223.781 150.281 224.875 150.281 226.062V227.359H137.656V225H147.391V224.781C147.349 224.031 147.193 223.302 146.922 222.594C146.661 221.885 146.245 221.302 145.672 220.844C145.099 220.385 144.318 220.156 143.328 220.156C142.672 220.156 142.068 220.297 141.516 220.578C140.964 220.849 140.49 221.255 140.094 221.797C139.698 222.339 139.391 223 139.172 223.781C138.953 224.562 138.844 225.464 138.844 226.484V227.141C138.844 227.943 138.953 228.698 139.172 229.406C139.401 230.104 139.729 230.719 140.156 231.25C140.594 231.781 141.12 232.198 141.734 232.5C142.359 232.802 143.068 232.953 143.859 232.953C144.88 232.953 145.745 232.745 146.453 232.328C147.161 231.911 147.781 231.354 148.312 230.656L150.062 232.047C149.698 232.599 149.234 233.125 148.672 233.625C148.109 234.125 147.417 234.531 146.594 234.844C145.781 235.156 144.818 235.312 143.703 235.312ZM160.734 218.094V220.312H151.594V218.094H160.734ZM154.688 213.984H157.578V230.812C157.578 231.385 157.667 231.818 157.844 232.109C158.021 232.401 158.25 232.594 158.531 232.688C158.812 232.781 159.115 232.828 159.438 232.828C159.677 232.828 159.927 232.807 160.188 232.766C160.458 232.714 160.661 232.672 160.797 232.641L160.812 235C160.583 235.073 160.281 235.141 159.906 235.203C159.542 235.276 159.099 235.312 158.578 235.312C157.87 235.312 157.219 235.172 156.625 234.891C156.031 234.609 155.557 234.141 155.203 233.484C154.859 232.818 154.688 231.922 154.688 230.797V213.984ZM180.891 226.078H174.812V223.625H180.891C182.068 223.625 183.021 223.438 183.75 223.062C184.479 222.688 185.01 222.167 185.344 221.5C185.688 220.833 185.859 220.073 185.859 219.219C185.859 218.438 185.688 217.703 185.344 217.016C185.01 216.328 184.479 215.776 183.75 215.359C183.021 214.932 182.068 214.719 180.891 214.719H175.516V235H172.5V212.25H180.891C182.609 212.25 184.062 212.547 185.25 213.141C186.438 213.734 187.339 214.557 187.953 215.609C188.568 216.651 188.875 217.844 188.875 219.188C188.875 220.646 188.568 221.891 187.953 222.922C187.339 223.953 186.438 224.74 185.25 225.281C184.062 225.812 182.609 226.078 180.891 226.078ZM191.266 226.734V226.375C191.266 225.156 191.443 224.026 191.797 222.984C192.151 221.932 192.661 221.021 193.328 220.25C193.995 219.469 194.802 218.865 195.75 218.438C196.698 218 197.76 217.781 198.938 217.781C200.125 217.781 201.193 218 202.141 218.438C203.099 218.865 203.911 219.469 204.578 220.25C205.255 221.021 205.771 221.932 206.125 222.984C206.479 224.026 206.656 225.156 206.656 226.375V226.734C206.656 227.953 206.479 229.083 206.125 230.125C205.771 231.167 205.255 232.078 204.578 232.859C203.911 233.63 203.104 234.234 202.156 234.672C201.219 235.099 200.156 235.312 198.969 235.312C197.781 235.312 196.714 235.099 195.766 234.672C194.818 234.234 194.005 233.63 193.328 232.859C192.661 232.078 192.151 231.167 191.797 230.125C191.443 229.083 191.266 227.953 191.266 226.734ZM194.156 226.375V226.734C194.156 227.578 194.255 228.375 194.453 229.125C194.651 229.865 194.948 230.521 195.344 231.094C195.75 231.667 196.255 232.12 196.859 232.453C197.464 232.776 198.167 232.938 198.969 232.938C199.76 232.938 200.453 232.776 201.047 232.453C201.651 232.12 202.151 231.667 202.547 231.094C202.943 230.521 203.24 229.865 203.438 229.125C203.646 228.375 203.75 227.578 203.75 226.734V226.375C203.75 225.542 203.646 224.755 203.438 224.016C203.24 223.266 202.938 222.604 202.531 222.031C202.135 221.448 201.635 220.99 201.031 220.656C200.438 220.323 199.74 220.156 198.938 220.156C198.146 220.156 197.448 220.323 196.844 220.656C196.25 220.99 195.75 221.448 195.344 222.031C194.948 222.604 194.651 223.266 194.453 224.016C194.255 224.755 194.156 225.542 194.156 226.375ZM213.172 220.75V235H210.281V218.094H213.094L213.172 220.75ZM218.453 218L218.438 220.688C218.198 220.635 217.969 220.604 217.75 220.594C217.542 220.573 217.302 220.562 217.031 220.562C216.365 220.562 215.776 220.667 215.266 220.875C214.755 221.083 214.323 221.375 213.969 221.75C213.615 222.125 213.333 222.573 213.125 223.094C212.927 223.604 212.797 224.167 212.734 224.781L211.922 225.25C211.922 224.229 212.021 223.271 212.219 222.375C212.427 221.479 212.745 220.688 213.172 220C213.599 219.302 214.141 218.76 214.797 218.375C215.464 217.979 216.255 217.781 217.172 217.781C217.38 217.781 217.62 217.807 217.891 217.859C218.161 217.901 218.349 217.948 218.453 218ZM228.984 218.094V220.312H219.844V218.094H228.984ZM222.938 213.984H225.828V230.812C225.828 231.385 225.917 231.818 226.094 232.109C226.271 232.401 226.5 232.594 226.781 232.688C227.062 232.781 227.365 232.828 227.688 232.828C227.927 232.828 228.177 232.807 228.438 232.766C228.708 232.714 228.911 232.672 229.047 232.641L229.062 235C228.833 235.073 228.531 235.141 228.156 235.203C227.792 235.276 227.349 235.312 226.828 235.312C226.12 235.312 225.469 235.172 224.875 234.891C224.281 234.609 223.807 234.141 223.453 233.484C223.109 232.818 222.938 231.922 222.938 230.797V213.984ZM242.344 232.109V223.406C242.344 222.74 242.208 222.161 241.938 221.672C241.677 221.172 241.281 220.786 240.75 220.516C240.219 220.245 239.562 220.109 238.781 220.109C238.052 220.109 237.411 220.234 236.859 220.484C236.318 220.734 235.891 221.062 235.578 221.469C235.276 221.875 235.125 222.312 235.125 222.781H232.234C232.234 222.177 232.391 221.578 232.703 220.984C233.016 220.391 233.464 219.854 234.047 219.375C234.641 218.885 235.349 218.5 236.172 218.219C237.005 217.927 237.932 217.781 238.953 217.781C240.182 217.781 241.266 217.99 242.203 218.406C243.151 218.823 243.891 219.453 244.422 220.297C244.964 221.13 245.234 222.177 245.234 223.438V231.312C245.234 231.875 245.281 232.474 245.375 233.109C245.479 233.745 245.63 234.292 245.828 234.75V235H242.812C242.667 234.667 242.552 234.224 242.469 233.672C242.385 233.109 242.344 232.589 242.344 232.109ZM242.844 224.75L242.875 226.781H239.953C239.13 226.781 238.396 226.849 237.75 226.984C237.104 227.109 236.562 227.302 236.125 227.562C235.688 227.823 235.354 228.151 235.125 228.547C234.896 228.932 234.781 229.385 234.781 229.906C234.781 230.438 234.901 230.922 235.141 231.359C235.38 231.797 235.74 232.146 236.219 232.406C236.708 232.656 237.307 232.781 238.016 232.781C238.901 232.781 239.682 232.594 240.359 232.219C241.036 231.844 241.573 231.385 241.969 230.844C242.375 230.302 242.594 229.776 242.625 229.266L243.859 230.656C243.786 231.094 243.589 231.578 243.266 232.109C242.943 232.641 242.51 233.151 241.969 233.641C241.438 234.12 240.802 234.521 240.062 234.844C239.333 235.156 238.51 235.312 237.594 235.312C236.448 235.312 235.443 235.089 234.578 234.641C233.724 234.193 233.057 233.594 232.578 232.844C232.109 232.083 231.875 231.234 231.875 230.297C231.875 229.391 232.052 228.594 232.406 227.906C232.76 227.208 233.271 226.63 233.938 226.172C234.604 225.703 235.406 225.349 236.344 225.109C237.281 224.87 238.328 224.75 239.484 224.75H242.844ZM252.922 211V235H250.016V211H252.922ZM267.406 230.516C267.406 230.099 267.312 229.714 267.125 229.359C266.948 228.995 266.578 228.667 266.016 228.375C265.464 228.073 264.63 227.812 263.516 227.594C262.578 227.396 261.729 227.161 260.969 226.891C260.219 226.62 259.578 226.292 259.047 225.906C258.526 225.521 258.125 225.068 257.844 224.547C257.562 224.026 257.422 223.417 257.422 222.719C257.422 222.052 257.568 221.422 257.859 220.828C258.161 220.234 258.583 219.708 259.125 219.25C259.677 218.792 260.339 218.432 261.109 218.172C261.88 217.911 262.74 217.781 263.688 217.781C265.042 217.781 266.198 218.021 267.156 218.5C268.115 218.979 268.849 219.62 269.359 220.422C269.87 221.214 270.125 222.094 270.125 223.062H267.234C267.234 222.594 267.094 222.141 266.812 221.703C266.542 221.255 266.141 220.885 265.609 220.594C265.089 220.302 264.448 220.156 263.688 220.156C262.885 220.156 262.234 220.281 261.734 220.531C261.245 220.771 260.885 221.078 260.656 221.453C260.438 221.828 260.328 222.224 260.328 222.641C260.328 222.953 260.38 223.234 260.484 223.484C260.599 223.724 260.797 223.948 261.078 224.156C261.359 224.354 261.755 224.542 262.266 224.719C262.776 224.896 263.427 225.073 264.219 225.25C265.604 225.562 266.745 225.938 267.641 226.375C268.536 226.812 269.203 227.349 269.641 227.984C270.078 228.62 270.297 229.391 270.297 230.297C270.297 231.036 270.141 231.714 269.828 232.328C269.526 232.943 269.083 233.474 268.5 233.922C267.927 234.359 267.24 234.703 266.438 234.953C265.646 235.193 264.755 235.312 263.766 235.312C262.276 235.312 261.016 235.047 259.984 234.516C258.953 233.984 258.172 233.297 257.641 232.453C257.109 231.609 256.844 230.719 256.844 229.781H259.75C259.792 230.573 260.021 231.203 260.438 231.672C260.854 232.13 261.365 232.458 261.969 232.656C262.573 232.844 263.172 232.938 263.766 232.938C264.557 232.938 265.219 232.833 265.75 232.625C266.292 232.417 266.703 232.13 266.984 231.766C267.266 231.401 267.406 230.984 267.406 230.516Z" fill="black"/>
<defs>
<linearGradient id="paint0_linear_979_9128" x1="299.519" y1="92.1291" x2="5.72807" y2="92.1291" gradientUnits="userSpaceOnUse">
<stop stop-color="#DAE3FE"/>
<stop offset="1" stop-color="#E9EFFD"/>
</linearGradient>
<linearGradient id="paint1_linear_979_9128" x1="135.052" y1="168.227" x2="175.765" y2="45.7836" gradientUnits="userSpaceOnUse">
<stop stop-color="#2B3582"/>
<stop offset="1" stop-color="#150E42"/>
</linearGradient>
<linearGradient id="paint2_linear_979_9128" x1="98.0351" y1="187.45" x2="208.417" y2="53.6098" gradientUnits="userSpaceOnUse">
<stop stop-color="#FE7062"/>
<stop offset="1" stop-color="#FF928E"/>
</linearGradient>
<linearGradient id="paint3_linear_979_9128" x1="144.99" y1="221.372" x2="160.327" y2="137.304" gradientUnits="userSpaceOnUse">
<stop stop-color="#2B3582"/>
<stop offset="1" stop-color="#150E42"/>
</linearGradient>
<linearGradient id="paint4_linear_979_9128" x1="138.207" y1="74.1155" x2="166.754" y2="156.5" gradientUnits="userSpaceOnUse">
<stop stop-color="#2B3582"/>
<stop offset="1" stop-color="#150E42"/>
</linearGradient>
<linearGradient id="paint5_linear_979_9128" x1="132.71" y1="76.0203" x2="161.257" y2="158.404" gradientUnits="userSpaceOnUse">
<stop stop-color="#2B3582"/>
<stop offset="1" stop-color="#150E42"/>
</linearGradient>
<linearGradient id="paint6_linear_979_9128" x1="190.157" y1="23.9552" x2="182.66" y2="34.6371" gradientUnits="userSpaceOnUse">
<stop stop-color="#09005D"/>
<stop offset="1" stop-color="#1A0F91"/>
</linearGradient>
<linearGradient id="paint7_linear_979_9128" x1="181.747" y1="41.9253" x2="183.555" y2="96.7253" gradientUnits="userSpaceOnUse">
<stop stop-color="#FE7062"/>
<stop offset="1" stop-color="#FF928E"/>
</linearGradient>
<linearGradient id="paint8_linear_979_9128" x1="180.167" y1="41.3923" x2="176.404" y2="51.7416" gradientUnits="userSpaceOnUse">
<stop stop-color="#FF928E"/>
<stop offset="1" stop-color="#FEB3B1"/>
</linearGradient>
<linearGradient id="paint9_linear_979_9128" x1="196.666" y1="33.9548" x2="191.591" y2="48.5107" gradientUnits="userSpaceOnUse">
<stop stop-color="#FF928E"/>
<stop offset="1" stop-color="#FEB3B1"/>
</linearGradient>
<linearGradient id="paint10_linear_979_9128" x1="181.925" y1="50.806" x2="181.305" y2="75.9766" gradientUnits="userSpaceOnUse">
<stop stop-color="#09005D"/>
<stop offset="1" stop-color="#1A0F91"/>
</linearGradient>
<linearGradient id="paint11_linear_979_9128" x1="189.143" y1="65.9795" x2="195.718" y2="66.0302" gradientUnits="userSpaceOnUse">
<stop stop-color="#4042E2"/>
<stop offset="1" stop-color="#4F52FF"/>
</linearGradient>
<linearGradient id="paint12_linear_979_9128" x1="193.487" y1="54.1592" x2="186.576" y2="72.923" gradientUnits="userSpaceOnUse">
<stop stop-color="#FF928E"/>
<stop offset="1" stop-color="#FEB3B1"/>
</linearGradient>
<linearGradient id="paint13_linear_979_9128" x1="173.185" y1="66.0292" x2="166.609" y2="65.8969" gradientUnits="userSpaceOnUse">
<stop stop-color="#4042E2"/>
<stop offset="1" stop-color="#4F52FF"/>
</linearGradient>
<linearGradient id="paint14_linear_979_9128" x1="179.582" y1="48.5072" x2="172.668" y2="67.2823" gradientUnits="userSpaceOnUse">
<stop stop-color="#FF928E"/>
<stop offset="1" stop-color="#FEB3B1"/>
</linearGradient>
<linearGradient id="paint15_linear_979_9128" x1="184.12" y1="65.239" x2="182.984" y2="76.8971" gradientUnits="userSpaceOnUse">
<stop stop-color="#4042E2"/>
<stop offset="1" stop-color="#4F52FF"/>
</linearGradient>
<linearGradient id="paint16_linear_979_9128" x1="180.688" y1="44.6334" x2="179.377" y2="55.5021" gradientUnits="userSpaceOnUse">
<stop stop-color="#4042E2"/>
<stop offset="1" stop-color="#4F52FF"/>
</linearGradient>
<linearGradient id="paint17_linear_979_9128" x1="181.755" y1="45.4119" x2="181.595" y2="31.5173" gradientUnits="userSpaceOnUse">
<stop stop-color="#FF928E"/>
<stop offset="1" stop-color="#FEB3B1"/>
</linearGradient>
<linearGradient id="paint18_linear_979_9128" x1="184.899" y1="50.6523" x2="183.025" y2="41.4649" gradientUnits="userSpaceOnUse">
<stop stop-color="#FF928E"/>
<stop offset="1" stop-color="#FEB3B1"/>
</linearGradient>
<linearGradient id="paint19_linear_979_9128" x1="190.465" y1="22.3327" x2="182.028" y2="34.3513" gradientUnits="userSpaceOnUse">
<stop stop-color="#09005D"/>
<stop offset="1" stop-color="#1A0F91"/>
</linearGradient>
<linearGradient id="paint20_linear_979_9128" x1="193.6" y1="63.8611" x2="189.141" y2="55.6068" gradientUnits="userSpaceOnUse">
<stop stop-color="#FF928E"/>
<stop offset="1" stop-color="#FEB3B1"/>
</linearGradient>
<linearGradient id="paint21_linear_979_9128" x1="181.855" y1="48.8482" x2="181.452" y2="68.1507" gradientUnits="userSpaceOnUse">
<stop stop-color="#4042E2"/>
<stop offset="1" stop-color="#4F52FF"/>
</linearGradient>
<linearGradient id="paint22_linear_979_9128" x1="36.0193" y1="82.5879" x2="117.249" y2="82.5879" gradientUnits="userSpaceOnUse">
<stop stop-color="#4042E2"/>
<stop offset="1" stop-color="#4F52FF"/>
</linearGradient>
<linearGradient id="paint23_linear_979_9128" x1="45.3472" y1="126.914" x2="115.233" y2="126.914" gradientUnits="userSpaceOnUse">
<stop stop-color="#4042E2"/>
<stop offset="1" stop-color="#4F52FF"/>
</linearGradient>
<linearGradient id="paint24_linear_979_9128" x1="59.438" y1="141.874" x2="115.203" y2="141.874" gradientUnits="userSpaceOnUse">
<stop stop-color="#4042E2"/>
<stop offset="1" stop-color="#4F52FF"/>
</linearGradient>
<linearGradient id="paint25_linear_979_9128" x1="66.8876" y1="77.8001" x2="115.204" y2="77.8001" gradientUnits="userSpaceOnUse">
<stop stop-color="#4042E2"/>
<stop offset="1" stop-color="#4F52FF"/>
</linearGradient>
<linearGradient id="paint26_linear_979_9128" x1="190.025" y1="74.0482" x2="224.154" y2="74.0482" gradientUnits="userSpaceOnUse">
<stop stop-color="#4042E2"/>
<stop offset="1" stop-color="#4F52FF"/>
</linearGradient>
<linearGradient id="paint27_linear_979_9128" x1="190.218" y1="112.883" x2="265.257" y2="112.883" gradientUnits="userSpaceOnUse">
<stop stop-color="#4042E2"/>
<stop offset="1" stop-color="#4F52FF"/>
</linearGradient>
<linearGradient id="paint28_linear_979_9128" x1="190.118" y1="135.395" x2="247.321" y2="135.395" gradientUnits="userSpaceOnUse">
<stop stop-color="#4042E2"/>
<stop offset="1" stop-color="#4F52FF"/>
</linearGradient>
<linearGradient id="paint29_linear_979_9128" x1="55.4461" y1="7.17733" x2="24.619" y2="58.8968" gradientUnits="userSpaceOnUse">
<stop stop-color="#4042E2"/>
<stop offset="1" stop-color="#4F52FF"/>
</linearGradient>
<linearGradient id="paint30_linear_979_9128" x1="28.4402" y1="36.3767" x2="46.8035" y2="36.3767" gradientUnits="userSpaceOnUse">
<stop stop-color="#4042E2"/>
<stop offset="1" stop-color="#4F52FF"/>
</linearGradient>
<linearGradient id="paint31_linear_979_9128" x1="36.5164" y1="36.0056" x2="38.6281" y2="36.0056" gradientUnits="userSpaceOnUse">
<stop stop-color="#DAE3FE"/>
<stop offset="1" stop-color="#E9EFFD"/>
</linearGradient>
<linearGradient id="paint32_linear_979_9128" x1="281.972" y1="28.0604" x2="251.145" y2="79.7799" gradientUnits="userSpaceOnUse">
<stop stop-color="#4042E2"/>
<stop offset="1" stop-color="#4F52FF"/>
</linearGradient>
<linearGradient id="paint33_linear_979_9128" x1="254.99" y1="57.241" x2="273.466" y2="57.241" gradientUnits="userSpaceOnUse">
<stop stop-color="#4042E2"/>
<stop offset="1" stop-color="#4F52FF"/>
</linearGradient>
<linearGradient id="paint34_linear_979_9128" x1="259.419" y1="57.9671" x2="268.496" y2="57.9671" gradientUnits="userSpaceOnUse">
<stop stop-color="#DAE3FE"/>
<stop offset="1" stop-color="#E9EFFD"/>
</linearGradient>
<linearGradient id="paint35_linear_979_9128" x1="266.286" y1="61.0916" x2="270.705" y2="61.0916" gradientUnits="userSpaceOnUse">
<stop stop-color="#DAE3FE"/>
<stop offset="1" stop-color="#E9EFFD"/>
</linearGradient>
<linearGradient id="paint36_linear_979_9128" x1="259.244" y1="52.5283" x2="263.573" y2="52.5283" gradientUnits="userSpaceOnUse">
<stop stop-color="#DAE3FE"/>
<stop offset="1" stop-color="#E9EFFD"/>
</linearGradient>
<linearGradient id="paint37_linear_979_9128" x1="239.129" y1="1.74691" x2="208.303" y2="53.4664" gradientUnits="userSpaceOnUse">
<stop stop-color="#4042E2"/>
<stop offset="1" stop-color="#4F52FF"/>
</linearGradient>
<linearGradient id="paint38_linear_979_9128" x1="216.177" y1="9.8983" x2="205.796" y2="70.0585" gradientUnits="userSpaceOnUse">
<stop stop-color="#4042E2"/>
<stop offset="1" stop-color="#4F52FF"/>
</linearGradient>
<linearGradient id="paint39_linear_979_9128" x1="228.517" y1="12.1492" x2="215.86" y2="46.9595" gradientUnits="userSpaceOnUse">
<stop stop-color="#4042E2"/>
<stop offset="1" stop-color="#4F52FF"/>
</linearGradient>
<linearGradient id="paint40_linear_979_9128" x1="73.2128" y1="52.2662" x2="42.3871" y2="103.986" gradientUnits="userSpaceOnUse">
<stop stop-color="#4042E2"/>
<stop offset="1" stop-color="#4F52FF"/>
</linearGradient>
<linearGradient id="paint41_linear_979_9128" x1="63.4551" y1="53.1906" x2="50.3819" y2="98.8084" gradientUnits="userSpaceOnUse">
<stop stop-color="#4042E2"/>
<stop offset="1" stop-color="#4F52FF"/>
</linearGradient>
<linearGradient id="paint42_linear_979_9128" x1="63.8272" y1="53.2971" x2="50.7539" y2="98.9149" gradientUnits="userSpaceOnUse">
<stop stop-color="#4042E2"/>
<stop offset="1" stop-color="#4F52FF"/>
</linearGradient>
<linearGradient id="paint43_linear_979_9128" x1="251.306" y1="61.4298" x2="220.479" y2="113.149" gradientUnits="userSpaceOnUse">
<stop stop-color="#4042E2"/>
<stop offset="1" stop-color="#4F52FF"/>
</linearGradient>
<linearGradient id="paint44_linear_979_9128" x1="244.464" y1="47.628" x2="228.905" y2="109.216" gradientUnits="userSpaceOnUse">
<stop stop-color="#4042E2"/>
<stop offset="1" stop-color="#4F52FF"/>
</linearGradient>
<linearGradient id="paint45_linear_979_9128" x1="52.243" y1="101.286" x2="21.4159" y2="153.005" gradientUnits="userSpaceOnUse">
<stop stop-color="#4042E2"/>
<stop offset="1" stop-color="#4F52FF"/>
</linearGradient>
<linearGradient id="paint46_linear_979_9128" x1="25.244" y1="130.836" x2="43.7197" y2="130.836" gradientUnits="userSpaceOnUse">
<stop stop-color="#4042E2"/>
<stop offset="1" stop-color="#4F52FF"/>
</linearGradient>
<linearGradient id="paint47_linear_979_9128" x1="31.6697" y1="126.522" x2="37.7378" y2="126.522" gradientUnits="userSpaceOnUse">
<stop stop-color="#DAE3FE"/>
<stop offset="1" stop-color="#E9EFFD"/>
</linearGradient>
<linearGradient id="paint48_linear_979_9128" x1="28.8374" y1="133.389" x2="40.5364" y2="133.389" gradientUnits="userSpaceOnUse">
<stop stop-color="#DAE3FE"/>
<stop offset="1" stop-color="#E9EFFD"/>
</linearGradient>
<linearGradient id="paint49_linear_979_9128" x1="288.519" y1="98.7096" x2="257.692" y2="150.429" gradientUnits="userSpaceOnUse">
<stop stop-color="#4042E2"/>
<stop offset="1" stop-color="#4F52FF"/>
</linearGradient>
<linearGradient id="paint50_linear_979_9128" x1="261.532" y1="127.892" x2="280.007" y2="127.892" gradientUnits="userSpaceOnUse">
<stop stop-color="#4042E2"/>
<stop offset="1" stop-color="#4F52FF"/>
</linearGradient>
<linearGradient id="paint51_linear_979_9128" x1="264.746" y1="123.621" x2="277.879" y2="123.621" gradientUnits="userSpaceOnUse">
<stop stop-color="#DAE3FE"/>
<stop offset="1" stop-color="#E9EFFD"/>
</linearGradient>
<linearGradient id="paint52_linear_979_9128" x1="264.822" y1="126.157" x2="276.774" y2="126.157" gradientUnits="userSpaceOnUse">
<stop stop-color="#DAE3FE"/>
<stop offset="1" stop-color="#E9EFFD"/>
</linearGradient>
<linearGradient id="paint53_linear_979_9128" x1="264.746" y1="128.716" x2="275.512" y2="128.716" gradientUnits="userSpaceOnUse">
<stop stop-color="#DAE3FE"/>
<stop offset="1" stop-color="#E9EFFD"/>
</linearGradient>
<linearGradient id="paint54_linear_979_9128" x1="264.784" y1="130.968" x2="274.554" y2="130.968" gradientUnits="userSpaceOnUse">
<stop stop-color="#DAE3FE"/>
<stop offset="1" stop-color="#E9EFFD"/>
</linearGradient>
<linearGradient id="paint55_linear_979_9128" x1="264.859" y1="133.504" x2="273.341" y2="133.504" gradientUnits="userSpaceOnUse">
<stop stop-color="#DAE3FE"/>
<stop offset="1" stop-color="#E9EFFD"/>
</linearGradient>
<linearGradient id="paint56_linear_979_9128" x1="118.893" y1="16.8348" x2="88.0658" y2="68.5543" gradientUnits="userSpaceOnUse">
<stop stop-color="#4042E2"/>
<stop offset="1" stop-color="#4F52FF"/>
</linearGradient>
<linearGradient id="paint57_linear_979_9128" x1="91.9025" y1="46.0163" x2="110.378" y2="46.0163" gradientUnits="userSpaceOnUse">
<stop stop-color="#4042E2"/>
<stop offset="1" stop-color="#4F52FF"/>
</linearGradient>
<linearGradient id="paint58_linear_979_9128" x1="95.1206" y1="41.7446" x2="108.252" y2="41.7446" gradientUnits="userSpaceOnUse">
<stop stop-color="#DAE3FE"/>
<stop offset="1" stop-color="#E9EFFD"/>
</linearGradient>
<linearGradient id="paint59_linear_979_9128" x1="95.1965" y1="44.2803" x2="107.147" y2="44.2803" gradientUnits="userSpaceOnUse">
<stop stop-color="#DAE3FE"/>
<stop offset="1" stop-color="#E9EFFD"/>
</linearGradient>
<linearGradient id="paint60_linear_979_9128" x1="95.1206" y1="46.8411" x2="105.886" y2="46.8411" gradientUnits="userSpaceOnUse">
<stop stop-color="#DAE3FE"/>
<stop offset="1" stop-color="#E9EFFD"/>
</linearGradient>
<linearGradient id="paint61_linear_979_9128" x1="95.1582" y1="49.0936" x2="104.927" y2="49.0936" gradientUnits="userSpaceOnUse">
<stop stop-color="#DAE3FE"/>
<stop offset="1" stop-color="#E9EFFD"/>
</linearGradient>
<linearGradient id="paint62_linear_979_9128" x1="95.2336" y1="51.628" x2="103.716" y2="51.628" gradientUnits="userSpaceOnUse">
<stop stop-color="#DAE3FE"/>
<stop offset="1" stop-color="#E9EFFD"/>
</linearGradient>
<linearGradient id="paint63_linear_979_9128" x1="111.25" y1="127.855" x2="80.423" y2="179.575" gradientUnits="userSpaceOnUse">
<stop stop-color="#4042E2"/>
<stop offset="1" stop-color="#4F52FF"/>
</linearGradient>
<linearGradient id="paint64_linear_979_9128" x1="84.4485" y1="157.217" x2="102.73" y2="157.217" gradientUnits="userSpaceOnUse">
<stop stop-color="#4042E2"/>
<stop offset="1" stop-color="#4F52FF"/>
</linearGradient>
<linearGradient id="paint65_linear_979_9128" x1="88.981" y1="157.56" x2="91.3823" y2="157.56" gradientUnits="userSpaceOnUse">
<stop stop-color="#DAE3FE"/>
<stop offset="1" stop-color="#E9EFFD"/>
</linearGradient>
<linearGradient id="paint66_linear_979_9128" x1="91.9153" y1="156.363" x2="98.1859" y2="156.363" gradientUnits="userSpaceOnUse">
<stop stop-color="#DAE3FE"/>
<stop offset="1" stop-color="#E9EFFD"/>
</linearGradient>
<linearGradient id="paint67_linear_979_9128" x1="277.731" y1="136.956" x2="246.904" y2="188.675" gradientUnits="userSpaceOnUse">
<stop stop-color="#4042E2"/>
<stop offset="1" stop-color="#4F52FF"/>
</linearGradient>
<linearGradient id="paint68_linear_979_9128" x1="250.841" y1="166.267" x2="269.122" y2="166.267" gradientUnits="userSpaceOnUse">
<stop stop-color="#4042E2"/>
<stop offset="1" stop-color="#4F52FF"/>
</linearGradient>
<linearGradient id="paint69_linear_979_9128" x1="254.155" y1="166.505" x2="266.377" y2="166.505" gradientUnits="userSpaceOnUse">
<stop stop-color="#DAE3FE"/>
<stop offset="1" stop-color="#E9EFFD"/>
</linearGradient>
<linearGradient id="paint70_linear_979_9128" x1="254.454" y1="164.087" x2="265.839" y2="164.087" gradientUnits="userSpaceOnUse">
<stop stop-color="#DAE3FE"/>
<stop offset="1" stop-color="#E9EFFD"/>
</linearGradient>
<clipPath id="clip0_979_9128">
<rect width="300.069" height="184.042" fill="white" transform="translate(0.200684 0.1073)"/>
</clipPath>
</defs>
</svg>
