<svg width="287" height="238" viewBox="0 0 287 238" fill="none" xmlns="http://www.w3.org/2000/svg">
<path d="M4.5354 208.014H7.45728L14.9104 226.561L22.3479 208.014H25.2854L16.0354 230.764H13.7542L4.5354 208.014ZM3.58228 208.014H6.1604L6.58228 221.889V230.764H3.58228V208.014ZM23.6448 208.014H26.2229V230.764H23.2229V221.889L23.6448 208.014ZM30.3167 222.499V222.139C30.3167 220.92 30.4937 219.79 30.8479 218.749C31.2021 217.696 31.7125 216.785 32.3792 216.014C33.0458 215.233 33.8531 214.629 34.801 214.202C35.7489 213.764 36.8114 213.545 37.9885 213.545C39.176 213.545 40.2437 213.764 41.1917 214.202C42.15 214.629 42.9625 215.233 43.6292 216.014C44.3062 216.785 44.8219 217.696 45.176 218.749C45.5302 219.79 45.7073 220.92 45.7073 222.139V222.499C45.7073 223.717 45.5302 224.847 45.176 225.889C44.8219 226.931 44.3062 227.842 43.6292 228.624C42.9625 229.394 42.1552 229.999 41.2073 230.436C40.2698 230.863 39.2073 231.077 38.0198 231.077C36.8323 231.077 35.7646 230.863 34.8167 230.436C33.8687 229.999 33.0562 229.394 32.3792 228.624C31.7125 227.842 31.2021 226.931 30.8479 225.889C30.4937 224.847 30.3167 223.717 30.3167 222.499ZM33.2073 222.139V222.499C33.2073 223.342 33.3062 224.139 33.5042 224.889C33.7021 225.629 33.9989 226.285 34.3948 226.858C34.801 227.431 35.3062 227.884 35.9104 228.217C36.5146 228.54 37.2177 228.702 38.0198 228.702C38.8114 228.702 39.5042 228.54 40.0979 228.217C40.7021 227.884 41.2021 227.431 41.5979 226.858C41.9937 226.285 42.2906 225.629 42.4885 224.889C42.6969 224.139 42.801 223.342 42.801 222.499V222.139C42.801 221.306 42.6969 220.519 42.4885 219.78C42.2906 219.03 41.9885 218.368 41.5823 217.795C41.1864 217.212 40.6864 216.754 40.0823 216.42C39.4885 216.087 38.7906 215.92 37.9885 215.92C37.1969 215.92 36.4989 216.087 35.8948 216.42C35.301 216.754 34.801 217.212 34.3948 217.795C33.9989 218.368 33.7021 219.03 33.5042 219.78C33.3062 220.519 33.2073 221.306 33.2073 222.139ZM49.3167 206.764H52.2229V227.483L51.9729 230.764H49.3167V206.764ZM63.6448 222.17V222.499C63.6448 223.728 63.4989 224.868 63.2073 225.92C62.9156 226.962 62.4885 227.868 61.926 228.639C61.3635 229.41 60.676 230.009 59.8635 230.436C59.051 230.863 58.1187 231.077 57.0667 231.077C55.9937 231.077 55.051 230.894 54.2385 230.53C53.4364 230.155 52.7594 229.618 52.2073 228.92C51.6552 228.222 51.2125 227.379 50.8792 226.389C50.5562 225.4 50.3323 224.285 50.2073 223.045V221.608C50.3323 220.358 50.5562 219.238 50.8792 218.249C51.2125 217.259 51.6552 216.415 52.2073 215.717C52.7594 215.009 53.4364 214.472 54.2385 214.108C55.0406 213.733 55.9729 213.545 57.0354 213.545C58.0979 213.545 59.0406 213.754 59.8635 214.17C60.6864 214.577 61.3739 215.16 61.926 215.92C62.4885 216.681 62.9156 217.592 63.2073 218.655C63.4989 219.707 63.6448 220.879 63.6448 222.17ZM60.7385 222.499V222.17C60.7385 221.327 60.6604 220.535 60.5042 219.795C60.3479 219.045 60.0979 218.389 59.7542 217.827C59.4104 217.254 58.9573 216.806 58.3948 216.483C57.8323 216.15 57.1396 215.983 56.3167 215.983C55.5875 215.983 54.9521 216.108 54.4104 216.358C53.8792 216.608 53.426 216.946 53.051 217.374C52.676 217.79 52.3687 218.269 52.1292 218.811C51.9 219.342 51.7281 219.894 51.6135 220.467V224.233C51.7802 224.962 52.051 225.665 52.426 226.342C52.8114 227.009 53.3219 227.556 53.9573 227.983C54.6031 228.41 55.4 228.624 56.3479 228.624C57.1292 228.624 57.7958 228.467 58.3479 228.155C58.9104 227.832 59.3635 227.389 59.7073 226.827C60.0614 226.264 60.3219 225.613 60.4885 224.874C60.6552 224.134 60.7385 223.342 60.7385 222.499ZM70.4417 213.858V230.764H67.5354V213.858H70.4417ZM67.3167 209.374C67.3167 208.905 67.4573 208.509 67.7385 208.186C68.0302 207.863 68.4573 207.702 69.0198 207.702C69.5719 207.702 69.9937 207.863 70.2854 208.186C70.5875 208.509 70.7385 208.905 70.7385 209.374C70.7385 209.821 70.5875 210.207 70.2854 210.53C69.9937 210.842 69.5719 210.999 69.0198 210.999C68.4573 210.999 68.0302 210.842 67.7385 210.53C67.4573 210.207 67.3167 209.821 67.3167 209.374ZM78.2229 206.764V230.764H75.3167V206.764H78.2229ZM89.8792 231.077C88.7021 231.077 87.6344 230.879 86.676 230.483C85.7281 230.077 84.9104 229.509 84.2229 228.78C83.5458 228.051 83.025 227.186 82.6604 226.186C82.2958 225.186 82.1135 224.092 82.1135 222.905V222.249C82.1135 220.874 82.3167 219.65 82.7229 218.577C83.1292 217.493 83.6812 216.577 84.3792 215.827C85.0771 215.077 85.8687 214.509 86.7542 214.124C87.6396 213.738 88.5562 213.545 89.5042 213.545C90.7125 213.545 91.7542 213.754 92.6292 214.17C93.5146 214.587 94.2385 215.17 94.801 215.92C95.3635 216.66 95.7802 217.535 96.051 218.545C96.3219 219.545 96.4573 220.639 96.4573 221.827V223.124H83.8323V220.764H93.5667V220.545C93.525 219.795 93.3687 219.066 93.0979 218.358C92.8375 217.65 92.4208 217.066 91.8479 216.608C91.275 216.15 90.4937 215.92 89.5042 215.92C88.8479 215.92 88.2437 216.061 87.6917 216.342C87.1396 216.613 86.6656 217.019 86.2698 217.561C85.8739 218.103 85.5667 218.764 85.3479 219.545C85.1292 220.327 85.0198 221.228 85.0198 222.249V222.905C85.0198 223.707 85.1292 224.462 85.3479 225.17C85.5771 225.868 85.9052 226.483 86.3323 227.014C86.7698 227.545 87.2958 227.962 87.9104 228.264C88.5354 228.566 89.2437 228.717 90.0354 228.717C91.0562 228.717 91.9208 228.509 92.6292 228.092C93.3375 227.676 93.9573 227.118 94.4885 226.42L96.2385 227.811C95.8739 228.363 95.4104 228.889 94.8479 229.389C94.2854 229.889 93.5927 230.295 92.7698 230.608C91.9573 230.92 90.9937 231.077 89.8792 231.077ZM115.989 208.014V230.764H113.02V208.014H115.989ZM123.301 208.014V210.483H105.723V208.014H123.301ZM131.692 231.077C130.515 231.077 129.447 230.879 128.489 230.483C127.541 230.077 126.723 229.509 126.035 228.78C125.358 228.051 124.837 227.186 124.473 226.186C124.108 225.186 123.926 224.092 123.926 222.905V222.249C123.926 220.874 124.129 219.65 124.535 218.577C124.942 217.493 125.494 216.577 126.192 215.827C126.89 215.077 127.681 214.509 128.567 214.124C129.452 213.738 130.369 213.545 131.317 213.545C132.525 213.545 133.567 213.754 134.442 214.17C135.327 214.587 136.051 215.17 136.614 215.92C137.176 216.66 137.593 217.535 137.864 218.545C138.134 219.545 138.27 220.639 138.27 221.827V223.124H125.645V220.764H135.379V220.545C135.337 219.795 135.181 219.066 134.91 218.358C134.65 217.65 134.233 217.066 133.66 216.608C133.087 216.15 132.306 215.92 131.317 215.92C130.66 215.92 130.056 216.061 129.504 216.342C128.952 216.613 128.478 217.019 128.082 217.561C127.686 218.103 127.379 218.764 127.16 219.545C126.942 220.327 126.832 221.228 126.832 222.249V222.905C126.832 223.707 126.942 224.462 127.16 225.17C127.39 225.868 127.718 226.483 128.145 227.014C128.582 227.545 129.108 227.962 129.723 228.264C130.348 228.566 131.056 228.717 131.848 228.717C132.869 228.717 133.733 228.509 134.442 228.092C135.15 227.676 135.77 227.118 136.301 226.42L138.051 227.811C137.686 228.363 137.223 228.889 136.66 229.389C136.098 229.889 135.405 230.295 134.582 230.608C133.77 230.92 132.806 231.077 131.692 231.077ZM144.785 206.764V230.764H141.879V206.764H144.785ZM156.442 231.077C155.265 231.077 154.197 230.879 153.239 230.483C152.291 230.077 151.473 229.509 150.785 228.78C150.108 228.051 149.587 227.186 149.223 226.186C148.858 225.186 148.676 224.092 148.676 222.905V222.249C148.676 220.874 148.879 219.65 149.285 218.577C149.692 217.493 150.244 216.577 150.942 215.827C151.64 215.077 152.431 214.509 153.317 214.124C154.202 213.738 155.119 213.545 156.067 213.545C157.275 213.545 158.317 213.754 159.192 214.17C160.077 214.587 160.801 215.17 161.364 215.92C161.926 216.66 162.343 217.535 162.614 218.545C162.884 219.545 163.02 220.639 163.02 221.827V223.124H150.395V220.764H160.129V220.545C160.087 219.795 159.931 219.066 159.66 218.358C159.4 217.65 158.983 217.066 158.41 216.608C157.837 216.15 157.056 215.92 156.067 215.92C155.41 215.92 154.806 216.061 154.254 216.342C153.702 216.613 153.228 217.019 152.832 217.561C152.436 218.103 152.129 218.764 151.91 219.545C151.692 220.327 151.582 221.228 151.582 222.249V222.905C151.582 223.707 151.692 224.462 151.91 225.17C152.14 225.868 152.468 226.483 152.895 227.014C153.332 227.545 153.858 227.962 154.473 228.264C155.098 228.566 155.806 228.717 156.598 228.717C157.619 228.717 158.483 228.509 159.192 228.092C159.9 227.676 160.52 227.118 161.051 226.42L162.801 227.811C162.436 228.363 161.973 228.889 161.41 229.389C160.848 229.889 160.155 230.295 159.332 230.608C158.52 230.92 157.556 231.077 156.442 231.077ZM178.957 225.014C178.957 224.483 178.874 224.014 178.707 223.608C178.551 223.191 178.27 222.816 177.864 222.483C177.468 222.15 176.916 221.832 176.207 221.53C175.509 221.228 174.624 220.92 173.551 220.608C172.426 220.275 171.41 219.905 170.504 219.499C169.598 219.082 168.822 218.608 168.176 218.077C167.53 217.545 167.035 216.936 166.692 216.249C166.348 215.561 166.176 214.775 166.176 213.889C166.176 213.004 166.358 212.186 166.723 211.436C167.087 210.686 167.608 210.035 168.285 209.483C168.973 208.92 169.791 208.483 170.739 208.17C171.686 207.858 172.744 207.702 173.91 207.702C175.619 207.702 177.067 208.03 178.254 208.686C179.452 209.332 180.364 210.181 180.989 211.233C181.614 212.275 181.926 213.389 181.926 214.577H178.926C178.926 213.722 178.744 212.967 178.379 212.311C178.015 211.644 177.462 211.124 176.723 210.749C175.983 210.363 175.046 210.17 173.91 210.17C172.837 210.17 171.952 210.332 171.254 210.655C170.556 210.978 170.035 211.415 169.692 211.967C169.358 212.519 169.192 213.15 169.192 213.858C169.192 214.337 169.291 214.775 169.489 215.17C169.697 215.556 170.015 215.915 170.442 216.249C170.879 216.582 171.431 216.889 172.098 217.17C172.775 217.452 173.582 217.722 174.52 217.983C175.811 218.347 176.926 218.754 177.864 219.202C178.801 219.65 179.572 220.155 180.176 220.717C180.791 221.269 181.244 221.9 181.535 222.608C181.837 223.306 181.989 224.097 181.989 224.983C181.989 225.91 181.801 226.749 181.426 227.499C181.051 228.249 180.515 228.889 179.817 229.42C179.119 229.952 178.28 230.363 177.301 230.655C176.332 230.936 175.249 231.077 174.051 231.077C172.999 231.077 171.962 230.931 170.942 230.639C169.931 230.347 169.009 229.91 168.176 229.327C167.353 228.743 166.692 228.025 166.192 227.17C165.702 226.306 165.457 225.306 165.457 224.17H168.457C168.457 224.952 168.608 225.624 168.91 226.186C169.212 226.738 169.624 227.196 170.145 227.561C170.676 227.926 171.275 228.196 171.942 228.374C172.619 228.54 173.322 228.624 174.051 228.624C175.103 228.624 175.994 228.478 176.723 228.186C177.452 227.894 178.004 227.478 178.379 226.936C178.765 226.394 178.957 225.754 178.957 225.014ZM190.145 229.014L194.848 213.858H197.942L191.16 233.374C191.004 233.79 190.796 234.238 190.535 234.717C190.285 235.207 189.962 235.67 189.567 236.108C189.171 236.545 188.692 236.9 188.129 237.17C187.577 237.452 186.916 237.592 186.145 237.592C185.916 237.592 185.624 237.561 185.27 237.499C184.916 237.436 184.666 237.384 184.52 237.342L184.504 234.999C184.587 235.009 184.718 235.019 184.895 235.03C185.082 235.051 185.212 235.061 185.285 235.061C185.942 235.061 186.499 234.972 186.957 234.795C187.416 234.629 187.801 234.342 188.114 233.936C188.436 233.54 188.712 232.993 188.942 232.295L190.145 229.014ZM186.692 213.858L191.082 226.983L191.832 230.03L189.754 231.092L183.535 213.858H186.692ZM210.395 226.28C210.395 225.863 210.301 225.478 210.114 225.124C209.936 224.759 209.567 224.431 209.004 224.139C208.452 223.837 207.619 223.577 206.504 223.358C205.567 223.16 204.718 222.926 203.957 222.655C203.207 222.384 202.567 222.056 202.035 221.67C201.515 221.285 201.114 220.832 200.832 220.311C200.551 219.79 200.41 219.181 200.41 218.483C200.41 217.816 200.556 217.186 200.848 216.592C201.15 215.999 201.572 215.472 202.114 215.014C202.666 214.556 203.327 214.196 204.098 213.936C204.869 213.676 205.728 213.545 206.676 213.545C208.03 213.545 209.186 213.785 210.145 214.264C211.103 214.743 211.837 215.384 212.348 216.186C212.858 216.978 213.114 217.858 213.114 218.827H210.223C210.223 218.358 210.082 217.905 209.801 217.467C209.53 217.019 209.129 216.65 208.598 216.358C208.077 216.066 207.436 215.92 206.676 215.92C205.874 215.92 205.223 216.045 204.723 216.295C204.233 216.535 203.874 216.842 203.645 217.217C203.426 217.592 203.317 217.988 203.317 218.405C203.317 218.717 203.369 218.999 203.473 219.249C203.587 219.488 203.785 219.712 204.067 219.92C204.348 220.118 204.744 220.306 205.254 220.483C205.765 220.66 206.416 220.837 207.207 221.014C208.593 221.327 209.733 221.702 210.629 222.139C211.525 222.577 212.192 223.113 212.629 223.749C213.067 224.384 213.285 225.155 213.285 226.061C213.285 226.801 213.129 227.478 212.817 228.092C212.515 228.707 212.072 229.238 211.489 229.686C210.916 230.124 210.228 230.467 209.426 230.717C208.634 230.957 207.744 231.077 206.754 231.077C205.265 231.077 204.004 230.811 202.973 230.28C201.942 229.749 201.16 229.061 200.629 228.217C200.098 227.374 199.832 226.483 199.832 225.545H202.739C202.78 226.337 203.009 226.967 203.426 227.436C203.843 227.894 204.353 228.222 204.957 228.42C205.561 228.608 206.16 228.702 206.754 228.702C207.546 228.702 208.207 228.597 208.739 228.389C209.28 228.181 209.692 227.894 209.973 227.53C210.254 227.165 210.395 226.749 210.395 226.28ZM224.16 213.858V216.077H215.02V213.858H224.16ZM218.114 209.749H221.004V226.577C221.004 227.15 221.093 227.582 221.27 227.874C221.447 228.165 221.676 228.358 221.957 228.452C222.239 228.545 222.541 228.592 222.864 228.592C223.103 228.592 223.353 228.571 223.614 228.53C223.884 228.478 224.087 228.436 224.223 228.405L224.239 230.764C224.009 230.837 223.707 230.905 223.332 230.967C222.968 231.04 222.525 231.077 222.004 231.077C221.296 231.077 220.645 230.936 220.051 230.655C219.457 230.374 218.983 229.905 218.629 229.249C218.285 228.582 218.114 227.686 218.114 226.561V209.749ZM234.567 231.077C233.39 231.077 232.322 230.879 231.364 230.483C230.416 230.077 229.598 229.509 228.91 228.78C228.233 228.051 227.712 227.186 227.348 226.186C226.983 225.186 226.801 224.092 226.801 222.905V222.249C226.801 220.874 227.004 219.65 227.41 218.577C227.817 217.493 228.369 216.577 229.067 215.827C229.765 215.077 230.556 214.509 231.442 214.124C232.327 213.738 233.244 213.545 234.192 213.545C235.4 213.545 236.442 213.754 237.317 214.17C238.202 214.587 238.926 215.17 239.489 215.92C240.051 216.66 240.468 217.535 240.739 218.545C241.009 219.545 241.145 220.639 241.145 221.827V223.124H228.52V220.764H238.254V220.545C238.212 219.795 238.056 219.066 237.785 218.358C237.525 217.65 237.108 217.066 236.535 216.608C235.962 216.15 235.181 215.92 234.192 215.92C233.535 215.92 232.931 216.061 232.379 216.342C231.827 216.613 231.353 217.019 230.957 217.561C230.561 218.103 230.254 218.764 230.035 219.545C229.817 220.327 229.707 221.228 229.707 222.249V222.905C229.707 223.707 229.817 224.462 230.035 225.17C230.265 225.868 230.593 226.483 231.02 227.014C231.457 227.545 231.983 227.962 232.598 228.264C233.223 228.566 233.931 228.717 234.723 228.717C235.744 228.717 236.608 228.509 237.317 228.092C238.025 227.676 238.645 227.118 239.176 226.42L240.926 227.811C240.561 228.363 240.098 228.889 239.535 229.389C238.973 229.889 238.28 230.295 237.457 230.608C236.645 230.92 235.681 231.077 234.567 231.077ZM247.395 217.217V230.764H244.489V213.858H247.239L247.395 217.217ZM246.801 221.67L245.457 221.624C245.468 220.467 245.619 219.4 245.91 218.42C246.202 217.431 246.634 216.571 247.207 215.842C247.78 215.113 248.494 214.551 249.348 214.155C250.202 213.749 251.192 213.545 252.317 213.545C253.108 213.545 253.837 213.66 254.504 213.889C255.171 214.108 255.749 214.457 256.239 214.936C256.728 215.415 257.108 216.03 257.379 216.78C257.65 217.53 257.785 218.436 257.785 219.499V230.764H254.895V219.639C254.895 218.754 254.744 218.045 254.442 217.514C254.15 216.983 253.733 216.597 253.192 216.358C252.65 216.108 252.015 215.983 251.285 215.983C250.431 215.983 249.718 216.134 249.145 216.436C248.572 216.738 248.114 217.155 247.77 217.686C247.426 218.217 247.176 218.827 247.02 219.514C246.874 220.191 246.801 220.91 246.801 221.67ZM257.754 220.077L255.817 220.67C255.827 219.743 255.978 218.853 256.27 217.999C256.572 217.144 257.004 216.384 257.567 215.717C258.14 215.051 258.843 214.525 259.676 214.139C260.509 213.743 261.462 213.545 262.535 213.545C263.442 213.545 264.244 213.665 264.942 213.905C265.65 214.144 266.244 214.514 266.723 215.014C267.212 215.504 267.582 216.134 267.832 216.905C268.082 217.676 268.207 218.592 268.207 219.655V230.764H265.301V219.624C265.301 218.676 265.15 217.941 264.848 217.42C264.556 216.889 264.14 216.519 263.598 216.311C263.067 216.092 262.431 215.983 261.692 215.983C261.056 215.983 260.494 216.092 260.004 216.311C259.515 216.53 259.103 216.832 258.77 217.217C258.436 217.592 258.181 218.025 258.004 218.514C257.837 219.004 257.754 219.525 257.754 220.077ZM282.426 226.28C282.426 225.863 282.332 225.478 282.145 225.124C281.968 224.759 281.598 224.431 281.035 224.139C280.483 223.837 279.65 223.577 278.535 223.358C277.598 223.16 276.749 222.926 275.989 222.655C275.239 222.384 274.598 222.056 274.067 221.67C273.546 221.285 273.145 220.832 272.864 220.311C272.582 219.79 272.442 219.181 272.442 218.483C272.442 217.816 272.587 217.186 272.879 216.592C273.181 215.999 273.603 215.472 274.145 215.014C274.697 214.556 275.358 214.196 276.129 213.936C276.9 213.676 277.759 213.545 278.707 213.545C280.061 213.545 281.218 213.785 282.176 214.264C283.134 214.743 283.869 215.384 284.379 216.186C284.89 216.978 285.145 217.858 285.145 218.827H282.254C282.254 218.358 282.114 217.905 281.832 217.467C281.561 217.019 281.16 216.65 280.629 216.358C280.108 216.066 279.468 215.92 278.707 215.92C277.905 215.92 277.254 216.045 276.754 216.295C276.265 216.535 275.905 216.842 275.676 217.217C275.457 217.592 275.348 217.988 275.348 218.405C275.348 218.717 275.4 218.999 275.504 219.249C275.619 219.488 275.817 219.712 276.098 219.92C276.379 220.118 276.775 220.306 277.285 220.483C277.796 220.66 278.447 220.837 279.239 221.014C280.624 221.327 281.765 221.702 282.66 222.139C283.556 222.577 284.223 223.113 284.66 223.749C285.098 224.384 285.317 225.155 285.317 226.061C285.317 226.801 285.16 227.478 284.848 228.092C284.546 228.707 284.103 229.238 283.52 229.686C282.947 230.124 282.259 230.467 281.457 230.717C280.666 230.957 279.775 231.077 278.785 231.077C277.296 231.077 276.035 230.811 275.004 230.28C273.973 229.749 273.192 229.061 272.66 228.217C272.129 227.374 271.864 226.483 271.864 225.545H274.77C274.811 226.337 275.041 226.967 275.457 227.436C275.874 227.894 276.384 228.222 276.989 228.42C277.593 228.608 278.192 228.702 278.785 228.702C279.577 228.702 280.239 228.597 280.77 228.389C281.311 228.181 281.723 227.894 282.004 227.53C282.285 227.165 282.426 226.749 282.426 226.28Z" fill="black"/>
<g clip-path="url(#clip0_973_4166)">
<g opacity="0.41">
<path d="M255.372 123.953C255.592 120.165 255.495 116.356 255.07 112.589C253.074 94.8816 244.025 78.1821 230.712 66.4014C225.962 62.197 220.557 58.4346 217.466 52.8835C212.261 43.5391 212.655 32.8019 206.195 23.5758C199.726 14.3393 190.303 7.13835 179.672 3.43762C147.975 -7.59261 103.604 10.3662 107.596 48.715C107.612 48.8538 107.627 49.0542 107.642 49.3061C108.175 57.2729 101.946 63.9702 94.0224 64.1604C64.7764 64.8594 39.6045 87.5007 34.2201 116.181C30.755 134.628 36.4261 154.844 49.8616 167.889C59.8884 177.629 73.3445 182.98 86.8107 186.655C113.805 194.025 142.211 195.572 170.045 192.75C196.097 190.114 223.577 182.589 240.427 162.461C249.414 151.724 254.563 137.954 255.372 123.943V123.953Z" fill="#E1E2FE"/>
</g>
<g opacity="0.31">
<path d="M92.9603 12.3034C94.685 10.3526 94.5084 7.36705 92.5658 5.63503C90.6232 3.90301 87.6502 4.08038 85.9254 6.0312C84.2007 7.98202 84.3773 10.9676 86.3199 12.6996C88.2626 14.4316 91.2356 14.2542 92.9603 12.3034Z" fill="#E1E2FE"/>
</g>
<path opacity="0.47" d="M242.552 151.441C246.728 142.431 248.392 132.434 246.237 121.876C243.857 110.219 236.63 101.265 239.138 88.832C240.663 81.2558 241.047 74.2399 241.82 66.7459C243.411 51.357 233.461 37.798 221.116 30.4736C211.089 24.5267 199.338 22.296 187.811 22.4554C177.436 22.5993 167.082 24.5216 157.03 27.107C147.341 29.5998 137.872 32.8842 127.717 31.846C119.272 30.9825 111.666 27.3177 103.799 24.5833C85.0202 18.0556 62.2795 17.1356 45.1075 27.071C34.0878 33.4496 26.3745 43.8014 22.9555 54.9395C20.2223 63.8367 19.8743 72.1582 21.9216 81.2404C23.8154 89.6493 26.7584 97.8885 26.6765 106.611C26.5895 115.513 22.0291 123.46 23.8256 132.614C25.0949 139.09 28.9644 144.775 33.4378 149.611C45.7422 162.924 62.9193 170.963 80.5979 174.787C104.132 179.88 128.127 175.018 151.456 180.086C166.754 183.411 181.905 189.826 197.833 187.318C207.783 185.75 217.047 180.872 224.694 174.288C232.197 167.827 238.529 160.081 242.541 151.426L242.552 151.441Z" fill="#E1E2FE"/>
<path opacity="0.81" d="M221.074 137.26C221.724 129.915 219.257 122.344 221.32 115.071C223.787 106.359 230.937 99.8365 233.85 91.2837C238.154 78.6498 237.949 64.4894 232.719 52.1742C230.2 46.2376 226.52 40.7276 221.494 36.9138C213.745 31.0338 203.595 29.7437 194.045 30.489C179.836 31.5992 164.839 37.7773 150.554 36.0915C142.672 35.1611 140.261 26.5929 136.192 20.939C131.586 14.545 125.316 9.52331 118.38 6.18237C105.605 0.0247701 90.2758 -0.556039 77.2241 5.02589C63.287 10.9882 51.1412 25.5392 51.9397 42.0023C52.3082 49.6197 55.3433 57.1805 53.9409 64.6642C52.1751 74.0548 45.1323 82.6127 40.0242 90.2609C34.3838 98.7109 30.9699 108.785 30.3045 119.065C30.2994 119.183 30.2892 119.296 30.2841 119.414C29.2348 137.147 40.3774 153.322 57.1808 158.873L92.9374 170.685C129.221 182.666 165.469 182.27 198.83 164.687C206.047 160.883 217.804 149.545 220.225 141.727C220.68 140.252 220.941 138.761 221.074 137.265V137.26Z" fill="#E1E2FE"/>
<g opacity="0.73">
<path d="M75.7511 73.7618C75.5003 73.7618 75.2444 73.7258 74.9936 73.659L70.6942 72.4768C69.1792 72.0605 68.2886 70.4877 68.7032 68.9663L70.1414 63.6927C67.5106 62.3307 65.1869 60.5214 63.2163 58.301L58.487 61.0097C57.8267 61.3901 57.059 61.4826 56.3271 61.2821C55.5952 61.0817 54.981 60.6037 54.6073 59.9406L52.4013 56.0497C51.6233 54.6825 52.0994 52.9349 53.4608 52.1537L58.1901 49.4449C57.2893 46.6128 56.9208 43.6831 57.0948 40.7174L51.8434 39.2731C50.3284 38.8567 49.4378 37.2839 49.8524 35.7625L51.0296 31.445C51.4442 29.9236 53.0104 29.0292 54.5254 29.4456L59.7768 30.8899C61.1332 28.248 62.9348 25.9145 65.1459 23.9356L62.4486 19.1863C62.0698 18.5233 61.9777 17.7523 62.1773 17.0173C62.3769 16.2823 62.8529 15.6655 63.5132 15.2903L67.3826 13.075C68.7441 12.2937 70.4843 12.7717 71.2623 14.1389L73.9597 18.8882C76.7799 17.9836 79.6973 17.6135 82.6506 17.7883L84.0888 12.5147C84.5034 10.9933 86.0696 10.099 87.5846 10.5153L91.884 11.6975C93.399 12.1138 94.2896 13.6866 93.875 15.208L92.4368 20.4816C95.0676 21.8437 97.3913 23.6529 99.3619 25.8733L104.091 23.1646C104.751 22.7843 105.519 22.6917 106.251 22.8922C106.983 23.0927 107.597 23.5707 107.971 24.2337L110.177 28.1195C110.556 28.7825 110.648 29.5535 110.448 30.2885C110.249 31.0235 109.773 31.6403 109.112 32.0155L104.383 34.7243C105.284 37.5563 105.652 40.4861 105.478 43.4518L110.73 44.8961C111.462 45.0966 112.076 45.5746 112.449 46.2376C112.828 46.9007 112.92 47.6717 112.721 48.4067L111.543 52.7242C111.129 54.2456 109.563 55.1399 108.048 54.7236L102.796 53.2793C101.44 55.9212 99.6382 58.2547 97.4271 60.2336L100.124 64.9829C100.503 65.6459 100.595 66.4169 100.396 67.1519C100.196 67.8869 99.7201 68.5037 99.0599 68.8789L95.1904 71.0942C94.5302 71.4746 93.7624 71.5671 93.0305 71.3666C92.2986 71.1662 91.6844 70.6881 91.3108 70.0251L88.6134 65.2758C85.7932 66.1805 82.8758 66.5505 79.9225 66.3758L78.4843 71.6493C78.2846 72.3843 77.8086 73.0011 77.1484 73.3763C76.7133 73.623 76.2322 73.7515 75.746 73.7515L75.7511 73.7618ZM63.5593 56.3324L63.9738 56.8207C66.0263 59.2621 68.5189 61.1999 71.3852 62.5928L71.9584 62.8704L70.1875 69.3723C70.0953 69.7116 70.1414 70.0662 70.3154 70.3695C70.4895 70.6727 70.771 70.8937 71.1088 70.9863L75.4082 72.1684C75.746 72.261 76.0991 72.2147 76.4011 72.0399C76.7031 71.8652 76.9232 71.5825 77.0153 71.2433L78.7862 64.7413L79.4209 64.7927C82.5943 65.06 85.7216 64.6642 88.726 63.6156L89.33 63.4049L92.6569 69.2593C92.8309 69.5625 93.1124 69.7835 93.4502 69.876C93.788 69.9686 94.1412 69.9223 94.4432 69.7475L98.3126 67.5322C98.6146 67.3575 98.8347 67.0748 98.9268 66.7356C99.0189 66.3963 98.9729 66.0417 98.7988 65.7384L95.4719 59.8841L95.9582 59.4677C98.3843 57.4066 100.319 54.9035 101.706 52.0252L101.982 51.4495L108.457 53.2279C109.153 53.4181 109.875 53.0069 110.064 52.3079L111.241 47.9903C111.334 47.6511 111.288 47.2965 111.114 46.9932C110.939 46.6899 110.658 46.4689 110.32 46.3764L103.845 44.598L103.897 43.9607C104.163 40.7791 103.769 37.6334 102.725 34.6163L102.515 34.0098L108.344 30.6689C108.646 30.4941 108.867 30.2114 108.959 29.8722C109.051 29.533 109.005 29.1783 108.831 28.875L106.625 24.9893C106.451 24.686 106.169 24.465 105.831 24.3725C105.494 24.28 105.14 24.3262 104.838 24.501L99.0087 27.8419L98.5941 27.3536C96.5417 24.9122 94.0491 22.9744 91.1828 21.5815L90.6095 21.304L92.3805 14.802C92.4726 14.4628 92.4265 14.1081 92.2525 13.8049C92.0785 13.5016 91.797 13.2806 91.4592 13.1881L87.1598 12.0059C86.4637 11.8157 85.742 12.2269 85.5526 12.9259L83.7817 19.4279L83.147 19.3765C79.9737 19.1092 76.8464 19.505 73.8419 20.5535L73.238 20.7643L69.9111 14.9099C69.7371 14.6067 69.4556 14.3857 69.1177 14.2931C68.7799 14.2006 68.4268 14.2469 68.1248 14.4216L64.2553 16.6369C63.9534 16.8117 63.7333 17.0944 63.6411 17.4336C63.549 17.7729 63.5951 18.1275 63.7691 18.4308L67.096 24.2851L66.6098 24.7014C64.1786 26.7625 62.249 29.2657 60.8619 32.144L60.5855 32.7197L54.1108 30.9413C53.773 30.8488 53.4199 30.895 53.1179 31.0698C52.8159 31.2445 52.5958 31.5272 52.5037 31.8665L51.3265 36.184C51.2344 36.5232 51.2804 36.8779 51.4544 37.1811C51.6285 37.4844 51.91 37.7054 52.2478 37.7979L58.7224 39.5763L58.6713 40.2137C58.4051 43.3953 58.7992 46.5409 59.8434 49.558L60.0532 50.1645L54.2235 53.5055C53.9215 53.6802 53.7014 53.9629 53.6093 54.3021C53.5171 54.6414 53.5632 54.996 53.7372 55.2993L55.9432 59.1902C56.1172 59.4934 56.3987 59.7145 56.7365 59.807C57.0744 59.8995 57.4275 59.8532 57.7295 59.6785L63.5593 56.3375V56.3324ZM81.3096 54.9703C80.1733 54.9703 79.0319 54.8161 77.9059 54.5077C74.6046 53.598 71.8458 51.4546 70.1516 48.4684C68.4524 45.4821 68.0173 42.0075 68.9232 38.6923C69.8292 35.3719 71.9635 32.6066 74.9373 30.9053C77.911 29.1989 81.371 28.762 84.6723 29.6717C87.9736 30.5815 90.7324 32.7248 92.4265 35.7111C94.1258 38.6974 94.5609 42.172 93.6549 45.4872C92.749 48.8024 90.6147 51.5729 87.6409 53.2742C85.6806 54.3998 83.5053 54.9703 81.3096 54.9703ZM81.2737 30.746C79.339 30.746 77.4248 31.2497 75.6999 32.2417C73.0793 33.7425 71.2009 36.1788 70.4024 39.0983C69.6091 42.0178 69.993 45.076 71.4875 47.7076C72.9821 50.3393 75.4082 52.2256 78.3154 53.0274C81.2226 53.8241 84.268 53.4386 86.8885 51.9378C89.5091 50.4369 91.3875 48.0006 92.186 45.0812C92.9844 42.1617 92.5954 39.1035 91.106 36.4718C89.6115 33.8402 87.1854 31.9538 84.2782 31.152C83.2852 30.8796 82.282 30.746 81.2789 30.746H81.2737Z" fill="white"/>
</g>
<g opacity="0.69">
<path d="M200.213 59.8529L171.254 60.3823C170.419 60.3978 169.728 59.8683 169.713 59.2002L169.365 39.8895C169.355 39.2214 170.025 38.6663 170.859 38.6508L199.819 38.1214C200.658 38.106 201.344 38.6354 201.359 39.3036L201.707 58.6142C201.718 59.2824 201.047 59.8375 200.213 59.8529ZM170.87 39.0106C170.23 39.0209 169.718 39.4115 169.728 39.8844L170.076 59.195C170.087 59.6627 170.614 60.038 171.248 60.0225L200.208 59.4931C200.848 59.4829 201.359 59.0922 201.349 58.6193L201.001 39.3087C200.991 38.841 200.464 38.4658 199.829 38.4761L170.87 39.0055V39.0106Z" fill="white"/>
<path d="M201.041 42.0368L169.599 42.61L169.605 42.9697L201.047 42.3965L201.041 42.0368Z" fill="white"/>
<path d="M171.863 41.6317C171.489 41.6368 171.182 41.3387 171.172 40.9635C171.167 40.5883 171.463 40.2799 171.837 40.2696C172.211 40.2645 172.518 40.5626 172.528 40.9378C172.533 41.313 172.236 41.6214 171.863 41.6317ZM171.842 40.6345C171.668 40.6345 171.525 40.7836 171.53 40.9583C171.53 41.1331 171.678 41.277 171.852 41.2719C172.026 41.2719 172.17 41.1228 172.165 40.9481C172.165 40.7733 172.016 40.6294 171.842 40.6345Z" fill="white"/>
<path d="M173.731 41.596C173.357 41.6012 173.05 41.3031 173.04 40.9278C173.035 40.5526 173.332 40.2442 173.705 40.234C174.079 40.2288 174.386 40.5269 174.396 40.9021C174.402 41.2774 174.105 41.5857 173.731 41.596ZM173.711 40.5989C173.537 40.5989 173.393 40.7479 173.398 40.9227C173.398 41.0975 173.547 41.2414 173.721 41.2362C173.895 41.2362 174.038 41.0872 174.033 40.9124C174.033 40.7377 173.885 40.5937 173.711 40.5989Z" fill="white"/>
<path d="M175.564 41.5653C175.19 41.5704 174.883 41.2723 174.873 40.8971C174.868 40.5219 175.164 40.2135 175.538 40.2032C175.912 40.1981 176.219 40.4962 176.229 40.8714C176.234 41.2466 175.937 41.555 175.564 41.5653ZM175.543 40.5681C175.369 40.5681 175.226 40.7172 175.231 40.8919C175.231 41.0667 175.379 41.2106 175.553 41.2055C175.727 41.2055 175.871 41.0564 175.866 40.8817C175.866 40.7069 175.717 40.563 175.543 40.5681Z" fill="white"/>
</g>
<g opacity="0.69">
<path d="M103.026 175.259L74.0663 175.789C73.232 175.804 72.541 175.275 72.5257 174.606L72.1776 155.296C72.1674 154.628 72.8379 154.073 73.6722 154.057L102.632 153.528C103.471 153.512 104.157 154.042 104.172 154.71L104.52 174.02C104.53 174.689 103.86 175.244 103.026 175.259ZM73.6824 154.417C73.0426 154.427 72.5308 154.818 72.541 155.291L72.8891 174.601C72.8993 175.069 73.4265 175.444 74.0611 175.434L103.021 174.905C103.66 174.894 104.172 174.504 104.162 174.031L103.814 154.72C103.804 154.252 103.276 153.877 102.642 153.887L73.6824 154.417Z" fill="white"/>
<path d="M103.847 157.443L72.4055 158.017L72.412 158.376L103.854 157.803L103.847 157.443Z" fill="white"/>
<path d="M74.6754 157.043C74.3018 157.048 73.9947 156.75 73.9844 156.375C73.9793 156 74.2762 155.691 74.6498 155.681C75.0235 155.676 75.3306 155.974 75.3408 156.349C75.3459 156.725 75.049 157.033 74.6754 157.043ZM74.6549 156.046C74.4809 156.046 74.3376 156.195 74.3427 156.37C74.3427 156.545 74.4912 156.689 74.6652 156.684C74.8392 156.678 74.9825 156.534 74.9774 156.36C74.9774 156.185 74.829 156.041 74.6549 156.046Z" fill="white"/>
<path d="M76.5387 157.008C76.1651 157.013 75.858 156.715 75.8477 156.339C75.8426 155.964 76.1395 155.656 76.5131 155.645C76.8867 155.64 77.1938 155.938 77.2041 156.314C77.2092 156.689 76.9123 156.997 76.5387 157.008ZM76.5182 156.01C76.3442 156.01 76.2009 156.159 76.206 156.334C76.2111 156.509 76.3544 156.653 76.5285 156.648C76.7025 156.648 76.8458 156.499 76.8407 156.324C76.8356 156.149 76.6922 156.005 76.5182 156.01Z" fill="white"/>
<path d="M78.3715 156.977C77.9978 156.982 77.6907 156.684 77.6805 156.309C77.6754 155.933 77.9722 155.625 78.3459 155.615C78.7195 155.61 79.0266 155.908 79.0368 156.283C79.042 156.658 78.7451 156.967 78.3715 156.977ZM78.351 155.98C78.177 155.98 78.0336 156.129 78.0388 156.304C78.0388 156.478 78.1872 156.622 78.3612 156.617C78.5352 156.617 78.6786 156.468 78.6734 156.293C78.6734 156.119 78.525 155.975 78.351 155.98Z" fill="white"/>
</g>
<g opacity="0.55">
<path d="M223.346 120.632L220.352 118.221C221.345 116.356 221.913 114.341 222.066 112.311L225.885 111.889C226.606 111.807 227.123 111.159 227.047 110.434L226.739 107.623C226.663 106.898 226.013 106.379 225.291 106.456L221.473 106.878C220.884 104.93 219.896 103.084 218.519 101.481L220.92 98.4739C221.375 97.9034 221.283 97.0759 220.715 96.6184L218.514 94.8503C217.946 94.3928 217.122 94.4853 216.667 95.0559L214.266 98.0627C212.408 97.0656 210.402 96.495 208.38 96.3409L207.96 92.5116C207.884 91.7869 207.234 91.2678 206.512 91.3449L203.712 91.6533C202.99 91.7355 202.473 92.3831 202.55 93.1079L202.97 96.9422C201.03 97.5333 199.193 98.5253 197.596 99.9079L194.602 97.4973C194.033 97.0399 193.209 97.1324 192.754 97.7029L190.993 99.9131C190.538 100.484 190.63 101.311 191.198 101.769L194.192 104.179C193.199 106.045 192.631 108.06 192.477 110.09L188.664 110.512C187.943 110.594 187.426 111.241 187.502 111.966L187.81 114.778C187.891 115.502 188.536 116.022 189.258 115.944L193.076 115.523C193.665 117.471 194.653 119.316 196.03 120.92L193.629 123.927C193.174 124.497 193.266 125.325 193.834 125.782L196.035 127.55C196.603 128.008 197.427 127.915 197.882 127.345L200.283 124.338C202.141 125.335 204.147 125.906 206.169 126.06L206.589 129.889C206.67 130.614 207.315 131.133 208.037 131.056L210.837 130.747C211.558 130.665 212.075 130.017 211.999 129.293L211.579 125.464C213.519 124.872 215.356 123.88 216.953 122.498L219.947 124.908C220.516 125.366 221.34 125.273 221.795 124.703L223.556 122.493C224.011 121.922 223.919 121.095 223.351 120.637L223.346 120.632ZM202.504 117.168C199.218 114.526 198.691 109.71 201.327 106.41C203.958 103.11 208.754 102.581 212.04 105.228C215.326 107.87 215.853 112.686 213.222 115.986C210.591 119.285 205.795 119.815 202.509 117.173L202.504 117.168Z" fill="white"/>
<path d="M207.889 131.313C207.536 131.313 207.193 131.195 206.912 130.969C206.584 130.707 206.38 130.331 206.334 129.91L205.934 126.291C203.974 126.117 202.096 125.572 200.35 124.657L198.083 127.499C197.822 127.828 197.448 128.034 197.028 128.08C196.614 128.126 196.204 128.008 195.877 127.746L193.681 125.978C193.353 125.716 193.149 125.34 193.103 124.919C193.057 124.503 193.174 124.092 193.435 123.763L195.703 120.92C194.439 119.404 193.497 117.682 192.903 115.801L189.3 116.202C188.885 116.248 188.476 116.13 188.148 115.863C187.821 115.6 187.616 115.225 187.57 114.804L187.263 111.992C187.217 111.576 187.334 111.165 187.6 110.836C187.862 110.507 188.235 110.301 188.655 110.255L192.258 109.854C192.432 107.885 192.975 105.999 193.886 104.241L191.055 101.964C190.728 101.702 190.523 101.327 190.477 100.911C190.431 100.494 190.549 100.083 190.815 99.7541L192.576 97.5439C192.837 97.215 193.21 97.0094 193.63 96.9631C194.044 96.9168 194.454 97.0351 194.781 97.3023L197.612 99.5793C199.122 98.3098 200.836 97.364 202.71 96.7626L202.311 93.1442C202.213 92.2806 202.838 91.4994 203.698 91.4069L206.497 91.0985C207.357 91.006 208.135 91.6279 208.227 92.4914L208.627 96.115C210.587 96.2898 212.465 96.8346 214.211 97.7495L216.478 94.9071C217.021 94.2287 218.008 94.1207 218.684 94.6656L220.88 96.4337C221.207 96.6958 221.412 97.071 221.458 97.4925C221.504 97.9088 221.386 98.32 221.12 98.649L218.853 101.491C220.117 103.008 221.059 104.729 221.658 106.611L225.261 106.21C225.676 106.164 226.085 106.282 226.413 106.549C226.74 106.811 226.945 107.186 226.991 107.608L227.298 110.419C227.344 110.836 227.226 111.247 226.96 111.576C226.699 111.905 226.326 112.11 225.906 112.157L222.303 112.558C222.129 114.526 221.586 116.412 220.675 118.17L223.505 120.447C223.833 120.709 224.038 121.085 224.084 121.506C224.13 121.922 224.012 122.334 223.746 122.663L221.985 124.868C221.443 125.546 220.455 125.654 219.779 125.114L216.949 122.837C215.439 124.107 213.729 125.053 211.851 125.654L212.25 129.273C212.296 129.689 212.179 130.1 211.912 130.429C211.651 130.758 211.278 130.964 210.858 131.01L208.058 131.318C208.002 131.323 207.941 131.328 207.884 131.328L207.889 131.313ZM200.217 124.004L200.407 124.107C202.208 125.078 204.153 125.644 206.19 125.798L206.4 125.813L206.845 129.858C206.876 130.141 207.014 130.393 207.234 130.568C207.454 130.748 207.731 130.83 208.012 130.794L210.812 130.486C211.094 130.455 211.344 130.316 211.518 130.095C211.698 129.874 211.774 129.596 211.744 129.314L211.298 125.269L211.503 125.207C213.458 124.611 215.234 123.634 216.78 122.293L216.939 122.154L220.102 124.698C220.557 125.063 221.223 124.991 221.586 124.534L223.347 122.329C223.526 122.107 223.603 121.83 223.572 121.547C223.541 121.265 223.403 121.013 223.183 120.838L220.02 118.294L220.122 118.104C221.09 116.294 221.653 114.341 221.806 112.295L221.822 112.085L225.85 111.638C226.131 111.607 226.382 111.468 226.556 111.247C226.735 111.026 226.812 110.748 226.781 110.466L226.474 107.654C226.443 107.371 226.305 107.12 226.085 106.945C225.865 106.77 225.589 106.683 225.307 106.719L221.279 107.166L221.218 106.96C220.629 104.997 219.651 103.213 218.315 101.661L218.177 101.502L220.711 98.3252C220.885 98.1042 220.967 97.8266 220.936 97.5439C220.905 97.2612 220.767 97.0094 220.547 96.8346L218.351 95.0665C217.896 94.7015 217.23 94.7735 216.867 95.231L214.333 98.4074L214.144 98.3046C212.342 97.3332 210.397 96.7678 208.36 96.6136L208.151 96.5982L207.705 92.5531C207.644 91.9723 207.117 91.5508 206.538 91.6125L203.739 91.9209C203.457 91.9517 203.206 92.0905 203.032 92.3115C202.853 92.5325 202.776 92.8101 202.807 93.0928L203.252 97.1379L203.048 97.1995C201.092 97.7906 199.316 98.7724 197.771 100.114L197.612 100.253L194.449 97.7084C194.229 97.5285 193.952 97.4514 193.671 97.4822C193.389 97.5131 193.139 97.6519 192.964 97.8729L191.204 100.083C191.03 100.304 190.948 100.582 190.979 100.864C191.009 101.147 191.147 101.399 191.368 101.574L194.531 104.118L194.428 104.308C193.461 106.117 192.898 108.07 192.744 110.116L192.729 110.327L188.701 110.774C188.419 110.805 188.169 110.944 187.995 111.165C187.815 111.386 187.739 111.663 187.769 111.946L188.076 114.757C188.107 115.04 188.245 115.292 188.465 115.467C188.686 115.642 188.962 115.724 189.243 115.693L193.272 115.246L193.333 115.451C193.922 117.415 194.899 119.198 196.235 120.751L196.373 120.91L193.84 124.086C193.661 124.307 193.584 124.585 193.615 124.868C193.645 125.15 193.783 125.402 194.003 125.577L196.199 127.345C196.419 127.52 196.696 127.602 196.977 127.571C197.259 127.54 197.51 127.402 197.684 127.181L200.217 124.004ZM207.27 119.106C205.54 119.106 203.8 118.54 202.351 117.374C200.708 116.053 199.68 114.166 199.449 112.069C199.219 109.967 199.818 107.906 201.133 106.256C202.449 104.606 204.327 103.573 206.415 103.342C208.509 103.11 210.561 103.712 212.204 105.033C215.593 107.762 216.14 112.748 213.422 116.15C211.866 118.098 209.579 119.111 207.27 119.111V119.106ZM207.291 103.804C207.019 103.804 206.743 103.82 206.472 103.851C204.517 104.066 202.761 105.033 201.533 106.575C198.994 109.756 199.506 114.418 202.674 116.973C205.842 119.522 210.484 119.008 213.028 115.827C215.567 112.645 215.055 107.983 211.887 105.429C210.566 104.365 208.964 103.804 207.296 103.804H207.291Z" fill="white"/>
</g>
<g opacity="0.38">
<path d="M242.449 143.48H213.469C212.968 143.48 212.563 142.991 212.563 142.395V131.684C212.563 131.082 212.973 130.599 213.469 130.599H242.449C242.951 130.599 243.355 131.087 243.355 131.684V142.395C243.355 142.991 242.946 143.48 242.449 143.48ZM213.469 131.113C213.254 131.113 213.075 131.375 213.075 131.684V142.395C213.075 142.704 213.254 142.966 213.469 142.966H242.449C242.664 142.966 242.843 142.704 242.843 142.395V131.684C242.843 131.375 242.664 131.113 242.449 131.113H213.469Z" fill="white"/>
<path d="M238.144 134.737H218.525V135.251H238.144V134.737Z" fill="white"/>
<path d="M238.144 135.508H218.525C218.244 135.508 218.013 135.277 218.013 134.994C218.013 134.711 218.244 134.48 218.525 134.48H238.144C238.425 134.48 238.656 134.711 238.656 134.994C238.656 135.277 238.425 135.508 238.144 135.508Z" fill="white"/>
<path d="M227.293 137.075H218.525V137.589H227.293V137.075Z" fill="white"/>
<path d="M227.293 137.846H218.525C218.244 137.846 218.013 137.615 218.013 137.332C218.013 137.05 218.244 136.818 218.525 136.818H227.293C227.574 136.818 227.805 137.05 227.805 137.332C227.805 137.615 227.574 137.846 227.293 137.846Z" fill="white"/>
<path d="M238.145 137.075H229.378V137.589H238.145V137.075Z" fill="white"/>
<path d="M238.145 137.846H229.378C229.096 137.846 228.866 137.615 228.866 137.332C228.866 137.05 229.096 136.818 229.378 136.818H238.145C238.427 136.818 238.657 137.05 238.657 137.332C238.657 137.615 238.427 137.846 238.145 137.846Z" fill="white"/>
<path d="M238.144 139.522H218.525V140.036H238.144V139.522Z" fill="white"/>
<path d="M238.144 140.293H218.525C218.244 140.293 218.013 140.061 218.013 139.779C218.013 139.496 218.244 139.265 218.525 139.265H238.144C238.425 139.265 238.656 139.496 238.656 139.779C238.656 140.061 238.425 140.293 238.144 140.293Z" fill="white"/>
</g>
<g opacity="0.55">
<path d="M161.754 191.085C161.349 191.085 160.966 190.946 160.643 190.689C160.269 190.391 160.039 189.965 159.988 189.492L159.63 186.207C157.849 186.022 156.139 185.524 154.537 184.722L152.479 187.302C151.865 188.073 150.739 188.196 149.977 187.58L147.852 185.868C147.484 185.57 147.249 185.143 147.197 184.67C147.146 184.198 147.279 183.73 147.576 183.355L149.634 180.774C148.502 179.381 147.648 177.814 147.08 176.107L143.809 176.467C142.831 176.57 141.951 175.866 141.844 174.884L141.547 172.165C141.439 171.183 142.146 170.299 143.123 170.191L146.394 169.832C146.578 168.043 147.074 166.326 147.873 164.717L145.304 162.651C144.536 162.034 144.413 160.909 145.027 160.138L146.732 158.005C147.028 157.629 147.453 157.398 147.924 157.347C148.395 157.295 148.861 157.429 149.234 157.727L151.804 159.793C153.191 158.657 154.752 157.799 156.451 157.228L156.093 153.944C156.042 153.471 156.175 153.003 156.472 152.628C156.769 152.253 157.193 152.022 157.664 151.97L160.372 151.672C160.843 151.621 161.309 151.754 161.682 152.053C162.056 152.351 162.286 152.777 162.337 153.25L162.696 156.535C164.477 156.72 166.186 157.218 167.788 158.02L169.846 155.44C170.46 154.669 171.581 154.545 172.349 155.162L174.473 156.874C174.841 157.172 175.077 157.599 175.128 158.071C175.179 158.544 175.046 159.012 174.749 159.387L172.692 161.967C173.823 163.36 174.678 164.928 175.246 166.635L178.516 166.275C179.489 166.167 180.374 166.876 180.482 167.858L180.779 170.577C180.886 171.559 180.18 172.443 179.202 172.551L175.932 172.91C175.747 174.699 175.251 176.416 174.452 178.019L177.022 180.086C177.395 180.384 177.626 180.81 177.677 181.283C177.728 181.756 177.595 182.224 177.298 182.599L175.594 184.732C175.297 185.107 174.872 185.339 174.401 185.39C173.93 185.447 173.464 185.308 173.091 185.01L170.521 182.943C169.134 184.079 167.573 184.938 165.874 185.508L166.232 188.793C166.34 189.774 165.633 190.658 164.656 190.766L161.948 191.064C161.882 191.07 161.815 191.075 161.749 191.075L161.754 191.085ZM154.266 183.416L154.639 183.617C156.349 184.537 158.191 185.076 160.126 185.22L160.551 185.251L161.001 189.379C161.022 189.579 161.124 189.764 161.278 189.887C161.436 190.016 161.636 190.072 161.836 190.052L164.543 189.754C164.743 189.733 164.927 189.63 165.05 189.471C165.178 189.312 165.234 189.116 165.214 188.911L164.763 184.783L165.173 184.66C167.026 184.1 168.715 183.17 170.179 181.895L170.501 181.617L173.731 184.213C173.889 184.341 174.084 184.398 174.289 184.377C174.488 184.357 174.672 184.254 174.795 184.095L176.5 181.962C176.628 181.802 176.684 181.602 176.663 181.401C176.643 181.201 176.541 181.016 176.387 180.893L173.157 178.292L173.357 177.917C174.273 176.2 174.811 174.35 174.954 172.407L174.985 171.98L179.095 171.528C179.509 171.481 179.811 171.106 179.765 170.69L179.468 167.971C179.422 167.555 179.043 167.256 178.634 167.298L174.524 167.75L174.401 167.339C173.843 165.478 172.917 163.782 171.647 162.312L171.371 161.988L173.961 158.745C174.089 158.585 174.145 158.39 174.125 158.185C174.104 157.984 174.002 157.799 173.848 157.676L171.724 155.964C171.402 155.702 170.921 155.753 170.66 156.082L168.075 159.326L167.701 159.125C165.992 158.205 164.149 157.665 162.214 157.521L161.79 157.491L161.339 153.363C161.319 153.163 161.216 152.978 161.063 152.854C160.904 152.726 160.705 152.669 160.505 152.69L157.797 152.988C157.598 153.009 157.413 153.111 157.291 153.266C157.163 153.425 157.106 153.62 157.127 153.826L157.577 157.953L157.168 158.077C155.315 158.637 153.631 159.567 152.162 160.842L151.84 161.119L148.61 158.524C148.451 158.395 148.257 158.339 148.052 158.359C147.852 158.38 147.668 158.483 147.545 158.637L145.841 160.77C145.713 160.929 145.657 161.13 145.677 161.33C145.698 161.531 145.8 161.716 145.954 161.839L149.183 164.44L148.984 164.815C148.067 166.532 147.53 168.382 147.387 170.325L147.356 170.752L143.246 171.204C142.831 171.25 142.529 171.625 142.575 172.042L142.872 174.761C142.918 175.177 143.292 175.475 143.707 175.434L147.817 174.982L147.939 175.393C148.497 177.254 149.424 178.95 150.693 180.42L150.97 180.744L148.38 183.987C148.252 184.146 148.195 184.341 148.216 184.547C148.236 184.748 148.339 184.933 148.492 185.056L150.616 186.768C150.939 187.03 151.42 186.978 151.681 186.649L154.271 183.406L154.266 183.416ZM161.155 179.284C159.425 179.284 157.685 178.718 156.236 177.547C154.593 176.226 153.564 174.339 153.334 172.237C153.104 170.135 153.703 168.074 155.018 166.424C156.334 164.774 158.212 163.741 160.305 163.509C162.399 163.278 164.456 163.88 166.094 165.2C167.732 166.521 168.766 168.408 168.996 170.51C169.227 172.612 168.628 174.673 167.312 176.323C165.756 178.271 163.468 179.284 161.155 179.284ZM161.175 164.491C160.92 164.491 160.669 164.507 160.413 164.532C158.591 164.733 156.958 165.632 155.817 167.071C154.67 168.505 154.153 170.304 154.353 172.129C154.552 173.959 155.448 175.599 156.881 176.745C159.829 179.119 164.154 178.641 166.519 175.681C167.665 174.247 168.182 172.448 167.983 170.623C167.783 168.793 166.887 167.154 165.454 166.007C164.226 165.021 162.731 164.491 161.181 164.491H161.175Z" fill="white"/>
</g>
<g opacity="0.61">
<path opacity="0.74" d="M93.6304 65.6184L46.8065 66.1929C45.837 66.2048 45.0606 67.0037 45.0725 67.9773L46.0247 146.242C46.0365 147.216 46.8321 147.995 47.8016 147.983L94.6255 147.409C95.595 147.397 96.3714 146.598 96.3595 145.624L95.4073 67.3598C95.3955 66.3862 94.5999 65.6065 93.6304 65.6184Z" fill="#6D6CD4"/>
<path d="M95.5753 67.3373L95.6316 71.9889L45.293 72.6005L45.2367 67.8616C45.2264 66.9261 45.9686 66.1654 46.9001 66.15L93.7839 65.5794C94.7615 65.5692 95.5599 66.3556 95.5753 67.3321V67.3373Z" fill="#3E479B"/>
<path d="M48.706 70.2873C48.1328 70.2873 47.667 69.8299 47.6619 69.2542C47.6619 68.6786 48.1174 68.2108 48.6906 68.2057C49.2639 68.2057 49.7297 68.6631 49.7348 69.2388C49.7348 69.8145 49.2793 70.2822 48.706 70.2873ZM48.6958 68.622C48.3528 68.622 48.0764 68.9047 48.0764 69.2491C48.0764 69.5935 48.358 69.871 48.7009 69.871C49.0438 69.871 49.3202 69.5883 49.3202 69.2439C49.3202 68.8996 49.0387 68.622 48.6958 68.622Z" fill="white"/>
<path d="M52.1669 70.2616C51.5937 70.2616 51.1279 69.8041 51.1228 69.2285C51.1228 68.6528 51.5783 68.1851 52.1516 68.1799C52.7248 68.1799 53.1906 68.6374 53.1957 69.213C53.1957 69.7887 52.7402 70.2565 52.1669 70.2616ZM52.1567 68.5963C51.8138 68.5963 51.5374 68.879 51.5374 69.2233C51.5374 69.5677 51.8189 69.8453 52.1618 69.8453C52.5047 69.8453 52.7811 69.5626 52.7811 69.2182C52.7811 68.8738 52.4996 68.5963 52.1567 68.5963Z" fill="white"/>
<path d="M55.5346 70.2357C54.9614 70.2357 54.4956 69.7783 54.4905 69.2026C54.4905 68.6269 54.946 68.1592 55.5193 68.1541C56.0925 68.1541 56.5583 68.6115 56.5634 69.1872C56.5634 69.7628 56.1079 70.2306 55.5346 70.2357ZM55.5244 68.5704C55.1814 68.5704 54.9051 68.8531 54.9051 69.1975C54.9051 69.5418 55.1866 69.8194 55.5295 69.8194C55.8724 69.8194 56.1488 69.5367 56.1488 69.1923C56.1488 68.8479 55.8673 68.5704 55.5244 68.5704Z" fill="white"/>
<path d="M72.8694 79.8268L49.6067 80.0016C49.3764 80.0016 49.1921 79.8165 49.187 79.5904C49.187 79.3591 49.3713 79.174 49.5965 79.1689L72.8592 78.9941C73.0895 78.9941 73.2738 79.1792 73.2789 79.4053C73.2789 79.6366 73.0947 79.8217 72.8694 79.8268Z" fill="white"/>
<path d="M80.6247 79.7654L75.7981 79.8014C75.5678 79.8014 75.3835 79.6163 75.3784 79.3902C75.3784 79.1589 75.5627 78.9739 75.7879 78.9687L80.6145 78.9327C80.8448 78.9327 81.029 79.1178 81.0342 79.3439C81.0342 79.5752 80.8499 79.7603 80.6247 79.7654Z" fill="#3E479B"/>
<path d="M73.0132 99.2197L49.7505 99.3945C49.5202 99.3945 49.3359 99.2095 49.3308 98.9833C49.3308 98.752 49.5151 98.567 49.7403 98.5618L73.003 98.3871C73.2333 98.3871 73.4176 98.5721 73.4227 98.7983C73.4227 99.0296 73.2385 99.2146 73.0132 99.2197Z" fill="white"/>
<path d="M80.7673 99.1582L75.9407 99.1942C75.7104 99.1942 75.5261 99.0092 75.521 98.783C75.521 98.5517 75.7053 98.3667 75.9305 98.3615L80.757 98.3256C80.9874 98.3256 81.1716 98.5106 81.1767 98.7368C81.1767 98.9681 80.9925 99.1531 80.7673 99.1582Z" fill="#599AF2"/>
<path d="M72.9378 89.0788L49.6751 89.2535C49.4447 89.2535 49.2605 89.0685 49.2554 88.8423C49.2554 88.611 49.4396 88.426 49.6648 88.4209L72.9276 88.2461C73.1579 88.2461 73.3422 88.4311 73.3473 88.6573C73.3473 88.8886 73.163 89.0736 72.9378 89.0788Z" fill="#599AF2"/>
<path d="M80.6911 89.0222L75.8645 89.0582C75.6342 89.0582 75.4499 88.8732 75.4448 88.647C75.4448 88.4157 75.6291 88.2307 75.8543 88.2256L80.6809 88.1896C80.9112 88.1896 81.0954 88.3746 81.1006 88.6008C81.1006 88.8321 80.9163 89.0171 80.6911 89.0222Z" fill="white"/>
<path d="M88.6393 88.9602L83.8128 88.9962C83.5824 88.9962 83.3982 88.8112 83.3931 88.585C83.3931 88.3537 83.5773 88.1687 83.8025 88.1635L88.6291 88.1276C88.8594 88.1276 89.0437 88.3126 89.0488 88.5388C89.0488 88.7701 88.8645 88.9551 88.6393 88.9602Z" fill="#3E479B"/>
<path d="M65.1518 84.4372L49.6433 84.5554C49.413 84.5554 49.2288 84.3703 49.2236 84.1442C49.2236 83.9129 49.4079 83.7278 49.6331 83.7227L65.1416 83.6045C65.3719 83.6045 65.5562 83.7895 65.5613 84.0157C65.5613 84.247 65.377 84.432 65.1518 84.4372Z" fill="#3E479B"/>
<path d="M74.8057 84.3653L68.0034 84.4167C67.7731 84.4167 67.5889 84.2316 67.5837 84.0055C67.5837 83.7742 67.768 83.5891 67.9932 83.584L74.7954 83.5326C75.0258 83.5326 75.21 83.7176 75.2151 83.9438C75.2151 84.1751 75.0309 84.3601 74.8057 84.3653Z" fill="#F7A9B4"/>
<path d="M74.8823 94.121L59.3738 94.2392C59.1435 94.2392 58.9592 94.0542 58.9541 93.828C58.9541 93.5967 59.1384 93.4117 59.3636 93.4066L74.8721 93.2883C75.1024 93.2883 75.2866 93.4734 75.2918 93.6995C75.2918 93.9308 75.1075 94.1159 74.8823 94.121Z" fill="#3E479B"/>
<path d="M56.5171 94.2598L49.7149 94.3112C49.4845 94.3112 49.3003 94.1261 49.2952 93.9C49.2952 93.6687 49.4794 93.4837 49.7046 93.4785L56.5069 93.4271C56.7372 93.4271 56.9215 93.6122 56.9266 93.8383C56.9266 94.0696 56.7423 94.2546 56.5171 94.2598Z" fill="#F7A9B4"/>
<path d="M73.0648 105.757L49.802 105.932C49.5717 105.932 49.3874 105.747 49.3823 105.521C49.3823 105.29 49.5666 105.105 49.7918 105.099L73.0545 104.925C73.2848 104.925 73.4691 105.11 73.4742 105.336C73.4742 105.567 73.29 105.752 73.0648 105.757Z" fill="#F7A9B4"/>
<path d="M80.818 105.696L75.9915 105.732C75.7612 105.732 75.5769 105.547 75.5718 105.321C75.5718 105.089 75.756 104.904 75.9812 104.899L80.8078 104.863C81.0381 104.863 81.2224 105.048 81.2275 105.274C81.2275 105.506 81.0433 105.691 80.818 105.696Z" fill="#3E479B"/>
<path d="M73.2134 125.15L49.9507 125.325C49.7204 125.325 49.5361 125.14 49.531 124.914C49.531 124.683 49.7153 124.498 49.9405 124.492L73.2032 124.318C73.4335 124.318 73.6178 124.503 73.6229 124.729C73.6229 124.96 73.4386 125.145 73.2134 125.15Z" fill="white"/>
<path d="M80.9667 125.089L76.1402 125.125C75.9098 125.125 75.7256 124.94 75.7205 124.714C75.7205 124.482 75.9047 124.297 76.1299 124.292L80.9565 124.256C81.1868 124.256 81.3711 124.441 81.3762 124.667C81.3762 124.899 81.1919 125.084 80.9667 125.089Z" fill="#599AF2"/>
<path d="M73.1361 115.015L49.8733 115.19C49.643 115.19 49.4587 115.005 49.4536 114.778C49.4536 114.547 49.6379 114.362 49.8631 114.357L73.1258 114.182C73.3561 114.182 73.5404 114.367 73.5455 114.593C73.5455 114.825 73.3613 115.01 73.1361 115.015Z" fill="#599AF2"/>
<path d="M80.8903 114.953L76.0637 114.989C75.8334 114.989 75.6492 114.804 75.644 114.578C75.644 114.347 75.8283 114.162 76.0535 114.157L80.8801 114.121C81.1104 114.121 81.2947 114.306 81.2998 114.532C81.2998 114.763 81.1155 114.948 80.8903 114.953Z" fill="white"/>
<path d="M88.8399 114.891L84.0133 114.927C83.783 114.927 83.5987 114.742 83.5936 114.516C83.5885 114.29 83.7779 114.1 84.0031 114.095L88.8296 114.059C89.06 114.059 89.2442 114.244 89.2493 114.47C89.2493 114.701 89.0651 114.886 88.8399 114.891Z" fill="#3E479B"/>
<path d="M65.3462 110.368L49.8377 110.486C49.6073 110.486 49.4231 110.301 49.418 110.075C49.418 109.844 49.6022 109.659 49.8274 109.654L65.3359 109.536C65.5662 109.536 65.7505 109.721 65.7556 109.947C65.7556 110.178 65.5714 110.363 65.3462 110.368Z" fill="#3E479B"/>
<path d="M74.999 110.296L68.1968 110.347C67.9665 110.347 67.7822 110.162 67.7771 109.936C67.7771 109.705 67.9614 109.52 68.1866 109.515L74.9888 109.463C75.2191 109.463 75.4034 109.648 75.4085 109.874C75.4085 110.106 75.2242 110.291 74.999 110.296Z" fill="#F7A9B4"/>
<path d="M75.0757 120.052L59.5672 120.17C59.3368 120.17 59.1526 119.985 59.1475 119.759C59.1475 119.528 59.3317 119.343 59.5569 119.338L75.0654 119.219C75.2957 119.219 75.48 119.404 75.4851 119.631C75.4851 119.862 75.3009 120.047 75.0757 120.052Z" fill="#3E479B"/>
<path d="M56.7114 120.19L49.9092 120.242C49.6789 120.242 49.4946 120.057 49.4895 119.831C49.4895 119.599 49.6738 119.414 49.899 119.409L56.7012 119.358C56.9315 119.358 57.1158 119.543 57.1209 119.769C57.1209 120 56.9366 120.185 56.7114 120.19Z" fill="#F7A9B4"/>
<path d="M73.2542 131.149L49.9915 131.324C49.7612 131.324 49.5769 131.139 49.5718 130.913C49.5718 130.681 49.756 130.496 49.9812 130.491L73.244 130.316C73.4743 130.316 73.6586 130.501 73.6637 130.727C73.6637 130.959 73.4794 131.144 73.2542 131.149Z" fill="#F7A9B4"/>
<path d="M81.0085 131.087L76.1819 131.123C75.9516 131.123 75.7673 130.938 75.7622 130.712C75.7622 130.48 75.9465 130.295 76.1717 130.29L80.9982 130.254C81.2286 130.254 81.4128 130.439 81.4179 130.665C81.4179 130.897 81.2337 131.082 81.0085 131.087Z" fill="#3E479B"/>
<path d="M81.1005 143.33L76.2739 143.366C76.0436 143.366 75.8594 143.181 75.8542 142.955C75.8542 142.724 76.0385 142.539 76.2637 142.534L81.0903 142.498C81.3206 142.498 81.5049 142.683 81.51 142.909C81.51 143.14 81.3257 143.325 81.1005 143.33Z" fill="white"/>
<path d="M89.05 143.274L84.2234 143.31C83.9931 143.31 83.8088 143.125 83.8037 142.899C83.8037 142.667 83.988 142.482 84.2132 142.477L89.0397 142.441C89.2701 142.441 89.4543 142.626 89.4594 142.852C89.4594 143.084 89.2752 143.269 89.05 143.274Z" fill="#3E479B"/>
<path d="M65.5356 135.759L50.0271 135.878C49.7968 135.878 49.6125 135.692 49.6074 135.466C49.6074 135.235 49.7917 135.05 50.0169 135.045L65.5254 134.927C65.7557 134.927 65.94 135.112 65.9451 135.338C65.9451 135.569 65.7608 135.754 65.5356 135.759Z" fill="#3E479B"/>
<path d="M75.1934 135.687L68.3911 135.739C68.1608 135.739 67.9766 135.554 67.9714 135.328C67.9714 135.096 68.1557 134.911 68.3809 134.906L75.1831 134.855C75.4135 134.855 75.5977 135.04 75.6028 135.266C75.6028 135.497 75.4186 135.682 75.1934 135.687Z" fill="#F7A9B4"/>
</g>
<path d="M88.7905 27.4663V37.8129L88.7956 40.2183L88.8059 68.9401L88.8315 125.145L88.8417 153.867V156.272V163.262C88.8417 166.418 90.8276 169.101 93.6068 170.15C94.4104 170.453 95.2703 170.623 96.1762 170.623H101.402L158.947 170.597C160.488 170.597 161.911 170.119 163.088 169.307C165.012 167.981 166.277 165.755 166.277 163.232L166.215 27.4354C166.215 25.1739 165.197 23.1487 163.595 21.8021C162.32 20.7278 160.677 20.0751 158.881 20.0751L96.1097 20.1008C92.0611 20.1008 88.7803 23.4006 88.7803 27.4663H88.7905Z" fill="#4C65BA"/>
<path d="M89.3269 30.0361V40.0486L89.332 42.3718L89.3422 70.1633L89.3678 124.543L89.3781 152.335V154.658V161.422C89.3781 164.475 91.3333 167.071 94.0767 168.084C94.8649 168.377 95.7197 168.541 96.6102 168.541H101.764L158.511 168.515C160.026 168.515 161.434 168.053 162.596 167.266C164.494 165.981 165.738 163.828 165.738 161.391L165.682 30.0104C165.682 27.8208 164.674 25.8625 163.097 24.5569C161.838 23.5187 160.221 22.8865 158.45 22.8865L96.5488 22.9122C92.5565 22.9122 89.3218 26.1041 89.3218 30.0412L89.3269 30.0361Z" fill="#3E479B"/>
<path d="M162.185 40.7636L162.232 149.899C162.232 150.876 161.443 151.662 160.476 151.667L94.6493 151.698C93.6768 151.698 92.8937 150.907 92.8886 149.935L92.8425 40.7996C92.8425 39.823 93.6308 39.0315 94.5981 39.0315L160.425 39.0006C161.397 39.0006 162.18 39.7922 162.185 40.7636Z" fill="white"/>
<path d="M162.185 40.7169V47.7945L92.8472 47.8254V40.6655C92.8472 39.73 93.5944 38.9744 94.526 38.9744L160.414 38.9436C161.392 38.9436 162.185 39.7403 162.185 40.7169Z" fill="#599AF2"/>
<path d="M153.621 42.377C153.478 42.377 153.365 42.2639 153.365 42.12C153.365 41.9761 153.478 41.863 153.621 41.863H158.821C158.965 41.863 159.077 41.9761 159.077 42.12C159.077 42.2639 158.965 42.377 158.821 42.377H153.621Z" fill="white"/>
<path d="M153.621 43.7133C153.478 43.7133 153.365 43.6003 153.365 43.4563C153.365 43.3124 153.478 43.1993 153.621 43.1993H158.821C158.965 43.1993 159.077 43.3124 159.077 43.4563C159.077 43.6003 158.965 43.7133 158.821 43.7133H153.621Z" fill="white"/>
<path d="M153.621 45.0496C153.478 45.0496 153.365 44.9366 153.365 44.7926C153.365 44.6487 153.478 44.5356 153.621 44.5356H158.821C158.965 44.5356 159.077 44.6487 159.077 44.7926C159.077 44.9366 158.965 45.0496 158.821 45.0496H153.621Z" fill="white"/>
<path d="M99.0402 45.8983C98.9737 45.8983 98.9072 45.8726 98.8611 45.8212L96.9724 43.9246C96.8087 43.7601 96.8087 43.4929 96.9724 43.3335L98.7895 41.5089C98.8918 41.4061 99.0505 41.4061 99.1528 41.5089C99.2552 41.6065 99.2552 41.771 99.1528 41.8738L97.4024 43.6316L99.2245 45.4614C99.3269 45.5591 99.3269 45.7236 99.2245 45.8264C99.1733 45.8778 99.1068 45.9035 99.0454 45.9035L99.0402 45.8983Z" fill="white"/>
<path d="M127.577 32.4676C126.543 32.4676 125.698 31.6247 125.698 30.5813C125.698 29.543 126.538 28.6949 127.577 28.6949C128.611 28.6949 129.455 29.5379 129.455 30.5813C129.455 31.6196 128.616 32.4676 127.577 32.4676ZM127.577 29.4968C126.978 29.4968 126.497 29.9851 126.497 30.5864C126.497 31.1827 126.983 31.6709 127.577 31.6709C127.863 31.6709 128.135 31.5579 128.339 31.3523C128.544 31.1467 128.657 30.8743 128.657 30.5813C128.657 30.2883 128.544 30.021 128.339 29.8154C128.135 29.6098 127.863 29.4968 127.577 29.4968Z" fill="white"/>
<path d="M125.789 165.236C125.124 165.236 124.587 164.692 124.587 164.029V160.456C124.587 159.788 125.124 159.248 125.789 159.248H129.347C130.012 159.248 130.55 159.788 130.55 160.456V164.029C130.55 164.697 130.012 165.236 129.347 165.236H125.789ZM129.347 159.757H125.789C125.406 159.757 125.099 160.071 125.099 160.456V164.029C125.099 164.414 125.411 164.722 125.795 164.722H129.352C129.736 164.722 130.043 164.409 130.043 164.023V160.451C130.043 160.066 129.731 159.757 129.347 159.757Z" fill="white"/>
<path d="M104.359 160.343C104.215 160.343 104.103 160.23 104.103 160.086C104.103 159.942 104.215 159.829 104.359 159.829H107.783C107.926 159.829 108.039 159.942 108.039 160.086C108.039 160.23 107.926 160.343 107.783 160.343H104.359Z" fill="white"/>
<path d="M104.359 162.199C104.215 162.199 104.103 162.086 104.103 161.942C104.103 161.798 104.215 161.685 104.359 161.685H107.783C107.926 161.685 108.039 161.798 108.039 161.942C108.039 162.086 107.926 162.199 107.783 162.199H104.359Z" fill="white"/>
<path d="M104.359 164.08C104.215 164.08 104.103 163.967 104.103 163.823C104.103 163.679 104.215 163.566 104.359 163.566H107.783C107.926 163.566 108.039 163.679 108.039 163.823C108.039 163.967 107.926 164.08 107.783 164.08H104.359Z" fill="white"/>
<path d="M151.642 165.226C151.576 165.226 151.509 165.201 151.463 165.149L148.771 162.446L151.391 159.809C151.494 159.706 151.652 159.706 151.755 159.809C151.857 159.912 151.857 160.071 151.755 160.174L149.492 162.446L151.821 164.784C151.924 164.887 151.924 165.046 151.821 165.149C151.77 165.201 151.704 165.226 151.642 165.226Z" fill="white"/>
<path opacity="0.36" d="M162.191 47.9185H92.9561V70.6882H162.191V47.9185Z" fill="#599AF2"/>
<path opacity="0.43" d="M124.203 52.5233H99.3433C98.9447 52.5233 98.6216 52.8478 98.6216 53.248V57.4422C98.6216 57.8425 98.9447 58.1669 99.3433 58.1669H124.203C124.601 58.1669 124.925 57.8425 124.925 57.4422V53.248C124.925 52.8478 124.601 52.5233 124.203 52.5233Z" fill="white"/>
<path opacity="0.43" d="M137.863 61.323H99.3481C98.9496 61.323 98.6265 61.6475 98.6265 62.0477V63.4201C98.6265 63.8203 98.9496 64.1448 99.3481 64.1448H137.863C138.262 64.1448 138.585 63.8203 138.585 63.4201V62.0477C138.585 61.6475 138.262 61.323 137.863 61.323Z" fill="white"/>
<path opacity="0.43" d="M153.664 63.6722C152.247 63.6722 150.911 63.1171 149.908 62.1096C148.904 61.1022 148.352 59.7607 148.346 58.337C148.346 56.9132 148.899 55.5717 149.902 54.5591C150.906 53.5517 152.241 52.9966 153.659 52.9915C155.077 52.9915 156.413 53.5466 157.416 54.554C158.419 55.5614 158.972 56.9029 158.977 58.3267C158.977 59.7504 158.424 61.0919 157.421 62.1045C156.418 63.1119 155.082 63.667 153.664 63.6722ZM153.664 54.0194C152.518 54.0194 151.438 54.4666 150.629 55.2839C149.821 56.1011 149.37 57.1805 149.375 58.3318C149.375 59.4831 149.821 60.5677 150.634 61.3798C151.443 62.1919 152.523 62.6391 153.669 62.6391C154.816 62.6391 155.896 62.1919 156.705 61.3746C157.513 60.5574 157.964 59.478 157.959 58.3267C157.959 57.1753 157.513 56.0908 156.7 55.2787C155.891 54.4666 154.811 54.0194 153.664 54.0194Z" fill="white"/>
<path d="M112.871 78.9479H101.421C100.132 78.9479 99.0872 79.9972 99.0872 81.2917V92.7896C99.0872 94.0841 100.132 95.1334 101.421 95.1334H112.871C114.16 95.1334 115.205 94.0841 115.205 92.7896V81.2917C115.205 79.9972 114.16 78.9479 112.871 78.9479Z" fill="#4C65BA"/>
<g opacity="0.36">
<path d="M110.623 87.1205C110.623 89.0479 109.067 90.6156 107.148 90.6156C105.229 90.6156 103.667 89.0531 103.667 87.1256C103.667 85.1982 105.223 83.6305 107.143 83.6305C109.062 83.6305 110.623 85.193 110.623 87.1205Z" fill="#599AF2"/>
</g>
<g opacity="0.26">
<path d="M127.652 81.4669H118.593C118.271 81.4669 118.009 81.7293 118.009 82.0529V83.785C118.009 84.1086 118.271 84.371 118.593 84.371H127.652C127.974 84.371 128.236 84.1086 128.236 83.785V82.0529C128.236 81.7293 127.974 81.4669 127.652 81.4669Z" fill="#3E479B"/>
<path d="M118.009 88.8321C117.728 88.8321 117.498 88.6008 117.498 88.3181C117.498 88.0354 117.728 87.8041 118.009 87.8041L135.463 87.7938C135.744 87.7938 135.975 88.0251 135.975 88.3078C135.975 88.5905 135.744 88.8218 135.463 88.8218L118.009 88.8321Z" fill="#3E479B"/>
<path d="M118.009 92.5019C117.728 92.5019 117.498 92.2706 117.498 91.9879C117.498 91.7052 117.728 91.4739 118.009 91.4739L146.472 91.4636C146.754 91.4636 146.984 91.6949 146.984 91.9776C146.984 92.2603 146.754 92.4916 146.472 92.4916L118.009 92.5019Z" fill="#3E479B"/>
<path d="M139.358 88.8219C139.077 88.8219 138.846 88.5906 138.846 88.3079C138.846 88.0252 139.077 87.7939 139.358 87.7939H156.812C157.093 87.7888 157.324 88.0149 157.324 88.2976C157.324 88.5803 157.093 88.8116 156.812 88.8116H139.358V88.8219Z" fill="#3E479B"/>
</g>
<path d="M112.893 126.035H101.443C100.154 126.035 99.1089 127.084 99.1089 128.378V139.876C99.1089 141.171 100.154 142.22 101.443 142.22H112.893C114.182 142.22 115.226 141.171 115.226 139.876V128.378C115.226 127.084 114.182 126.035 112.893 126.035Z" fill="#599AF2"/>
<g opacity="0.57">
<path d="M110.645 134.207C110.645 136.135 109.089 137.702 107.17 137.702C105.251 137.702 103.689 136.14 103.689 134.212C103.689 132.285 105.245 130.717 107.165 130.717C109.084 130.717 110.645 132.28 110.645 134.207Z" fill="#3E479B"/>
</g>
<g opacity="0.26">
<path d="M127.674 128.553H118.614C118.292 128.553 118.031 128.816 118.031 129.139V130.871C118.031 131.195 118.292 131.457 118.614 131.457H127.674C127.996 131.457 128.257 131.195 128.257 130.871V129.139C128.257 128.816 127.996 128.553 127.674 128.553Z" fill="#3E479B"/>
<path d="M118.031 135.919C117.749 135.919 117.519 135.687 117.519 135.405C117.519 135.122 117.749 134.891 118.031 134.891H135.484V134.886C135.766 134.886 135.996 135.117 135.996 135.4C135.996 135.682 135.766 135.914 135.484 135.914H118.031V135.919Z" fill="#3E479B"/>
<path d="M118.031 139.588C117.749 139.588 117.519 139.357 117.519 139.074C117.519 138.791 117.749 138.56 118.031 138.56L146.494 138.55C146.775 138.55 147.006 138.781 147.006 139.064C147.006 139.347 146.775 139.578 146.494 139.578L118.031 139.588Z" fill="#3E479B"/>
<path d="M139.38 135.908C139.098 135.908 138.868 135.677 138.868 135.394C138.868 135.112 139.098 134.88 139.38 134.88H156.833C157.115 134.875 157.345 135.101 157.345 135.389C157.345 135.677 157.115 135.903 156.833 135.903H139.38V135.908Z" fill="#3E479B"/>
</g>
<path d="M112.881 102.438H101.432C100.143 102.438 99.0977 103.487 99.0977 104.782V116.28C99.0977 117.574 100.143 118.624 101.432 118.624H112.881C114.17 118.624 115.215 117.574 115.215 116.28V104.782C115.215 103.487 114.17 102.438 112.881 102.438Z" fill="#F7A9B4"/>
<path opacity="0.43" d="M110.634 110.61C110.634 112.538 109.078 114.105 107.159 114.105C105.239 114.105 103.678 112.543 103.678 110.615C103.678 108.688 105.234 107.12 107.154 107.12C109.073 107.12 110.634 108.683 110.634 110.61Z" fill="white"/>
<g opacity="0.26">
<path d="M127.662 104.956H118.603C118.281 104.956 118.02 105.219 118.02 105.542V107.274C118.02 107.598 118.281 107.86 118.603 107.86H127.662C127.985 107.86 128.246 107.598 128.246 107.274V105.542C128.246 105.219 127.985 104.956 127.662 104.956Z" fill="#3E479B"/>
<path d="M118.02 112.322C117.738 112.322 117.508 112.09 117.508 111.808C117.508 111.525 117.738 111.294 118.02 111.294H126.091C126.373 111.294 126.603 111.525 126.603 111.808C126.603 112.09 126.373 112.322 126.091 112.322H118.02Z" fill="#3E479B"/>
<path d="M118.02 115.991C117.738 115.991 117.508 115.76 117.508 115.478C117.508 115.195 117.738 114.964 118.02 114.964H134.588V114.958C134.869 114.958 135.099 115.19 135.099 115.472C135.099 115.755 134.869 115.986 134.588 115.986H118.02V115.991Z" fill="#3E479B"/>
<path d="M129.474 112.317C129.193 112.317 128.963 112.085 128.963 111.803C128.963 111.52 129.193 111.289 129.474 111.289H145.597C145.879 111.284 146.109 111.51 146.109 111.798C146.109 112.085 145.879 112.312 145.597 112.312H129.474V112.317Z" fill="#3E479B"/>
<path d="M148.597 112.306C148.316 112.306 148.085 112.075 148.085 111.792C148.085 111.51 148.316 111.278 148.597 111.278H156.669C156.95 111.278 157.181 111.504 157.181 111.787C157.181 112.07 156.95 112.301 156.669 112.301H148.597V112.306Z" fill="#3E479B"/>
</g>
<path opacity="0.39" d="M213.001 117.113L180.262 117.515C179.292 117.527 178.516 118.326 178.528 119.299L179.201 174.673C179.213 175.646 180.009 176.426 180.978 176.414L213.718 176.012C214.687 176 215.463 175.201 215.452 174.228L214.778 118.855C214.766 117.881 213.97 117.101 213.001 117.113Z" fill="white"/>
<path opacity="0.39" d="M213.001 117.113L180.262 117.515C179.292 117.527 178.516 118.326 178.528 119.299L179.201 174.673C179.213 175.646 180.009 176.426 180.978 176.414L213.718 176.012C214.687 176 215.463 175.201 215.452 174.228L214.778 118.855C214.766 117.881 213.97 117.101 213.001 117.113Z" fill="#F7A9B4"/>
<path d="M214.892 118.849L214.928 121.702L178.68 122.144L178.644 119.204C178.634 118.268 179.376 117.508 180.307 117.492L213.105 117.091C214.083 117.081 214.882 117.868 214.897 118.844L214.892 118.849Z" fill="#F7A9B4"/>
<path d="M181.131 120.473C180.721 120.473 180.384 120.144 180.378 119.728C180.378 119.317 180.706 118.978 181.121 118.973C181.53 118.973 181.868 119.301 181.873 119.718C181.873 120.129 181.545 120.468 181.131 120.473ZM181.121 119.276C180.875 119.276 180.675 119.481 180.675 119.728C180.675 119.975 180.88 120.175 181.126 120.175C181.371 120.175 181.571 119.97 181.571 119.723C181.571 119.476 181.366 119.276 181.121 119.276Z" fill="white"/>
<path d="M183.624 120.458C183.214 120.458 182.877 120.129 182.871 119.713C182.866 119.296 183.199 118.962 183.614 118.957C184.023 118.957 184.361 119.286 184.366 119.702C184.366 120.114 184.038 120.453 183.624 120.458ZM183.614 119.26C183.368 119.26 183.168 119.466 183.168 119.713C183.168 119.959 183.373 120.16 183.619 120.16C183.864 120.16 184.064 119.954 184.064 119.708C184.064 119.461 183.859 119.26 183.614 119.26Z" fill="white"/>
<path d="M186.044 120.438C185.635 120.438 185.297 120.109 185.292 119.692C185.292 119.281 185.62 118.942 186.034 118.937C186.444 118.937 186.781 119.266 186.787 119.682C186.787 120.093 186.459 120.432 186.044 120.438ZM186.034 119.24C185.788 119.24 185.589 119.446 185.589 119.692C185.589 119.939 185.794 120.14 186.039 120.14C186.285 120.14 186.485 119.934 186.485 119.687C186.485 119.44 186.28 119.24 186.034 119.24Z" fill="white"/>
<path d="M198.533 127.346L181.781 127.474C181.617 127.474 181.479 127.34 181.479 127.176C181.479 127.012 181.612 126.873 181.776 126.873L198.528 126.744C198.692 126.744 198.83 126.878 198.83 127.042C198.83 127.207 198.697 127.346 198.533 127.346Z" fill="white"/>
<path d="M204.117 127.3L200.642 127.325C200.478 127.325 200.34 127.192 200.34 127.027C200.34 126.863 200.473 126.724 200.637 126.724L204.112 126.698C204.276 126.698 204.414 126.832 204.414 126.996C204.414 127.161 204.281 127.3 204.117 127.3Z" fill="white"/>
<path d="M198.636 141.311L181.884 141.439C181.72 141.439 181.582 141.305 181.582 141.141C181.582 140.977 181.715 140.838 181.879 140.838L198.631 140.709C198.795 140.709 198.933 140.843 198.933 141.007C198.933 141.172 198.8 141.311 198.636 141.311Z" fill="white"/>
<path d="M204.22 141.269L200.745 141.295C200.581 141.295 200.443 141.162 200.443 140.997C200.443 140.833 200.576 140.694 200.74 140.694L204.215 140.668C204.379 140.668 204.517 140.802 204.517 140.966C204.517 141.131 204.384 141.269 204.22 141.269Z" fill="white"/>
<path d="M198.585 134.007L181.832 134.135C181.669 134.135 181.531 134.002 181.531 133.837C181.531 133.673 181.664 133.534 181.827 133.534L198.58 133.405C198.743 133.405 198.882 133.539 198.882 133.704C198.882 133.868 198.749 134.007 198.585 134.007Z" fill="white"/>
<path d="M204.164 133.966L200.688 133.991C200.525 133.991 200.386 133.858 200.386 133.693C200.386 133.529 200.52 133.39 200.683 133.39L204.159 133.364C204.322 133.364 204.461 133.498 204.461 133.662C204.461 133.827 204.328 133.966 204.164 133.966Z" fill="white"/>
<path d="M209.891 133.924L206.416 133.95C206.252 133.95 206.114 133.817 206.114 133.652C206.114 133.488 206.247 133.349 206.41 133.349L209.886 133.323C210.05 133.323 210.188 133.457 210.188 133.621C210.188 133.786 210.055 133.924 209.891 133.924Z" fill="white"/>
<path d="M192.975 130.666L181.807 130.753C181.643 130.753 181.505 130.62 181.505 130.455C181.505 130.291 181.638 130.152 181.802 130.152L192.97 130.064C193.134 130.064 193.272 130.198 193.272 130.363C193.272 130.527 193.139 130.666 192.975 130.666Z" fill="white"/>
<path d="M199.925 130.615L195.027 130.651C194.863 130.651 194.725 130.517 194.725 130.353C194.725 130.188 194.858 130.049 195.022 130.049L199.92 130.013C200.084 130.013 200.222 130.147 200.222 130.312C200.222 130.476 200.089 130.615 199.925 130.615Z" fill="white"/>
<path d="M199.976 137.636L188.808 137.723C188.644 137.723 188.506 137.59 188.506 137.425C188.506 137.261 188.639 137.122 188.803 137.122L199.971 137.035C200.135 137.035 200.273 137.168 200.273 137.333C200.273 137.497 200.14 137.636 199.976 137.636Z" fill="white"/>
<path d="M186.756 137.739L181.857 137.775C181.694 137.775 181.555 137.641 181.555 137.476C181.555 137.312 181.688 137.173 181.852 137.173L186.751 137.137C186.914 137.137 187.052 137.271 187.052 137.435C187.052 137.6 186.919 137.739 186.756 137.739Z" fill="white"/>
<path d="M198.671 146.019L181.919 146.148C181.755 146.148 181.617 146.014 181.617 145.849C181.617 145.685 181.75 145.546 181.914 145.546L198.666 145.418C198.83 145.418 198.968 145.551 198.968 145.716C198.968 145.88 198.835 146.019 198.671 146.019Z" fill="white"/>
<path d="M204.255 145.978L200.78 146.004C200.616 146.004 200.478 145.87 200.478 145.706C200.478 145.541 200.611 145.402 200.775 145.402L204.25 145.377C204.414 145.377 204.552 145.51 204.552 145.675C204.552 145.839 204.419 145.978 204.255 145.978Z" fill="white"/>
<path d="M198.779 159.984L182.027 160.112C181.863 160.112 181.725 159.979 181.725 159.814C181.725 159.65 181.858 159.511 182.022 159.511L198.774 159.383C198.938 159.383 199.076 159.516 199.076 159.681C199.076 159.845 198.943 159.984 198.779 159.984Z" fill="white"/>
<path d="M204.363 159.943L200.888 159.968C200.724 159.968 200.586 159.835 200.586 159.67C200.586 159.506 200.719 159.367 200.883 159.367L204.358 159.341C204.522 159.341 204.66 159.475 204.66 159.64C204.66 159.804 204.527 159.943 204.363 159.943Z" fill="white"/>
<path d="M198.724 152.685L181.971 152.814C181.808 152.814 181.669 152.68 181.669 152.516C181.669 152.351 181.803 152.212 181.966 152.212L198.719 152.084C198.882 152.084 199.021 152.218 199.021 152.382C199.021 152.546 198.887 152.685 198.724 152.685Z" fill="white"/>
<path d="M204.308 152.639L200.832 152.665C200.668 152.665 200.53 152.531 200.53 152.367C200.53 152.202 200.663 152.063 200.827 152.063L204.302 152.038C204.466 152.038 204.604 152.171 204.604 152.336C204.604 152.5 204.471 152.639 204.308 152.639Z" fill="white"/>
<path d="M210.029 152.598L206.553 152.624C206.389 152.624 206.251 152.49 206.251 152.326C206.251 152.161 206.384 152.022 206.548 152.022L210.023 151.997C210.187 151.997 210.325 152.13 210.325 152.295C210.325 152.459 210.192 152.598 210.029 152.598Z" fill="white"/>
<path d="M193.113 149.339L181.945 149.427C181.781 149.427 181.643 149.293 181.643 149.129C181.643 148.964 181.776 148.825 181.939 148.825L193.108 148.738C193.271 148.738 193.41 148.872 193.41 149.036C193.41 149.2 193.277 149.339 193.113 149.339Z" fill="white"/>
<path d="M200.069 149.288L195.171 149.324C195.007 149.324 194.869 149.19 194.869 149.026C194.869 148.861 195.002 148.722 195.166 148.722L200.064 148.686C200.228 148.686 200.366 148.82 200.366 148.984C200.366 149.149 200.233 149.288 200.069 149.288Z" fill="white"/>
<path d="M200.12 156.309L188.952 156.396C188.788 156.396 188.65 156.262 188.65 156.098C188.65 155.934 188.783 155.795 188.947 155.795L200.115 155.707C200.279 155.707 200.417 155.841 200.417 156.006C200.417 156.17 200.284 156.309 200.12 156.309Z" fill="white"/>
<path d="M186.899 156.411L182.001 156.447C181.837 156.447 181.699 156.314 181.699 156.149C181.699 155.985 181.832 155.846 181.996 155.846L186.894 155.81C187.058 155.81 187.196 155.944 187.196 156.108C187.196 156.273 187.063 156.411 186.899 156.411Z" fill="white"/>
<path d="M198.811 164.301L182.059 164.43C181.895 164.43 181.757 164.296 181.757 164.132C181.757 163.967 181.89 163.828 182.054 163.828L198.806 163.7C198.97 163.7 199.108 163.834 199.108 163.998C199.108 164.163 198.975 164.301 198.811 164.301Z" fill="white"/>
<path d="M204.394 164.26L200.919 164.286C200.755 164.286 200.617 164.152 200.617 163.988C200.617 163.823 200.75 163.684 200.914 163.684L204.389 163.659C204.553 163.659 204.691 163.792 204.691 163.957C204.691 164.121 204.558 164.26 204.394 164.26Z" fill="white"/>
<path d="M204.461 173.081L200.986 173.106C200.822 173.106 200.684 172.973 200.684 172.808C200.684 172.644 200.817 172.505 200.981 172.505L204.456 172.479C204.62 172.479 204.758 172.613 204.758 172.777C204.758 172.942 204.625 173.081 204.461 173.081Z" fill="white"/>
<path d="M210.187 173.034L206.712 173.06C206.548 173.06 206.41 172.926 206.41 172.762C206.41 172.597 206.543 172.458 206.707 172.458L210.182 172.433C210.346 172.433 210.484 172.566 210.484 172.731C210.484 172.895 210.351 173.034 210.187 173.034Z" fill="white"/>
<path d="M193.252 167.627L182.083 167.714C181.92 167.714 181.781 167.581 181.781 167.416C181.781 167.252 181.915 167.113 182.078 167.113L193.247 167.026C193.41 167.026 193.548 167.159 193.548 167.324C193.548 167.488 193.415 167.627 193.252 167.627Z" fill="white"/>
<path d="M200.207 167.57L195.309 167.606C195.145 167.606 195.007 167.473 195.007 167.308C195.007 167.144 195.14 167.005 195.303 167.005L200.202 166.969C200.365 166.969 200.504 167.103 200.504 167.267C200.504 167.432 200.371 167.57 200.207 167.57Z" fill="white"/>
<path opacity="0.22" d="M223.2 32.661L183.781 33.0686C182.811 33.0787 182.033 33.8761 182.043 34.8497L182.723 101.079C182.733 102.053 183.527 102.834 184.496 102.824L223.915 102.416C224.885 102.406 225.663 101.609 225.653 100.635L224.974 34.4057C224.964 33.4321 224.17 32.651 223.2 32.661Z" fill="#3E479B"/>
<path d="M220.856 29.5962L181.437 30.0038C180.467 30.0138 179.689 30.8112 179.699 31.7849L180.378 98.0141C180.388 98.9877 181.182 99.7689 182.152 99.7589L221.571 99.3512C222.541 99.3412 223.319 98.5438 223.309 97.5702L222.629 31.3409C222.619 30.3673 221.825 29.5861 220.856 29.5962Z" fill="white"/>
<path d="M222.768 31.3329L222.804 35.0388L179.872 35.4808L179.831 31.6875C179.821 30.7521 180.568 29.9914 181.494 29.9811L220.972 29.5751C221.95 29.5648 222.748 30.3512 222.758 31.3329H222.768Z" fill="#599AF2"/>
<path d="M217.471 31.8367C217.333 31.8367 217.215 31.7236 217.215 31.5797C217.215 31.4358 217.327 31.3227 217.471 31.3227L220.69 31.2919C220.813 31.2713 220.946 31.405 220.946 31.5489C220.946 31.6928 220.833 31.8059 220.69 31.8059L217.471 31.8367Z" fill="white"/>
<path d="M217.476 32.6645C217.337 32.6645 217.22 32.5514 217.22 32.4075C217.22 32.2635 217.332 32.1505 217.476 32.1505L220.695 32.1196C220.813 32.1196 220.951 32.2327 220.951 32.3766C220.951 32.5205 220.838 32.6336 220.695 32.6336L217.476 32.6645Z" fill="white"/>
<path d="M217.487 33.492C217.348 33.492 217.231 33.3789 217.231 33.235C217.231 33.0911 217.343 32.978 217.487 32.978L220.706 32.9471C220.844 32.9471 220.962 33.0602 220.962 33.2041C220.962 33.3481 220.849 33.4611 220.706 33.4611L217.487 33.492Z" fill="white"/>
<path d="M183.7 34.3503C183.634 34.3503 183.572 34.3246 183.521 34.2784L182.339 33.1168C182.2 32.978 182.195 32.7518 182.334 32.6131L183.449 31.472C183.552 31.3692 183.71 31.3692 183.813 31.472C183.915 31.5697 183.915 31.7341 183.813 31.8369L182.81 32.8649L183.879 33.9186C183.982 34.0162 183.982 34.1807 183.879 34.2835C183.828 34.3349 183.762 34.3606 183.695 34.3606L183.7 34.3503Z" fill="white"/>
<path opacity="0.36" d="M221.465 99.4825L181.915 99.7087C180.963 99.7138 180.185 98.9429 180.18 97.9817L180.104 84.217L223.108 83.9755L223.184 97.7401C223.189 98.6961 222.422 99.4774 221.465 99.4825Z" fill="#599AF2"/>
<path d="M210.003 41.8345L192.729 41.9314C192.412 41.9331 192.157 42.1923 192.159 42.5102L192.169 44.4068C192.171 44.7248 192.429 44.981 192.746 44.9793L210.02 44.8824C210.336 44.8806 210.592 44.6214 210.59 44.3035L210.579 42.4069C210.577 42.089 210.319 41.8327 210.003 41.8345Z" fill="#4C65BA"/>
<path opacity="0.32" d="M187.343 51.9945L215.499 51.8366C216.835 51.8291 217.926 52.9126 217.933 54.2541L217.936 54.8503C217.944 56.1918 216.865 57.2876 215.529 57.2951L187.374 57.453C186.038 57.4605 184.947 56.3769 184.939 55.0354L184.936 54.4392C184.928 53.0977 186.007 52.002 187.343 51.9945Z" fill="#599AF2"/>
<path opacity="0.43" d="M189.459 54.7296C189.464 55.6599 188.717 56.4155 187.796 56.4206C186.869 56.4257 186.117 55.6753 186.112 54.7501C186.106 53.825 186.854 53.0642 187.775 53.0591C188.701 53.054 189.454 53.8044 189.459 54.7296Z" fill="white"/>
<path d="M188.383 54.2515C188.383 54.5856 188.117 54.858 187.785 54.858C187.452 54.858 187.181 54.5907 187.181 54.2567C187.181 53.9226 187.447 53.6501 187.779 53.6501C188.112 53.6501 188.383 53.9174 188.383 54.2515Z" fill="white"/>
<path d="M188.685 55.8193L186.899 55.8296V55.6086C186.899 55.0895 187.314 54.6629 187.831 54.6577C188.302 54.6577 188.68 55.0329 188.685 55.5058V55.8193Z" fill="white"/>
<path opacity="0.32" d="M187.393 60.8912L215.548 60.7333C216.884 60.7258 217.975 61.8094 217.983 63.1509L217.986 63.7471C217.993 65.0886 216.914 66.1843 215.579 66.1918L187.423 66.3497C186.087 66.3572 184.996 65.2736 184.989 63.9321L184.985 63.3359C184.978 61.9944 186.057 60.8987 187.393 60.8912Z" fill="#599AF2"/>
<path opacity="0.43" d="M189.51 63.6265C189.515 64.5569 188.768 65.3124 187.847 65.3176C186.92 65.3227 186.168 64.5723 186.163 63.6471C186.158 62.7168 186.905 61.9612 187.826 61.9561C188.752 61.9509 189.505 62.7014 189.51 63.6265Z" fill="white"/>
<path d="M187.269 63.3637L188.395 63.3574C188.487 63.3569 188.559 63.4284 188.56 63.5209L188.565 64.5232C188.566 64.6157 188.495 64.6881 188.402 64.6886L187.276 64.6949C187.184 64.6954 187.112 64.6239 187.112 64.5314L187.106 63.5291C187.106 63.4366 187.177 63.3642 187.269 63.3637Z" fill="white"/>
<path d="M187.248 63.4823V63.066C187.248 62.9581 187.289 62.8553 187.366 62.773C187.443 62.6959 187.545 62.6497 187.653 62.6497H188.031C188.129 62.6497 188.221 62.6856 188.292 62.7576C188.364 62.8296 188.4 62.9221 188.4 63.0197V63.4772H188.277V63.0197C188.277 62.9529 188.246 62.8964 188.205 62.8501C188.159 62.8039 188.103 62.7782 188.036 62.7782H187.653C187.576 62.7782 187.504 62.809 187.453 62.8655C187.402 62.9169 187.371 62.9889 187.371 63.066V63.4823H187.243H187.248Z" fill="white"/>
<path d="M208.172 76.1272L196.027 76.194C194.558 76.2043 193.36 75.0118 193.35 73.5367C193.339 72.0615 194.527 70.8588 195.996 70.8485L208.142 70.7817C209.611 70.7714 210.808 71.9639 210.818 73.439C210.829 74.9142 209.641 76.1169 208.172 76.1272Z" fill="#F7A9B4"/>
<path d="M189.884 89.8965C189.603 89.8965 189.372 89.6703 189.372 89.3876C189.372 89.1049 189.598 88.8736 189.879 88.8685L213.382 88.7349C213.664 88.7349 213.894 88.961 213.894 89.2437C213.894 89.5264 213.669 89.7577 213.387 89.7628L189.884 89.8965Z" fill="white"/>
<path d="M194.665 93.4432C194.384 93.4432 194.153 93.2171 194.153 92.9344C194.153 92.6517 194.379 92.4204 194.66 92.4152L208.633 92.3381C208.915 92.3381 209.145 92.5643 209.145 92.847C209.145 93.1297 208.92 93.361 208.638 93.3661L194.665 93.4432Z" fill="white"/>
<path opacity="0.22" d="M193.189 77.6234L153.769 78.031C152.8 78.0411 152.022 78.8385 152.032 79.8121L152.711 146.041C152.721 147.015 153.515 147.796 154.485 147.786L193.904 147.378C194.873 147.368 195.651 146.571 195.641 145.597L194.962 79.3681C194.952 78.3945 194.158 77.6134 193.189 77.6234Z" fill="#3E479B"/>
<path d="M190.839 74.5536L151.42 74.9612C150.451 74.9712 149.673 75.7686 149.683 76.7423L150.362 142.972C150.372 143.945 151.166 144.726 152.135 144.716L191.555 144.309C192.524 144.299 193.302 143.501 193.292 142.528L192.613 76.2983C192.603 75.3247 191.809 74.5435 190.839 74.5536Z" fill="white"/>
<path opacity="0.42" d="M190.839 74.5536L151.42 74.9612C150.451 74.9712 149.673 75.7686 149.683 76.7423L150.362 142.972C150.372 143.945 151.166 144.726 152.135 144.716L191.555 144.309C192.524 144.299 193.302 143.501 193.292 142.528L192.613 76.2983C192.603 75.3247 191.809 74.5435 190.839 74.5536Z" fill="#599AF2"/>
<path d="M192.751 76.2904L192.787 79.9963L149.854 80.4383L149.813 76.6451C149.803 75.7096 150.55 74.9489 151.477 74.9386L190.954 74.5326C191.932 74.5223 192.73 75.3087 192.741 76.2904H192.751Z" fill="#599AF2"/>
<path d="M187.455 76.7943C187.317 76.7943 187.199 76.6813 187.199 76.5373C187.199 76.3934 187.312 76.2803 187.455 76.2803L190.674 76.2495C190.792 76.2495 190.93 76.3626 190.93 76.5065C190.93 76.6504 190.818 76.7635 190.674 76.7635L187.455 76.7943Z" fill="white"/>
<path d="M187.466 77.6216C187.327 77.6216 187.21 77.5085 187.21 77.3646C187.21 77.2207 187.322 77.1076 187.466 77.1076L190.685 77.0768C190.823 77.0768 190.941 77.1899 190.941 77.3338C190.941 77.4777 190.828 77.5908 190.685 77.5908L187.466 77.6216Z" fill="white"/>
<path d="M187.471 78.4492C187.333 78.4492 187.215 78.3362 187.215 78.1923C187.215 78.0483 187.327 77.9353 187.471 77.9353L190.69 77.9044C190.828 77.9044 190.946 78.0175 190.946 78.1614C190.946 78.3053 190.833 78.4184 190.69 78.4184L187.471 78.4492Z" fill="white"/>
<path d="M153.683 79.3076C153.617 79.3076 153.555 79.2819 153.504 79.2357L152.322 78.074C152.183 77.9353 152.178 77.7091 152.316 77.5703L153.432 76.4293C153.535 76.3265 153.693 76.3265 153.796 76.4293C153.898 76.5269 153.898 76.6914 153.796 76.7942L152.792 77.8222L153.862 78.8759C153.965 78.9735 153.965 79.138 153.862 79.2408C153.811 79.2922 153.744 79.3179 153.678 79.3179L153.683 79.3076Z" fill="white"/>
<g opacity="0.36">
<path d="M191.451 144.44L151.901 144.666C150.949 144.672 150.171 143.901 150.166 142.939L150.09 129.175L193.094 128.933L193.17 142.698C193.176 143.654 192.408 144.435 191.451 144.44Z" fill="white"/>
<path d="M151.892 144.924C151.365 144.924 150.874 144.718 150.5 144.348C150.121 143.973 149.917 143.474 149.911 142.945L149.835 128.923L193.351 128.676L193.427 142.698C193.433 143.798 192.547 144.692 191.457 144.703L151.908 144.929H151.897L151.892 144.924ZM150.347 129.437L150.423 142.945C150.423 143.341 150.582 143.711 150.858 143.988C151.135 144.266 151.503 144.415 151.892 144.415H151.903L191.452 144.189C192.26 144.189 192.921 143.515 192.916 142.703L192.839 129.196L150.347 129.437Z" fill="white"/>
</g>
<path d="M156.194 89.6127L156.198 86.5082C156.199 85.9531 156.645 85.5065 157.197 85.5072L188.199 85.5452C188.752 85.5459 189.197 85.9936 189.196 86.5487L189.192 89.6532C189.191 90.2083 188.746 90.6549 188.193 90.6543L157.191 90.6162C156.638 90.6155 156.194 90.1678 156.194 89.6127Z" fill="white"/>
<path d="M188.344 94.6144L157.036 94.5732C156.57 94.5732 156.191 94.1929 156.191 93.7252C156.191 93.2574 156.57 92.8771 157.036 92.8771L188.344 92.9182C188.81 92.9182 189.189 93.2985 189.189 93.7663C189.189 94.234 188.81 94.6144 188.344 94.6144Z" fill="white"/>
<path d="M188.339 98.5201L157.03 98.479C156.564 98.479 156.185 98.0987 156.185 97.6309C156.185 97.1632 156.564 96.7828 157.03 96.7828L188.339 96.824C188.804 96.824 189.183 97.2043 189.183 97.672C189.183 98.1398 188.804 98.5201 188.339 98.5201Z" fill="white"/>
<path d="M160.423 104.246C160.423 105.423 159.471 106.374 158.299 106.374C157.127 106.374 156.18 105.418 156.18 104.241C156.18 103.064 157.132 102.113 158.304 102.113C159.476 102.113 160.423 103.069 160.423 104.246Z" fill="#F7A9B4"/>
<path d="M160.413 113.91C160.413 115.087 159.461 116.038 158.289 116.038C157.117 116.038 156.17 115.082 156.17 113.905C156.17 112.727 157.122 111.777 158.295 111.777C159.467 111.777 160.413 112.733 160.413 113.91Z" fill="#F7A9B4"/>
<path d="M160.403 123.289C160.403 124.466 159.451 125.422 158.278 125.417C157.106 125.417 156.159 124.461 156.159 123.284C156.159 122.107 157.111 121.156 158.284 121.156C159.456 121.156 160.403 122.112 160.403 123.289Z" fill="#F7A9B4"/>
<path d="M181.936 103.491L161.627 103.465C161.483 103.465 161.371 103.352 161.371 103.208C161.371 103.064 161.483 102.951 161.627 102.951L181.936 102.977C182.079 102.977 182.192 103.09 182.192 103.234C182.192 103.378 182.079 103.491 181.936 103.491Z" fill="white"/>
<path d="M171.781 105.644L161.627 105.634C161.483 105.634 161.371 105.521 161.371 105.377C161.371 105.233 161.483 105.12 161.627 105.12L171.781 105.13C171.925 105.13 172.037 105.243 172.037 105.387C172.037 105.531 171.925 105.644 171.781 105.644Z" fill="white"/>
<path d="M181.925 113.472L161.616 113.446C161.472 113.446 161.36 113.333 161.36 113.189C161.36 113.045 161.472 112.932 161.616 112.932L181.925 112.958C182.069 112.958 182.181 113.071 182.181 113.215C182.181 113.359 182.069 113.472 181.925 113.472Z" fill="white"/>
<path d="M171.765 115.626L161.611 115.616C161.467 115.616 161.355 115.503 161.355 115.359C161.355 115.215 161.467 115.102 161.611 115.102L171.765 115.112C171.909 115.112 172.021 115.225 172.021 115.369C172.021 115.513 171.909 115.626 171.765 115.626Z" fill="white"/>
<path d="M181.915 122.585L161.606 122.559C161.462 122.559 161.35 122.446 161.35 122.302C161.35 122.158 161.462 122.045 161.606 122.045L181.915 122.071C182.059 122.071 182.171 122.184 182.171 122.328C182.171 122.472 182.059 122.585 181.915 122.585Z" fill="white"/>
<path d="M171.755 124.739L161.6 124.729C161.457 124.729 161.344 124.616 161.344 124.472C161.344 124.328 161.457 124.215 161.6 124.215L171.755 124.225C171.898 124.225 172.011 124.338 172.011 124.482C172.011 124.626 171.898 124.739 171.755 124.739Z" fill="white"/>
<path d="M159.864 134.855C159.583 134.855 159.352 134.628 159.352 134.346C159.352 134.063 159.577 133.832 159.859 133.827L183.362 133.693C183.644 133.693 183.874 133.919 183.874 134.202C183.874 134.485 183.649 134.716 183.367 134.721L159.864 134.855Z" fill="white"/>
<path d="M164.651 138.401C164.369 138.401 164.139 138.175 164.139 137.892C164.139 137.61 164.364 137.378 164.646 137.373L178.619 137.296C178.9 137.296 179.131 137.522 179.131 137.805C179.131 138.088 178.905 138.319 178.624 138.324L164.651 138.401Z" fill="white"/>
<path d="M101.936 52.9044H65.243C64.7879 52.9044 64.4189 53.2749 64.4189 53.7319V64.4435C64.4189 64.9005 64.7879 65.271 65.243 65.271H101.936C102.391 65.271 102.76 64.9005 102.76 64.4435V53.7319C102.76 53.2749 102.391 52.9044 101.936 52.9044Z" fill="#599AF2"/>
<path d="M70.8673 62.8339C68.6818 62.8339 66.9006 61.0504 66.9006 58.8505C66.9006 56.6506 68.6818 54.8671 70.8673 54.8671C73.0528 54.8671 74.834 56.6558 74.834 58.8505C74.834 61.0452 73.0528 62.8339 70.8673 62.8339Z" fill="#F7A9B4"/>
<path d="M70.5134 60.3463L69.0291 58.2852C68.9012 58.1105 68.9421 57.8637 69.1161 57.7353C69.2031 57.6736 69.3055 57.6479 69.4079 57.6633C69.5102 57.6787 69.6024 57.7352 69.6638 57.8226L70.6056 59.1333L75.3195 54.3995C75.3912 54.3275 75.4884 54.2864 75.5959 54.2864C75.6983 54.2864 75.8007 54.3275 75.8723 54.3995C76.0259 54.5536 76.0259 54.8004 75.8723 54.9546L70.5083 60.3412L70.5134 60.3463Z" fill="white"/>
<path opacity="0.38" d="M97.8058 57.3035H78.1873C78.044 57.3035 77.9314 57.1905 77.9314 57.0465C77.9314 56.9026 78.044 56.7896 78.1873 56.7896H97.8058C97.9491 56.7896 98.0617 56.9026 98.0617 57.0465C98.0617 57.1905 97.9491 57.3035 97.8058 57.3035Z" fill="white"/>
<path opacity="0.38" d="M86.955 59.6375H78.1873C78.044 59.6375 77.9314 59.5244 77.9314 59.3805C77.9314 59.2366 78.044 59.1235 78.1873 59.1235H86.955C87.0983 59.1235 87.2109 59.2366 87.2109 59.3805C87.2109 59.5244 87.0983 59.6375 86.955 59.6375Z" fill="white"/>
<path opacity="0.38" d="M97.8061 59.6375H89.0384C88.8951 59.6375 88.7825 59.5244 88.7825 59.3805C88.7825 59.2366 88.8951 59.1235 89.0384 59.1235H97.8061C97.9494 59.1235 98.062 59.2366 98.062 59.3805C98.062 59.5244 97.9494 59.6375 97.8061 59.6375Z" fill="white"/>
<path opacity="0.38" d="M97.8058 62.0839H78.1873C78.044 62.0839 77.9314 61.9709 77.9314 61.8269C77.9314 61.683 78.044 61.5699 78.1873 61.5699H97.8058C97.9491 61.5699 98.0617 61.683 98.0617 61.8269C98.0617 61.9709 97.9491 62.0839 97.8058 62.0839Z" fill="white"/>
<path d="M242.276 109.726H205.583C205.128 109.726 204.759 110.096 204.759 110.553V121.265C204.759 121.722 205.128 122.092 205.583 122.092H242.276C242.731 122.092 243.1 121.722 243.1 121.265V110.553C243.1 110.096 242.731 109.726 242.276 109.726Z" fill="#599AF2"/>
<path d="M211.207 119.656C209.022 119.656 207.241 117.867 207.241 115.672C207.241 113.478 209.022 111.689 211.207 111.689C213.393 111.689 215.174 113.478 215.174 115.672C215.174 117.867 213.393 119.656 211.207 119.656Z" fill="#F7A9B4"/>
<path d="M210.854 117.173L209.369 115.112C209.308 115.025 209.282 114.922 209.298 114.819C209.313 114.716 209.369 114.624 209.456 114.562C209.538 114.5 209.641 114.475 209.748 114.49C209.851 114.506 209.943 114.562 210.004 114.65L210.946 115.96L215.66 111.226C215.813 111.072 216.059 111.072 216.213 111.226C216.366 111.381 216.366 111.627 216.213 111.781L210.849 117.168L210.854 117.173Z" fill="white"/>
<path opacity="0.38" d="M238.146 114.125H218.527C218.384 114.125 218.271 114.012 218.271 113.868C218.271 113.724 218.384 113.611 218.527 113.611H238.146C238.289 113.611 238.402 113.724 238.402 113.868C238.402 114.012 238.289 114.125 238.146 114.125Z" fill="white"/>
<path opacity="0.38" d="M227.295 116.464H218.527C218.384 116.464 218.271 116.351 218.271 116.207C218.271 116.063 218.384 115.95 218.527 115.95H227.295C227.438 115.95 227.551 116.063 227.551 116.207C227.551 116.351 227.438 116.464 227.295 116.464Z" fill="white"/>
<path opacity="0.38" d="M238.146 116.464H229.378C229.235 116.464 229.123 116.351 229.123 116.207C229.123 116.063 229.235 115.95 229.378 115.95H238.146C238.289 115.95 238.402 116.063 238.402 116.207C238.402 116.351 238.289 116.464 238.146 116.464Z" fill="white"/>
<path opacity="0.38" d="M238.146 118.91H218.527C218.384 118.91 218.271 118.797 218.271 118.653C218.271 118.51 218.384 118.396 218.527 118.396H238.146C238.289 118.396 238.402 118.51 238.402 118.653C238.402 118.797 238.289 118.91 238.146 118.91Z" fill="white"/>
</g>
<defs>
<clipPath id="clip0_973_4166">
<rect width="234.879" height="193.846" fill="white" transform="translate(20.6111 0.23584)"/>
</clipPath>
</defs>
</svg>
