<svg width="270" height="273" viewBox="0 0 270 273" fill="none" xmlns="http://www.w3.org/2000/svg">
<path d="M123.248 214.9V237.65H120.217L108.763 220.103V237.65H105.748V214.9H108.763L120.263 232.494V214.9H123.248ZM136.982 228.728H130.904V226.275H136.982C138.159 226.275 139.112 226.088 139.842 225.713C140.571 225.338 141.102 224.817 141.435 224.15C141.779 223.483 141.951 222.723 141.951 221.869C141.951 221.088 141.779 220.353 141.435 219.666C141.102 218.978 140.571 218.426 139.842 218.009C139.112 217.582 138.159 217.369 136.982 217.369H131.607V237.65H128.592V214.9H136.982C138.701 214.9 140.154 215.197 141.342 215.791C142.529 216.384 143.43 217.207 144.045 218.259C144.659 219.301 144.967 220.494 144.967 221.838C144.967 223.296 144.659 224.541 144.045 225.572C143.43 226.603 142.529 227.39 141.342 227.931C140.154 228.463 138.701 228.728 136.982 228.728ZM157.17 228.728H151.092V226.275H157.17C158.347 226.275 159.3 226.088 160.029 225.713C160.758 225.338 161.29 224.817 161.623 224.15C161.967 223.483 162.138 222.723 162.138 221.869C162.138 221.088 161.967 220.353 161.623 219.666C161.29 218.978 160.758 218.426 160.029 218.009C159.3 217.582 158.347 217.369 157.17 217.369H151.795V237.65H148.779V214.9H157.17C158.888 214.9 160.342 215.197 161.529 215.791C162.717 216.384 163.618 217.207 164.232 218.259C164.847 219.301 165.154 220.494 165.154 221.838C165.154 223.296 164.847 224.541 164.232 225.572C163.618 226.603 162.717 227.39 161.529 227.931C160.342 228.463 158.888 228.728 157.17 228.728Z" fill="black"/>
<g clip-path="url(#clip0_973_5795)">
<g style="mix-blend-mode:multiply" opacity="0.4">
<path d="M140.652 198.811C201.242 198.811 250.36 170.336 250.36 135.211C250.36 100.085 201.242 71.6096 140.652 71.6096C80.062 71.6096 30.9441 100.085 30.9441 135.211C30.9441 170.336 80.062 198.811 140.652 198.811Z" fill="#13515B"/>
</g>
<path d="M140.652 183.642C201.242 183.642 250.36 155.167 250.36 120.041C250.36 84.9149 201.242 56.4398 140.652 56.4398C80.0622 56.4398 30.9442 84.9149 30.9442 120.041C30.9442 155.167 80.0622 183.642 140.652 183.642Z" fill="#CCC6BA"/>
<mask id="mask0_973_5795" style="mask-type:luminance" maskUnits="userSpaceOnUse" x="30" y="56" width="221" height="128">
<path d="M140.653 183.642C201.243 183.642 250.361 155.167 250.361 120.041C250.361 84.9154 201.243 56.4403 140.653 56.4403C80.063 56.4403 30.9451 84.9154 30.9451 120.041C30.9451 155.167 80.063 183.642 140.653 183.642Z" fill="white"/>
</mask>
<g mask="url(#mask0_973_5795)">
<g style="mix-blend-mode:multiply">
<path d="M167.409 154.793L165.817 135.572L156.096 134.742L124.934 143.962L118.553 156.968L126.287 164.601H142.041L145.022 159.445H150.936L149.715 154.793H167.409Z" fill="#CCC6BA"/>
</g>
<g style="mix-blend-mode:multiply">
<path d="M121.186 158.05C121.258 157.221 120.624 156.8 119.522 156.8H113.477L107.323 152.412C107.862 151.739 108.221 151.09 108.257 150.561C108.329 149.732 107.694 149.311 106.593 149.311L78.4954 149.359C77.418 149.359 75.8976 149.768 74.1856 150.585C70.7498 152.232 67.8407 154.913 67.709 156.572C67.6252 157.521 68.4871 157.918 69.8639 157.786C69.6963 157.798 69.5167 157.834 69.3611 157.834L87.7136 157.798C87.51 157.882 87.3065 157.966 87.091 158.062C83.6552 159.709 80.7461 162.39 80.6144 164.048C80.5306 164.998 81.3925 165.395 82.7813 165.262C82.6137 165.274 82.4341 165.311 82.2784 165.311L106.581 165.274L113.644 169.374H118.552L119.989 161.476L119.247 160.947C120.36 159.901 121.078 158.855 121.15 158.05H121.186Z" fill="#CCC6BA"/>
</g>
<g style="mix-blend-mode:multiply">
<path d="M147.667 91.7687C149.044 84.6405 141.753 82.3206 129.865 84.8569C126.441 85.5781 123.197 86.2633 118.397 87.1649C112.339 88.3068 107.814 89.016 107.766 89.0281C103.947 89.6171 100.643 90.1339 97.8173 90.4825C95.0639 90.8191 91.4245 91.2398 88.7069 91.5404C87.2584 91.6966 85.3549 91.8649 83.9422 91.9731C81.4761 92.1654 59.4243 95.5793 32.7875 95.0263L1.66125 126.652C3.43306 126.652 20.4567 126.677 22.1686 126.701C31.8537 126.869 37.5881 127.338 41.9099 127.782C43.0472 127.903 44.5436 128.071 45.6211 128.227C47.6443 128.528 50.302 128.948 52.2653 129.297C54.3723 129.67 56.8265 130.271 58.7899 130.764C58.8138 130.764 61.675 131.413 65.2785 132.651C68.2833 133.685 145.68 102.106 147.679 91.7687H147.667Z" fill="#CCC6BA"/>
</g>
<path d="M175.848 168.472L128.944 195.663L114.195 187.116L161.099 159.926L175.848 168.472Z" fill="#7EA33D"/>
<path d="M268.389 114.824L221.485 142.027L206.735 133.468L253.64 106.278L268.389 114.824Z" fill="#7EA33D"/>
</g>
<path d="M164.752 83.5464L163.902 79.195C165.027 84.9528 161.723 90.927 154.025 95.2665C140.844 102.695 119.762 102.479 106.941 94.7856C99.674 90.4222 96.6212 84.5922 97.7466 79.0146C97.4592 80.4571 97.16 81.9116 96.8726 83.3541C95.7234 89.0879 98.848 95.0621 106.306 99.5458C119.451 107.443 141.084 107.66 154.612 100.039C162.501 95.591 165.901 89.4605 164.74 83.5464H164.752Z" fill="url(#paint0_linear_973_5795)"/>
<path d="M164.107 81.4272C164.137 70.7322 149.255 62.0203 130.868 61.9688C112.481 61.9172 97.5506 70.5455 97.5209 81.2405C97.4912 91.9355 112.373 100.647 130.76 100.699C149.147 100.75 164.077 92.1223 164.107 81.4272Z" fill="#5F5F64"/>
<path d="M149.991 47.4606C150.075 44.6117 148.279 41.7267 144.592 39.515C137.241 35.1034 125.15 34.9832 117.584 39.2385C113.657 41.4503 111.73 44.4073 111.802 47.3524C111.646 41.1017 111.502 34.863 111.347 28.6123C111.335 28.0954 111.323 27.4223 111.311 26.9054C111.287 25.8836 111.251 24.5253 111.227 23.5035C111.215 22.9867 111.203 22.3135 111.191 21.7966C111.155 20.0897 111.107 18.3948 111.071 16.6879C111.047 15.6661 111 14.3078 110.988 13.286C110.916 10.1968 112.939 7.09545 117.045 4.7875C124.97 0.315841 137.648 0.448067 145.346 5.07599C149.213 7.39596 151.093 10.4131 151.009 13.4063C150.674 24.7657 150.338 36.1131 149.991 47.4726V47.4606Z" fill="url(#paint1_linear_973_5795)"/>
<path d="M149.56 13.2017C149.56 10.4851 147.824 7.75638 144.304 5.64076C137.157 1.34941 125.389 1.2292 118.026 5.3763C114.291 7.47991 112.4 10.2807 112.4 13.0935V12.216C112.4 9.4032 114.291 6.6024 118.026 4.4988C125.389 0.3517 137.145 0.471906 144.304 4.76325C147.824 6.87888 149.572 9.60755 149.56 12.3242C149.56 12.5887 149.56 12.9372 149.56 13.2017Z" fill="url(#paint2_linear_973_5795)"/>
<path d="M161.424 75.1081C160.538 73.2689 159.712 71.538 158.599 68.8694C157.198 65.5156 156.336 62.8831 156.324 62.8591C155.606 60.6353 154.983 58.712 154.552 56.9931C154.133 55.3222 153.618 53.0743 153.271 51.3915C153.08 50.4899 152.876 49.2758 152.732 48.3623C152.17 44.672 151.631 40.2965 151.463 33.3606C151.344 28.1316 151.463 22.506 151.894 12.6251C151.763 15.6903 149.644 18.7315 145.561 21.0275C137.277 25.7035 124.013 25.5592 115.956 20.727C112.125 18.419 110.149 15.474 110.042 12.5049C110.377 21.6766 110.521 27.3984 110.365 33.1442C110.161 40.1522 109.587 44.6239 109.036 48.0618C108.892 48.9633 108.689 50.1654 108.497 51.0549C108.138 52.7378 107.611 54.9736 107.192 56.6445C106.737 58.4475 106.007 60.6834 105.409 62.4865C105.409 62.5105 104.535 65.119 103.026 68.7011C101.769 71.6822 100.572 74.1224 100.165 74.9278C97.1123 81.0943 99.6742 88.0302 107.935 92.9827C120.194 100.339 140.354 100.544 152.96 93.4395C161.651 88.5351 164.489 81.4429 161.4 75.0961L161.424 75.1081Z" fill="url(#paint3_linear_973_5795)"/>
<path d="M145.573 21.0272C137.289 25.7032 124.024 25.559 115.967 20.7267C107.91 15.8944 108.102 8.17723 116.386 3.51325C124.671 -1.16276 137.935 -1.01851 145.992 3.81376C154.049 8.64603 153.857 16.3632 145.573 21.0272ZM143.933 20.0415C151.296 15.8944 151.463 9.05473 144.304 4.76339C137.157 0.472038 125.389 0.351832 118.026 4.49893C110.664 8.64603 110.496 15.4857 117.655 19.7771C124.802 24.0684 136.57 24.1886 143.933 20.0415Z" fill="#F2ECDD"/>
<path d="M114.483 112.684L113.633 108.332C114.759 114.09 111.455 120.064 103.757 124.404C90.5761 131.833 69.4941 131.616 56.6725 123.923C49.4057 119.56 46.3529 113.73 47.4783 108.152C47.1909 109.594 46.8916 111.049 46.6043 112.491C45.455 118.225 48.5796 124.199 56.038 128.683C69.1828 136.581 90.8155 136.797 104.343 129.176C112.233 124.728 115.633 118.598 114.471 112.696L114.483 112.684Z" fill="url(#paint4_linear_973_5795)"/>
<path d="M113.841 110.561C113.87 99.8664 98.9887 91.1546 80.6015 91.1031C62.2143 91.0515 47.2844 99.6797 47.2547 110.375C47.2249 121.07 62.1066 129.782 80.4938 129.833C98.881 129.885 113.811 121.257 113.841 110.561Z" fill="#5F5F64"/>
<path d="M99.7228 76.5984C99.8066 73.7495 98.0109 70.8646 94.3236 68.6528C86.973 64.2412 74.8817 64.121 67.3156 68.3763C63.3889 70.5881 61.4615 73.5452 61.5333 76.4902C61.3777 70.2395 61.234 64.0008 61.0784 57.7501C61.0664 57.2332 61.0545 56.5601 61.0425 56.0432C61.0185 55.0214 60.9826 53.6631 60.9587 52.6414C60.9467 52.1245 60.9347 51.4513 60.9228 50.9344C60.8869 49.2275 60.839 47.5326 60.8031 45.8257C60.7791 44.8039 60.7312 43.4456 60.7193 42.4239C60.6474 39.3346 62.6706 36.2333 66.7769 33.9253C74.7021 29.4537 87.3801 29.5859 95.0778 34.2138C98.9447 36.5338 100.824 39.5509 100.74 42.5441C100.405 53.9035 100.07 65.251 99.7228 76.6104V76.5984Z" fill="url(#paint5_linear_973_5795)"/>
<path d="M99.2915 42.3514C99.2915 39.6347 97.5556 36.906 94.036 34.7904C86.8889 30.4991 75.1208 30.3789 67.7583 34.526C64.0231 36.6296 62.1316 39.4304 62.1316 42.2432V41.3657C62.1316 38.5529 64.0231 35.7521 67.7583 33.6485C75.1208 29.5014 86.877 29.6216 94.036 33.9129C97.5556 36.0285 99.3035 38.7572 99.2915 41.4739C99.2915 41.7383 99.2915 42.0869 99.2915 42.3514Z" fill="url(#paint6_linear_973_5795)"/>
<path d="M111.155 104.245C110.269 102.406 109.443 100.675 108.329 98.0067C106.929 94.653 106.067 92.0205 106.055 91.9964C105.336 89.7726 104.714 87.8493 104.283 86.1304C103.864 84.4595 103.349 82.2117 103.002 80.5288C102.81 79.6273 102.607 78.4132 102.463 77.4996C101.901 73.8093 101.362 69.4338 101.194 62.4979C101.074 57.269 101.194 51.6433 101.625 41.7624C101.493 44.8277 99.3745 47.8689 95.2922 50.1648C87.0078 54.8408 73.7433 54.6966 65.6863 49.8643C61.8554 47.5563 59.8801 44.6113 59.7724 41.6422C60.1076 50.8139 60.2512 56.5357 60.0956 62.2815C59.8921 69.2895 59.3174 73.7612 58.7667 77.1991C58.6231 78.1006 58.4196 79.3027 58.228 80.1922C57.8689 81.8751 57.3421 84.1109 56.9231 85.7818C56.4682 87.5849 55.7379 89.8207 55.1393 91.6238C55.1393 91.6478 54.2654 94.2563 52.757 97.8384C51.5 100.82 50.3028 103.26 49.8958 104.065C46.843 110.232 49.4049 117.168 57.6654 122.12C69.9243 129.477 90.0845 129.681 102.691 122.577C111.382 117.672 114.219 110.58 111.131 104.233L111.155 104.245Z" fill="url(#paint7_linear_973_5795)"/>
<path d="M95.3048 50.1769C87.0204 54.8529 73.7558 54.7087 65.6989 49.8764C57.642 45.0441 57.8336 37.3269 66.1179 32.6629C74.4023 27.9869 87.6669 28.1311 95.7238 32.9634C103.781 37.7957 103.589 45.5129 95.3048 50.1769ZM93.6646 49.1912C101.027 45.0441 101.195 38.2044 94.0358 33.913C86.8887 29.6217 75.1206 29.5015 67.758 33.6486C60.3955 37.7957 60.2279 44.6354 67.3869 48.9267C74.534 53.2181 86.3021 53.3383 93.6646 49.1912Z" fill="#F2ECDD"/>
<path d="M182.77 78.6302V101.229L211.322 117.829V95.2307L182.77 78.6302Z" fill="#3B3B3F"/>
<path d="M211.323 95.2304V117.829L228.286 107.996V85.3976L211.323 95.2304Z" fill="#48484D"/>
<path d="M182.77 78.6301L211.322 95.2305L228.286 85.3977L199.734 68.7972L182.77 78.6301Z" fill="#5F5F64"/>
<path d="M208.474 13.6589C209.97 14.5364 212.4 14.5364 213.897 13.6589C214.651 13.2261 215.022 12.6491 215.022 12.0721V85.4818C215.022 86.0588 214.651 86.6238 213.897 87.0686C212.388 87.9461 209.97 87.9461 208.474 87.0686C207.731 86.6358 207.36 86.0709 207.36 85.5059V12.0962C207.36 12.6612 207.731 13.2261 208.474 13.6589Z" fill="url(#paint8_linear_973_5795)"/>
<path d="M208.498 10.4974C206.989 11.3749 206.989 12.7813 208.474 13.6468C209.97 14.5243 212.4 14.5243 213.897 13.6468C215.393 12.7813 215.405 11.3629 213.897 10.4974C212.412 9.6319 209.982 9.6319 208.486 10.4974H208.498Z" fill="#F2ECDD"/>
<path opacity="0.9" d="M209.035 10.8218C207.826 11.519 207.826 12.649 209.012 13.3462C210.209 14.0434 212.148 14.0434 213.357 13.3462C214.554 12.649 214.566 11.519 213.357 10.8218C212.16 10.1247 210.221 10.1247 209.024 10.8218H209.035Z" fill="url(#paint9_linear_973_5795)"/>
<path d="M207.36 22.4218C207.36 22.9868 207.731 23.5518 208.473 23.9845C209.969 24.862 212.4 24.862 213.896 23.9845C214.65 23.5518 215.021 22.9748 215.021 22.3978V19.585C215.021 20.1619 214.65 20.7269 213.896 21.1717C212.388 22.0492 209.969 22.0492 208.473 21.1717C207.731 20.7389 207.36 20.174 207.36 19.609V22.4218ZM207.36 29.9347C207.36 30.4997 207.731 31.0646 208.473 31.4974C209.969 32.3749 212.4 32.3749 213.896 31.4974C214.65 31.0646 215.021 30.4876 215.021 29.9106V27.0978C215.021 27.6748 214.65 28.2398 213.896 28.6845C212.388 29.562 209.969 29.562 208.473 28.6845C207.731 28.2518 207.36 27.6868 207.36 27.1219V29.9347ZM207.36 37.4475C207.36 38.0125 207.731 38.5775 208.473 39.0102C209.969 39.8877 212.4 39.8877 213.896 39.0102C214.65 38.5775 215.021 38.0005 215.021 37.4235V34.6107C215.021 35.1877 214.65 35.7526 213.896 36.1974C212.388 37.0749 209.969 37.0749 208.473 36.1974C207.731 35.7647 207.36 35.1997 207.36 34.6347V37.4475ZM207.36 44.9604C207.36 45.5254 207.731 46.0903 208.473 46.5231C209.969 47.4006 212.4 47.4006 213.896 46.5231C214.65 46.0903 215.021 45.5134 215.021 44.9364V42.1236C215.021 42.7005 214.65 43.2655 213.896 43.7103C212.388 44.5878 209.969 44.5878 208.473 43.7103C207.731 43.2775 207.36 42.7126 207.36 42.1476V44.9604ZM207.36 52.4733C207.36 53.0382 207.731 53.6032 208.473 54.0359C209.969 54.9135 212.4 54.9135 213.896 54.0359C214.65 53.6032 215.021 53.0262 215.021 52.4492V49.6364C215.021 50.2134 214.65 50.7784 213.896 51.2231C212.388 52.1006 209.969 52.1006 208.473 51.2231C207.731 50.7904 207.36 50.2254 207.36 49.6605V52.4733ZM207.36 59.9861C207.36 60.5511 207.731 61.1161 208.473 61.5488C209.969 62.4263 212.4 62.4263 213.896 61.5488C214.65 61.1161 215.021 60.5391 215.021 59.9621V57.1493C215.021 57.7263 214.65 58.2912 213.896 58.736C212.388 59.6135 209.969 59.6135 208.473 58.736C207.731 58.3033 207.36 57.7383 207.36 57.1733V59.9861ZM207.36 67.499C207.36 68.064 207.731 68.6289 208.473 69.0617C209.969 69.9392 212.4 69.9392 213.896 69.0617C214.65 68.6289 215.021 68.0519 215.021 67.475V64.6621C215.021 65.2391 214.65 65.8041 213.896 66.2489C212.388 67.1264 209.969 67.1264 208.473 66.2489C207.731 65.8161 207.36 65.2512 207.36 64.6862V67.499ZM207.36 75.0119C207.36 75.5768 207.731 76.1418 208.473 76.5745C209.969 77.452 212.4 77.452 213.896 76.5745C214.65 76.1418 215.021 75.5648 215.021 74.9878V72.175C215.021 72.752 214.65 73.317 213.896 73.7617C212.388 74.6392 209.969 74.6392 208.473 73.7617C207.731 73.329 207.36 72.764 207.36 72.199V75.0119ZM207.36 82.5247C207.36 83.0897 207.731 83.6547 208.473 84.0874C209.969 84.9649 212.4 84.9649 213.896 84.0874C214.65 83.6547 215.021 83.0777 215.021 82.5007V79.6879C215.021 80.2649 214.65 80.8298 213.896 81.2746C212.388 82.1521 209.969 82.1521 208.473 81.2746C207.731 80.8418 207.36 80.2769 207.36 79.7119V82.5247Z" fill="url(#paint10_linear_973_5795)"/>
<path d="M195.612 6.20574C197.109 7.08324 199.539 7.08324 201.035 6.20574C201.79 5.77299 202.161 5.19601 202.161 4.61902V78.0287C202.161 78.6057 201.79 79.1707 201.035 79.6154C199.527 80.4929 197.109 80.4929 195.612 79.6154C194.87 79.1827 194.499 78.6177 194.499 78.0528V4.64306C194.499 5.20803 194.87 5.77299 195.612 6.20574Z" fill="url(#paint11_linear_973_5795)"/>
<path d="M195.636 3.04425C194.128 3.92176 194.128 5.32816 195.612 6.19365C197.109 7.07115 199.539 7.07115 201.035 6.19365C202.532 5.32816 202.544 3.90973 201.035 3.04425C199.551 2.17877 197.121 2.17877 195.624 3.04425H195.636Z" fill="#F2ECDD"/>
<path opacity="0.9" d="M196.175 3.35712C194.966 4.05432 194.966 5.18425 196.151 5.88145C197.348 6.57864 199.287 6.57864 200.497 5.88145C201.694 5.18425 201.706 4.05432 200.497 3.35712C199.299 2.65993 197.36 2.65993 196.163 3.35712H196.175Z" fill="url(#paint12_linear_973_5795)"/>
<path d="M194.501 14.9684C194.501 15.5334 194.872 16.0984 195.614 16.5311C197.11 17.4086 199.541 17.4086 201.037 16.5311C201.791 16.0984 202.162 15.5214 202.162 14.9444V12.1316C202.162 12.7086 201.791 13.2735 201.037 13.7183C199.529 14.5958 197.11 14.5958 195.614 13.7183C194.872 13.2856 194.501 12.7206 194.501 12.1556V14.9684ZM194.501 22.4813C194.501 23.0463 194.872 23.6112 195.614 24.044C197.11 24.9215 199.541 24.9215 201.037 24.044C201.791 23.6112 202.162 23.0343 202.162 22.4573V19.6445C202.162 20.2214 201.791 20.7864 201.037 21.2312C199.529 22.1087 197.11 22.1087 195.614 21.2312C194.872 20.7984 194.501 20.2335 194.501 19.6685V22.4813ZM194.501 29.9942C194.501 30.5591 194.872 31.1241 195.614 31.5569C197.11 32.4344 199.541 32.4344 201.037 31.5569C201.791 31.1241 202.162 30.5471 202.162 29.9701V27.1573C202.162 27.7343 201.791 28.2993 201.037 28.744C199.529 29.6215 197.11 29.6215 195.614 28.744C194.872 28.3113 194.501 27.7463 194.501 27.1814V29.9942ZM194.501 37.507C194.501 38.072 194.872 38.637 195.614 39.0697C197.11 39.9472 199.541 39.9472 201.037 39.0697C201.791 38.637 202.162 38.06 202.162 37.483V34.6702C202.162 35.2472 201.791 35.8121 201.037 36.2569C199.529 37.1344 197.11 37.1344 195.614 36.2569C194.872 35.8242 194.501 35.2592 194.501 34.6942V37.507ZM194.501 45.0199C194.501 45.5849 194.872 46.1498 195.614 46.5826C197.11 47.4601 199.541 47.4601 201.037 46.5826C201.791 46.1498 202.162 45.5728 202.162 44.9959V42.183C202.162 42.76 201.791 43.325 201.037 43.7698C199.529 44.6473 197.11 44.6473 195.614 43.7698C194.872 43.337 194.501 42.7721 194.501 42.2071V45.0199ZM194.501 52.5328C194.501 53.0977 194.872 53.6627 195.614 54.0954C197.11 54.9729 199.541 54.9729 201.037 54.0954C201.791 53.6627 202.162 53.0857 202.162 52.5087V49.6959C202.162 50.2729 201.791 50.8379 201.037 51.2826C199.529 52.1601 197.11 52.1601 195.614 51.2826C194.872 50.8499 194.501 50.2849 194.501 49.7199V52.5328ZM194.501 60.0456C194.501 60.6106 194.872 61.1756 195.614 61.6083C197.11 62.4858 199.541 62.4858 201.037 61.6083C201.791 61.1756 202.162 60.5986 202.162 60.0216V57.2088C202.162 57.7858 201.791 58.3507 201.037 58.7955C199.529 59.673 197.11 59.673 195.614 58.7955C194.872 58.3627 194.501 57.7978 194.501 57.2328V60.0456ZM194.501 67.5585C194.501 68.1235 194.872 68.6884 195.614 69.1212C197.11 69.9987 199.541 69.9987 201.037 69.1212C201.791 68.6884 202.162 68.1114 202.162 67.5344V64.7216C202.162 65.2986 201.791 65.8636 201.037 66.3084C199.529 67.1859 197.11 67.1859 195.614 66.3084C194.872 65.8756 194.501 65.3106 194.501 64.7457V67.5585ZM194.501 75.0714C194.501 75.6363 194.872 76.2013 195.614 76.634C197.11 77.5115 199.541 77.5115 201.037 76.634C201.791 76.2013 202.162 75.6243 202.162 75.0473V72.2345C202.162 72.8115 201.791 73.3765 201.037 73.8212C199.529 74.6987 197.11 74.6987 195.614 73.8212C194.872 73.3885 194.501 72.8235 194.501 72.2585V75.0714Z" fill="url(#paint13_linear_973_5795)"/>
<path d="M107.84 102.78L107.828 144.659L138.344 162.474V120.594L107.84 102.78Z" fill="#3B3B3F"/>
<path d="M138.344 120.594V162.474L212.688 119.368V77.4883L138.344 120.594Z" fill="#48484D"/>
<path d="M107.839 102.78L138.343 120.594L212.687 77.4883L182.171 59.6858L107.839 102.78Z" fill="#5F5F64"/>
<path d="M209.778 77.4882L182.172 61.3806L110.749 102.792L138.355 118.899L209.778 77.4882Z" fill="#A09595"/>
<path d="M147.2 119.452L147.176 157.28L150.935 159.456L150.947 121.627L147.2 119.452Z" fill="#3B3B3F"/>
<path d="M150.946 121.627L150.934 159.456L156.884 155.994L156.896 118.165L150.946 121.627Z" fill="#48484D"/>
<path d="M147.2 119.451L150.947 121.627L156.897 118.165L153.15 116.002L147.2 119.451Z" fill="#5F5F64"/>
<path d="M138.305 124.608L138.281 162.437L142.04 164.601L142.052 126.772L138.305 124.608Z" fill="#3B3B3F"/>
<path d="M142.051 126.772L142.039 164.6L147.989 161.151L148.001 123.322L142.051 126.772Z" fill="#48484D"/>
<path d="M138.305 124.608L142.052 126.772L148.002 123.322L144.255 121.158L138.305 124.608Z" fill="#5F5F64"/>
<path d="M206.714 84.9528L206.702 122.782L210.449 124.945L210.473 87.1165L206.714 84.9528Z" fill="#3B3B3F"/>
<path d="M210.472 87.1159L210.448 124.945L216.41 121.495L216.422 83.666L210.472 87.1159Z" fill="#48484D"/>
<path d="M206.714 84.9528L210.473 87.1165L216.423 83.6666L212.675 81.5029L206.714 84.9528Z" fill="#5F5F64"/>
<path d="M197.818 90.1095L197.806 127.938L201.565 130.102L201.577 92.2732L197.818 90.1095Z" fill="#3B3B3F"/>
<path d="M201.577 92.2732L201.565 130.102L207.515 126.652L207.527 88.8232L201.577 92.2732Z" fill="#48484D"/>
<path d="M197.818 90.1094L201.577 92.2732L207.527 88.8232L203.78 86.6595L197.818 90.1094Z" fill="#5F5F64"/>
<path d="M159.639 127.157L159.675 150.104L167.409 154.792L167.505 131.773L159.639 127.157Z" fill="#3B3B3F"/>
<path d="M192.669 108.008L192.705 130.955L200.451 135.644L200.535 112.624L192.669 108.008Z" fill="#3B3B3F"/>
<path d="M159.639 127.157L167.505 131.773L200.57 112.612L192.705 107.984L159.639 127.157Z" fill="#5F5F64"/>
<path d="M182.171 61.3802L110.748 102.791L112.424 103.765L182.171 63.3396L208.101 78.4615L209.777 77.4878L182.171 61.3802Z" fill="#8C8080"/>
<path d="M178.699 68.6527L174.497 71.0809L177.61 72.896H180.184L178.699 68.6527Z" fill="#8C8080"/>
<path d="M176.426 69.1447V70.7073L180.185 72.8951L180.173 71.3324L176.426 69.1447Z" fill="#DBDBDB"/>
<path d="M180.172 71.3324L180.184 72.8951L183.955 70.7073L183.943 69.1447L180.172 71.3324Z" fill="#EDEDED"/>
<path d="M176.426 69.1448L180.173 71.3325L183.944 69.1448L180.197 66.957L176.426 69.1448Z" fill="#F4F4F4"/>
<path d="M178.579 68.1471C177.705 68.6519 177.705 69.4814 178.579 69.9862C179.453 70.4911 180.866 70.4911 181.74 69.9862C182.614 69.4814 182.614 68.6519 181.74 68.1471C180.866 67.6422 179.453 67.6422 178.579 68.1471Z" fill="#A09595"/>
<path d="M179.512 68.6882C179.153 68.8925 179.153 69.2291 179.512 69.4334C179.871 69.6378 180.446 69.6378 180.805 69.4334C181.164 69.2291 181.164 68.8925 180.805 68.6882C180.446 68.4838 179.871 68.4838 179.512 68.6882Z" fill="#F4F4F4"/>
<path d="M169.648 73.8936L165.446 76.3337L168.558 78.1368H171.132L169.648 73.8936Z" fill="#8C8080"/>
<path d="M167.373 74.3866V75.9493L171.133 78.137L171.121 76.5743L167.373 74.3866Z" fill="#DBDBDB"/>
<path d="M171.12 76.5743L171.132 78.137L174.903 75.9493L174.891 74.3866L171.12 76.5743Z" fill="#EDEDED"/>
<path d="M167.373 74.3866L171.121 76.5743L174.892 74.3866L171.144 72.1989L167.373 74.3866Z" fill="#F4F4F4"/>
<path d="M169.528 73.4006C168.654 73.9055 168.654 74.7349 169.528 75.2398C170.402 75.7446 171.814 75.7446 172.688 75.2398C173.562 74.7349 173.562 73.9055 172.688 73.4006C171.814 72.8958 170.402 72.8958 169.528 73.4006Z" fill="#A09595"/>
<path d="M170.461 73.9418C170.101 74.1462 170.101 74.4828 170.461 74.6871C170.82 74.8915 171.394 74.8915 171.754 74.6871C172.113 74.4828 172.113 74.1462 171.754 73.9418C171.394 73.7375 170.82 73.7375 170.461 73.9418Z" fill="#F4F4F4"/>
<path d="M160.597 79.1466L156.395 81.5748L159.508 83.3899H162.082L160.597 79.1466Z" fill="#8C8080"/>
<path d="M158.323 79.6395V81.2022L162.082 83.39L162.07 81.8273L158.323 79.6395Z" fill="#DBDBDB"/>
<path d="M162.069 81.8273L162.081 83.39L165.852 81.2022L165.841 79.6395L162.069 81.8273Z" fill="#EDEDED"/>
<path d="M158.323 79.6395L162.07 81.8273L165.841 79.6395L162.094 77.4518L158.323 79.6395Z" fill="#F4F4F4"/>
<path d="M160.478 78.6417C159.604 79.1466 159.604 79.976 160.478 80.4809C161.352 80.9857 162.764 80.9857 163.638 80.4809C164.512 79.976 164.512 79.1466 163.638 78.6417C162.764 78.1368 161.352 78.1368 160.478 78.6417Z" fill="#A09595"/>
<path d="M161.411 79.1827C161.052 79.387 161.052 79.7236 161.411 79.928C161.77 80.1323 162.345 80.1323 162.704 79.928C163.063 79.7236 163.063 79.387 162.704 79.1827C162.345 78.9783 161.77 78.9783 161.411 79.1827Z" fill="#F4F4F4"/>
<path d="M151.548 84.3881L147.346 86.8282L150.458 88.6313H153.032L151.548 84.3881Z" fill="#8C8080"/>
<path d="M149.274 84.8802V86.4429L153.033 88.6307L153.021 87.068L149.274 84.8802Z" fill="#DBDBDB"/>
<path d="M153.02 87.068L153.032 88.6307L156.803 86.4429L156.791 84.8802L153.02 87.068Z" fill="#EDEDED"/>
<path d="M149.274 84.8804L153.021 87.0681L156.792 84.8804L153.045 82.6926L149.274 84.8804Z" fill="#F4F4F4"/>
<path d="M151.428 83.8949C150.554 84.3997 150.554 85.2292 151.428 85.734C152.302 86.2389 153.715 86.2389 154.589 85.734C155.462 85.2292 155.462 84.3997 154.589 83.8949C153.715 83.39 152.302 83.39 151.428 83.8949Z" fill="#A09595"/>
<path d="M152.362 84.4359C152.003 84.6402 152.003 84.9768 152.362 85.1811C152.721 85.3855 153.296 85.3855 153.655 85.1811C154.014 84.9768 154.014 84.6402 153.655 84.4359C153.296 84.2315 152.721 84.2315 152.362 84.4359Z" fill="#F4F4F4"/>
<path d="M142.496 89.641L138.294 92.0692L141.407 93.8843H143.969L142.496 89.641Z" fill="#8C8080"/>
<path d="M140.222 90.1333V91.696L143.97 93.8837V92.321L140.222 90.1333Z" fill="#DBDBDB"/>
<path d="M143.97 92.321V93.8837L147.753 91.696L147.741 90.1333L143.97 92.321Z" fill="#EDEDED"/>
<path d="M140.222 90.1334L143.969 92.3212L147.74 90.1334L143.993 87.9457L140.222 90.1334Z" fill="#F4F4F4"/>
<path d="M142.377 89.1356C141.503 89.6405 141.503 90.4699 142.377 90.9748C143.251 91.4796 144.663 91.4796 145.537 90.9748C146.411 90.4699 146.411 89.6405 145.537 89.1356C144.663 88.6307 143.251 88.6307 142.377 89.1356Z" fill="#A09595"/>
<path d="M143.31 89.6768C142.951 89.8812 142.951 90.2178 143.31 90.4221C143.669 90.6265 144.244 90.6265 144.603 90.4221C144.962 90.2178 144.962 89.8812 144.603 89.6768C144.244 89.4725 143.669 89.4725 143.31 89.6768Z" fill="#F4F4F4"/>
<path d="M133.445 94.8818L129.243 97.322L132.356 99.1251H134.918L133.445 94.8818Z" fill="#8C8080"/>
<path d="M131.171 95.374V96.9367L134.918 99.1244V97.5618L131.171 95.374Z" fill="#DBDBDB"/>
<path d="M134.917 97.5618V99.1244L138.7 96.9367L138.688 95.374L134.917 97.5618Z" fill="#EDEDED"/>
<path d="M131.171 95.3743L134.918 97.562L138.689 95.3743L134.942 93.1865L131.171 95.3743Z" fill="#F4F4F4"/>
<path d="M133.325 94.3885C132.451 94.8934 132.451 95.7228 133.325 96.2277C134.199 96.7325 135.611 96.7325 136.485 96.2277C137.359 95.7228 137.359 94.8934 136.485 94.3885C135.611 93.8837 134.199 93.8837 133.325 94.3885Z" fill="#A09595"/>
<path d="M134.258 94.9299C133.898 95.1342 133.898 95.4708 134.258 95.6752C134.617 95.8795 135.191 95.8795 135.551 95.6752C135.91 95.4708 135.91 95.1342 135.551 94.9299C135.191 94.7255 134.617 94.7255 134.258 94.9299Z" fill="#F4F4F4"/>
<path d="M124.396 100.135L120.194 102.563L123.306 104.378H125.868L124.396 100.135Z" fill="#8C8080"/>
<path d="M122.122 100.627V102.19L125.87 104.377V102.815L122.122 100.627Z" fill="#DBDBDB"/>
<path d="M125.869 102.815V104.377L129.64 102.19V100.627L125.869 102.815Z" fill="#EDEDED"/>
<path d="M122.122 100.627L125.87 102.815L129.641 100.627L125.893 98.4392L122.122 100.627Z" fill="#F4F4F4"/>
<path d="M124.264 99.6297C123.39 100.135 123.39 100.964 124.264 101.469C125.138 101.974 126.55 101.974 127.424 101.469C128.298 100.964 128.298 100.135 127.424 99.6297C126.55 99.1249 125.138 99.1249 124.264 99.6297Z" fill="#A09595"/>
<path d="M125.21 100.171C124.851 100.375 124.851 100.712 125.21 100.916C125.569 101.121 126.144 101.121 126.503 100.916C126.862 100.712 126.862 100.375 126.503 100.171C126.144 99.9666 125.569 99.9666 125.21 100.171Z" fill="#F4F4F4"/>
<path d="M185.032 72.319L180.818 74.7591L183.942 76.5622H186.504L185.032 72.319Z" fill="#8C8080"/>
<path d="M182.756 72.8113V74.374L186.504 76.5617V74.999L182.756 72.8113Z" fill="#DBDBDB"/>
<path d="M186.503 74.999V76.5617L190.274 74.374V72.8113L186.503 74.999Z" fill="#EDEDED"/>
<path d="M182.756 72.8114L186.503 74.9992L190.274 72.8114L186.527 70.6237L182.756 72.8114Z" fill="#F4F4F4"/>
<path d="M184.901 71.8142C184.027 72.3191 184.027 73.1485 184.901 73.6533C185.775 74.1582 187.188 74.1582 188.061 73.6533C188.935 73.1485 188.935 72.3191 188.061 71.8142C187.188 71.3093 185.775 71.3093 184.901 71.8142Z" fill="#A09595"/>
<path d="M185.834 72.3554C185.475 72.5598 185.475 72.8963 185.834 73.1007C186.193 73.305 186.768 73.305 187.127 73.1007C187.486 72.8963 187.486 72.5598 187.127 72.3554C186.768 72.1511 186.193 72.1511 185.834 72.3554Z" fill="#F4F4F4"/>
<path d="M175.981 77.5603L171.767 80.0005L174.892 81.8036H177.454L175.981 77.5603Z" fill="#8C8080"/>
<path d="M173.694 78.0525L173.706 79.6152L177.453 81.8029V80.2402L173.694 78.0525Z" fill="#DBDBDB"/>
<path d="M177.452 80.2402V81.8029L181.223 79.6272V78.0525L177.452 80.2402Z" fill="#EDEDED"/>
<path d="M173.694 78.0527L177.453 80.2405L181.224 78.0527L177.477 75.865L173.694 78.0527Z" fill="#F4F4F4"/>
<path d="M175.849 77.0671C174.975 77.572 174.975 78.4014 175.849 78.9063C176.722 79.4111 178.135 79.4111 179.009 78.9063C179.883 78.4014 179.883 77.572 179.009 77.0671C178.135 76.5623 176.722 76.5623 175.849 77.0671Z" fill="#A09595"/>
<path d="M176.782 77.6085C176.422 77.8128 176.422 78.1494 176.782 78.3537C177.141 78.5581 177.715 78.5581 178.075 78.3537C178.434 78.1494 178.434 77.8128 178.075 77.6085C177.715 77.4041 177.141 77.4041 176.782 77.6085Z" fill="#F4F4F4"/>
<path d="M166.932 82.8127L162.718 85.2529L165.842 87.056H168.404L166.932 82.8127Z" fill="#8C8080"/>
<path d="M164.645 83.3048L164.657 84.8675L168.404 87.0552V85.4926L164.645 83.3048Z" fill="#DBDBDB"/>
<path d="M168.404 85.4926V87.0552L172.175 84.8675V83.3048L168.404 85.4926Z" fill="#EDEDED"/>
<path d="M164.645 83.3049L168.404 85.4927L172.176 83.3049L168.428 81.1172L164.645 83.3049Z" fill="#F4F4F4"/>
<path d="M166.8 82.3077C165.926 82.8126 165.926 83.642 166.8 84.1469C167.674 84.6517 169.086 84.6517 169.96 84.1469C170.834 83.642 170.834 82.8126 169.96 82.3077C169.086 81.8029 167.674 81.8029 166.8 82.3077Z" fill="#A09595"/>
<path d="M167.734 82.8489C167.374 83.0533 167.374 83.3899 167.734 83.5942C168.093 83.7986 168.667 83.7986 169.027 83.5942C169.386 83.3899 169.386 83.0533 169.027 82.8489C168.667 82.6446 168.093 82.6446 167.734 82.8489Z" fill="#F4F4F4"/>
<path d="M157.881 88.0541L153.667 90.4943L156.792 92.3094H159.354L157.881 88.0541Z" fill="#8C8080"/>
<path d="M155.595 88.5466L155.607 90.1093L159.354 92.3091V90.7344L155.595 88.5466Z" fill="#DBDBDB"/>
<path d="M159.354 90.7344V92.3091L163.125 90.1213V88.5466L159.354 90.7344Z" fill="#EDEDED"/>
<path d="M155.595 88.5465L159.354 90.7343L163.125 88.5465L159.366 86.3588L155.595 88.5465Z" fill="#F4F4F4"/>
<path d="M157.749 87.5613C156.875 88.0661 156.875 88.8955 157.749 89.4004C158.623 89.9053 160.035 89.9053 160.909 89.4004C161.783 88.8955 161.783 88.0661 160.909 87.5613C160.035 87.0564 158.623 87.0564 157.749 87.5613Z" fill="#A09595"/>
<path d="M158.681 88.1025C158.322 88.3068 158.322 88.6434 158.681 88.8478C159.041 89.0521 159.615 89.0521 159.974 88.8478C160.334 88.6434 160.334 88.3068 159.974 88.1025C159.615 87.8981 159.041 87.8981 158.681 88.1025Z" fill="#F4F4F4"/>
<path d="M148.829 93.3076L144.615 95.7478L147.739 97.5509H150.301L148.829 93.3076Z" fill="#8C8080"/>
<path d="M146.543 93.8002L146.555 95.3629L150.302 97.5506V95.9879L146.543 93.8002Z" fill="#DBDBDB"/>
<path d="M150.301 95.9879V97.5506L154.072 95.3629V93.8002L150.301 95.9879Z" fill="#EDEDED"/>
<path d="M146.543 93.8001L150.302 95.9878L154.073 93.8001L150.314 91.6123L146.543 93.8001Z" fill="#F4F4F4"/>
<path d="M148.696 92.8028C147.823 93.3077 147.823 94.1371 148.696 94.642C149.57 95.1469 150.983 95.1469 151.857 94.642C152.731 94.1371 152.731 93.3077 151.857 92.8028C150.983 92.298 149.57 92.298 148.696 92.8028Z" fill="#A09595"/>
<path d="M149.629 93.3439C149.27 93.5483 149.27 93.8849 149.629 94.0892C149.989 94.2936 150.563 94.2936 150.922 94.0892C151.282 93.8849 151.282 93.5483 150.922 93.3439C150.563 93.1396 149.989 93.1396 149.629 93.3439Z" fill="#F4F4F4"/>
<path d="M139.779 98.548L135.565 100.988L138.69 102.803H141.252L139.779 98.548Z" fill="#8C8080"/>
<path d="M137.492 99.0409L137.504 100.604L141.251 102.803V101.229L137.492 99.0409Z" fill="#DBDBDB"/>
<path d="M141.251 101.229V102.803L145.022 100.616V99.0409L141.251 101.229Z" fill="#EDEDED"/>
<path d="M137.492 99.041L141.251 101.229L145.022 99.041L141.263 96.8533L137.492 99.041Z" fill="#F4F4F4"/>
<path d="M139.648 98.0549C138.774 98.5598 138.774 99.3892 139.648 99.8941C140.522 100.399 141.934 100.399 142.808 99.8941C143.682 99.3892 143.682 98.5598 142.808 98.0549C141.934 97.5501 140.522 97.5501 139.648 98.0549Z" fill="#A09595"/>
<path d="M140.58 98.596C140.221 98.8004 140.221 99.1369 140.58 99.3413C140.94 99.5456 141.514 99.5456 141.873 99.3413C142.232 99.1369 142.232 98.8004 141.873 98.596C141.514 98.3917 140.94 98.3917 140.58 98.596Z" fill="#F4F4F4"/>
<path d="M130.729 103.802L126.515 106.242L129.64 108.045H132.202L130.729 103.802Z" fill="#8C8080"/>
<path d="M128.442 104.295L128.454 105.857L132.201 108.045L132.189 106.482L128.442 104.295Z" fill="#DBDBDB"/>
<path d="M132.189 106.482L132.201 108.045L135.972 105.857V104.295L132.189 106.482Z" fill="#EDEDED"/>
<path d="M128.442 104.295L132.189 106.482L135.972 104.295L132.213 102.107L128.442 104.295Z" fill="#F4F4F4"/>
<path d="M130.597 103.297C129.723 103.802 129.723 104.631 130.597 105.136C131.471 105.641 132.883 105.641 133.757 105.136C134.631 104.631 134.631 103.802 133.757 103.297C132.883 102.792 131.471 102.792 130.597 103.297Z" fill="#A09595"/>
<path d="M131.53 103.85C131.171 104.054 131.171 104.39 131.53 104.595C131.89 104.799 132.464 104.799 132.823 104.595C133.183 104.39 133.183 104.054 132.823 103.85C132.464 103.645 131.89 103.645 131.53 103.85Z" fill="#F4F4F4"/>
<path d="M209.778 77.4878L208.102 78.4615L182.171 63.3396V61.3802L209.778 77.4878Z" fill="#776B6B"/>
<mask id="mask1_973_5795" style="mask-type:luminance" maskUnits="userSpaceOnUse" x="168" y="121" width="32" height="33">
<path d="M168.917 138.806L169.121 153.807L198.99 136.498L199.074 121.111L168.917 138.806Z" fill="white"/>
</mask>
<g mask="url(#mask1_973_5795)">
<g style="mix-blend-mode:multiply" opacity="0.6">
<path d="M164.666 152.377H171.741L171.921 152.256H164.666V152.377Z" fill="#A09595"/>
</g>
<g style="mix-blend-mode:multiply" opacity="0.6">
<path d="M203.801 133.6L204.735 133.059L199.12 120.882C199.12 120.882 166.917 139.298 164.69 140.837C164.69 140.837 164.678 140.837 164.666 140.837V151.319L165.624 150.766H174.423L174.603 150.645H165.803L168.329 149.167H177.129L177.308 149.047H168.545L171.071 147.568H179.822L180.002 147.448H172.077L175.955 145.188H183.964V145.092H176.111L180.181 142.736H188.059L188.238 142.616H179.583L182.085 141.161H190.764L190.944 141.041H182.288L184.79 139.586H193.47L193.649 139.466H184.994L187.496 138.012H196.175L196.355 137.892H187.7L190.202 136.437H198.881L199.061 136.317H190.405L192.907 134.862H201.587L201.766 134.742H193.111L195.206 133.516L203.706 133.54L203.801 133.6ZM171.885 147.484H171.31L175.189 145.236H175.776L171.897 147.484H171.885ZM180.002 142.784L175.931 145.14H175.357L179.427 142.784H180.002Z" fill="#A09595"/>
</g>
<path opacity="0.7" d="M164.198 141.69L203.956 118.49L203.932 133.636L164.174 156.836L164.198 141.69Z" fill="url(#paint14_linear_973_5795)"/>
<path d="M203.944 127.674L201.897 128.876V122.794L203.956 121.592V121.399L201.897 122.601V119.704L201.73 119.801V122.709L199.156 124.212V121.303L198.988 121.399V124.308L196.414 125.811V122.902L196.247 122.998V125.871L193.673 127.373V124.501L193.505 124.597V127.47L190.931 128.972V126.099L190.764 126.195V129.068L188.19 130.571V127.698L188.022 127.794V130.631L185.448 132.134V129.297L185.281 129.393V132.23L182.707 133.732V130.883L182.539 130.98V133.829L179.965 135.331V132.482L179.798 132.578V135.391L177.224 136.894V134.081L177.056 134.177V136.99L174.482 138.493V135.68L174.315 135.776V138.589L171.741 140.091V137.278L171.573 137.375V140.151L168.999 141.654V138.877L168.832 138.973V141.75L166.258 143.253V140.476L166.09 140.572V143.349L164.127 144.491V144.683L166.09 143.541V149.624L164.115 150.778V150.97L166.09 149.816V155.694L166.258 155.598V149.72L168.832 148.217V154.095L168.999 153.999V148.121L171.573 146.618V152.496L171.741 152.4V146.558L174.315 145.056V150.898L174.482 150.802V144.96L177.056 143.457V149.299L177.224 149.203V143.361L179.798 141.858V147.712L179.965 147.616V143.012L183.94 140.716V145.308L184.059 145.236V140.644L188.01 138.348V142.916L188.178 142.82V137.038L190.752 135.535V141.317L190.919 141.221V135.439L193.493 133.937V139.719L193.661 139.622V133.841L196.235 132.338V138.12L196.402 138.024V132.278L198.976 130.775V136.521L199.144 136.425V130.679L201.718 129.177V134.934L201.885 134.838V129.08L203.932 127.878V127.686L203.944 127.674ZM168.891 147.905V148.001L166.318 149.503V149.395C166.318 142.628 166.318 145.056 166.318 143.421L168.891 141.918C168.891 143.301 168.891 140.812 168.891 147.905ZM171.633 146.318V146.402L169.059 147.905V147.808C169.059 140.716 169.059 144.034 169.059 141.822L171.633 140.32C171.633 143.036 171.633 138.42 171.633 146.318ZM174.374 144.731V144.839L171.801 146.342V146.306V140.26L174.374 138.757V144.731ZM177.116 143.241L174.542 144.743V144.635C174.542 137.867 174.542 140.296 174.542 138.661L177.116 137.158V143.241ZM179.857 141.642L177.284 143.144V137.062L179.857 135.559V141.642ZM182.755 133.901L185.328 132.398V138.48L182.755 139.983V133.901ZM180.013 135.499L182.587 133.997V140.079L180.013 141.582V135.499ZM188.058 138.192L180.013 142.856V141.774C180.887 141.257 186.693 137.867 188.058 137.074V138.192ZM188.058 136.87L185.484 138.372V132.29L188.058 130.787V136.87ZM190.8 135.307L188.226 136.81V130.727L190.8 129.225V135.307ZM193.541 133.708L190.967 135.211V129.128L193.541 127.626V133.708ZM196.283 132.11L193.709 133.612V127.53L196.283 126.027V132.11ZM199.024 130.547L196.45 132.049V125.967L199.024 124.464V130.547ZM201.766 128.948L199.192 130.451V124.368L201.766 122.866V128.948Z" fill="#489B8D"/>
</g>
<path d="M161.163 111.218L161.139 123.359L190.41 106.422L190.433 94.2449L161.163 111.218Z" fill="white"/>
<g style="mix-blend-mode:multiply" opacity="0.6">
<path d="M186.374 106.434L184.148 107.732H187.775V107.937H183.789L181.406 109.319H185.034V109.523H181.047L178.665 110.906H182.292V111.11H178.306L175.923 112.492H179.551V112.697H175.564L173.182 114.079H176.809V114.284H172.823L170.44 115.666H174.068V115.87H170.081L167.699 117.253H171.326V117.457H167.34L164.957 118.839H168.585V119.044H164.598L162.216 120.426H165.843V120.63H161.857L160.576 121.376V110.954L190.672 93.6682L190.385 106.434H186.338H186.374ZM160.611 122.217H163.149V122.013H160.611V122.217Z" fill="#A09595"/>
</g>
<path opacity="0.7" d="M161.163 111.218L190.433 94.2449L190.41 106.422L161.139 123.359L161.163 111.218Z" fill="url(#paint15_linear_973_5795)"/>
<path d="M160.252 110.545L160.229 123.888L161.138 123.347L161.162 111.278L190.433 94.305L190.409 106.434L191.319 105.845L191.355 92.502L160.252 110.545Z" fill="#48484D"/>
<path d="M190.432 100.219L187.918 101.685V95.7714L187.75 95.8675V101.782L185.176 103.284V97.3581L185.009 97.4542V103.332L182.435 104.835V98.9448L182.267 99.041V104.931L179.693 106.434V100.544L179.526 100.64V106.53L176.952 108.032V102.142L176.784 102.238V108.092L174.21 109.595V103.741L174.043 103.837V109.691L171.469 111.194V105.34L171.301 105.436V111.29L168.727 112.793V106.938L168.56 107.035V112.853L165.986 114.355V108.525L165.818 108.621V114.451L163.244 115.954V110.124L163.077 110.22V116.05L161.113 117.192V117.384L163.077 116.242V122.205L163.244 122.108C163.244 115.365 163.244 117.781 163.244 116.146L165.818 114.644C165.818 116.026 165.818 113.538 165.818 120.618L165.986 120.522C165.986 113.454 165.986 116.759 165.986 114.548L168.56 113.045C168.56 115.762 168.56 111.158 168.56 119.031L168.727 118.935V112.985L171.301 111.482V117.444L171.469 117.348C171.469 110.605 171.469 113.021 171.469 111.386L174.043 109.884V115.858L174.21 115.762V109.787L176.784 108.285V114.271L176.952 114.175V108.225L179.526 106.722V112.684L179.693 112.588V106.626L182.267 105.123V111.098L182.435 111.001V105.027L185.009 103.525V109.511L185.176 109.415V103.465L187.75 101.962V107.924L187.918 107.828V101.866L190.432 100.399V100.207V100.219Z" fill="#489B8D"/>
<path d="M167.506 131.773L167.41 154.792L169.122 153.807L169.134 138.829L198.907 121.423L198.883 136.557L200.487 135.631L200.571 112.612L167.506 131.773Z" fill="#48484D"/>
<path d="M82.4591 149.888C81.0824 149.888 79.7057 149.527 78.4726 148.818L50.4111 132.554C50.0759 132.362 49.9562 131.929 50.1597 131.592C50.3512 131.256 50.7822 131.136 51.1174 131.34L79.1789 147.604C81.2021 148.782 83.7281 148.782 85.7513 147.604L111.814 132.494C112.149 132.302 112.58 132.41 112.771 132.746C112.963 133.083 112.855 133.516 112.52 133.708L86.4577 148.818C85.2246 149.527 83.8479 149.888 82.4711 149.888H82.4591Z" fill="#5F5F64"/>
<path d="M96.0583 153.458L96.0703 156.283L106.294 162.257V159.42L96.0583 153.458Z" fill="#3B3B3F"/>
<path d="M106.293 159.42V162.257L116.589 156.283V153.458L106.293 159.42Z" fill="#48484D"/>
<path d="M96.0583 153.458L106.294 159.42L116.59 153.458L106.354 147.484L96.0583 153.458Z" fill="#5F5F64"/>
<path d="M101.016 127.193C103.901 128.876 108.582 128.876 111.479 127.193C112.939 126.352 113.67 125.234 113.658 124.128L113.742 152.641C113.742 153.747 113.011 154.864 111.563 155.706C108.666 157.389 103.973 157.389 101.1 155.706C99.6629 154.876 98.9566 153.783 98.9446 152.689L98.8608 124.176C98.8608 125.27 99.5791 126.364 101.016 127.193Z" fill="url(#paint16_linear_973_5795)"/>
<path d="M101.064 121.099C98.1669 122.782 98.143 125.51 101.028 127.193C103.913 128.876 108.594 128.876 111.491 127.193C114.388 125.51 114.412 122.794 111.527 121.111C108.642 119.428 103.961 119.428 101.064 121.111V121.099Z" fill="#F2ECDD"/>
<path d="M103.972 120.546C105.253 119.801 107.312 119.801 108.593 120.546C109.874 121.291 109.862 122.493 108.581 123.226C107.3 123.972 105.229 123.972 103.96 123.226C102.691 122.481 102.691 121.279 103.972 120.534V120.546Z" fill="#FFF9E9"/>
<path d="M108.342 160.574L108.354 163.41L118.578 169.373V166.548L108.342 160.574Z" fill="#3B3B3F"/>
<path d="M118.577 166.548V169.373L128.885 163.41L128.873 160.574L118.577 166.548Z" fill="#48484D"/>
<path d="M108.342 160.574L118.578 166.548L128.873 160.574L118.638 154.612L108.342 160.574Z" fill="#5F5F64"/>
<path d="M113.31 134.309C116.195 135.992 120.876 135.992 123.773 134.309C125.234 133.467 125.964 132.349 125.952 131.244L126.036 159.756C126.036 160.862 125.306 161.98 123.857 162.822C120.96 164.504 116.267 164.504 113.394 162.822C111.957 161.992 111.251 160.898 111.239 159.804L111.155 131.292C111.155 132.385 111.874 133.479 113.31 134.309Z" fill="url(#paint17_linear_973_5795)"/>
<path d="M113.347 128.226C110.45 129.909 110.426 132.638 113.311 134.321C116.196 136.004 120.877 136.004 123.774 134.321C126.671 132.638 126.695 129.921 123.81 128.238C120.925 126.556 116.244 126.556 113.347 128.238V128.226Z" fill="#F2ECDD"/>
<path d="M116.255 127.661C117.536 126.916 119.595 126.916 120.876 127.661C122.145 128.407 122.145 129.609 120.864 130.342C119.583 131.087 117.512 131.087 116.243 130.342C114.974 129.597 114.974 128.395 116.255 127.649V127.661Z" fill="#FFF9E9"/>
<path d="M89.881 164.457C88.7796 164.457 87.6782 164.168 86.6966 163.603L45.5142 139.73C44.4607 139.117 43.8381 138.036 43.8381 136.821C43.8381 135.607 44.4607 134.514 45.5142 133.913L56.8513 127.337C57.1865 127.145 57.6175 127.253 57.809 127.59C58.0006 127.926 57.8928 128.359 57.5576 128.551L46.2205 135.127C45.6099 135.475 45.2508 136.112 45.2508 136.821C45.2508 137.531 45.6099 138.156 46.2205 138.516L87.4029 162.389C88.9353 163.279 90.8507 163.279 92.3831 162.389L100.739 157.545C101.074 157.353 101.505 157.461 101.697 157.797C101.889 158.134 101.781 158.567 101.446 158.759L93.0894 163.603C92.1077 164.168 91.0063 164.457 89.893 164.457H89.881Z" fill="#5F5F64"/>
<path d="M102.152 171.561C101.051 171.561 99.9493 171.272 98.9676 170.707L57.7853 146.834C57.45 146.642 57.3303 146.209 57.5338 145.873C57.7254 145.536 58.1564 145.416 58.4916 145.62L99.674 169.493C101.206 170.383 103.122 170.383 104.654 169.493L113.01 164.649C113.346 164.457 113.777 164.565 113.968 164.901C114.16 165.238 114.052 165.671 113.717 165.863L105.361 170.707C104.379 171.272 103.277 171.561 102.164 171.561H102.152Z" fill="#5F5F64"/>
<path d="M74.4976 61.3922C72.0793 61.2119 70.1998 63.3876 70.3195 66.2485C70.4392 69.1094 72.4983 71.5736 74.9166 71.7419C77.3349 71.9222 79.2144 69.7465 79.0947 66.8856C78.975 64.0247 76.9159 61.5604 74.4976 61.3922Z" fill="#8C8080"/>
<path d="M125.294 31.5693C122.875 31.389 120.996 33.5647 121.116 36.4256C121.235 39.2865 123.294 41.7507 125.713 41.919C128.131 42.0993 130.01 39.9236 129.891 37.0627C129.771 34.2018 127.712 31.7376 125.294 31.5693Z" fill="#8C8080"/>
</g>
<defs>
<linearGradient id="paint0_linear_973_5795" x1="96.6452" y1="92.3094" x2="164.967" y2="92.3094" gradientUnits="userSpaceOnUse">
<stop stop-color="#3B3B3F"/>
<stop offset="1" stop-color="#48484D"/>
</linearGradient>
<linearGradient id="paint1_linear_973_5795" x1="110.964" y1="24.4892" x2="150.997" y2="24.4892" gradientUnits="userSpaceOnUse">
<stop stop-color="#B8AF9A"/>
<stop offset="1" stop-color="#9E947C"/>
</linearGradient>
<linearGradient id="paint2_linear_973_5795" x1="112.4" y1="7.33566" x2="149.56" y2="7.33566" gradientUnits="userSpaceOnUse">
<stop stop-color="#D3C9B2"/>
<stop offset="0.14" stop-color="#CDC3AB"/>
<stop offset="1" stop-color="#AEA388"/>
</linearGradient>
<linearGradient id="paint3_linear_973_5795" x1="105.109" y1="55.5746" x2="156.492" y2="55.5746" gradientUnits="userSpaceOnUse">
<stop stop-color="#AEA388"/>
<stop offset="0.6" stop-color="#CDC3AB"/>
<stop offset="1" stop-color="#E4DBC6"/>
</linearGradient>
<linearGradient id="paint4_linear_973_5795" x1="46.3769" y1="121.447" x2="114.699" y2="121.447" gradientUnits="userSpaceOnUse">
<stop stop-color="#3B3B3F"/>
<stop offset="1" stop-color="#48484D"/>
</linearGradient>
<linearGradient id="paint5_linear_973_5795" x1="60.6953" y1="53.627" x2="100.74" y2="53.627" gradientUnits="userSpaceOnUse">
<stop stop-color="#B8AF9A"/>
<stop offset="1" stop-color="#9E947C"/>
</linearGradient>
<linearGradient id="paint6_linear_973_5795" x1="62.1436" y1="36.4733" x2="99.3035" y2="36.4733" gradientUnits="userSpaceOnUse">
<stop stop-color="#D3C9B2"/>
<stop offset="0.14" stop-color="#CDC3AB"/>
<stop offset="1" stop-color="#AEA388"/>
</linearGradient>
<linearGradient id="paint7_linear_973_5795" x1="54.8401" y1="84.712" x2="106.222" y2="84.712" gradientUnits="userSpaceOnUse">
<stop stop-color="#AEA388"/>
<stop offset="0.6" stop-color="#CDC3AB"/>
<stop offset="1" stop-color="#E4DBC6"/>
</linearGradient>
<linearGradient id="paint8_linear_973_5795" x1="207.36" y1="49.9009" x2="215.034" y2="49.9009" gradientUnits="userSpaceOnUse">
<stop stop-color="#AEA388"/>
<stop offset="0.6" stop-color="#CDC3AB"/>
<stop offset="1" stop-color="#E4DBC6"/>
</linearGradient>
<linearGradient id="paint9_linear_973_5795" x1="208.126" y1="12.084" x2="214.267" y2="12.084" gradientUnits="userSpaceOnUse">
<stop stop-color="#B8AF9A"/>
<stop offset="1" stop-color="#9E947C"/>
</linearGradient>
<linearGradient id="paint10_linear_973_5795" x1="207.36" y1="52.1487" x2="215.033" y2="52.1487" gradientUnits="userSpaceOnUse">
<stop stop-color="#776B6B"/>
<stop offset="0.86" stop-color="#9A8E8E"/>
<stop offset="1" stop-color="#A09595"/>
</linearGradient>
<linearGradient id="paint11_linear_973_5795" x1="194.499" y1="42.4358" x2="202.173" y2="42.4358" gradientUnits="userSpaceOnUse">
<stop stop-color="#AEA388"/>
<stop offset="0.6" stop-color="#CDC3AB"/>
<stop offset="1" stop-color="#E4DBC6"/>
</linearGradient>
<linearGradient id="paint12_linear_973_5795" x1="195.265" y1="4.63131" x2="201.406" y2="4.63131" gradientUnits="userSpaceOnUse">
<stop stop-color="#B8AF9A"/>
<stop offset="1" stop-color="#9E947C"/>
</linearGradient>
<linearGradient id="paint13_linear_973_5795" x1="194.501" y1="44.6953" x2="202.174" y2="44.6953" gradientUnits="userSpaceOnUse">
<stop stop-color="#776B6B"/>
<stop offset="0.86" stop-color="#9A8E8E"/>
<stop offset="1" stop-color="#A09595"/>
</linearGradient>
<linearGradient id="paint14_linear_973_5795" x1="164.174" y1="137.663" x2="203.956" y2="137.663" gradientUnits="userSpaceOnUse">
<stop stop-color="#72C9B2"/>
<stop offset="0.57" stop-color="#60BCB0"/>
<stop offset="1" stop-color="#51B1AF"/>
</linearGradient>
<linearGradient id="paint15_linear_973_5795" x1="161.139" y1="108.802" x2="190.433" y2="108.802" gradientUnits="userSpaceOnUse">
<stop stop-color="#72C9B2"/>
<stop offset="0.57" stop-color="#60BCB0"/>
<stop offset="1" stop-color="#51B1AF"/>
</linearGradient>
<linearGradient id="paint16_linear_973_5795" x1="98.8728" y1="140.548" x2="113.754" y2="140.548" gradientUnits="userSpaceOnUse">
<stop stop-color="#AEA388"/>
<stop offset="0.6" stop-color="#CDC3AB"/>
<stop offset="1" stop-color="#E4DBC6"/>
</linearGradient>
<linearGradient id="paint17_linear_973_5795" x1="111.155" y1="147.664" x2="126.036" y2="147.664" gradientUnits="userSpaceOnUse">
<stop stop-color="#AEA388"/>
<stop offset="0.6" stop-color="#CDC3AB"/>
<stop offset="1" stop-color="#E4DBC6"/>
</linearGradient>
<clipPath id="clip0_973_5795">
<rect width="266.728" height="198.712" fill="white" transform="translate(1.66028 0.0991211)"/>
</clipPath>
</defs>
</svg>
