<svg width="27" height="27" viewBox="0 0 27 27" fill="none" xmlns="http://www.w3.org/2000/svg">
<circle cx="13.4569" cy="13.7362" r="12.8578" fill="url(#paint0_linear_885_4218)"/>
<path d="M20.75 15.6875C20.75 15.8367 20.6907 15.9798 20.5852 16.0852C20.4798 16.1907 20.3367 16.25 20.1875 16.25H18.5V17.375H19.625C19.7742 17.375 19.9173 17.4343 20.0227 17.5398C20.1282 17.6452 20.1875 17.7883 20.1875 17.9375C20.1875 18.0867 20.1282 18.2298 20.0227 18.3352C19.9173 18.4407 19.7742 18.5 19.625 18.5H18.5V19.625C18.5 19.7742 18.4407 19.9173 18.3352 20.0227C18.2298 20.1282 18.0867 20.1875 17.9375 20.1875C17.7883 20.1875 17.6452 20.1282 17.5398 20.0227C17.4343 19.9173 17.375 19.7742 17.375 19.625V15.6875C17.375 15.5383 17.4343 15.3952 17.5398 15.2898C17.6452 15.1843 17.7883 15.125 17.9375 15.125H20.1875C20.3367 15.125 20.4798 15.1843 20.5852 15.2898C20.6907 15.3952 20.75 15.5383 20.75 15.6875ZM11.4688 17.0938C11.4688 17.6159 11.2613 18.1167 10.8921 18.4859C10.5229 18.8551 10.0221 19.0625 9.5 19.0625H8.9375V19.625C8.9375 19.7742 8.87824 19.9173 8.77275 20.0227C8.66726 20.1282 8.52418 20.1875 8.375 20.1875C8.22582 20.1875 8.08274 20.1282 7.97725 20.0227C7.87176 19.9173 7.8125 19.7742 7.8125 19.625V15.6875C7.8125 15.5383 7.87176 15.3952 7.97725 15.2898C8.08274 15.1843 8.22582 15.125 8.375 15.125H9.5C10.0221 15.125 10.5229 15.3324 10.8921 15.7016C11.2613 16.0708 11.4688 16.5716 11.4688 17.0938ZM10.3438 17.0938C10.3438 16.87 10.2549 16.6554 10.0966 16.4971C9.93839 16.3389 9.72378 16.25 9.5 16.25H8.9375V17.9375H9.5C9.72378 17.9375 9.93839 17.8486 10.0966 17.6904C10.2549 17.5321 10.3438 17.3175 10.3438 17.0938ZM16.5312 17.6562C16.5312 18.3276 16.2646 18.9714 15.7899 19.4461C15.3152 19.9208 14.6713 20.1875 14 20.1875H12.875C12.7258 20.1875 12.5827 20.1282 12.4773 20.0227C12.3718 19.9173 12.3125 19.7742 12.3125 19.625V15.6875C12.3125 15.5383 12.3718 15.3952 12.4773 15.2898C12.5827 15.1843 12.7258 15.125 12.875 15.125H14C14.6713 15.125 15.3152 15.3917 15.7899 15.8664C16.2646 16.3411 16.5312 16.9849 16.5312 17.6562ZM15.4062 17.6562C15.4062 17.2833 15.2581 16.9256 14.9944 16.6619C14.7306 16.3982 14.373 16.25 14 16.25H13.4375V19.0625H14C14.373 19.0625 14.7306 18.9143 14.9944 18.6506C15.2581 18.3869 15.4062 18.0292 15.4062 17.6562ZM7.8125 12.875V7.8125C7.8125 7.51413 7.93103 7.22798 8.142 7.017C8.35298 6.80603 8.63913 6.6875 8.9375 6.6875H15.6875C15.7614 6.68744 15.8346 6.70194 15.9029 6.73017C15.9711 6.7584 16.0332 6.79981 16.0855 6.85203L20.023 10.7895C20.0752 10.8418 20.1166 10.9039 20.1448 10.9721C20.1731 11.0404 20.1876 11.1136 20.1875 11.1875V12.875C20.1875 13.0242 20.1282 13.1673 20.0227 13.2727C19.9173 13.3782 19.7742 13.4375 19.625 13.4375C19.4758 13.4375 19.3327 13.3782 19.2273 13.2727C19.1218 13.1673 19.0625 13.0242 19.0625 12.875V11.75H15.6875C15.5383 11.75 15.3952 11.6907 15.2898 11.5852C15.1843 11.4798 15.125 11.3367 15.125 11.1875V7.8125H8.9375V12.875C8.9375 13.0242 8.87824 13.1673 8.77275 13.2727C8.66726 13.3782 8.52418 13.4375 8.375 13.4375C8.22582 13.4375 8.08274 13.3782 7.97725 13.2727C7.87176 13.1673 7.8125 13.0242 7.8125 12.875ZM16.25 10.625H18.2673L16.25 8.60773V10.625Z" fill="white"/>
<defs>
<linearGradient id="paint0_linear_885_4218" x1="13.4569" y1="0.878418" x2="13.4569" y2="26.594" gradientUnits="userSpaceOnUse">
<stop stop-color="#0026AA"/>
<stop offset="1" stop-color="#30CFFF"/>
</linearGradient>
</defs>
</svg>
