<svg width="27" height="27" viewBox="0 0 27 27" fill="none" xmlns="http://www.w3.org/2000/svg">
<path d="M13.7295 0.77832C11.1583 0.77832 8.64492 1.54076 6.50709 2.96922C4.36925 4.39767 2.703 6.428 1.71906 8.80344C0.735125 11.1789 0.477681 13.7927 0.979289 16.3145C1.4809 18.8363 2.71903 21.1526 4.53711 22.9707C6.35519 24.7888 8.67157 26.0269 11.1933 26.5285C13.7151 27.0301 16.3289 26.7727 18.7044 25.7888C21.0798 24.8048 23.1101 23.1386 24.5386 21.0007C25.9671 18.8629 26.7295 16.3495 26.7295 13.7783C26.7259 10.3316 25.3551 7.02714 22.9179 4.58995C20.4807 2.15277 17.1762 0.78196 13.7295 0.77832ZM10.4332 18.7783H17.0257C16.3545 21.0708 15.2295 23.1371 13.7295 24.7646C12.2295 23.1371 11.1045 21.0708 10.4332 18.7783ZM9.9795 16.7783C9.64784 14.7921 9.64784 12.7646 9.9795 10.7783H17.4795C17.8112 12.7646 17.8112 14.7921 17.4795 16.7783H9.9795ZM2.7295 13.7783C2.72863 12.7639 2.86872 11.7542 3.14575 10.7783H7.95325C7.65492 12.7672 7.65492 14.7894 7.95325 16.7783H3.14575C2.86872 15.8024 2.72863 14.7928 2.7295 13.7783ZM17.0257 8.77832H10.4332C11.1045 6.48582 12.2295 4.41957 13.7295 2.79207C15.2295 4.41957 16.3545 6.48582 17.0257 8.77832ZM19.5058 10.7783H24.3132C24.8683 12.7398 24.8683 14.8168 24.3132 16.7783H19.5058C19.8041 14.7894 19.8041 12.7672 19.5058 10.7783ZM23.5257 8.77832H19.097C18.5867 6.77021 17.7296 4.86663 16.5645 3.15332C18.0531 3.55335 19.4414 4.26047 20.6403 5.22923C21.8392 6.19799 22.8221 7.40693 23.5257 8.77832ZM10.8945 3.15332C9.72937 4.86663 8.87233 6.77021 8.362 8.77832H3.93325C4.63691 7.40693 5.61979 6.19799 6.81868 5.22923C8.01757 4.26047 9.40594 3.55335 10.8945 3.15332ZM3.93325 18.7783H8.362C8.87233 20.7864 9.72937 22.69 10.8945 24.4033C9.40594 24.0033 8.01757 23.2962 6.81868 22.3274C5.61979 21.3587 4.63691 20.1497 3.93325 18.7783ZM16.5645 24.4033C17.7296 22.69 18.5867 20.7864 19.097 18.7783H23.5257C22.8221 20.1497 21.8392 21.3587 20.6403 22.3274C19.4414 23.2962 18.0531 24.0033 16.5645 24.4033Z" fill="#002687"/>
</svg>
