<svg width="17" height="14" viewBox="0 0 17 14" fill="none" xmlns="http://www.w3.org/2000/svg">
<path d="M16.8086 6.42436L11.0812 0.696909C11.0011 0.616762 10.8991 0.562155 10.788 0.539996C10.6769 0.517836 10.5617 0.529119 10.457 0.572417C10.3524 0.615715 10.2629 0.689083 10.1999 0.783244C10.1369 0.877405 10.1033 0.988127 10.1032 1.10141V3.99019C8.24608 4.14913 6.19493 5.05836 4.50749 6.48951C2.47567 8.21347 1.21063 10.435 0.945015 12.7446C0.924259 12.9242 0.960666 13.1057 1.04906 13.2634C1.13745 13.421 1.27332 13.5468 1.43733 13.6228C1.60134 13.6988 1.78514 13.7211 1.96257 13.6865C2.14 13.652 2.30201 13.5624 2.42556 13.4305C3.21308 12.5921 6.01524 9.94101 10.1032 9.70761V12.5563C10.1033 12.6696 10.1369 12.7803 10.1999 12.8745C10.2629 12.9686 10.3524 13.042 10.457 13.0853C10.5617 13.1286 10.6769 13.1399 10.788 13.1177C10.8991 13.0956 11.0011 13.0409 11.0812 12.9608L16.8086 7.23336C16.9157 7.12599 16.9759 6.98052 16.9759 6.82886C16.9759 6.6772 16.9157 6.53173 16.8086 6.42436ZM11.2487 11.1738V9.11983C11.2487 8.96793 11.1883 8.82225 11.0809 8.71484C10.9735 8.60743 10.8278 8.54709 10.6759 8.54709C8.66561 8.54709 6.70754 9.07187 4.85614 10.1078C3.91322 10.6378 3.03468 11.2749 2.23799 12.0065C2.65323 10.2997 3.69992 8.67667 5.24848 7.36294C6.91087 5.95327 8.93981 5.11062 10.6759 5.11062C10.8278 5.11062 10.9735 5.05028 11.0809 4.94287C11.1883 4.83546 11.2487 4.68978 11.2487 4.53788V2.48459L15.5937 6.82886L11.2487 11.1738Z" fill="#002687"/>
</svg>
