<svg width="28" height="27" viewBox="0 0 28 27" fill="none" xmlns="http://www.w3.org/2000/svg">
<path d="M26.5635 25.0709L20.3047 18.8134C22.1188 16.6355 23.0234 13.8421 22.8303 11.0143C22.6372 8.18646 21.3614 5.54193 19.2682 3.63083C17.175 1.71972 14.4256 0.689179 11.5919 0.753579C8.75821 0.817979 6.05845 1.97236 4.05422 3.97659C2.05 5.98081 0.895615 8.68057 0.831215 11.5142C0.766816 14.3479 1.79736 17.0973 3.70846 19.1905C5.61957 21.2837 8.2641 22.5596 11.0919 22.7527C13.9197 22.9457 16.7131 22.0411 18.891 20.2271L25.1485 26.4859C25.2414 26.5788 25.3517 26.6525 25.4731 26.7028C25.5945 26.753 25.7246 26.7789 25.856 26.7789C25.9874 26.7789 26.1175 26.753 26.2389 26.7028C26.3603 26.6525 26.4706 26.5788 26.5635 26.4859C26.6564 26.393 26.7301 26.2826 26.7804 26.1613C26.8307 26.0399 26.8566 25.9098 26.8566 25.7784C26.8566 25.647 26.8307 25.5169 26.7804 25.3955C26.7301 25.2741 26.6564 25.1638 26.5635 25.0709ZM2.856 11.7784C2.856 9.99833 3.38384 8.25827 4.37277 6.77823C5.3617 5.29819 6.76731 4.14463 8.41185 3.46345C10.0564 2.78226 11.866 2.60403 13.6118 2.95129C15.3576 3.29856 16.9613 4.15573 18.22 5.4144C19.4786 6.67307 20.3358 8.27672 20.6831 10.0225C21.0303 11.7684 20.8521 13.578 20.1709 15.2225C19.4897 16.867 18.3362 18.2727 16.8561 19.2616C15.3761 20.2505 13.636 20.7784 11.856 20.7784C9.46986 20.7757 7.18221 19.8267 5.49496 18.1394C3.80771 16.4521 2.85864 14.1645 2.856 11.7784Z" fill="#002687" stroke="#002687" stroke-width="0.3"/>
</svg>
