<svg width="23" height="23" viewBox="0 0 23 23" fill="none" xmlns="http://www.w3.org/2000/svg">
<path d="M22.0589 21.4384L16.7688 16.1493C18.3021 14.3085 19.0667 11.9474 18.9035 9.55721C18.7403 7.16704 17.6619 4.93178 15.8927 3.31644C14.1234 1.70111 11.7995 0.830053 9.40436 0.884486C7.00924 0.938919 4.7273 1.91465 3.03325 3.60869C1.33921 5.30274 0.36348 7.58468 0.309046 9.9798C0.254613 12.3749 1.12567 14.6988 2.741 16.4681C4.35634 18.2374 6.5916 19.3157 8.98178 19.4789C11.372 19.6421 13.733 18.8775 15.5739 17.3442L20.8629 22.6344C20.9415 22.7129 21.0347 22.7752 21.1373 22.8177C21.2399 22.8602 21.3499 22.8821 21.4609 22.8821C21.572 22.8821 21.682 22.8602 21.7846 22.8177C21.8872 22.7752 21.9804 22.7129 22.0589 22.6344C22.1375 22.5558 22.1998 22.4626 22.2423 22.36C22.2848 22.2574 22.3066 22.1474 22.3066 22.0364C22.3066 21.9253 22.2848 21.8153 22.2423 21.7127C22.1998 21.6101 22.1375 21.5169 22.0589 21.4384ZM2.02047 10.203C2.02047 8.6985 2.46662 7.22773 3.3025 5.97675C4.13839 4.72576 5.32646 3.75073 6.71648 3.17497C8.1065 2.5992 9.63604 2.44855 11.1117 2.74208C12.5873 3.0356 13.9428 3.76011 15.0067 4.82399C16.0705 5.88786 16.7951 7.24333 17.0886 8.71897C17.3821 10.1946 17.2315 11.7241 16.6557 13.1142C16.0799 14.5042 15.1049 15.6923 13.8539 16.5282C12.6029 17.364 11.1322 17.8102 9.62761 17.8102C7.61075 17.8079 5.67715 17.0058 4.25102 15.5796C2.82489 14.1535 2.02271 12.2199 2.02047 10.203Z" fill="#B2B2B2"/>
</svg>
