<svg width="28" height="28" viewBox="0 0 28 28" fill="none" xmlns="http://www.w3.org/2000/svg">
<path d="M26.5633 25.2925L20.3045 19.035C22.1185 16.8572 23.0231 14.0638 22.83 11.236C22.637 8.40814 21.3611 5.76361 19.2679 3.85251C17.1747 1.9414 14.4253 0.910859 11.5916 0.975258C8.75797 1.03966 6.05821 2.19404 4.05398 4.19827C2.04975 6.20249 0.895371 8.90225 0.830971 11.7359C0.766571 14.5696 1.79711 17.319 3.70822 19.4122C5.61932 21.5054 8.26385 22.7813 11.0917 22.9743C13.9195 23.1674 16.7129 22.2628 18.8908 20.4488L25.1483 26.7075C25.2412 26.8005 25.3515 26.8742 25.4729 26.9244C25.5943 26.9747 25.7244 27.0006 25.8558 27.0006C25.9872 27.0006 26.1173 26.9747 26.2387 26.9244C26.36 26.8742 26.4703 26.8005 26.5633 26.7075C26.6562 26.6146 26.7299 26.5043 26.7801 26.3829C26.8304 26.2615 26.8563 26.1314 26.8563 26C26.8563 25.8686 26.8304 25.7385 26.7801 25.6171C26.7299 25.4958 26.6562 25.3855 26.5633 25.2925ZM2.85575 12C2.85575 10.22 3.38359 8.47995 4.37253 6.99991C5.36146 5.51987 6.76707 4.36631 8.4116 3.68513C10.0561 3.00394 11.8657 2.82571 13.6116 3.17297C15.3574 3.52024 16.961 4.37741 18.2197 5.63608C19.4784 6.89475 20.3356 8.4984 20.6828 10.2442C21.0301 11.9901 20.8519 13.7997 20.1707 15.4442C19.4895 17.0887 18.3359 18.4943 16.8559 19.4833C15.3758 20.4722 13.6358 21 11.8558 21C9.46962 20.9974 7.18197 20.0483 5.49472 18.3611C3.80746 16.6738 2.8584 14.3862 2.85575 12Z" fill="url(#paint0_linear_1_3889)" stroke="url(#paint1_linear_1_3889)" stroke-width="0.3"/>
<defs>
<linearGradient id="paint0_linear_1_3889" x1="13.8422" y1="0.972412" x2="13.8422" y2="27.0006" gradientUnits="userSpaceOnUse">
<stop stop-color="#0026AA"/>
<stop offset="1" stop-color="#30CFFF"/>
</linearGradient>
<linearGradient id="paint1_linear_1_3889" x1="13.8422" y1="0.972412" x2="13.8422" y2="27.0006" gradientUnits="userSpaceOnUse">
<stop stop-color="#0026AA"/>
<stop offset="1" stop-color="#30CFFF"/>
</linearGradient>
</defs>
</svg>
