<svg width="26" height="26" viewBox="0 0 26 26" fill="none" xmlns="http://www.w3.org/2000/svg">
<path d="M13 26C20.1797 26 26 20.1797 26 13C26 5.8203 20.1797 0 13 0C5.8203 0 0 5.8203 0 13C0 20.1797 5.8203 26 13 26Z" fill="url(#paint0_linear_918_3432)"/>
<path d="M13.3278 15.9117C13.9019 16.4859 13.9019 17.4701 13.3278 18.0442L12.1385 19.2335C11.5643 19.8076 10.5801 19.8076 10.006 19.2335L4.79779 13.9843C4.22365 13.4102 4.22365 12.4259 4.79779 11.8518L5.98706 10.6625C6.56119 10.0884 7.54542 10.0884 8.11955 10.6625L13.3278 15.9117Z" fill="white"/>
<path d="M17.8824 6.84857C18.4565 6.27444 19.4407 6.27444 20.0149 6.84857L21.2041 8.03784C21.7783 8.61197 21.7783 9.5962 21.2041 10.1703L12.1821 19.1514C11.6079 19.7255 10.6237 19.7255 10.0496 19.1514L8.86029 17.9621C8.28615 17.388 8.28615 16.4038 8.86029 15.8296L17.8824 6.84857Z" fill="white"/>
<defs>
<linearGradient id="paint0_linear_918_3432" x1="1.5" y1="2.63636e-07" x2="24" y2="23.5" gradientUnits="userSpaceOnUse">
<stop stop-color="#0126AB"/>
<stop offset="1" stop-color="#063DB6" stop-opacity="0.64"/>
</linearGradient>
</defs>
</svg>
