<svg width="22" height="20" viewBox="0 0 22 20" fill="none" xmlns="http://www.w3.org/2000/svg">
<g clip-path="url(#clip0_880_3553)">
<path d="M21.9985 0.77564C21.9014 0.0347829 20.32 0.482878 19.6437 0.8129C19.4783 0.893712 15.3991 3.00692 12.5758 5.89099C11.0368 7.46271 10.3522 8.6715 9.70328 10.3361C9.31048 9.87351 8.70055 9.27057 8.34142 8.95119C7.63585 8.3226 6.50577 7.61417 5.16002 6.95654C5.13269 6.94299 5.11513 6.93477 5.10781 6.9309C4.44176 6.582 3.61372 6.83508 3.26142 7.49513C2.90913 8.15566 3.16432 8.97684 3.83037 9.32622C4.41834 9.63495 6.11395 10.5868 6.88881 11.2773C7.731 12.0274 8.51513 13.4012 8.72397 13.8512C8.76008 14.0888 8.85913 14.3124 9.01088 14.5001C9.27145 14.8209 9.65936 15.0053 10.0751 15.0053H10.0902C10.6626 14.999 11.1627 14.6516 11.3647 14.1198C11.4033 14.0186 11.4296 13.9136 11.4433 13.8077C11.6526 12.9957 12.7324 8.942 14.9175 6.78572C17.2928 4.4417 19.125 3.17193 19.1577 3.1487C20.9499 1.88378 22.0473 1.15599 21.9976 0.776607L21.9985 0.77564Z" fill="#002687"/>
<path d="M5.6226 19.2429C2.52219 19.2429 0 16.7416 0 13.6669V5.81894C0 2.74422 2.52219 0.24292 5.6226 0.24292H13.5356C14.0914 0.24292 14.633 0.321796 15.1541 0.477613C14.4871 0.938774 13.8577 1.41058 13.275 1.88819H5.6226C3.43709 1.88819 1.65901 3.65154 1.65901 5.81894V13.6664C1.65901 15.8338 3.43709 17.5972 5.6226 17.5972H13.5356C15.7211 17.5972 17.4992 15.8338 17.4992 13.6664V7.15113C17.9998 6.73546 18.5551 6.31978 19.1582 5.90943V13.6669C19.1582 16.7416 16.636 19.2429 13.5356 19.2429H5.6226Z" fill="#2FCBFD"/>
</g>
<defs>
<clipPath id="clip0_880_3553">
<rect width="22" height="19" fill="white" transform="translate(0 0.24292)"/>
</clipPath>
</defs>
</svg>
