<svg width="59" height="55" viewBox="0 0 59 55" fill="none" xmlns="http://www.w3.org/2000/svg">
<path d="M0.761719 54.8422L5.41104 53.7438L2.13514 50.2666L0.761719 54.8422ZM6.38794 50.1102L9.94961 46.7547L9.38221 46.1524L5.82053 49.5079L6.38794 50.1102ZM13.5113 43.3993L17.073 40.0438L16.5056 39.4415L12.9439 42.797L13.5113 43.3993ZM20.6346 36.6884L24.1963 33.3329L23.6289 32.7306L20.0672 36.0861L20.6346 36.6884ZM27.758 29.9775L31.3197 26.622L30.7523 26.0198L27.1906 29.3752L27.758 29.9775ZM34.8814 23.2666L38.443 19.9111L37.8756 19.3089L34.3139 22.6643L34.8814 23.2666ZM42.0047 16.5557L45.5664 13.2002L44.999 12.598L41.4373 15.9534L42.0047 16.5557ZM49.1281 9.84479L52.6897 6.48935L52.1223 5.88707L48.5607 9.24252L49.1281 9.84479ZM56.2514 3.1339L58.0323 1.45617L57.4649 0.853892L55.684 2.53162L56.2514 3.1339Z" fill="url(#paint0_linear_885_4889)"/>
<defs>
<linearGradient id="paint0_linear_885_4889" x1="29.2551" y1="1.15503" x2="29.2551" y2="54.8422" gradientUnits="userSpaceOnUse">
<stop stop-color="#0026AA"/>
<stop offset="1" stop-color="#30CFFF"/>
</linearGradient>
</defs>
</svg>
