<svg width="99" height="49" viewBox="0 0 99 49" fill="none" xmlns="http://www.w3.org/2000/svg">
<g clip-path="url(#clip0_880_2602)">
<path d="M3.47205 24.6435V0.62545H8.5134V20.1425H19.7083V24.6435H3.47205Z" fill="#231F20"/>
<path d="M34.6191 0.22876C39.5182 0.22876 43.2459 2.93693 44.4445 6.09674C44.6036 6.51576 44.7001 7.25935 44.7001 7.25935L39.6689 7.80717C38.9985 5.98684 37.1042 4.76584 34.6191 4.76584C30.3243 4.76584 27.1993 8.11456 27.1993 12.6516C27.1993 17.1887 30.3226 20.5374 34.6191 20.5374C36.7843 20.5374 38.7006 19.6376 39.7298 18.7017V15.7857H33.4121V11.3929H44.7001V20.5752C42.2861 23.3126 38.9139 25.1123 34.6191 25.1123C27.697 25.1123 22.0174 20.2146 22.0174 12.6534C22.0174 5.09213 27.697 0.22876 34.6191 0.22876Z" fill="#231F20"/>
<path d="M60.0341 0.22876C64.9332 0.22876 68.6609 2.93693 69.8595 6.09674C70.0186 6.51576 70.1151 7.25935 70.1151 7.25935L65.0839 7.80717C64.4135 5.98684 62.5192 4.76584 60.0341 4.76584C55.7393 4.76584 52.6142 8.11456 52.6142 12.6516C52.6142 17.1887 55.7376 20.5374 60.0341 20.5374C62.1992 20.5374 64.1156 19.6376 65.1448 18.7017V15.7857H58.8271V11.3929H70.1151V20.5752C67.7011 23.3126 64.3289 25.1123 60.0341 25.1123C53.1119 25.1123 47.4324 20.2146 47.4324 12.6534C47.4324 5.09213 53.1119 0.22876 60.0341 0.22876Z" fill="#231F20"/>
<path d="M76.5547 24.1884C78.3293 24.1884 79.7678 22.7291 79.7678 20.929C79.7678 19.1289 78.3293 17.6696 76.5547 17.6696C74.7802 17.6696 73.3417 19.1289 73.3417 20.929C73.3417 22.7291 74.7802 24.1884 76.5547 24.1884Z" fill="#ED1C24"/>
<path d="M6.10782 47.334L6.18569 47.413V47.8303L6.10782 47.9196C5.90468 47.9196 5.52378 47.9059 4.96175 47.8801C4.4522 47.8544 3.92741 47.8406 3.38569 47.8406C2.67977 47.8406 1.89428 47.8664 1.02584 47.9196L0.947968 47.8303V47.413L1.02584 47.334C1.65897 47.2945 2.01786 47.2636 2.1025 47.2447C2.18715 47.2241 2.25994 47.1829 2.3175 47.1211C2.37675 47.0576 2.41737 46.9614 2.43938 46.8326C2.46139 46.7038 2.48848 46.2762 2.51725 45.5515C2.54603 44.8268 2.56127 44.279 2.56127 43.9081V40.0733L1.29839 40.142L1.21036 40.063V39.814L1.27977 39.7144L2.56296 39.0481V38.4522C2.56296 37.7893 2.59174 37.2879 2.65099 36.9479C2.71024 36.6061 2.81858 36.2919 2.97941 36.0034C3.13854 35.7149 3.41786 35.3508 3.81737 34.9112C4.2152 34.4715 4.56562 34.1092 4.86526 33.8276C5.1649 33.5459 5.42729 33.357 5.64906 33.2608C5.87082 33.1647 6.13152 33.1166 6.43285 33.1166C6.68001 33.1166 6.94918 33.1664 7.23527 33.266L7.22511 34.8957L6.99996 34.985C6.6343 34.6536 6.20939 34.4887 5.72693 34.4887C5.38666 34.4887 5.0938 34.5608 4.84494 34.7017C4.59609 34.8442 4.42681 35.076 4.33539 35.3972C4.24398 35.7183 4.19827 36.2507 4.19827 36.9908V39.0481H5.24615C5.78787 39.0481 6.30081 39.0275 6.78328 38.988L6.8713 39.0979L6.69525 39.972L6.60722 40.0716C6.41085 40.0648 6.28388 40.0613 6.22463 40.0613L4.95159 40.051H4.19827V44.054C4.19827 44.2652 4.21351 44.7512 4.24228 45.5086C4.27106 46.2676 4.29984 46.7124 4.32523 46.8446C4.35063 46.9769 4.39464 47.073 4.45728 47.1331C4.51991 47.1932 4.61979 47.2362 4.7603 47.2619C4.90081 47.2877 5.34942 47.3117 6.10613 47.3323L6.10782 47.334Z" fill="#231F20"/>
<path d="M7.81085 43.2915C7.81085 42.5033 7.96998 41.7443 8.28993 41.011C8.60988 40.2794 9.16684 39.6475 9.9591 39.1134C10.7531 38.581 11.6943 38.3131 12.7845 38.3131C14.1557 38.3131 15.2713 38.7527 16.133 39.6303C16.9946 40.5078 17.4263 41.6361 17.4263 43.0133C17.4263 44.5297 16.932 45.7782 15.9434 46.7588C14.9547 47.7393 13.7613 48.2288 12.3647 48.2288C11.4505 48.2288 10.6346 47.978 9.91678 47.4783C9.199 46.9786 8.66744 46.3672 8.32548 45.6459C7.98352 44.9247 7.81085 44.1399 7.81085 43.2915ZM9.66115 42.6063C9.66115 43.5337 9.77796 44.3631 10.0133 45.0947C10.2486 45.8263 10.621 46.4153 11.1289 46.8584C11.6384 47.3014 12.2191 47.5247 12.8725 47.5247C13.6428 47.5247 14.2793 47.2156 14.7821 46.5956C15.2849 45.9757 15.5354 45.0449 15.5354 43.7999C15.5354 42.39 15.2628 41.2342 14.7177 40.3327C14.1726 39.4328 13.3872 38.9811 12.363 38.9811C11.5148 38.9811 10.8512 39.292 10.3755 39.9154C9.89816 40.5387 9.66115 41.4352 9.66115 42.6081V42.6063Z" fill="#231F20"/>
<path d="M21.4824 38.3732L21.6687 38.502C21.5976 39.3693 21.5603 40.4718 21.5603 41.8095V44.1244C21.5603 44.9728 21.6246 45.5618 21.7516 45.8932C21.8786 46.2247 22.0986 46.4771 22.4135 46.654C22.7267 46.8292 23.0991 46.9167 23.5291 46.9167C24.0048 46.9167 24.4399 46.8223 24.8309 46.6334C25.222 46.4445 25.5504 46.1783 25.8145 45.8331C26.0786 45.4897 26.2309 45.2561 26.2699 45.1376C26.3088 45.0191 26.3342 44.6843 26.3477 44.1347L26.3765 43.0219V41.9486C26.3765 41.6842 26.363 41.3235 26.3376 40.865C26.3122 40.4065 26.2902 40.1266 26.2733 40.0201C26.2563 39.9136 26.2055 39.8364 26.1209 39.7866C26.0363 39.7368 25.867 39.7127 25.6113 39.7127L24.7886 39.7024L24.7006 39.6234V39.1958L24.7785 39.1168C26.0261 38.964 27.0757 38.7167 27.9323 38.3715L28.1185 38.5003C28.0474 39.3675 28.0101 40.47 28.0101 41.8078V43.556C28.0101 43.6556 28.0271 44.4662 28.0592 45.9894C28.0728 46.5527 28.1066 46.8944 28.1625 47.0181C28.2184 47.14 28.2945 47.2259 28.3927 47.2757C28.4909 47.3255 28.7804 47.3495 29.2645 47.3495H29.5388L29.6268 47.4285V47.8252L29.5489 47.9145C28.628 47.8613 28.0118 47.8355 27.6986 47.8355C27.3008 47.8355 26.8404 47.8578 26.3173 47.9042L26.2292 47.8252C26.2682 47.1503 26.297 46.5767 26.3173 46.1062C25.9059 46.4308 25.4353 46.8652 24.9071 47.4079C24.704 47.614 24.4145 47.7857 24.0353 47.9248C23.6561 48.0639 23.2261 48.1326 22.7419 48.1326C22.0106 48.1326 21.4418 48.0141 21.0338 47.7805C20.6259 47.5453 20.3364 47.2207 20.1671 46.8068C19.9978 46.393 19.9132 45.6786 19.9132 44.6654L19.9233 43.8806V41.9435C19.9233 41.679 19.9098 41.3184 19.8844 40.8599C19.8573 40.4031 19.837 40.1214 19.82 40.015C19.8031 39.9085 19.7523 39.8312 19.6677 39.7814C19.583 39.7316 19.4138 39.7076 19.1581 39.7076L18.3354 39.6973L18.2474 39.6183V39.1907L18.3252 39.1117C19.5729 38.9588 20.6225 38.7115 21.4791 38.3664L21.4824 38.3732Z" fill="#231F20"/>
<path d="M33.5373 38.3732L33.7235 38.502C33.6846 38.9451 33.6575 39.529 33.6457 40.2502C34.1671 39.8123 34.6648 39.3693 35.1337 38.9193C35.2708 38.794 35.3995 38.7012 35.5214 38.6411C35.6415 38.581 35.843 38.5192 36.124 38.4522C36.405 38.387 36.6928 38.3526 36.9857 38.3526C37.4817 38.3526 37.9642 38.4557 38.4297 38.66C38.8969 38.8661 39.249 39.1082 39.4877 39.3899C39.7264 39.6715 39.8906 40.0047 39.9821 40.3876C40.0735 40.7723 40.1192 41.2462 40.1192 41.8078V43.556C40.1192 43.6693 40.1361 44.4937 40.1683 46.0289C40.1818 46.6574 40.2495 47.0318 40.3731 47.152C40.4967 47.2705 40.9013 47.3306 41.5869 47.3306L41.6648 47.4096V47.8372L41.5869 47.9162C40.7574 47.863 40.197 47.8372 39.9025 47.8372C39.7332 47.8372 39.2558 47.863 38.472 47.9162L38.3552 47.8063C38.4399 46.9459 38.4822 45.8228 38.4822 44.4387V43.137C38.4822 42.3556 38.4636 41.7923 38.428 41.4489C38.3925 41.1054 38.2824 40.7912 38.0996 40.5095C37.9168 40.2279 37.6713 40.0098 37.3649 39.8535C37.0585 39.6973 36.6928 39.62 36.2679 39.62C35.9276 39.62 35.6382 39.6543 35.3961 39.7247C35.154 39.7951 34.8831 39.936 34.5835 40.1523C34.2839 40.367 34.0604 40.5696 33.9182 40.7585C33.7743 40.9474 33.688 41.1226 33.6592 41.2857C33.6304 41.4489 33.6152 41.7941 33.6152 42.3247V44.054C33.6152 44.2 33.6287 44.6688 33.6541 45.4605C33.6795 46.2522 33.7083 46.7141 33.7371 46.8463C33.7658 46.9786 33.8099 47.0747 33.8691 47.1348C33.9284 47.1949 33.9995 47.2327 34.0841 47.2499C34.1688 47.2671 34.5209 47.2945 35.1421 47.334L35.2302 47.413V47.8303L35.1523 47.9196C34.3363 47.8664 33.5492 47.8406 32.7925 47.8406C32.0357 47.8406 31.2587 47.8664 30.4428 47.9196L30.3547 47.8303V47.413L30.4428 47.334C31.0759 47.2945 31.4331 47.2636 31.5143 47.2447C31.5956 47.2241 31.6684 47.1829 31.7293 47.1211C31.792 47.0576 31.8343 46.9614 31.8563 46.8326C31.8783 46.7038 31.9054 46.2762 31.9342 45.5515C31.9629 44.8268 31.9782 44.279 31.9782 43.9081V41.9503C31.9782 41.6859 31.9646 41.3252 31.9392 40.8667C31.9122 40.4099 31.8918 40.1283 31.8749 40.0218C31.858 39.9154 31.8072 39.8381 31.7226 39.7883C31.6379 39.7385 31.4686 39.7144 31.213 39.7144L30.3903 39.7041L30.3022 39.6251V39.1975L30.3801 39.1185C31.6278 38.9657 32.6773 38.7184 33.5339 38.3732H33.5373Z" fill="#231F20"/>
<path d="M48.4532 34.3702V33.9529L48.5311 33.8636C49.7787 33.7176 50.83 33.4738 51.6849 33.1286L51.8711 33.2471C51.8 34.0096 51.7627 35.5363 51.7627 37.8271V44.3339C51.7627 45.0037 51.7746 45.5876 51.7966 46.0873C51.8186 46.587 51.8609 46.8841 51.9185 46.9768C51.9777 47.0696 52.0742 47.1451 52.208 47.2052C52.3417 47.2654 52.7226 47.3203 53.3489 47.3735L53.437 47.4525V47.8303L53.3489 47.9196C52.643 47.8733 52.0962 47.8492 51.7035 47.8492C51.3514 47.8492 50.8486 47.8716 50.1951 47.9196L50.0868 47.8097C50.1071 47.1606 50.1156 46.7072 50.1156 46.4479C50.1156 46.4153 50.119 46.2882 50.1257 46.0701C49.7668 46.3346 49.408 46.63 49.0491 46.9545C48.5209 47.4319 48.1739 47.729 48.0113 47.8492C47.7117 48.0021 47.2834 48.0776 46.7282 48.0776C45.8276 48.0776 45.0624 47.8527 44.4309 47.4027C43.8012 46.9528 43.3526 46.3775 43.0851 45.6786C42.8176 44.9796 42.6839 44.2635 42.6839 43.5285C42.6839 42.7935 42.8227 42.0602 43.1003 41.3682C43.378 40.6761 43.7724 40.1712 44.2854 39.8535C44.7983 39.5358 45.3569 39.2061 45.9596 38.8644C46.5639 38.5226 47.1632 38.3526 47.7574 38.3526C48.5869 38.3526 49.3758 38.5604 50.1274 38.9777L50.0885 36.7624C50.075 35.9948 50.0563 35.459 50.0292 35.1585C50.0038 34.8579 49.97 34.6776 49.9311 34.6227C49.8921 34.566 49.8244 34.5248 49.7296 34.499C49.6348 34.4733 49.2387 34.4595 48.5395 34.4595L48.4515 34.3702H48.4532ZM50.1274 40.6778C49.7228 40.2142 49.2742 39.8604 48.7816 39.6148C48.289 39.3693 47.7947 39.2473 47.2986 39.2473C46.7502 39.2473 46.2389 39.3984 45.7666 39.699C45.2926 40.0012 44.9523 40.4477 44.7441 41.0402C44.5359 41.6326 44.4309 42.2766 44.4309 42.9721C44.4309 44.1313 44.7204 45.0621 45.2977 45.7644C45.8749 46.4668 46.6012 46.8171 47.4764 46.8171C47.9538 46.8171 48.3753 46.7055 48.7444 46.484C49.1134 46.2625 49.4164 45.9619 49.6551 45.5841C49.8938 45.2063 50.0326 44.8285 50.0716 44.4524C50.1105 44.0763 50.1308 43.3826 50.1308 42.3762V40.6778H50.1274Z" fill="#231F20"/>
<path d="M56.1896 41.1054L55.807 41.0058L55.7291 40.9062V39.6749C56.8904 38.8008 58.0212 38.3629 59.1182 38.3629C59.8682 38.3629 60.4928 38.5055 60.9888 38.7905C61.4848 39.0756 61.8437 39.4311 62.0655 39.8587C62.2873 40.2863 62.399 40.7843 62.399 41.3544L62.3499 43.3516V46.3123C62.3499 46.7158 62.377 46.9614 62.4328 47.0473C62.4887 47.1331 62.5513 47.1915 62.6241 47.2207C62.6952 47.2499 62.829 47.2757 63.0253 47.2945L63.584 47.3443L63.6619 47.4336V47.8303L63.584 47.9093C63.1066 47.8698 62.6631 47.8492 62.2517 47.8492C61.8403 47.8492 61.39 47.8698 60.8415 47.9093L60.6943 47.7702L60.7332 46.1714L58.5985 47.8595C58.2396 48.0124 57.8469 48.0879 57.4237 48.0879C56.9006 48.0879 56.452 47.9918 56.0778 47.7994C55.7037 47.6071 55.4142 47.3392 55.2162 46.994C55.0164 46.6506 54.9182 46.2333 54.9182 45.7421C54.9182 44.7684 55.2179 44.0094 55.8188 43.4616C56.4198 42.9155 58.0585 42.4501 60.7349 42.0654C60.7349 41.0848 60.5199 40.3945 60.0882 39.9943C59.6582 39.5942 59.0793 39.3933 58.3547 39.3933C57.9755 39.3933 57.6319 39.45 57.3221 39.5616C57.0123 39.6749 56.8345 39.7659 56.7888 39.8346C56.7431 39.9033 56.5671 40.3103 56.2607 41.0522L56.1912 41.102L56.1896 41.1054ZM60.7332 42.675C58.9049 42.9859 57.7656 43.3207 57.3153 43.6779C56.865 44.0351 56.6399 44.5881 56.6399 45.3368C56.6399 46.3706 57.146 46.8858 58.1584 46.8858C59.0268 46.8858 59.8851 46.3758 60.7332 45.3557V42.6733V42.675Z" fill="#231F20"/>
<path d="M64.5912 40.0424V39.7848L64.6607 39.6852C65.2735 39.4534 65.7712 39.2387 66.1487 39.0395C66.1487 37.3102 66.1284 36.3039 66.0894 36.0188C66.7615 35.7801 67.3134 35.526 67.7451 35.2546L67.9804 35.4538C67.9143 35.8711 67.8365 37.0835 67.7451 39.0893C68.0718 39.0962 68.4239 39.0996 68.8031 39.0996C69.5734 39.0996 70.1252 39.079 70.4587 39.0395L70.5264 39.1099L70.3402 39.9445L70.2623 40.0338C69.9289 40.027 69.5598 40.0235 69.1552 40.0235C68.7896 40.0235 68.3189 40.027 67.7451 40.0338L67.6858 44.0763C67.6858 45.0106 67.7061 45.6219 67.7501 45.9087C67.7925 46.1972 67.9093 46.4222 68.1023 46.5836C68.2952 46.7467 68.5796 46.8274 68.9588 46.8274C69.3956 46.8274 69.8019 46.7124 70.1726 46.4805L70.4079 46.8377C70.2522 46.9511 69.8764 47.2808 69.2822 47.8321C68.9419 47.9918 68.5966 48.0708 68.2445 48.0708C66.775 48.0708 66.0403 47.3495 66.0403 45.9053C66.0403 45.3763 66.0539 44.9247 66.0793 44.5537C66.086 44.4404 66.0894 44.3254 66.0894 44.2069V40.0836H65.6882C65.3937 40.0836 65.0585 40.0974 64.6793 40.1231L64.5912 40.0441V40.0424Z" fill="#231F20"/>
<path d="M74.3354 38.3732L74.5216 38.502C74.4505 39.3692 74.4133 40.4718 74.4133 41.8095V44.054C74.4133 44.2 74.4268 44.6688 74.4522 45.4605C74.4776 46.2522 74.5064 46.7141 74.5352 46.8463C74.5639 46.9786 74.608 47.0747 74.6672 47.1348C74.7265 47.1949 74.7976 47.2327 74.8822 47.2499C74.9668 47.2671 75.319 47.2945 75.9402 47.334L76.0283 47.413V47.8303L75.9504 47.9196C75.1344 47.8664 74.3473 47.8406 73.5905 47.8406C72.8338 47.8406 72.0568 47.8664 71.2408 47.9196L71.1528 47.8303V47.413L71.2408 47.334C71.874 47.2945 72.2312 47.2636 72.3124 47.2447C72.3937 47.2241 72.4665 47.1829 72.5274 47.1211C72.5901 47.0576 72.6324 46.9614 72.6544 46.8326C72.6764 46.7038 72.7035 46.2762 72.7323 45.5515C72.761 44.8268 72.7763 44.279 72.7763 43.908V41.9503C72.7763 41.6859 72.7627 41.3252 72.7373 40.8667C72.7119 40.4099 72.6899 40.1283 72.673 40.0218C72.6561 39.9153 72.6053 39.8381 72.5207 39.7883C72.436 39.7385 72.2667 39.7144 72.0111 39.7144L71.1884 39.7041L71.1003 39.6251V39.1975L71.1782 39.1185C72.4259 38.9657 73.4771 38.7184 74.332 38.3732H74.3354ZM73.5025 33.9323C73.8089 33.9323 74.0696 34.0422 74.2863 34.2603C74.5013 34.4784 74.6097 34.7446 74.6097 35.0554C74.6097 35.3662 74.5013 35.6221 74.2863 35.8402C74.0713 36.0583 73.8089 36.1682 73.5025 36.1682C73.1961 36.1682 72.9422 36.06 72.7238 35.8454C72.5054 35.6307 72.3954 35.3662 72.3954 35.0554C72.3954 34.7446 72.5054 34.4801 72.7238 34.2603C72.9422 34.0422 73.2029 33.9323 73.5025 33.9323Z" fill="#231F20"/>
<path d="M77.1862 43.2915C77.1862 42.5033 77.3453 41.7443 77.6652 41.011C77.9852 40.2794 78.5421 39.6475 79.3344 39.1134C80.1284 38.581 81.0696 38.3131 82.1598 38.3131C83.531 38.3131 84.6466 38.7527 85.5083 39.6303C86.37 40.5078 86.8016 41.6361 86.8016 43.0133C86.8016 44.5297 86.3073 45.7782 85.3187 46.7588C84.3301 47.7393 83.1366 48.2288 81.74 48.2288C80.8258 48.2288 80.0099 47.978 79.2921 47.4783C78.5743 46.9786 78.0427 46.3672 77.7008 45.6459C77.3588 44.9247 77.1862 44.1399 77.1862 43.2915ZM79.0365 42.6063C79.0365 43.5337 79.1533 44.3631 79.3886 45.0947C79.6239 45.8263 79.9963 46.4153 80.5042 46.8584C81.0137 47.3014 81.5944 47.5247 82.2478 47.5247C83.0181 47.5247 83.6546 47.2156 84.1574 46.5956C84.6602 45.9757 84.9107 45.0449 84.9107 43.7999C84.9107 42.39 84.6382 41.2342 84.0931 40.3327C83.5479 39.4328 82.7625 38.9811 81.7383 38.9811C80.8902 38.9811 80.2265 39.292 79.7509 39.9154C79.2735 40.5387 79.0365 41.4352 79.0365 42.6081V42.6063Z" fill="#231F20"/>
<path d="M90.8172 38.3732L91.0034 38.502C90.9644 38.9451 90.9374 39.529 90.9255 40.2502C91.4469 39.8123 91.9446 39.3693 92.4135 38.9193C92.5507 38.794 92.6793 38.7012 92.8012 38.6411C92.9214 38.581 93.1228 38.5192 93.4039 38.4522C93.6849 38.387 93.9727 38.3526 94.2655 38.3526C94.7615 38.3526 95.244 38.4557 95.7095 38.66C96.1768 38.8661 96.5289 39.1082 96.7676 39.3899C97.0063 39.6715 97.1705 40.0047 97.2619 40.3876C97.3533 40.7723 97.399 41.2462 97.399 41.8078V43.556C97.399 43.6693 97.4159 44.4937 97.4481 46.0289C97.4617 46.6574 97.5294 47.0318 97.653 47.152C97.7765 47.2705 98.1811 47.3306 98.8667 47.3306L98.9446 47.4096V47.8372L98.8667 47.9162C98.0372 47.863 97.4769 47.8372 97.1823 47.8372C97.013 47.8372 96.5357 47.863 95.7519 47.9162L95.6351 47.8063C95.7197 46.9459 95.762 45.8228 95.762 44.4387V43.137C95.762 42.3556 95.7434 41.7923 95.7079 41.4489C95.6723 41.1054 95.5623 40.7912 95.3794 40.5095C95.1966 40.2279 94.9511 40.0098 94.6447 39.8535C94.3383 39.6973 93.9727 39.62 93.5478 39.62C93.2075 39.62 92.918 39.6543 92.6759 39.7247C92.4338 39.7951 92.163 39.936 91.8634 40.1523C91.5637 40.367 91.3403 40.5696 91.1981 40.7585C91.0542 40.9474 90.9678 41.1226 90.939 41.2857C90.9103 41.4489 90.895 41.7941 90.895 42.3247V44.054C90.895 44.2 90.9086 44.6688 90.934 45.4605C90.9594 46.2522 90.9881 46.7141 91.0169 46.8463C91.0457 46.9786 91.0897 47.0747 91.149 47.1348C91.2082 47.1949 91.2793 47.2327 91.364 47.2499C91.4486 47.2671 91.8007 47.2945 92.422 47.334L92.51 47.413V47.8303L92.4322 47.9196C91.6162 47.8664 90.829 47.8406 90.0723 47.8406C89.3156 47.8406 88.5386 47.8664 87.7226 47.9196L87.6346 47.8303V47.413L87.7226 47.334C88.3557 47.2945 88.7129 47.2636 88.7942 47.2447C88.8754 47.2241 88.9482 47.1829 89.0092 47.1211C89.0718 47.0576 89.1141 46.9614 89.1361 46.8326C89.1582 46.7038 89.1852 46.2762 89.214 45.5515C89.2428 44.8268 89.258 44.279 89.258 43.9081V41.9503C89.258 41.6859 89.2445 41.3252 89.2191 40.8667C89.192 40.4099 89.1717 40.1283 89.1548 40.0218C89.1378 39.9154 89.087 39.8381 89.0024 39.7883C88.9178 39.7385 88.7485 39.7144 88.4929 39.7144L87.6701 39.7041L87.5821 39.6251V39.1975L87.66 39.1185C88.9076 38.9657 89.9572 38.7184 90.8138 38.3732H90.8172Z" fill="#231F20"/>
</g>
<defs>
<clipPath id="clip0_880_2602">
<rect width="98" height="48" fill="white" transform="translate(0.946289 0.22876)"/>
</clipPath>
</defs>
</svg>
