<svg width="253" height="52" viewBox="0 0 253 52" fill="none" xmlns="http://www.w3.org/2000/svg">
<g clip-path="url(#clip0_1_3701)">
<path d="M79.365 0C77.8742 0 76.5901 0.464945 75.52 1.39483C74.4425 2.32472 73.9111 3.50554 73.9111 4.93727C73.9111 5.89668 74.1694 6.76015 74.6787 7.52768C75.1879 8.2952 75.8595 8.90775 76.686 9.36531C77.5126 9.82288 78.4056 10.059 79.365 10.059C80.3835 10.059 81.3207 9.82288 82.1547 9.35793C82.996 8.88561 83.675 8.2583 84.2063 7.47602C84.7377 6.69373 85.0034 5.80812 85.0034 4.82657C85.0034 3.41697 84.4646 2.26568 83.3798 1.36531C82.2949 0.464945 80.9591 0.0147601 79.365 0.0147601V0Z" fill="#E6E6E6"/>
<path d="M123.373 28.5536H125.89V16.2805L118.037 22.5536H120.163C120.591 22.5536 120.893 22.6569 121.063 22.8709" fill="#E6E6E6"/>
<path d="M130.878 37.9336L128.76 45.0701C128.657 45.417 128.509 45.69 128.318 45.8819C128.126 46.0738 127.853 46.1771 127.506 46.1771H110.62V35.1144L101.336 42.524V45.0111C101.336 45.4612 101.21 45.8229 100.952 46.0959C100.694 46.3764 100.384 46.5756 100.015 46.6937L95.7861 48.1033V50.2804H133.786V37.9336H130.871H130.878Z" fill="#E6E6E6"/>
<path d="M111.543 4.04428H125.432L126.03 3.46125L126.052 4.06642C126.333 4.09594 126.561 4.1845 126.716 4.36162C126.901 4.57565 127.056 4.84871 127.174 5.17343L129.381 11.4908H132.296V0H96.7163V2.17712L100.945 3.5572C101.314 3.66052 101.624 3.84502 101.882 4.12546C102.141 4.39852 102.266 4.76015 102.266 5.21033V26.6642L104.281 22.0812L107.794 22.5609L110.451 18.2362L111.845 13.3432L111.55 4.05166L111.543 4.04428Z" fill="#E6E6E6"/>
<path d="M111.543 27.7269L118.03 22.5535H111.543V27.7269Z" fill="#E6E6E6"/>
<path d="M11.9634 24.9299L9.40254 24.8045L10.2143 23.786L11.1811 23.7343L13.0704 22.9521L13.9782 22.8561L14.9893 24.0664L16.1332 24.5904L16.849 26.2362C20.6941 27.0628 24.3841 27.8819 24.3841 27.8819L22.0667 24.8045L26.6645 26.6273L27.8011 25.8303C27.8011 25.8303 29.3952 26.214 30.1627 26.155C29.8084 25.7934 29.469 25.4096 29.0631 25.0923C27.7937 24.1107 26.4579 23.3358 25.0483 22.7602C23.2918 22.0443 21.6682 21.4908 20.1922 21.0923C18.7088 20.6937 17.1959 20.2288 15.6387 19.6974C13.4763 18.9373 11.9782 18.0148 11.1442 16.9078C10.3177 15.8008 9.90439 14.4871 9.90439 12.9521C9.90439 11.5203 10.5169 10.214 11.742 9.03323C12.9671 7.84504 14.6941 7.25463 16.9228 7.25463C17.6608 7.25463 18.5243 7.35057 19.528 7.54984C20.5243 7.74172 21.5059 8.0074 22.4505 8.33213C23.4025 8.65685 24.1479 9.01847 24.7014 9.40962C24.9228 9.57198 25.1738 9.786 25.4468 10.0517C25.7273 10.3174 25.9118 10.5904 26.0151 10.8783L28.1922 16.5166H31.0114V4.90039C29.8232 4.55353 28.48 4.23618 26.9819 3.9336C25.4837 3.6384 23.897 3.39486 22.2291 3.19559C20.5686 3.00371 18.8859 2.90039 17.1885 2.90039C14.3103 2.90039 11.6535 3.46128 9.2328 4.58305C6.81213 5.70482 4.87856 7.23249 3.42468 9.16607C1.97081 11.0997 1.24756 13.2989 1.24756 15.7712C1.24756 18.3838 1.94867 20.6864 3.36564 22.6642C3.63132 23.0406 5.14424 19.8746 5.44682 20.214C6.73095 21.0259 9.32874 24.6273 13.1959 25.4465L13.5797 24.9594" fill="#E6E6E6"/>
<path d="M24.3616 40.8413C24.3616 42.7822 23.6236 44.3984 22.155 45.6973C20.6863 46.9962 18.7454 47.6457 16.3321 47.6457C15.4908 47.6457 14.4797 47.5055 13.2841 47.2324C12.0886 46.9593 10.893 46.5756 9.69742 46.0959C8.50185 45.6162 7.47601 45.0996 6.61993 44.5534C6.39852 44.4132 6.13284 44.1844 5.83764 43.8745C5.54244 43.5719 5.34317 43.2767 5.23985 42.9889L2.87823 36.9815H0L0.523985 49.2988C2.0369 49.7638 3.61624 50.2066 5.27675 50.6125C6.92989 51.0258 8.60517 51.3505 10.3026 51.6088C12 51.8671 13.631 51.9925 15.203 51.9925C19.4096 51.9925 22.8561 51.3357 25.5277 50.0147C28.1993 48.701 30.1771 46.9962 31.4391 44.9003C32.7011 42.8044 33.3358 40.6051 33.3358 38.2951C33.3358 37.6235 33.203 36.4132 33.1218 35.8007L31.0111 36.8634L29.3506 37.2029L28.6937 39.0331L25.8819 39.7342L24.679 38.2139" fill="#E6E6E6"/>
<path d="M63.72 43.2178C62.8565 43.6458 61.8381 44.0222 60.6868 44.3395C59.5355 44.6569 58.2071 44.8119 56.7163 44.8119C55.2255 44.8119 54.0447 44.6421 52.9451 44.3322C53.3953 45.2325 53.6979 45.8377 53.6979 45.8377C53.6979 45.8377 45.1148 39.8082 44.1259 40.62C42.6868 41.7934 42.1776 41.2621 42.1776 41.2621L40.0595 41.3654C40.1407 41.5277 39.3436 42.6938 39.4322 42.8488C40.7827 45.2325 42.6425 47.0407 45.0263 48.2731C47.4027 49.5056 50.1407 50.1255 53.2182 50.1255C56.0595 50.1255 58.6868 49.5573 61.0927 48.4281C63.506 47.2916 65.4617 46.1255 66.9746 44.9226V42.0739H65.9635C65.3288 42.3986 64.5835 42.775 63.7126 43.2104L63.72 43.2178Z" fill="#E6E6E6"/>
<path d="M65.4539 21.2029C64.3912 19.3431 62.8487 17.8302 60.8266 16.6642C58.8044 15.4981 56.3543 14.9225 53.476 14.9225C50.1845 14.9225 47.3432 15.6826 44.9447 17.2029C42.5461 18.7232 40.6864 20.7306 39.3801 23.2251C38.0738 25.7195 37.417 28.4575 37.417 31.4391C37.417 31.9705 37.4613 32.4649 37.4982 32.9741C39.4391 32.9741 40.155 31.0037 40.155 31.0037L41.262 30.6568C41.262 30.6568 43.4096 31.5277 46.6864 33.2472C46.5757 32.4797 46.5388 31.6457 46.5166 30.8044H66.8413C66.8856 30.583 66.9151 30.2288 66.9447 29.7491C66.9742 29.2694 67.0037 28.7749 67.0258 28.2657C67.048 27.7564 67.0554 27.3727 67.0554 27.1291C67.0554 25.0479 66.524 23.0775 65.4613 21.2177L65.4539 21.2029ZM46.6199 27.5129C46.6642 26.9668 46.6568 26.4133 46.7306 25.8745C46.9151 24.5166 47.2399 23.2767 47.7122 22.1623C48.1845 21.0479 48.834 20.155 49.6605 19.4834C50.4871 18.8118 51.5572 18.4723 52.8635 18.4723C54.1698 18.4723 55.262 18.8561 56.0222 19.6384C56.7823 20.4133 57.3063 21.476 57.6163 22.8265C57.9262 24.1697 58.0738 25.7343 58.0738 27.5129H46.6273H46.6199Z" fill="#E6E6E6"/>
<path d="M38.8118 36.1624L38.7085 35.299C38.7085 35.299 36.2288 35.3211 36 35.4244C36.9151 36.3617 37.7565 37.3875 38.4133 38.6052L40.679 36.037C39.5941 36.406 38.8192 36.1698 38.8192 36.1698L38.8118 36.1624Z" fill="#E6E6E6"/>
<path d="M3.43866 24.1254C3.54198 24.2066 3.99954 24.4575 4.67851 24.8044C4.44235 24.5756 4.20618 24.3468 3.99216 24.0959C3.56412 24.0443 3.34272 24.0443 3.43866 24.1181V24.1254Z" fill="#E6E6E6"/>
<path d="M80.6793 40.3247L81.1664 38.214L82.849 39.2029L84.1774 39.3431V15.6014L70.48 17.4686V19.3653L73.7272 20.5904C74.3176 20.8192 74.7457 21.0848 75.0114 21.4022C75.2771 21.7195 75.4099 22.1254 75.4099 22.6125V41.7933C75.4099 42.2435 75.2844 42.5978 75.0261 42.8487C74.7678 43.0996 74.4505 43.3062 74.0593 43.4465L70.3472 44.6716V46.7823H73.6534L72.7457 45.262L78.9892 39.69L80.6719 40.3173L80.6793 40.3247Z" fill="#E6E6E6"/>
<path d="M83.9412 45.7196L79.5132 46.7897H89.0187V44.679L86.7752 43.9041L83.9412 45.7196Z" fill="#E6E6E6"/>
<path d="M168.103 43.4834C167.734 43.3431 167.424 43.1365 167.166 42.8708C166.907 42.6051 166.782 42.214 166.782 41.7048V25.7417C166.782 23.1882 166.339 21.1217 165.461 19.5424C164.582 17.9557 163.387 16.797 161.874 16.0664C160.361 15.3284 158.678 14.9668 156.819 14.9668C155.734 14.9668 154.642 15.0848 153.527 15.321C152.413 15.5572 151.291 16.0516 150.154 16.8044C149.018 17.5572 147.874 18.7232 146.708 20.2952H146.553L145.608 13.9557L141.667 22.428L143.498 16.8265L135.35 20.0073L136.405 20.4206C136.959 20.642 137.38 20.9151 137.66 21.2177C137.94 21.5203 138.088 21.9335 138.088 22.4428V41.8376C138.088 42.2878 137.963 42.642 137.704 42.9077C137.446 43.1734 137.136 43.3653 136.767 43.4907L133.49 44.6863V46.797H150.649V44.6863L148.169 43.4907C147.8 43.3284 147.49 43.1291 147.232 42.893C146.974 42.6568 146.848 42.3026 146.848 41.8376V22.9889C147.601 21.8228 148.516 21.1144 149.594 20.8561C150.664 20.5978 151.689 20.4723 152.671 20.4723C154.206 20.4723 155.35 20.7896 156.103 21.4169C156.856 22.0516 157.357 22.9963 157.601 24.2509C157.844 25.5055 157.97 27.0553 157.97 28.893V41.7048C157.97 42.214 157.837 42.6051 157.571 42.8708C157.306 43.1365 157.011 43.3431 156.678 43.4834L153.83 44.6789V46.7896H170.959V44.6789L168.081 43.4834H168.103Z" fill="#E6E6E6"/>
<path d="M206.007 9.09949C206.007 8.67145 206.14 8.3172 206.406 8.02938C206.672 7.74156 206.989 7.54968 207.351 7.44636L211.646 6.06628V3.88916H191.085V6.06628L195.41 7.44636C195.757 7.52754 196.059 7.71204 196.325 7.99986C196.59 8.28768 196.723 8.65669 196.723 9.09949V21.0774L206.007 24.9667V9.09949Z" fill="#E6E6E6"/>
<path d="M196.716 45.1955C196.716 45.6457 196.598 46.0073 196.362 46.2804C196.126 46.5609 195.801 46.7601 195.395 46.8782L191.07 48.2878V50.4649H211.631V48.2878L207.336 46.8782C206.952 46.7601 206.628 46.5609 206.369 46.2952C206.111 46.0295 205.985 45.6605 205.985 45.1955V43.9704L205.402 41.7564L201.343 41.7048L198.746 40.4797L196.701 37.3431V45.1955H196.716Z" fill="#E6E6E6"/>
<path d="M250.679 37.4169C249.742 38.2361 248.738 39.0184 247.676 39.7785C246.613 40.5313 245.403 41.1439 244.059 41.6014C242.709 42.059 241.159 42.2952 239.403 42.2952C234.849 42.2952 231.351 40.7453 228.923 37.6531C226.487 34.5608 225.277 30.1107 225.277 24.3099C225.277 18.5092 226.332 14.4723 228.45 11.594C230.561 8.71582 233.38 7.2767 236.893 7.2767C238.347 7.2767 239.705 7.46859 240.967 7.85973C242.229 8.24349 243.425 8.76748 244.554 9.42431C244.879 9.58667 245.174 9.77855 245.439 9.99257C245.705 10.2066 245.89 10.4797 245.993 10.8044L248.045 16.3542H250.864V5.33574C249.801 4.96674 248.406 4.6125 246.679 4.26563C244.952 3.91877 243.181 3.61619 241.366 3.35788C239.543 3.09958 237.904 2.97412 236.428 2.97412C232.406 2.97412 228.797 3.91139 225.609 5.77855C222.421 7.65309 219.897 10.2656 218.037 13.6383C216.177 17.011 215.248 20.9372 215.248 25.4317C215.248 26.6789 215.321 27.8671 215.454 29.0184C215.506 29.0479 215.565 29.0701 215.609 29.107L239.248 45.9852C239.72 46.3173 240.074 46.7453 240.362 47.2177C241.1 47.0553 241.845 46.8929 242.569 46.642C244.583 45.9262 246.428 45.0627 248.118 44.0516C249.801 43.0405 251.211 42.0516 252.332 41.0922V37.4169H250.679Z" fill="#E6E6E6"/>
<path d="M212.288 30.0368L217.1 33.225L221.44 38.332L226.421 40.2287L229.632 43.7711L237.204 48.2287C235.89 48.5239 234.562 48.7231 233.204 48.7231C228.931 48.7231 225.218 47.8228 222.052 46.0294C218.886 44.2287 216.436 41.6678 214.702 38.3394C213.432 35.9113 212.643 33.1438 212.303 30.0368C212.097 29.904 211.883 29.7711 211.654 29.6752" fill="#E6E6E6"/>
</g>
<defs>
<clipPath id="clip0_1_3701">
<rect width="252.339" height="52" fill="white"/>
</clipPath>
</defs>
</svg>
