<svg width="66" height="66" viewBox="0 0 66 66" fill="none" xmlns="http://www.w3.org/2000/svg">
<path d="M65.7292 32.8906C65.7292 50.7994 51.2108 65.3193 33.3005 65.3193C24.2349 65.3193 16.0367 61.5983 10.1539 55.6013C4.71863 50.0622 1.25504 42.5822 0.902542 34.2962C0.882065 33.8296 0.871826 33.3616 0.871826 32.8906C0.871826 28.5816 1.71286 24.47 3.23841 20.7095C4.2769 18.147 5.63425 15.7482 7.26073 13.5615C7.81362 12.817 8.39868 12.0974 9.013 11.4041C9.29676 11.0823 9.58637 10.7678 9.88329 10.4592C15.7851 4.29701 24.0945 0.461914 33.3005 0.461914C39.8094 0.461914 45.8692 2.378 50.9475 5.67923C52.2025 6.49393 53.396 7.39347 54.5223 8.37053C54.5223 8.37053 54.5252 8.37053 54.5267 8.37492C54.5413 8.38662 54.5574 8.39978 54.572 8.41295C54.5837 8.42318 54.5969 8.43635 54.61 8.44659C54.7227 8.54458 54.8338 8.64405 54.945 8.74351C59.3096 12.6561 62.6064 17.736 64.3455 23.4915H64.347C64.6103 24.3647 64.8384 25.2526 65.0271 26.1536C65.1924 26.9302 65.3284 27.7157 65.4352 28.5114C65.4352 28.5128 65.4352 28.5143 65.4367 28.5158C65.5083 29.0511 65.5683 29.5894 65.6122 30.132C65.6312 30.3485 65.6473 30.565 65.6619 30.7829C65.6838 31.1252 65.6999 31.4689 65.7116 31.8141C65.7233 32.171 65.7292 32.5308 65.7292 32.8906Z" fill="url(#paint0_radial_885_4375)" stroke="#231F20" stroke-width="0.282935" stroke-miterlimit="10"/>
<path d="M48.7243 47.8876C48.4084 49.4877 47.4138 49.9543 47.4035 49.9602C47.3962 49.9543 47.1549 50.2205 47.1534 50.184C47.073 50.4546 47.1651 50.7734 47.1534 50.9797C47.1388 51.2517 47.3816 51.3892 47.4562 51.6159C47.6419 52.1805 47.1519 52.5535 47.1783 53.0727C47.1987 53.475 47.405 53.7221 47.5264 53.8333C47.9169 54.1931 48.5795 53.687 48.7916 53.0581C48.9671 52.5403 49.2099 49.8066 49.1368 49.065C49.2348 49.065 49.3313 49.065 49.4293 49.0694C49.4483 49.0694 49.4747 49.0694 49.4937 49.0709C49.3006 48.6789 49.188 48.4536 48.8589 47.8145C48.8135 47.8379 48.7682 47.8627 48.7228 47.8861L48.7243 47.8876Z" fill="url(#paint1_radial_885_4375)" stroke="#231F20" stroke-width="0.141468" stroke-miterlimit="10"/>
<path d="M29.3776 25.3008C30.087 25.3754 29.7506 24.5534 29.5268 24.1058C29.303 23.6582 30.087 22.9474 30.7598 22.6944C31.4327 22.4399 31.5819 22.2014 32.6174 21.7729C33.653 21.3443 32.2547 21.3429 31.6565 21.2668C31.0582 21.1922 31.4327 20.9304 31.32 20.2956C31.2074 19.6608 30.5361 19.4736 30.125 19.3624C29.714 19.2498 29.0427 18.615 29.0427 18.615C29.0427 18.615 28.9301 18.8022 28.8935 19.2498C28.8555 19.6974 28.8935 19.2498 29.3045 20.183C29.7155 21.1161 29.3045 20.183 28.7823 20.0338C28.2602 19.8846 28.7077 20.221 28.7443 20.5194C28.7809 20.8178 29.0807 21.2288 28.6317 21.2288C28.1826 21.2288 28.6317 21.2288 28.7063 21.9762C28.7809 22.7236 28.5936 22.573 27.9588 22.8962C27.3241 23.2195 27.4732 23.0966 26.3719 23.9552C25.2705 24.8138 25.4197 25.4485 25.5323 26.0468C25.6449 26.645 26.3909 25.7104 27.6605 25.3374C28.9301 24.9644 28.6682 25.2248 29.3776 25.2994V25.3008Z" fill="url(#paint2_radial_885_4375)" stroke="#231F20" stroke-width="0.141468" stroke-miterlimit="10"/>
<path d="M54.7226 11.0474C54.7226 11.9938 54.474 10.9977 54.1259 10.6379C53.7763 10.2781 53.9255 10.1011 53.8757 9.30538C53.826 8.50823 52.7305 9.90215 52.3326 9.30538C51.9348 8.70715 51.4857 8.20985 51.1874 7.9612C50.889 7.71108 49.2947 7.66135 49.2947 7.51216C49.2947 7.36297 49.3444 7.01485 49.7934 6.96512C50.241 6.91539 50.4399 6.96512 50.8392 6.96512C51.123 6.96512 50.9197 6.22063 50.9475 5.67944C52.2024 6.49415 53.396 7.39368 54.5222 8.37074C54.2824 8.1806 54.1419 8.43364 54.7226 9.30538C55.3208 10.202 54.7226 10.1011 54.7226 11.0474Z" fill="url(#paint3_radial_885_4375)" stroke="#231F20" stroke-width="0.141468" stroke-miterlimit="10"/>
<path d="M54.9451 8.74345C54.8441 8.67617 54.714 8.54599 54.6101 8.44653C54.7227 8.54453 54.8339 8.64399 54.9451 8.74345Z" fill="url(#paint4_radial_885_4375)" stroke="#231F20" stroke-width="0.141468" stroke-miterlimit="10"/>
<path d="M20.1978 22.0219C20.2621 22.0438 20.3309 22.0511 20.4011 22.0277C20.1407 21.9019 19.9155 21.801 19.8936 21.7922C19.9096 21.8113 20.0369 21.9663 20.1978 22.0219Z" fill="url(#paint5_radial_885_4375)" stroke="#231F20" stroke-width="0.282935" stroke-miterlimit="10"/>
<path d="M65.4367 28.5156C65.4367 28.5156 65.4352 28.5127 65.4352 28.5112C65.4001 28.2465 64.5825 28.2757 63.6859 28.4747C62.7893 28.6736 63.0877 27.9774 63.1067 27.8779C63.1242 27.7784 62.2422 27.5781 61.8429 27.4786C61.4451 27.3791 62.0916 26.8818 62.4412 26.7326C62.7893 26.5834 63.5367 26.2339 64.3821 26.2426C64.6293 26.2441 64.8355 26.2105 65.0272 26.1534L64.347 23.4928H64.3456C64.3456 23.4928 63.7854 22.8478 63.487 22.6942C63.427 22.662 63.3275 22.6796 63.2003 22.7264L63.2442 22.5962C63.2412 22.5787 63.2383 22.5538 63.2369 22.5348C63.193 22.5026 63.1686 22.4885 63.1637 22.4924L63.1067 22.6489C63.1067 22.6489 63.114 22.7015 63.1213 22.7571C62.5991 22.9794 61.6908 23.6055 60.8966 23.7941C59.8508 24.0428 60.3993 23.1476 59.902 22.4295C59.4032 21.7113 60.0512 21.802 60.0512 21.4042C60.0512 21.0063 59.7016 20.8571 59.6021 20.1097C59.5027 19.3623 59.9517 19.3125 60.2501 18.6163C60.5485 17.9186 59.8011 17.7694 59.6021 16.867C59.4032 15.9645 59.4032 15.9762 59.4032 15.7773C59.4032 15.5784 57.9098 15.5784 57.7109 15.1308C57.5105 14.6818 57.3116 14.7315 56.6739 14.3336C56.0362 13.9358 55.9177 14.5823 55.9177 14.5823C55.9177 14.5823 55.6193 14.3834 55.3707 14.2839C55.1205 14.1845 55.0708 14.6818 54.828 15.28C54.5852 15.8768 54.474 15.1308 54.2254 14.3834C53.9753 13.636 54.2254 14.3834 53.279 15.0811C52.9894 15.2946 52.8534 15.4043 52.7964 15.4555C52.8198 15.4233 52.83 15.3794 52.7305 15.3794C52.4322 15.3794 52.1338 14.7812 52.2025 14.2342C52.2698 13.6872 52.283 13.1884 52.4819 12.6999C52.6808 12.2113 53.0304 12.7408 53.7266 12.6999C54.4243 12.6589 54.7724 11.9934 54.8222 11.6453C54.8719 11.2957 54.6262 11.4288 54.025 11.872C53.4253 12.3152 53.478 11.9437 52.83 11.4449C52.1835 10.9447 52.0343 11.5955 51.1874 11.8442C50.7779 11.9641 50.4517 11.6745 50.2221 11.344C50.3025 11.1012 50.364 10.9183 50.3903 10.8364C50.5409 10.3757 50.2908 10.5 49.8038 9.73504C49.3167 8.97007 49.618 9.54197 48.1963 9.70286C46.7746 9.86375 47.5527 10.051 47.054 9.80232C46.5567 9.55367 46.6064 9.85205 45.3895 10.1797C44.1725 10.5059 44.5148 10.4005 44.5148 10.8364C44.5148 11.2723 43.9677 11.1962 43.1706 11.246C42.3734 11.2957 42.3237 10.6989 41.7269 10.0875C41.1287 9.47761 41.2794 9.35474 40.8801 8.90571C40.4822 8.45813 40.5817 8.55759 40.4822 8.4084C40.3828 8.25921 41.0293 7.66098 41.0293 7.66098C41.0293 7.66098 41.3788 6.81556 42.8722 6.56545C44.3656 6.3168 42.6733 5.96868 42.4246 6.01841C42.1745 6.06814 42.4246 6.01841 41.0293 6.11787C39.6353 6.21733 41.0293 6.11787 39.9835 6.56545C38.9391 7.01449 39.7348 6.56545 39.1878 7.16368C38.6393 7.76044 39.4364 8.06029 39.2375 8.85598C39.0386 9.65313 38.0425 8.65706 37.2951 8.15975C36.5491 7.66098 37.0962 8.15975 36.748 9.20555C36.3985 10.2514 36.1498 9.30501 34.5599 8.70679C32.9685 8.11002 34.1591 8.80625 33.0636 9.55367C32.9744 9.61364 32.8969 9.6619 32.8281 9.7014C32.0441 10.1387 32.4537 9.2509 32.3162 9.20555C32.167 9.15582 32.1173 8.95544 32.0675 8.4084C32.0178 7.86137 31.9681 8.11002 31.6448 7.41233C31.3216 6.7161 31.3201 7.11395 29.6278 7.06422C27.934 7.01449 29.3777 6.61518 29.3777 6.41626C29.3777 6.21733 30.0256 5.6703 31.2704 5.62057C32.5151 5.57084 30.324 4.97261 29.5283 5.27099C28.7312 5.57084 29.0793 5.62057 28.6815 6.41626C28.2822 7.21341 28.4328 7.56152 28.0335 8.21972C27.6357 8.87792 27.7849 8.45813 26.7888 9.35474C25.7927 10.2514 26.1423 8.85598 25.4446 8.95544C24.7469 9.05636 24.8478 9.40447 24.1004 10.0875C23.353 10.7721 22.4066 9.40447 22.4578 10.0875C22.5076 10.7721 20.6646 10.3011 20.2668 10.44C19.8675 10.5805 19.221 10.3011 18.8714 9.85205C18.5233 9.40448 18.3244 9.10609 17.7773 9.15582C17.2288 9.20555 16.7315 8.70679 16.4814 8.4084C16.2327 8.11002 15.636 8.20948 15.4868 8.4084C15.3361 8.60879 14.2406 8.60733 13.8428 8.4084C13.4449 8.20948 13.4946 8.70679 12.8964 9.45421C12.2996 10.2016 12.6478 9.75259 11.5025 10.4049C10.5328 10.9578 10.5269 10.6068 9.88333 10.4591C9.58641 10.7677 9.2968 11.0821 9.01305 11.4039C9.16809 11.4069 9.31289 11.4025 9.41089 11.3966C9.82775 11.3688 10.7551 11.4961 10.407 11.8939C10.0589 12.2918 10.0091 12.2918 8.46601 13.1387C7.66301 13.5789 7.41875 13.6096 7.26078 13.5614C5.6343 15.748 4.27695 18.1468 3.23846 20.7094C3.54123 21.2696 3.86887 21.4159 3.98588 21.802C4.138 22.3008 4.50512 22.5377 4.6002 22.9853C4.69527 23.4329 4.2828 23.645 4.23307 25.1383C4.18334 26.6332 4.53145 25.7863 4.55485 26.8321C4.57826 27.8779 4.38226 27.6278 4.08388 27.9774C3.78549 28.3255 4.23307 28.3752 4.61775 28.8228C5.00243 29.2703 4.33253 29.3713 4.61775 29.4707C4.68211 29.4927 4.7333 29.5322 4.77279 29.576C4.79473 29.6346 4.82398 29.7004 4.86055 29.7691C4.86933 29.8817 4.81521 29.9871 4.68064 30.0178C4.4042 30.0836 5.12383 30.793 5.12383 30.793L5.17941 32.8904C5.42514 33.5369 3.3072 33.0118 2.98834 33.6262C2.54077 34.4862 1.69243 34.3063 0.902588 34.2961C1.25509 42.582 4.71867 50.0621 10.1539 55.6012C10.9174 54.7411 11.4294 53.6734 11.602 52.7241C11.8974 51.0977 13.1816 52.4945 14.4878 51.6988L17.8768 47.4951C19.414 45.6887 18.279 43.7478 16.4317 43.4377C16.5004 43.2549 16.5692 43.0706 16.6364 42.8863C15.4839 41.9692 14.8184 41.0638 14.3415 41.6942C13.8662 41.7118 10.1583 37.4627 11.2612 33.888C11.2977 33.7724 11.4615 33.6891 11.5464 33.6042C11.308 33.4594 11.0184 33.2093 10.856 32.984C10.9101 32.8495 10.9818 32.6725 11.0344 32.5379C9.51474 32.6403 8.47479 30.7959 6.80735 31.498C6.75031 31.7305 6.66986 32.0392 6.60697 32.2688C6.50605 32.2322 6.37294 32.184 6.27202 32.1474C6.32468 31.849 6.47923 31.4575 6.73568 30.9729C6.74885 30.869 5.62114 30.0178 5.12822 29.5775C5.10482 29.557 5.09311 29.5292 5.09311 29.4971C5.09311 29.1811 6.10235 28.3474 6.37441 28.0768C6.67279 27.7784 7.37048 27.5283 7.32075 26.9813C7.27102 26.4328 6.62306 26.5834 5.96632 25.9852C5.31105 25.3884 6.29981 25.9048 6.74739 25.3563C7.19496 24.8092 7.42606 24.9891 7.92337 25.1881C8.42213 25.3884 8.85801 25.2071 8.85801 25.2071C8.85801 25.2071 8.89457 23.9931 7.46994 23.1476C7.01505 22.8771 6.07456 24.1481 5.62699 21.7347C5.47194 20.9025 7.12036 20.607 7.37048 20.4081C7.61913 20.2092 9.21197 19.4617 9.90966 20.2092C10.6059 20.9566 10.5064 20.5573 11.6517 22.1018C12.797 23.645 12.2002 23.5952 13.0456 25.1881C13.8925 26.7824 13.793 26.0349 14.1411 26.0847C14.4907 26.1344 15.8349 25.1383 16.2825 24.9891C16.7315 24.8399 17.5272 25.3884 18.0757 25.2875C18.6227 25.1881 20.0664 26.3333 20.217 26.2836C20.3662 26.2339 20.7143 25.7863 21.0127 26.0349C21.3111 26.2836 21.9591 26.8321 21.9591 26.8321C21.9591 26.8321 22.4066 25.5874 22.6568 25.1881C22.9054 24.7902 23.6016 24.6908 24.1501 23.6947C24.6972 22.6986 24.3491 22.7981 24.6474 22.4895C24.9473 22.1808 25.3451 22.4002 25.8424 22.4895C26.3412 22.5787 25.8922 21.7025 25.7927 21.255C25.6932 20.8074 26.6893 20.9068 27.1384 20.7079C27.5859 20.5075 27.4865 20.2092 27.8346 19.8113C28.1827 19.412 27.8843 19.1136 27.8346 18.7158C27.7848 18.3165 27.4865 17.9186 27.3373 17.9903C27.1881 18.0634 27.1881 16.9723 27.3373 16.8231C27.4865 16.6739 28.2822 16.6739 28.6317 16.475C28.9798 16.2761 27.8346 15.9265 27.5859 15.4789C27.3373 15.0313 27.8843 14.5326 28.0832 13.9855C28.2822 13.437 29.2285 13.0889 30.324 12.498C31.4196 11.9071 30.7731 12.1426 31.4693 11.9934C32.167 11.8442 32.0675 11.7447 32.0675 10.8364C32.0675 9.92811 33.4117 10.0012 34.1079 10.6375C34.8056 11.2738 34.6067 11.2957 35.2971 12.2962C35.9889 13.2952 35.8017 12.3912 36.4599 13.0889C37.1181 13.7866 37.0962 13.6872 38.142 14.7812C38.5252 15.1835 38.708 15.3443 38.8265 15.3985C38.7826 15.6866 38.7855 15.906 38.7811 16.0918C38.7768 16.2761 38.7651 16.4253 38.6905 16.5744C38.5398 16.8728 38.3906 16.7734 38.5398 17.6202C38.689 18.4671 39.239 19.0142 38.8396 19.2131C38.4403 19.412 38.0922 19.5627 37.7441 20.3086C37.3945 21.056 37.3448 21.3544 37.3448 22.1516C37.3448 22.9487 36.1469 23.8175 36.0504 24.1481C36.0284 24.2242 35.9407 24.3397 35.8222 24.4714C35.1303 24.4509 34.1577 24.5021 33.909 24.837C33.6106 25.2378 33.0621 25.5376 32.9875 25.9355C32.9129 26.3333 32.4654 27.031 32.1173 27.031C31.7691 27.031 31.5688 26.7824 31.4196 27.5283C31.2704 28.2757 31.5161 28.8564 30.9574 29.3172C30.3986 29.7794 30.6721 30.1743 30.2246 30.3951C29.777 30.616 29.5283 31.9602 29.7273 32.2586C29.9262 32.5584 29.837 33.1054 29.6571 33.1552C29.4786 33.2049 29.7273 34.1513 29.7273 34.1513C30.2553 34.8241 29.7521 35.0479 31.1958 34.8241C32.6394 34.5988 32.2928 33.7037 33.3005 33.18C34.3083 32.6579 34.5116 32.9065 34.6842 33.3292C34.8554 33.7534 33.8842 34.6983 34.9797 34.1513C36.0752 33.6042 35.9158 32.4312 36.4599 33.3044C37.004 34.1776 36.9718 34.2507 37.1956 34.4994C37.4194 34.7495 37.8684 34.9411 38.3657 35.1195C38.8631 35.2965 38.3043 34.4306 40.1838 34.8241C42.0619 35.2161 39.8343 35.826 42.6733 35.3623C42.7698 35.3462 42.8634 35.3316 42.9541 35.3185C43.0521 35.453 43.1326 35.5452 43.1326 35.5452C43.1326 35.5452 41.079 36.2429 40.2336 36.0937C39.3867 35.9445 38.7387 35.4457 37.494 35.7938C36.2493 36.1434 37.0962 36.1434 36.4599 36.6407C35.8236 37.1395 34.9051 36.5412 33.909 36.3686C32.9129 36.1961 32.7638 35.0479 32.6146 35.0669C32.4654 35.0859 31.8189 35.4457 31.1212 35.1195C30.4235 34.7919 30.4732 35.2965 29.2212 35.8947C27.9691 36.4915 28.4825 36.591 28.1827 36.591C27.8828 36.591 27.2378 36.8396 27.0872 37.3384C26.938 37.8357 26.192 39.2793 25.8424 40.3749C25.4943 41.4704 26.192 41.7703 26.7946 42.6654C27.3987 43.562 28.2324 43.1642 28.582 43.6615C28.9301 44.1603 28.582 43.6615 28.9301 44.3094C29.2782 44.9559 28.9301 44.3094 30.1748 43.6951C31.4196 43.0823 31.2206 44.1602 31.8686 43.8107C32.5151 43.4626 32.7638 43.9101 32.9875 45.0554C33.2113 46.2007 34.4078 44.6576 34.4078 44.6576L34.557 45.5542C34.7062 46.4508 34.557 45.5542 35.2342 47.2962C35.9114 49.0397 35.0543 47.7452 35.4039 48.4912C35.752 49.2386 35.4039 48.4912 36.1001 49.3381C36.7978 50.185 36.0504 50.4833 35.9509 50.8856C35.8514 51.2863 35.553 51.6783 35.2971 52.0659C35.0426 52.4535 35.6028 52.5749 36.0884 52.7739C36.574 52.9728 36.1498 53.6207 36.1001 53.9542C36.0504 54.2877 36.1498 54.2175 36.4599 54.7163C36.77 55.2136 36.8475 55.0644 37.1459 55.7109C37.4443 56.3589 36.947 56.1102 37.1459 56.3574C37.3448 56.6031 37.3448 56.707 37.3448 57.1063C37.3448 57.5056 37.1459 58.0014 37.1459 58.2018C37.1459 58.4022 37.5935 58.5996 37.8933 58.6494C38.1917 58.6991 37.8933 58.6494 38.2911 58.3013C38.689 57.9517 39.4861 58.5997 39.6353 58.5997C39.7845 58.5997 40.6314 58.0014 40.6314 58.0014C40.6314 58.0014 41.528 57.4047 41.7269 57.3052C41.9259 57.2057 42.1248 56.3588 42.3734 55.961C42.6236 55.5617 42.8225 55.6612 43.1326 55.4622C43.4441 55.2633 43.3198 54.8655 43.1326 54.5656C42.9453 54.2672 43.5699 53.9542 43.5699 53.9542C43.5699 53.9542 43.9677 53.7202 43.9751 53.4204C43.9824 53.122 43.8683 52.7739 43.7688 52.376C43.7396 52.259 43.6723 52.1859 43.5933 52.1391C43.744 52.1098 43.8932 52.0147 43.9751 51.7778C44.1813 51.181 44.2164 51.3799 44.465 50.8856C44.7137 50.3897 45.1627 50.3341 45.9102 49.4375C46.6561 48.5409 45.8604 48.7398 45.6103 48.4415C46.1925 49.1391 45.0135 47.9939 44.9141 47.2465C44.7459 45.9915 44.664 46.8501 44.6142 45.405C44.5645 43.9599 45.8341 43.2636 46.1837 43.0647C46.5318 42.8643 46.8053 41.1223 47.1198 40.5753C47.4328 40.0268 47.503 39.6787 47.503 39.3788C47.503 39.079 47.1052 37.786 47.503 36.8894C47.9008 35.9942 47.3538 35.8435 47.1198 35.3155C46.8858 34.786 46.2583 35.6944 45.9102 35.3623C45.8502 35.3053 45.7654 35.2351 45.66 35.1576C45.7961 35.1137 45.9043 35.0186 46.0535 34.8241C46.6064 34.1015 46.9326 32.9021 47.386 33.67C47.8379 34.4365 47.2119 33.4009 48.8764 33.2283C50.5409 33.0557 50.8686 31.9046 51.401 33.0279C51.9349 34.1513 51.4419 33.8046 52.7642 34.3034C54.085 34.8007 54.7242 34.5374 54.7973 35.3155C54.8719 36.0937 54.7812 36.5603 55.5198 36.2926C56.257 36.0249 57.063 36.2531 56.4662 34.4555C56.1064 33.376 55.2639 32.6959 54.9172 32.0699C55.1293 31.9924 55.3282 31.9046 55.4701 31.811C55.9777 31.4746 56.6651 31.2142 57.2121 30.793C57.7606 30.3732 57.2619 29.3713 57.2121 29.3172C57.1624 29.2645 57.4608 27.5283 57.4608 27.5283C57.4608 27.5283 57.6115 27.9276 57.6612 28.226C57.7109 28.5244 58.4569 28.4249 58.7553 28.3255C59.0551 28.226 58.8064 27.7784 58.8064 27.2797C58.8064 26.7809 59.0054 27.6278 59.4529 27.9774C59.902 28.3255 60.8966 28.2757 61.3456 28.3752C61.7932 28.4747 61.7932 29.2221 61.9424 29.6199C62.0916 30.0178 63.1374 29.5205 63.5864 29.3991C64.034 29.2777 64.5313 29.6697 65.0301 29.968C65.169 30.0529 65.3782 30.1041 65.6122 30.1319C65.5683 29.5892 65.5084 29.051 65.4367 28.5156ZM21.5729 24.5723C21.4793 24.6849 20.9571 25.0769 20.9571 25.0769C20.9571 25.0769 20.5096 25.5435 20.0986 25.5245C19.6876 25.5055 19.6685 25.0579 19.5003 24.8151C19.3321 24.5723 18.3624 24.5533 18.1942 24.5723C18.1942 24.5723 18.0816 24.1613 19.0893 24.2549C20.0986 24.3485 19.5193 24.2549 20.1351 24.1613C20.7524 24.0677 21.6665 24.4597 21.5729 24.5723ZM26.5767 20.2589C25.9419 20.2589 25.5324 20.4827 25.0087 20.1477C24.4865 19.8113 24.33 20.3335 23.3442 20.6699C22.3569 21.0063 21.9839 21.3793 21.4983 21.3793C21.0127 21.3793 21.4237 22.6489 21.1999 22.4631C21.08 22.3622 20.7143 22.1779 20.4013 22.0272C20.3311 22.0507 20.2624 22.0433 20.198 22.0214C20.0371 21.9658 19.9099 21.8108 19.8938 21.7918C19.9157 21.8005 20.141 21.9015 20.4013 22.0272C20.5622 21.9731 20.7246 21.7567 20.827 21.1921C21.0873 19.7367 21.4618 20.0717 21.611 19.4003C21.7601 18.7275 21.0873 18.5607 22.0966 17.9903C23.1043 17.4213 22.8425 16.1883 23.5519 17.3467C24.2628 18.5037 24.1501 18.8021 24.5231 18.9147C24.8976 19.0273 25.8307 18.8401 26.0545 19.1019C26.2783 19.3623 27.2129 20.2589 26.5767 20.2589Z" fill="url(#paint6_radial_885_4375)"/>
<path d="M20.4013 22.0272C20.7143 22.1779 21.08 22.3622 21.1999 22.4631C21.4237 22.6489 21.0127 21.3793 21.4983 21.3793C21.9839 21.3793 22.3569 21.0063 23.3442 20.6699C24.33 20.3335 24.4865 19.8113 25.0087 20.1477C25.5324 20.4827 25.9419 20.2589 26.5767 20.2589C27.213 20.2589 26.2783 19.3623 26.0545 19.1019C25.8307 18.8401 24.8976 19.0273 24.5231 18.9147C24.1501 18.8021 24.2628 18.5037 23.5519 17.3467C22.8425 16.1883 23.1043 17.4213 22.0966 17.9903C21.0873 18.5607 21.7601 18.7275 21.611 19.4003C21.4618 20.0717 21.0873 19.7367 20.827 21.1921C20.7246 21.7567 20.5622 21.9731 20.4013 22.0272ZM20.4013 22.0272C20.3311 22.0507 20.2624 22.0433 20.198 22.0214C20.0371 21.9658 19.9099 21.8108 19.8938 21.7918C19.9157 21.8005 20.141 21.9015 20.4013 22.0272ZM65.4367 28.5156C65.4367 28.5156 65.4352 28.5127 65.4352 28.5112C65.4001 28.2465 64.5825 28.2757 63.6859 28.4747C62.7893 28.6736 63.0877 27.9774 63.1067 27.8779C63.1242 27.7784 62.2422 27.5781 61.8429 27.4786C61.4451 27.3791 62.0916 26.8818 62.4412 26.7326C62.7893 26.5834 63.5367 26.2339 64.3821 26.2426C64.6293 26.2441 64.8355 26.2105 65.0271 26.1534L64.347 23.4928H64.3455C64.3455 23.4928 63.7853 22.8478 63.487 22.6942C63.427 22.662 63.3275 22.6796 63.2003 22.7264L63.2442 22.5962C63.2412 22.5787 63.2383 22.5538 63.2369 22.5348C63.193 22.5026 63.1686 22.4885 63.1637 22.4924L63.1067 22.6489C63.1067 22.6489 63.114 22.7015 63.1213 22.7571C62.5991 22.9794 61.6908 23.6055 60.8966 23.7941C59.8508 24.0428 60.3993 23.1476 59.902 22.4295C59.4032 21.7113 60.0512 21.802 60.0512 21.4042C60.0512 21.0063 59.7016 20.8571 59.6021 20.1097C59.5027 19.3623 59.9517 19.3125 60.2501 18.6163C60.5485 17.9186 59.8011 17.7694 59.6021 16.867C59.4032 15.9645 59.4032 15.9762 59.4032 15.7773C59.4032 15.5784 57.9098 15.5784 57.7109 15.1308C57.5105 14.6818 57.3116 14.7315 56.6739 14.3336C56.0362 13.9358 55.9177 14.5823 55.9177 14.5823C55.9177 14.5823 55.6193 14.3834 55.3707 14.2839C55.1205 14.1845 55.0708 14.6818 54.828 15.28C54.5852 15.8768 54.474 15.1308 54.2254 14.3834C53.9753 13.636 54.2254 14.3834 53.279 15.0811C52.9894 15.2946 52.8534 15.4043 52.7964 15.4555C52.8198 15.4233 52.83 15.3794 52.7305 15.3794C52.4322 15.3794 52.1338 14.7812 52.2025 14.2342C52.2698 13.6871 52.283 13.1884 52.4819 12.6999C52.6808 12.2113 53.0304 12.7408 53.7266 12.6999C54.4243 12.6589 54.7724 11.9934 54.8222 11.6453C54.8719 11.2957 54.6262 11.4288 54.025 11.872C53.4253 12.3152 53.478 11.9437 52.83 11.4449C52.1835 10.9447 52.0343 11.5955 51.1874 11.8442C50.7779 11.9641 50.4517 11.6745 50.2221 11.344C50.3025 11.1012 50.364 10.9183 50.3903 10.8364C50.5409 10.3757 50.2908 10.5 49.8038 9.73504C49.3167 8.97007 49.618 9.54197 48.1963 9.70286C46.7746 9.86375 47.5527 10.051 47.054 9.80232C46.5567 9.55367 46.6064 9.85205 45.3894 10.1797C44.1725 10.5059 44.5148 10.4005 44.5148 10.8364C44.5148 11.2723 43.9677 11.1962 43.1706 11.246C42.3734 11.2957 42.3237 10.6989 41.7269 10.0875C41.1287 9.47761 41.2794 9.35474 40.8801 8.90571C40.4822 8.45813 40.5817 8.55759 40.4822 8.4084C40.3828 8.25921 41.0293 7.66098 41.0293 7.66098C41.0293 7.66098 41.3788 6.81556 42.8722 6.56545C44.3656 6.3168 42.6733 5.96868 42.4246 6.01841C42.1745 6.06814 42.4246 6.01841 41.0293 6.11787C39.6353 6.21733 41.0293 6.11787 39.9835 6.56545C38.9391 7.01449 39.7348 6.56545 39.1878 7.16368C38.6393 7.76044 39.4364 8.06029 39.2375 8.85598C39.0386 9.65313 38.0425 8.65706 37.2951 8.15975C36.5491 7.66098 37.0962 8.15975 36.748 9.20555C36.3985 10.2514 36.1498 9.30501 34.5599 8.70679C32.9685 8.11002 34.1591 8.80625 33.0636 9.55367C32.9744 9.61364 32.8969 9.6619 32.8281 9.7014C32.0441 10.1387 32.4537 9.2509 32.3162 9.20555C32.167 9.15582 32.1173 8.95544 32.0675 8.4084C32.0178 7.86137 31.9681 8.11002 31.6448 7.41233C31.3216 6.7161 31.3201 7.11395 29.6278 7.06422C27.934 7.01449 29.3777 6.61518 29.3777 6.41626C29.3777 6.21733 30.0256 5.6703 31.2704 5.62057C32.5151 5.57084 30.324 4.97261 29.5283 5.27099C28.7312 5.57084 29.0793 5.62057 28.6815 6.41626C28.2822 7.21341 28.4328 7.56152 28.0335 8.21972C27.6357 8.87792 27.7849 8.45813 26.7888 9.35474C25.7927 10.2514 26.1423 8.85598 25.4446 8.95544C24.7469 9.05636 24.8478 9.40447 24.1004 10.0875C23.353 10.7721 22.4066 9.40447 22.4578 10.0875C22.5076 10.7721 20.6646 10.3011 20.2668 10.44C19.8675 10.5805 19.221 10.3011 18.8714 9.85205C18.5233 9.40448 18.3244 9.10609 17.7773 9.15582C17.2288 9.20555 16.7315 8.70679 16.4814 8.4084C16.2327 8.11002 15.636 8.20948 15.4868 8.4084C15.3361 8.60879 14.2406 8.60733 13.8428 8.4084C13.4449 8.20948 13.4946 8.70679 12.8964 9.45421C12.2996 10.2016 12.6478 9.75259 11.5025 10.4049C10.5328 10.9578 10.5269 10.6068 9.88333 10.4591C9.58641 10.7677 9.2968 11.0821 9.01305 11.4039C9.16809 11.4069 9.31289 11.4025 9.41089 11.3966C9.82775 11.3688 10.7551 11.4961 10.407 11.8939C10.0589 12.2918 10.0091 12.2918 8.46601 13.1387C7.66301 13.5789 7.41875 13.6096 7.26078 13.5614C5.6343 15.748 4.27695 18.1468 3.23846 20.7094C3.54123 21.2696 3.86887 21.4159 3.98588 21.802C4.138 22.3008 4.50512 22.5377 4.6002 22.9853C4.69527 23.4329 4.2828 23.645 4.23307 25.1383C4.18334 26.6332 4.53145 25.7863 4.55485 26.8321C4.57826 27.8779 4.38226 27.6278 4.08388 27.9774C3.78549 28.3255 4.23307 28.3752 4.61775 28.8228C5.00243 29.2703 4.33253 29.3713 4.61775 29.4707C4.68211 29.4927 4.7333 29.5322 4.77279 29.576C4.79473 29.6346 4.82398 29.7004 4.86055 29.7691C4.86933 29.8817 4.81521 29.9871 4.68064 30.0178C4.4042 30.0836 5.12383 30.793 5.12383 30.793L5.17941 32.8904C5.42514 33.5369 3.3072 33.0118 2.98834 33.6262C2.54077 34.4862 1.69243 34.3063 0.902588 34.2961C1.25509 42.582 4.71867 50.0621 10.1539 55.6012C10.9174 54.7411 11.4294 53.6734 11.602 52.7241C11.8974 51.0977 13.1816 52.4945 14.4878 51.6988L17.8768 47.4951C19.414 45.6887 18.279 43.7478 16.4317 43.4377C16.5004 43.2549 16.5692 43.0706 16.6364 42.8863C15.4839 41.9692 14.8184 41.0638 14.3415 41.6942C13.8662 41.7118 10.1583 37.4627 11.2612 33.888C11.2977 33.7724 11.4615 33.6891 11.5464 33.6042C11.308 33.4594 11.0184 33.2093 10.856 32.984C10.9101 32.8495 10.9818 32.6725 11.0344 32.5379C9.51474 32.6403 8.47479 30.7959 6.80735 31.498C6.75031 31.7305 6.66986 32.0392 6.60697 32.2688C6.50605 32.2322 6.37294 32.184 6.27202 32.1474C6.32468 31.849 6.47923 31.4575 6.73568 30.9729C6.74885 30.869 5.62114 30.0178 5.12822 29.5775C5.10482 29.557 5.09311 29.5292 5.09311 29.4971C5.09311 29.1811 6.10235 28.3474 6.37441 28.0768C6.67279 27.7784 7.37048 27.5283 7.32075 26.9813C7.27102 26.4328 6.62306 26.5834 5.96632 25.9852C5.31105 25.3884 6.29981 25.9048 6.74738 25.3563C7.19496 24.8092 7.42606 24.9891 7.92337 25.1881C8.42213 25.3884 8.85801 25.2071 8.85801 25.2071C8.85801 25.2071 8.89457 23.9931 7.46994 23.1476C7.01505 22.8771 6.07456 24.1481 5.62699 21.7347C5.47194 20.9025 7.12036 20.607 7.37048 20.4081C7.61913 20.2092 9.21197 19.4617 9.90966 20.2092C10.6059 20.9566 10.5064 20.5573 11.6517 22.1018C12.797 23.645 12.2002 23.5952 13.0456 25.1881C13.8925 26.7824 13.793 26.0349 14.1411 26.0847C14.4907 26.1344 15.8349 25.1383 16.2825 24.9891C16.7315 24.8399 17.5272 25.3884 18.0757 25.2875C18.6227 25.1881 20.0664 26.3333 20.217 26.2836C20.3662 26.2339 20.7143 25.7863 21.0127 26.0349C21.3111 26.2836 21.9591 26.8321 21.9591 26.8321C21.9591 26.8321 22.4066 25.5874 22.6568 25.1881C22.9054 24.7902 23.6016 24.6908 24.1501 23.6947C24.6972 22.6986 24.3491 22.7981 24.6474 22.4895C24.9473 22.1808 25.3451 22.4002 25.8424 22.4895C26.3412 22.5787 25.8922 21.7025 25.7927 21.255C25.6932 20.8074 26.6893 20.9068 27.1384 20.7079C27.5859 20.5075 27.4865 20.2092 27.8346 19.8113C28.1827 19.412 27.8843 19.1136 27.8346 18.7158C27.7848 18.3165 27.4865 17.9186 27.3373 17.9903C27.1881 18.0634 27.1881 16.9723 27.3373 16.8231C27.4865 16.6739 28.2822 16.6739 28.6317 16.475C28.9798 16.2761 27.8346 15.9265 27.5859 15.4789C27.3373 15.0313 27.8843 14.5326 28.0832 13.9855C28.2822 13.437 29.2285 13.0889 30.324 12.498C31.4196 11.9071 30.7731 12.1426 31.4693 11.9934C32.167 11.8442 32.0675 11.7447 32.0675 10.8364C32.0675 9.92811 33.4117 10.0012 34.1079 10.6375C34.8056 11.2738 34.6067 11.2957 35.2971 12.2962C35.9889 13.2952 35.8017 12.3912 36.4599 13.0889C37.1181 13.7866 37.0962 13.6872 38.142 14.7812C38.5252 15.1835 38.708 15.3443 38.8265 15.3985C38.7826 15.6866 38.7855 15.906 38.7811 16.0918C38.7768 16.2761 38.7651 16.4253 38.6905 16.5744C38.5398 16.8728 38.3906 16.7734 38.5398 17.6202C38.689 18.4671 39.239 19.0142 38.8396 19.2131C38.4403 19.412 38.0922 19.5627 37.7441 20.3086C37.3945 21.056 37.3448 21.3544 37.3448 22.1516C37.3448 22.9487 36.1469 23.8175 36.0504 24.1481C36.0284 24.2242 35.9407 24.3397 35.8222 24.4714C35.1303 24.4509 34.1577 24.5021 33.909 24.837C33.6106 25.2378 33.0621 25.5376 32.9875 25.9355C32.9129 26.3333 32.4654 27.031 32.1173 27.031C31.7691 27.031 31.5688 26.7824 31.4196 27.5283C31.2704 28.2757 31.5161 28.8564 30.9574 29.3172C30.3986 29.7794 30.6721 30.1743 30.2246 30.3951C29.777 30.616 29.5283 31.9602 29.7273 32.2586C29.9262 32.5584 29.837 33.1054 29.6571 33.1552C29.4786 33.2049 29.7273 34.1513 29.7273 34.1513C30.2553 34.8241 29.7521 35.0479 31.1958 34.8241C32.6394 34.5988 32.2928 33.7037 33.3005 33.18C34.3083 32.6579 34.5116 32.9065 34.6842 33.3292C34.8554 33.7534 33.8842 34.6983 34.9797 34.1513C36.0752 33.6042 35.9158 32.4312 36.4599 33.3044C37.004 34.1776 36.9718 34.2507 37.1956 34.4994C37.4194 34.7495 37.8684 34.9411 38.3657 35.1195C38.8631 35.2965 38.3043 34.4306 40.1838 34.8241C42.0619 35.2161 39.8343 35.826 42.6733 35.3623C42.7698 35.3462 42.8634 35.3316 42.9541 35.3185C43.0521 35.453 43.1326 35.5452 43.1326 35.5452C43.1326 35.5452 41.079 36.2429 40.2336 36.0937C39.3867 35.9445 38.7387 35.4457 37.494 35.7938C36.2493 36.1434 37.0962 36.1434 36.4599 36.6407C35.8236 37.1395 34.9051 36.5412 33.909 36.3686C32.9129 36.1961 32.7638 35.0479 32.6146 35.0669C32.4654 35.0859 31.8189 35.4457 31.1212 35.1195C30.4235 34.7919 30.4732 35.2965 29.2212 35.8947C27.9691 36.4915 28.4825 36.591 28.1827 36.591C27.8828 36.591 27.2378 36.8396 27.0872 37.3384C26.938 37.8357 26.192 39.2793 25.8424 40.3749C25.4943 41.4704 26.192 41.7703 26.7946 42.6654C27.3987 43.562 28.2324 43.1642 28.582 43.6615C28.9301 44.1603 28.582 43.6615 28.9301 44.3094C29.2782 44.9559 28.9301 44.3094 30.1748 43.6951C31.4196 43.0823 31.2206 44.1602 31.8686 43.8107C32.5151 43.4626 32.7638 43.9101 32.9875 45.0554C33.2113 46.2007 34.4078 44.6576 34.4078 44.6576L34.557 45.5542C34.7062 46.4508 34.557 45.5542 35.2342 47.2962C35.9114 49.0397 35.0543 47.7452 35.4039 48.4912C35.752 49.2386 35.4039 48.4912 36.1001 49.3381C36.7978 50.185 36.0504 50.4833 35.9509 50.8856C35.8514 51.2863 35.553 51.6783 35.2971 52.0659C35.0426 52.4535 35.6028 52.5749 36.0884 52.7739C36.574 52.9728 36.1498 53.6207 36.1001 53.9542C36.0504 54.2877 36.1498 54.2175 36.4599 54.7163C36.77 55.2136 36.8475 55.0644 37.1459 55.7109C37.4443 56.3589 36.947 56.1102 37.1459 56.3574C37.3448 56.6031 37.3448 56.707 37.3448 57.1063C37.3448 57.5056 37.1459 58.0014 37.1459 58.2018C37.1459 58.4022 37.5935 58.5996 37.8933 58.6494C38.1917 58.6991 37.8933 58.6494 38.2911 58.3013C38.689 57.9517 39.4861 58.5996 39.6353 58.5996C39.7845 58.5996 40.6314 58.0014 40.6314 58.0014C40.6314 58.0014 41.528 57.4047 41.7269 57.3052C41.9259 57.2057 42.1248 56.3589 42.3734 55.961C42.6236 55.5617 42.8225 55.6612 43.1326 55.4622C43.4441 55.2633 43.3198 54.8655 43.1326 54.5656C42.9453 54.2672 43.5699 53.9542 43.5699 53.9542C43.5699 53.9542 43.9677 53.7202 43.9751 53.4204C43.9824 53.122 43.8683 52.7739 43.7688 52.376C43.7396 52.259 43.6723 52.1859 43.5933 52.1391C43.744 52.1098 43.8931 52.0147 43.9751 51.7778C44.1813 51.181 44.2164 51.3799 44.4651 50.8856C44.7137 50.3897 45.1627 50.3341 45.9102 49.4375C46.6561 48.5409 45.8604 48.7398 45.6103 48.4415C46.1925 49.1392 45.0135 47.9939 44.9141 47.2465C44.7459 45.9915 44.664 46.8501 44.6142 45.405C44.5645 43.9599 45.8341 43.2636 46.1837 43.0647C46.5318 42.8643 46.8053 41.1223 47.1198 40.5753C47.4328 40.0268 47.503 39.6787 47.503 39.3788C47.503 39.079 47.1052 37.786 47.503 36.8894C47.9008 35.9942 47.3538 35.8436 47.1198 35.3155C46.8858 34.786 46.2583 35.6944 45.9102 35.3623C45.8502 35.3053 45.7654 35.2351 45.66 35.1576C45.7961 35.1137 45.9043 35.0186 46.0535 34.8241C46.6064 34.1015 46.9326 32.9021 47.386 33.67C47.8379 34.4365 47.2119 33.4009 48.8764 33.2283C50.5409 33.0557 50.8686 31.9046 51.401 33.0279C51.9349 34.1513 51.4419 33.8046 52.7642 34.3034C54.085 34.8007 54.7242 34.5374 54.7973 35.3155C54.8719 36.0937 54.7812 36.5603 55.5198 36.2926C56.257 36.0249 57.063 36.2531 56.4662 34.4555C56.1064 33.376 55.2639 32.6959 54.9172 32.0699C55.1293 31.9924 55.3282 31.9046 55.4701 31.811C55.9777 31.4746 56.6651 31.2142 57.2121 30.793C57.7606 30.3732 57.2619 29.3713 57.2121 29.3172C57.1624 29.2645 57.4608 27.5283 57.4608 27.5283C57.4608 27.5283 57.6115 27.9276 57.6612 28.226C57.7109 28.5244 58.4569 28.4249 58.7553 28.3255C59.0551 28.226 58.8064 27.7784 58.8064 27.2797C58.8064 26.7809 59.0054 27.6278 59.4529 27.9774C59.902 28.3255 60.8966 28.2757 61.3456 28.3752C61.7932 28.4747 61.7932 29.2221 61.9424 29.6199C62.0916 30.0178 63.1374 29.5205 63.5864 29.3991C64.034 29.2777 64.5313 29.6697 65.0301 29.968C65.169 30.0529 65.3782 30.1041 65.6122 30.1319C65.5683 29.5892 65.5084 29.051 65.4367 28.5156ZM21.5729 24.5723C21.4793 24.6849 20.9571 25.0769 20.9571 25.0769C20.9571 25.0769 20.5096 25.5435 20.0986 25.5245C19.6876 25.5055 19.6685 25.0579 19.5003 24.8151C19.3321 24.5723 18.3624 24.5533 18.1942 24.5723C18.1942 24.5723 18.0816 24.1613 19.0893 24.2549C20.0986 24.3485 19.5193 24.2549 20.1351 24.1613C20.7524 24.0677 21.6665 24.4597 21.5729 24.5723Z" stroke="#231F20" stroke-width="0.282935" stroke-miterlimit="10"/>
<path d="M65.08 30.7932C64.9308 30.8707 64.4832 30.2666 64.4832 30.2666C64.4832 30.2666 63.9362 30.6147 63.1756 30.7932C62.4165 30.9701 62.7894 30.9146 62.3916 31.5113C62.3916 31.5113 62.8392 31.5113 63.2443 31.8097C63.6495 32.1081 65.7294 31.8097 65.7294 31.8097V30.7917C65.7294 30.7917 65.2292 30.7142 65.08 30.7917V30.7932Z" fill="url(#paint7_radial_885_4375)" stroke="#231F20" stroke-width="0.141468" stroke-miterlimit="10"/>
<g style="mix-blend-mode:multiply">
<path d="M9.72388 39.7609L12.6287 39.7346C12.8116 40.188 12.715 40.4396 13.1012 40.6487C13.4858 40.8579 13.8559 40.9603 14.5126 40.9617C15.2557 40.9632 15.75 40.8477 16.2708 40.6546C16.7915 40.4615 17.1279 40.1997 17.28 39.8677C17.4014 39.6044 17.3429 39.385 17.1059 39.2066C16.869 39.0281 16.6642 38.8731 15.9153 38.6961C15.8144 38.6698 15.6681 38.6347 15.4751 38.5922C14.1631 38.2836 13.2723 38.0233 12.7999 37.8082C12.3303 37.602 12.0217 37.3373 11.8696 37.0169C11.719 36.6966 11.7365 36.3339 11.9223 35.9302C12.2382 35.2442 12.9403 34.6884 14.0285 34.2628C15.1167 33.8371 16.3805 33.625 17.8197 33.628C19.0791 33.6309 20.0561 33.7889 20.7509 34.1033C21.2848 34.3447 21.646 34.6752 21.8347 35.0935C21.8918 35.2193 21.9327 35.6888 21.9576 35.8307L18.9811 35.8249C18.845 35.4431 18.8114 35.3627 18.4662 35.1872C18.121 35.0131 17.6383 34.9253 17.0153 34.9239C16.4112 34.9239 15.8992 35.0029 15.4765 35.1638C15.0538 35.3246 14.7788 35.544 14.6501 35.822C14.4527 36.252 15.1167 36.6615 16.6437 37.0506C17.1132 37.1705 17.4804 37.2656 17.7451 37.3387C19.0103 37.6883 19.8177 38.0452 20.1644 38.4079C20.511 38.7707 20.5505 39.2431 20.2828 39.8267C19.9216 40.6107 19.1902 41.2265 18.0888 41.6741C16.9875 42.1216 15.6535 42.3425 14.0899 42.3396C12.7311 42.3366 11.6502 42.1655 10.8706 41.8174C9.71218 41.3011 9.72388 40.4513 9.72388 39.7594V39.7609Z" fill="#96814D"/>
<path d="M30.2582 40.786C29.9481 41.2233 29.0632 41.7923 28.2806 42.0102C27.4981 42.2281 26.6059 42.3364 25.5996 42.3364C24.1486 42.3349 23.075 42.0599 22.3803 41.5129C21.6855 40.9659 21.4412 40.1994 21.6475 39.2151C21.8537 38.2307 22.4198 37.4613 23.3427 36.9084C24.2656 36.3556 25.4416 36.0791 26.8736 36.0806C28.2967 36.082 29.3469 36.3512 30.0197 36.888C30.694 37.4248 30.9281 38.1766 30.7248 39.1463C30.7174 39.18 30.7028 39.2311 30.6823 39.3014C30.6604 39.3701 30.6472 39.4228 30.6399 39.4564H24.1296C24.0228 40.0239 24.1325 40.451 24.4572 40.7391C24.782 41.0258 25.3217 41.1692 26.0779 41.1706C26.5503 41.1706 26.973 41.1107 27.346 40.9893C27.719 40.8679 27.7746 40.7655 27.9281 40.6543L30.2567 40.7889L30.2582 40.786ZM24.387 38.4252L28.3552 38.4296C28.4401 38.0288 28.3289 37.7158 28.0261 37.4906C27.7219 37.2653 27.2626 37.1527 26.6498 37.1527C26.0691 37.1527 25.582 37.2624 25.1871 37.4847C24.7922 37.7071 24.526 38.0201 24.387 38.4252Z" fill="#96814D"/>
<path d="M32.1978 35.3115V33.9834H34.949V35.3115H32.1978ZM32.1978 42.2196V36.2856H34.949V42.2196H32.1978Z" fill="#96814D"/>
<path d="M38.0717 42.2542L37.3594 33.7284L45.2534 33.6333L45.5298 35.017L40.2423 35.0726L40.4105 37.0881L45.717 36.9945L46.0388 38.4279L40.5246 38.4498L40.6723 40.442L47.6375 40.3206L47.9593 42.1065L38.0717 42.2542Z" fill="#96814D"/>
<path d="M50.3582 42.2265L47.2866 36.2647L49.6313 36.2603L49.9033 36.9799C50.4562 36.6728 50.9608 36.4549 51.4172 36.3276C51.8735 36.2004 52.3694 36.136 52.9032 36.1345C53.9052 36.1331 54.7213 36.2983 55.3503 36.6304C55.9807 36.9624 56.418 37.4553 56.6652 38.1091L59.0347 42.2119L56.4897 42.2163L54.224 38.3914C54.0763 37.998 53.8774 37.7201 53.6273 37.5548C53.3786 37.391 53.0334 37.309 52.5917 37.309C52.2173 37.309 51.856 37.3646 51.5064 37.4758C51.1568 37.5855 50.8087 37.7566 50.4621 37.9877L52.8813 42.2207L50.3568 42.2251L50.3582 42.2265Z" fill="#96814D"/>
</g>
<path d="M7.48023 34.5642L10.5182 34.4896C10.7083 35.7811 10.6089 36.4949 11.0111 37.0887C11.4133 37.6826 11.8009 37.9736 12.4869 37.978C13.2636 37.9824 13.7814 37.6562 14.3255 37.1063C14.8696 36.5563 15.2206 35.8104 15.3801 34.8684C15.5059 34.121 15.4459 33.495 15.1987 32.9889C14.9515 32.4828 14.7365 32.0411 13.954 31.5365C13.8487 31.4604 13.6951 31.3609 13.4932 31.241C12.1213 30.3649 11.1895 29.6218 10.6966 29.0119C10.2066 28.4239 9.88192 27.6736 9.72395 26.7623C9.56599 25.8511 9.58354 24.8214 9.77807 23.6732C10.1086 21.7235 10.8414 20.1423 11.9808 18.9298C13.1188 17.7172 14.441 17.1161 15.9447 17.1249C17.2611 17.1336 18.2835 17.5841 19.0104 18.4778C19.5691 19.1653 19.9465 20.1043 20.1425 21.2949C20.201 21.6533 20.2449 22.9887 20.2712 23.3924L17.1587 23.3733C17.0153 22.288 16.9802 22.0569 16.6204 21.5611C16.2606 21.0653 15.7545 20.8151 15.1022 20.8122C14.4498 20.8093 13.935 21.036 13.4932 21.4938C13.0515 21.9516 12.7634 22.5762 12.6303 23.366C12.4226 24.5903 13.1173 25.7546 14.7146 26.8589C15.2045 27.1982 15.5892 27.4717 15.8657 27.6794C17.1894 28.674 18.0319 29.6877 18.3961 30.7203C18.7588 31.7529 18.7998 33.0971 18.5204 34.7543C18.143 36.9849 17.3781 38.7371 16.2255 40.0082C15.0729 41.2807 13.679 41.9111 12.0437 41.9009C10.6235 41.8921 9.49285 41.4036 8.67815 40.4163C7.46707 38.9463 7.48023 36.5314 7.48023 34.5642Z" fill="url(#paint8_linear_885_4375)" stroke="#231F20" stroke-width="0.424403" stroke-miterlimit="10"/>
<path d="M28.9477 37.4791C28.6229 38.7223 27.6971 40.3386 26.8809 40.9602C26.0648 41.5818 25.1286 41.889 24.0785 41.8861C22.5617 41.8817 21.4398 41.1006 20.7129 39.5429C19.9859 37.9852 19.7314 35.8073 19.9479 33.0063C20.1644 30.2053 20.7553 28.0186 21.7192 26.4462C22.6845 24.8724 23.9146 24.0884 25.4109 24.0928C26.9072 24.0972 27.9969 24.8622 28.7005 26.3877C29.4055 27.9133 29.6512 30.0546 29.4376 32.8117C29.4303 32.9083 29.4157 33.0545 29.3923 33.2505C29.3704 33.448 29.3557 33.5942 29.3484 33.6893L22.5412 33.6849C22.43 35.3041 22.5441 36.521 22.8835 37.3357C23.2228 38.1519 23.7874 38.56 24.5772 38.5629C25.0716 38.5644 25.5133 38.3932 25.9039 38.0481C26.2944 37.7029 26.3514 37.4089 26.5138 37.0959L28.9477 37.4776V37.4791ZM22.8089 30.764L26.9584 30.7772C27.0462 29.6377 26.9321 28.7484 26.6147 28.1078C26.2973 27.4672 25.8176 27.1468 25.1755 27.1454C24.5684 27.1439 24.0594 27.4584 23.647 28.0917C23.2345 28.7236 22.9551 29.6158 22.8103 30.7655L22.8089 30.764Z" fill="url(#paint9_linear_885_4375)" stroke="#231F20" stroke-width="0.424403" stroke-miterlimit="10"/>
<path d="M30.9763 21.9109V18.1357H33.8534V21.9109H30.9763ZM30.9763 41.5588V24.6797H33.8534V41.5588H30.9763Z" fill="url(#paint10_linear_885_4375)" stroke="#231F20" stroke-width="0.424403" stroke-miterlimit="10"/>
<path d="M37.1183 41.6579L36.3738 17.4069L44.6905 17.3645L44.9669 21.125L39.3883 21.2303L39.5638 26.9625L45.1117 26.6963L45.4481 30.7757L39.6838 30.84L39.8388 36.5049L47.1404 36.4508L47.4856 41.6579H37.1197H37.1183Z" fill="url(#paint11_linear_885_4375)" stroke="#231F20" stroke-width="0.424403" stroke-miterlimit="10"/>
<path d="M49.9632 41.5794L47.563 24.2717L50.0144 24.26L50.2982 26.3092C50.8759 25.4345 51.4025 24.8173 51.8808 24.4545C52.3576 24.0918 52.8754 23.909 53.4341 23.906C54.4814 23.9016 55.3341 24.3712 55.9938 25.3146C56.652 26.258 57.1098 27.6607 57.3687 29.5212L59.0346 41.5384L56.3741 41.5501L54.8178 30.3242C54.6628 29.2053 54.4551 28.414 54.1947 27.9459C53.9343 27.4793 53.5731 27.2468 53.1123 27.2482C52.7218 27.2497 52.343 27.4076 51.9773 27.7221C51.6116 28.0366 51.2474 28.5222 50.8847 29.1804L52.6033 41.5677L49.9632 41.5794Z" fill="url(#paint12_linear_885_4375)" stroke="#231F20" stroke-width="0.424403" stroke-miterlimit="10"/>
<path d="M31.9256 49.3987H30.501V58.5871H31.9256V49.3987Z" fill="#788CA0"/>
<path d="M38.2138 55.4363L37.0364 54.9975L36.5595 54.8205L36.4542 55.3193C36.3826 55.6572 36.2582 55.9204 36.0856 56.1047C35.9379 56.2612 35.7785 56.3344 35.5869 56.3344C35.3836 56.3344 35.1247 56.2759 34.9243 55.8239C34.7224 55.369 34.62 54.6245 34.62 53.6138C34.62 52.6031 34.7239 51.7855 34.9287 51.2926C35.1334 50.8026 35.3733 50.7397 35.5605 50.7397C35.7478 50.7397 35.875 50.7982 35.992 50.9298C36.1383 51.0951 36.248 51.3628 36.3182 51.7226L36.4133 52.2126L36.8872 52.0561L38.0661 51.667L38.4244 51.5485L38.3615 51.177C38.2167 50.3155 37.914 49.6383 37.4605 49.1629C36.9837 48.6627 36.3694 48.4097 35.6351 48.4097C34.5952 48.4097 33.7834 48.8997 33.2232 49.8665C32.7083 50.7543 32.4465 52.0107 32.4465 53.6007C32.4465 55.1906 32.6864 56.4602 33.1793 57.329C33.7117 58.2665 34.5133 58.7419 35.5605 58.7419C36.3197 58.7419 36.9632 58.4874 37.4752 57.9843C37.9652 57.503 38.3074 56.8141 38.4917 55.938L38.5692 55.5679L38.2153 55.4363H38.2138Z" fill="#788CA0"/>
<path d="M29.79 57.9724V48.7839H31.2147V57.9724H29.79Z" fill="white" stroke="#231F20" stroke-width="0.424403" stroke-miterlimit="10"/>
<path d="M34.991 58.3456C34.0271 58.3456 33.29 57.9068 32.8 57.0438C32.3319 56.2203 32.095 55.0019 32.095 53.4237C32.095 51.8455 32.3465 50.6535 32.8409 49.7993C33.3587 48.9056 34.1061 48.4521 35.0627 48.4521C35.7341 48.4521 36.2943 48.6832 36.7287 49.1367C37.1499 49.5784 37.4337 50.2176 37.5726 51.0352L37.6034 51.221L36.0091 51.7475L35.9622 51.5033C35.8847 51.104 35.7589 50.8026 35.5863 50.6066C35.4284 50.4282 35.2338 50.3419 34.991 50.3419C34.6225 50.3419 34.3504 50.5672 34.1573 51.0308C33.9409 51.5501 33.8311 52.3604 33.8311 53.4369C33.8311 54.5134 33.9394 55.2535 34.1544 55.7362C34.3489 56.1735 34.6225 56.3768 35.0174 56.3768C35.2704 56.3768 35.4854 56.2789 35.6756 56.0785C35.8774 55.8649 36.0208 55.5651 36.0997 55.1877L36.1524 54.9391L37.7467 55.5314L37.7072 55.7157C37.5317 56.5494 37.2099 57.2003 36.7506 57.6508C36.2811 58.1116 35.6887 58.3456 34.9896 58.3456H34.991Z" fill="white"/>
<path d="M35.0643 48.6727C35.6772 48.6727 36.1789 48.8789 36.5709 49.2899C36.9643 49.7009 37.2261 50.2962 37.3563 51.0729L36.1774 51.462C36.0926 51.0217 35.9492 50.6882 35.7503 50.463C35.5514 50.2377 35.2969 50.1236 34.9897 50.1236C34.5275 50.1236 34.1809 50.3986 33.9527 50.9471C33.7245 51.4971 33.6104 52.3264 33.6104 53.4366C33.6104 54.5467 33.7245 55.3102 33.9527 55.8251C34.1809 56.34 34.5363 56.5959 35.0161 56.5959C35.3291 56.5959 35.6026 56.4731 35.8337 56.2288C36.0648 55.9845 36.2242 55.6525 36.3134 55.2327L37.4923 55.6715C37.3256 56.4657 37.0258 57.0728 36.5972 57.4955C36.1686 57.9167 35.6318 58.1273 34.9897 58.1273C34.1063 58.1273 33.4393 57.731 32.9888 56.9367C32.5383 56.1425 32.3131 54.9724 32.3131 53.4249C32.3131 51.8774 32.5515 50.735 33.0298 49.9101C33.5081 49.0852 34.1853 48.6727 35.0614 48.6727M35.0614 48.2339C34.0215 48.2339 33.2097 48.7239 32.6495 49.6907C32.1346 50.5785 31.8728 51.835 31.8728 53.4249C31.8728 55.0148 32.1127 56.2844 32.6056 57.1532C33.1307 58.0776 33.9542 58.5661 34.9868 58.5661C35.7459 58.5661 36.3895 58.3116 36.9014 57.8085C37.3914 57.3273 37.7337 56.6383 37.918 55.7622L37.9955 55.3922L37.6415 55.2605L36.4626 54.8217L35.9858 54.6447L35.8805 55.1435C35.8088 55.4814 35.6845 55.7447 35.5119 55.929C35.3642 56.0855 35.2047 56.1586 35.0131 56.1586C34.8098 56.1586 34.5509 56.1001 34.3506 55.6481C34.1487 55.1932 34.0463 54.4487 34.0463 53.438C34.0463 52.4273 34.1502 51.6097 34.3549 51.1168C34.5597 50.6268 34.7996 50.5639 34.9868 50.5639C35.174 50.5639 35.3013 50.6224 35.4183 50.7541C35.5646 50.9193 35.6743 51.187 35.7445 51.5468L35.8395 52.0368L36.3134 51.8803L37.4923 51.4912L37.8507 51.3728L37.7878 51.0012C37.643 50.1397 37.3402 49.4625 36.8868 48.9872C36.41 48.4869 35.7957 48.2339 35.0614 48.2339Z" fill="#231F20"/>
<path d="M24.633 14.1269C24.3039 14.1269 24.0157 14.086 23.77 14.0041C23.5243 13.9221 23.3136 13.7993 23.141 13.6384C22.945 13.4526 22.8061 13.2303 22.7256 12.9729C22.6452 12.714 22.6042 12.3966 22.6042 12.0178V8.7019H23.3502V12.0178C23.3502 12.2635 23.3663 12.4697 23.3985 12.6365C23.4307 12.8032 23.495 12.9553 23.5915 13.0884C23.6925 13.2318 23.8285 13.34 24.0011 13.4131C24.1737 13.4863 24.3843 13.5243 24.633 13.5243C24.867 13.5243 25.0747 13.4877 25.2546 13.4131C25.436 13.34 25.5764 13.2318 25.6773 13.0884C25.7709 12.9524 25.8338 12.8032 25.8674 12.6379C25.9011 12.4741 25.9186 12.2723 25.9186 12.0353V8.7019H26.6646V12.0178C26.6646 12.3864 26.6251 12.7023 26.5461 12.967C26.4671 13.2318 26.3282 13.4541 26.1293 13.6384C25.9508 13.8022 25.7431 13.9251 25.5047 14.0055C25.2663 14.086 24.9767 14.1269 24.6315 14.1269H24.633Z" fill="#F8EC22" stroke="#F8EC22" stroke-width="0.141468" stroke-miterlimit="10"/>
<path d="M31.2529 14.0161H30.5435V13.5729C30.4323 13.6636 30.327 13.7426 30.2261 13.8114C30.1252 13.8801 30.0242 13.9386 29.9204 13.9839C29.8165 14.0308 29.7127 14.0659 29.6059 14.0893C29.4991 14.1127 29.3851 14.1244 29.2651 14.1244C29.0823 14.1244 28.9097 14.0966 28.7488 14.041C28.5879 13.9854 28.4475 13.8962 28.3275 13.7748C28.2076 13.6534 28.114 13.4969 28.0453 13.3053C27.9765 13.1137 27.9414 12.884 27.9414 12.6149V8.46094H28.6508V10.0274H31.2529V10.6198H28.6508V12.2975C28.6508 12.4979 28.6596 12.6719 28.6757 12.8226C28.6918 12.9718 28.7283 13.0961 28.7854 13.1941C28.8424 13.2921 28.9229 13.3652 29.0267 13.4135C29.1306 13.4618 29.2724 13.4866 29.4509 13.4866C29.5357 13.4866 29.6264 13.4749 29.7229 13.4486C29.8195 13.4223 29.9145 13.3886 30.0096 13.3448C30.1047 13.3009 30.1983 13.2497 30.289 13.1912C30.3797 13.1327 30.4645 13.0698 30.5449 13.004V11.4623H31.2543V14.0147L31.2529 14.0161Z" fill="#F8EC22" stroke="#F8EC22" stroke-width="0.141468" stroke-miterlimit="10"/>
<path d="M33.175 10.0327V14.1296C33.175 14.3578 33.1414 14.5567 33.0755 14.7249C33.0083 14.8946 32.9132 15.035 32.7889 15.1476C32.6645 15.2603 32.5124 15.3451 32.3325 15.4007C32.1526 15.4563 31.9493 15.4841 31.724 15.4841H31.1814V14.8917H31.588C31.7708 14.8917 31.92 14.8756 32.0341 14.8419C32.1482 14.8083 32.2374 14.7513 32.3018 14.6708C32.3662 14.5904 32.4086 14.4836 32.432 14.352C32.4539 14.2203 32.4656 14.0536 32.4656 13.8547V10.0327H33.175Z" fill="#F8EC22" stroke="#F8EC22" stroke-width="0.141468" stroke-miterlimit="10"/>
<path d="M34.4036 8.7019H35.1495V10.03H38.1582V10.6575H35.1495V13.3883H38.1626V14.0158H34.4036V8.7019Z" fill="#F8EC22" stroke="#F8EC22" stroke-width="0.141468" stroke-miterlimit="10"/>
<path d="M42.5827 14.0161H41.8734V13.5729C41.7622 13.6636 41.6569 13.7426 41.556 13.8114C41.455 13.8801 41.3541 13.9386 41.2503 13.9839C41.1464 14.0308 41.0426 14.0659 40.9358 14.0893C40.829 14.1127 40.7149 14.1244 40.595 14.1244C40.4121 14.1244 40.2381 14.0951 40.0772 14.0381C39.9148 13.981 39.773 13.8903 39.653 13.7675C39.5316 13.6431 39.438 13.4881 39.3722 13.3023C39.3049 13.1151 39.2727 12.887 39.2727 12.6149V9.05332H38.4771V8.46094H39.9821V12.2975C39.9821 12.5096 39.9909 12.6851 40.007 12.8241C40.0231 12.963 40.0611 13.0859 40.1182 13.1897C40.1752 13.2921 40.2542 13.3667 40.3536 13.415C40.4531 13.4632 40.595 13.4866 40.7822 13.4866C40.9563 13.4866 41.1406 13.4398 41.3366 13.3477C41.5355 13.2526 41.7154 13.1385 41.8763 13.0054V10.0289H42.5857V14.0147L42.5827 14.0161Z" fill="#F8EC22" stroke="#F8EC22" stroke-width="0.141468" stroke-miterlimit="10"/>
<defs>
<radialGradient id="paint0_radial_885_4375" cx="0" cy="0" r="1" gradientUnits="userSpaceOnUse" gradientTransform="translate(22.5456 43.3472) scale(49.7802)">
<stop offset="0.03" stop-color="#BEE0F4"/>
<stop offset="0.49" stop-color="#5FB9E0"/>
<stop offset="0.84" stop-color="#1C9ED3"/>
<stop offset="1" stop-color="#0394CE"/>
</radialGradient>
<radialGradient id="paint1_radial_885_4375" cx="0" cy="0" r="1" gradientUnits="userSpaceOnUse" gradientTransform="translate(48.3074 50.8846) scale(2.3271 2.3271)">
<stop stop-color="#A4D178"/>
<stop offset="0.14" stop-color="#93CC73"/>
<stop offset="0.41" stop-color="#68C069"/>
<stop offset="0.79" stop-color="#23AD58"/>
<stop offset="0.97" stop-color="#00A450"/>
</radialGradient>
<radialGradient id="paint2_radial_885_4375" cx="0" cy="0" r="1" gradientUnits="userSpaceOnUse" gradientTransform="translate(29.2211 22.4296) scale(3.78976)">
<stop stop-color="#88C36B"/>
<stop offset="0.15" stop-color="#60BA63"/>
<stop offset="0.31" stop-color="#3DB25C"/>
<stop offset="0.47" stop-color="#22AB56"/>
<stop offset="0.63" stop-color="#0FA753"/>
<stop offset="0.8" stop-color="#03A450"/>
<stop offset="0.97" stop-color="#00A450"/>
</radialGradient>
<radialGradient id="paint3_radial_885_4375" cx="0" cy="0" r="1" gradientUnits="userSpaceOnUse" gradientTransform="translate(52.141 8.56235) scale(2.86536 2.86535)">
<stop offset="0.05" stop-color="#6FB861"/>
<stop offset="0.15" stop-color="#50B25C"/>
<stop offset="0.28" stop-color="#33AD57"/>
<stop offset="0.42" stop-color="#1CA954"/>
<stop offset="0.57" stop-color="#0CA651"/>
<stop offset="0.74" stop-color="#03A450"/>
<stop offset="0.97" stop-color="#00A450"/>
</radialGradient>
<radialGradient id="paint4_radial_885_4375" cx="0" cy="0" r="1" gradientUnits="userSpaceOnUse" gradientTransform="translate(54.7769 8.59426) scale(0.157968)">
<stop stop-color="#A4D178"/>
<stop offset="0.14" stop-color="#93CC73"/>
<stop offset="0.41" stop-color="#68C069"/>
<stop offset="0.79" stop-color="#23AD58"/>
<stop offset="0.97" stop-color="#00A450"/>
</radialGradient>
<radialGradient id="paint5_radial_885_4375" cx="0" cy="0" r="1" gradientUnits="userSpaceOnUse" gradientTransform="translate(31.7631 39.2462) scale(29.6803 29.6803)">
<stop stop-color="#A4D178"/>
<stop offset="0.14" stop-color="#93CC73"/>
<stop offset="0.41" stop-color="#68C069"/>
<stop offset="0.79" stop-color="#23AD58"/>
<stop offset="0.97" stop-color="#00A450"/>
</radialGradient>
<radialGradient id="paint6_radial_885_4375" cx="0" cy="0" r="1" gradientUnits="userSpaceOnUse" gradientTransform="translate(31.7633 39.2457) scale(29.6803)">
<stop stop-color="#A4D178"/>
<stop offset="0.14" stop-color="#93CC73"/>
<stop offset="0.41" stop-color="#68C069"/>
<stop offset="0.79" stop-color="#23AD58"/>
<stop offset="0.97" stop-color="#00A450"/>
</radialGradient>
<radialGradient id="paint7_radial_885_4375" cx="0" cy="0" r="1" gradientUnits="userSpaceOnUse" gradientTransform="translate(64.0605 31.1062) scale(1.32078)">
<stop stop-color="#A4D178"/>
<stop offset="0.14" stop-color="#93CC73"/>
<stop offset="0.41" stop-color="#68C069"/>
<stop offset="0.79" stop-color="#23AD58"/>
<stop offset="0.97" stop-color="#00A450"/>
</radialGradient>
<linearGradient id="paint8_linear_885_4375" x1="13.6132" y1="18.589" x2="14.0622" y2="37.1121" gradientUnits="userSpaceOnUse">
<stop stop-color="#ED2224"/>
<stop offset="0.13" stop-color="#EE3221"/>
<stop offset="0.4" stop-color="#F35D19"/>
<stop offset="0.77" stop-color="#FAA20D"/>
<stop offset="0.96" stop-color="#FFCA06"/>
</linearGradient>
<linearGradient id="paint9_linear_885_4375" x1="24.3388" y1="18.3299" x2="24.7878" y2="36.8516" gradientUnits="userSpaceOnUse">
<stop stop-color="#ED2224"/>
<stop offset="0.13" stop-color="#EE3221"/>
<stop offset="0.4" stop-color="#F35D19"/>
<stop offset="0.77" stop-color="#FAA20D"/>
<stop offset="0.96" stop-color="#FFCA06"/>
</linearGradient>
<linearGradient id="paint10_linear_885_4375" x1="32.1318" y1="18.1416" x2="32.5794" y2="36.6662" gradientUnits="userSpaceOnUse">
<stop stop-color="#ED2224"/>
<stop offset="0.13" stop-color="#EE3221"/>
<stop offset="0.4" stop-color="#F35D19"/>
<stop offset="0.77" stop-color="#FAA20D"/>
<stop offset="0.96" stop-color="#FFCA06"/>
</linearGradient>
<linearGradient id="paint11_linear_885_4375" x1="41.6496" y1="17.9861" x2="42.1001" y2="36.6468" gradientUnits="userSpaceOnUse">
<stop stop-color="#ED2224"/>
<stop offset="0.13" stop-color="#EE3221"/>
<stop offset="0.4" stop-color="#F35D19"/>
<stop offset="0.77" stop-color="#FAA20D"/>
<stop offset="0.96" stop-color="#FFCA06"/>
</linearGradient>
<linearGradient id="paint12_linear_885_4375" x1="52.9295" y1="17.6385" x2="53.3771" y2="36.1617" gradientUnits="userSpaceOnUse">
<stop stop-color="#ED2224"/>
<stop offset="0.13" stop-color="#EE3221"/>
<stop offset="0.4" stop-color="#F35D19"/>
<stop offset="0.77" stop-color="#FAA20D"/>
<stop offset="0.96" stop-color="#FFCA06"/>
</linearGradient>
</defs>
</svg>
