<svg width="90" height="19" viewBox="0 0 90 19" fill="none" xmlns="http://www.w3.org/2000/svg">
<g clip-path="url(#clip0_885_4336)">
<path d="M28.8932 0.356445C28.3666 0.356445 27.913 0.520696 27.5349 0.849199C27.1543 1.1777 26.9666 1.59485 26.9666 2.10064C26.9666 2.43957 27.0578 2.7446 27.2377 3.01575C27.4176 3.28689 27.6548 3.50329 27.9468 3.66493C28.2388 3.82658 28.5543 3.91001 28.8932 3.91001C29.253 3.91001 29.5841 3.82658 29.8788 3.66233C30.176 3.49547 30.4158 3.27386 30.6035 2.9975C30.7913 2.72114 30.8851 2.40828 30.8851 2.06153C30.8851 1.56356 30.6948 1.15684 30.3115 0.83877C29.9283 0.520696 29.4564 0.36166 28.8932 0.36166V0.356445Z" fill="white"/>
<path d="M44.4399 10.4436H45.329V6.10791L42.5549 8.324H43.3058C43.457 8.324 43.5639 8.3605 43.6239 8.4361" fill="white"/>
<path d="M47.0914 13.7572L46.3431 16.2783C46.3066 16.4008 46.2545 16.4973 46.1867 16.5651C46.1189 16.6329 46.0225 16.6694 45.8999 16.6694H39.9347V12.7612L36.6549 15.3788V16.2574C36.6549 16.4165 36.6106 16.5442 36.5193 16.6407C36.4281 16.7398 36.3186 16.8102 36.1882 16.8519L34.6943 17.3498V18.1189H48.1186V13.7572H47.0888H47.0914Z" fill="white"/>
<path d="M40.2607 1.78517H45.1674L45.3786 1.5792L45.3864 1.79299C45.4855 1.80342 45.5663 1.83471 45.6211 1.89728C45.6862 1.97289 45.741 2.06935 45.7827 2.18407L46.5622 4.41579H47.5921V0.356445H35.0229V1.12556L36.5169 1.6131C36.6472 1.6496 36.7567 1.71478 36.848 1.81385C36.9392 1.91031 36.9835 2.03806 36.9835 2.1971V9.77612L37.6953 8.15707L38.9363 8.32654L39.8749 6.79874L40.3676 5.07019L40.2633 1.78778L40.2607 1.78517Z" fill="white"/>
<path d="M40.2607 10.1516L42.5524 8.32397H40.2607V10.1516Z" fill="white"/>
<path d="M5.08223 9.16348L4.17754 9.11916L4.46433 8.75937L4.80587 8.74112L5.4733 8.46476L5.79398 8.43087L6.15116 8.85844L6.55527 9.04355L6.80817 9.62495C8.1665 9.91695 9.47008 10.2063 9.47008 10.2063L8.65143 9.11916L10.2757 9.76313L10.6772 9.48155C10.6772 9.48155 11.2403 9.61712 11.5115 9.59627C11.3863 9.46852 11.2664 9.33294 11.123 9.22084C10.6746 8.87408 10.2027 8.60033 9.70472 8.39697C9.08422 8.14408 8.51064 7.94854 7.98921 7.80775C7.46517 7.66697 6.93071 7.50272 6.38059 7.315C5.6167 7.04646 5.08744 6.72057 4.79283 6.32949C4.50083 5.93842 4.35483 5.47435 4.35483 4.93206C4.35483 4.42627 4.57122 3.9648 5.00401 3.54765C5.4368 3.1279 6.04688 2.91933 6.83424 2.91933C7.09496 2.91933 7.39999 2.95322 7.75457 3.02361C8.10653 3.0914 8.45329 3.18526 8.787 3.29997C9.12333 3.41469 9.38665 3.54244 9.58219 3.68062C9.6604 3.73798 9.74905 3.81358 9.84551 3.90744C9.94458 4.0013 10.0098 4.09776 10.0463 4.19944L10.8154 6.19131H11.8113V2.08764C11.3916 1.96511 10.9171 1.853 10.3878 1.74611C9.85855 1.64182 9.29801 1.55578 8.70879 1.48539C8.12218 1.4176 7.52775 1.3811 6.9281 1.3811C5.91131 1.3811 4.97273 1.57925 4.11758 1.97554C3.26243 2.37182 2.57935 2.91151 2.06574 3.59458C1.55213 4.27766 1.29663 5.05459 1.29663 5.92799C1.29663 6.85093 1.54431 7.66436 2.04489 8.36308C2.13874 8.49605 2.67321 7.37757 2.78011 7.4975C3.23375 7.78429 4.15147 9.05658 5.51762 9.34598L5.6532 9.17391" fill="white"/>
<path d="M9.46219 14.7846C9.46219 15.4703 9.20148 16.0412 8.68265 16.5001C8.16383 16.959 7.47815 17.1884 6.6256 17.1884C6.32839 17.1884 5.97121 17.1389 5.54885 17.0424C5.12649 16.9459 4.70413 16.8104 4.28177 16.6409C3.85941 16.4714 3.49701 16.2889 3.19458 16.096C3.11637 16.0465 3.02251 15.9656 2.91822 15.8561C2.81393 15.7492 2.74354 15.645 2.70704 15.5433L1.87275 13.4211H0.855957L1.04107 17.7724C1.57553 17.9367 2.13347 18.0931 2.72008 18.2365C3.30408 18.3825 3.89591 18.4972 4.49555 18.5884C5.0952 18.6797 5.67138 18.724 6.22671 18.724C7.71279 18.724 8.93033 18.492 9.87413 18.0253C10.8179 17.5612 11.5166 16.959 11.9625 16.2185C12.4083 15.4781 12.6325 14.7012 12.6325 13.8851C12.6325 13.6479 12.5856 13.2203 12.5569 13.0039L11.8112 13.3793L11.2246 13.4993L10.9926 14.1458L9.99927 14.3935L9.5743 13.8564" fill="white"/>
<path d="M23.3663 15.624C23.0612 15.7752 22.7015 15.9082 22.2947 16.0203C21.888 16.1324 21.4187 16.1871 20.8921 16.1871C20.3654 16.1871 19.9483 16.1272 19.5598 16.0177C19.7189 16.3357 19.8258 16.5495 19.8258 16.5495C19.8258 16.5495 16.7936 14.4195 16.4443 14.7063C15.9359 15.1208 15.756 14.9331 15.756 14.9331L15.0077 14.9696C15.0364 15.0269 14.7548 15.4389 14.7861 15.4936C15.2632 16.3357 15.9202 16.9745 16.7623 17.4099C17.6019 17.8453 18.5691 18.0643 19.6563 18.0643C20.6601 18.0643 21.5882 17.8635 22.4381 17.4646C23.2907 17.0631 23.9816 16.6512 24.516 16.2262V15.2199H24.1589C23.9346 15.3346 23.6713 15.4675 23.3637 15.6214L23.3663 15.624Z" fill="white"/>
<path d="M23.9788 7.84687C23.6034 7.18986 23.0585 6.6554 22.3441 6.24346C21.6298 5.83153 20.7642 5.62817 19.7474 5.62817C18.5846 5.62817 17.5808 5.89671 16.7335 6.43379C15.8862 6.97086 15.2292 7.68001 14.7677 8.56123C14.3063 9.44245 14.0742 10.4097 14.0742 11.463C14.0742 11.6507 14.0899 11.8254 14.1029 12.0053C14.7886 12.0053 15.0415 11.3092 15.0415 11.3092L15.4325 11.1866C15.4325 11.1866 16.1912 11.4943 17.3488 12.1018C17.3097 11.8306 17.2967 11.536 17.2888 11.2388H24.469C24.4846 11.1606 24.495 11.0354 24.5055 10.866C24.5159 10.6965 24.5263 10.5218 24.5341 10.3419C24.542 10.162 24.5446 10.0265 24.5446 9.94042C24.5446 9.2052 24.3569 8.50909 23.9814 7.85208L23.9788 7.84687ZM17.3253 10.076C17.341 9.88306 17.3384 9.68752 17.3645 9.4972C17.4296 9.01748 17.5443 8.57948 17.7112 8.1858C17.8781 7.79212 18.1075 7.47665 18.3995 7.2394C18.6915 7.00215 19.0695 6.88222 19.531 6.88222C19.9925 6.88222 20.3783 7.01779 20.6469 7.29415C20.9154 7.5679 21.1005 7.94333 21.21 8.42044C21.3195 8.89495 21.3717 9.44766 21.3717 10.076H17.328H17.3253Z" fill="white"/>
<path d="M14.5671 13.1317L14.5306 12.8267C14.5306 12.8267 13.6546 12.8345 13.5737 12.871C13.897 13.2021 14.1942 13.5645 14.4263 13.9947L15.2267 13.0874C14.8434 13.2177 14.5697 13.1343 14.5697 13.1343L14.5671 13.1317Z" fill="white"/>
<path d="M2.07081 8.87923C2.10731 8.9079 2.26896 8.99655 2.50882 9.11908C2.42539 9.03826 2.34196 8.95744 2.26635 8.8688C2.11514 8.85055 2.03692 8.85055 2.07081 8.87662V8.87923Z" fill="white"/>
<path d="M29.3575 14.6019L29.5296 13.8563L30.1241 14.2056L30.5933 14.2552V5.86792L25.7544 6.52753V7.19757L26.9016 7.63036C27.1102 7.71118 27.2614 7.80504 27.3552 7.91715C27.4491 8.02926 27.496 8.17265 27.496 8.34472V15.1207C27.496 15.2798 27.4517 15.4049 27.3605 15.4936C27.2692 15.5822 27.1571 15.6552 27.0189 15.7047L25.7075 16.1375V16.8832H26.8755L26.5548 16.3461L28.7605 14.3777L29.3549 14.5993L29.3575 14.6019Z" fill="white"/>
<path d="M30.5099 16.5078L28.9456 16.8859H32.3036V16.1402L31.511 15.8665L30.5099 16.5078Z" fill="white"/>
<path d="M60.2417 15.7179C60.1114 15.6683 60.0019 15.5953 59.9106 15.5015C59.8194 15.4076 59.7751 15.2694 59.7751 15.0895V9.45026C59.7751 8.54818 59.6186 7.81817 59.3084 7.26024C58.9981 6.6997 58.5758 6.29038 58.0413 6.03227C57.5068 5.77155 56.9124 5.6438 56.2554 5.6438C55.8721 5.6438 55.4863 5.68552 55.0926 5.76895C54.6989 5.85238 54.3026 6.02705 53.9011 6.29299C53.4996 6.55892 53.0955 6.97085 52.6836 7.52617H52.6288L52.2951 5.28662L50.9029 8.27964L51.5495 6.30081L48.6712 7.42449L49.044 7.57049C49.2395 7.64871 49.3881 7.74517 49.4872 7.85207C49.5863 7.95896 49.6384 8.10496 49.6384 8.28486V15.1365C49.6384 15.2955 49.5941 15.4207 49.5028 15.5145C49.4116 15.6084 49.3021 15.6762 49.1717 15.7205L48.0142 16.1428V16.8885H54.0758V16.1428L53.1998 15.7205C53.0694 15.6631 52.9599 15.5927 52.8687 15.5093C52.7774 15.4259 52.7331 15.3007 52.7331 15.1365V8.47779C52.999 8.06585 53.3223 7.81557 53.703 7.72432C54.081 7.63307 54.4434 7.58874 54.7902 7.58874C55.3325 7.58874 55.7366 7.70085 56.0025 7.92246C56.2684 8.14668 56.4457 8.48039 56.5318 8.92361C56.6178 9.36683 56.6621 9.91433 56.6621 10.5635V15.0895C56.6621 15.2694 56.6152 15.4076 56.5213 15.5015C56.4275 15.5953 56.3232 15.6683 56.2059 15.7179L55.1995 16.1402V16.8859H61.2507V16.1402L60.2339 15.7179H60.2417Z" fill="white"/>
<path d="M73.6323 3.57112C73.6323 3.41991 73.6792 3.29477 73.7731 3.19309C73.8669 3.09141 73.979 3.02362 74.1068 2.98712L75.6241 2.49958V1.73047H68.3606V2.49958L69.8884 2.98712C70.0109 3.0158 70.1178 3.08098 70.2117 3.18266C70.3055 3.28434 70.3525 3.41469 70.3525 3.57112V7.80255L73.6323 9.17652V3.57112Z" fill="#E96340"/>
<path d="M70.3499 16.3228C70.3499 16.4819 70.3082 16.6096 70.2248 16.7061C70.1414 16.8052 70.0267 16.8756 69.8833 16.9173L68.3555 17.4152V18.1844H75.619V17.4152L74.1017 16.9173C73.9661 16.8756 73.8514 16.8052 73.7601 16.7113C73.6689 16.6175 73.6245 16.4871 73.6245 16.3228V15.8901L73.4186 15.1079L71.9846 15.0897L71.0669 14.6569L70.3447 13.5488V16.3228H70.3499Z" fill="#E96340"/>
<path d="M89.4135 13.5748C89.0824 13.8642 88.7278 14.1406 88.3523 14.4091C87.9769 14.6751 87.5493 14.8915 87.0748 15.0531C86.5977 15.2148 86.0502 15.2982 85.4297 15.2982C83.8211 15.2982 82.5853 14.7507 81.7276 13.6583C80.8672 12.5659 80.4396 10.9938 80.4396 8.94453C80.4396 6.8953 80.8124 5.46918 81.5607 4.45239C82.3063 3.4356 83.3023 2.9272 84.5433 2.9272C85.0569 2.9272 85.5366 2.99499 85.9824 3.13317C86.4283 3.26874 86.8506 3.45385 87.2495 3.68588C87.3642 3.74324 87.4685 3.81103 87.5624 3.88664C87.6562 3.96224 87.7214 4.05871 87.7579 4.17342L88.4827 6.13401H89.4786V2.24152C89.1032 2.11116 88.6105 1.98602 88.0004 1.86348C87.3903 1.74094 86.7646 1.63405 86.1232 1.5428C85.4793 1.45155 84.9005 1.40723 84.379 1.40723C82.9581 1.40723 81.6832 1.73834 80.5569 2.39795C79.4306 3.06017 78.539 3.9831 77.882 5.17457C77.225 6.36605 76.8965 7.75306 76.8965 9.34082C76.8965 9.78143 76.9226 10.2012 76.9695 10.6079C76.9877 10.6183 77.0086 10.6261 77.0242 10.6392L85.375 16.6018C85.5418 16.7191 85.667 16.8703 85.7687 17.0372C86.0294 16.9798 86.2927 16.9224 86.5482 16.8338C87.2599 16.5809 87.9117 16.2759 88.5088 15.9187C89.1032 15.5615 89.6012 15.2121 89.9975 14.8732V13.5748H89.4135Z" fill="#E96340"/>
<path d="M75.8512 10.9676L77.551 12.0939L79.084 13.898L80.8439 14.5681L81.978 15.8195L84.6529 17.3942C84.1889 17.4985 83.7196 17.5689 83.2399 17.5689C81.7303 17.5689 80.4189 17.2509 79.3004 16.6173C78.182 15.9812 77.3164 15.0765 76.7037 13.9007C76.2553 13.0429 75.9763 12.0652 75.8564 10.9676C75.7834 10.9207 75.7078 10.8737 75.627 10.8398" fill="#E96340"/>
</g>
<defs>
<clipPath id="clip0_885_4336">
<rect width="89.144" height="18.3701" fill="white" transform="translate(0.855957 0.356445)"/>
</clipPath>
</defs>
</svg>
