<svg width="511" height="151" viewBox="0 0 511 151" fill="none" xmlns="http://www.w3.org/2000/svg">
<path d="M0.638724 27.9472C0.638724 27.9472 -3.27227 3.43386 34.4645 0.789062H114.977V54.0646C114.977 54.0646 18.3914 74.6108 0.638724 27.935V27.9472Z" fill="#D52E00"/>
<path d="M57.2256 150.716H510.851V41.361H57.2256C7.20426 36.2061 0.632812 24.8555 0.632812 24.8555V134.21C0.632812 134.21 7.19199 145.561 57.2256 150.716Z" fill="url(#paint0_linear_818_4017)"/>
<path d="M275.758 80.1641V110.023H270.118V80.1641H275.758ZM292.349 104.179L299.793 80.1641H306.048L295.507 110.023H291.344L292.349 104.179ZM285.479 80.1641L292.882 104.179L293.948 110.023H289.744L279.244 80.1641H285.479ZM324.915 78.5234V110.023H319.48V78.5234H324.915ZM340.05 110.434C338.368 110.434 336.857 110.16 335.518 109.613C334.178 109.066 333.036 108.308 332.093 107.337C331.163 106.353 330.445 105.211 329.939 103.912C329.447 102.6 329.201 101.191 329.201 99.6875V98.8672C329.201 97.1582 329.447 95.6064 329.939 94.2119C330.432 92.8037 331.129 91.5938 332.031 90.582C332.934 89.5703 334.014 88.791 335.271 88.2441C336.529 87.6973 337.917 87.4238 339.435 87.4238C341.007 87.4238 342.395 87.6904 343.598 88.2236C344.801 88.7432 345.806 89.4814 346.612 90.4385C347.419 91.3955 348.027 92.5439 348.438 93.8838C348.848 95.21 349.053 96.6797 349.053 98.293V100.569H331.662V96.8369H343.721V96.4268C343.693 95.5654 343.529 94.7793 343.229 94.0684C342.928 93.3438 342.463 92.7695 341.834 92.3457C341.205 91.9082 340.392 91.6895 339.394 91.6895C338.587 91.6895 337.883 91.8672 337.281 92.2227C336.693 92.5645 336.201 93.0566 335.805 93.6992C335.422 94.3281 335.135 95.0801 334.943 95.9551C334.752 96.8301 334.656 97.8008 334.656 98.8672V99.6875C334.656 100.617 334.779 101.479 335.025 102.271C335.285 103.064 335.661 103.755 336.153 104.343C336.659 104.917 337.261 105.368 337.958 105.696C338.669 106.011 339.476 106.168 340.378 106.168C341.513 106.168 342.538 105.949 343.454 105.512C344.384 105.061 345.19 104.397 345.874 103.522L348.602 106.353C348.137 107.036 347.508 107.692 346.715 108.321C345.936 108.95 344.992 109.463 343.885 109.859C342.777 110.242 341.499 110.434 340.05 110.434ZM359.758 105.922L364.926 87.834H370.586L362.978 110.023H359.532L359.758 105.922ZM355.984 87.834L361.214 105.963L361.398 110.023H357.933L350.304 87.834H355.984ZM383.116 110.434C381.435 110.434 379.924 110.16 378.584 109.613C377.244 109.066 376.103 108.308 375.159 107.337C374.229 106.353 373.512 105.211 373.006 103.912C372.514 102.6 372.268 101.191 372.268 99.6875V98.8672C372.268 97.1582 372.514 95.6064 373.006 94.2119C373.498 92.8037 374.195 91.5938 375.098 90.582C376 89.5703 377.08 88.791 378.338 88.2441C379.596 87.6973 380.983 87.4238 382.501 87.4238C384.073 87.4238 385.461 87.6904 386.664 88.2236C387.867 88.7432 388.872 89.4814 389.679 90.4385C390.485 91.3955 391.094 92.5439 391.504 93.8838C391.914 95.21 392.119 96.6797 392.119 98.293V100.569H374.729V96.8369H386.787V96.4268C386.76 95.5654 386.596 94.7793 386.295 94.0684C385.994 93.3438 385.529 92.7695 384.9 92.3457C384.271 91.9082 383.458 91.6895 382.46 91.6895C381.653 91.6895 380.949 91.8672 380.348 92.2227C379.76 92.5645 379.268 93.0566 378.871 93.6992C378.488 94.3281 378.201 95.0801 378.01 95.9551C377.818 96.8301 377.723 97.8008 377.723 98.8672V99.6875C377.723 100.617 377.846 101.479 378.092 102.271C378.352 103.064 378.728 103.755 379.22 104.343C379.726 104.917 380.327 105.368 381.024 105.696C381.735 106.011 382.542 106.168 383.444 106.168C384.579 106.168 385.604 105.949 386.521 105.512C387.45 105.061 388.257 104.397 388.94 103.522L391.668 106.353C391.203 107.036 390.574 107.692 389.781 108.321C389.002 108.95 388.059 109.463 386.951 109.859C385.844 110.242 384.565 110.434 383.116 110.434ZM401.491 78.5234V110.023H396.057V78.5234H401.491Z" fill="white"/>
<defs>
<linearGradient id="paint0_linear_818_4017" x1="0.632813" y1="87.7858" x2="510.851" y2="87.7857" gradientUnits="userSpaceOnUse">
<stop stop-color="#F05328"/>
<stop offset="0.0692012" stop-color="#FF9E84"/>
<stop offset="0.288955" stop-color="#F05328"/>
</linearGradient>
</defs>
</svg>
