<svg width="343" height="152" viewBox="0 0 343 152" fill="none" xmlns="http://www.w3.org/2000/svg">
<path d="M0.638724 27.4628C0.638724 27.4628 -3.27227 2.94948 34.4645 0.304688H114.977V53.5802C114.977 53.5802 18.3914 74.1264 0.638724 27.4506V27.4628Z" fill="#E5A924"/>
<path d="M57.2257 151.966H342.691V42.611H57.2257C7.20425 37.4561 0.632812 26.1055 0.632812 26.1055V135.46C0.632812 135.46 7.19199 146.811 57.2257 151.966Z" fill="url(#paint0_linear_818_4019)"/>
<path d="M68.31 87H73.05V108H68.31V87ZM77.7143 87H82.4543V108H77.7143V87ZM116.003 85.29V88.5H111.563V108H106.943V105.18C105.833 107.19 103.973 108.18 101.543 108.18C98.0027 108.18 95.7227 105.81 95.7227 102V91.86H100.343V100.68C100.343 102.72 101.513 103.98 103.403 103.95C105.623 103.92 106.943 102.18 106.943 99.84V85.29H116.003ZM136.452 91.86H141.042V108H136.452V105.45C135.462 107.28 133.872 108.18 131.712 108.18C129.192 108.18 127.362 106.77 126.642 104.34C125.712 106.92 123.822 108.18 121.272 108.18C118.002 108.18 116.172 105.81 116.172 102V91.86H120.792V100.68C120.792 102.72 121.632 103.98 123.252 103.98C125.202 103.92 126.342 102.21 126.342 99.84V91.86H130.932V100.68C130.932 102.72 131.652 103.98 133.392 103.98C135.192 103.92 136.272 102.51 136.452 100.5V91.86ZM156.454 91.86H161.074V114.33H156.454V105.18C155.344 107.19 153.484 108.18 151.054 108.18C147.514 108.18 145.234 105.81 145.234 102V85.29H149.854V100.68C149.854 102.72 151.024 103.95 152.914 103.95C155.134 103.92 156.454 102.18 156.454 99.84V91.86ZM185.554 91.86H190.144V108H185.554V105.45C184.564 107.28 182.974 108.18 180.814 108.18C178.294 108.18 176.464 106.77 175.744 104.34C174.814 106.92 172.924 108.18 170.374 108.18C167.104 108.18 165.274 105.81 165.274 102V91.86H169.894V100.68C169.894 102.72 170.734 103.98 172.354 103.98C174.304 103.92 175.444 102.21 175.444 99.84V91.86H180.034V100.68C180.034 102.72 180.754 103.98 182.494 103.98C184.294 103.92 185.374 102.51 185.554 100.5V91.86ZM204.866 91.68C208.496 91.68 210.806 94.08 210.806 97.86V108H206.186V99.21C206.186 97.17 204.986 95.91 203.006 95.91C200.906 95.94 199.526 97.41 199.316 99.45V114.33H194.696V91.86H199.316V94.68C200.456 92.67 202.376 91.71 204.866 91.68ZM235.549 104.79V108H231.109V114.33H226.489V99.21C226.489 97.17 225.289 95.91 223.309 95.91C221.209 95.94 219.829 97.41 219.619 99.45V108H214.999V91.86H219.619V94.68C220.759 92.67 222.679 91.71 225.169 91.68C228.799 91.68 231.109 94.08 231.109 97.86V104.79H235.549ZM257.331 91.86H261.921V108H257.331V105.45C256.341 107.28 254.751 108.18 252.591 108.18C250.071 108.18 248.241 106.77 247.521 104.34C246.591 106.92 244.701 108.18 242.151 108.18C238.881 108.18 237.051 105.81 237.051 102V91.86H241.671V100.68C241.671 102.72 242.511 103.98 244.131 103.98C246.081 103.92 247.221 102.21 247.221 99.84V91.86H251.811V100.68C251.811 102.72 252.531 103.98 254.271 103.98C256.071 103.92 257.151 102.51 257.331 100.5V91.86ZM277.333 91.86H281.953V114.33H277.333V105.18C276.223 107.19 274.363 108.18 271.933 108.18C268.393 108.18 266.113 105.81 266.113 102V85.29H270.733V100.68C270.733 102.72 271.903 103.95 273.793 103.95C276.013 103.92 277.333 102.18 277.333 99.84V91.86Z" fill="white"/>
<defs>
<linearGradient id="paint0_linear_818_4019" x1="0.632814" y1="94.1765" x2="342.691" y2="89.023" gradientUnits="userSpaceOnUse">
<stop stop-color="#EBD114"/>
<stop offset="0.0989583" stop-color="#FFF76F"/>
<stop offset="0.255208" stop-color="#EBD114"/>
</linearGradient>
</defs>
</svg>
