<svg width="231" height="80" viewBox="0 0 231 80" fill="none" xmlns="http://www.w3.org/2000/svg">
<path d="M0.0619416 14.6098C0.0619416 14.6098 -2.03938 1.42278 18.236 0H61.4941V28.6598C61.4941 28.6598 9.6002 39.7127 0.0619416 14.6033V14.6098Z" fill="#E87500"/>
<path d="M30.469 79.6397H230.035V20.8117H30.469C3.59324 18.0386 0.0625 11.9325 0.0625 11.9325V70.7605C0.0625 70.7605 3.58665 76.8666 30.469 79.6397Z" fill="url(#paint0_linear_2_17)"/>
<path d="M105.026 41.7612V57.8042H101.996V41.7612H105.026ZM111.527 41.7612V57.8042H108.496V41.7612H111.527ZM118.028 41.7612V57.8042H114.997V41.7612H118.028ZM130.192 56.482L133.387 45.8821H136.506L131.724 59.6112C131.613 59.9051 131.47 60.2246 131.294 60.5699C131.125 60.9151 130.897 61.242 130.611 61.5505C130.324 61.8664 129.964 62.1235 129.531 62.3218C129.105 62.5201 128.587 62.6193 127.977 62.6193C127.713 62.6193 127.478 62.6009 127.272 62.5642C127.066 62.5275 126.85 62.4797 126.622 62.421V60.2393C126.695 60.2466 126.78 60.2503 126.875 60.2503C126.978 60.2577 127.066 60.2613 127.14 60.2613C127.566 60.2613 127.919 60.2099 128.198 60.1071C128.477 60.0116 128.701 59.8536 128.87 59.6333C129.046 59.4203 129.193 59.1411 129.311 58.7959L130.192 56.482ZM128.616 45.8821L131.316 54.6639L131.79 57.7381L129.784 58.1017L125.476 45.8821H128.616ZM140.825 48.174V62.3879H137.905V45.8821H140.605L140.825 48.174ZM148.483 51.722V51.9534C148.483 52.8201 148.38 53.6245 148.174 54.3664C147.976 55.101 147.682 55.7437 147.293 56.2947C146.903 56.8382 146.419 57.2643 145.838 57.5728C145.265 57.874 144.604 58.0246 143.855 58.0246C143.12 58.0246 142.481 57.885 141.938 57.6059C141.394 57.3194 140.935 56.9154 140.56 56.3938C140.186 55.8723 139.885 55.2663 139.657 54.5758C139.437 53.8779 139.271 53.1176 139.161 52.2949V51.5567C139.271 50.6825 139.437 49.8892 139.657 49.1767C139.885 48.4568 140.186 47.8361 140.56 47.3145C140.935 46.7857 141.391 46.378 141.927 46.0915C142.47 45.805 143.106 45.6618 143.833 45.6618C144.59 45.6618 145.254 45.805 145.827 46.0915C146.408 46.378 146.896 46.7893 147.293 47.3256C147.689 47.8618 147.987 48.5009 148.185 49.2428C148.384 49.9847 148.483 50.8111 148.483 51.722ZM145.563 51.9534V51.722C145.563 51.1931 145.515 50.7046 145.42 50.2565C145.324 49.8011 145.177 49.4044 144.979 49.0665C144.781 48.7212 144.523 48.4531 144.208 48.2621C143.892 48.0712 143.51 47.9757 143.062 47.9757C142.614 47.9757 142.228 48.0491 141.905 48.196C141.581 48.3429 141.317 48.5523 141.111 48.8241C140.906 49.0959 140.744 49.4191 140.627 49.7937C140.516 50.161 140.443 50.5687 140.406 51.0168V52.8459C140.472 53.3894 140.601 53.8779 140.792 54.3113C140.983 54.7447 141.262 55.09 141.629 55.3471C142.004 55.6042 142.489 55.7327 143.084 55.7327C143.532 55.7327 143.914 55.6335 144.23 55.4352C144.545 55.2369 144.803 54.9651 145.001 54.6198C145.199 54.2672 145.342 53.8632 145.431 53.4078C145.519 52.9524 145.563 52.4676 145.563 51.9534ZM150.091 51.9644V51.733C150.091 50.8588 150.216 50.0545 150.466 49.3199C150.716 48.578 151.079 47.9353 151.557 47.3917C152.034 46.8481 152.618 46.4257 153.309 46.1245C153.999 45.816 154.785 45.6618 155.667 45.6618C156.563 45.6618 157.356 45.816 158.047 46.1245C158.745 46.4257 159.332 46.8481 159.81 47.3917C160.287 47.9353 160.651 48.578 160.901 49.3199C161.15 50.0545 161.275 50.8588 161.275 51.733V51.9644C161.275 52.8312 161.15 53.6355 160.901 54.3774C160.651 55.112 160.287 55.7547 159.81 56.3057C159.332 56.8493 158.748 57.2716 158.058 57.5728C157.367 57.874 156.578 58.0246 155.689 58.0246C154.807 58.0246 154.018 57.874 153.32 57.5728C152.622 57.2716 152.034 56.8493 151.557 56.3057C151.079 55.7547 150.716 55.112 150.466 54.3774C150.216 53.6355 150.091 52.8312 150.091 51.9644ZM153 51.733V51.9644C153 52.4859 153.052 52.9744 153.155 53.4298C153.257 53.8853 153.415 54.2856 153.628 54.6309C153.841 54.9761 154.117 55.2479 154.455 55.4462C154.8 55.6372 155.211 55.7327 155.689 55.7327C156.159 55.7327 156.563 55.6372 156.901 55.4462C157.239 55.2479 157.514 54.9761 157.727 54.6309C157.948 54.2856 158.109 53.8853 158.212 53.4298C158.315 52.9744 158.366 52.4859 158.366 51.9644V51.733C158.366 51.2188 158.315 50.7376 158.212 50.2896C158.109 49.8341 157.948 49.4338 157.727 49.0885C157.514 48.7359 157.235 48.4605 156.89 48.2621C156.552 48.0565 156.144 47.9536 155.667 47.9536C155.197 47.9536 154.793 48.0565 154.455 48.2621C154.117 48.4605 153.841 48.7359 153.628 49.0885C153.415 49.4338 153.257 49.8341 153.155 50.2896C153.052 50.7376 153 51.2188 153 51.733ZM169.253 52.7577H165.473L165.451 50.7854H168.559C169.021 50.7854 169.4 50.7376 169.693 50.6421C169.987 50.5467 170.204 50.4034 170.344 50.2124C170.49 50.0214 170.564 49.79 170.564 49.5183C170.564 49.2832 170.52 49.0812 170.432 48.9122C170.344 48.7359 170.211 48.5927 170.035 48.4825C169.866 48.3723 169.649 48.2915 169.385 48.2401C169.128 48.1813 168.827 48.152 168.481 48.152H166.509V57.8042H163.589V45.8821H168.481C169.253 45.8821 169.947 45.9519 170.564 46.0915C171.181 46.2237 171.706 46.4257 172.14 46.6975C172.573 46.9693 172.904 47.3145 173.131 47.7332C173.366 48.1446 173.484 48.6294 173.484 49.1877C173.484 49.555 173.403 49.9002 173.241 50.2234C173.08 50.5467 172.841 50.8331 172.525 51.0829C172.209 51.3326 171.82 51.5383 171.357 51.6999C170.894 51.8542 170.366 51.9497 169.771 51.9864L169.253 52.7577ZM169.253 57.8042H164.691L165.771 55.5344H169.253C169.679 55.5344 170.031 55.483 170.311 55.3801C170.59 55.2699 170.795 55.112 170.928 54.9063C171.067 54.7006 171.137 54.4509 171.137 54.1571C171.137 53.8706 171.071 53.6245 170.939 53.4188C170.814 53.2058 170.612 53.0442 170.333 52.934C170.061 52.8165 169.701 52.7577 169.253 52.7577H166.245L166.267 50.7854H169.76L170.531 51.5677C171.324 51.6191 171.982 51.7807 172.503 52.0525C173.025 52.317 173.414 52.6549 173.671 53.0662C173.928 53.4702 174.057 53.9147 174.057 54.3995C174.057 54.9651 173.95 55.4609 173.737 55.887C173.524 56.313 173.212 56.6693 172.801 56.9558C172.389 57.2349 171.886 57.4479 171.291 57.5948C170.696 57.7344 170.017 57.8042 169.253 57.8042ZM181.527 58.0246C180.624 58.0246 179.812 57.8777 179.092 57.5838C178.372 57.29 177.759 56.8823 177.252 56.3608C176.753 55.8319 176.367 55.2185 176.095 54.5207C175.831 53.8155 175.699 53.0589 175.699 52.2509V51.8101C175.699 50.8919 175.831 50.0582 176.095 49.3089C176.36 48.5523 176.734 47.9022 177.219 47.3586C177.704 46.815 178.284 46.3963 178.96 46.1025C179.636 45.8087 180.381 45.6618 181.197 45.6618C182.042 45.6618 182.787 45.805 183.434 46.0915C184.08 46.3706 184.62 46.7673 185.053 47.2815C185.487 47.7957 185.814 48.4127 186.034 49.1326C186.254 49.8451 186.365 50.6348 186.365 51.5016V52.7246H177.021V50.7193H183.5V50.4989C183.485 50.0361 183.397 49.6137 183.235 49.2318C183.074 48.8424 182.824 48.5339 182.486 48.3062C182.148 48.0712 181.711 47.9536 181.175 47.9536C180.741 47.9536 180.363 48.0491 180.04 48.2401C179.724 48.4237 179.46 48.6882 179.247 49.0334C179.041 49.3713 178.887 49.7754 178.784 50.2455C178.681 50.7156 178.63 51.2371 178.63 51.8101V52.2509C178.63 52.7504 178.696 53.2131 178.828 53.6392C178.967 54.0652 179.169 54.4362 179.434 54.7521C179.706 55.0606 180.029 55.303 180.404 55.4793C180.785 55.6482 181.219 55.7327 181.704 55.7327C182.313 55.7327 182.864 55.6152 183.356 55.3801C183.856 55.1377 184.289 54.7814 184.657 54.3113L186.122 55.8319C185.872 56.1992 185.534 56.5518 185.108 56.8897C184.69 57.2276 184.183 57.503 183.588 57.7161C182.993 57.9217 182.306 58.0246 181.527 58.0246ZM196.458 50.7744V53.0552H190.342V50.7744H196.458ZM191.257 45.8821V57.8042H188.337V45.8821H191.257ZM198.496 45.8821V57.8042H195.565V45.8821H198.496ZM203.212 49.5513H206.694C207.752 49.5513 208.651 49.7276 209.393 50.0802C210.143 50.4254 210.712 50.9103 211.101 51.5346C211.498 52.1517 211.696 52.8679 211.696 53.6833C211.696 54.2709 211.582 54.8182 211.355 55.325C211.134 55.8245 210.811 56.2616 210.385 56.6362C209.959 57.0035 209.434 57.29 208.809 57.4957C208.192 57.7014 207.487 57.8042 206.694 57.8042H201.339V45.8821H204.259V55.5234H206.694C207.201 55.5234 207.605 55.4389 207.906 55.2699C208.214 55.0936 208.435 54.8696 208.567 54.5978C208.706 54.3187 208.776 54.0212 208.776 53.7053C208.776 53.3821 208.706 53.0809 208.567 52.8018C208.435 52.5153 208.214 52.2839 207.906 52.1076C207.605 51.9313 207.201 51.8432 206.694 51.8432H203.212V49.5513Z" fill="white"/>
<defs>
<linearGradient id="paint0_linear_2_17" x1="0.0624989" y1="48.9335" x2="225.4" y2="49.7476" gradientUnits="userSpaceOnUse">
<stop offset="0.00462204" stop-color="#EF8B25"/>
<stop offset="0.078125" stop-color="#FFD94D"/>
<stop offset="0.28125" stop-color="#EF8B25"/>
</linearGradient>
</defs>
</svg>
