<svg width="343" height="152" viewBox="0 0 343 152" fill="none" xmlns="http://www.w3.org/2000/svg">
<path d="M0.638724 27.4628C0.638724 27.4628 -3.27227 2.94948 34.4645 0.304688H114.977V53.5802C114.977 53.5802 18.3914 74.1264 0.638724 27.4506V27.4628Z" fill="#E5A924"/>
<path d="M57.2257 151.966H342.691V42.611H57.2257C7.20425 37.4561 0.632812 26.1055 0.632812 26.1055V135.46C0.632812 135.46 7.19199 146.811 57.2257 151.966Z" fill="url(#paint0_linear_818_4015)"/>
<path d="M123.836 82.9141V112.773H118.196V82.9141H123.836ZM135.936 82.9141V112.773H130.296V82.9141H135.936ZM157.817 81.2734V112.773H152.383V81.2734H157.817ZM172.952 113.184C171.271 113.184 169.76 112.91 168.42 112.363C167.08 111.816 165.938 111.058 164.995 110.087C164.065 109.103 163.348 107.961 162.842 106.662C162.35 105.35 162.104 103.941 162.104 102.438V101.617C162.104 99.9082 162.35 98.3564 162.842 96.9619C163.334 95.5537 164.031 94.3438 164.934 93.332C165.836 92.3203 166.916 91.541 168.174 90.9941C169.432 90.4473 170.819 90.1738 172.337 90.1738C173.909 90.1738 175.297 90.4404 176.5 90.9736C177.703 91.4932 178.708 92.2314 179.515 93.1885C180.321 94.1455 180.93 95.2939 181.34 96.6338C181.75 97.96 181.955 99.4297 181.955 101.043V103.319H164.564V99.5869H176.623V99.1768C176.596 98.3154 176.432 97.5293 176.131 96.8184C175.83 96.0938 175.365 95.5195 174.736 95.0957C174.107 94.6582 173.294 94.4395 172.296 94.4395C171.489 94.4395 170.785 94.6172 170.184 94.9727C169.596 95.3145 169.104 95.8066 168.707 96.4492C168.324 97.0781 168.037 97.8301 167.846 98.7051C167.654 99.5801 167.559 100.551 167.559 101.617V102.438C167.559 103.367 167.682 104.229 167.928 105.021C168.188 105.814 168.563 106.505 169.056 107.093C169.562 107.667 170.163 108.118 170.86 108.446C171.571 108.761 172.378 108.918 173.28 108.918C174.415 108.918 175.44 108.699 176.356 108.262C177.286 107.811 178.093 107.147 178.776 106.272L181.504 109.103C181.039 109.786 180.41 110.442 179.617 111.071C178.838 111.7 177.895 112.213 176.787 112.609C175.68 112.992 174.401 113.184 172.952 113.184ZM192.66 108.672L197.828 90.584H203.488L195.88 112.773H192.435L192.66 108.672ZM188.887 90.584L194.116 108.713L194.301 112.773H190.835L183.206 90.584H188.887ZM216.019 113.184C214.337 113.184 212.826 112.91 211.486 112.363C210.146 111.816 209.005 111.058 208.062 110.087C207.132 109.103 206.414 107.961 205.908 106.662C205.416 105.35 205.17 103.941 205.17 102.438V101.617C205.17 99.9082 205.416 98.3564 205.908 96.9619C206.4 95.5537 207.098 94.3438 208 93.332C208.902 92.3203 209.982 91.541 211.24 90.9941C212.498 90.4473 213.886 90.1738 215.403 90.1738C216.976 90.1738 218.363 90.4404 219.566 90.9736C220.77 91.4932 221.774 92.2314 222.581 93.1885C223.388 94.1455 223.996 95.2939 224.406 96.6338C224.816 97.96 225.021 99.4297 225.021 101.043V103.319H207.631V99.5869H219.689V99.1768C219.662 98.3154 219.498 97.5293 219.197 96.8184C218.896 96.0938 218.432 95.5195 217.803 95.0957C217.174 94.6582 216.36 94.4395 215.362 94.4395C214.556 94.4395 213.852 94.6172 213.25 94.9727C212.662 95.3145 212.17 95.8066 211.773 96.4492C211.391 97.0781 211.104 97.8301 210.912 98.7051C210.721 99.5801 210.625 100.551 210.625 101.617V102.438C210.625 103.367 210.748 104.229 210.994 105.021C211.254 105.814 211.63 106.505 212.122 107.093C212.628 107.667 213.229 108.118 213.927 108.446C214.638 108.761 215.444 108.918 216.347 108.918C217.481 108.918 218.507 108.699 219.423 108.262C220.353 107.811 221.159 107.147 221.843 106.272L224.57 109.103C224.105 109.786 223.477 110.442 222.684 111.071C221.904 111.7 220.961 112.213 219.854 112.609C218.746 112.992 217.468 113.184 216.019 113.184ZM234.394 81.2734V112.773H228.959V81.2734H234.394Z" fill="white"/>
<defs>
<linearGradient id="paint0_linear_818_4015" x1="0.632814" y1="94.1765" x2="342.691" y2="89.023" gradientUnits="userSpaceOnUse">
<stop stop-color="#EBD114"/>
<stop offset="0.0989583" stop-color="#FFF76F"/>
<stop offset="0.255208" stop-color="#EBD114"/>
</linearGradient>
</defs>
</svg>
