<svg width="184" height="82" viewBox="0 0 184 82" fill="none" xmlns="http://www.w3.org/2000/svg">
<path d="M0.0619416 14.6098C0.0619416 14.6098 -2.03938 1.42278 18.236 0H61.4941V28.6598C61.4941 28.6598 9.6002 39.7127 0.0619416 14.6033V14.6098Z" fill="#E5A924"/>
<path d="M30.469 81.5859H183.845V22.7579H30.469C3.59324 19.9848 0.0625 13.8787 0.0625 13.8787V72.7066C0.0625 72.7066 3.58665 78.8128 30.469 81.5859Z" fill="url(#paint0_linear_2_10)"/>
<path d="M66.26 44.4809V60.5239H63.2299V44.4809H66.26ZM72.761 44.4809V60.5239H69.7309V44.4809H72.761ZM84.9254 59.2017L88.1208 48.6019H91.2391L86.457 62.331C86.3468 62.6248 86.2036 62.9443 86.0273 63.2896C85.8583 63.6348 85.6306 63.9617 85.3441 64.2702C85.0577 64.5861 84.6977 64.8432 84.2643 65.0415C83.8383 65.2399 83.3204 65.339 82.7107 65.339C82.4463 65.339 82.2112 65.3207 82.0055 65.2839C81.7998 65.2472 81.5831 65.1995 81.3554 65.1407V62.959C81.4289 62.9664 81.5134 62.97 81.6088 62.97C81.7117 62.9774 81.7998 62.9811 81.8733 62.9811C82.2993 62.9811 82.6519 62.9296 82.9311 62.8268C83.2102 62.7313 83.4343 62.5734 83.6032 62.353C83.7795 62.14 83.9264 61.8608 84.0439 61.5156L84.9254 59.2017ZM83.3498 48.6019L86.0493 57.3836L86.5231 60.4578L84.5177 60.8214L80.2095 48.6019H83.3498ZM95.5583 50.8937V65.1076H92.6384V48.6019H95.338L95.5583 50.8937ZM103.216 54.4417V54.6731C103.216 55.5399 103.113 56.3442 102.908 57.0861C102.709 57.8207 102.416 58.4635 102.026 59.0144C101.637 59.558 101.152 59.984 100.572 60.2925C99.9988 60.5937 99.3377 60.7443 98.5884 60.7443C97.8539 60.7443 97.2148 60.6047 96.6712 60.3256C96.1276 60.0391 95.6685 59.6351 95.2939 59.1136C94.9192 58.592 94.6181 57.986 94.3904 57.2955C94.17 56.5977 94.0047 55.8374 93.8945 55.0147V54.2764C94.0047 53.4023 94.17 52.6089 94.3904 51.8964C94.6181 51.1765 94.9192 50.5558 95.2939 50.0343C95.6685 49.5054 96.1239 49.0977 96.6602 48.8112C97.2038 48.5247 97.8392 48.3815 98.5664 48.3815C99.323 48.3815 99.9878 48.5247 100.561 48.8112C101.141 49.0977 101.63 49.5091 102.026 50.0453C102.423 50.5815 102.72 51.2206 102.919 51.9625C103.117 52.7044 103.216 53.5308 103.216 54.4417ZM100.296 54.6731V54.4417C100.296 53.9128 100.249 53.4243 100.153 52.9762C100.058 52.5208 99.9106 52.1241 99.7123 51.7862C99.514 51.441 99.2569 51.1729 98.941 50.9819C98.6252 50.7909 98.2432 50.6954 97.7951 50.6954C97.347 50.6954 96.9614 50.7688 96.6381 50.9158C96.3149 51.0627 96.0505 51.272 95.8448 51.5438C95.6391 51.8156 95.4775 52.1388 95.36 52.5134C95.2498 52.8807 95.1763 53.2884 95.1396 53.7365V55.5656C95.2057 56.1092 95.3343 56.5977 95.5253 57.031C95.7163 57.4644 95.9954 57.8097 96.3627 58.0668C96.7373 58.3239 97.2221 58.4524 97.8171 58.4524C98.2652 58.4524 98.6472 58.3533 98.9631 58.1549C99.2789 57.9566 99.536 57.6848 99.7344 57.3396C99.9327 56.987 100.076 56.583 100.164 56.1275C100.252 55.6721 100.296 55.1873 100.296 54.6731ZM104.825 54.6841V54.4527C104.825 53.5786 104.95 52.7742 105.2 52.0396C105.449 51.2977 105.813 50.655 106.29 50.1114C106.768 49.5678 107.352 49.1454 108.042 48.8443C108.733 48.5357 109.519 48.3815 110.4 48.3815C111.296 48.3815 112.09 48.5357 112.78 48.8443C113.478 49.1454 114.066 49.5678 114.543 50.1114C115.021 50.655 115.384 51.2977 115.634 52.0396C115.884 52.7742 116.009 53.5786 116.009 54.4527V54.6841C116.009 55.5509 115.884 56.3552 115.634 57.0972C115.384 57.8317 115.021 58.4745 114.543 59.0254C114.066 59.569 113.482 59.9914 112.791 60.2925C112.101 60.5937 111.311 60.7443 110.422 60.7443C109.541 60.7443 108.751 60.5937 108.053 60.2925C107.356 59.9914 106.768 59.569 106.29 59.0254C105.813 58.4745 105.449 57.8317 105.2 57.0972C104.95 56.3552 104.825 55.5509 104.825 54.6841ZM107.734 54.4527V54.6841C107.734 55.2056 107.785 55.6941 107.888 56.1496C107.991 56.605 108.149 57.0053 108.362 57.3506C108.575 57.6958 108.85 57.9676 109.188 58.166C109.534 58.3569 109.945 58.4524 110.422 58.4524C110.892 58.4524 111.296 58.3569 111.634 58.166C111.972 57.9676 112.248 57.6958 112.461 57.3506C112.681 57.0053 112.843 56.605 112.946 56.1496C113.048 55.6941 113.1 55.2056 113.1 54.6841V54.4527C113.1 53.9385 113.048 53.4574 112.946 53.0093C112.843 52.5538 112.681 52.1535 112.461 51.8083C112.248 51.4557 111.969 51.1802 111.623 50.9819C111.285 50.7762 110.878 50.6733 110.4 50.6733C109.93 50.6733 109.526 50.7762 109.188 50.9819C108.85 51.1802 108.575 51.4557 108.362 51.8083C108.149 52.1535 107.991 52.5538 107.888 53.0093C107.785 53.4574 107.734 53.9385 107.734 54.4527ZM123.986 55.4774H120.207L120.185 53.5051H123.292C123.755 53.5051 124.133 53.4574 124.427 53.3619C124.721 53.2664 124.937 53.1231 125.077 52.9321C125.224 52.7412 125.297 52.5098 125.297 52.238C125.297 52.0029 125.253 51.8009 125.165 51.632C125.077 51.4557 124.945 51.3124 124.768 51.2022C124.6 51.0921 124.383 51.0112 124.118 50.9598C123.861 50.9011 123.56 50.8717 123.215 50.8717H121.243V60.5239H118.323V48.6019H123.215C123.986 48.6019 124.68 48.6716 125.297 48.8112C125.914 48.9434 126.44 49.1454 126.873 49.4172C127.306 49.689 127.637 50.0343 127.865 50.453C128.1 50.8643 128.217 51.3492 128.217 51.9074C128.217 52.2747 128.136 52.62 127.975 52.9432C127.813 53.2664 127.575 53.5529 127.259 53.8026C126.943 54.0524 126.553 54.258 126.091 54.4197C125.628 54.5739 125.099 54.6694 124.504 54.7061L123.986 55.4774ZM123.986 60.5239H119.424L120.504 58.2541H123.986C124.412 58.2541 124.765 58.2027 125.044 58.0998C125.323 57.9897 125.529 57.8317 125.661 57.626C125.801 57.4204 125.87 57.1706 125.87 56.8768C125.87 56.5903 125.804 56.3442 125.672 56.1385C125.547 55.9255 125.345 55.7639 125.066 55.6537C124.794 55.5362 124.434 55.4774 123.986 55.4774H120.978L121 53.5051H124.493L125.264 54.2874C126.058 54.3388 126.715 54.5005 127.237 54.7722C127.758 55.0367 128.148 55.3746 128.405 55.786C128.662 56.19 128.79 56.6344 128.79 57.1192C128.79 57.6848 128.684 58.1806 128.471 58.6067C128.258 59.0327 127.945 59.389 127.534 59.6755C127.123 59.9546 126.62 60.1677 126.025 60.3146C125.43 60.4541 124.75 60.5239 123.986 60.5239ZM136.261 60.7443C135.357 60.7443 134.546 60.5974 133.826 60.3036C133.106 60.0097 132.492 59.602 131.986 59.0805C131.486 58.5516 131.1 57.9382 130.829 57.2404C130.564 56.5352 130.432 55.7786 130.432 54.9706V54.5298C130.432 53.6116 130.564 52.7779 130.829 52.0286C131.093 51.272 131.468 50.6219 131.953 50.0783C132.437 49.5348 133.018 49.1161 133.694 48.8222C134.369 48.5284 135.115 48.3815 135.93 48.3815C136.775 48.3815 137.521 48.5247 138.167 48.8112C138.813 49.0903 139.353 49.487 139.787 50.0012C140.22 50.5154 140.547 51.1325 140.767 51.8523C140.988 52.5649 141.098 53.3545 141.098 54.2213V55.4444H131.754V53.439H138.233V53.2186C138.218 52.7559 138.13 52.3335 137.969 51.9515C137.807 51.5622 137.557 51.2537 137.219 51.0259C136.882 50.7909 136.444 50.6733 135.908 50.6733C135.475 50.6733 135.097 50.7688 134.773 50.9598C134.457 51.1435 134.193 51.4079 133.98 51.7532C133.774 52.0911 133.62 52.4951 133.517 52.9652C133.414 53.4353 133.363 53.9569 133.363 54.5298V54.9706C133.363 55.4701 133.429 55.9329 133.561 56.3589C133.701 56.785 133.903 57.1559 134.167 57.4718C134.439 57.7803 134.762 58.0227 135.137 58.199C135.519 58.368 135.952 58.4524 136.437 58.4524C137.047 58.4524 137.598 58.3349 138.09 58.0998C138.589 57.8574 139.023 57.5012 139.39 57.031L140.856 58.5516C140.606 58.9189 140.268 59.2715 139.842 59.6094C139.423 59.9473 138.916 60.2228 138.321 60.4358C137.726 60.6415 137.039 60.7443 136.261 60.7443ZM151.191 53.4941V55.7749H145.076V53.4941H151.191ZM145.99 48.6019V60.5239H143.07V48.6019H145.99ZM153.229 48.6019V60.5239H150.298V48.6019H153.229ZM157.945 52.271H161.427C162.485 52.271 163.385 52.4473 164.127 52.7999C164.876 53.1452 165.445 53.63 165.835 54.2544C166.231 54.8714 166.43 55.5876 166.43 56.403C166.43 56.9906 166.316 57.5379 166.088 58.0448C165.868 58.5443 165.544 58.9813 165.118 59.356C164.692 59.7232 164.167 60.0097 163.543 60.2154C162.926 60.4211 162.221 60.5239 161.427 60.5239H156.072V48.6019H158.992V58.2431H161.427C161.934 58.2431 162.338 58.1586 162.639 57.9897C162.948 57.8134 163.168 57.5893 163.3 57.3175C163.44 57.0384 163.51 56.7409 163.51 56.425C163.51 56.1018 163.44 55.8006 163.3 55.5215C163.168 55.235 162.948 55.0036 162.639 54.8273C162.338 54.651 161.934 54.5629 161.427 54.5629H157.945V52.271Z" fill="white"/>
<defs>
<linearGradient id="paint0_linear_2_10" x1="0.062501" y1="50.4977" x2="183.845" y2="47.7323" gradientUnits="userSpaceOnUse">
<stop stop-color="#EBD114"/>
<stop offset="0.0989583" stop-color="#FFF76F"/>
<stop offset="0.255208" stop-color="#EBD114"/>
</linearGradient>
</defs>
</svg>
