<svg width="250" height="153" viewBox="0 0 250 153" fill="none" xmlns="http://www.w3.org/2000/svg">
<path d="M0.638724 27.6445C0.638724 27.6445 -3.27227 3.13113 34.4645 0.486328H114.977V53.7618C114.977 53.7618 18.3914 74.308 0.638724 27.6322V27.6445Z" fill="#4C7C43"/>
<path d="M57.2256 152.146H249.134V42.7907H57.2256C7.20425 37.6357 0.632812 26.2852 0.632812 26.2852V135.64C0.632812 135.64 7.19199 146.991 57.2256 152.146Z" fill="url(#paint0_linear_818_4018)"/>
<path d="M35.31 84H40.05V105H35.31V84ZM73.5984 82.29V85.5H69.1584V105H64.5384V102.18C63.4284 104.19 61.5684 105.18 59.1384 105.18C55.5984 105.18 53.3184 102.81 53.3184 99V88.86H57.9384V97.68C57.9384 99.72 59.1084 100.98 60.9984 100.95C63.2184 100.92 64.5384 99.18 64.5384 96.84V82.29H73.5984ZM94.0477 88.86H98.6377V105H94.0477V102.45C93.0577 104.28 91.4677 105.18 89.3077 105.18C86.7877 105.18 84.9577 103.77 84.2377 101.34C83.3077 103.92 81.4177 105.18 78.8677 105.18C75.5977 105.18 73.7677 102.81 73.7677 99V88.86H78.3877V97.68C78.3877 99.72 79.2277 100.98 80.8477 100.98C82.7977 100.92 83.9377 99.21 83.9377 96.84V88.86H88.5277V97.68C88.5277 99.72 89.2477 100.98 90.9877 100.98C92.7877 100.92 93.8677 99.51 94.0477 97.5V88.86ZM114.05 88.86H118.67V111.33H114.05V102.18C112.94 104.19 111.08 105.18 108.65 105.18C105.11 105.18 102.83 102.81 102.83 99V82.29H107.45V97.68C107.45 99.72 108.62 100.95 110.51 100.95C112.73 100.92 114.05 99.18 114.05 96.84V88.86ZM143.149 88.86H147.739V105H143.149V102.45C142.159 104.28 140.569 105.18 138.409 105.18C135.889 105.18 134.059 103.77 133.339 101.34C132.409 103.92 130.519 105.18 127.969 105.18C124.699 105.18 122.869 102.81 122.869 99V88.86H127.489V97.68C127.489 99.72 128.329 100.98 129.949 100.98C131.899 100.92 133.039 99.21 133.039 96.84V88.86H137.629V97.68C137.629 99.72 138.349 100.98 140.089 100.98C141.889 100.92 142.969 99.51 143.149 97.5V88.86ZM162.462 88.68C166.092 88.68 168.402 91.08 168.402 94.86V105H163.782V96.21C163.782 94.17 162.582 92.91 160.602 92.91C158.502 92.94 157.122 94.41 156.912 96.45V111.33H152.292V88.86H156.912V91.68C158.052 89.67 159.972 88.71 162.462 88.68ZM193.144 101.79V105H188.704V111.33H184.084V96.21C184.084 94.17 182.884 92.91 180.904 92.91C178.804 92.94 177.424 94.41 177.214 96.45V105H172.594V88.86H177.214V91.68C178.354 89.67 180.274 88.71 182.764 88.68C186.394 88.68 188.704 91.08 188.704 94.86V101.79H193.144ZM214.927 88.86H219.517V105H214.927V102.45C213.937 104.28 212.347 105.18 210.187 105.18C207.667 105.18 205.837 103.77 205.117 101.34C204.187 103.92 202.297 105.18 199.747 105.18C196.477 105.18 194.647 102.81 194.647 99V88.86H199.267V97.68C199.267 99.72 200.107 100.98 201.727 100.98C203.677 100.92 204.817 99.21 204.817 96.84V88.86H209.407V97.68C209.407 99.72 210.127 100.98 211.867 100.98C213.667 100.92 214.747 99.51 214.927 97.5V88.86ZM234.929 88.86H239.549V111.33H234.929V102.18C233.819 104.19 231.959 105.18 229.529 105.18C225.989 105.18 223.709 102.81 223.709 99V82.29H228.329V97.68C228.329 99.72 229.499 100.95 231.389 100.95C233.609 100.92 234.929 99.18 234.929 96.84V88.86Z" fill="white"/>
<defs>
<linearGradient id="paint0_linear_818_4018" x1="0.632813" y1="110.481" x2="249.134" y2="108.205" gradientUnits="userSpaceOnUse">
<stop stop-color="#67AE45"/>
<stop offset="0.130208" stop-color="#85E855"/>
<stop offset="0.369792" stop-color="#67AE45"/>
</linearGradient>
</defs>
</svg>
