<svg width="429" height="149" viewBox="0 0 429 149" fill="none" xmlns="http://www.w3.org/2000/svg">
<path d="M0.638724 27.8495C0.638724 27.8495 -3.27227 3.3362 34.4645 0.691406H114.977V53.9669C114.977 53.9669 18.3914 74.5131 0.638724 27.8373V27.8495Z" fill="#E87500"/>
<path d="M57.2257 148.736H428.659V39.3805H57.2257C7.20426 34.2256 0.632812 22.875 0.632812 22.875V132.23C0.632812 132.23 7.19199 143.581 57.2257 148.736Z" fill="url(#paint0_linear_818_4020)"/>
<path d="M118.31 84H123.05V105H118.31V84ZM127.714 84H132.454V105H127.714V84ZM137.119 84H141.859V105H137.119V84ZM175.407 82.29V85.5H170.967V105H166.347V102.18C165.237 104.19 163.377 105.18 160.947 105.18C157.407 105.18 155.127 102.81 155.127 99V88.86H159.747V97.68C159.747 99.72 160.917 100.98 162.807 100.95C165.027 100.92 166.347 99.18 166.347 96.84V82.29H175.407ZM195.856 88.86H200.446V105H195.856V102.45C194.866 104.28 193.276 105.18 191.116 105.18C188.596 105.18 186.766 103.77 186.046 101.34C185.116 103.92 183.226 105.18 180.676 105.18C177.406 105.18 175.576 102.81 175.576 99V88.86H180.196V97.68C180.196 99.72 181.036 100.98 182.656 100.98C184.606 100.92 185.746 99.21 185.746 96.84V88.86H190.336V97.68C190.336 99.72 191.056 100.98 192.796 100.98C194.596 100.92 195.676 99.51 195.856 97.5V88.86ZM215.859 88.86H220.479V111.33H215.859V102.18C214.749 104.19 212.889 105.18 210.459 105.18C206.919 105.18 204.639 102.81 204.639 99V82.29H209.259V97.68C209.259 99.72 210.429 100.95 212.319 100.95C214.539 100.92 215.859 99.18 215.859 96.84V88.86ZM244.958 88.86H249.548V105H244.958V102.45C243.968 104.28 242.378 105.18 240.218 105.18C237.698 105.18 235.868 103.77 235.148 101.34C234.218 103.92 232.328 105.18 229.778 105.18C226.508 105.18 224.678 102.81 224.678 99V88.86H229.298V97.68C229.298 99.72 230.138 100.98 231.758 100.98C233.708 100.92 234.848 99.21 234.848 96.84V88.86H239.438V97.68C239.438 99.72 240.158 100.98 241.898 100.98C243.698 100.92 244.778 99.51 244.958 97.5V88.86ZM264.27 88.68C267.9 88.68 270.21 91.08 270.21 94.86V105H265.59V96.21C265.59 94.17 264.39 92.91 262.41 92.91C260.31 92.94 258.93 94.41 258.72 96.45V111.33H254.1V88.86H258.72V91.68C259.86 89.67 261.78 88.71 264.27 88.68ZM294.953 101.79V105H290.513V111.33H285.893V96.21C285.893 94.17 284.693 92.91 282.713 92.91C280.613 92.94 279.233 94.41 279.023 96.45V105H274.403V88.86H279.023V91.68C280.163 89.67 282.083 88.71 284.573 88.68C288.203 88.68 290.513 91.08 290.513 94.86V101.79H294.953ZM316.735 88.86H321.325V105H316.735V102.45C315.745 104.28 314.155 105.18 311.995 105.18C309.475 105.18 307.645 103.77 306.925 101.34C305.995 103.92 304.105 105.18 301.555 105.18C298.285 105.18 296.455 102.81 296.455 99V88.86H301.075V97.68C301.075 99.72 301.915 100.98 303.535 100.98C305.485 100.92 306.625 99.21 306.625 96.84V88.86H311.215V97.68C311.215 99.72 311.935 100.98 313.675 100.98C315.475 100.92 316.555 99.51 316.735 97.5V88.86ZM336.738 88.86H341.358V111.33H336.738V102.18C335.628 104.19 333.768 105.18 331.338 105.18C327.798 105.18 325.518 102.81 325.518 99V82.29H330.138V97.68C330.138 99.72 331.308 100.95 333.198 100.95C335.418 100.92 336.738 99.18 336.738 96.84V88.86Z" fill="white"/>
<defs>
<linearGradient id="paint0_linear_818_4020" x1="0.63281" y1="91.656" x2="420.034" y2="93.173" gradientUnits="userSpaceOnUse">
<stop offset="0.00462204" stop-color="#EF8B25"/>
<stop offset="0.078125" stop-color="#FFD94D"/>
<stop offset="0.28125" stop-color="#EF8B25"/>
</linearGradient>
</defs>
</svg>
