<svg width="511" height="151" viewBox="0 0 511 151" fill="none" xmlns="http://www.w3.org/2000/svg">
<path d="M57.2256 150.716H510.851V41.361H57.2256C7.20426 36.2061 0.632812 24.8555 0.632812 24.8555V134.21C0.632812 134.21 7.19199 145.561 57.2256 150.716Z" fill="url(#paint0_linear_818_4023)"/>
<path d="M0.638724 27.9492C0.638724 27.9492 -3.27227 3.43581 34.4645 0.791016H114.977V54.0666C114.977 54.0666 18.3914 74.6127 0.638724 27.9369V27.9492Z" fill="#D52E00"/>
<path d="M199.31 87H204.05V108H199.31V87ZM206.404 87H211.504L217.234 102.84L222.994 87H227.884L219.544 108H214.654L206.404 87ZM259.073 85.29V88.5H254.633V108H250.013V105.18C248.903 107.19 247.043 108.18 244.613 108.18C241.073 108.18 238.793 105.81 238.793 102V91.86H243.413V100.68C243.413 102.72 244.583 103.98 246.473 103.95C248.693 103.92 250.013 102.18 250.013 99.84V85.29H259.073ZM279.522 91.86H284.112V108H279.522V105.45C278.532 107.28 276.942 108.18 274.782 108.18C272.262 108.18 270.432 106.77 269.712 104.34C268.782 106.92 266.892 108.18 264.342 108.18C261.072 108.18 259.242 105.81 259.242 102V91.86H263.862V100.68C263.862 102.72 264.702 103.98 266.322 103.98C268.272 103.92 269.412 102.21 269.412 99.84V91.86H274.002V100.68C274.002 102.72 274.722 103.98 276.462 103.98C278.262 103.92 279.342 102.51 279.522 100.5V91.86ZM299.525 91.86H304.145V114.33H299.525V105.18C298.415 107.19 296.555 108.18 294.125 108.18C290.585 108.18 288.305 105.81 288.305 102V85.29H292.925V100.68C292.925 102.72 294.095 103.95 295.985 103.95C298.205 103.92 299.525 102.18 299.525 99.84V91.86ZM328.624 91.86H333.214V108H328.624V105.45C327.634 107.28 326.044 108.18 323.884 108.18C321.364 108.18 319.534 106.77 318.814 104.34C317.884 106.92 315.994 108.18 313.444 108.18C310.174 108.18 308.344 105.81 308.344 102V91.86H312.964V100.68C312.964 102.72 313.804 103.98 315.424 103.98C317.374 103.92 318.514 102.21 318.514 99.84V91.86H323.104V100.68C323.104 102.72 323.824 103.98 325.564 103.98C327.364 103.92 328.444 102.51 328.624 100.5V91.86ZM347.936 91.68C351.566 91.68 353.876 94.08 353.876 97.86V108H349.256V99.21C349.256 97.17 348.056 95.91 346.076 95.91C343.976 95.94 342.596 97.41 342.386 99.45V114.33H337.766V91.86H342.386V94.68C343.526 92.67 345.446 91.71 347.936 91.68ZM378.619 104.79V108H374.179V114.33H369.559V99.21C369.559 97.17 368.359 95.91 366.379 95.91C364.279 95.94 362.899 97.41 362.689 99.45V108H358.069V91.86H362.689V94.68C363.829 92.67 365.749 91.71 368.239 91.68C371.869 91.68 374.179 94.08 374.179 97.86V104.79H378.619ZM400.401 91.86H404.991V108H400.401V105.45C399.411 107.28 397.821 108.18 395.661 108.18C393.141 108.18 391.311 106.77 390.591 104.34C389.661 106.92 387.771 108.18 385.221 108.18C381.951 108.18 380.121 105.81 380.121 102V91.86H384.741V100.68C384.741 102.72 385.581 103.98 387.201 103.98C389.151 103.92 390.291 102.21 390.291 99.84V91.86H394.881V100.68C394.881 102.72 395.601 103.98 397.341 103.98C399.141 103.92 400.221 102.51 400.401 100.5V91.86ZM420.404 91.86H425.024V114.33H420.404V105.18C419.294 107.19 417.434 108.18 415.004 108.18C411.464 108.18 409.184 105.81 409.184 102V85.29H413.804V100.68C413.804 102.72 414.974 103.95 416.864 103.95C419.084 103.92 420.404 102.18 420.404 99.84V91.86Z" fill="white"/>
<defs>
<linearGradient id="paint0_linear_818_4023" x1="0.632813" y1="87.7858" x2="510.851" y2="87.7857" gradientUnits="userSpaceOnUse">
<stop stop-color="#F05328"/>
<stop offset="0.0692012" stop-color="#FF9E84"/>
<stop offset="0.288955" stop-color="#F05328"/>
</linearGradient>
</defs>
</svg>
