<svg width="275" height="82" viewBox="0 0 275 82" fill="none" xmlns="http://www.w3.org/2000/svg">
<path d="M0.827567 15.2207C0.827567 15.2207 -1.27375 2.03368 19.0016 0.610901H62.2598V29.2707C62.2598 29.2707 10.3658 40.3236 0.827567 15.2142V15.2207Z" fill="#D52E00"/>
<path d="M31.2424 81.265H274.969V22.437H31.2424C4.36668 19.6639 0.835938 13.5578 0.835938 13.5578V72.3858C0.835938 72.3858 4.36009 78.4919 31.2424 81.265Z" fill="url(#paint0_linear_2_21)"/>
<path d="M148.651 43.351V59.394H145.621V43.351H148.651ZM157.565 56.2538L161.564 43.351H164.925L159.261 59.394H157.025L157.565 56.2538ZM153.873 43.351L157.851 56.2538L158.424 59.394H156.165L150.524 43.351H153.873ZM175.47 58.0718L178.665 47.472H181.783L177.001 61.2011C176.891 61.4949 176.748 61.8145 176.572 62.1597C176.403 62.5049 176.175 62.8318 175.888 63.1403C175.602 63.4562 175.242 63.7133 174.809 63.9116C174.383 64.11 173.865 64.2091 173.255 64.2091C172.991 64.2091 172.756 64.1908 172.55 64.1541C172.344 64.1173 172.127 64.0696 171.9 64.0108V61.8291C171.973 61.8365 172.058 61.8402 172.153 61.8402C172.256 61.8475 172.344 61.8512 172.418 61.8512C172.844 61.8512 173.196 61.7998 173.475 61.6969C173.755 61.6014 173.979 61.4435 174.148 61.2231C174.324 61.0101 174.471 60.731 174.588 60.3857L175.47 58.0718ZM173.894 47.472L176.594 56.2538L177.067 59.3279L175.062 59.6915L170.754 47.472H173.894ZM186.103 49.7638V63.9778H183.183V47.472H185.882L186.103 49.7638ZM193.761 53.3118V53.5432C193.761 54.41 193.658 55.2143 193.452 55.9563C193.254 56.6908 192.96 57.3336 192.571 57.8845C192.181 58.4281 191.696 58.8541 191.116 59.1627C190.543 59.4638 189.882 59.6144 189.133 59.6144C188.398 59.6144 187.759 59.4748 187.216 59.1957C186.672 58.9092 186.213 58.5052 185.838 57.9837C185.464 57.4621 185.162 56.8561 184.935 56.1656C184.714 55.4678 184.549 54.7075 184.439 53.8848V53.1465C184.549 52.2724 184.714 51.4791 184.935 50.7665C185.162 50.0466 185.464 49.4259 185.838 48.9044C186.213 48.3755 186.668 47.9678 187.205 47.6813C187.748 47.3948 188.384 47.2516 189.111 47.2516C189.867 47.2516 190.532 47.3948 191.105 47.6813C191.685 47.9678 192.174 48.3792 192.571 48.9154C192.967 49.4516 193.265 50.0907 193.463 50.8326C193.661 51.5745 193.761 52.4009 193.761 53.3118ZM190.841 53.5432V53.3118C190.841 52.7829 190.793 52.2944 190.697 51.8463C190.602 51.3909 190.455 50.9942 190.257 50.6563C190.058 50.3111 189.801 50.043 189.485 49.852C189.169 49.661 188.788 49.5655 188.339 49.5655C187.891 49.5655 187.506 49.639 187.182 49.7859C186.859 49.9328 186.595 50.1421 186.389 50.4139C186.183 50.6857 186.022 51.0089 185.904 51.3836C185.794 51.7508 185.721 52.1585 185.684 52.6066V54.4357C185.75 54.9793 185.879 55.4678 186.07 55.9012C186.261 56.3346 186.54 56.6798 186.907 56.9369C187.282 57.194 187.766 57.3226 188.361 57.3226C188.81 57.3226 189.192 57.2234 189.507 57.0251C189.823 56.8267 190.08 56.5549 190.279 56.2097C190.477 55.8571 190.62 55.4531 190.708 54.9976C190.797 54.5422 190.841 54.0574 190.841 53.5432ZM195.369 53.5542V53.3228C195.369 52.4487 195.494 51.6443 195.744 50.9098C195.994 50.1678 196.357 49.5251 196.835 48.9815C197.312 48.4379 197.896 48.0156 198.587 47.7144C199.277 47.4059 200.063 47.2516 200.945 47.2516C201.841 47.2516 202.634 47.4059 203.325 47.7144C204.022 48.0156 204.61 48.4379 205.088 48.9815C205.565 49.5251 205.929 50.1678 206.178 50.9098C206.428 51.6443 206.553 52.4487 206.553 53.3228V53.5542C206.553 54.421 206.428 55.2254 206.178 55.9673C205.929 56.7018 205.565 57.3446 205.088 57.8955C204.61 58.4391 204.026 58.8615 203.336 59.1627C202.645 59.4638 201.856 59.6144 200.967 59.6144C200.085 59.6144 199.296 59.4638 198.598 59.1627C197.9 58.8615 197.312 58.4391 196.835 57.8955C196.357 57.3446 195.994 56.7018 195.744 55.9673C195.494 55.2254 195.369 54.421 195.369 53.5542ZM198.278 53.3228V53.5542C198.278 54.0758 198.33 54.5642 198.432 55.0197C198.535 55.4751 198.693 55.8755 198.906 56.2207C199.119 56.5659 199.395 56.8377 199.733 57.0361C200.078 57.2271 200.489 57.3226 200.967 57.3226C201.437 57.3226 201.841 57.2271 202.179 57.0361C202.517 56.8377 202.792 56.5659 203.005 56.2207C203.225 55.8755 203.387 55.4751 203.49 55.0197C203.593 54.5642 203.644 54.0758 203.644 53.5542V53.3228C203.644 52.8086 203.593 52.3275 203.49 51.8794C203.387 51.424 203.225 51.0236 203.005 50.6784C202.792 50.3258 202.513 50.0503 202.168 49.852C201.83 49.6463 201.422 49.5435 200.945 49.5435C200.475 49.5435 200.071 49.6463 199.733 49.852C199.395 50.0503 199.119 50.3258 198.906 50.6784C198.693 51.0236 198.535 51.424 198.432 51.8794C198.33 52.3275 198.278 52.8086 198.278 53.3228ZM214.531 54.3475H210.751L210.729 52.3752H213.836C214.299 52.3752 214.677 52.3275 214.971 52.232C215.265 52.1365 215.482 51.9933 215.621 51.8023C215.768 51.6113 215.842 51.3799 215.842 51.1081C215.842 50.873 215.798 50.671 215.71 50.5021C215.621 50.3258 215.489 50.1825 215.313 50.0724C215.144 49.9622 214.927 49.8814 214.663 49.8299C214.406 49.7712 214.104 49.7418 213.759 49.7418H211.787V59.394H208.867V47.472H213.759C214.531 47.472 215.225 47.5418 215.842 47.6813C216.459 47.8136 216.984 48.0156 217.417 48.2873C217.851 48.5591 218.181 48.9044 218.409 49.3231C218.644 49.7345 218.762 50.2193 218.762 50.7775C218.762 51.1448 218.681 51.4901 218.519 51.8133C218.358 52.1365 218.119 52.423 217.803 52.6727C217.487 52.9225 217.098 53.1282 216.635 53.2898C216.172 53.444 215.643 53.5395 215.048 53.5763L214.531 54.3475ZM214.531 59.394H209.969L211.049 57.1242H214.531C214.957 57.1242 215.309 57.0728 215.588 56.97C215.867 56.8598 216.073 56.7018 216.205 56.4962C216.345 56.2905 216.415 56.0407 216.415 55.7469C216.415 55.4604 216.349 55.2143 216.216 55.0087C216.091 54.7956 215.889 54.634 215.61 54.5238C215.339 54.4063 214.979 54.3475 214.531 54.3475H211.522L211.544 52.3752H215.037L215.809 53.1575C216.602 53.209 217.259 53.3706 217.781 53.6424C218.303 53.9068 218.692 54.2447 218.949 54.6561C219.206 55.0601 219.335 55.5045 219.335 55.9893C219.335 56.5549 219.228 57.0508 219.015 57.4768C218.802 57.9029 218.49 58.2591 218.078 58.5456C217.667 58.8248 217.164 59.0378 216.569 59.1847C215.974 59.3243 215.294 59.394 214.531 59.394ZM226.805 59.6144C225.902 59.6144 225.09 59.4675 224.37 59.1737C223.65 58.8798 223.037 58.4722 222.53 57.9506C222.03 57.4217 221.645 56.8084 221.373 56.1105C221.109 55.4053 220.976 54.6487 220.976 53.8407V53.4C220.976 52.4817 221.109 51.648 221.373 50.8987C221.637 50.1421 222.012 49.492 222.497 48.9485C222.982 48.4049 223.562 47.9862 224.238 47.6923C224.914 47.3985 225.659 47.2516 226.475 47.2516C227.319 47.2516 228.065 47.3948 228.711 47.6813C229.358 47.9605 229.898 48.3571 230.331 48.8713C230.765 49.3855 231.091 50.0026 231.312 50.7224C231.532 51.435 231.642 52.2246 231.642 53.0914V54.3145H222.299V52.3091H228.777V52.0887C228.763 51.626 228.675 51.2036 228.513 50.8216C228.351 50.4323 228.102 50.1238 227.764 49.8961C227.426 49.661 226.989 49.5435 226.453 49.5435C226.019 49.5435 225.641 49.639 225.318 49.8299C225.002 50.0136 224.737 50.278 224.524 50.6233C224.319 50.9612 224.164 51.3652 224.062 51.8353C223.959 52.3054 223.907 52.827 223.907 53.4V53.8407C223.907 54.3402 223.973 54.803 224.106 55.229C224.245 55.6551 224.447 56.026 224.712 56.3419C224.983 56.6504 225.307 56.8928 225.681 57.0691C226.063 57.2381 226.497 57.3226 226.981 57.3226C227.591 57.3226 228.142 57.205 228.634 56.97C229.134 56.7276 229.567 56.3713 229.934 55.9012L231.4 57.4217C231.15 57.789 230.812 58.1416 230.386 58.4795C229.967 58.8174 229.461 59.0929 228.866 59.3059C228.271 59.5116 227.584 59.6144 226.805 59.6144ZM241.735 52.3642V54.645H235.62V52.3642H241.735ZM236.535 47.472V59.394H233.615V47.472H236.535ZM243.774 47.472V59.394H240.843V47.472H243.774ZM248.49 51.1412H251.972C253.029 51.1412 253.929 51.3174 254.671 51.67C255.42 52.0153 255.99 52.5001 256.379 53.1245C256.776 53.7415 256.974 54.4577 256.974 55.2731C256.974 55.8608 256.86 56.408 256.632 56.9149C256.412 57.4144 256.089 57.8514 255.663 58.2261C255.237 58.5934 254.711 58.8798 254.087 59.0855C253.47 59.2912 252.765 59.394 251.972 59.394H246.617V47.472H249.536V57.1132H251.972C252.478 57.1132 252.882 57.0287 253.184 56.8598C253.492 56.6835 253.712 56.4594 253.845 56.1876C253.984 55.9085 254.054 55.611 254.054 55.2951C254.054 54.9719 253.984 54.6708 253.845 54.3916C253.712 54.1051 253.492 53.8738 253.184 53.6975C252.882 53.5212 252.478 53.433 251.972 53.433H248.49V51.1412Z" fill="white"/>
<defs>
<linearGradient id="paint0_linear_2_21" x1="0.835938" y1="47.4114" x2="274.969" y2="47.4114" gradientUnits="userSpaceOnUse">
<stop stop-color="#F05328"/>
<stop offset="0.0692012" stop-color="#FF9E84"/>
<stop offset="0.288955" stop-color="#F05328"/>
</linearGradient>
</defs>
</svg>
