    <svg
      width="135"
      height="82"
      viewBox="0 0 135 82"
      fill="none"
      xmlns="http://www.w3.org/2000/svg"
    >
      <path
        d="M1.06144 12.6909C1.06144 12.6909 -1.02299 1.2359 19.0895 0H62V24.8954C62 24.8954 10.5231 34.4965 1.06144 12.6852V12.6909Z"
        fill="#4C7C43"
      />
      <path
        d="M31.2346 81.568H134.344V22.74H31.2346C4.35886 19.9669 0.828125 13.8608 0.828125 13.8608V72.6888C0.828125 72.6888 4.35228 78.7949 31.2346 81.568Z"
        fill="url(#paint0_linear_2_6)"
      />
      <path
        d="M22.76 44.957V61H19.7299V44.957H22.76ZM34.9245 59.6778L38.1199 49.0779H41.2381L36.4561 62.807C36.3459 63.1009 36.2026 63.4204 36.0263 63.7657C35.8574 64.1109 35.6297 64.4378 35.3432 64.7463C35.0567 65.0622 34.6968 65.3193 34.2634 65.5176C33.8373 65.7159 33.3195 65.8151 32.7098 65.8151C32.4453 65.8151 32.2103 65.7967 32.0046 65.76C31.7989 65.7233 31.5822 65.6755 31.3545 65.6168V63.4351C31.4279 63.4424 31.5124 63.4461 31.6079 63.4461C31.7107 63.4535 31.7989 63.4571 31.8723 63.4571C32.2984 63.4571 32.651 63.4057 32.9301 63.3029C33.2093 63.2074 33.4333 63.0494 33.6023 62.8291C33.7786 62.6161 33.9255 62.3369 34.043 61.9917L34.9245 59.6778ZM33.3488 49.0779L36.0484 57.8597L36.5222 60.9339L34.5168 61.2975L30.2085 49.0779H33.3488ZM45.5574 51.3698V65.5837H42.6375V49.0779H45.337L45.5574 51.3698ZM53.2153 54.9178V55.1492C53.2153 56.0159 53.1124 56.8203 52.9068 57.5622C52.7084 58.2968 52.4146 58.9395 52.0253 59.4905C51.6359 60.034 51.1511 60.4601 50.5708 60.7686C49.9979 61.0698 49.3367 61.2204 48.5875 61.2204C47.8529 61.2204 47.2138 61.0808 46.6703 60.8017C46.1267 60.5152 45.6676 60.1112 45.2929 59.5896C44.9183 59.0681 44.6171 58.4621 44.3894 57.7716C44.169 57.0737 44.0038 56.3134 43.8936 55.4907V54.7525C44.0038 53.8783 44.169 53.085 44.3894 52.3725C44.6171 51.6526 44.9183 51.0319 45.2929 50.5103C45.6676 49.9815 46.123 49.5738 46.6592 49.2873C47.2028 49.0008 47.8382 48.8576 48.5654 48.8576C49.3221 48.8576 49.9868 49.0008 50.5598 49.2873C51.1401 49.5738 51.6286 49.9851 52.0253 50.5214C52.4219 51.0576 52.7194 51.6967 52.9178 52.4386C53.1161 53.1805 53.2153 54.0069 53.2153 54.9178ZM50.2954 55.1492V54.9178C50.2954 54.3889 50.2476 53.9004 50.1521 53.4523C50.0566 52.9969 49.9097 52.6002 49.7114 52.2623C49.513 51.917 49.2559 51.6489 48.9401 51.4579C48.6242 51.267 48.2422 51.1715 47.7941 51.1715C47.3461 51.1715 46.9604 51.2449 46.6372 51.3918C46.314 51.5387 46.0495 51.7481 45.8439 52.0199C45.6382 52.2917 45.4766 52.6149 45.359 52.9895C45.2489 53.3568 45.1754 53.7645 45.1387 54.2126V56.0417C45.2048 56.5852 45.3333 57.0737 45.5243 57.5071C45.7153 57.9405 45.9945 58.2858 46.3617 58.5429C46.7364 58.8 47.2212 58.9285 47.8162 58.9285C48.2643 58.9285 48.6462 58.8293 48.9621 58.631C49.278 58.4327 49.5351 58.1609 49.7334 57.8156C49.9317 57.463 50.075 57.059 50.1631 56.6036C50.2513 56.1482 50.2954 55.6634 50.2954 55.1492ZM54.824 55.1602V54.9288C54.824 54.0546 54.9489 53.2503 55.1986 52.5157C55.4484 51.7738 55.812 51.1311 56.2894 50.5875C56.7669 50.0439 57.3509 49.6215 58.0414 49.3203C58.7319 49.0118 59.5179 48.8576 60.3994 48.8576C61.2955 48.8576 62.0889 49.0118 62.7794 49.3203C63.4772 49.6215 64.0649 50.0439 64.5423 50.5875C65.0198 51.1311 65.3834 51.7738 65.6332 52.5157C65.8829 53.2503 66.0078 54.0546 66.0078 54.9288V55.1602C66.0078 56.027 65.8829 56.8313 65.6332 57.5732C65.3834 58.3078 65.0198 58.9506 64.5423 59.5015C64.0649 60.0451 63.4809 60.4674 62.7904 60.7686C62.0999 61.0698 61.3102 61.2204 60.4214 61.2204C59.5399 61.2204 58.7503 61.0698 58.0524 60.7686C57.3546 60.4674 56.7669 60.0451 56.2894 59.5015C55.812 58.9506 55.4484 58.3078 55.1986 57.5732C54.9489 56.8313 54.824 56.027 54.824 55.1602ZM57.7329 54.9288V55.1602C57.7329 55.6817 57.7843 56.1702 57.8871 56.6256C57.99 57.0811 58.1479 57.4814 58.3609 57.8267C58.574 58.1719 58.8494 58.4437 59.1873 58.642C59.5326 58.833 59.9439 58.9285 60.4214 58.9285C60.8915 58.9285 61.2955 58.833 61.6334 58.642C61.9713 58.4437 62.2468 58.1719 62.4598 57.8267C62.6802 57.4814 62.8418 57.0811 62.9446 56.6256C63.0475 56.1702 63.0989 55.6817 63.0989 55.1602V54.9288C63.0989 54.4146 63.0475 53.9334 62.9446 53.4854C62.8418 53.0299 62.6802 52.6296 62.4598 52.2843C62.2468 51.9317 61.9677 51.6563 61.6224 51.4579C61.2845 51.2523 60.8768 51.1494 60.3994 51.1494C59.9292 51.1494 59.5252 51.2523 59.1873 51.4579C58.8494 51.6563 58.574 51.9317 58.3609 52.2843C58.1479 52.6296 57.99 53.0299 57.8871 53.4854C57.7843 53.9334 57.7329 54.4146 57.7329 54.9288ZM73.9852 55.9535H70.2059L70.1838 53.9812H73.2911C73.7538 53.9812 74.1321 53.9334 74.426 53.8379C74.7198 53.7425 74.9365 53.5992 75.0761 53.4082C75.223 53.2172 75.2964 52.9858 75.2964 52.7141C75.2964 52.479 75.2524 52.277 75.1642 52.108C75.0761 51.9317 74.9438 51.7885 74.7675 51.6783C74.5986 51.5681 74.3819 51.4873 74.1175 51.4359C73.8604 51.3771 73.5592 51.3478 73.2139 51.3478H71.2416V61H68.3217V49.0779H73.2139C73.9852 49.0779 74.6794 49.1477 75.2964 49.2873C75.9135 49.4195 76.4387 49.6215 76.8721 49.8933C77.3055 50.1651 77.636 50.5103 77.8638 50.929C78.0988 51.3404 78.2164 51.8252 78.2164 52.3835C78.2164 52.7508 78.1355 53.096 77.9739 53.4192C77.8123 53.7425 77.5736 54.0289 77.2577 54.2787C76.9419 54.5284 76.5526 54.7341 76.0898 54.8957C75.627 55.05 75.0981 55.1455 74.5031 55.1822L73.9852 55.9535ZM73.9852 61H69.4236L70.5034 58.7302H73.9852C74.4113 58.7302 74.7639 58.6788 75.043 58.5759C75.3221 58.4657 75.5278 58.3078 75.66 58.1021C75.7996 57.8964 75.8694 57.6467 75.8694 57.3529C75.8694 57.0664 75.8033 56.8203 75.6711 56.6146C75.5462 56.4016 75.3442 56.24 75.065 56.1298C74.7933 56.0123 74.4333 55.9535 73.9852 55.9535H70.9772L70.9992 53.9812H74.4921L75.2634 54.7635C76.0567 54.8149 76.7142 54.9765 77.2357 55.2483C77.7572 55.5128 78.1466 55.8507 78.4037 56.262C78.6608 56.666 78.7893 57.1105 78.7893 57.5953C78.7893 58.1609 78.6828 58.6567 78.4698 59.0828C78.2568 59.5088 77.9446 59.8651 77.5332 60.1516C77.1218 60.4307 76.6187 60.6437 76.0237 60.7906C75.4287 60.9302 74.7492 61 73.9852 61ZM86.2599 61.2204C85.3564 61.2204 84.5447 61.0735 83.8248 60.7796C83.1049 60.4858 82.4915 60.0781 81.9847 59.5566C81.4852 59.0277 81.0995 58.4143 80.8277 57.7165C80.5633 57.0113 80.4311 56.2547 80.4311 55.4467V55.0059C80.4311 54.0877 80.5633 53.254 80.8277 52.5047C81.0922 51.7481 81.4668 51.098 81.9516 50.5544C82.4365 50.0108 83.0168 49.5921 83.6926 49.2983C84.3684 49.0045 85.114 48.8576 85.9293 48.8576C86.7741 48.8576 87.5197 49.0008 88.1661 49.2873C88.8125 49.5664 89.3524 49.9631 89.7858 50.4773C90.2192 50.9915 90.5461 51.6085 90.7665 52.3284C90.9868 53.0409 91.097 53.8306 91.097 54.6974V55.9205H81.7533V53.9151H88.2322V53.6947C88.2175 53.2319 88.1294 52.8095 87.9678 52.4276C87.8062 52.0382 87.5564 51.7297 87.2185 51.502C86.8806 51.267 86.4435 51.1494 85.9073 51.1494C85.4739 51.1494 85.0956 51.2449 84.7724 51.4359C84.4565 51.6195 84.1921 51.884 83.979 52.2292C83.7734 52.5671 83.6191 52.9712 83.5163 53.4413C83.4134 53.9114 83.362 54.4329 83.362 55.0059V55.4467C83.362 55.9462 83.4281 56.4089 83.5603 56.835C83.6999 57.261 83.9019 57.632 84.1664 57.9479C84.4382 58.2564 84.7614 58.4988 85.136 58.6751C85.518 58.844 85.9514 58.9285 86.4362 58.9285C87.0459 58.9285 87.5968 58.811 88.089 58.5759C88.5885 58.3335 89.0219 57.9772 89.3892 57.5071L90.8546 59.0277C90.6049 59.395 90.267 59.7476 89.8409 60.0855C89.4222 60.4234 88.9154 60.6988 88.3204 60.9119C87.7254 61.1175 87.0385 61.2204 86.2599 61.2204ZM101.19 53.9702V56.251H95.0747V53.9702H101.19ZM95.9893 49.0779V61H93.0694V49.0779H95.9893ZM103.228 49.0779V61H100.298V49.0779H103.228ZM107.944 52.7471H111.426C112.484 52.7471 113.384 52.9234 114.126 53.276C114.875 53.6212 115.444 54.1061 115.834 54.7304C116.23 55.3475 116.429 56.0637 116.429 56.8791C116.429 57.4667 116.315 58.014 116.087 58.5208C115.867 59.0203 115.544 59.4574 115.117 59.832C114.691 60.1993 114.166 60.4858 113.542 60.6915C112.925 60.8972 112.22 61 111.426 61H106.071V49.0779H108.991V58.7192H111.426C111.933 58.7192 112.337 58.6347 112.638 58.4657C112.947 58.2894 113.167 58.0654 113.299 57.7936C113.439 57.5145 113.509 57.217 113.509 56.9011C113.509 56.5779 113.439 56.2767 113.299 55.9976C113.167 55.7111 112.947 55.4797 112.638 55.3034C112.337 55.1271 111.933 55.039 111.426 55.039H107.944V52.7471Z"
        fill="white"
      />
      <defs>
        <linearGradient
          id="paint0_linear_2_6"
          x1="0.828125"
          y1="59.1544"
          x2="134.344"
          y2="57.9332"
          gradientUnits="userSpaceOnUse"
        >
          <stop stop-color="#67AE45" />
          <stop offset="0.130208" stop-color="#85E855" />
          <stop offset="0.369792" stop-color="#67AE45" />
        </linearGradient>
      </defs>
    </svg>