<svg width="250" height="153" viewBox="0 0 250 153" fill="none" xmlns="http://www.w3.org/2000/svg">
<path d="M0.638724 27.6445C0.638724 27.6445 -3.27227 3.13113 34.4645 0.486328H114.977V53.7618C114.977 53.7618 18.3914 74.308 0.638724 27.6322V27.6445Z" fill="#4C7C43"/>
<path d="M57.2256 152.146H249.134V42.7907H57.2256C7.20425 37.6357 0.632812 26.2852 0.632812 26.2852V135.64C0.632812 135.64 7.19199 146.991 57.2256 152.146Z" fill="url(#paint0_linear_818_4014)"/>
<path d="M43.875 75.4531V105.312H38.2354V75.4531H43.875ZM65.7568 73.8125V105.312H60.3223V73.8125H65.7568ZM80.8916 105.723C79.21 105.723 77.6992 105.449 76.3594 104.902C75.0195 104.355 73.8779 103.597 72.9346 102.626C72.0049 101.642 71.2871 100.5 70.7812 99.2012C70.2891 97.8887 70.043 96.4805 70.043 94.9766V94.1562C70.043 92.4473 70.2891 90.8955 70.7812 89.501C71.2734 88.0928 71.9707 86.8828 72.873 85.8711C73.7754 84.8594 74.8555 84.0801 76.1133 83.5332C77.3711 82.9863 78.7588 82.7129 80.2764 82.7129C81.8486 82.7129 83.2363 82.9795 84.4395 83.5127C85.6426 84.0322 86.6475 84.7705 87.4541 85.7275C88.2607 86.6846 88.8691 87.833 89.2793 89.1729C89.6895 90.499 89.8945 91.9688 89.8945 93.582V95.8584H72.5039V92.126H84.5625V91.7158C84.5352 90.8545 84.3711 90.0684 84.0703 89.3574C83.7695 88.6328 83.3047 88.0586 82.6758 87.6348C82.0469 87.1973 81.2334 86.9785 80.2354 86.9785C79.4287 86.9785 78.7246 87.1562 78.123 87.5117C77.5352 87.8535 77.043 88.3457 76.6465 88.9883C76.2637 89.6172 75.9766 90.3691 75.7852 91.2441C75.5938 92.1191 75.498 93.0898 75.498 94.1562V94.9766C75.498 95.9062 75.6211 96.7676 75.8672 97.5605C76.127 98.3535 76.5029 99.0439 76.9951 99.6318C77.501 100.206 78.1025 100.657 78.7998 100.985C79.5107 101.3 80.3174 101.457 81.2197 101.457C82.3545 101.457 83.3799 101.238 84.2959 100.801C85.2256 100.35 86.0322 99.6865 86.7158 98.8115L89.4434 101.642C88.9785 102.325 88.3496 102.981 87.5566 103.61C86.7773 104.239 85.834 104.752 84.7266 105.148C83.6191 105.531 82.3408 105.723 80.8916 105.723ZM100.6 101.211L105.768 83.123H111.428L103.819 105.312H100.374L100.6 101.211ZM96.8262 83.123L102.056 101.252L102.24 105.312H98.7744L91.1455 83.123H96.8262ZM123.958 105.723C122.276 105.723 120.766 105.449 119.426 104.902C118.086 104.355 116.944 103.597 116.001 102.626C115.071 101.642 114.354 100.5 113.848 99.2012C113.355 97.8887 113.109 96.4805 113.109 94.9766V94.1562C113.109 92.4473 113.355 90.8955 113.848 89.501C114.34 88.0928 115.037 86.8828 115.939 85.8711C116.842 84.8594 117.922 84.0801 119.18 83.5332C120.438 82.9863 121.825 82.7129 123.343 82.7129C124.915 82.7129 126.303 82.9795 127.506 83.5127C128.709 84.0322 129.714 84.7705 130.521 85.7275C131.327 86.6846 131.936 87.833 132.346 89.1729C132.756 90.499 132.961 91.9688 132.961 93.582V95.8584H115.57V92.126H127.629V91.7158C127.602 90.8545 127.438 90.0684 127.137 89.3574C126.836 88.6328 126.371 88.0586 125.742 87.6348C125.113 87.1973 124.3 86.9785 123.302 86.9785C122.495 86.9785 121.791 87.1562 121.189 87.5117C120.602 87.8535 120.109 88.3457 119.713 88.9883C119.33 89.6172 119.043 90.3691 118.852 91.2441C118.66 92.1191 118.564 93.0898 118.564 94.1562V94.9766C118.564 95.9062 118.688 96.7676 118.934 97.5605C119.193 98.3535 119.569 99.0439 120.062 99.6318C120.567 100.206 121.169 100.657 121.866 100.985C122.577 101.3 123.384 101.457 124.286 101.457C125.421 101.457 126.446 101.238 127.362 100.801C128.292 100.35 129.099 99.6865 129.782 98.8115L132.51 101.642C132.045 102.325 131.416 102.981 130.623 103.61C129.844 104.239 128.9 104.752 127.793 105.148C126.686 105.531 125.407 105.723 123.958 105.723ZM142.333 73.8125V105.312H136.898V73.8125H142.333Z" fill="white"/>
<defs>
<linearGradient id="paint0_linear_818_4014" x1="0.632813" y1="110.481" x2="249.134" y2="108.205" gradientUnits="userSpaceOnUse">
<stop stop-color="#67AE45"/>
<stop offset="0.130208" stop-color="#85E855"/>
<stop offset="0.369792" stop-color="#67AE45"/>
</linearGradient>
</defs>
</svg>
