<svg width="429" height="149" viewBox="0 0 429 149" fill="none" xmlns="http://www.w3.org/2000/svg">
<path d="M0.638724 27.8495C0.638724 27.8495 -3.27227 3.3362 34.4645 0.691406H114.977V53.9669C114.977 53.9669 18.3914 74.5131 0.638724 27.8373V27.8495Z" fill="#E87500"/>
<path d="M57.2257 148.736H428.659V39.3805H57.2257C7.20426 34.2256 0.632812 22.875 0.632812 22.875V132.23C0.632812 132.23 7.19199 143.581 57.2257 148.736Z" fill="url(#paint0_linear_818_4016)"/>
<path d="M195.992 78.248V108.107H190.353V78.248H195.992ZM208.092 78.248V108.107H202.452V78.248H208.092ZM220.191 78.248V108.107H214.552V78.248H220.191ZM242.073 76.6074V108.107H236.639V76.6074H242.073ZM257.208 108.518C255.526 108.518 254.016 108.244 252.676 107.697C251.336 107.15 250.194 106.392 249.251 105.421C248.321 104.437 247.604 103.295 247.098 101.996C246.605 100.684 246.359 99.2754 246.359 97.7715V96.9512C246.359 95.2422 246.605 93.6904 247.098 92.2959C247.59 90.8877 248.287 89.6777 249.189 88.666C250.092 87.6543 251.172 86.875 252.43 86.3281C253.688 85.7812 255.075 85.5078 256.593 85.5078C258.165 85.5078 259.553 85.7744 260.756 86.3076C261.959 86.8271 262.964 87.5654 263.771 88.5225C264.577 89.4795 265.186 90.6279 265.596 91.9678C266.006 93.2939 266.211 94.7637 266.211 96.377V98.6533H248.82V94.9209H260.879V94.5107C260.852 93.6494 260.688 92.8633 260.387 92.1523C260.086 91.4277 259.621 90.8535 258.992 90.4297C258.363 89.9922 257.55 89.7734 256.552 89.7734C255.745 89.7734 255.041 89.9512 254.439 90.3066C253.852 90.6484 253.359 91.1406 252.963 91.7832C252.58 92.4121 252.293 93.1641 252.102 94.0391C251.91 94.9141 251.814 95.8848 251.814 96.9512V97.7715C251.814 98.7012 251.938 99.5625 252.184 100.355C252.443 101.148 252.819 101.839 253.312 102.427C253.817 103.001 254.419 103.452 255.116 103.78C255.827 104.095 256.634 104.252 257.536 104.252C258.671 104.252 259.696 104.033 260.612 103.596C261.542 103.145 262.349 102.481 263.032 101.606L265.76 104.437C265.295 105.12 264.666 105.776 263.873 106.405C263.094 107.034 262.15 107.547 261.043 107.943C259.936 108.326 258.657 108.518 257.208 108.518ZM276.916 104.006L282.084 85.918H287.744L280.136 108.107H276.69L276.916 104.006ZM273.143 85.918L278.372 104.047L278.557 108.107H275.091L267.462 85.918H273.143ZM300.274 108.518C298.593 108.518 297.082 108.244 295.742 107.697C294.402 107.15 293.261 106.392 292.317 105.421C291.388 104.437 290.67 103.295 290.164 101.996C289.672 100.684 289.426 99.2754 289.426 97.7715V96.9512C289.426 95.2422 289.672 93.6904 290.164 92.2959C290.656 90.8877 291.354 89.6777 292.256 88.666C293.158 87.6543 294.238 86.875 295.496 86.3281C296.754 85.7812 298.142 85.5078 299.659 85.5078C301.231 85.5078 302.619 85.7744 303.822 86.3076C305.025 86.8271 306.03 87.5654 306.837 88.5225C307.644 89.4795 308.252 90.6279 308.662 91.9678C309.072 93.2939 309.277 94.7637 309.277 96.377V98.6533H291.887V94.9209H303.945V94.5107C303.918 93.6494 303.754 92.8633 303.453 92.1523C303.152 91.4277 302.688 90.8535 302.059 90.4297C301.43 89.9922 300.616 89.7734 299.618 89.7734C298.812 89.7734 298.107 89.9512 297.506 90.3066C296.918 90.6484 296.426 91.1406 296.029 91.7832C295.646 92.4121 295.359 93.1641 295.168 94.0391C294.977 94.9141 294.881 95.8848 294.881 96.9512V97.7715C294.881 98.7012 295.004 99.5625 295.25 100.355C295.51 101.148 295.886 101.839 296.378 102.427C296.884 103.001 297.485 103.452 298.183 103.78C298.894 104.095 299.7 104.252 300.603 104.252C301.737 104.252 302.763 104.033 303.679 103.596C304.608 103.145 305.415 102.481 306.099 101.606L308.826 104.437C308.361 105.12 307.732 105.776 306.939 106.405C306.16 107.034 305.217 107.547 304.109 107.943C303.002 108.326 301.724 108.518 300.274 108.518ZM318.649 76.6074V108.107H313.215V76.6074H318.649Z" fill="white"/>
<defs>
<linearGradient id="paint0_linear_818_4016" x1="0.63281" y1="91.656" x2="420.034" y2="93.173" gradientUnits="userSpaceOnUse">
<stop offset="0.00462204" stop-color="#EF8B25"/>
<stop offset="0.078125" stop-color="#FFD94D"/>
<stop offset="0.28125" stop-color="#EF8B25"/>
</linearGradient>
</defs>
</svg>
