<svg width="38" height="38" viewBox="0 0 38 38" fill="none" xmlns="http://www.w3.org/2000/svg">
<circle cx="19.206" cy="21.0422" r="16.3368" fill="white"/>
<path d="M37.0566 19.0225C37.0566 8.78846 28.7623 0.494141 18.5283 0.494141C8.29432 0.494141 0 8.78846 0 19.0225C0 29.2565 8.29432 37.5508 18.5283 37.5508C18.6369 37.5508 18.7454 37.5508 18.854 37.5435V23.1262H14.8733V18.4869H18.854V15.0707C18.854 11.1117 21.2714 8.95492 24.8033 8.95492C26.4969 8.95492 27.9517 9.07796 28.3715 9.13587V13.2758H25.9396C24.0217 13.2758 23.6453 14.1877 23.6453 15.5267V18.4796H28.2412L27.6405 23.119H23.6453V36.8343C31.3896 34.6123 37.0566 27.4832 37.0566 19.0225Z" fill="#002687"/>
</svg>
