<svg width="38" height="38" viewBox="0 0 38 38" fill="none" xmlns="http://www.w3.org/2000/svg">
<circle cx="18.5458" cy="19.0684" r="16.3368" fill="white"/>
<path d="M36.7499 15.7995C35.7229 10.2729 32.7801 6.04757 28.0068 3.10692C25.5504 1.59498 22.8551 0.768446 19.9731 0.552765C19.8792 0.539904 19.7863 0.520312 19.6952 0.494141H17.3835C16.7183 0.586058 16.0503 0.657711 15.3888 0.77279C11.1186 1.51682 7.54824 3.53033 4.67708 6.76265C2.2047 9.54479 0.685528 12.7959 0.224491 16.4878C-0.494206 22.2396 1.093 27.3081 5.02593 31.5805C8.00277 34.8142 11.7164 36.7351 16.0727 37.3054C21.1673 37.9698 25.8066 36.7431 29.8691 33.5824C33.8288 30.5021 36.1405 26.428 36.8708 21.4623C36.9359 21.0237 36.9801 20.5822 37.0336 20.1421V17.8304C36.941 17.153 36.8751 16.4698 36.7499 15.7995ZM8.66067 11.3368C8.95017 11.2956 9.23461 11.2218 9.52194 11.2196C11.1982 11.208 12.8744 11.2138 14.5506 11.2138C18.8744 11.2138 23.1979 11.2138 27.5212 11.2138C27.8509 11.2008 28.1788 11.2691 28.4758 11.4128C28.1422 11.7392 27.8245 12.0425 27.5176 12.3537C24.7282 15.146 21.9386 17.9414 19.1487 20.74C18.7579 21.1315 18.3316 21.133 17.9429 20.7436L8.78805 11.5597C8.74317 11.5142 8.70047 11.4671 8.65633 11.4208L8.66067 11.3368ZM7.49613 25.0746V12.898L7.67418 12.3486L14.3523 18.9689L7.66621 25.5892C7.62062 25.4545 7.55693 25.2649 7.49613 25.0746ZM27.781 26.7522C27.688 26.7624 27.5943 26.7646 27.5009 26.7588C21.5313 26.7588 15.5617 26.7571 9.59215 26.7537C9.2831 26.7537 8.97406 26.6813 8.66501 26.643C8.66501 26.6126 8.6585 26.5814 8.6556 26.551L15.3128 19.9532C15.3345 19.9735 15.3917 20.0256 15.4459 20.0792C15.9794 20.614 16.5106 21.1503 17.0455 21.6837C17.9212 22.5566 19.1661 22.5523 20.0455 21.6837L21.7745 19.9648L28.4809 26.6024C28.2189 26.6589 27.9996 26.7117 27.7781 26.7522H27.781ZM29.5904 24.8401C29.5904 25.105 29.4963 25.3699 29.4457 25.6253L22.7487 18.9841L29.4442 12.3552C29.492 12.5976 29.589 12.8618 29.589 13.1238C29.6001 17.0292 29.6008 20.9346 29.5912 24.8401H29.5904Z" fill="#002687"/>
</svg>
