<svg width="38" height="38" viewBox="0 0 38 38" fill="none" xmlns="http://www.w3.org/2000/svg">
<circle cx="18.5381" cy="19.0225" r="18.5283" fill="#002687"/>
<g clip-path="url(#clip0_939_64)">
<path d="M9.83203 23.5663C9.83203 20.7611 9.83203 17.9555 9.83203 15.1499C9.86006 14.9751 9.87847 14.7981 9.91779 14.6258C10.3512 12.7082 11.5143 11.4788 13.4082 10.9488C13.6571 10.879 13.9186 10.8539 14.1746 10.8079C16.9805 10.8079 19.7865 10.8079 22.5924 10.8079C22.9505 10.8819 23.3195 10.9216 23.6647 11.0354C25.6519 11.6909 26.9241 13.4336 26.9325 15.5172C26.9425 18.0768 26.9362 20.6369 26.9342 23.1965C26.9337 24.0072 26.7563 24.7802 26.3468 25.4804C25.4159 27.0704 24.0169 27.8924 22.1736 27.9041C19.6472 27.92 17.1203 27.9112 14.5934 27.9041C14.2779 27.9033 13.955 27.8857 13.6483 27.8175C11.7322 27.3913 10.5039 26.2255 9.97386 24.3347C9.90315 24.0854 9.87805 23.8231 9.83203 23.5663ZM23.071 19.3585C23.0723 16.7784 20.9863 14.6881 18.3925 14.6709C15.8192 14.6538 13.6973 16.7708 13.696 19.3572C13.6947 21.9374 15.7807 24.0277 18.3745 24.0448C20.9478 24.062 23.0698 21.9449 23.071 19.3585ZM24.7758 14.3823C24.7712 13.5984 24.1278 12.9596 23.3496 12.9659C22.5686 12.9722 21.9209 13.6222 21.9289 14.3923C21.9368 15.1687 22.5912 15.8184 23.3597 15.8125C24.1378 15.8066 24.7804 15.1574 24.7758 14.3823Z" fill="white"/>
<path d="M14.7051 19.3497C14.7122 17.3159 16.3722 15.6673 18.3992 15.6811C20.4295 15.6953 22.0665 17.3435 22.0598 19.3664C22.0527 21.4002 20.3927 23.0488 18.3661 23.035C16.3358 23.0212 14.6984 21.3726 14.7055 19.3497H14.7051Z" fill="white"/>
<path d="M23.3507 13.977C23.5778 13.9749 23.7653 14.1602 23.7653 14.3869C23.7653 14.6116 23.5737 14.8027 23.3511 14.8002C23.1377 14.7977 22.9465 14.6086 22.9415 14.3953C22.9361 14.1727 23.126 13.9787 23.3503 13.9766L23.3507 13.977Z" fill="white"/>
</g>
<defs>
<clipPath id="clip0_939_64">
<rect width="17.1055" height="17.1055" fill="white" transform="translate(9.83203 10.8079)"/>
</clipPath>
</defs>
</svg>
