<svg width="38" height="38" viewBox="0 0 38 38" fill="none" xmlns="http://www.w3.org/2000/svg">
<circle cx="18.5947" cy="19.0225" r="18.5283" fill="#002687"/>
<path d="M6 18.3162C6.16919 17.9845 6.47675 17.8096 6.81408 17.6839C8.15347 17.1848 9.49547 16.6927 10.8375 16.1997C15.4332 14.5115 20.0294 12.8229 24.6261 11.1357C24.7348 11.0957 24.8481 11.0591 24.9629 11.0436C25.5791 10.9594 26.0172 11.3126 25.9995 11.939C25.988 12.3464 25.893 12.7547 25.8037 13.1561C24.859 17.4233 23.9097 21.6895 22.9562 25.9547C22.9077 26.1717 22.8314 26.3901 22.7254 26.5871C22.5207 26.9679 22.1677 27.1112 21.7411 26.9879C21.5333 26.9278 21.3228 26.8386 21.1484 26.7173C19.714 25.7212 18.2879 24.714 16.8587 23.7104C16.8013 23.6703 16.7433 23.6312 16.6734 23.5826C16.6164 23.6307 16.5626 23.6733 16.5125 23.7189C15.782 24.3878 15.0515 25.0563 14.323 25.7267C14.1068 25.9256 13.8588 26.0424 13.5262 26.0374C13.545 25.7668 13.5627 25.5012 13.5826 25.2367C13.6698 24.0651 13.7549 22.8931 13.8494 21.7221C13.8562 21.6354 13.9115 21.5317 13.9794 21.473C16.7475 19.0804 19.5198 16.6927 22.291 14.3041C22.3103 14.2875 22.3369 14.2745 22.3484 14.254C22.4006 14.1613 22.4487 14.0666 22.4983 13.9729C22.3792 13.9503 22.2539 13.8952 22.1427 13.9142C22.0074 13.9373 21.8763 14.012 21.7568 14.0841C18.3078 16.1526 14.8603 18.2235 11.4098 20.2895C11.3341 20.3351 11.2114 20.3601 11.1294 20.3361C9.66205 19.9057 8.19733 19.4667 6.73262 19.0293C6.4355 18.9406 6.16605 18.8123 6.00052 18.5417V18.3167L6 18.3162Z" fill="white"/>
</svg>
