<svg width="28" height="28" viewBox="0 0 28 28" fill="none" xmlns="http://www.w3.org/2000/svg">
<ellipse cx="13.8091" cy="13.7337" rx="11.9117" ry="8.40824" fill="white"/>
<path fill-rule="evenodd" clip-rule="evenodd" d="M13.9913 0C21.7139 0 27.9826 6.26876 27.9826 13.9913C27.9826 21.7139 21.7139 27.9826 13.9913 27.9826C6.26876 27.9826 0 21.7139 0 13.9913C0 6.26876 6.26876 0 13.9913 0ZM22.3697 9.78298C22.1675 9.02876 21.5772 8.43851 20.823 8.23629C19.4567 7.87011 13.9913 7.87011 13.9913 7.87011C13.9913 7.87011 8.52049 7.87011 7.15961 8.23629C6.40539 8.43851 5.81514 9.02876 5.61292 9.78298C5.24674 11.1493 5.24674 13.9913 5.24674 13.9913C5.24674 13.9913 5.24674 16.8388 5.61292 18.1996C5.81514 18.9538 6.40539 19.5441 7.15961 19.7463C8.52595 20.1125 13.9913 20.1125 13.9913 20.1125C13.9913 20.1125 19.4621 20.1125 20.823 19.7463C21.5772 19.5441 22.1675 18.9538 22.3697 18.1996C22.7359 16.8333 22.7359 13.9913 22.7359 13.9913C22.7359 13.9913 22.7359 11.1439 22.3697 9.78298ZM12.2424 16.6147V11.3679L16.7841 13.9913L12.2424 16.6147Z" fill="#002687"/>
<circle cx="14" cy="14" r="14" fill="#002687"/>
<path d="M20.9608 6.81701C20.4721 6.37977 18.5174 4.93942 14.1192 4.9137C14.1192 4.9137 8.9494 4.60506 6.4288 6.91989C5.01418 8.33452 4.52549 10.3664 4.47405 12.9128C4.42261 15.4591 4.34545 20.2174 8.9494 21.5291V23.5096C8.9494 23.5096 8.92368 24.3069 9.43809 24.4612C10.0811 24.667 10.4412 24.0497 11.0585 23.4067C11.3928 23.0466 11.8558 22.5322 12.1902 22.1207C15.3281 22.3779 17.7458 21.7863 18.0287 21.6834C18.6717 21.4776 22.2469 21.0147 22.8384 16.2564C23.4557 11.3181 22.5812 8.20592 20.9608 6.81701ZM21.501 15.8706C21.0123 19.8573 18.1059 20.1145 17.5657 20.2688C17.3343 20.346 15.2252 20.8604 12.5503 20.706C12.5503 20.706 10.5698 23.098 9.92678 23.741C9.8239 23.8439 9.72101 23.8696 9.64385 23.8696C9.54097 23.8439 9.51525 23.7153 9.51525 23.5353C9.51525 23.2781 9.54097 20.2431 9.54097 20.2431C5.65719 19.1628 5.88867 15.099 5.91439 12.9642C5.96583 10.8294 6.35164 9.10613 7.53478 7.92299C9.66958 5.99396 14.0678 6.27688 14.0678 6.27688C17.7715 6.3026 19.5462 7.40858 19.9577 7.79439C21.2952 8.97753 21.9897 11.7811 21.501 15.8706Z" fill="white"/>
<path d="M15.9201 12.8099C15.8686 11.8325 15.3799 11.318 14.4282 11.2666" stroke="white" stroke-width="0.495632" stroke-linecap="round" stroke-linejoin="round"/>
<path d="M17.206 13.2214C17.2318 12.3212 16.9488 11.5495 16.4087 10.9579C15.8428 10.3406 15.0712 10.0062 14.0938 9.92908" stroke="white" stroke-width="0.495632" stroke-linecap="round" stroke-linejoin="round"/>
<path d="M18.492 13.7358C18.492 12.1668 18.0033 10.9322 17.0774 10.0319C16.1514 9.13168 14.9939 8.6687 13.605 8.6687" stroke="white" stroke-width="0.495632" stroke-linecap="round" stroke-linejoin="round"/>
<path d="M14.4793 16.1276C14.4793 16.1276 14.8394 16.1534 15.0195 15.9219L15.3796 15.4589C15.5596 15.2274 15.9711 15.0731 16.4084 15.3046C16.6399 15.4332 17.0514 15.6904 17.3086 15.8962C17.5915 16.1019 18.1574 16.5649 18.1574 16.5649C18.4403 16.7964 18.4917 17.1307 18.3117 17.4908C18.1316 17.8252 17.8744 18.1338 17.5401 18.4168C17.2829 18.6482 17.0257 18.7511 16.7685 18.8026H16.6656C16.5627 18.8026 16.4341 18.7768 16.3312 18.7511C15.9454 18.6482 15.3024 18.3653 14.1964 17.7737C13.502 17.3879 12.9104 16.9764 12.4217 16.5906C12.1645 16.3848 11.8816 16.1534 11.6244 15.8704L11.5215 15.7676C11.2386 15.4846 11.0071 15.2274 10.8013 14.9702C10.4155 14.4815 10.004 13.89 9.61817 13.1955C9.0266 12.1153 8.74368 11.4722 8.6408 11.0607C8.61508 10.9578 8.58936 10.855 8.58936 10.7264V10.6235C8.61508 10.3663 8.74368 10.1091 8.97516 9.85186C9.25809 9.54321 9.56673 9.28601 9.9011 9.08024C10.2612 8.9002 10.5956 8.95164 10.827 9.23457C10.827 9.23457 11.29 9.80042 11.4958 10.0833C11.6758 10.3406 11.933 10.7521 12.0873 10.9836C12.3188 11.3951 12.1645 11.8323 11.9587 12.0124L11.4958 12.3725C11.2643 12.5525 11.29 12.9126 11.29 12.9126C11.29 12.9126 11.933 15.4589 14.4793 16.1276Z" fill="white"/>
</svg>
