<svg width="28" height="28" viewBox="0 0 28 28" fill="none" xmlns="http://www.w3.org/2000/svg">
<ellipse cx="13.8091" cy="13.7337" rx="11.9117" ry="8.40824" fill="white"/>
<path fill-rule="evenodd" clip-rule="evenodd" d="M13.9913 0C21.7139 0 27.9826 6.26876 27.9826 13.9913C27.9826 21.7139 21.7139 27.9826 13.9913 27.9826C6.26876 27.9826 0 21.7139 0 13.9913C0 6.26876 6.26876 0 13.9913 0ZM22.3697 9.78298C22.1675 9.02876 21.5772 8.43851 20.823 8.23629C19.4567 7.87011 13.9913 7.87011 13.9913 7.87011C13.9913 7.87011 8.52049 7.87011 7.15961 8.23629C6.40539 8.43851 5.81514 9.02876 5.61292 9.78298C5.24674 11.1493 5.24674 13.9913 5.24674 13.9913C5.24674 13.9913 5.24674 16.8388 5.61292 18.1996C5.81514 18.9538 6.40539 19.5441 7.15961 19.7463C8.52595 20.1125 13.9913 20.1125 13.9913 20.1125C13.9913 20.1125 19.4621 20.1125 20.823 19.7463C21.5772 19.5441 22.1675 18.9538 22.3697 18.1996C22.7359 16.8333 22.7359 13.9913 22.7359 13.9913C22.7359 13.9913 22.7359 11.1439 22.3697 9.78298ZM12.2424 16.6147V11.3679L16.7841 13.9913L12.2424 16.6147Z" fill="#002687"/>
<circle cx="14" cy="14" r="14" fill="#002687"/>
<g filter="url(#filter0_f_34_2017)">
<path d="M10.0427 20.0617L10.3105 20.2201C11.4356 20.8865 12.7255 21.2391 14.041 21.2397H14.0438C18.0836 21.2397 21.3714 17.9589 21.3731 13.9265C21.3738 11.9725 20.6122 10.135 19.2284 8.75273C18.5496 8.07105 17.7422 7.5305 16.8527 7.16238C15.9633 6.79426 15.0095 6.60588 14.0467 6.60814C10.0037 6.60814 6.7158 9.88855 6.71436 13.9207C6.71237 15.2975 7.10084 16.6468 7.83486 17.8126L8.00924 18.0892L7.26867 20.7876L10.0427 20.0617ZM5.15137 22.8781L6.4025 18.3188C5.6309 16.9846 5.22496 15.4709 5.22544 13.9201C5.22747 9.06866 9.18307 5.12183 14.0439 5.12183C16.4027 5.12302 18.6167 6.03921 20.2819 7.70233C21.947 9.36544 22.8631 11.5761 22.8623 13.9271C22.8601 18.7782 18.9039 22.7257 14.0438 22.7257H14.04C12.5642 22.7251 11.1141 22.3556 9.82608 21.6546L5.15137 22.8781Z" fill="#B3B3B3"/>
</g>
<path d="M5.06104 22.7877L6.31217 18.2284C5.53923 16.8909 5.13324 15.3737 5.1351 13.8296C5.13714 8.9782 9.09274 5.03137 13.9536 5.03137C16.3124 5.03257 18.5264 5.94876 20.1915 7.61187C21.8566 9.27499 22.7728 11.4856 22.7719 13.8367C22.7698 18.6877 18.8136 22.6353 13.9535 22.6353H13.9496C12.4739 22.6347 11.0238 22.2652 9.73575 21.5642L5.06104 22.7877Z" fill="white"/>
<path d="M13.9559 6.51772C9.91288 6.51772 6.62498 9.79813 6.62354 13.8303C6.62155 15.2071 7.01002 16.5564 7.74404 17.7222L7.91842 17.9989L7.17786 20.6973L9.95195 19.9713L10.2198 20.1297C11.3449 20.7961 12.6348 21.1485 13.9503 21.1493H13.9531C17.993 21.1493 21.2809 17.8685 21.2824 13.8361C21.2855 12.875 21.0975 11.9229 20.7293 11.0348C20.3612 10.1467 19.8202 9.3403 19.1377 8.66232C18.4589 7.98062 17.6515 7.44006 16.762 7.07194C15.8725 6.70382 14.9187 6.51545 13.9559 6.51772Z" fill="#002687"/>
<path fill-rule="evenodd" clip-rule="evenodd" d="M11.7491 10.1514C11.584 9.78526 11.4102 9.77784 11.2533 9.7715L10.8309 9.76636C10.684 9.76636 10.4452 9.82138 10.2434 10.0415C10.0416 10.2616 9.47217 10.7936 9.47217 11.8755C9.47217 12.9575 10.2618 14.003 10.3718 14.1499C10.4818 14.2968 11.8961 16.588 14.1357 17.4695C15.9969 18.202 16.3756 18.0563 16.7798 18.0197C17.1839 17.9831 18.0834 17.4878 18.2669 16.9742C18.4504 16.4607 18.4505 16.0207 18.3955 15.9287C18.3405 15.8367 18.1936 15.7821 17.973 15.672C17.7525 15.562 16.6694 15.03 16.4675 14.9565C16.2655 14.8831 16.1187 14.8466 15.9716 15.0667C15.8246 15.2868 15.4028 15.7819 15.2742 15.9287C15.1456 16.0755 15.0172 16.0939 14.7967 15.984C14.5762 15.8741 13.8667 15.6417 13.0248 14.8925C12.3698 14.3096 11.9277 13.5897 11.799 13.3698C11.6703 13.1498 11.7853 13.0306 11.8958 12.921C11.9947 12.8225 12.1161 12.6642 12.2265 12.5359C12.3369 12.4075 12.3732 12.3158 12.4465 12.1692C12.5199 12.0227 12.4833 11.894 12.4282 11.784C12.3731 11.6741 11.945 10.5864 11.7491 10.1514Z" fill="white"/>
<defs>
<filter id="filter0_f_34_2017" x="4.03292" y="4.00338" width="19.9478" height="19.9932" filterUnits="userSpaceOnUse" color-interpolation-filters="sRGB">
<feFlood flood-opacity="0" result="BackgroundImageFix"/>
<feBlend mode="normal" in="SourceGraphic" in2="BackgroundImageFix" result="shape"/>
<feGaussianBlur stdDeviation="0.559225" result="effect1_foregroundBlur_34_2017"/>
</filter>
</defs>
</svg>
