<svg width="38" height="38" viewBox="0 0 38 38" fill="none" xmlns="http://www.w3.org/2000/svg">
<ellipse cx="18.1799" cy="18.6421" rx="15.7404" ry="11.1109" fill="white"/>
<path fill-rule="evenodd" clip-rule="evenodd" d="M18.5217 0.494141C28.7265 0.494141 37.0102 8.77786 37.0102 18.9827C37.0102 29.1874 28.7265 37.4712 18.5217 37.4712C8.31692 37.4712 0.0332031 29.1874 0.0332031 18.9827C0.0332031 8.77786 8.31692 0.494141 18.5217 0.494141ZM29.5932 13.4217C29.3259 12.425 28.546 11.645 27.5493 11.3778C25.7438 10.8939 18.5217 10.8939 18.5217 10.8939C18.5217 10.8939 11.2924 10.8939 9.49412 11.3778C8.49747 11.645 7.71749 12.425 7.45027 13.4217C6.96639 15.2272 6.96639 18.9827 6.96639 18.9827C6.96639 18.9827 6.96639 22.7454 7.45027 24.5436C7.71749 25.5403 8.49747 26.3203 9.49412 26.5875C11.2996 27.0714 18.5217 27.0714 18.5217 27.0714C18.5217 27.0714 25.751 27.0714 27.5493 26.5875C28.546 26.3203 29.3259 25.5403 29.5932 24.5436C30.077 22.7381 30.077 18.9827 30.077 18.9827C30.077 18.9827 30.077 15.2199 29.5932 13.4217ZM16.2106 22.4492V15.5161L22.2122 18.9827L16.2106 22.4492Z" fill="#002687"/>
</svg>
