<svg width="141" height="141" viewBox="0 0 141 141" fill="none" xmlns="http://www.w3.org/2000/svg">
<circle cx="70.4805" cy="70.8896" r="70" transform="rotate(90 70.4805 70.8896)" fill="#E0EAFF"/>
<path d="M62.9147 50.6937C64.7667 51.5579 62.3972 54.8418 64.2547 55.9507C65.3786 55.6344 66.2179 56.9138 66.0228 57.8529C65.56 58.8828 66.1316 59.0526 66.9349 59.551C67.8108 60.9438 69.1646 65.5541 68.3271 66.9661C72.8567 72.2667 70.7599 68.9247 65.6389 71.4619C63.8124 72.4237 60.1513 74.6731 58.9511 72.1289C58.7696 71.4299 58.4006 71.2298 57.67 71.4177C55.1788 71.2165 59.0026 69.2172 57.552 68.5327C56.4362 66.8131 55.8305 68.542 53.8636 68.3844C53.3591 68.1617 53.2554 68.4478 52.8205 68.5141C52.426 68.4728 52.0501 68.3292 51.9184 68.8177C51.732 68.3437 51.2419 67.5459 51.5444 67.0452C53.5299 66.3206 50.4336 65.5477 51.6817 64.8103C52.5067 64.8022 53.264 62.8628 53.6467 62.3673C53.9574 62.1847 54.4637 61.9422 54.4997 61.5584C53.2355 60.0319 57.1252 55.5198 55.5236 54.4428C54.3544 54.355 51.3742 53.1292 51.9035 51.7457C51.5078 49.1463 51.7842 50.2564 54.3276 49.3998C55.6255 49.0963 55.5161 50.2622 56.8139 49.4969C58.646 50.0552 60.8142 51.3148 62.9147 50.6931V50.6937Z" fill="#2375A7" stroke="black" stroke-width="0.651019" stroke-miterlimit="10"/>
<path d="M72.5153 86.3002C71.0517 84.5079 69.2972 86.6299 67.8236 87.2702C66.6873 87.6331 65.0366 87.4133 63.8811 87.7453C63.0014 88.1611 62.9424 88.2018 62.4901 87.3318C61.5911 86.1583 60.4169 84.4155 58.9539 84.1625C58.6147 83.9276 57.8741 82.5121 57.3827 83.1611L57.2647 82.9372C57.0454 78.4263 44.7656 75.2139 52.0213 71.1432C52.6841 70.207 53.4762 70.6984 53.1203 71.7783C53.0146 73.4444 54.8592 72.4116 56.0209 74.4894C57.2467 74.7022 58.3221 72.8494 58.9502 72.1284C61.3339 75.6193 66.4177 70.0174 69.8924 70.2099C72.7632 70.0819 68.8654 71.6829 72.0705 76.9626C72.8191 77.889 72.8595 76.8934 72.7837 78.6572C74.143 81.3008 72.5104 83.6025 72.5147 86.2996L72.5153 86.3002Z" fill="#356EC8" stroke="black" stroke-width="0.651019" stroke-miterlimit="10"/>
<path d="M27.7817 72.3404C26.3733 69.1117 31.9243 72.4078 28.024 67.7701C32.0261 64.3682 30.0126 67.8876 32.3741 65.5435C33.365 66.4134 33.2631 66.4582 34.7292 66.8025C36.0643 67.7783 37.6846 68.3848 38.9631 69.4007C40.3249 69.217 44.8688 70.269 43.5343 67.5963C43.4859 67.2735 43.845 67.1293 44.1395 67.2072C46.3257 68.9204 45.705 66.0023 48.3988 68.0859C49.404 69.324 52.0239 68.4651 52.0673 70.3335C53.2316 71.2401 50.5546 71.0372 49.5469 73.3964C50.0197 74.2036 50.5962 75.2841 50.4893 76.236C47.503 74.2309 46.2586 75.0485 43.0311 75.7086C41.4351 75.3306 41.5569 74.8776 39.9348 76.118C35.9656 76.4814 31.4155 73.522 27.7823 72.3404H27.7817Z" fill="#092E72" stroke="black" stroke-width="0.651019" stroke-miterlimit="10"/>
<path d="M88.4652 77.2376C88.6391 78.9659 92.6319 77.9262 93.7073 78.9229C97.5896 82.9593 93.8254 83.0046 92.7475 86.9055C94.4355 88.5949 91.9032 91.4304 92.6096 93.2372C92.8426 93.3756 88.7112 94.134 88.746 94.188C87.2494 94.434 85.1278 97.0352 83.5932 96.178C81.0697 93.6897 80.4503 96.1373 78.3846 92.0939C73.5717 94.6283 75.2081 93.2564 74.9435 89.4713C67.7524 81.8241 78.356 78.4263 85.2632 78.3728C87.432 77.7726 86.7517 75.8611 88.4645 77.237L88.4652 77.2376Z" fill="#356EC8" stroke="black" stroke-width="0.651019" stroke-miterlimit="10"/>
<path d="M20.6415 33.3482C21.2795 33.6477 22.7035 32.9126 23.2986 32.7085C24.7598 32.4131 29.1223 33.5034 30.5984 33.283C33.5339 31.2314 33.7333 31.2332 37.6882 31.1174C37.6907 31.2698 37.2565 34.1926 37.3441 34.2891C37.5559 34.8317 38.4126 34.8916 38.8314 35.2085C39.3663 35.9424 39.8962 36.8746 40.7914 37.2811C41.2599 38.1859 40.0521 38.1487 40.2845 38.7576C41.5071 39.9229 43.7399 38.0353 41.6134 41.3994C41.6102 42.4828 40.9175 42.7742 39.9794 42.1868C38.2996 43.0981 38.7997 46.6879 41.3325 46.6646C42.0669 48.0545 42.1004 47.7829 43.6629 47.7393C41.189 52.3764 40.2366 50.5486 42.2843 53.2655C42.9584 55.3916 45.3931 51.6739 44.0611 56.0668C43.9847 56.525 45.1601 56.6029 44.4699 56.8803C42.7894 57.7724 39.5427 60.5707 38.6152 57.7183C35.5437 57.1345 37.9933 59.5914 32.9567 57.5101C31.8273 56.789 31.5912 57.5299 30.5866 57.9143C28.3681 58.0137 28.5483 60.958 26.5099 60.537C26.7205 60.2747 25.3562 59.385 25.2258 59.2396C23.6888 58.2481 25.1239 57.0147 26.1918 56.3552C26.5969 56.2581 27.1591 56.4599 26.805 55.8725C26.5105 55.5579 27.253 55.876 27.3722 56.004C27.0032 54.8113 28.3675 53.5807 29.1074 52.7765C28.529 51.7984 29.5802 51.1185 29.8107 50.2253C27.1405 32.2462 19.9407 40.7784 20.6415 33.3482Z" fill="#092E72" stroke="black" stroke-width="0.651019" stroke-miterlimit="10"/>
<path d="M37.7088 31.0594C40.2833 29.7381 41.1835 31.1036 42.9827 30.2133C44.2171 29.384 43.0721 27.7912 45.323 28.8112C49.7532 32.0712 47.3638 27.3015 51.4318 30.1475C54.0641 31.435 54.5039 27.9482 55.0792 30.0946C55.3141 30.6593 56.0285 30.6372 56.3714 30.1784C57.6313 27.3108 62.6952 30.3662 65.3064 29.3101C65.6058 28.1477 66.9912 29.17 67.6647 29.8103C68.0188 31.0681 65.0156 31.0832 66.8384 33.4954C69.7074 34.2909 66.8862 36.3716 65.4387 36.7206C64.9535 36.5862 64.4435 35.946 63.9464 36.4426C63.6675 36.8154 62.4567 37.6813 63.0015 38.1971C68.737 42.0491 67.4833 38.5611 64.8218 45.0457C63.7408 45.6784 61.4707 45.6773 62.5716 47.4248C63.9545 50.8994 62.187 51.4809 58.8385 50.3196C58.1066 49.9957 56.9871 49.1147 56.195 49.7602C55.4967 49.8724 55.2774 49.1159 54.3287 49.4008C49.3052 50.7912 53.9982 49.2345 48.1081 47.7132C46.6139 47.8144 46.1337 49.83 44.6408 47.7795C43.886 47.373 42.3415 48.2593 41.7656 47.4498C41.0829 45.4691 39.9478 47.5591 39.2334 45.1649C38.5009 44.3438 39.403 43.1627 39.5925 42.2684C39.9609 41.9055 40.4933 42.6586 40.9524 42.4765C41.8122 42.2573 41.4606 41.1187 42.2142 40.654C43.2821 38.0435 40.5287 40.1056 40.2684 38.4518C40.6505 38.1785 41.1935 37.6429 40.7014 37.2149C39.4167 36.442 38.9321 34.9905 37.4361 34.4596C37.1068 34.2066 37.7299 31.3804 37.7076 31.06L37.7088 31.0594Z" fill="#4DA2E5" stroke="black" stroke-width="0.651019" stroke-miterlimit="10"/>
<path d="M81.9919 51.237C81.7043 52.7647 83.4469 53.5137 84.2471 54.5604C84.536 55.6159 84.2551 56.3998 85.5411 56.9482C86.5967 61.6144 94.7787 63.2589 97.4824 66.4649C101.413 65.831 101.677 68.1793 100.697 71.116C99.8935 73.4828 98.8168 72.4802 98.5087 75.4885C96.1796 78.2385 91.0188 73.9556 88.4244 76.8539C88.5741 77.96 87.6621 76.109 87.2676 76.8376C85.7325 79.2446 81.0905 79.0137 78.4576 78.9271C74.9356 79.5127 73.6142 84.6371 72.7848 78.6584C72.8594 76.8952 72.8252 77.8943 72.071 76.9638C71.9536 76.4602 70.5545 73.6892 70.544 73.163C71.9331 69.3917 69.7463 69.4313 68.3031 66.7138C69.1909 65.2827 67.8632 59.7465 65.9982 58.9527C65.5105 58.0653 66.6592 57.6722 65.5596 56.3661C65.2726 55.7665 64.5917 55.9846 64.0524 55.9189C63.5007 55.0257 63.1398 52.9897 63.7722 52.0442C62.8882 50.8008 66.9518 50.8578 67.4507 50.5362C68.9716 51.2829 70.4924 52.4221 72.1841 51.1242C72.5761 49.7605 75.2531 47.6966 76.7137 48.2037C78.429 48.0258 80.5083 50.7066 81.9913 51.2376L81.9919 51.237ZM86.4382 53.1677C85.484 52.9915 84.8839 52.7059 85.1591 51.6667C86.9266 48.7614 91.5649 54.6546 86.4382 53.1677Z" fill="#4DA2E5" stroke="black" stroke-width="0.651019" stroke-miterlimit="10"/>
<path d="M95.8126 82.3792C96.8812 84.8332 100.363 84.7599 102.079 86.3743C103.329 88.901 103.281 89.097 106.05 90.0716C106.847 90.7933 107.097 92.4553 108.423 92.5489C113.416 91.119 110.826 90.4735 115.078 93.0851C115.428 93.102 117.282 92.7891 117.594 93.0112C118.579 93.3991 119.048 94.7855 117.856 95.2251C116.867 95.7741 118.144 96.6156 117.466 97.2285C111.219 98.1491 113.01 100.88 117.59 102.703C117.255 104.685 122.909 107.013 120.049 107.02C118.277 109.72 114.27 104.619 114.446 108.825C116.932 110.25 118.577 112.559 117.15 115.356C116.063 117.495 119.266 120.14 117.613 119.469C103.391 114.349 110.764 129.973 100.541 109.319C99.1774 106.098 104.413 106.222 98.7531 103.852C97.7951 103.506 97.0831 102.519 96.2761 101.972C95.8164 101.81 94.1706 101.709 94.2098 100.957C94.2458 100.038 95.5542 98.8335 95.62 97.931C95.2423 95.7968 96.0083 92.9426 92.6088 93.2386C91.9993 92.2082 93.4264 89.6267 93.3636 88.5509C93.5817 87.8856 92.5541 87.1151 92.8207 86.4853C93.4512 85.445 94.5745 82.9095 95.812 82.3803L95.8126 82.3792Z" fill="#4DA2E5" stroke="black" stroke-width="0.651019" stroke-miterlimit="10"/>
<path d="M51.9191 68.8186C52.3893 68.0574 54.3923 68.5482 55.2975 68.2272C56.5462 67.3171 57.3029 67.9911 58.0167 69.0419C57.6216 69.7042 56.6021 70.3666 56.9177 71.2337C60.3141 71.2162 58.3833 73.3219 56.7009 74.4187C55.395 74.9211 55.6578 73.3487 54.7216 73.1091C53.2554 73.0818 52.9497 72.1542 53.1951 70.9569C52.828 70.2375 52.4707 70.9766 52.0663 70.3346C52.1029 69.7862 51.4898 69.3024 51.9184 68.8186H51.9191Z" fill="#356EC8" stroke="black" stroke-width="0.651019" stroke-miterlimit="10"/>
<path d="M70.2129 26.0894C72.1637 28.9256 70.3509 29.5827 71.7872 29.9746C76.7306 29.4222 78.4788 34.3693 72.2886 33.1771C71.3119 34.7095 73.3764 36.4343 73.8541 35.1287C73.746 33.547 75.0233 35.3305 75.5073 35.6905C77.1269 37.199 78.134 36.9187 80.0568 37.6805C81.1545 38.0602 82.3107 36.725 83.4383 36.8652C84.0509 38.1544 82.4493 39.3774 84.5075 39.6571C86.0184 40.8812 86.982 42.7712 89.1526 42.9468C89.8975 47.9107 81.7889 46.6802 81.9932 51.2371C79.7754 50.1386 78.7658 48.1614 75.8894 48.0055C70.8379 50.2351 73.92 51.254 70.0377 51.7721C66.5724 49.2872 65.346 52.1652 62.9162 50.6951C63.0324 49.6187 62.9355 47.8654 62.405 46.9111C61.7116 45.5154 64.1277 45.6579 64.8223 45.0456C65.4069 44.4565 65.602 42.6322 66.1176 42.0053C67.6465 41.1621 67.1551 40.3328 65.8318 39.5815C63.6667 39.5402 61.6917 37.7904 64.1432 36.3069C65.7678 37.2606 69.5277 35.1648 67.4384 33.7249C66.2984 33.5255 66.0288 31.9123 66.5898 31.1354C67.3017 30.8231 68.2765 30.152 67.3396 29.4862C66.3742 28.8418 65.1136 28.4691 64.0923 27.9085C63.1573 25.3817 68.684 28.6249 70.2129 26.0889V26.0894ZM69.4848 34.3163C68.0783 35.0433 69.4823 36.5767 70.636 36.6326C71.4474 35.5463 70.9025 34.3041 69.4848 34.3163ZM76.7995 38.8075C77.5891 38.3539 76.008 37.2484 75.7595 37.7904C75.9472 38.4086 75.9708 38.829 76.7995 38.8075Z" fill="#38CFDF" stroke="black" stroke-width="0.651019" stroke-miterlimit="10"/>
<path d="M28.5721 67.2747C27.3333 64.1356 24.3954 64.538 26.4816 60.6231C26.7531 60.6458 27.1227 60.7749 27.3004 60.5249C28.0832 59.4897 28.61 60.0468 29.0648 58.5157C34.3921 55.5766 32.4755 59.5107 38.5489 57.6695C39.6939 59.9084 40.627 59.021 42.5132 57.8667C43.2723 57.7254 44.426 57.3038 44.6354 56.6327C43.3426 56.1733 44.6211 54.7346 44.4875 53.8948C40.9756 54.0234 43.6724 53.9268 40.937 51.6589C41.001 51.0076 42.3479 50.315 42.6064 49.6805C43.314 48.486 43.7967 46.4431 45.3505 48.5407C46.5731 49.2705 47.0533 47.523 48.1076 47.712C54.9825 49.1519 48.5214 53.1685 55.9585 54.6433C56.1852 56.4844 53.5548 59.8026 54.5004 61.5571C54.4699 61.942 53.9518 62.1828 53.6474 62.366C53.2081 62.8533 52.554 64.8049 51.6823 64.809C51.0443 64.9608 51.5158 65.6667 51.8352 65.9052C53.1379 66.7205 50.4404 66.8897 51.919 68.8163L51.6774 69.2647C49.9614 69.0832 48.3716 68.2377 47.113 67.2659C45.5965 67.1537 45.4909 68.6325 44.4776 67.3084C41.7211 66.9298 46.9788 70.3829 38.721 69.3211C36.9809 67.4898 34.1895 67.316 32.5444 65.5563C32.004 65.4713 31.8089 66.2 31.4473 66.4495C30.1203 65.7261 29.7351 66.7245 28.5709 67.2741L28.5721 67.2747Z" fill="#092E72" stroke="black" stroke-width="0.651019" stroke-miterlimit="10"/>
<path d="M41.3207 134.489C41.6854 133.607 42.1104 133.041 41.8568 131.778C41.6032 130.515 41.3895 130.137 40.9678 129.349C40.5461 128.56 40.8738 129.158 40.0019 127.93C39.13 126.702 38.9476 126.606 38.9847 125.911C39.0217 125.217 39.0217 125.185 39.4206 124.839C39.8195 124.493 40.2213 124.648 40.2213 123.986C40.2213 123.324 40.2127 123.892 38.979 122.536C37.7452 121.179 37.3092 121.053 37.674 120.801C38.0387 120.549 38.3293 121.211 39.2753 121.527C40.2213 121.844 40.9479 122.078 40.6202 120.746C40.2925 119.414 40.4179 120.045 39.7369 119.004C39.0559 117.964 39.9278 118.878 38.0358 116.543C36.1438 114.207 36.3262 114.682 35.6338 114.02C34.9414 113.357 34.5425 114.02 34.7619 112.473C34.9813 110.926 35.7791 110.486 35.1979 109.791C34.6166 109.097 33.5623 108.971 33.7789 108.182C33.9954 107.394 33.8871 106.984 34.5055 107.362C35.1238 107.74 35.3774 108.593 37.0157 108.024C38.6541 107.456 39.3066 107.11 40.1444 107.552C40.9821 107.995 40.9821 107.268 42.1076 107.743C43.2331 108.217 43.4525 109.161 44.4355 108.153C45.4185 107.145 48.1083 105.691 49.1996 102.758C50.291 99.8247 50.2539 98.1517 50.291 96.6689C50.328 95.1862 51.4193 95.5643 51.5646 94.2718C51.7099 92.9793 51.5646 93.7034 51.5646 92.5691C51.5646 91.4348 50.9463 90.77 52.6559 90.3598C54.3656 89.9496 52.9836 89.1934 54.8756 89.6654C56.7676 90.1374 57.5312 90.3919 58.3319 91.6523C59.1325 92.9126 60.6969 94.5239 61.4605 95.0601C62.2241 95.5964 67.031 96.222 67.031 96.222" stroke="black" stroke-width="0.651019" stroke-miterlimit="10"/>
<path d="M112.912 15.2864C112.542 15.8251 111.019 19.553 111.019 19.553H112.148C112.975 19.553 114.33 22.1557 115.008 22.934C115.687 23.7123 115.912 24.0651 119.221 25.4059C122.529 26.7467 122.156 25.5471 123.661 27.3839C125.166 29.2207 124.565 28.3739 124.865 29.3619C125.166 30.3498 124.339 29.7147 123.661 31.1281C122.982 32.5416 123.36 32.6827 122.306 34.3784C121.252 36.0741 120.275 34.3784 119.221 34.5901C118.166 34.8018 118.544 35.2958 117.19 36.2858C115.835 37.2758 115.234 36.7798 114.48 36.2858C113.726 35.7918 113.576 34.8018 111.244 33.8844C108.913 32.967 110.115 33.6727 108.535 32.7533C106.955 31.8338 107.631 33.1767 106.278 34.2373C104.926 35.2979 105.149 34.8018 103.721 35.2273C102.294 35.6528 102.97 34.7333 102.442 33.955C101.913 33.1767 99.657 35.0861 98.1541 33.955C96.6512 32.8238 95.6722 33.0355 94.2422 32.5416C92.8123 32.0476 94.0919 30.8459 94.2422 30.2108C94.3925 29.5756 95.1461 27.8799 94.2422 27.6662C93.3383 27.4524 92.8123 27.8779 92.0609 27.3839C91.3094 26.8899 90.2552 27.1722 90.0298 27.2428C89.8044 27.3133 88.7501 28.2328 88.2993 28.3739C87.8484 28.5151 88.2993 27.3839 88.2993 27.0311C88.2993 26.6782 87.3954 25.9705 86.1931 25.9705C84.9908 25.9705 85.0637 25.3354 84.5377 24.8393C84.0117 24.3433 82.3563 24.6276 82.3563 24.6276C82.3563 24.6276 81.3773 24.6276 81.3021 24.3453C81.227 24.0631 80.7761 22.8613 80.3231 22.5791C79.87 22.2968 79.0434 24.4159 78.5174 24.1336C77.9914 23.8514 77.6135 25.0531 76.2609 26.535C74.9083 28.0169 76.1901 28.2396 75.1359 29.3708C74.0817 30.5019 71.5954 29.9264 71.1445 30.2087" stroke="black" stroke-width="0.651019" stroke-miterlimit="10"/>
<path d="M22.1019 34.0297C20.7472 33.4651 20.8223 33.4651 19.3172 33.324C17.8122 33.1828 16.6077 35.5137 15.5556 33.818C14.5036 32.1223 14.3511 31.7694 14.3511 30.85C14.3511 29.9305 15.6308 30.5677 13.75 29.366M117.414 119.131C117.746 118.043 118.83 116.058 120.511 116.815C122.612 117.762 121.081 117.853 123.514 116.379C124.845 116.379 126.478 112.069 126.146 112.631" stroke="black" stroke-width="0.651019" stroke-miterlimit="10"/>
<path d="M63.3781 87.4556C62.6443 87.6704 62.0233 89.2927 65.4104 94.0628C69.6444 100.025 70.9992 99.3808 71.338 101.476C71.6767 103.571 71.846 105.827 73.709 105.827C75.5719 105.827 76.588 104.215 77.0961 105.827C78.2816 109.05 79.6365 110.017 80.4833 111.145C81.3301 112.273 80.3139 113.079 84.2091 114.852C88.1044 116.624 85.9027 115.335 90.9834 116.624C96.0642 117.914 97.5884 118.236 98.0965 118.88C98.6045 119.525 102.838 117.269 103.685 118.88C104.363 120.17 106 120.062 106.734 119.847" stroke="black" stroke-width="0.651019"/>
</svg>
