<svg width="174" height="174" viewBox="0 0 174 174" fill="none" xmlns="http://www.w3.org/2000/svg">
<g filter="url(#filter0_d_1102_65723)">
<circle cx="87.0638" cy="83.0861" r="66.2556" transform="rotate(90 87.0638 83.0861)" fill="#E0EAFF"/>
</g>
<g clip-path="url(#clip0_1102_65723)">
<path d="M79.9878 61.6311C81.6654 62.4537 79.519 65.58 81.2017 66.6357C82.2198 66.3346 82.9801 67.5525 82.8034 68.4466C82.3841 69.427 82.9019 69.5887 83.6296 70.0631C84.4231 71.389 85.6494 75.7781 84.8908 77.1222C88.994 82.1684 87.0946 78.9868 82.4556 81.4022C80.801 82.3179 77.4845 84.4592 76.3972 82.0372C76.2329 81.3717 75.8986 81.1813 75.2368 81.3601C72.98 81.1686 76.4439 79.2653 75.1298 78.6136C74.1191 76.9766 73.5704 78.6225 71.7886 78.4725C71.3316 78.2604 71.2376 78.5328 70.8437 78.5959C70.4863 78.5566 70.1458 78.4199 70.0265 78.8849C69.8577 78.4337 69.4136 77.6742 69.6877 77.1975C71.4864 76.5077 68.6814 75.772 69.8121 75.07C70.5595 75.0622 71.2455 73.2159 71.5922 72.7443C71.8736 72.5704 72.3322 72.3396 72.3649 71.9742C71.2196 70.521 74.7432 66.2255 73.2923 65.2002C72.2332 65.1166 69.5335 63.9496 70.013 62.6326C69.6545 60.1579 69.9049 61.2148 72.209 60.3993C73.3846 60.1103 73.2856 61.2203 74.4612 60.4917C76.1209 61.0232 78.085 62.2223 79.9878 61.6305V61.6311Z" fill="#2375A7" stroke="#E0EAFF" stroke-width="0.5" stroke-miterlimit="10"/>
<path d="M88.6844 95.5282C87.3585 93.8219 85.7691 95.842 84.4342 96.4516C83.4049 96.797 81.9096 96.5878 80.8628 96.9039C80.0659 97.2997 80.0124 97.3385 79.6027 96.5103C78.7884 95.3931 77.7247 93.7339 76.3993 93.4931C76.0921 93.2694 75.4212 91.9219 74.9761 92.5398L74.8691 92.3266C74.6705 88.0323 63.5465 84.9741 70.1192 81.0988C70.7197 80.2075 71.4373 80.6753 71.1148 81.7034C71.0191 83.2895 72.69 82.3063 73.7424 84.2843C74.8528 84.4869 75.827 82.7231 76.396 82.0366C78.5554 85.36 83.1606 80.027 86.3083 80.2103C88.9089 80.0885 85.378 81.6126 88.2814 86.6388C88.9596 87.5207 88.9962 86.5729 88.9275 88.252C90.1589 90.7688 88.6799 92.9599 88.6838 95.5276L88.6844 95.5282Z" fill="#356EC8" stroke="#E0EAFF" stroke-width="0.5" stroke-miterlimit="10"/>
<path d="M48.16 82.2387C46.8842 79.165 51.9126 82.3029 48.3795 77.8878C52.0049 74.6492 50.181 77.9997 52.3201 75.7681C53.2177 76.5963 53.1254 76.6389 54.4536 76.9666C55.663 77.8956 57.1308 78.473 58.289 79.4402C59.5226 79.2652 63.6388 80.2667 62.43 77.7223C62.3861 77.4151 62.7114 77.2778 62.9781 77.3519C64.9585 78.9829 64.3963 76.2049 66.8366 78.1885C67.7471 79.3671 70.1204 78.5494 70.1598 80.3282C71.2145 81.1912 68.7894 80.998 67.8766 83.244C68.3049 84.0124 68.8271 85.0411 68.7303 85.9473C66.025 84.0385 64.8978 84.8168 61.9741 85.4452C60.5283 85.0853 60.6386 84.6541 59.1692 85.8349C55.5736 86.1809 51.4517 83.3636 48.1606 82.2387H48.16Z" fill="#092E72" stroke="#E0EAFF" stroke-width="0.5" stroke-miterlimit="10"/>
<path d="M103.133 86.8997C103.291 88.5451 106.908 87.5552 107.882 88.5041C111.399 92.3467 107.989 92.3899 107.013 96.1035C108.542 97.7118 106.248 100.411 106.888 102.131C107.099 102.263 103.356 102.985 103.388 103.036C102.032 103.271 100.11 105.747 98.72 104.931C96.4339 102.562 95.8728 104.892 94.0016 101.043C89.6417 103.455 91.1241 102.15 90.8843 98.5461C84.3701 91.2661 93.9757 88.0313 100.233 87.9804C102.197 87.4091 101.581 85.5893 103.133 86.8992L103.133 86.8997Z" fill="#356EC8" stroke="#E0EAFF" stroke-width="0.5" stroke-miterlimit="10"/>
<path d="M41.6913 45.1183C42.2693 45.4034 43.5592 44.7036 44.0984 44.5093C45.422 44.2281 49.3739 45.2661 50.7111 45.0563C53.3702 43.1031 53.5509 43.1048 57.1336 42.9946C57.1358 43.1397 56.7424 45.9221 56.8218 46.014C57.0137 46.5305 57.7898 46.5876 58.1691 46.8893C58.6537 47.5879 59.1337 48.4754 59.9447 48.8624C60.369 49.7238 59.275 49.6883 59.4855 50.268C60.593 51.3774 62.6157 49.5804 60.6893 52.783C60.6864 53.8144 60.0589 54.0918 59.2091 53.5326C57.6874 54.4001 58.1404 57.8176 60.4349 57.7954C61.1001 59.1186 61.1305 58.86 62.5459 58.8185C60.3049 63.233 59.4421 61.493 61.2971 64.0795C61.9077 66.1035 64.1132 62.5642 62.9066 66.7462C62.8374 67.1825 63.9022 67.2566 63.2769 67.5207C61.7546 68.3699 58.8135 71.0339 57.9733 68.3185C55.1909 67.7626 57.4099 70.1016 52.8474 68.1203C51.8243 67.4338 51.6104 68.1391 50.7004 68.505C48.6907 68.5997 48.8539 71.4026 47.0074 71.0018C47.1982 70.7521 45.9623 69.9051 45.8441 69.7667C44.4518 68.8228 45.7518 67.6486 46.7193 67.0208C47.0862 66.9283 47.5955 67.1204 47.2747 66.5613C47.008 66.2618 47.6805 66.5646 47.7885 66.6864C47.4543 65.551 48.6901 64.3795 49.3604 63.6139C48.8365 62.6827 49.7887 62.0355 49.9975 61.1852C47.5786 44.0692 41.0565 52.1918 41.6913 45.1183Z" fill="#092E72" stroke="#E0EAFF" stroke-width="0.5" stroke-miterlimit="10"/>
<path d="M57.1517 42.9395C59.4839 41.6817 60.2993 42.9816 61.9292 42.134C63.0474 41.3445 62.0102 39.8282 64.0492 40.7992C68.0624 43.9028 65.8979 39.3621 69.583 42.0714C71.9675 43.2971 72.366 39.9777 72.8871 42.0211C73.0999 42.5586 73.7471 42.5376 74.0577 42.1008C75.1991 39.3709 79.7863 42.2796 82.1517 41.2742C82.423 40.1676 83.678 41.1408 84.288 41.7503C84.6088 42.9478 81.8883 42.9622 83.5395 45.2586C86.1385 46.0159 83.5829 47.9967 82.2716 48.3289C81.832 48.201 81.37 47.5915 80.9198 48.0643C80.6671 48.4191 79.5702 49.2435 80.0638 49.7345C85.2594 53.4016 84.1237 50.0811 81.7127 56.2544C80.7335 56.8567 78.6771 56.8556 79.6743 58.5192C80.9271 61.8271 79.326 62.3807 76.2925 61.2751C75.6296 60.9667 74.6154 60.128 73.8979 60.7425C73.2653 60.8494 73.0667 60.1291 72.2073 60.4004C67.6566 61.7241 71.9079 60.2421 66.5721 58.7938C65.2186 58.8901 64.7836 60.809 63.4312 58.8569C62.7474 58.47 61.3484 59.3137 60.8267 58.543C60.2082 56.6574 59.18 58.6471 58.5328 56.3679C57.8692 55.5862 58.6864 54.4618 58.858 53.6104C59.1918 53.2649 59.6741 53.9818 60.09 53.8086C60.8689 53.5998 60.5503 52.5159 61.233 52.0735C62.2004 49.5884 59.7062 51.5515 59.4704 49.977C59.8165 49.7168 60.3083 49.2069 59.8626 48.7995C58.6988 48.0637 58.2598 46.6819 56.9046 46.1765C56.6063 45.9356 57.1708 43.2451 57.1506 42.9401L57.1517 42.9395Z" fill="#4DA2E5" stroke="#E0EAFF" stroke-width="0.5" stroke-miterlimit="10"/>
<path d="M97.2685 62.1479C97.008 63.6022 98.5866 64.3153 99.3114 65.3118C99.5731 66.3166 99.3187 67.0629 100.484 67.5849C101.44 72.0271 108.852 73.5927 111.301 76.6448C114.862 76.0413 115.101 78.2768 114.213 81.0725C113.485 83.3257 112.51 82.3713 112.231 85.2351C110.121 87.8532 105.446 83.7758 103.096 86.535C103.231 87.588 102.405 85.8259 102.048 86.5195C100.657 88.8109 96.4519 88.5911 94.0668 88.5087C90.8764 89.0661 89.6794 93.9446 88.9281 88.2529C88.9956 86.5743 88.9646 87.5254 88.2814 86.6397C88.1751 86.1602 86.9077 83.5223 86.8981 83.0213C88.1565 79.4311 86.1755 79.4687 84.8681 76.8817C85.6723 75.5193 84.4697 70.2489 82.7802 69.4932C82.3384 68.6484 83.379 68.2742 82.3829 67.0308C82.1229 66.46 81.5061 66.6676 81.0176 66.605C80.5178 65.7547 80.1908 63.8165 80.7637 62.9163C79.9629 61.7327 83.6441 61.787 84.096 61.4808C85.4737 62.1916 86.8514 63.2762 88.3838 62.0405C88.739 60.7423 91.164 58.7775 92.4871 59.2603C94.041 59.0909 95.9246 61.643 97.268 62.1485L97.2685 62.1479ZM101.296 63.9859C100.432 63.8182 99.8883 63.5463 100.138 62.557C101.739 59.7912 105.94 65.4015 101.296 63.9859Z" fill="#4DA2E5" stroke="#E0EAFF" stroke-width="0.5" stroke-miterlimit="10"/>
<path d="M109.79 91.7954C110.758 94.1316 113.912 94.0619 115.467 95.5987C116.599 98.0042 116.555 98.1907 119.064 99.1186C119.786 99.8056 120.012 101.388 121.213 101.477C125.737 100.116 123.39 99.5011 127.242 101.987C127.559 102.003 129.239 101.706 129.521 101.917C130.414 102.286 130.838 103.606 129.759 104.025C128.863 104.547 130.019 105.348 129.405 105.932C123.747 106.808 125.369 109.408 129.517 111.144C129.215 113.031 134.336 115.247 131.745 115.254C130.14 117.823 126.51 112.968 126.67 116.971C128.921 118.328 130.412 120.526 129.119 123.189C128.134 125.226 131.036 127.744 129.539 127.105C116.655 122.231 123.334 137.104 114.073 117.442C112.838 114.376 117.581 114.494 112.454 112.237C111.586 111.908 110.941 110.969 110.21 110.448C109.793 110.294 108.303 110.197 108.338 109.482C108.371 108.606 109.556 107.46 109.616 106.601C109.273 104.569 109.967 101.852 106.888 102.134C106.336 101.153 107.628 98.6951 107.572 97.6709C107.769 97.0376 106.838 96.304 107.08 95.7045C107.651 94.714 108.668 92.3003 109.79 91.7965L109.79 91.7954Z" fill="#4DA2E5" stroke="#E0EAFF" stroke-width="0.5" stroke-miterlimit="10"/>
<path d="M70.0258 78.8847C70.4519 78.16 72.2663 78.6272 73.0863 78.3217C74.2174 77.4553 74.9029 78.0969 75.5496 79.0973C75.1916 79.7278 74.2681 80.3584 74.554 81.1838C77.6307 81.1672 75.8816 83.1718 74.3576 84.216C73.1746 84.6943 73.4127 83.1973 72.5645 82.9692C71.2364 82.9432 70.9595 82.0602 71.1818 80.9203C70.8492 80.2355 70.5256 80.9391 70.1592 80.3279C70.1924 79.8059 69.6369 79.3453 70.0253 78.8847H70.0258Z" fill="#356EC8" stroke="#E0EAFF" stroke-width="0.5" stroke-miterlimit="10"/>
<path d="M86.5971 38.2076C88.3642 40.9075 86.722 41.5331 88.0232 41.9063C92.5012 41.3803 94.0849 46.0899 88.4773 44.955C87.5926 46.4138 89.4628 48.0558 89.8955 46.8129C89.7976 45.3071 90.9547 47.005 91.3931 47.3477C92.8603 48.7838 93.7726 48.5169 95.5144 49.2422C96.5088 49.6037 97.5562 48.3326 98.5776 48.466C99.1325 49.6934 97.6817 50.8576 99.5462 51.1239C100.915 52.2892 101.788 54.0885 103.754 54.2557C104.429 58.9813 97.0834 57.8098 97.2686 62.1479C95.2594 61.1022 94.3449 59.2199 91.7392 59.0715C87.1632 61.1941 89.9552 62.164 86.4384 62.6573C83.2991 60.2917 82.1882 63.0315 79.9872 61.632C80.0924 60.6072 80.0046 58.9381 79.524 58.0296C78.8959 56.701 81.0846 56.8366 81.7138 56.2536C82.2434 55.6928 82.4201 53.9562 82.8872 53.3594C84.2722 52.5566 83.827 51.7672 82.6283 51.0519C80.667 51.0126 78.8779 49.3468 81.0987 47.9345C82.5703 48.8425 85.9763 46.8472 84.0837 45.4765C83.051 45.2866 82.8067 43.7509 83.3149 43.0113C83.9599 42.714 84.8429 42.0751 83.9942 41.4412C83.1196 40.8278 81.9777 40.473 81.0525 39.9393C80.2055 37.5338 85.212 40.6213 86.5971 38.207V38.2076ZM85.9375 46.0395C84.6633 46.7315 85.9352 48.1914 86.9803 48.2446C87.7153 47.2104 87.2217 46.0279 85.9375 46.0395ZM92.5637 50.3151C93.279 49.8832 91.8467 48.8308 91.6216 49.3468C91.7916 49.9353 91.8129 50.3355 92.5637 50.3151Z" fill="#38CFDF" stroke="#E0EAFF" stroke-width="0.5" stroke-miterlimit="10"/>
<path d="M48.8764 77.4165C47.7542 74.4281 45.0928 74.8112 46.9827 71.0843C47.2286 71.1059 47.5635 71.2288 47.7244 70.9908C48.4335 70.0053 48.9108 70.5357 49.3227 69.078C54.1486 66.2801 52.4124 70.0253 57.9142 68.2725C58.9514 70.4039 59.7967 69.5591 61.5053 68.4602C62.193 68.3257 63.2381 67.9243 63.4278 67.2854C62.2566 66.8481 63.4149 65.4785 63.2939 64.679C60.1124 64.8014 62.5555 64.7095 60.0775 62.5504C60.1355 61.9304 61.3556 61.271 61.5897 60.667C62.2308 59.5299 62.668 57.5851 64.0756 59.5819C65.1831 60.2767 65.6182 58.6131 66.5732 58.793C72.801 60.1638 66.948 63.9876 73.6851 65.3915C73.8905 67.1443 71.5077 70.3032 72.3643 71.9734C72.3367 72.3399 71.8673 72.5691 71.5915 72.7435C71.1937 73.2074 70.601 75.0653 69.8115 75.0692C69.2335 75.2137 69.6606 75.8858 69.9499 76.1128C71.1301 76.8889 68.6865 77.05 70.0259 78.8841L69.807 79.311C68.2526 79.1383 66.8124 78.3333 65.6722 77.4082C64.2984 77.3014 64.2028 78.7092 63.2849 77.4486C60.7878 77.0882 65.5506 80.3756 58.0701 79.3647C56.4937 77.6214 53.9651 77.4558 52.4749 75.7806C51.9853 75.6998 51.8085 76.3935 51.481 76.631C50.2789 75.9423 49.93 76.8928 48.8753 77.416L48.8764 77.4165Z" fill="#092E72" stroke="#E0EAFF" stroke-width="0.5" stroke-miterlimit="10"/>
</g>
<path d="M60.2502 143.36C60.085 142.969 59.592 143.089 59.8217 142.699C60.0515 142.308 59.9198 142.668 60.2502 141.828C60.5806 140.988 61.0401 140.026 60.8103 138.824C60.5806 137.622 60.387 137.262 60.005 136.511C59.623 135.761 59.9198 136.33 59.13 135.161C58.3402 133.992 58.175 133.9 58.2085 133.239C58.2421 132.578 58.2421 132.547 58.6034 132.218C58.9648 131.889 59.3287 132.037 59.3287 131.406C59.3287 130.776 59.321 131.317 58.2033 130.025C57.0857 128.734 56.6908 128.614 57.0212 128.374C57.3516 128.134 57.6148 128.764 58.4718 129.065C59.3287 129.367 59.9869 129.59 59.6901 128.322C59.3933 127.054 59.5068 127.654 58.8899 126.663C58.273 125.673 59.0629 126.543 57.349 124.32C55.6351 122.097 55.8003 122.549 55.173 121.918C54.5458 121.288 54.1845 121.918 54.3832 120.445C54.582 118.973 55.3047 118.554 54.7781 117.893C54.2516 117.232 53.2965 117.112 53.4927 116.361C53.6889 115.611 53.5908 115.22 54.1509 115.58C54.711 115.94 54.9407 116.752 56.4249 116.211C57.9091 115.67 58.5002 115.34 59.2591 115.761C60.0179 116.182 60.0179 115.491 61.0375 115.942C62.0571 116.394 62.2558 117.293 63.1463 116.333C64.0368 115.373 66.4734 113.99 67.462 111.197C68.4506 108.405 68.4171 106.812 68.4506 105.4C68.4842 103.989 69.4728 104.349 69.6044 103.118C69.7361 101.888 69.6044 102.577 69.6044 101.497C69.6044 100.418 69.0443 99.7848 70.593 99.3942C72.1417 99.0037 70.8898 98.2838 72.6037 98.7331C74.3176 99.1825 75.0094 99.4248 75.7347 100.625C76.46 101.824 77.8771 103.358 78.5689 103.869C79.2606 104.379 83.615 104.975 83.615 104.975" stroke="black" stroke-width="0.5" stroke-miterlimit="10"/>
<path d="M124.483 29.2861C124.415 29.8908 123.46 31.9872 123.46 31.9872H124.483C125.232 31.9872 126.459 34.4649 127.074 35.2059C127.688 35.9468 127.893 36.2827 130.89 37.5591C133.887 38.8355 133.548 37.6935 134.912 39.4421C136.275 41.1908 135.731 40.3846 136.003 41.3252C136.275 42.2657 135.526 41.6611 134.912 43.0066C134.297 44.3522 134.64 44.4866 133.685 46.1008C132.73 47.7151 131.845 46.1008 130.89 46.3024C129.935 46.5039 130.277 46.9742 129.05 47.9167C127.822 48.8592 127.278 48.3869 126.595 47.9167C125.912 47.4464 125.776 46.5039 123.664 45.6306C121.552 44.7573 122.641 45.4291 121.21 44.5537C119.778 43.6784 120.391 44.9568 119.165 45.9665C117.94 46.9762 118.142 46.5039 116.849 46.909C115.556 47.314 116.168 46.4387 115.69 45.6978C115.211 44.9568 113.167 46.7746 111.806 45.6978C110.444 44.6209 109.558 44.8225 108.262 44.3522C106.967 43.8819 108.126 42.7379 108.262 42.1333C108.398 41.5287 109.081 39.9144 108.262 39.7109C107.443 39.5073 106.967 39.9124 106.286 39.4421C105.605 38.9719 104.65 39.2406 104.446 39.3078C104.242 39.375 103.287 40.2503 102.879 40.3846C102.47 40.519 102.879 39.4421 102.879 39.1062C102.879 38.7703 102.06 38.0966 100.971 38.0966C99.8815 38.0966 99.9476 37.492 99.4711 37.0197C98.9946 36.5475 97.495 36.8182 97.495 36.8182C97.495 36.8182 96.6081 36.8182 96.54 36.5495C96.472 36.2807 96.0635 35.1367 95.6531 34.868C95.2427 34.5993 94.4939 36.6166 94.0174 36.3479C93.5409 36.0792 93.1986 37.2232 91.9733 38.634C90.748 40.0448 91.9092 40.2568 90.9542 41.3336C89.9992 42.4105 87.7469 41.8626 87.3385 42.1313" stroke="black" stroke-width="0.5" stroke-miterlimit="10"/>
<path d="M42.9136 45.7679C41.6863 45.2305 41.7544 45.2305 40.391 45.0961C39.0276 44.9618 37.9365 47.1807 36.9835 45.5664C36.0305 43.9521 35.8923 43.6162 35.8923 42.7409C35.8923 41.8656 37.0515 42.4722 35.3478 41.3281M129.255 126.783C129.555 125.748 130.537 123.858 132.06 124.579C133.963 125.481 133.462 126.783 135.666 125.381C136.872 125.381 138.772 124.846 138.472 125.381" stroke="black" stroke-width="0.5" stroke-miterlimit="10"/>
<path d="M80.3051 96.6304C79.6402 96.8349 79.0777 98.3793 82.1461 102.92C85.9815 108.597 87.2088 107.983 87.5157 109.978C87.8225 111.972 87.9759 114.12 89.6635 114.12C91.3511 114.12 92.2716 112.586 92.7319 114.12C93.8058 117.188 95.0331 118.109 95.8002 119.183C96.5673 120.256 95.6468 121.024 99.1754 122.711C102.704 124.399 100.71 123.171 105.312 124.399C109.915 125.626 111.295 125.933 111.756 126.547C112.216 127.16 116.051 125.012 116.818 126.547C117.432 127.774 118.915 127.672 119.58 127.467" stroke="black" stroke-width="0.5"/>
<path d="M79.8865 61.6311C81.5641 62.4537 79.4177 65.58 81.1004 66.6357C82.1185 66.3346 82.8788 67.5525 82.7021 68.4466C82.2828 69.427 82.8006 69.5887 83.5282 70.0631C84.3218 71.389 85.5481 75.7781 84.7894 77.1222C88.8927 82.1684 86.9933 78.9868 82.3543 81.4022C80.6997 82.3179 77.3832 84.4592 76.2959 82.0372C76.1316 81.3717 75.7973 81.1813 75.1354 81.3601C72.8787 81.1686 76.3426 79.2653 75.0285 78.6136C74.0177 76.9766 73.469 78.6225 71.6873 78.4725C71.2303 78.2604 71.1363 78.5328 70.7423 78.5959C70.385 78.5566 70.0445 78.4199 69.9252 78.8849C69.7563 78.4337 69.3123 77.6742 69.5864 77.1975C71.385 76.5077 68.5801 75.772 69.7108 75.07C70.4581 75.0622 71.1442 73.2159 71.4908 72.7443C71.7722 72.5704 72.2309 72.3396 72.2635 71.9742C71.1183 70.521 74.6419 66.2255 73.191 65.2002C72.1319 65.1166 69.4322 63.9496 69.9117 62.6326C69.5532 60.1579 69.8036 61.2148 72.1077 60.3993C73.2833 60.1103 73.1843 61.2203 74.3599 60.4917C76.0196 61.0232 77.9837 62.2223 79.8865 61.6305V61.6311Z" fill="#2375A7" stroke="black" stroke-width="0.5" stroke-miterlimit="10"/>
<path d="M88.5831 95.5282C87.2571 93.8219 85.6678 95.842 84.3329 96.4516C83.3036 96.797 81.8083 96.5878 80.7615 96.9039C79.9646 97.2997 79.9111 97.3385 79.5014 96.5103C78.687 95.3931 77.6234 93.7339 76.298 93.4931C75.9907 93.2694 75.3199 91.9219 74.8747 92.5398L74.7678 92.3266C74.5692 88.0323 63.4452 84.9741 70.0179 81.0988C70.6184 80.2075 71.336 80.6753 71.0135 81.7034C70.9178 83.2895 72.5887 82.3063 73.6411 84.2843C74.7515 84.4869 75.7257 82.7231 76.2947 82.0366C78.4541 85.36 83.0593 80.027 86.207 80.2103C88.8076 80.0885 85.2767 81.6126 88.1801 86.6388C88.8583 87.5207 88.8948 86.5729 88.8262 88.252C90.0575 90.7688 88.5786 92.9599 88.5825 95.5276L88.5831 95.5282Z" fill="#356EC8" stroke="black" stroke-width="0.5" stroke-miterlimit="10"/>
<path d="M48.0587 82.2387C46.7828 79.165 51.8113 82.3029 48.2782 77.8878C51.9036 74.6492 50.0796 77.9997 52.2188 75.7681C53.1164 76.5963 53.0241 76.6389 54.3523 76.9666C55.5617 77.8956 57.0295 78.473 58.1877 79.4402C59.4213 79.2652 63.5375 80.2667 62.3286 77.7223C62.2847 77.4151 62.61 77.2778 62.8768 77.3519C64.8572 78.9829 64.295 76.2049 66.7352 78.1885C67.6458 79.3671 70.0191 78.5494 70.0585 80.3282C71.1131 81.1912 68.6881 80.998 67.7753 83.244C68.2035 84.0124 68.7258 85.0411 68.629 85.9473C65.9237 84.0385 64.7965 84.8168 61.8728 85.4452C60.427 85.0853 60.5373 84.6541 59.0679 85.8349C55.4722 86.1809 51.3504 83.3636 48.0592 82.2387H48.0587Z" fill="#092E72" stroke="black" stroke-width="0.5" stroke-miterlimit="10"/>
<path d="M103.032 86.8997C103.19 88.5451 106.807 87.5552 107.781 88.5041C111.298 92.3467 107.888 92.3899 106.911 96.1035C108.44 97.7118 106.146 100.411 106.786 102.131C106.997 102.263 103.255 102.985 103.286 103.036C101.931 103.271 100.009 105.747 98.6187 104.931C96.3326 102.562 95.7715 104.892 93.9003 101.043C89.5404 103.455 91.0228 102.15 90.783 98.5461C84.2688 91.2661 93.8744 88.0313 100.131 87.9804C102.096 87.4091 101.48 85.5893 103.031 86.8992L103.032 86.8997Z" fill="#356EC8" stroke="black" stroke-width="0.5" stroke-miterlimit="10"/>
<path d="M41.59 45.1183C42.168 45.4034 43.4579 44.7036 43.9971 44.5093C45.3207 44.2281 49.2726 45.2661 50.6098 45.0563C53.2689 43.1031 53.4496 43.1048 57.0323 42.9946C57.0345 43.1397 56.6411 45.9221 56.7205 46.014C56.9124 46.5305 57.6885 46.5876 58.0678 46.8893C58.5523 47.5879 59.0324 48.4754 59.8434 48.8624C60.2677 49.7238 59.1737 49.6883 59.3841 50.268C60.4917 51.3774 62.5144 49.5804 60.5879 52.783C60.5851 53.8144 59.9576 54.0918 59.1078 53.5326C57.586 54.4001 58.0391 57.8176 60.3336 57.7954C60.9988 59.1186 61.0292 58.86 62.4446 58.8185C60.2036 63.233 59.3408 61.493 61.1957 64.0795C61.8064 66.1035 64.0119 62.5642 62.8053 66.7462C62.7361 67.1825 63.8009 67.2566 63.1756 67.5207C61.6533 68.3699 58.7122 71.0339 57.8719 68.3185C55.0895 67.7626 57.3086 70.1016 52.7461 68.1203C51.723 67.4338 51.5091 68.1391 50.5991 68.505C48.5894 68.5997 48.7526 71.4026 46.9061 71.0018C47.0969 70.7521 45.861 69.9051 45.7428 69.7667C44.3505 68.8228 45.6505 67.6486 46.6179 67.0208C46.9849 66.9283 47.4942 67.1204 47.1734 66.5613C46.9066 66.2618 47.5792 66.5646 47.6872 66.6864C47.3529 65.551 48.5888 64.3795 49.2591 63.6139C48.7351 62.6827 49.6874 62.0355 49.8962 61.1852C47.4773 44.0692 40.9552 52.1918 41.59 45.1183Z" fill="#092E72" stroke="black" stroke-width="0.5" stroke-miterlimit="10"/>
<path d="M57.0504 42.9395C59.3825 41.6817 60.198 42.9816 61.8278 42.134C62.9461 41.3445 61.9089 39.8282 63.9479 40.7992C67.9611 43.9028 65.7966 39.3621 69.4817 42.0714C71.8662 43.2971 72.2647 39.9777 72.7858 42.0211C72.9986 42.5586 73.6458 42.5376 73.9564 42.1008C75.0977 39.3709 79.685 42.2796 82.0504 41.2742C82.3216 40.1676 83.5766 41.1408 84.1867 41.7503C84.5075 42.9478 81.787 42.9622 83.4382 45.2586C86.0371 46.0159 83.4815 47.9967 82.1703 48.3289C81.7307 48.201 81.2687 47.5915 80.8184 48.0643C80.5658 48.4191 79.4689 49.2435 79.9624 49.7345C85.1581 53.4016 84.0224 50.0811 81.6114 56.2544C80.6322 56.8567 78.5757 56.8556 79.573 58.5192C80.8258 61.8271 79.2246 62.3807 76.1912 61.2751C75.5283 60.9667 74.5141 60.128 73.7966 60.7425C73.164 60.8494 72.9653 60.1291 72.106 60.4004C67.5553 61.7241 71.8066 60.2421 66.4708 58.7938C65.1173 58.8901 64.6823 60.809 63.3299 58.8569C62.6461 58.47 61.247 59.3137 60.7253 58.543C60.1068 56.6574 59.0786 58.6471 58.4314 56.3679C57.7679 55.5862 58.5851 54.4618 58.7567 53.6104C59.0905 53.2649 59.5728 53.9818 59.9887 53.8086C60.7676 53.5998 60.449 52.5159 61.1317 52.0735C62.0991 49.5884 59.6048 51.5515 59.369 49.977C59.7151 49.7168 60.207 49.2069 59.7613 48.7995C58.5975 48.0637 58.1585 46.6819 56.8033 46.1765C56.505 45.9356 57.0695 43.2451 57.0492 42.9401L57.0504 42.9395Z" fill="#4DA2E5" stroke="black" stroke-width="0.5" stroke-miterlimit="10"/>
<path d="M97.1672 62.1479C96.9066 63.6022 98.4852 64.3153 99.2101 65.3118C99.4718 66.3166 99.2174 67.0629 100.382 67.5849C101.339 72.0271 108.75 73.5927 111.2 76.6448C114.76 76.0413 115 78.2768 114.112 81.0725C113.384 83.3257 112.409 82.3713 112.129 85.2351C110.02 87.8532 105.344 83.7758 102.994 86.535C103.13 87.588 102.304 85.8259 101.946 86.5195C100.556 88.8109 96.3506 88.5911 93.9655 88.5087C90.7751 89.0661 89.5781 93.9446 88.8267 88.2529C88.8943 86.5743 88.8633 87.5254 88.1801 86.6397C88.0737 86.1602 86.8063 83.5223 86.7968 83.0213C88.0552 79.4311 86.0742 79.4687 84.7668 76.8817C85.571 75.5193 84.3684 70.2489 82.6789 69.4932C82.2371 68.6484 83.2777 68.2742 82.2816 67.0308C82.0215 66.46 81.4047 66.6676 80.9162 66.605C80.4165 65.7547 80.0895 63.8165 80.6624 62.9163C79.8616 61.7327 83.5428 61.787 83.9947 61.4808C85.3724 62.1916 86.7501 63.2762 88.2825 62.0405C88.6376 60.7423 91.0627 58.7775 92.3858 59.2603C93.9396 59.0909 95.8233 61.643 97.1666 62.1485L97.1672 62.1479ZM101.195 63.9859C100.331 63.8182 99.787 63.5463 100.036 62.557C101.637 59.7912 105.839 65.4015 101.195 63.9859Z" fill="#4DA2E5" stroke="black" stroke-width="0.5" stroke-miterlimit="10"/>
<path d="M109.689 91.7954C110.657 94.1316 113.811 94.0619 115.366 95.5987C116.497 98.0042 116.454 98.1907 118.962 99.1186C119.684 99.8056 119.911 101.388 121.112 101.477C125.635 100.116 123.289 99.5011 127.141 101.987C127.458 102.003 129.137 101.706 129.42 101.917C130.313 102.286 130.737 103.606 129.657 104.025C128.762 104.547 129.918 105.348 129.304 105.932C123.645 106.808 125.268 109.408 129.416 111.144C129.113 113.031 134.235 115.247 131.644 115.254C130.038 117.823 126.409 112.968 126.568 116.971C128.82 118.328 130.31 120.526 129.018 123.189C128.033 125.226 130.935 127.744 129.437 127.105C116.554 122.231 123.233 137.104 113.972 117.442C112.737 114.376 117.479 114.494 112.352 112.237C111.485 111.908 110.84 110.969 110.109 110.448C109.692 110.294 108.201 110.197 108.237 109.482C108.269 108.606 109.455 107.46 109.514 106.601C109.172 104.569 109.866 101.852 106.786 102.134C106.234 101.153 107.527 98.6951 107.47 97.6709C107.668 97.0376 106.737 96.304 106.978 95.7045C107.55 94.714 108.567 92.3003 109.688 91.7965L109.689 91.7954Z" fill="#4DA2E5" stroke="black" stroke-width="0.5" stroke-miterlimit="10"/>
<path d="M69.9245 78.8847C70.3505 78.16 72.165 78.6272 72.9849 78.3217C74.1161 77.4553 74.8016 78.0969 75.4482 79.0973C75.0903 79.7278 74.1668 80.3584 74.4527 81.1838C77.5294 81.1672 75.7803 83.1718 74.2563 84.216C73.0733 84.6943 73.3113 83.1973 72.4632 82.9692C71.1351 82.9432 70.8582 82.0602 71.0805 80.9203C70.7479 80.2355 70.4243 80.9391 70.0579 80.3279C70.0911 79.8059 69.5356 79.3453 69.9239 78.8847H69.9245Z" fill="#356EC8" stroke="black" stroke-width="0.5" stroke-miterlimit="10"/>
<path d="M86.4957 38.2076C88.2629 40.9075 86.6207 41.5331 87.9218 41.9063C92.3999 41.3803 93.9836 46.0899 88.376 44.955C87.4913 46.4138 89.3614 48.0558 89.7942 46.8129C89.6963 45.3071 90.8534 47.005 91.2918 47.3477C92.759 48.7838 93.6712 48.5169 95.4131 49.2422C96.4075 49.6037 97.4548 48.3326 98.4763 48.466C99.0312 49.6934 97.5803 50.8576 99.4448 51.1239C100.814 52.2892 101.686 54.0885 103.653 54.2557C104.328 58.9813 96.9821 57.8098 97.1673 62.1479C95.1581 61.1022 94.2436 59.2199 91.6379 59.0715C87.0619 61.1941 89.8539 62.164 86.337 62.6573C83.1978 60.2917 82.0869 63.0315 79.8858 61.632C79.9911 60.6072 79.9033 58.9381 79.4227 58.0296C78.7946 56.701 80.9833 56.8366 81.6125 56.2536C82.142 55.6928 82.3188 53.9562 82.7859 53.3594C84.1709 52.5566 83.7257 51.7672 82.527 51.0519C80.5657 51.0126 78.7766 49.3468 80.9973 47.9345C82.469 48.8425 85.875 46.8472 83.9823 45.4765C82.9496 45.2866 82.7054 43.7509 83.2136 43.0113C83.8585 42.714 84.7415 42.0751 83.8929 41.4412C83.0183 40.8278 81.8764 40.473 80.9512 39.9393C80.1042 37.5338 85.1107 40.6213 86.4957 38.207V38.2076ZM85.8362 46.0395C84.562 46.7315 85.8339 48.1914 86.879 48.2446C87.614 47.2104 87.1204 46.0279 85.8362 46.0395ZM92.4624 50.3151C93.1777 49.8832 91.7454 48.8308 91.5203 49.3468C91.6902 49.9353 91.7116 50.3355 92.4624 50.3151Z" fill="#38CFDF" stroke="black" stroke-width="0.5" stroke-miterlimit="10"/>
<path d="M48.7751 77.4165C47.6529 74.4281 44.9915 74.8112 46.8814 71.0843C47.1273 71.1059 47.4621 71.2288 47.6231 70.9908C48.3322 70.0053 48.8095 70.5357 49.2214 69.078C54.0473 66.2801 52.3111 70.0253 57.8129 68.2725C58.8501 70.4039 59.6954 69.5591 61.404 68.4602C62.0917 68.3257 63.1368 67.9243 63.3265 67.2854C62.1553 66.8481 63.3135 65.4785 63.1925 64.679C60.0111 64.8014 62.4542 64.7095 59.9762 62.5504C60.0342 61.9304 61.2543 61.271 61.4884 60.667C62.1294 59.5299 62.5667 57.5851 63.9742 59.5819C65.0818 60.2767 65.5168 58.6131 66.4719 58.793C72.6997 60.1638 66.8467 63.9876 73.5838 65.3915C73.7892 67.1443 71.4064 70.3032 72.2629 71.9734C72.2354 72.3399 71.766 72.5691 71.4902 72.7435C71.0923 73.2074 70.4997 75.0653 69.7101 75.0692C69.1322 75.2137 69.5593 75.8858 69.8486 76.1128C71.0287 76.8889 68.5851 77.05 69.9246 78.8841L69.7056 79.311C68.1512 79.1383 66.7111 78.3333 65.5709 77.4082C64.1971 77.3014 64.1014 78.7092 63.1835 77.4486C60.6865 77.0882 65.4493 80.3756 57.9688 79.3647C56.3924 77.6214 53.8638 77.4558 52.3736 75.7806C51.8839 75.6998 51.7072 76.3935 51.3797 76.631C50.1776 75.9423 49.8287 76.8928 48.774 77.416L48.7751 77.4165Z" fill="#092E72" stroke="black" stroke-width="0.5" stroke-miterlimit="10"/>
<defs>
<filter id="filter0_d_1102_65723" x="0.808228" y="0.830566" width="172.511" height="172.511" filterUnits="userSpaceOnUse" color-interpolation-filters="sRGB">
<feFlood flood-opacity="0" result="BackgroundImageFix"/>
<feColorMatrix in="SourceAlpha" type="matrix" values="0 0 0 0 0 0 0 0 0 0 0 0 0 0 0 0 0 0 127 0" result="hardAlpha"/>
<feOffset dy="4"/>
<feGaussianBlur stdDeviation="10"/>
<feComposite in2="hardAlpha" operator="out"/>
<feColorMatrix type="matrix" values="0 0 0 0 0 0 0 0 0 0 0 0 0 0 0 0 0 0 0.15 0"/>
<feBlend mode="normal" in2="BackgroundImageFix" result="effect1_dropShadow_1102_65723"/>
<feBlend mode="normal" in="SourceGraphic" in2="effect1_dropShadow_1102_65723" result="shape"/>
</filter>
<clipPath id="clip0_1102_65723">
<rect width="91" height="90" fill="white" transform="translate(42.647 38.6963)"/>
</clipPath>
</defs>
</svg>
