<svg width="140" height="141" viewBox="0 0 140 141" fill="none" xmlns="http://www.w3.org/2000/svg">
<path d="M70 140.89C108.66 140.89 140 109.55 140 70.8896C140 32.2297 108.66 0.889648 70 0.889648C31.3401 0.889648 0 32.2297 0 70.8896C0 109.55 31.3401 140.89 70 140.89Z" fill="url(#paint0_radial_1334_35)"/>
<g style="mix-blend-mode:hard-light">
<path d="M128.233 95.5256C128.212 95.5986 128.191 95.7029 128.17 95.7759C128.295 95.317 128.327 95.1188 128.295 94.8268C128.306 95.0354 128.275 95.3066 128.17 95.7759C128.066 96.1723 127.555 98.1333 127.159 97.5491C126.992 97.3092 126.814 96.673 126.627 96.0054C126.053 93.9923 125.5 92.1982 124.488 90.5189C124.509 90.4667 124.54 90.3833 124.561 90.3311C126.314 90.2686 128.087 93.7733 127.962 94.858C128.076 94.858 128.181 94.858 128.295 94.8372C128.306 94.9832 128.327 95.1605 128.233 95.536V95.5256Z" fill="white"/>
<path d="M107.301 22.4273C107.166 22.3128 107.03 22.1983 106.895 22.0942C107.03 22.2087 107.166 22.3232 107.301 22.4273Z" fill="white"/>
<path d="M131.112 105.362C129.881 107.375 128.222 110.055 126.887 111.995C126.929 111.933 126.992 111.849 127.033 111.787C126.501 112.527 126.168 112.976 125.615 113.696C126.188 112.924 126.47 112.527 126.658 112.204C126.345 112.392 122.934 115.865 122.496 116.324C122.006 116.835 121.985 116.846 121.609 116.992C121.641 116.919 121.672 116.814 121.714 116.741C122.319 115.625 123.164 114.655 123.779 113.539C124.217 112.746 124.248 111.776 124.853 111.057C124.885 111.119 124.937 111.192 124.968 111.255C124.989 111.234 125.02 111.203 125.041 111.182C125.291 110.577 125.573 109.732 125.949 109.19C126.084 108.981 126.272 108.71 126.418 108.522C127.263 107.406 128.327 106.478 129.172 105.362C129.683 104.694 129.975 103.901 130.444 103.202C130.528 103.077 130.632 102.952 130.726 102.827C130.684 102.973 130.642 103.119 130.59 103.265C130.601 103.265 130.621 103.244 130.642 103.234C130.795 102.907 131.414 101.794 132.499 99.8959C132.562 100.115 132.572 100.23 132.269 100.981C132.374 100.783 132.489 100.574 132.593 100.365C132.614 100.397 132.645 100.438 132.676 100.48C132.968 99.9376 133.959 98.1018 134.314 96.9545C134.345 97.0379 134.376 97.1631 134.397 97.257C134.488 97.2152 134.623 97.0692 134.804 96.8189C134.178 98.3557 133.775 99.5169 133.594 100.303C134.752 98.5816 135.002 96.4851 135.92 94.6702C135.618 95.5776 135.524 95.8593 135.117 96.944C135.159 96.8502 135.221 96.725 135.253 96.6207C135.054 97.1527 134.877 97.5803 134.658 98.1123C133.636 100.303 132.332 103.265 131.122 105.362H131.112Z" fill="white"/>
<path d="M136.61 92.8356L136.944 91.7821C137.132 91.1772 137.466 89.9776 137.466 89.9672C137.549 88.938 137.573 88.3922 137.539 88.3296C137.32 88.4339 137.121 88.8407 136.454 90.3949C136.704 88.6634 136.704 88.4756 136.652 88.3713C136.621 88.3922 136.589 88.413 136.568 88.4443C136.513 88.5208 136.367 88.7712 136.13 89.1953C136.193 89.4144 136.13 89.6439 136.172 89.8629C136.339 89.842 136.297 89.623 136.443 89.5813C136.464 89.6021 136.537 89.7064 136.214 90.1654C136.151 90.2558 136.075 90.6348 135.984 91.3023C136.057 91.1041 136.13 90.906 136.193 90.7078C136.349 90.9268 136.381 90.9685 136.516 91.0207C136.569 91.0416 136.589 91.052 136.589 91.1563C136.589 91.4171 136.266 92.7209 136.162 93.159C136.203 93.086 136.245 93.0025 136.276 92.9295C136.203 93.2737 136.193 93.3676 136.183 93.4406C136.183 93.4719 136.183 93.5032 136.183 93.5449C136.235 93.524 136.266 93.4615 136.266 93.4615L136.287 93.4093C136.308 93.3467 136.339 93.2841 136.36 93.2216C136.402 93.1277 136.443 93.0338 136.464 92.9295C136.568 92.2619 136.881 91.7508 136.892 91.7404C136.913 91.8656 136.642 92.7417 136.6 92.8356H136.61Z" fill="white"/>
<path d="M133.334 89.6213L133.282 89.6526C133.282 89.6526 133.251 89.6734 133.23 89.6839C133.22 89.6839 133.199 89.7047 133.188 89.7152C133.042 89.809 133.032 89.8195 133.011 89.8195C132.646 91.4049 132.072 93.4806 131.405 94.3255C131.238 94.1795 131.081 94.0334 130.904 93.8874C130.675 94.256 130.525 94.4402 130.456 94.4402C130.403 94.3672 130.403 94.2525 130.32 94.1899C130.163 94.3255 130.153 94.3255 130.017 94.3568C129.976 94.3255 129.934 94.2629 129.934 94.2212C129.903 93.8666 130.049 93.5328 130.038 93.1781C130.028 92.8548 129.84 92.5627 129.861 92.2289C129.903 91.6761 130.038 91.311 130.299 90.5913C130.466 90.6331 130.633 90.6748 130.789 90.7165C132.177 87.9107 133.042 85.6681 133.251 85.0422C133.491 85.4386 133.626 85.6785 133.825 86.0436C133.282 87.4621 132.813 88.693 133.376 89.5691C133.355 89.5796 133.334 89.59 133.314 89.6109L133.334 89.6213Z" fill="white"/>
<path d="M134.858 51.0385C136.599 55.9618 135.921 56.233 135.567 56.379C135.678 56.6641 135.748 57.0918 135.775 57.662C135.671 57.6411 135.56 57.3456 135.442 56.7754C135.129 57.203 135.16 57.7767 134.826 58.1939C134.805 58.1522 134.774 58.0896 134.753 58.0479C134.785 57.4534 134.868 55.628 135.275 56.0244C135.254 55.6384 135.254 55.5759 134.941 53.8652C134.951 53.907 134.972 53.9487 134.983 53.9904C134.993 54.0321 135.004 54.0634 135.024 54.1051C135.035 54.1364 135.045 54.1677 135.056 54.2094C135.056 54.2407 135.077 54.272 135.087 54.3033C135.087 54.3346 135.108 54.3555 135.118 54.3868C135.118 54.4181 135.139 54.4389 135.139 54.4702C135.139 54.4911 135.16 54.5224 135.16 54.5432C135.16 54.5745 135.181 54.5954 135.181 54.6267C135.296 53.4063 134.972 52.3841 134.273 50.1311C134.326 50.0789 134.378 50.0268 134.43 49.9746C134.524 50.1624 134.628 50.3605 134.868 51.0281L134.858 51.0385Z" fill="white"/>
<path d="M135.102 88.151C134.862 89.121 134.737 89.1732 133.777 89.6008C133.589 90.0876 133.527 90.5848 133.589 91.0924C133.829 90.7795 134.006 90.55 134.267 90.1954C134.267 90.2475 134.267 90.3101 134.267 90.3622C133.819 91.2906 133.422 92.0937 133.746 92.9803C133.6 93.2098 133.454 93.4289 133.308 93.6583C133.349 93.1785 133.381 92.7404 133.401 92.198C133.203 92.5005 133.182 92.5527 132.984 93.4914C132.838 94.2007 132.72 94.5727 132.63 94.6075C132.63 94.6075 132.4 94.2424 133.255 91.2176C133.829 89.2044 134.006 88.7872 134.267 88.8498C134.611 88.9332 134.726 88.9541 135.164 87.8589C135.143 87.9528 135.122 88.0675 135.102 88.1614V88.151Z" fill="white"/>
<path d="M131.513 42.0691C131.419 41.9856 131.336 41.9126 131.242 41.8292C131.325 42.0795 131.492 42.6114 131.67 42.9765C131.764 43.1643 131.899 43.425 132.014 43.6024C132.202 43.9048 132.588 44.0822 132.588 44.4994C132.588 44.4994 132.497 44.4055 132.316 44.2178C132.4 44.4785 132.483 44.7497 132.556 45.0105C131.263 42.4446 129.782 39.9829 128.488 37.417C129.646 39.0546 130.533 40.4106 131.534 42.0899L131.513 42.0691Z" fill="white"/>
<path d="M111.81 18.8093C112.509 19.5186 112.3 20.1445 111.789 20.1132C111.278 20.0819 110.506 19.2266 110.715 19.091C110.819 19.0179 111.111 19.1118 111.267 19.1535C111.121 18.9762 110.975 18.7989 110.829 18.6216L110.975 18.7363C111.226 18.7363 111.466 18.7155 111.716 18.705C111.747 18.7363 111.779 18.7676 111.81 18.7989V18.8093Z" fill="white"/>
<path d="M135.684 77.7416C135.632 77.9606 135.58 78.1901 135.528 78.4091C135.246 78.3257 134.954 78.2527 134.672 78.1797C134.707 77.8807 134.731 77.6894 134.745 77.606C134.53 77.3904 134.422 77.2653 134.422 77.2305C134.422 77.1575 134.422 77.0114 134.443 76.8028C134.516 75.7493 134.526 75.0296 134.516 74.0596C134.672 74.0596 134.839 74.0804 134.996 74.0909C135.152 75.2174 135.089 75.5511 134.985 75.9371C134.87 76.3647 134.85 76.6464 134.985 77.6894C135.225 77.6894 135.455 77.6686 135.694 77.6477C135.694 77.679 135.684 77.7207 135.674 77.7416H135.684Z" fill="white"/>
<path d="M134.042 47.337C134.073 47.5977 134.115 47.9941 134.157 48.4739C133.941 48.6895 133.827 48.8564 133.813 48.9746C133.813 48.9746 133.834 49.0059 133.844 49.0267C133.997 49.2771 134.066 49.4926 134.053 49.6734C133.938 49.4439 133.761 49.2458 133.688 48.9954C133.583 48.6512 133.583 48.2966 133.521 47.9524C133.343 47.024 133.02 46.4191 132.707 45.908C133.051 46.1479 133.208 46.5651 133.562 46.7946C133.656 46.8571 133.698 46.7737 133.688 46.5442C133.91 46.9545 134.028 47.2153 134.042 47.3265V47.337Z" fill="white"/>
<path d="M130.291 98.1332C129.248 98.2583 128.821 98.3209 128.289 98.4252C128.205 98.4356 128.132 98.4669 128.049 98.4565C128.007 98.4565 127.976 98.4565 127.934 98.4252C127.819 98.3313 127.736 98.2062 127.621 98.1019C127.725 97.7055 127.809 97.5595 127.976 97.4552C128.101 97.4134 128.184 97.403 128.456 97.4969C128.894 97.6533 129.186 97.7159 129.551 97.0901C129.551 97.1214 129.551 97.1631 129.551 97.2048C129.655 97.2465 129.749 97.1631 129.853 97.1631C129.881 97.2396 129.836 97.4343 129.718 97.7472C130.135 97.5734 130.368 97.5004 130.417 97.5282C130.465 97.556 130.42 97.7576 130.281 98.1332H130.291Z" fill="white"/>
<path d="M100.344 20.1962C100.615 20.4674 100.886 20.7386 101.147 21.0098C101.126 21.0098 101.085 21.0203 101.064 21.0307C99.8538 21.3227 99.7182 21.2184 99.5617 21.0933C99.2697 20.8638 99.2384 20.8951 99.0193 21.0515C98.842 20.4674 99.061 20.2797 99.2071 20.2067C99.4053 20.1545 99.5617 20.2067 99.8329 20.384C99.8329 20.1754 99.8329 20.0606 99.9164 20.0398C99.9372 20.0398 100.115 19.9772 100.344 20.2067V20.1962Z" fill="white"/>
<path d="M135.963 82.9365C135.824 83.2147 135.744 83.6388 135.723 84.209C135.535 84.1256 135.434 83.7049 135.42 82.9469C135.254 83.1973 135.087 83.4372 134.92 83.6771C134.888 83.2912 134.93 83.166 135.097 82.8844C135.243 82.6445 135.254 82.5506 135.264 82.3315C135.285 82.3315 135.306 82.3107 135.327 82.3002C135.337 82.3837 135.358 82.4671 135.379 82.5506C135.692 81.9978 135.859 81.6848 135.859 81.6848C135.932 81.4658 135.858 81.2363 135.869 81.0173C136.13 80.986 136.098 82.6757 135.963 82.9469V82.9365Z" fill="white"/>
<path d="M102.732 20.655C102.899 21.3121 102.19 21.8128 101.856 21.8336C101.825 21.625 101.793 21.5207 101.522 21.0305C101.23 20.5089 101.209 20.3629 101.387 20.2586C101.428 20.2482 101.46 20.2377 101.512 20.2273C101.574 20.3107 101.637 20.4046 101.689 20.4881C102.023 20.5089 102.367 20.5194 102.701 20.5402C102.711 20.5715 102.732 20.6132 102.732 20.655Z" fill="white"/>
<path d="M98.9797 19.6008C99.376 20.5917 98.3017 20.3414 97.947 20.2579C97.8636 20.0806 97.7801 19.9033 97.6863 19.7364C97.6758 19.7155 97.655 19.6842 97.6445 19.6634C97.6445 19.5487 97.655 19.3505 97.874 19.2566C97.9783 19.2253 98.1243 19.2149 98.4268 19.3087C98.6667 19.3818 98.9379 19.5174 98.9379 19.5278C98.9588 19.5382 98.9588 19.5904 98.9692 19.6112L98.9797 19.6008Z" fill="white"/>
<path d="M117.628 91.259C117.524 91.937 116.846 92.3229 116.637 92.0517C116.46 91.8327 116.522 90.2368 116.522 90.216C116.522 90.1534 116.641 89.8057 116.877 89.1729C116.929 89.1625 116.981 89.1416 117.044 89.1416C117.586 90.6853 117.68 90.967 117.639 91.259H117.628Z" fill="white"/>
<path d="M112.149 23.2203C112.691 23.7418 112.628 23.8566 112.357 23.8566C112.107 23.8566 111.857 23.8044 111.606 23.7835C111.617 23.721 111.637 23.6479 111.658 23.5854C111.373 23.3559 111.179 23.1751 111.074 23.043C111.262 23.043 111.45 23.043 111.637 23.043C111.752 23.043 111.857 23.0221 111.971 23.043C112.044 23.0534 112.096 23.1577 112.149 23.2099V23.2203Z" fill="white"/>
<path d="M135.162 59.2068C135.329 59.8952 135.392 60.6671 135.412 60.9174C135.35 60.8966 135.214 60.8444 135.131 60.5523C135.006 60.1456 135.026 59.7179 134.933 59.3007C134.88 59.4154 134.828 59.5301 134.776 59.6449C134.745 59.1859 134.714 58.6435 134.818 58.5184C134.953 58.4245 135.11 59.0295 135.162 59.2172V59.2068Z" fill="white"/>
<path d="M134.283 68.7714C134.336 69.3034 134.263 70.336 134.231 70.7845C133.772 70.2734 133.991 68.6671 134.116 68.083C134.228 68.4724 134.287 68.7019 134.294 68.7714H134.283Z" fill="white"/>
<path d="M131.176 75.1434C131.145 75.3208 131.03 75.9362 130.895 76.5933C130.457 75.7275 130.478 75.1956 130.78 75.0391C130.895 74.987 131.02 74.987 131.197 75.0496C131.197 75.0808 131.187 75.1121 131.176 75.1434Z" fill="white"/>
<path d="M112.693 18.5685C112.808 18.8189 112.661 18.9753 112.265 18.8189C112.036 18.725 111.806 18.5581 111.66 18.4538C111.994 18.5998 112.077 18.579 112.161 18.4747C112.213 18.4225 112.244 18.3912 112.359 18.4017C112.359 18.4017 112.641 18.4642 112.682 18.5581L112.693 18.5685Z" fill="white"/>
<path d="M137.664 89.2977C137.643 89.3602 137.622 89.4333 137.602 89.4958C137.654 89.2872 137.716 89.0891 137.768 88.8909L137.664 89.2977Z" fill="white"/>
<path d="M133.669 95.9017C132.835 97.508 132.772 97.5184 132.741 97.5288C132.699 97.3724 133.148 96.225 133.555 95.8704C133.628 95.8182 133.669 95.7974 133.721 95.8078C133.711 95.8391 133.69 95.8704 133.669 95.9017Z" fill="white"/>
<path d="M135.921 87.766C135.577 89.1845 135.556 89.2158 135.504 89.2784C135.619 88.5378 135.681 87.7868 135.796 87.0358C135.796 86.9941 135.848 86.9837 135.869 86.9524C135.942 87.6617 135.942 87.6721 135.921 87.7555V87.766Z" fill="white"/>
<path d="M113.788 20.738C113.85 20.891 113.878 20.9744 113.871 20.9883C113.871 20.9883 113.85 21.0196 113.558 21.1239C113.339 20.8527 113.245 20.7171 113.287 20.6232C113.35 20.5398 113.579 20.5398 113.579 20.5398L113.756 20.665C113.756 20.665 113.777 20.7171 113.788 20.738Z" fill="white"/>
<path d="M135.464 57.8707C135.485 58.2358 135.454 58.2358 135.422 58.2358C135.37 58.2358 135.37 58.3088 135.464 59.0494C135.308 58.9659 135.235 58.8095 135.193 58.4548C135.193 58.3818 135.141 57.9541 135.141 57.9541L135.297 57.6517C135.297 57.6517 135.318 57.6412 135.464 57.7455C135.464 57.7873 135.464 57.829 135.464 57.8707Z" fill="white"/>
<path d="M112.755 23.1472C112.786 23.3454 112.817 23.554 112.849 23.7522C112.817 23.7418 112.765 23.7209 112.734 23.7105C112.567 23.5019 112.4 23.3141 112.233 23.1055C112.171 23.0221 112.171 23.0116 112.181 23.0012C112.191 23.0012 112.212 22.9908 112.285 23.0012C112.442 23.0325 112.588 23.0742 112.744 23.1055C112.744 23.1472 112.744 23.1472 112.744 23.1472H112.755Z" fill="white"/>
<path d="M135.829 80.5795C135.777 80.4439 135.725 80.3083 135.673 80.1727C135.641 80.2249 135.589 80.2562 135.589 80.3292C135.568 80.663 135.61 80.9863 135.621 81.3201C135.412 80.882 135.495 80.1519 135.652 80.0163C135.808 79.9224 135.892 80.4648 135.892 80.4752C135.892 80.517 135.85 80.5587 135.84 80.59L135.829 80.5795Z" fill="white"/>
<path d="M135.65 90.9363C135.428 91.0892 135.306 91.1623 135.285 91.1553C135.285 91.1553 135.233 91.0614 135.244 90.8633C135.296 90.905 135.337 90.8632 135.504 90.6964C135.65 90.5503 135.713 90.5399 135.682 90.905L135.65 90.9258V90.9363Z" fill="white"/>
<path d="M132.543 96.7984C132.116 96.9129 132.189 96.7984 132.303 96.7048C132.408 96.6423 132.481 96.6631 132.564 96.788H132.543V96.7984Z" fill="white"/>
<path d="M98.6245 20.6138C98.6245 20.6138 98.7079 20.697 98.7496 20.7387C98.1342 20.874 98.0925 20.8219 98.0508 20.7803C98.4402 20.6693 98.6349 20.6138 98.6349 20.6138H98.6245Z" fill="white"/>
<path d="M135.349 80.0157C135.266 80.3077 135.172 80.6102 135.078 80.9023C135.057 80.9023 135.036 80.9023 135.016 80.9023C135.047 80.558 135.078 80.2138 135.109 79.8696C135.193 79.9114 135.287 79.9426 135.37 79.9739V80.0157H135.349Z" fill="white"/>
<path d="M135.973 79.7031C135.879 79.4006 135.785 79.0981 135.691 78.7956C135.785 78.7643 135.879 78.7435 135.973 78.7122C135.973 78.8686 135.983 79.0251 136.004 79.1815C136.004 79.3067 136.046 79.4214 136.046 79.5466C136.046 79.5988 136.004 79.6613 135.983 79.7031H135.973Z" fill="white"/>
<path d="M128.538 95.1079C128.465 95.014 128.382 94.9202 128.309 94.8263C128.34 94.6177 128.35 94.3986 128.402 94.2005C128.402 94.1692 128.465 94.1483 128.486 94.1274C128.517 94.2839 128.538 94.4508 128.569 94.6072C128.59 94.7116 128.622 94.8263 128.622 94.9306C128.622 94.9828 128.559 95.0558 128.538 95.0975V95.1079Z" fill="white"/>
<path d="M131.804 98.1758C131.731 98.0923 131.647 98.0089 131.574 97.9359C131.699 97.7586 131.772 97.6855 131.825 97.6438C131.918 97.5812 131.918 97.7377 131.814 98.1862L131.804 98.1758Z" fill="white"/>
<path d="M65.7362 69.8882C65.7362 69.8882 65.7046 69.8252 65.6836 69.7832C65.7046 69.8147 65.7152 69.8567 65.7362 69.8882Z" fill="white"/>
<path d="M94.8881 112.611C94.7213 112.559 94.5648 112.517 94.3979 112.465C94.1371 113.623 91.9154 118.348 91.3522 119.057C90.6742 119.912 89.7041 119.714 89.2347 118.984C89.0887 118.754 88.8697 118.285 89.0366 117.659C89.2556 116.856 90.2778 116.512 90.2569 115.573C90.2569 115.198 89.9127 114.874 90.0692 114.467C90.1944 114.154 90.5073 113.737 90.7785 113.362C90.7576 113.414 90.7785 113.435 90.7785 113.445C90.7993 113.445 92.9376 112.778 94.2936 110.483C94.3875 110.472 94.4709 110.452 94.5648 110.441C94.7838 111.568 94.8673 111.964 94.982 112.652C94.9507 112.652 94.909 112.632 94.8777 112.621L94.8881 112.611Z" fill="white"/>
<path d="M60.0794 53.6893C60.0168 53.971 59.7144 54.4612 59.4953 54.8159C59.6413 54.868 59.7978 54.9097 59.9438 54.9619C59.7039 55.2331 59.2554 55.3165 57.7012 55.4626C56.0428 55.6294 55.6151 55.7233 55.2813 56.0258C55.2605 55.9737 55.2292 55.9006 55.2188 55.8589C55.6568 55.4313 56.1054 54.9932 56.5434 54.5551C56.2166 54.3952 55.9176 54.27 55.6464 54.1796C55.8481 53.9293 56.0671 53.738 56.3035 53.6059C56.0323 52.8653 56.0532 52.6567 56.6895 52.5941C56.8459 52.5837 57.0754 52.5107 57.1588 52.3751C57.3257 52.0935 57.0963 51.3216 56.5122 51.1547C56.3348 51.1025 56.1888 51.0608 56.1888 50.7479C56.1888 50.6784 56.2131 50.3585 56.2618 49.7883C56.1366 49.8717 56.0115 49.9552 55.8863 50.0386C55.9072 49.8509 55.9176 49.6527 55.9385 49.4649C55.8029 49.4649 55.6777 49.4858 55.5421 49.4962C55.8272 49.0164 56.0289 48.6792 56.1471 48.4845H56.0636C56.0636 48.4845 56.0115 48.4845 55.9802 48.474C55.9489 48.474 55.928 48.474 55.8967 48.474C55.8655 48.474 55.8446 48.474 55.8133 48.474C55.782 48.474 55.7611 48.474 55.7299 48.474C55.6986 48.474 55.6777 48.474 55.6464 48.474C55.6151 48.474 55.5943 48.474 55.563 48.474C55.5317 48.474 55.5108 48.474 55.4795 48.474C56.2027 47.7161 56.5956 47.3197 56.6582 47.2849C57.0858 47.045 57.5656 47.1076 58.0246 47.0242C57.7638 47.3684 57.5031 47.7126 57.2423 48.0568C57.6595 48.1924 58.0663 48.3176 58.4835 48.4532C58.1811 48.9121 57.889 49.3606 57.5969 49.8196C58.5774 50.8835 58.9946 51.6658 59.3806 53.1887C59.9125 53.1991 60.1837 53.293 60.0794 53.7206V53.6893Z" fill="white"/>
<path d="M52.8654 40.0455C52.542 40.5566 50.9149 41.7561 47.7857 40.6817C47.9421 40.5983 48.0881 40.5148 48.2446 40.4418C48.2446 39.8473 48.109 39.6491 47.6292 39.5344C47.8065 39.5135 47.9734 39.5031 48.1507 39.4822C48.182 39.3675 48.1925 39.3466 48.1925 39.3362C48.1925 39.3153 48.2029 39.3049 48.2133 39.284C48.2133 39.2632 48.2237 39.2423 48.2342 39.2319C48.2342 39.211 48.2446 39.1901 48.255 39.1693C48.255 39.1484 48.2655 39.1276 48.2759 39.1067C48.2759 39.0858 48.2863 39.065 48.2968 39.0337C48.0047 39.0337 47.7022 39.0337 47.4102 39.0337C47.8482 38.3453 48.1299 38.1262 48.568 38.1262C48.8287 38.1784 48.9956 38.2931 49.2355 38.606C49.1521 38.7521 49.0686 38.8877 48.9852 39.0337C49.006 39.0754 49.0478 39.1276 49.0686 39.1589C49.319 38.9502 49.5693 38.7416 49.8196 38.533C49.8614 38.5852 49.9031 38.6269 49.9552 38.679C54.0545 38.0219 52.8758 40.0246 52.8654 40.0455Z" fill="white"/>
<path d="M71.6622 25.9753C71.1406 26.1422 71.0259 26.1839 70.9216 26.3195C70.8799 26.3717 70.8277 26.476 70.7756 26.6011C70.5356 27.1227 70.2853 27.5399 69.7638 28.2179C69.3466 27.9363 68.9189 27.6546 68.5017 27.3626C68.9189 27.2896 69.3361 27.2061 69.7638 27.1331C69.7638 27.0601 69.7638 26.9975 69.7638 26.9245H69.6073C69.6073 26.9245 69.503 26.9245 69.4509 26.9245C69.3987 26.9245 69.3466 26.9245 69.2944 26.9245C69.2423 26.9245 69.1901 26.9245 69.1379 26.9245C69.0858 26.9245 69.0336 26.9245 68.9815 26.9245C68.9293 26.9245 68.8772 26.9245 68.825 26.9245C68.7729 26.9245 68.7207 26.9245 68.6686 26.9245C68.6164 26.9245 68.5643 26.9245 68.5121 26.9245V26.8202C69.0962 26.5907 69.7429 26.3404 69.7742 26.2256C69.7429 26.2152 69.1275 25.944 68.6164 26.3091C68.3348 26.5073 68.1992 26.5386 67.5525 25.871C67.6151 25.7771 67.6881 25.6728 67.7507 25.5789C67.5838 25.4642 67.4169 25.3599 67.25 25.2452C67.2709 25.1722 67.2813 25.1096 67.3021 25.0366C67.6881 24.9635 68.074 24.8905 68.4599 24.8175C68.4599 24.8384 68.4704 24.8801 68.4808 24.901C68.3869 24.974 68.2931 25.047 68.1992 25.12C68.3139 25.2034 68.4287 25.2973 68.5434 25.3808C68.7103 25.0818 69.0406 25.1756 69.5343 25.6624C69.4717 25.3912 69.4091 25.12 69.3466 24.8592C69.4926 24.7654 69.5969 24.7236 69.7534 24.7236C70.0454 24.7445 70.1914 24.8592 70.2332 25.0887C70.8068 25.4329 71.1823 25.652 71.7769 25.9962C71.7352 26.0066 71.6935 26.0275 71.6517 26.0379L71.6622 25.9753Z" fill="white"/>
<path d="M55.5943 51.852C55.417 52.9472 54.1862 55.0437 52.2461 53.719C52.7398 53.3713 52.9971 53.1697 53.018 53.1141C53.0493 53.0306 53.018 52.9263 52.9762 52.676C52.9067 52.3352 52.931 51.9284 53.0493 51.4556C53.8211 51.5077 53.8941 51.3826 53.9672 51.1218C54.1027 50.7046 54.6764 50.6524 55.1354 50.6733C55.6986 50.7672 55.6673 51.4452 55.6048 51.8415L55.5943 51.852Z" fill="white"/>
<path d="M74.0271 24.6391C72.4729 25.776 70.6892 25.0563 70.3555 24.4514C71.1482 24.0446 71.555 24.0654 72.1078 24.5452C72.1808 24.347 72.2643 24.1489 72.3373 23.9507C72.4103 24.0759 72.4938 24.1906 72.5668 24.3158C72.8032 24.1767 73.3317 24.2532 74.1522 24.5452C74.1522 24.5452 74.0688 24.6078 74.0375 24.6391H74.0271Z" fill="white"/>
<path d="M73.3289 26.9756C73.0577 27.1424 72.7865 27.3093 72.5153 27.4762C72.4214 27.1216 72.3588 27.1424 72.0042 27.2467C71.8477 27.2989 71.8164 27.205 71.8164 27.205C71.8164 27.1842 71.8164 27.1424 71.8164 27.1216C71.8164 26.9234 71.8164 26.7148 71.8268 26.5166C71.9033 26.5236 72.4283 26.6626 73.4019 26.9338C73.4019 26.9338 73.3601 26.9651 73.3393 26.9756H73.3289Z" fill="white"/>
<path d="M83.6465 23.0337C82.9894 23.5657 82.8538 23.67 82.7391 23.7117C82.6974 23.7326 82.6452 23.743 82.6035 23.743C82.4575 23.743 82.3114 23.7013 82.1654 23.6909C82.1654 23.67 82.155 23.6283 82.1445 23.6074C82.7565 23.1415 83.1007 22.9051 83.1772 22.8981C83.3858 22.8877 83.584 22.919 83.7926 22.919C83.7509 22.9503 83.6883 23.0024 83.6465 23.0337Z" fill="white"/>
<path d="M88.0353 35.1853C87.931 35.4252 87.8371 35.6442 87.6702 35.686C87.5137 35.7173 87.2112 35.6025 87.1382 35.3939C87.1382 35.3939 87.0026 34.9663 87.4199 34.8828C87.6076 34.8724 87.7954 34.9454 88.0561 35.1331C88.0561 35.1436 88.0457 35.1644 88.0353 35.1853Z" fill="white"/>
<path d="M85.9081 22.5428C85.9081 22.5428 85.7517 22.6157 85.1989 22.699C84.9902 22.7302 84.7712 22.751 84.5626 22.7926C84.5417 22.7614 84.5209 22.7094 84.5 22.6677C84.8025 22.4492 84.8338 22.3867 85.0111 22.3555C85.2093 22.3347 85.47 22.3867 85.9186 22.5324L85.9081 22.5428Z" fill="white"/>
<path d="M82.3517 23.0442C82.1223 23.0963 81.9762 23.3258 81.7363 23.3675C81.5486 23.3988 81.3921 23.3258 81.2461 23.2423C81.6007 23.1276 81.9658 23.0024 82.3204 22.8877C82.3517 22.9398 82.3726 22.9816 82.3935 23.0337H82.3413L82.3517 23.0442Z" fill="white"/>
<path d="M86.8043 23.0107C86.6583 23.0419 86.5436 23.1877 86.3662 23.1564C86.2828 23.1356 86.1785 23.0523 86.1681 23.0419C86.1368 22.9587 86.1263 22.9066 86.1055 22.865C86.3141 22.865 86.5227 22.865 86.7313 22.865C86.7522 22.9066 86.773 22.9691 86.7939 23.0107H86.8043Z" fill="white"/>
<path d="M92.7501 26.1309C92.7015 26.3673 92.4546 26.635 92.0096 26.9341C92.0409 26.9966 92.0721 27.0488 92.1034 27.1114L92.02 27.174C91.8635 27.2157 90.8935 27.9041 90.7475 28.0606C90.5597 28.2587 90.664 28.5612 90.518 28.7698C90.3302 28.822 90.1842 28.8533 90.0903 29.0202C89.913 29.3331 89.9547 29.7086 89.8504 30.0424C89.7878 30.2301 89.6105 30.3344 89.5479 30.5118L89.4228 31.534C89.4749 31.8886 89.5688 31.9616 91.1438 33.1716C89.8156 33.262 89.1933 33.1055 89.2767 32.7022C88.8699 32.6709 88.4631 32.6396 88.0563 32.5979C87.8686 32.358 87.7956 32.2537 87.7852 32.0451C87.7852 31.8573 88.0042 31.8573 88.0459 31.7009C88.0876 31.534 87.9729 31.3775 88.0146 31.2106C88.0355 31.0959 88.1502 30.7099 88.5675 30.3553C88.4214 30.2719 88.2858 30.1884 88.1398 30.105C88.3484 29.6565 88.5257 29.2705 88.7343 28.8011C88.6613 28.7386 88.5883 28.6655 88.5153 28.603C89.0473 27.9354 89.4019 27.4973 89.8504 27.4347C90.0069 27.1009 90.0695 27.0175 90.6223 26.9028C90.7996 26.8715 91.0082 26.8298 91.4776 26.5273C91.4463 26.4647 91.415 26.4021 91.3733 26.3395L91.4359 26.2874C91.6862 26.044 91.8844 25.9049 92.0304 25.8701C92.2495 25.8388 92.4372 25.8701 92.7919 25.964C92.7814 26.0162 92.7606 26.0892 92.7501 26.1413V26.1309Z" fill="white"/>
<path d="M119.474 21.3741L117.618 19.5905C117.899 19.8513 118.077 20.0182 118.254 20.1955C117.92 19.9139 117.472 19.5384 117.127 19.2776C117.075 19.434 117.013 19.6531 116.96 19.8096C117.221 20.039 117.565 20.3311 117.826 20.5501C117.805 20.9813 118.195 21.6384 118.994 22.5215C117.336 22.1982 115.688 21.2698 115.677 21.2594C115.677 21.4367 115.688 21.6662 115.698 21.8435C115.573 21.7184 115.417 21.5619 115.292 21.4367C115.073 21.4576 114.78 21.4785 114.561 21.4993C114.561 22.3025 115.302 22.7301 115.542 23.4186C115.208 23.4394 114.77 23.5959 114.488 23.7836C114.655 24.1174 114.885 24.5451 115.073 24.8684C114.718 24.7571 114.05 24.4338 113.07 23.8984C113.07 23.8984 113.101 23.9818 113.122 24.0235C113.258 24.1487 113.435 24.3052 113.56 24.4303C111.015 23.7523 109.93 24.18 109.576 24.326C109.544 24.4929 109.492 24.712 109.461 24.8684C109.21 24.6702 108.772 24.5346 108.459 24.5451C108.407 24.9101 108.24 25.3899 108.042 25.7029C107.375 24.8163 108.001 23.6063 107.27 22.7406C106.957 22.3651 106.113 21.5723 105.184 22.3129C105.028 22.2816 104.809 22.2503 104.652 22.219C104.319 22.1043 104.12 22.1877 103.901 22.2816L103.787 22.1773C103.672 22.0626 103.515 21.9061 103.401 21.7914C103.286 21.8331 103.14 21.8852 103.025 21.927C103.025 22.2816 103.182 22.7823 103.411 23.043C103.234 23.1056 103.004 23.1995 102.827 23.2621C102.858 23.3038 102.9 23.3664 102.931 23.4081C103.088 23.5124 103.307 23.648 103.463 23.7628C101.433 24.924 100.849 26.1896 101.711 27.5595C101.252 27.3092 100.908 27.1319 99.4996 28.0706C100.219 29.3014 101.648 29.823 102.41 31.0121C101.304 30.0629 99.7812 28.7486 98.7486 30.188C99.1554 30.4905 99.6873 30.5531 100.052 30.9182C98.8842 30.9286 98.4878 29.7082 97.549 29.364C98.6825 30.8173 100.111 32.4306 101.836 34.2038C101.638 34.1621 101.377 34.0995 101.179 34.0578C101.127 33.9013 101.054 33.7032 101.002 33.5467C100.657 33.4424 100.178 33.3798 99.8125 33.4215C99.9863 35.0209 100.056 35.904 100.021 36.0709C99.2597 36.3212 99.051 36.2691 98.3731 35.904C98.7068 35.8519 99.1345 35.7267 99.437 35.6015C99.4578 35.08 99.437 34.3916 99.3953 33.87C97.862 32.973 98.2583 30.7409 96.652 29.8855C95.3482 29.1867 94.7953 30.4279 95.1291 31.5962C95.369 32.4306 96.3912 33.3485 97.1422 34.0265C97.1214 34.183 97.1005 34.402 97.0797 34.5585C96.6833 34.4229 96.1618 34.2351 95.7758 34.0787C95.5046 34.0161 95.5046 34.0056 95.5046 34.0056H95.4108C95.1604 33.8179 95.1187 33.7345 95.0874 33.6614L94.9935 33.6927C95.0144 33.7449 95.0457 33.797 95.0665 33.8492C94.3642 33.6406 93.7488 33.578 93.2203 33.6614C93.2933 34.0265 93.3559 34.5272 93.3768 34.9027C91.9652 35.1461 90.9847 35.5007 90.4353 35.9666C90.3623 35.8206 90.2685 35.6224 90.1954 35.4764C88.6204 35.6641 87.9424 37.2809 86.5656 37.7711C86.43 37.6877 86.2422 37.5729 86.1066 37.4791C86.1379 37.1453 86.3361 36.7072 86.576 36.4777C86.2318 36.2274 85.6581 36.0813 85.2409 36.0292C85.1574 36.1856 85.0531 36.3943 84.9801 36.5507C85.4877 37.4895 85.6651 38.2509 85.5121 38.835C84.8758 38.3969 84.7924 38.3344 84.1457 38.6577L83.8536 38.8976L83.5928 39.1897L83.3842 39.6382C83.5303 39.8781 83.7076 40.2327 83.7389 40.5144C83.2799 40.3996 82.675 40.2536 82.216 40.1389C82.1013 40.2536 81.9552 40.4101 81.8405 40.5352C81.9761 40.6291 82.1534 40.7647 82.2786 40.8586C82.1638 40.9733 82.0178 41.1298 81.9031 41.2445C80.3072 40.4831 80.3385 39.972 80.3802 39.3148C80.0986 39.0749 79.6918 38.7724 79.3789 38.5638C80.9017 38.3552 82.4768 38.9289 83.9475 38.1779C82.9044 35.7476 80.036 36.5924 78.461 35.1009C77.6543 35.2399 77.1711 35.2712 77.0111 35.1947C77.1676 35.0904 77.3658 34.9548 77.5222 34.8505C77.2302 34.6002 76.7921 34.3186 76.427 34.183C76.354 34.3499 76.2601 34.5689 76.1871 34.7358C76.1349 34.7462 76.0619 34.7671 76.0202 34.7879C76.0098 34.6211 75.9993 34.402 75.9889 34.2351C75.8325 34.2768 75.6134 34.3394 75.4569 34.3916C75.1232 34.5272 75.1023 34.3081 75.0815 34.0891C74.9354 34.329 74.7164 34.6419 74.4973 34.8088C74.5182 34.6315 74.5391 34.3916 74.5599 34.2038C74.2157 34.402 73.7985 34.7358 73.5169 35.0278C73.2248 34.9548 72.818 34.9027 72.5259 34.9757C72.4425 35.1217 72.3278 35.3199 72.2443 35.4764C72.1296 35.3512 71.9836 35.1947 71.8688 35.0696C71.7019 35.3512 71.3994 35.685 71.1282 35.8623C70.9718 35.8206 70.7632 35.7789 70.6067 35.7371C70.5754 35.9249 70.5337 36.1752 70.5024 36.363C70.1582 36.363 69.8035 36.363 69.4593 36.363C69.4072 36.5299 69.3342 36.7593 69.282 36.9367C69.4489 36.8845 69.6575 36.8115 69.8244 36.7593C69.3446 37.5312 68.837 38.0806 68.3015 38.4074C68.3641 38.5638 68.4371 38.7829 68.4997 38.9393C66.8621 40.2745 65.7565 42.1937 63.8372 43.2159C63.8164 43.1846 63.7955 43.1429 63.7851 43.1116C63.6808 43.2785 63.5347 43.508 63.4304 43.6853C63.5765 43.7792 63.7642 43.8939 63.9102 43.9878C63.6286 44.1964 63.3261 44.5823 63.1905 44.8952C63.4617 44.9265 63.8268 44.9682 64.098 44.9682C63.8372 45.2081 63.4826 45.5211 63.2114 45.7505C64.0319 47.4334 65.0367 47.7393 66.2258 46.6684C66.4345 46.891 66.9699 48.1705 67.8322 50.5069C69.9183 50.2774 69.5741 47.7219 71.1804 47.0231C70.784 46.6267 70.4085 46.6267 70.033 46.6267C70.3668 46.5328 70.8257 46.4598 71.1804 46.4703C71.2743 46.3242 71.389 46.1365 71.4829 45.9905C68.6145 43.0281 74.0384 39.6591 74.1531 39.6799C74.4765 39.7425 74.8103 40.0867 74.998 40.3579C73.6559 43.4037 73.037 45.0204 73.1414 45.2082C74.2783 47.19 76.427 44.5406 77.9707 45.5419C77.8664 45.6741 76.7573 46.0322 74.6434 46.6163C74.5808 46.804 74.4869 47.0439 74.4243 47.2317C74.772 47.8436 74.9146 48.3756 74.852 48.8276C74.5286 48.7754 74.1114 48.5772 73.8506 48.3791C73.6837 48.4416 73.4647 48.5251 73.2978 48.5877C72.7971 50.1662 71.2882 51.3761 68.7709 52.2175C67.8217 51.4978 66.2571 52.1341 65.6 50.7781C66.3093 49.8811 66.2676 49.4221 66.1841 48.4104C65.7113 48.6676 65.2419 50.0654 64.776 52.6035C61.5842 52.3323 61.2504 57.6519 57.6623 56.3898C57.6623 56.5567 57.6623 56.7862 57.6727 56.953C57.4328 57.1512 57.0052 57.2868 56.6922 57.2868C56.4315 57.3077 56.202 57.339 56.0351 57.3598C55.9725 57.5476 55.8786 57.7979 55.8056 57.9857C59.1226 59.0287 57.3807 62.377 56.8591 62.5647C55.3258 63.1384 53.8655 61.9598 52.3322 62.377C52.0715 64.3797 51.9567 68.3955 51.9567 68.4059C55.5866 70.5024 58.3194 68.5832 58.0378 66.3093C59.7345 64.703 60.6246 63.5695 60.708 62.9089C61.1044 62.8568 61.6468 62.9089 62.0327 63.0132C62.3039 63.0654 62.3039 63.0654 62.3039 63.0654C64.4318 62.5439 67.3315 61.8242 69.7618 67.2794C69.6784 67.4776 69.5741 67.7488 69.5011 67.9469C69.6888 67.9574 69.9391 67.9678 70.1269 67.9782C70.3772 67.3211 70.4815 67.0395 70.3042 65.9756C70.7632 66.0694 71.1491 66.4032 71.6393 66.4136C68.7813 63.6182 67.2793 61.8554 67.1333 61.1253C67.3211 61.0627 67.561 60.9897 67.7383 60.9271C68.4267 61.3443 70.5233 62.6273 73.2769 67.6862C73.569 67.7383 73.9549 67.8113 74.247 67.8739C74.101 67.9574 73.8924 68.0617 73.7463 68.1451C73.7672 68.4998 73.8402 68.9691 73.9445 69.3134C74.1427 69.3446 74.4035 69.3759 74.6016 69.4072C75.1858 68.6562 75.5578 68.2425 75.7177 68.166C75.5821 68.0304 75.4048 67.8426 75.2692 67.707C75.2692 67.5401 75.2692 67.3315 75.2796 67.1646C75.53 67.4984 75.8429 67.9678 76.0619 68.3224C76.1036 68.2807 76.1558 68.2181 76.1975 68.1764C75.6969 67.4984 75.1962 66.81 74.7059 66.132C74.7477 66.0903 74.7998 66.0381 74.8415 65.9964C74.9876 66.0694 75.1858 66.1529 75.3422 66.2259C75.749 65.4332 75.9681 65.4123 76.7712 65.3288C77.178 65.6939 77.4596 66.1737 77.9082 66.5075C77.9082 66.883 77.9082 67.3733 77.9082 67.7488C77.7308 67.7488 77.5639 67.7592 77.3866 67.7696C78.2697 68.9031 79.2224 69.5428 80.2446 69.6889C80.4741 69.4594 80.8704 69.2195 81.1938 69.1465C82.3412 69.8557 83.3947 69.0213 84.4899 68.9483C84.5525 72.2444 82.9461 75.7073 78.2002 74.6121C74.8207 73.8333 72.9779 74.0315 72.672 75.2067C72.5885 75.2553 70.0991 74.1845 65.2036 71.994C66.1424 71.097 66.0902 70.9197 65.9338 70.4503L65.8608 70.2625L65.8399 70.2104L65.819 70.1582L65.673 69.8557C65.7773 69.7202 65.9129 69.5324 66.0172 69.3864C61.9806 67.415 58.2986 72.4113 54.241 69.9913C53.2293 70.565 52.8016 71.8063 51.6647 72.2235C50.1418 75.6969 46.5641 77.783 45.375 81.4755L45.5836 91.103C45.7505 91.1551 45.9591 91.2177 46.126 91.2594C46.1364 91.3324 48.2747 98.3835 54.1889 97.6117C54.3871 97.5908 54.6478 97.5804 54.8356 97.6117C55.1902 97.6534 55.6179 97.8829 55.9725 97.9246C58.1317 98.1958 60.416 97.1423 62.4604 98.5713C62.7733 98.467 63.2427 98.4878 63.5452 98.6026C63.6599 98.4774 63.8164 98.321 63.9207 98.1958C64.1919 98.394 64.5465 98.6547 64.8177 98.8529C64.9498 100.647 64.8247 101.968 64.4422 102.817C65.2975 104.141 66.6431 105.122 67.1333 106.707C68.0199 109.586 66.6535 112.517 67.3211 115.396C68.1451 118.974 71.7436 121.414 71.4412 125.451C74.2053 128.549 81.1729 122.708 81.4441 120.935C81.4754 120.757 81.4128 120.528 81.392 120.35C81.997 120.027 82.967 119.652 83.2904 119.047C83.6033 118.463 83.1339 117.858 83.3425 117.273C84.0831 115.229 86.7533 115.208 87.5669 113.237C88.4744 111.046 87.5461 108.804 87.786 106.592C88.1406 103.234 90.3206 101.377 91.9165 100.021C94.7223 97.6325 95.7445 95.8489 97.1214 90.9361C90.1224 92.5737 89.215 92.7823 82.4142 76.1246C82.4455 76.1037 82.4976 76.0724 82.5289 76.0515C82.7793 76.354 83.113 76.7504 83.3634 77.0529C83.5303 76.9799 83.7389 76.8964 83.9058 76.8234C86.5552 80.4428 86.8994 80.9018 89.7052 86.9411C90.9256 89.5592 91.6036 90.1955 91.9582 90.2685C93.9922 90.6753 101.075 85.9189 103.182 80.7036C101.45 78.986 100.525 77.8595 100.407 77.3241C99.9377 78.0334 99.4683 78.7322 98.9885 79.4415C98.0845 79.5667 97.476 79.6327 97.1631 79.6397C97.0066 79.1703 96.8919 78.5132 96.871 78.0229C96.7667 78.1898 96.6311 78.4089 96.5373 78.5653C96.3704 78.5027 96.1409 78.4193 95.9636 78.3567C95.5776 77.178 94.5763 76.3436 94.1695 75.1754C94.3886 74.8625 94.6598 74.4139 94.8266 74.0697C97.0449 75.9751 99.0232 76.8026 100.762 76.5522C101.283 77.5014 101.826 78.4819 106.019 77.4493C106.352 77.2928 106.342 77.2406 106.342 77.1781C106.509 77.1259 106.718 77.0529 106.884 77.0007C107.19 77.2024 107.611 77.6544 108.147 78.3567C108.293 78.2733 108.48 78.1585 108.626 78.0751C108.752 78.8365 109.064 79.0556 109.878 78.9721C109.638 79.1912 109.398 79.598 109.346 79.9213C109.586 80.1925 109.972 80.4846 110.285 80.6515C110.629 80.3907 110.994 79.9109 111.182 79.5145C112.778 83.1757 112.256 87.4522 114.488 90.9256C115.928 90.3519 116.147 88.0676 116.157 88.0363C116.408 81.6215 120.277 77.0529 121.915 76.7608C121.998 76.4062 121.95 75.8221 121.769 75.0085C122.645 75.6447 123.949 79.7336 124.064 81.7362C124.554 81.392 124.752 81.2564 125.169 80.3072C127.631 83.885 125.649 88.2137 127.151 91.9478C127.36 92.0209 127.641 92.1252 127.85 92.1982C127.944 88.996 126.046 85.9711 126.953 82.6959C126.974 82.7167 128.914 84.928 128.841 85.9815C130.499 82.8315 131.407 81.1 130.134 78.9408C128.914 76.8756 128.904 76.5835 130.051 73.7151C130.312 73.9341 130.572 74.3618 130.656 74.6956C130.802 73.6734 131.584 72.8702 131.647 71.8167C131.741 71.9523 131.866 72.1296 131.97 72.2652C135.756 67.2689 129.571 62.4187 131.751 57.4537C131.657 57.3181 131.542 57.1304 131.449 56.9948C131.23 57.2555 131.031 57.6936 131.011 58.0378C130.864 57.6936 130.531 57.2451 130.186 57.0782C130.228 56.2333 130.291 55.1173 130.343 54.2724C130.499 54.3767 130.708 54.5227 130.864 54.627C130.896 54.7939 130.927 55.0234 130.958 55.2007C131.167 54.9399 131.417 54.5644 131.563 54.2619C132.022 54.7522 132.21 54.9504 132.231 55.837C132.419 55.8787 132.659 55.9413 132.846 55.983C133.284 57.5963 133.552 58.5315 133.649 58.7888C134.974 55.4823 132.46 52.8642 132.064 49.8706C133.493 48.2435 129.78 39.6799 128.309 38.5117C128.309 38.7099 128.309 38.9706 128.299 39.1688C128.205 39.0332 128.069 38.8559 127.975 38.7307C127.996 38.8976 128.017 39.1167 128.027 39.2731C127.207 38.1536 126.477 35.6433 125.837 31.7422C125.962 31.8569 126.139 32.003 126.265 32.1073C126.285 32.0343 126.327 31.9404 126.348 31.8778C126.098 30.6574 125.044 29.8855 124.606 28.7695C124.825 28.9364 125.107 29.1658 125.326 29.3432C125.295 29.3119 125.274 29.2701 125.242 29.2388C124.637 28.3627 124.512 28.1854 123.459 26.9232C123.49 26.9024 123.532 26.8711 123.563 26.8398C124.043 27.5282 124.387 28.0185 125.347 29.1137C125.253 28.9468 125.138 28.7277 125.044 28.5609C124.971 28.3627 125.075 28.4878 125.18 28.6234C123.678 26.3078 121.564 23.7141 118.838 20.8422C118.953 20.9569 119.109 21.1029 119.224 21.2177C119.151 21.1447 119.401 21.3637 119.485 21.4263L119.474 21.3741Z" fill="white"/>
<path d="M128.024 32.535L129.369 34.7463C129.901 35.8415 130.579 36.8533 131.08 37.9693C130.997 37.9276 128.024 33.4111 128.003 33.3694C127.909 33.1817 126.282 30.4176 126.271 30.3967C126.24 30.355 126.209 30.3132 126.178 30.282L126.115 30.1672C126.011 29.9899 125.917 29.8126 125.812 29.6353C126.699 30.6366 128.024 32.5245 128.034 32.535H128.024Z" fill="white"/>
<path d="M114.236 16.7538C114.403 16.9102 114.653 17.1606 114.935 17.463C114.445 17.0563 114.153 16.7955 114.027 16.6599C114.017 16.639 113.996 16.6286 113.996 16.6077C114.027 16.5973 114.184 16.6912 114.236 16.7433V16.7538Z" fill="white"/>
<path d="M20.0707 119.256C20.0707 119.256 20.0186 119.214 19.9977 119.204C19.9143 119.1 19.8413 119.006 19.7578 118.902C19.7682 118.902 19.7891 118.923 19.7995 118.923C19.883 119.037 19.9769 119.141 20.0603 119.256H20.0707Z" fill="white"/>
<path d="M12.9985 51.2392C12.8872 51.2879 12.6195 51.3714 12.1953 51.4896C12.3413 51.1245 12.4874 50.7699 12.6334 50.4048C12.8107 50.6447 13.0923 50.9055 13.3218 51.0932C13.2279 51.1349 13.1028 51.1975 13.0089 51.2392H12.9985Z" fill="white"/>
<path d="M16.8172 46.3468C16.2853 46.545 14.8563 47.0769 14.2617 46.7014C15.5655 43.9373 17.0258 41.2462 18.6217 38.6594C18.6426 38.6907 18.6634 38.7324 18.6843 38.7637C18.58 38.9411 18.4444 39.181 18.3818 39.3791C18.3088 39.5878 18.3714 39.8068 18.3088 40.0154C18.2567 40.1927 18.1523 40.4222 18.0272 40.5682C17.8047 40.8394 17.7108 41.1628 17.7456 41.5383C17.8186 42.2371 17.7247 42.3101 17.4639 42.4979C17.5474 42.7135 17.7873 43.0055 18.1836 43.3741C18.1419 43.4575 18.0898 43.5618 18.048 43.6453C17.7977 43.6453 17.5474 43.6557 17.297 43.6661C17.1197 43.8539 16.932 44.0416 16.7442 44.2294C17.1197 44.1146 17.4952 44.0103 17.8707 43.906C18.1732 44.5319 18.0167 44.9595 17.5474 46.0965C17.3283 46.1799 17.0467 46.3051 16.8277 46.3781L16.8172 46.3468Z" fill="white"/>
<path d="M20.3946 100.242C20.3007 101.097 19.9148 102.182 19.6644 102.996C19.5914 102.964 19.4975 102.923 19.4349 102.891C20.0608 107.37 20.2451 109.543 19.9878 109.411C19.5601 109.191 17.7452 109.504 18.6318 111.257C19.2993 112.592 19.0386 114.094 19.4037 115.481C19.0699 115.554 19.0594 115.554 17.9121 114.741C18.4753 115.596 19.3828 116.211 19.6853 117.254C19.4767 117.352 19.1359 117.31 18.6631 117.129C18.9134 117.473 19.1742 117.818 19.4245 118.172C19.3619 118.172 19.2576 118.235 19.2055 118.204C11.5181 108.211 6.91818 95.1936 6.76172 80.4238C6.86603 80.4134 7.00162 80.3925 7.0955 80.3821C7.03987 80.9384 7.24153 81.4773 7.70048 81.9988C7.54402 82.5204 7.53359 82.5517 7.6066 82.656C7.73177 82.8437 7.96124 82.9063 8.09684 83.0732C8.70182 83.8659 8.72268 84.909 9.29636 85.7121C9.59885 86.1294 10.3394 86.3275 10.6941 86.6926C13.0514 89.1021 12.3943 90.7084 11.758 92.273C11.8832 92.2417 12.0396 92.1896 12.1544 92.1583C12.1648 92.2 12.1857 92.2626 12.2065 92.3147C12.8011 92.8676 12.9054 92.9197 13.1974 93.0449C13.2496 93.0136 13.3122 92.9719 13.3539 92.9406C13.3539 92.8154 13.3747 92.6485 13.3747 92.5338C13.4373 92.5025 13.5103 92.4608 13.5729 92.4295C13.9484 92.6485 14.1883 92.8571 15.0436 93.6916C15.0749 93.9628 15.1167 94.2235 15.1584 94.4843C15.9094 94.7138 20.7701 97.0085 20.405 100.252L20.3946 100.242Z" fill="white"/>
<path d="M49.0375 22.7827C49.2044 22.7201 49.4756 22.6471 49.5591 22.4802C48.8498 22.1151 48.2657 21.9378 47.8276 21.9482C46.9514 21.9691 46.19 22.4489 45.3347 22.574C46.2317 22.0177 46.715 21.7013 46.7845 21.6249C46.1691 20.9886 45.5433 21.9482 44.907 21.6874C45.4285 21.4927 45.7067 21.3641 45.7415 21.3015C44.8027 21.1868 44.3125 21.1138 43.6136 21.0094C44.9174 20.7591 46.2213 21.3224 47.5147 21.0094C47.3964 20.8982 46.3221 20.5053 44.2916 19.8308C44.4793 19.8238 45.2547 19.9073 46.6176 20.0811C46.6176 20.0811 46.6802 19.9977 46.7115 19.9664C46.3256 19.6222 44.8131 19.2049 44.7923 19.1945C44.2916 19.0693 43.9891 19.0381 43.4571 19.0276C43.4571 19.0276 42.9982 19.9872 42.4871 19.1632C42.2993 18.8607 42.1846 18.7147 41.6422 18.7669C41.7152 19.1841 42.2785 19.2675 42.2889 19.7265C42.0177 19.57 41.7465 19.4031 41.4753 19.2362C41.444 19.2571 41.4127 19.2884 41.3814 19.3197C41.3536 19.5005 41.3119 19.6396 41.2563 19.7369C41.1311 19.6013 41.0164 19.4553 40.9016 19.3197C40.8808 19.3405 40.8391 19.3718 40.8182 19.3927C40.766 19.5596 40.7139 19.716 40.6617 19.8829C40.3349 19.3266 40.095 19.0102 39.942 18.9337C39.577 19.0693 39.5039 19.6013 39.045 19.6117C38.9511 19.5179 38.9094 19.3927 38.8259 19.278C38.6486 19.278 38.586 19.278 38.1375 19.5596C38.6278 18.9963 38.6382 18.965 38.7425 18.7251C38.7112 18.6834 38.7112 18.6834 38.7112 18.6834C37.6994 18.3914 37.6264 18.4957 37.5013 18.6834C37.3969 18.6765 37.2474 18.5791 37.0527 18.3914C36.4582 19.0798 36.2391 19.0276 35.7593 18.9233C34.1634 20.2376 32.6197 21.6144 31.1281 23.0643C31.9209 24.0656 30.8152 26.5168 30.1059 26.8402C30.1059 27.0071 29.8452 27.3687 29.3236 27.925C29.3236 27.925 29.3236 28.0188 29.3236 28.0606C29.2541 28.1231 29.0803 28.2448 28.8021 28.4256C29.0177 28.5438 29.4453 28.4778 30.0851 28.2274C29.8973 28.4674 29.7096 28.7073 29.5218 28.9576C29.6157 28.9576 29.7409 28.968 29.8243 28.9785C29.5948 29.3122 29.6887 29.7816 29.3654 30.0841C29.0524 29.8859 28.9899 29.3122 28.4788 29.427C28.6874 29.8129 28.8438 30.0737 29.0733 30.4387C28.4475 31.3149 28.2388 31.4609 27.54 31.4505C26.5108 33.1194 25.6868 34.5206 25.0679 35.6541C25.513 35.2994 25.8363 35.0908 26.038 35.0282C25.2661 36.3008 23.2217 39.6699 25.506 39.1692C25.5895 39.1483 25.6938 39.117 25.7772 39.0857C25.6103 39.3152 25.4539 39.5551 25.287 39.7846C25.36 39.7533 25.4643 39.7324 25.5477 39.722C25.5477 39.8159 25.506 39.9515 25.4643 40.0349C25.4852 40.0662 25.5165 40.1079 25.5269 40.1497C25.7355 40.1601 25.9337 40.1705 26.1423 40.181C27.3731 38.6372 27.3731 38.5538 27.3522 38.0635C28.1658 37.9071 28.6248 37.5316 28.8543 36.8432C29.4488 36.7493 29.5948 36.0921 30.0746 35.8627C30.4606 35.6749 30.8569 35.4767 31.2533 35.289C31.5558 36.0713 32.0565 35.7479 33.9548 34.538C33.9548 34.5588 33.9548 34.5901 33.9548 34.6214C34.1217 34.3815 34.2886 34.1416 34.4555 33.9017C34.4555 34.5067 34.7476 34.3815 35.1439 34.1416C35.1439 34.1833 35.1648 34.2355 35.1648 34.2668C36.4095 34.2807 37.6473 33.9261 38.8781 33.2029C38.2105 33.1611 37.5951 32.4831 36.865 33.0047C36.938 32.8482 37.011 32.7022 37.084 32.5457C37.084 32.4936 37.0736 32.4936 37.0527 32.4831C37.0319 32.4831 37.0214 32.4831 37.0006 32.4727C36.9797 32.4727 36.9693 32.4727 36.9484 32.4623C36.9484 32.1807 37.1988 31.9512 37.4491 31.7321C37.6473 31.8052 37.835 31.8886 38.0332 31.9616C38.5026 31.3775 38.6382 31.7634 38.6695 31.9616C38.7216 32.2224 38.5026 32.4936 38.7216 32.7439C38.9302 32.65 38.9615 32.6396 39.3058 32.3684C39.3162 32.5979 39.337 32.8169 39.3579 33.0464C39.8899 32.2641 39.9003 32.2537 39.9942 31.9825C39.9316 31.9408 39.8169 31.9095 39.7438 31.9199C39.5839 31.2662 39.3683 30.8594 39.0971 30.6995C39.2119 30.5952 39.3266 30.4909 39.4414 30.3866C39.351 30.3379 39.2119 30.3101 39.0241 30.3031C39.1076 30.2127 39.2327 30.1084 39.3996 29.9902C39.264 29.8963 39.1284 29.8129 38.9928 29.719C40.3071 29.4061 41.8508 30.4387 42.9878 29.0515L42.9043 29.0306C42.9043 29.0306 42.8417 29.0202 42.8209 29.0097C42.7896 29.0097 42.7583 28.9993 42.7374 28.9889C42.7061 28.9889 42.6748 28.9785 42.6436 28.968C42.6123 28.968 42.581 28.9576 42.5497 28.9472C42.5184 28.9472 42.4871 28.9367 42.4558 28.9263C42.4245 28.9263 42.3932 28.9159 42.3619 28.9054C42.3306 28.9054 42.2993 28.895 42.2576 28.8846C42.3967 28.7316 42.4697 28.5995 42.4767 28.4882C42.2681 28.4604 42.1394 28.4326 42.0907 28.4048C42.0907 28.4048 42.1325 28.29 42.1533 28.2483C42.2993 28.2692 42.4349 28.2796 42.581 28.3005C42.5601 28.2066 42.5392 28.0814 42.5184 27.998C42.7792 28.1023 42.9356 28.4882 43.2903 28.3213C43.7909 28.0918 43.7075 27.6433 43.624 27.4869C43.4884 27.2052 43.0295 27.1427 43.1025 26.7254C43.624 26.6524 44.1664 27.0071 44.688 26.6837C44.6741 26.642 44.4654 26.4299 44.0621 26.0474C44.3333 25.9153 44.528 25.8597 44.6462 25.8806C44.5524 25.4738 44.3125 25.4946 43.7596 25.964C43.8952 25.6719 45.3555 24.2117 46.7324 23.8779C46.7532 23.8361 46.7845 23.784 46.8054 23.7423C46.6941 23.6797 46.4264 23.631 46.0022 23.5962C46.2213 23.3042 46.2213 23.3042 46.3673 23.2833C46.7115 23.2416 47.0244 23.4815 47.3686 23.4502C47.3895 23.4189 47.4104 23.3668 47.4312 23.3355C47.313 23.2729 47.0592 23.1825 46.6698 23.0643C46.7324 22.9808 46.8575 22.9183 46.9618 22.9078C47.6503 22.8244 48.3491 22.9913 49.0271 22.7618L49.0375 22.7827Z" fill="white"/>
<path d="M23.9063 31.962C23.7812 32.0037 23.6664 32.0558 23.5413 32.0976C23.5204 32.0976 23.4891 32.108 23.4787 32.1184C23.3848 32.1914 23.3118 32.2957 23.2388 32.3792C23.1345 32.5044 23.0197 32.6191 22.9154 32.7443C22.8946 32.64 22.8841 32.5461 22.8633 32.4418C23.1866 32.0037 23.5204 31.576 23.8646 31.1379C23.8855 31.1379 23.9168 31.1379 23.9376 31.1379C23.8959 31.211 23.8438 31.284 23.802 31.3466C23.9063 31.4613 24.0211 31.576 24.1254 31.6908C24.035 31.8437 23.9689 31.9272 23.9272 31.9411L23.9063 31.962Z" fill="white"/>
<path d="M37.1139 18.1093C36.9887 18.1406 36.8114 18.1614 36.6758 18.1719C36.9365 17.9633 37.1869 17.7651 37.4477 17.5669C37.4477 17.7234 37.4372 17.7964 37.4059 18.0258C37.3225 18.0467 37.2077 18.0884 37.1139 18.1093Z" fill="white"/>
<path d="M16.942 50.6942C16.8168 50.8715 16.7021 51.0384 16.5769 51.2158C16.4622 51.1427 16.337 51.0802 16.2327 51.0071C16.3057 50.7151 16.3787 50.423 16.4517 50.131C16.1805 50.3709 15.9093 50.6108 15.6381 50.8507C15.6277 50.7985 15.6069 50.7359 15.5964 50.6942C15.7529 50.5169 15.9198 50.3396 16.0762 50.1623C16.0449 50.1518 16.0136 50.131 15.9824 50.1205C15.9511 50.1101 15.9198 50.0892 15.8885 50.0788C15.8572 50.0684 15.8259 50.0475 15.7946 50.0371C15.7633 50.0267 15.732 50.0058 15.7007 49.9954C15.6694 49.9849 15.6381 49.9641 15.6069 49.9536C15.5756 49.9432 15.5443 49.9224 15.513 49.9119C15.4817 49.9015 15.4504 49.8806 15.4191 49.8702C15.3878 49.8598 15.3565 49.8389 15.3252 49.8285C15.2939 49.818 15.2626 49.7972 15.2313 49.7868C15.2001 49.7763 15.1688 49.7555 15.1375 49.745C15.1062 49.7346 15.0749 49.7137 15.0436 49.7033C15.0123 49.6929 14.981 49.672 14.9497 49.6616C14.9184 49.6512 14.8871 49.6303 14.8558 49.6199C14.8246 49.6094 14.7933 49.5886 14.762 49.5781C14.7307 49.5677 14.6994 49.5468 14.6681 49.5364C14.6368 49.526 14.6055 49.5051 14.5742 49.4947C14.7828 49.3069 15.0332 49.1609 15.2209 48.9419C15.3669 48.7646 15.3878 48.5246 15.513 48.3473C15.7842 47.9405 16.7125 46.8036 17.3488 46.7097C17.0358 47.0539 16.7229 47.3981 16.41 47.7423C16.5352 47.7319 16.9315 47.6798 16.6082 48.097C16.556 48.1596 16.4935 48.2326 16.4309 48.2952C16.7021 48.4516 16.9733 48.5977 17.2549 48.7541C17.2132 49.0253 16.9628 49.2026 16.942 49.4843C16.9315 49.599 17.1402 49.6824 17.1714 49.6929C16.7959 49.9988 16.6047 50.1935 16.5978 50.277C16.6916 50.2979 16.7959 50.3083 16.8898 50.3187C16.8481 50.423 16.8064 50.5378 16.7647 50.6421C16.8377 50.6421 16.9107 50.6525 16.9941 50.6629C16.9733 50.6838 16.9524 50.7255 16.942 50.7464V50.6942Z" fill="white"/>
<path d="M28.3721 30.3442C28.1843 30.5424 27.8714 30.5632 27.7567 30.5737C27.8088 30.4902 27.861 30.4172 27.9027 30.3338C27.8192 30.2399 27.7358 30.146 27.6523 30.0521C27.8297 29.9374 28.0904 29.7914 28.3199 29.8852C28.5181 29.9896 28.4972 30.2086 28.3616 30.3546L28.3721 30.3442Z" fill="white"/>
<path d="M14.1969 47.7747C14.1239 47.6079 14.0613 47.4514 13.9883 47.2845C14.0404 47.1593 14.103 47.0446 14.1552 46.9194C14.3846 47.0759 14.2595 47.587 14.2073 47.806V47.7747H14.1969Z" fill="white"/>
<path d="M13.0082 50.2787C12.883 50.2995 12.7891 50.2578 12.7266 50.1639C12.7891 50.0179 12.8517 49.8719 12.9039 49.7258C13.0082 49.9032 13.0082 49.9136 13.0186 49.9553C13.0395 50.0596 13.0186 50.1639 13.0291 50.2682H12.9978L13.0082 50.2787Z" fill="white"/>
</g>
<defs>
<radialGradient id="paint0_radial_1334_35" cx="0" cy="0" r="1" gradientUnits="userSpaceOnUse" gradientTransform="translate(81.8179 52.1145) scale(92.2173)">
<stop stop-color="#B0C2E7"/>
<stop offset="0.01" stop-color="#AEC1E7"/>
<stop offset="0.18" stop-color="#99B7EE"/>
<stop offset="0.35" stop-color="#8DB1F3"/>
<stop offset="0.51" stop-color="#89B0F5"/>
<stop offset="0.58" stop-color="#78A7EE"/>
<stop offset="0.73" stop-color="#4B90DC"/>
<stop offset="0.93" stop-color="#056BC1"/>
<stop offset="0.95" stop-color="#0069BF"/>
<stop offset="1" stop-color="#5A9FE0"/>
</radialGradient>
</defs>
</svg>
