<svg width="384" height="180" viewBox="0 0 384 180" fill="none" xmlns="http://www.w3.org/2000/svg">
<path d="M5.01562 154.692H1.39062C1.23438 154.692 1.10938 154.609 1.01562 154.442C0.911458 154.276 0.859375 153.974 0.859375 153.536C0.859375 153.14 0.911458 152.849 1.01562 152.661C1.10938 152.463 1.23438 152.364 1.39062 152.364H6.70312C6.94271 152.364 7.16667 152.447 7.375 152.614C7.59375 152.77 7.70312 153.052 7.70312 153.458V165.458C7.70312 166.395 7.80729 167.192 8.01562 167.849C8.22396 168.494 8.52604 169.02 8.92188 169.427C9.31771 169.833 9.80208 170.13 10.375 170.317C10.9479 170.494 11.5938 170.583 12.3125 170.583C13.0938 170.583 13.7708 170.494 14.3438 170.317C14.9271 170.13 15.4062 169.838 15.7812 169.442C16.1667 169.046 16.4531 168.536 16.6406 167.911C16.8385 167.276 16.9375 166.505 16.9375 165.599V163.911C16.9375 163.744 17.026 163.619 17.2031 163.536C17.3906 163.453 17.75 163.411 18.2812 163.411C18.7812 163.411 19.1302 163.453 19.3281 163.536C19.526 163.619 19.625 163.744 19.625 163.911V165.583C19.625 168.052 18.9844 169.885 17.7031 171.083C16.4219 172.281 14.5677 172.88 12.1406 172.88C11.0573 172.88 10.0781 172.744 9.20312 172.474C8.32812 172.203 7.57812 171.781 6.95312 171.208C6.33854 170.625 5.85938 169.89 5.51562 169.005C5.18229 168.109 5.01562 167.036 5.01562 165.786V154.692ZM23.5 158.114C23.5 157.958 23.5885 157.838 23.7656 157.755C23.9427 157.671 24.2812 157.63 24.7812 157.63C25.3021 157.63 25.651 157.671 25.8281 157.755C26.0052 157.838 26.0938 157.958 26.0938 158.114V166.661C26.0938 167.255 26.1458 167.796 26.25 168.286C26.3542 168.776 26.5208 169.197 26.75 169.552C26.9792 169.895 27.2656 170.166 27.6094 170.364C27.9635 170.552 28.3854 170.645 28.875 170.645C29.4688 170.645 30.0625 170.416 30.6562 169.958C31.2604 169.5 31.9219 168.828 32.6406 167.942V158.114C32.6406 157.958 32.7344 157.838 32.9219 157.755C33.1094 157.671 33.4531 157.63 33.9531 157.63C34.4531 157.63 34.7917 157.671 34.9688 157.755C35.1458 157.838 35.2344 157.958 35.2344 158.114V166.661C35.2344 167.255 35.2865 167.796 35.3906 168.286C35.5052 168.776 35.6771 169.197 35.9062 169.552C36.1354 169.895 36.4219 170.166 36.7656 170.364C37.1198 170.552 37.5365 170.645 38.0156 170.645C38.6094 170.645 39.2031 170.416 39.7969 169.958C40.401 169.5 41.0625 168.828 41.7812 167.942V158.114C41.7812 157.958 41.8646 157.838 42.0312 157.755C42.2083 157.671 42.5573 157.63 43.0781 157.63C43.5885 157.63 43.9323 157.671 44.1094 157.755C44.2865 157.838 44.375 157.958 44.375 158.114V172.177C44.375 172.343 44.2969 172.468 44.1406 172.552C43.9844 172.625 43.6719 172.661 43.2031 172.661C42.7344 172.661 42.4219 172.625 42.2656 172.552C42.1094 172.468 42.0312 172.343 42.0312 172.177V170.317C41.2396 171.203 40.4688 171.854 39.7188 172.27C38.9792 172.677 38.2292 172.88 37.4688 172.88C36.3021 172.88 35.3698 172.625 34.6719 172.114C33.9844 171.593 33.474 170.921 33.1406 170.099C32.6719 170.609 32.224 171.041 31.7969 171.395C31.3802 171.75 30.974 172.036 30.5781 172.255C30.1927 172.474 29.8125 172.63 29.4375 172.724C29.0729 172.828 28.7031 172.88 28.3281 172.88C27.4219 172.88 26.6615 172.724 26.0469 172.411C25.4323 172.099 24.9323 171.677 24.5469 171.145C24.1719 170.604 23.901 169.979 23.7344 169.27C23.5781 168.552 23.5 167.796 23.5 167.005V158.114ZM59.25 178.177C59.0729 178.177 58.9167 178.13 58.7812 178.036C58.6562 177.953 58.5938 177.776 58.5938 177.505V170.583C57.8229 171.385 57.0729 171.968 56.3438 172.333C55.6146 172.697 54.8646 172.88 54.0938 172.88C53.3438 172.88 52.6562 172.77 52.0312 172.552C51.4167 172.322 50.8906 171.968 50.4531 171.489C50.0156 171.01 49.6719 170.39 49.4219 169.63C49.1823 168.859 49.0625 167.937 49.0625 166.864V158.13C49.0625 157.963 49.151 157.843 49.3281 157.77C49.5052 157.687 49.849 157.645 50.3594 157.645C50.8594 157.645 51.1979 157.687 51.375 157.77C51.5625 157.843 51.6562 157.963 51.6562 158.13V166.692C51.6562 167.224 51.7031 167.729 51.7969 168.208C51.901 168.687 52.0677 169.109 52.2969 169.474C52.5365 169.838 52.8438 170.13 53.2188 170.349C53.6042 170.557 54.0729 170.661 54.625 170.661C55.2812 170.661 55.9271 170.432 56.5625 169.974C57.1979 169.515 57.875 168.843 58.5938 167.958V151.302C58.5938 151.135 58.6823 151.015 58.8594 150.942C59.0365 150.859 59.3802 150.817 59.8906 150.817C60.3906 150.817 60.7292 150.859 60.9062 150.942C61.0938 151.015 61.1875 151.135 61.1875 151.302V176.036H64.7969C64.9427 176.036 65.0625 176.114 65.1562 176.27C65.2604 176.437 65.3125 176.718 65.3125 177.114C65.3125 177.489 65.2656 177.76 65.1719 177.927C65.0781 178.093 64.9531 178.177 64.7969 178.177H59.25ZM82.7812 168.395C82.7812 169.145 82.6406 169.802 82.3594 170.364C82.0885 170.927 81.7188 171.395 81.25 171.77C80.7812 172.145 80.2292 172.421 79.5938 172.599C78.9583 172.786 78.2812 172.88 77.5625 172.88C76.8542 172.88 76.1771 172.791 75.5312 172.614C74.8854 172.447 74.3125 172.182 73.8125 171.817C73.3229 171.453 72.9271 170.989 72.625 170.427C72.3333 169.854 72.1875 169.177 72.1875 168.395C72.1875 167.645 72.3229 166.994 72.5938 166.442C72.8646 165.88 73.2396 165.416 73.7188 165.052C74.2083 164.687 74.7812 164.416 75.4375 164.239C76.0938 164.062 76.8073 163.974 77.5781 163.974H80.1875V163.63C80.1875 163.099 80.0781 162.593 79.8594 162.114C79.651 161.635 79.3281 161.213 78.8906 160.849C78.4531 160.484 77.901 160.197 77.2344 159.989C76.5677 159.77 75.7812 159.661 74.875 159.661C74.3438 159.661 73.7917 159.708 73.2188 159.802C72.6458 159.895 72.0781 160.052 71.5156 160.27C70.9635 160.479 70.4323 160.755 69.9219 161.099C69.4219 161.442 68.9688 161.864 68.5625 162.364V177.786C68.5625 177.953 68.474 178.072 68.2969 178.145C68.1198 178.229 67.776 178.27 67.2656 178.27C66.7656 178.27 66.4219 178.229 66.2344 178.145C66.0573 178.072 65.9688 177.953 65.9688 177.786V158.13C65.9688 157.974 66.0521 157.854 66.2188 157.77C66.3854 157.687 66.6927 157.645 67.1406 157.645C67.6198 157.645 67.9323 157.687 68.0781 157.77C68.2344 157.854 68.3125 157.974 68.3125 158.13V159.989C68.7188 159.552 69.1771 159.171 69.6875 158.849C70.2083 158.526 70.7656 158.26 71.3594 158.052C71.9635 157.843 72.5938 157.692 73.25 157.599C73.9062 157.494 74.5729 157.442 75.25 157.442C76.1562 157.442 77.0573 157.557 77.9531 157.786C78.849 158.005 79.6562 158.354 80.375 158.833C81.0938 159.312 81.6719 159.932 82.1094 160.692C82.5573 161.453 82.7812 162.375 82.7812 163.458V163.974H85.3438C85.5 163.974 85.625 164.057 85.7188 164.224C85.8125 164.39 85.8594 164.661 85.8594 165.036C85.8594 165.432 85.8073 165.713 85.7031 165.88C85.6094 166.036 85.4896 166.114 85.3438 166.114H82.7812V168.395ZM74.8594 168.395C74.8594 168.802 74.9271 169.151 75.0625 169.442C75.1979 169.734 75.3854 169.974 75.625 170.161C75.8646 170.349 76.151 170.489 76.4844 170.583C76.8177 170.666 77.1771 170.708 77.5625 170.708C78.4375 170.708 79.0938 170.505 79.5312 170.099C79.9688 169.692 80.1875 169.125 80.1875 168.395V166.114H77.5781C77.224 166.114 76.8802 166.145 76.5469 166.208C76.224 166.27 75.9375 166.385 75.6875 166.552C75.4375 166.718 75.2344 166.953 75.0781 167.255C74.9323 167.546 74.8594 167.927 74.8594 168.395ZM88.625 158.114C88.625 157.958 88.7135 157.838 88.8906 157.755C89.0677 157.671 89.4062 157.63 89.9062 157.63C90.4271 157.63 90.776 157.671 90.9531 157.755C91.1302 157.838 91.2188 157.958 91.2188 158.114V166.661C91.2188 167.255 91.2708 167.796 91.375 168.286C91.4792 168.776 91.6458 169.197 91.875 169.552C92.1042 169.895 92.3906 170.166 92.7344 170.364C93.0885 170.552 93.5104 170.645 94 170.645C94.5938 170.645 95.1875 170.416 95.7812 169.958C96.3854 169.5 97.0469 168.828 97.7656 167.942V158.114C97.7656 157.958 97.8594 157.838 98.0469 157.755C98.2344 157.671 98.5781 157.63 99.0781 157.63C99.5781 157.63 99.9167 157.671 100.094 157.755C100.271 157.838 100.359 157.958 100.359 158.114V166.661C100.359 167.255 100.411 167.796 100.516 168.286C100.63 168.776 100.802 169.197 101.031 169.552C101.26 169.895 101.547 170.166 101.891 170.364C102.245 170.552 102.661 170.645 103.141 170.645C103.734 170.645 104.328 170.416 104.922 169.958C105.526 169.5 106.188 168.828 106.906 167.942V158.114C106.906 157.958 106.99 157.838 107.156 157.755C107.333 157.671 107.682 157.63 108.203 157.63C108.714 157.63 109.057 157.671 109.234 157.755C109.411 157.838 109.5 157.958 109.5 158.114V172.177C109.5 172.343 109.422 172.468 109.266 172.552C109.109 172.625 108.797 172.661 108.328 172.661C107.859 172.661 107.547 172.625 107.391 172.552C107.234 172.468 107.156 172.343 107.156 172.177V170.317C106.365 171.203 105.594 171.854 104.844 172.27C104.104 172.677 103.354 172.88 102.594 172.88C101.427 172.88 100.495 172.625 99.7969 172.114C99.1094 171.593 98.599 170.921 98.2656 170.099C97.7969 170.609 97.349 171.041 96.9219 171.395C96.5052 171.75 96.099 172.036 95.7031 172.255C95.3177 172.474 94.9375 172.63 94.5625 172.724C94.1979 172.828 93.8281 172.88 93.4531 172.88C92.5469 172.88 91.7865 172.724 91.1719 172.411C90.5573 172.099 90.0573 171.677 89.6719 171.145C89.2969 170.604 89.026 169.979 88.8594 169.27C88.7031 168.552 88.625 167.796 88.625 167.005V158.114ZM126.328 177.77C126.328 177.937 126.234 178.062 126.047 178.145C125.87 178.229 125.531 178.27 125.031 178.27C124.521 178.27 124.177 178.229 124 178.145C123.823 178.062 123.734 177.937 123.734 177.77V170.567C123.307 170.994 122.901 171.359 122.516 171.661C122.13 171.953 121.75 172.192 121.375 172.38C121 172.557 120.62 172.682 120.234 172.755C119.859 172.838 119.469 172.88 119.062 172.88C118.042 172.88 117.172 172.682 116.453 172.286C115.734 171.88 115.146 171.338 114.688 170.661C114.24 169.974 113.911 169.171 113.703 168.255C113.495 167.338 113.391 166.364 113.391 165.333C113.391 164.125 113.521 163.036 113.781 162.067C114.042 161.088 114.427 160.255 114.938 159.567C115.458 158.88 116.094 158.354 116.844 157.989C117.604 157.614 118.479 157.427 119.469 157.427C119.896 157.427 120.286 157.474 120.641 157.567C121.005 157.651 121.365 157.791 121.719 157.989C122.083 158.177 122.448 158.427 122.812 158.739C123.188 159.041 123.594 159.406 124.031 159.833V158.13C124.031 157.953 124.115 157.828 124.281 157.755C124.458 157.682 124.766 157.645 125.203 157.645C125.63 157.645 125.922 157.682 126.078 157.755C126.245 157.828 126.328 157.953 126.328 158.13V170.442H129.922C130.068 170.442 130.188 170.526 130.281 170.692C130.385 170.849 130.438 171.125 130.438 171.52C130.438 171.895 130.391 172.166 130.297 172.333C130.203 172.5 130.078 172.583 129.922 172.583H126.328V177.77ZM123.734 162.302C123.036 161.427 122.365 160.765 121.719 160.317C121.073 159.869 120.391 159.645 119.672 159.645C119.016 159.645 118.458 159.802 118 160.114C117.542 160.427 117.167 160.838 116.875 161.349C116.594 161.859 116.385 162.437 116.25 163.083C116.125 163.729 116.062 164.385 116.062 165.052C116.062 165.77 116.115 166.468 116.219 167.145C116.333 167.822 116.526 168.421 116.797 168.942C117.068 169.463 117.427 169.885 117.875 170.208C118.323 170.52 118.885 170.677 119.562 170.677C119.896 170.677 120.224 170.63 120.547 170.536C120.87 170.442 121.198 170.286 121.531 170.067C121.875 169.849 122.224 169.567 122.578 169.224C122.943 168.869 123.328 168.437 123.734 167.927V162.302ZM132.281 158.114C132.281 157.958 132.37 157.838 132.547 157.755C132.724 157.671 133.062 157.63 133.562 157.63C134.083 157.63 134.432 157.671 134.609 157.755C134.786 157.838 134.875 157.958 134.875 158.114V166.661C134.875 167.255 134.927 167.796 135.031 168.286C135.135 168.776 135.302 169.197 135.531 169.552C135.76 169.895 136.047 170.166 136.391 170.364C136.745 170.552 137.167 170.645 137.656 170.645C138.25 170.645 138.844 170.416 139.438 169.958C140.042 169.5 140.703 168.828 141.422 167.942V158.114C141.422 157.958 141.516 157.838 141.703 157.755C141.891 157.671 142.234 157.63 142.734 157.63C143.234 157.63 143.573 157.671 143.75 157.755C143.927 157.838 144.016 157.958 144.016 158.114V166.661C144.016 167.255 144.068 167.796 144.172 168.286C144.286 168.776 144.458 169.197 144.688 169.552C144.917 169.895 145.203 170.166 145.547 170.364C145.901 170.552 146.318 170.645 146.797 170.645C147.391 170.645 147.984 170.416 148.578 169.958C149.182 169.5 149.844 168.828 150.562 167.942V158.114C150.562 157.958 150.646 157.838 150.812 157.755C150.99 157.671 151.339 157.63 151.859 157.63C152.37 157.63 152.714 157.671 152.891 157.755C153.068 157.838 153.156 157.958 153.156 158.114V172.177C153.156 172.343 153.078 172.468 152.922 172.552C152.766 172.625 152.453 172.661 151.984 172.661C151.516 172.661 151.203 172.625 151.047 172.552C150.891 172.468 150.812 172.343 150.812 172.177V170.317C150.021 171.203 149.25 171.854 148.5 172.27C147.76 172.677 147.01 172.88 146.25 172.88C145.083 172.88 144.151 172.625 143.453 172.114C142.766 171.593 142.255 170.921 141.922 170.099C141.453 170.609 141.005 171.041 140.578 171.395C140.161 171.75 139.755 172.036 139.359 172.255C138.974 172.474 138.594 172.63 138.219 172.724C137.854 172.828 137.484 172.88 137.109 172.88C136.203 172.88 135.443 172.724 134.828 172.411C134.214 172.099 133.714 171.677 133.328 171.145C132.953 170.604 132.682 169.979 132.516 169.27C132.359 168.552 132.281 167.796 132.281 167.005V158.114ZM167.391 170.567C166.964 170.994 166.557 171.359 166.172 171.661C165.786 171.953 165.406 172.192 165.031 172.38C164.656 172.557 164.276 172.682 163.891 172.755C163.516 172.838 163.125 172.88 162.719 172.88C161.698 172.88 160.828 172.682 160.109 172.286C159.391 171.88 158.802 171.338 158.344 170.661C157.896 169.974 157.568 169.171 157.359 168.255C157.151 167.338 157.047 166.364 157.047 165.333C157.047 164.125 157.177 163.036 157.438 162.067C157.698 161.088 158.083 160.255 158.594 159.567C159.115 158.88 159.75 158.354 160.5 157.989C161.26 157.614 162.135 157.427 163.125 157.427C163.552 157.427 163.943 157.474 164.297 157.567C164.661 157.651 165.021 157.791 165.375 157.989C165.74 158.177 166.104 158.427 166.469 158.739C166.844 159.041 167.25 159.406 167.688 159.833V158.13C167.688 157.953 167.771 157.828 167.938 157.755C168.115 157.682 168.422 157.645 168.859 157.645C169.286 157.645 169.578 157.682 169.734 157.755C169.901 157.828 169.984 157.953 169.984 158.13V176.036H173.578C173.724 176.036 173.844 176.114 173.938 176.27C174.042 176.437 174.094 176.718 174.094 177.114C174.094 177.489 174.047 177.76 173.953 177.927C173.859 178.093 173.734 178.177 173.578 178.177H168.188C167.938 178.177 167.74 178.099 167.594 177.942C167.458 177.796 167.391 177.572 167.391 177.27V170.567ZM167.391 162.302C166.693 161.427 166.021 160.765 165.375 160.317C164.729 159.869 164.047 159.645 163.328 159.645C162.672 159.645 162.115 159.802 161.656 160.114C161.198 160.427 160.823 160.838 160.531 161.349C160.25 161.859 160.042 162.437 159.906 163.083C159.781 163.729 159.719 164.385 159.719 165.052C159.719 165.77 159.771 166.468 159.875 167.145C159.99 167.822 160.182 168.421 160.453 168.942C160.724 169.463 161.083 169.885 161.531 170.208C161.979 170.52 162.542 170.677 163.219 170.677C163.552 170.677 163.88 170.63 164.203 170.536C164.526 170.442 164.854 170.286 165.188 170.067C165.531 169.849 165.88 169.567 166.234 169.224C166.599 168.869 166.984 168.437 167.391 167.927V162.302ZM174.688 158.114C174.688 157.958 174.776 157.838 174.953 157.755C175.13 157.671 175.469 157.63 175.969 157.63C176.49 157.63 176.839 157.671 177.016 157.755C177.193 157.838 177.281 157.958 177.281 158.114V166.661C177.281 167.255 177.333 167.796 177.438 168.286C177.542 168.776 177.708 169.197 177.938 169.552C178.167 169.895 178.453 170.166 178.797 170.364C179.151 170.552 179.573 170.645 180.062 170.645C180.656 170.645 181.25 170.416 181.844 169.958C182.448 169.5 183.109 168.828 183.828 167.942V158.114C183.828 157.958 183.922 157.838 184.109 157.755C184.297 157.671 184.641 157.63 185.141 157.63C185.641 157.63 185.979 157.671 186.156 157.755C186.333 157.838 186.422 157.958 186.422 158.114V166.661C186.422 167.255 186.474 167.796 186.578 168.286C186.693 168.776 186.865 169.197 187.094 169.552C187.323 169.895 187.609 170.166 187.953 170.364C188.307 170.552 188.724 170.645 189.203 170.645C189.797 170.645 190.391 170.416 190.984 169.958C191.589 169.5 192.25 168.828 192.969 167.942V158.114C192.969 157.958 193.052 157.838 193.219 157.755C193.396 157.671 193.745 157.63 194.266 157.63C194.776 157.63 195.12 157.671 195.297 157.755C195.474 157.838 195.562 157.958 195.562 158.114V172.177C195.562 172.343 195.484 172.468 195.328 172.552C195.172 172.625 194.859 172.661 194.391 172.661C193.922 172.661 193.609 172.625 193.453 172.552C193.297 172.468 193.219 172.343 193.219 172.177V170.317C192.427 171.203 191.656 171.854 190.906 172.27C190.167 172.677 189.417 172.88 188.656 172.88C187.49 172.88 186.557 172.625 185.859 172.114C185.172 171.593 184.661 170.921 184.328 170.099C183.859 170.609 183.411 171.041 182.984 171.395C182.568 171.75 182.161 172.036 181.766 172.255C181.38 172.474 181 172.63 180.625 172.724C180.26 172.828 179.891 172.88 179.516 172.88C178.609 172.88 177.849 172.724 177.234 172.411C176.62 172.099 176.12 171.677 175.734 171.145C175.359 170.604 175.089 169.979 174.922 169.27C174.766 168.552 174.688 167.796 174.688 167.005V158.114ZM202.938 162.349V177.786C202.938 177.953 202.849 178.072 202.672 178.145C202.495 178.229 202.151 178.27 201.641 178.27C201.141 178.27 200.797 178.229 200.609 178.145C200.432 178.072 200.344 177.953 200.344 177.786V151.302C200.344 151.145 200.432 151.026 200.609 150.942C200.786 150.859 201.125 150.817 201.625 150.817C202.125 150.817 202.464 150.859 202.641 150.942C202.828 151.026 202.922 151.145 202.922 151.302V159.724C203.672 158.932 204.396 158.354 205.094 157.989C205.802 157.614 206.516 157.427 207.234 157.427C208.786 157.427 209.984 157.901 210.828 158.849C211.682 159.796 212.109 161.26 212.109 163.239V163.489L212.047 166.661V166.833C212.047 167.406 212.104 167.927 212.219 168.395C212.344 168.864 212.521 169.265 212.75 169.599C212.99 169.932 213.281 170.192 213.625 170.38C213.979 170.557 214.391 170.645 214.859 170.645C215.453 170.645 216.047 170.416 216.641 169.958C217.245 169.5 217.906 168.828 218.625 167.942V158.114C218.625 157.958 218.714 157.838 218.891 157.755C219.068 157.671 219.417 157.63 219.938 157.63C220.448 157.63 220.786 157.671 220.953 157.755C221.13 157.838 221.219 157.958 221.219 158.114V172.177C221.219 172.343 221.141 172.468 220.984 172.552C220.828 172.625 220.516 172.661 220.047 172.661C219.578 172.661 219.266 172.625 219.109 172.552C218.953 172.468 218.875 172.343 218.875 172.177V170.317C218.083 171.203 217.312 171.854 216.562 172.27C215.823 172.677 215.073 172.88 214.312 172.88C213.74 172.88 213.161 172.791 212.578 172.614C211.995 172.437 211.474 172.14 211.016 171.724C210.557 171.296 210.182 170.734 209.891 170.036C209.599 169.338 209.453 168.474 209.453 167.442V167.255L209.516 163.645V163.474C209.516 162.901 209.453 162.38 209.328 161.911C209.214 161.442 209.036 161.041 208.797 160.708C208.557 160.375 208.26 160.119 207.906 159.942C207.562 159.755 207.156 159.661 206.688 159.661C206.094 159.661 205.495 159.89 204.891 160.349C204.297 160.796 203.646 161.463 202.938 162.349ZM226 158.114C226 157.958 226.083 157.838 226.25 157.755C226.417 157.671 226.724 157.63 227.172 157.63C227.651 157.63 227.964 157.671 228.109 157.755C228.266 157.838 228.344 157.958 228.344 158.114V159.974C229.156 159.088 229.948 158.442 230.719 158.036C231.49 157.63 232.281 157.427 233.094 157.427C233.844 157.427 234.526 157.541 235.141 157.77C235.766 157.989 236.297 158.338 236.734 158.817C237.172 159.296 237.51 159.916 237.75 160.677C238 161.437 238.125 162.359 238.125 163.442V172.192C238.125 172.359 238.036 172.484 237.859 172.567C237.682 172.64 237.339 172.677 236.828 172.677C236.328 172.677 235.984 172.64 235.797 172.567C235.62 172.484 235.531 172.359 235.531 172.192V163.614C235.531 163.083 235.479 162.578 235.375 162.099C235.281 161.619 235.115 161.197 234.875 160.833C234.646 160.468 234.339 160.182 233.953 159.974C233.578 159.755 233.115 159.645 232.562 159.645C231.906 159.645 231.26 159.875 230.625 160.333C229.99 160.791 229.312 161.463 228.594 162.349V172.192C228.594 172.359 228.505 172.484 228.328 172.567C228.151 172.64 227.807 172.677 227.297 172.677C226.797 172.677 226.453 172.64 226.266 172.567C226.089 172.484 226 172.359 226 172.192V158.114ZM253.141 178.177C252.839 178.177 252.63 178.083 252.516 177.895C252.401 177.708 252.344 177.484 252.344 177.224V163.63C252.344 163.099 252.292 162.593 252.188 162.114C252.094 161.635 251.927 161.213 251.688 160.849C251.458 160.484 251.151 160.197 250.766 159.989C250.391 159.77 249.927 159.661 249.375 159.661C248.719 159.661 248.073 159.89 247.438 160.349C246.802 160.807 246.125 161.479 245.406 162.364V172.192C245.406 172.359 245.318 172.484 245.141 172.567C244.964 172.64 244.62 172.677 244.109 172.677C243.609 172.677 243.266 172.64 243.078 172.567C242.901 172.484 242.812 172.359 242.812 172.192V158.13C242.812 157.974 242.896 157.854 243.062 157.77C243.229 157.687 243.536 157.645 243.984 157.645C244.464 157.645 244.776 157.687 244.922 157.77C245.078 157.854 245.156 157.974 245.156 158.13V159.989C245.969 159.104 246.76 158.458 247.531 158.052C248.302 157.645 249.094 157.442 249.906 157.442C250.656 157.442 251.339 157.557 251.953 157.786C252.578 158.005 253.109 158.354 253.547 158.833C253.984 159.312 254.323 159.932 254.562 160.692C254.812 161.453 254.938 162.375 254.938 163.458V176.036H258.516C258.661 176.036 258.781 176.114 258.875 176.27C258.979 176.437 259.031 176.718 259.031 177.114C259.031 177.489 258.984 177.76 258.891 177.927C258.797 178.093 258.672 178.177 258.516 178.177H253.141ZM259.625 158.114C259.625 157.958 259.708 157.838 259.875 157.755C260.042 157.671 260.349 157.63 260.797 157.63C261.276 157.63 261.589 157.671 261.734 157.755C261.891 157.838 261.969 157.958 261.969 158.114V159.974C262.781 159.088 263.573 158.442 264.344 158.036C265.115 157.63 265.906 157.427 266.719 157.427C267.469 157.427 268.151 157.541 268.766 157.77C269.391 157.989 269.922 158.338 270.359 158.817C270.797 159.296 271.135 159.916 271.375 160.677C271.625 161.437 271.75 162.359 271.75 163.442V172.192C271.75 172.359 271.661 172.484 271.484 172.567C271.307 172.64 270.964 172.677 270.453 172.677C269.953 172.677 269.609 172.64 269.422 172.567C269.245 172.484 269.156 172.359 269.156 172.192V163.614C269.156 163.083 269.104 162.578 269 162.099C268.906 161.619 268.74 161.197 268.5 160.833C268.271 160.468 267.964 160.182 267.578 159.974C267.203 159.755 266.74 159.645 266.188 159.645C265.531 159.645 264.885 159.875 264.25 160.333C263.615 160.791 262.938 161.463 262.219 162.349V172.192C262.219 172.359 262.13 172.484 261.953 172.567C261.776 172.64 261.432 172.677 260.922 172.677C260.422 172.677 260.078 172.64 259.891 172.567C259.714 172.484 259.625 172.359 259.625 172.192V158.114ZM286.531 178.177C286.354 178.177 286.198 178.13 286.062 178.036C285.938 177.953 285.875 177.776 285.875 177.505V170.583C285.104 171.385 284.354 171.968 283.625 172.333C282.896 172.697 282.146 172.88 281.375 172.88C280.625 172.88 279.938 172.77 279.312 172.552C278.698 172.322 278.172 171.968 277.734 171.489C277.297 171.01 276.953 170.39 276.703 169.63C276.464 168.859 276.344 167.937 276.344 166.864V158.13C276.344 157.963 276.432 157.843 276.609 157.77C276.786 157.687 277.13 157.645 277.641 157.645C278.141 157.645 278.479 157.687 278.656 157.77C278.844 157.843 278.938 157.963 278.938 158.13V166.692C278.938 167.224 278.984 167.729 279.078 168.208C279.182 168.687 279.349 169.109 279.578 169.474C279.818 169.838 280.125 170.13 280.5 170.349C280.885 170.557 281.354 170.661 281.906 170.661C282.562 170.661 283.208 170.432 283.844 169.974C284.479 169.515 285.156 168.843 285.875 167.958V151.302C285.875 151.135 285.964 151.015 286.141 150.942C286.318 150.859 286.661 150.817 287.172 150.817C287.672 150.817 288.01 150.859 288.188 150.942C288.375 151.015 288.469 151.135 288.469 151.302V176.036H292.078C292.224 176.036 292.344 176.114 292.438 176.27C292.542 176.437 292.594 176.718 292.594 177.114C292.594 177.489 292.547 177.76 292.453 177.927C292.359 178.093 292.234 178.177 292.078 178.177H286.531ZM293.156 158.114C293.156 157.958 293.245 157.838 293.422 157.755C293.599 157.671 293.938 157.63 294.438 157.63C294.958 157.63 295.307 157.671 295.484 157.755C295.661 157.838 295.75 157.958 295.75 158.114V166.661C295.75 167.255 295.802 167.796 295.906 168.286C296.01 168.776 296.177 169.197 296.406 169.552C296.635 169.895 296.922 170.166 297.266 170.364C297.62 170.552 298.042 170.645 298.531 170.645C299.125 170.645 299.719 170.416 300.312 169.958C300.917 169.5 301.578 168.828 302.297 167.942V158.114C302.297 157.958 302.391 157.838 302.578 157.755C302.766 157.671 303.109 157.63 303.609 157.63C304.109 157.63 304.448 157.671 304.625 157.755C304.802 157.838 304.891 157.958 304.891 158.114V166.661C304.891 167.255 304.943 167.796 305.047 168.286C305.161 168.776 305.333 169.197 305.562 169.552C305.792 169.895 306.078 170.166 306.422 170.364C306.776 170.552 307.193 170.645 307.672 170.645C308.266 170.645 308.859 170.416 309.453 169.958C310.057 169.5 310.719 168.828 311.438 167.942V158.114C311.438 157.958 311.521 157.838 311.688 157.755C311.865 157.671 312.214 157.63 312.734 157.63C313.245 157.63 313.589 157.671 313.766 157.755C313.943 157.838 314.031 157.958 314.031 158.114V172.177C314.031 172.343 313.953 172.468 313.797 172.552C313.641 172.625 313.328 172.661 312.859 172.661C312.391 172.661 312.078 172.625 311.922 172.552C311.766 172.468 311.688 172.343 311.688 172.177V170.317C310.896 171.203 310.125 171.854 309.375 172.27C308.635 172.677 307.885 172.88 307.125 172.88C305.958 172.88 305.026 172.625 304.328 172.114C303.641 171.593 303.13 170.921 302.797 170.099C302.328 170.609 301.88 171.041 301.453 171.395C301.036 171.75 300.63 172.036 300.234 172.255C299.849 172.474 299.469 172.63 299.094 172.724C298.729 172.828 298.359 172.88 297.984 172.88C297.078 172.88 296.318 172.724 295.703 172.411C295.089 172.099 294.589 171.677 294.203 171.145C293.828 170.604 293.557 169.979 293.391 169.27C293.234 168.552 293.156 167.796 293.156 167.005V158.114ZM330.844 177.786C330.844 177.942 330.755 178.062 330.578 178.145C330.401 178.229 330.062 178.27 329.562 178.27C329.062 178.27 328.719 178.229 328.531 178.145C328.344 178.062 328.25 177.942 328.25 177.786V170.583C327.479 171.385 326.729 171.968 326 172.333C325.271 172.697 324.521 172.88 323.75 172.88C323 172.88 322.312 172.77 321.688 172.552C321.073 172.322 320.547 171.968 320.109 171.489C319.672 171.01 319.328 170.39 319.078 169.63C318.839 168.859 318.719 167.937 318.719 166.864V151.302C318.719 151.135 318.807 151.015 318.984 150.942C319.161 150.859 319.505 150.817 320.016 150.817C320.516 150.817 320.854 150.859 321.031 150.942C321.219 151.015 321.312 151.135 321.312 151.302V166.692C321.312 167.224 321.359 167.729 321.453 168.208C321.557 168.687 321.724 169.109 321.953 169.474C322.193 169.838 322.5 170.13 322.875 170.349C323.26 170.557 323.729 170.661 324.281 170.661C324.938 170.661 325.583 170.432 326.219 169.974C326.854 169.515 327.531 168.843 328.25 167.958V158.13C328.25 157.963 328.339 157.843 328.516 157.77C328.693 157.687 329.036 157.645 329.547 157.645C330.047 157.645 330.385 157.687 330.562 157.77C330.75 157.843 330.844 157.963 330.844 158.13V177.786ZM337.328 150.911C337.63 150.911 337.839 151.005 337.953 151.192C338.068 151.38 338.125 151.604 338.125 151.864V166.692C338.125 167.224 338.172 167.729 338.266 168.208C338.37 168.687 338.536 169.109 338.766 169.474C339.005 169.838 339.312 170.13 339.688 170.349C340.073 170.557 340.542 170.661 341.094 170.661C341.75 170.661 342.396 170.432 343.031 169.974C343.667 169.515 344.344 168.843 345.062 167.958V158.13C345.062 157.963 345.151 157.843 345.328 157.77C345.505 157.687 345.849 157.645 346.359 157.645C346.859 157.645 347.198 157.687 347.375 157.77C347.562 157.843 347.656 157.963 347.656 158.13V172.192C347.656 172.349 347.573 172.468 347.406 172.552C347.24 172.635 346.932 172.677 346.484 172.677C346.005 172.677 345.688 172.635 345.531 172.552C345.385 172.468 345.312 172.349 345.312 172.192V170.333C344.5 171.218 343.708 171.864 342.938 172.27C342.167 172.677 341.375 172.88 340.562 172.88C339.812 172.88 339.125 172.77 338.5 172.552C337.885 172.322 337.359 171.968 336.922 171.489C336.484 171.01 336.141 170.39 335.891 169.63C335.651 168.859 335.531 167.937 335.531 166.864V153.052H332.266C332.12 153.052 332 152.974 331.906 152.817C331.802 152.651 331.75 152.369 331.75 151.974C331.75 151.599 331.797 151.328 331.891 151.161C331.984 150.994 332.109 150.911 332.266 150.911H337.328ZM364.766 157.724C364.922 157.724 365.047 157.807 365.141 157.974C365.234 158.14 365.281 158.411 365.281 158.786C365.281 159.182 365.229 159.463 365.125 159.63C365.031 159.786 364.911 159.864 364.766 159.864H354.938V166.692C354.938 167.224 354.984 167.729 355.078 168.208C355.182 168.687 355.349 169.109 355.578 169.474C355.818 169.838 356.125 170.13 356.5 170.349C356.885 170.557 357.354 170.661 357.906 170.661C358.562 170.661 359.208 170.432 359.844 169.974C360.479 169.515 361.156 168.843 361.875 167.958V163.724C361.875 163.557 361.964 163.437 362.141 163.364C362.318 163.281 362.661 163.239 363.172 163.239C363.672 163.239 364.01 163.281 364.188 163.364C364.375 163.437 364.469 163.557 364.469 163.724V172.192C364.469 172.349 364.385 172.468 364.219 172.552C364.052 172.635 363.745 172.677 363.297 172.677C362.818 172.677 362.5 172.635 362.344 172.552C362.198 172.468 362.125 172.349 362.125 172.192V170.333C361.312 171.218 360.521 171.864 359.75 172.27C358.979 172.677 358.188 172.88 357.375 172.88C356.625 172.88 355.938 172.77 355.312 172.552C354.698 172.322 354.172 171.968 353.734 171.489C353.297 171.01 352.953 170.39 352.703 169.63C352.464 168.859 352.344 167.937 352.344 166.864V151.302C352.344 151.135 352.432 151.015 352.609 150.942C352.786 150.859 353.13 150.817 353.641 150.817C354.141 150.817 354.479 150.859 354.656 150.942C354.844 151.015 354.938 151.135 354.938 151.302V157.724H364.766ZM369.25 158.13C369.25 157.974 369.333 157.854 369.5 157.77C369.667 157.687 369.974 157.645 370.422 157.645C370.901 157.645 371.214 157.687 371.359 157.77C371.516 157.854 371.594 157.974 371.594 158.13V159.989C372.406 159.104 373.198 158.458 373.969 158.052C374.74 157.635 375.531 157.427 376.344 157.427C377.094 157.427 377.776 157.541 378.391 157.77C379.016 157.989 379.547 158.343 379.984 158.833C380.422 159.312 380.76 159.932 381 160.692C381.25 161.453 381.375 162.375 381.375 163.458V172.192C381.375 172.359 381.286 172.484 381.109 172.567C380.932 172.64 380.589 172.677 380.078 172.677C379.578 172.677 379.234 172.64 379.047 172.567C378.87 172.484 378.781 172.359 378.781 172.192V163.63C378.781 163.099 378.729 162.593 378.625 162.114C378.531 161.635 378.365 161.213 378.125 160.849C377.896 160.484 377.589 160.197 377.203 159.989C376.828 159.77 376.365 159.661 375.812 159.661C375.156 159.661 374.51 159.89 373.875 160.349C373.24 160.807 372.562 161.479 371.844 162.364V177.786C371.844 177.953 371.755 178.072 371.578 178.145C371.401 178.229 371.057 178.27 370.547 178.27C370.047 178.27 369.703 178.229 369.516 178.145C369.339 178.072 369.25 177.953 369.25 177.786V158.13Z" fill="black"/>
<g clip-path="url(#clip0_979_6264)">
<path d="M213.959 26.8375V87.8464C213.959 93.3089 208.933 97.7542 202.757 97.7542H195.781C193.724 97.7542 192.047 99.2371 192.047 101.057V148.618H184.579V101.057C184.579 95.5943 189.605 91.149 195.781 91.149H202.757C204.814 91.149 206.491 89.6661 206.491 87.8464V26.8375C206.491 25.0177 204.814 23.5349 202.757 23.5349H195.781C189.605 23.5349 184.579 19.0896 184.579 13.6271V0.000549316H192.047V13.6271C192.047 15.4468 193.724 16.9297 195.781 16.9297H202.757C208.933 16.9297 213.959 21.375 213.959 26.8375Z" fill="#E3E7E8"/>
<path d="M213.959 26.8375V87.8464C213.959 93.3089 208.932 97.7542 202.756 97.7542H195.781C193.723 97.7542 192.046 99.2371 192.046 101.057V148.618H188.312V101.057C188.312 97.414 191.662 94.4516 195.781 94.4516H202.756C206.875 94.4516 210.224 91.4892 210.224 87.8464V26.8375C210.224 23.1947 206.875 20.2323 202.756 20.2323H195.781C191.662 20.2323 188.312 17.2698 188.312 13.6271V0.000549316H192.046V13.6271C192.046 15.4468 193.723 16.9297 195.781 16.9297H202.756C208.932 16.9297 213.959 21.375 213.959 26.8375Z" fill="#BDC3C7"/>
<g style="mix-blend-mode:multiply">
<path d="M195.781 23.5349H199.093V16.9297H195.781C193.724 16.9297 192.047 15.4468 192.047 13.6271V11.312L191.255 12.0121C188.966 14.0366 185.945 13.0656 184.579 11.2129V13.6271C184.579 19.0896 189.605 23.5349 195.781 23.5349Z" fill="#BDC3C7"/>
</g>
<g style="mix-blend-mode:multiply">
<path d="M202.757 16.9296H199.773V23.5348H202.757C204.814 23.5348 206.491 25.0177 206.491 26.8374V87.8464C206.491 89.6661 204.814 91.149 202.757 91.149H195.781C189.605 91.149 184.579 95.5943 184.579 101.057V140.589C186.304 138.419 190.609 138.545 192.047 140.952V101.057C192.047 99.237 193.724 97.7542 195.781 97.7542H202.757C208.933 97.7542 213.959 93.3089 213.959 87.8464V26.8374C213.959 21.3749 208.933 16.9296 202.757 16.9296Z" fill="#BDC3C7"/>
</g>
<path d="M272.332 71.0065V77.6117H195.967C189.791 77.6117 184.765 73.1664 184.765 67.7039V26.8375C184.765 21.375 189.791 16.9297 195.967 16.9297H222.854C224.911 16.9297 226.588 15.4468 226.588 13.6271V0.000549316H234.056V13.6271C234.056 19.0896 229.03 23.5349 222.854 23.5349H195.967C193.91 23.5349 192.233 25.0177 192.233 26.8375V67.7039C192.233 69.5236 193.91 71.0065 195.967 71.0065H272.332Z" fill="#E3E7E8"/>
<path d="M272.331 71.0064V74.309H195.967C191.848 74.309 188.499 71.3466 188.499 67.7038V26.8375C188.499 23.1947 191.848 20.2323 195.967 20.2323H222.853C226.972 20.2323 230.321 17.2698 230.321 13.6271V0.000549316H234.056V13.6271C234.056 19.0896 229.029 23.5349 222.853 23.5349H195.967C193.909 23.5349 192.233 25.0177 192.233 26.8375V67.7038C192.233 69.5236 193.909 71.0064 195.967 71.0064H272.331Z" fill="#BDC3C7"/>
<g style="mix-blend-mode:multiply">
<path d="M191.255 63.047L192.233 63.9123V45.9263C190.743 48.291 186.445 48.367 184.765 46.1641V63.6085C186.206 61.9142 189.063 61.1117 191.255 63.047Z" fill="#BDC3C7"/>
</g>
<path d="M272.333 33.8519V40.4571H237.792C235.734 40.4571 234.057 41.9399 234.057 43.7597V48.2974C234.057 53.7599 229.031 58.2052 222.855 58.2052H153.772C151.715 58.2052 150.038 59.6881 150.038 61.5078V104.858C150.038 110.32 145.012 114.766 138.836 114.766H104.294V108.16H138.836C140.893 108.16 142.57 106.678 142.57 104.858V61.5078C142.57 56.0453 147.596 51.6 153.772 51.6H222.855C224.912 51.6 226.589 50.1205 226.589 48.2974V43.7597C226.589 38.2972 231.615 33.8519 237.792 33.8519H272.333Z" fill="#E3E7E8"/>
<path d="M272.333 37.1544V40.457H237.792C235.734 40.457 234.057 41.9399 234.057 43.7596V48.2974C234.057 53.7599 229.031 58.2052 222.855 58.2052H153.772C151.715 58.2052 150.038 59.6881 150.038 61.5078V104.858C150.038 110.32 145.012 114.766 138.836 114.766H104.294V111.463H138.836C142.954 111.463 146.304 108.5 146.304 104.858V61.5078C146.304 57.865 149.654 54.9026 153.772 54.9026H222.855C226.974 54.9026 230.323 51.9402 230.323 48.2974V43.7596C230.323 40.1169 233.673 37.1544 237.792 37.1544H272.333Z" fill="#BDC3C7"/>
<g style="mix-blend-mode:multiply">
<path d="M158.963 51.6C161.331 53.2116 161.084 57.046 158.239 58.2052H177.9C174.576 57.4258 174.031 53.4362 176.26 51.6H158.963Z" fill="#BDC3C7"/>
</g>
<g style="mix-blend-mode:multiply">
<path d="M134.66 108.16H117.225C119.697 109.666 119.578 113.474 116.878 114.765H135C132.3 113.474 132.188 109.666 134.66 108.16Z" fill="#BDC3C7"/>
</g>
<path d="M272.333 108.16V114.766H218.829C216.772 114.766 215.095 116.248 215.095 118.068V125.876C215.095 131.338 210.069 135.783 203.893 135.783H132.502C126.322 135.783 121.3 131.338 121.3 125.876V81.0791C121.3 79.2594 119.623 77.7765 117.566 77.7765H104.294V71.1713H117.566C123.742 71.1713 128.768 75.6166 128.768 81.0791V125.876C128.768 127.695 130.441 129.178 132.502 129.178H203.893C205.954 129.178 207.627 127.695 207.627 125.876V118.068C207.627 112.606 212.653 108.16 218.829 108.16H272.333Z" fill="#E3E7E8"/>
<path d="M272.333 111.463V114.766H218.829C216.772 114.766 215.095 116.249 215.095 118.069V125.876C215.095 131.338 210.069 135.784 203.893 135.784H132.502C126.322 135.784 121.3 131.338 121.3 125.876V81.0794C121.3 79.2596 119.623 77.7768 117.566 77.7768H104.294V74.4742H117.566C121.681 74.4742 125.034 77.4366 125.034 81.0794V125.876C125.034 129.519 128.384 132.481 132.502 132.481H203.893C208.011 132.481 211.361 129.519 211.361 125.876V118.069C211.361 114.426 214.711 111.463 218.829 111.463H272.333Z" fill="#BDC3C7"/>
<g style="mix-blend-mode:multiply">
<path d="M239.39 108.161H222.183C224.655 109.667 224.536 113.475 221.836 114.766H239.73C237.03 113.475 236.918 109.667 239.39 108.161Z" fill="#BDC3C7"/>
</g>
<path d="M234.057 101.056V148.617H226.589V101.056C226.589 99.2367 224.912 97.7539 222.855 97.7539H174.531C168.354 97.7539 163.328 93.3086 163.328 87.8461V43.7597C163.328 41.9399 161.651 40.4571 159.594 40.4571H104.294V33.8519H159.594C165.77 33.8519 170.796 38.2972 170.796 43.7597V87.8461C170.796 89.6658 172.469 91.1487 174.531 91.1487H222.855C229.031 91.1487 234.057 95.594 234.057 101.056Z" fill="#BDC3C7"/>
<path d="M234.057 101.056V148.617H230.323V101.056C230.323 97.4137 226.974 94.4513 222.855 94.4513H174.531C170.412 94.4513 167.062 91.4888 167.062 87.8461V43.7597C167.062 40.1169 163.713 37.1545 159.594 37.1545H104.294V33.8519H159.594C165.77 33.8519 170.796 38.2972 170.796 43.7597V87.8461C170.796 89.6658 172.469 91.1487 174.531 91.1487H222.855C229.031 91.1487 234.057 95.594 234.057 101.056Z" fill="#E3E7E8"/>
<path d="M192.028 102.906V123.461H184.567V120.113C184.567 118.653 183.23 117.471 181.58 117.471H181.345V112.285H181.58C181.815 112.285 182.043 112.262 182.263 112.216C183.585 111.942 184.567 110.895 184.567 109.643V102.906H192.028Z" fill="#E3E7E8"/>
<path d="M187.499 104.637V108.914C187.499 110.737 185.826 112.216 183.764 112.216H182.263C183.585 111.942 184.567 110.895 184.567 109.644V104.637H187.499Z" fill="#BDC3C7"/>
<path d="M192.506 123.462H184.201V126.85H192.506V123.462Z" fill="#34495E"/>
<path d="M191.144 102.906H183.855V106.595H191.144V102.906Z" fill="#34495E"/>
<path d="M192.849 102.906H189.04V106.595H192.849V102.906Z" fill="#222F3D"/>
<path d="M192.85 103.458H183.855V104.006H192.85V103.458Z" fill="#F1C40F"/>
<path d="M192.849 103.458H189.04V104.006H192.849V103.458Z" fill="#F39C12"/>
<path d="M181.531 113.322H175.429V116.437H181.531V113.322Z" fill="#202E3B"/>
<path d="M181.531 112.583H177.969V117.177H181.531V112.583Z" fill="#34495E"/>
<path d="M181.53 112.216H181.209V117.54H181.53V112.216Z" fill="#597DA1"/>
<path d="M178.252 112.216L178.801 117.497L178.244 117.54L177.695 112.262L178.252 112.216Z" fill="#597DA1"/>
<path d="M179.357 112.216L179.903 117.497L179.346 117.54L178.801 112.262L179.357 112.216Z" fill="#597DA1"/>
<path d="M180.459 112.216L181.008 117.497L180.452 117.54L179.903 112.262L180.459 112.216Z" fill="#597DA1"/>
<path d="M171.448 121.734C175.73 121.734 179.201 118.664 179.201 114.878C179.201 111.091 175.73 108.021 171.448 108.021C167.167 108.021 163.696 111.091 163.696 114.878C163.696 118.664 167.167 121.734 171.448 121.734Z" fill="#82271D"/>
<path d="M171.449 121.252C175.429 121.252 178.656 118.398 178.656 114.878C178.656 111.357 175.429 108.504 171.449 108.504C167.468 108.504 164.242 111.357 164.242 114.878C164.242 118.398 167.468 121.252 171.449 121.252Z" fill="#F1C40F"/>
<path d="M171.45 120.931C175.23 120.931 178.294 118.221 178.294 114.878C178.294 111.534 175.23 108.824 171.45 108.824C167.669 108.824 164.605 111.534 164.605 114.878C164.605 118.221 167.669 120.931 171.45 120.931Z" fill="#C0392B"/>
<path d="M171.449 120.109C174.716 120.109 177.364 117.767 177.364 114.878C177.364 111.989 174.716 109.646 171.449 109.646C168.182 109.646 165.534 111.989 165.534 114.878C165.534 117.767 168.182 120.109 171.449 120.109Z" fill="#ECF0F1"/>
<path d="M171.448 109.646C174.716 109.646 177.363 111.988 177.363 114.878C177.363 117.768 174.716 120.109 171.448 120.109V109.646Z" fill="#CED4D9"/>
<path d="M172.288 114.878C172.288 115.291 171.911 115.624 171.444 115.624C170.977 115.624 170.6 115.291 170.6 114.878C170.6 114.465 170.977 114.131 171.444 114.131C171.911 114.131 172.288 114.465 172.288 114.878Z" fill="#34495E"/>
<path d="M171.418 119.987V118.398C171.65 118.398 171.881 118.378 172.109 118.342L172.423 119.908C172.094 119.96 171.754 119.987 171.414 119.987H171.418ZM168.509 119.306C168.218 119.158 167.938 118.986 167.68 118.795L168.83 117.573C169.01 117.705 169.2 117.824 169.405 117.926L168.509 119.306ZM175.145 118.778L173.987 117.563C174.163 117.431 174.331 117.282 174.48 117.123L175.858 118.144C175.642 118.372 175.403 118.587 175.145 118.778ZM165.944 116.628C165.828 116.347 165.738 116.057 165.679 115.763L167.449 115.482C167.49 115.684 167.55 115.885 167.632 116.077L165.948 116.628H165.944ZM177.128 115.733L175.358 115.459C175.399 115.258 175.417 115.049 175.417 114.841L176.844 114.802L177.214 114.808C177.214 115.139 177.184 115.439 177.128 115.733ZM167.613 113.646L165.918 113.114C166.033 112.83 166.175 112.556 166.343 112.298L167.904 113.088C167.792 113.263 167.691 113.451 167.613 113.646ZM174.861 113.035C174.742 112.857 174.603 112.685 174.45 112.53L175.817 111.496C176.034 111.72 176.232 111.965 176.403 112.219L174.861 113.035ZM169.364 111.78L168.453 110.409C168.744 110.261 169.051 110.129 169.364 110.026L169.995 111.516C169.775 111.588 169.562 111.677 169.364 111.783V111.78ZM172.74 111.493C172.52 111.423 172.292 111.37 172.064 111.337L172.359 109.769C172.692 109.818 173.02 109.891 173.338 109.99L172.74 111.489V111.493Z" fill="#34495E"/>
<path d="M173.835 112.569L171.878 115.003L171.173 114.561L173.129 112.127C173.174 112.074 173.26 112.061 173.32 112.097L173.801 112.401C173.861 112.44 173.876 112.516 173.835 112.569Z" fill="#34495E"/>
<path d="M173.417 112.645L171.639 114.855L171.408 114.709L173.185 112.5C173.2 112.483 173.226 112.477 173.249 112.49L173.406 112.589C173.424 112.602 173.432 112.625 173.417 112.645Z" fill="#F1C40F"/>
<path d="M171.739 114.877C171.739 115.019 171.609 115.138 171.445 115.138C171.28 115.138 171.15 115.023 171.15 114.877C171.15 114.732 171.28 114.617 171.445 114.617C171.609 114.617 171.739 114.732 171.739 114.877Z" fill="#F1C40F"/>
<path d="M187.499 118.441V123.461H184.568V120.112C184.568 118.653 183.231 117.47 181.581 117.47H181.532V115.139H183.765C185.827 115.139 187.499 116.615 187.499 118.441Z" fill="#BDC3C7"/>
<path d="M250.055 25.8727H247.217V30.3973H250.055V25.8727Z" fill="#202E3B"/>
<path d="M250.728 27.874H246.542V30.3939H250.728V27.874Z" fill="#34495E"/>
<path d="M251.926 30.2816H245.343V34.0994H251.926V30.2816Z" fill="#E3E7E8"/>
<path d="M245.343 34.0994H247.512C248.132 34.0994 248.633 33.6568 248.633 33.1086V30.2816H245.343V34.0994Z" fill="#BDC3C7"/>
<path d="M251.524 30.1693H245.743V30.3972H251.524V30.1693Z" fill="#597DA1"/>
<path d="M246.259 27.6828L246.219 28.0775L251.027 28.4645L251.068 28.0699L246.259 27.6828Z" fill="#597DA1"/>
<path d="M246.256 28.4638L246.215 28.8585L251.024 29.2455L251.064 28.8509L246.256 28.4638Z" fill="#597DA1"/>
<path d="M246.256 29.2447L246.215 29.6393L251.024 30.0264L251.064 29.6317L246.256 29.2447Z" fill="#597DA1"/>
<path d="M248.151 25.8727H249.118C249.279 25.8727 249.409 25.7571 249.409 25.6151C249.409 25.4731 249.279 25.3575 249.118 25.3575H248.151C247.99 25.3575 247.86 25.4731 247.86 25.6151C247.86 25.7571 247.99 25.8727 248.151 25.8727Z" fill="#F1C40F"/>
<path d="M238.356 27.5373L239.223 26.7678H252.449L252.767 27.0485L253.398 26.4871L252.819 25.9752H238.853L237.722 26.9758L238.356 27.5373Z" fill="#C0392B"/>
<path d="M250.448 25.9752H246.825V26.7678H250.448V25.9752Z" fill="#E74C3C"/>
<path d="M255.298 34.0994H241.971V40.5065H255.298V34.0994Z" fill="#E3E7E8"/>
<path d="M255.298 37.3032H241.971V40.5067H255.298V37.3032Z" fill="#BDC3C7"/>
<path d="M257.172 34.126V40.4835L256.769 41.9268H253.83L253.427 40.4835V34.126L253.527 33.7694L253.83 32.6828H256.769L257.071 33.7694L257.172 34.126Z" fill="#F39C12"/>
<path d="M256.731 39.3443H253.867C253.382 38.0199 253.382 36.5899 253.867 35.2656H256.731C257.217 36.5899 257.217 38.0199 256.731 39.3443Z" fill="#F1C40F"/>
<path d="M257.07 33.7694C257.022 34.2747 256.91 34.78 256.731 35.2654H253.866C253.683 34.78 253.571 34.2747 253.527 33.7694L253.829 32.6828H256.768L257.07 33.7694Z" fill="#FFE372"/>
<path d="M257.07 40.8404C257.022 40.3351 256.91 39.8298 256.731 39.3444H253.866C253.683 39.8298 253.571 40.3351 253.527 40.8404L253.829 41.927H256.768L257.07 40.8404Z" fill="#D35400"/>
<path d="M243.842 34.1259V40.4834L243.438 41.9267H240.499L240.096 40.4834V34.1259L240.197 33.7692L240.499 32.6827H243.438L243.741 33.7692L243.842 34.1259Z" fill="#F39C12"/>
<path d="M243.405 39.3442H240.541C240.055 38.0198 240.055 36.5898 240.541 35.2654H243.405C243.89 36.5898 243.89 38.0198 243.405 39.3442Z" fill="#F1C40F"/>
<path d="M243.74 33.7692C243.691 34.2745 243.579 34.7798 243.4 35.2653H240.536C240.353 34.7798 240.241 34.2745 240.196 33.7692L240.499 32.6827H243.438L243.74 33.7692Z" fill="#FFE372"/>
<path d="M243.74 40.8401C243.691 40.3348 243.579 39.8295 243.4 39.344H240.536C240.353 39.8295 240.241 40.3348 240.196 40.8401L240.499 41.9266H243.438L243.74 40.8401Z" fill="#D35400"/>
<path d="M245.343 32.9207V34.0997H244.01C244.746 34.0997 245.343 33.5713 245.343 32.9207Z" fill="#BDC3C7"/>
<path d="M251.927 32.9207V34.0997H253.26C252.524 34.0997 251.927 33.5713 251.927 32.9207Z" fill="#E3E7E8"/>
<path d="M244.257 33.3895H243.832V41.2199H244.257V33.3895Z" fill="#34495E"/>
<path d="M253.399 33.3895H252.973V41.2199H253.399V33.3895Z" fill="#34495E"/>
<path d="M248.636 39.5653C246.545 39.5653 244.909 38.5713 244.909 37.3031C244.909 36.0349 246.545 35.0408 248.636 35.0408C250.727 35.0408 252.363 36.0349 252.363 37.3031C252.363 38.5713 250.727 39.5653 248.636 39.5653Z" fill="#ECF0F1"/>
<path d="M251.613 37.3029C251.613 38.188 250.28 38.9047 248.633 38.9047C246.986 38.9047 245.653 38.188 245.653 37.3029C245.653 36.4178 246.986 35.7012 248.633 35.7012C250.28 35.7012 251.613 36.4178 251.613 37.3029Z" fill="#2980B9"/>
<path d="M119.982 63.9486H121.021V57.7166H119.982C113.911 57.7166 108.967 62.0859 108.967 67.4592V68.5061H116.013V67.4592C116.013 65.5239 117.794 63.9486 119.982 63.9486Z" fill="#E3E7E8"/>
<path d="M119.983 63.9487H121.021V60.8344H119.983C115.849 60.8344 112.492 63.81 112.492 67.4594V68.5063H116.013V67.4594C116.013 65.524 117.794 63.9487 119.983 63.9487Z" fill="#BDC3C7"/>
<path d="M117.07 68.5062H107.902V70.6826H117.07V68.5062Z" fill="#3B536B"/>
<path d="M117.069 68.5062H113.07V70.6826H117.069V68.5062Z" fill="#2C3E50"/>
<path d="M137.036 56.7489H134.575V64.8568H137.036V56.7489Z" fill="#3B536B"/>
<path d="M137.036 61.6333H134.575V64.8567H137.036V61.6333Z" fill="#2C3E50"/>
<path d="M137.818 57.2739H137.037V64.3282H137.818V57.2739Z" fill="#2C3E50"/>
<path d="M137.818 61.5276H137.037V64.3316H137.818V61.5276Z" fill="#1C2833"/>
<path d="M142.527 56.805V64.8006L142.019 66.617H138.322L137.814 64.8006V56.805L137.941 56.3558L138.322 54.9886H142.019L142.4 56.3558L142.527 56.805Z" fill="#F39C12"/>
<path d="M141.974 63.3672C140.772 63.3672 139.569 63.3672 138.371 63.3672C137.758 61.6994 137.758 59.9061 138.371 58.2383H141.974C142.586 59.9061 142.586 61.6994 141.974 63.3672Z" fill="#F1C40F"/>
<path d="M142.399 56.3558C142.339 56.9899 142.197 57.6273 141.973 58.2383H138.37C138.138 57.6273 138 56.9932 137.944 56.3558L138.325 54.9886H142.022L142.403 56.3558H142.399Z" fill="#FFE372"/>
<path d="M142.399 65.2497C142.339 64.6156 142.197 63.9782 141.973 63.3672H138.37C138.138 63.9782 138 64.6123 137.944 65.2497L138.325 66.6169H142.022L142.403 65.2497H142.399Z" fill="#D35400"/>
<path d="M116.279 70.6592H108.725V71.115H116.279V70.6592Z" fill="#F1C40F"/>
<path d="M134.573 57.7166H121.017V63.9717H134.573V57.7166Z" fill="#E3E7E8"/>
<path d="M134.573 60.844H121.017V63.9715H134.573V60.844Z" fill="#BDC3C7"/>
<path d="M250.846 87.4265H244.203V106.066H250.846V87.4265Z" fill="#E3E7E8"/>
<path d="M256.344 91.5961L245.151 101.495L249.848 105.65L261.041 95.7506L256.344 91.5961Z" fill="#E3E7E8"/>
<path d="M250.95 104.673C249.662 103.533 249.662 101.684 250.95 100.545L258.71 93.6818L261.044 95.7459L250.95 104.673Z" fill="#BDC3C7"/>
<path d="M247.522 87.4265H244.203V106.066H247.522V87.4265Z" fill="#BDC3C7"/>
<path d="M255.933 91.2321L254.167 92.7944L259.683 97.6729L261.449 96.1105L255.933 91.2321Z" fill="#3B536B"/>
<path d="M259.018 93.9633L257.251 95.5256L259.683 97.6764L261.45 96.1141L259.018 93.9633Z" fill="#2C3E50"/>
<path d="M251.398 91.4098H243.646V93.2493H251.398V91.4098Z" fill="#3B536B"/>
<path d="M246.727 91.4098H243.646V93.2493H246.727V91.4098Z" fill="#2C3E50"/>
<path d="M250.898 90.8282H244.15V91.4095H250.898V90.8282Z" fill="#2C3E50"/>
<path d="M246.831 90.8282H244.15V91.4095H246.831V90.8282Z" fill="#1C2833"/>
<path d="M251.346 87.3043H243.698L241.966 87.6841V90.4484L243.698 90.8282H251.346L251.776 90.7324L253.083 90.4484V87.6841L251.776 87.4001L251.346 87.3043Z" fill="#F39C12"/>
<path d="M245.068 87.7173V90.4122C246.662 90.8712 248.38 90.8712 249.975 90.4122V87.7173C248.38 87.2582 246.662 87.2582 245.068 87.7173Z" fill="#F1C40F"/>
<path d="M251.776 87.4004C251.167 87.4466 250.558 87.5523 249.976 87.7207V90.4156C250.558 90.5874 251.167 90.693 251.776 90.736L253.083 90.452V87.6877L251.776 87.4037V87.4004Z" fill="#FFE372"/>
<path d="M243.269 87.4004C243.878 87.4466 244.482 87.5523 245.069 87.7207V90.4156C244.486 90.5874 243.878 90.693 243.269 90.736L241.962 90.452V87.6877L243.269 87.4037V87.4004Z" fill="#D35400"/>
<path d="M251.398 106.063H243.646V107.903H251.398V106.063Z" fill="#3B536B"/>
<path d="M247.029 106.063H243.646V107.903H247.029V106.063Z" fill="#2C3E50"/>
<path d="M250.73 107.886H244.34V108.273H250.73V107.886Z" fill="#F1C40F"/>
<path d="M178.321 66.6663H176.853V65.6821H178.321C178.429 65.7779 178.489 65.8307 178.597 65.9265V66.4252C178.489 66.521 178.429 66.5738 178.321 66.6696V66.6663Z" fill="#34495E"/>
<path d="M178.321 69.6847H176.853V68.7005H178.321C178.429 68.7963 178.489 68.8491 178.597 68.9449V69.4436C178.489 69.5394 178.429 69.5922 178.321 69.688V69.6847Z" fill="#34495E"/>
<path d="M178.321 72.7036H176.853V71.7194H178.321C178.429 71.8152 178.489 71.868 178.597 71.9638V72.4625C178.489 72.5583 178.429 72.6111 178.321 72.7069V72.7036Z" fill="#34495E"/>
<path d="M175.061 65.0053V73.3773H173.429V72.9645C173.429 72.5616 173.059 72.2346 172.604 72.2346H171.875C171.42 72.2346 171.05 72.5649 171.05 72.9645V77.9911H163.093V60.3849H171.05V65.4115C171.05 65.8144 171.424 66.1414 171.875 66.1414H172.604C173.059 66.1414 173.429 65.8144 173.429 65.4115V65.002H175.061V65.0053Z" fill="#BDC3C7"/>
<path d="M170.049 60.3879H166.502V77.9941H170.049V60.3879Z" fill="#E3E7E8"/>
<path d="M176.984 65.0052H175.4V73.3806H176.984V65.0052Z" fill="#BDC3C7"/>
<path d="M176.696 65.0052H175.688V73.3806H176.696V65.0052Z" fill="#E3E7E8"/>
<path d="M175.4 65.4146H175.06V72.9709H175.4V65.4146Z" fill="#34495E"/>
<path d="M174.772 65.0052H173.764V73.3806H174.772V65.0052Z" fill="#E3E7E8"/>
<path d="M178.186 65.6063V66.7357L178.086 66.9934H177.361L177.26 66.7357V65.6063L177.286 65.5435L177.361 65.352H178.086L178.16 65.5435L178.186 65.6063Z" fill="#F39C12"/>
<path d="M178.077 66.5334H177.372C177.252 66.2992 177.252 66.0451 177.372 65.8109H178.077C178.196 66.0451 178.196 66.2992 178.077 66.5334Z" fill="#F1C40F"/>
<path d="M178.159 65.5433C178.148 65.6324 178.118 65.7215 178.077 65.8072H177.372C177.327 65.7215 177.301 65.6324 177.29 65.5433L177.365 65.352H178.088L178.163 65.5433H178.159Z" fill="#FFE372"/>
<path d="M178.159 66.8015C178.148 66.7124 178.118 66.6233 178.077 66.5375H177.372C177.327 66.6233 177.301 66.7124 177.29 66.8015L177.365 66.9928H178.088L178.163 66.8015H178.159Z" fill="#D35400"/>
<path d="M178.186 68.6249V69.7544L178.086 70.012H177.361L177.26 69.7544V68.6249L177.286 68.5622L177.361 68.3706H178.086L178.16 68.5622L178.186 68.6249Z" fill="#F39C12"/>
<path d="M178.077 69.5523H177.372C177.252 69.3181 177.252 69.064 177.372 68.8298H178.077C178.196 69.064 178.196 69.3181 178.077 69.5523Z" fill="#F1C40F"/>
<path d="M178.159 68.562C178.148 68.6511 178.118 68.7401 178.077 68.8259H177.372C177.327 68.7401 177.301 68.6511 177.29 68.562L177.365 68.3706H178.088L178.163 68.562H178.159Z" fill="#FFE372"/>
<path d="M178.159 69.8201C178.148 69.7311 178.118 69.642 178.077 69.5562H177.372C177.327 69.642 177.301 69.7311 177.29 69.8201L177.365 70.0115H178.088L178.163 69.8201H178.159Z" fill="#D35400"/>
<path d="M178.186 71.6432V72.7726L178.086 73.0302H177.361L177.26 72.7726V71.6432L177.286 71.5804L177.361 71.3889H178.086L178.16 71.5804L178.186 71.6432Z" fill="#F39C12"/>
<path d="M178.077 72.5705H177.372C177.252 72.3363 177.252 72.0822 177.372 71.848H178.077C178.196 72.0822 178.196 72.3363 178.077 72.5705Z" fill="#F1C40F"/>
<path d="M178.159 71.5802C178.148 71.6693 178.118 71.7584 178.077 71.8441H177.372C177.327 71.7584 177.301 71.6693 177.29 71.5802L177.365 71.3889H178.088L178.163 71.5802H178.159Z" fill="#FFE372"/>
<path d="M178.159 72.8384C178.148 72.7493 178.118 72.6602 178.077 72.5744H177.372C177.327 72.6602 177.301 72.7493 177.29 72.8384L177.365 73.0297H178.088L178.163 72.8384H178.159Z" fill="#D35400"/>
<path d="M173.433 71.0784V72.9675C173.433 72.5646 173.063 72.2376 172.607 72.2376H171.879C171.424 72.2376 171.054 72.5679 171.054 72.9675V71.0784C171.054 70.6755 171.427 70.3485 171.879 70.3485H172.607C173.063 70.3485 173.433 70.6788 173.433 71.0784Z" fill="#95A5A6"/>
<path d="M171.535 60.2363H162.469V61.5936H171.535V60.2363Z" fill="#3B536B"/>
<path d="M166.072 60.2363H162.469V61.5936H166.072V60.2363Z" fill="#2C3E50"/>
<path d="M171.535 76.6635H162.469V78.0209H171.535V76.6635Z" fill="#3B536B"/>
<path d="M166.072 76.6635H162.469V78.0209H166.072V76.6635Z" fill="#2C3E50"/>
<path d="M155.646 129.644H152.823C151.747 128.132 149.846 127.121 147.677 127.121C145.507 127.121 143.607 128.132 142.531 129.644H139.708V135.351H142.531C143.607 136.864 145.507 137.874 147.677 137.874C149.846 137.874 151.747 136.864 152.823 135.351H155.646V129.644Z" fill="#E3E7E8"/>
<path d="M139.708 132.623V135.348H142.531C143.607 136.86 145.507 137.871 147.677 137.871C149.846 137.871 151.747 136.86 152.823 135.348H155.646V132.623H139.708Z" fill="#BDC3C7"/>
<path d="M140.493 129.317V135.674L139.779 137.118H134.581L133.868 135.674V129.317L134.044 128.96L134.581 127.874H139.779L140.313 128.96L140.493 129.317Z" fill="#95A5A6"/>
<path d="M139.712 134.535C138.024 134.535 136.333 134.535 134.645 134.535C133.782 133.211 133.782 131.781 134.645 130.457H139.712C140.575 131.781 140.575 133.211 139.712 134.535Z" fill="#BDC3C7"/>
<path d="M140.313 128.96C140.227 129.466 140.029 129.971 139.712 130.456H134.645C134.32 129.971 134.122 129.466 134.043 128.96L134.577 127.874H139.775L140.309 128.96H140.313Z" fill="#ECF0F1"/>
<path d="M140.313 136.031C140.227 135.526 140.029 135.021 139.712 134.535H134.645C134.32 135.021 134.122 135.526 134.043 136.031L134.577 137.118H139.775L140.309 136.031H140.313Z" fill="#7F8C8D"/>
<path d="M160.901 129.317V135.675L160.188 137.118H154.99L154.276 135.675V129.317L154.456 128.96L154.99 127.874H160.188L160.722 128.96L160.901 129.317Z" fill="#95A5A6"/>
<path d="M160.124 134.535C158.437 134.535 156.745 134.535 155.057 134.535C154.195 133.211 154.195 131.781 155.057 130.457H160.124C160.987 131.781 160.987 133.211 160.124 134.535Z" fill="#BDC3C7"/>
<path d="M160.722 128.96C160.636 129.466 160.438 129.971 160.12 130.456H155.053C154.728 129.971 154.53 129.466 154.452 128.96L154.986 127.874H160.184L160.718 128.96H160.722Z" fill="#ECF0F1"/>
<path d="M160.722 136.031C160.636 135.526 160.438 135.021 160.12 134.535H155.053C154.728 135.021 154.53 135.526 154.452 136.031L154.986 137.118H160.184L160.718 136.031H160.722Z" fill="#7F8C8D"/>
<path d="M149.1 122.596H146.262V127.121H149.1V122.596Z" fill="#202E3B"/>
<path d="M149.772 124.597H145.586V127.117H149.772V124.597Z" fill="#34495E"/>
<path d="M150.568 126.893H144.788V127.121H150.568V126.893Z" fill="#597DA1"/>
<path d="M150.568 127.117H144.788V128.257H150.568V127.117Z" fill="#E3E7E8"/>
<path d="M150.07 124.403L145.262 124.79L145.302 125.185L150.111 124.798L150.07 124.403Z" fill="#597DA1"/>
<path d="M150.069 125.186L145.261 125.573L145.301 125.968L150.11 125.581L150.069 125.186Z" fill="#597DA1"/>
<path d="M150.07 125.965L145.262 126.352L145.302 126.747L150.111 126.36L150.07 125.965Z" fill="#597DA1"/>
<path d="M148.162 122.596H147.195C147.035 122.596 146.904 122.481 146.904 122.339C146.904 122.197 147.035 122.081 147.195 122.081H148.162C148.323 122.081 148.453 122.197 148.453 122.339C148.453 122.481 148.323 122.596 148.162 122.596Z" fill="#F1C40F"/>
<path d="M150.527 122.699H144.418L143.839 123.211L144.474 123.772L144.787 123.491H150.527V122.699Z" fill="#C0392B"/>
<path d="M151.094 123.491H149.489V122.699H150.721L151.591 121.933L152.222 122.494L151.094 123.491Z" fill="#C0392B"/>
<path d="M152.719 120.932H160.721V121.724H153.092L152.222 122.494L151.591 121.932L152.719 120.932Z" fill="#C0392B"/>
<path d="M149.489 122.699H145.866V123.491H149.489V122.699Z" fill="#E74C3C"/>
<path d="M150.048 130.74H145.309C144.484 130.74 143.816 131.332 143.816 132.061V133.188C143.816 133.917 144.484 134.509 145.309 134.509H150.048C150.873 134.509 151.542 133.917 151.542 133.188V132.061C151.542 131.332 150.873 130.74 150.048 130.74Z" fill="#F1C40F"/>
<path d="M150.049 131.071H145.31C144.691 131.071 144.19 131.514 144.19 132.061V133.188C144.19 133.735 144.691 134.178 145.31 134.178H150.049C150.667 134.178 151.169 133.735 151.169 133.188V132.061C151.169 131.514 150.667 131.071 150.049 131.071Z" fill="#2980B9"/>
<path d="M192.155 28.7034H184.851V46.4747H192.155V28.7034Z" fill="#E3E7E8"/>
<path d="M192.155 32.4518V45.3584C191.057 45.8505 189.817 46.1213 188.503 46.1213C187.188 46.1213 185.949 45.8472 184.851 45.3584V32.4518C185.949 31.9597 187.188 31.6889 188.503 31.6889C189.817 31.6889 191.057 31.963 192.155 32.4518Z" fill="#BDC3C7"/>
<path d="M188.507 28.7034H184.851V46.4747H188.507V28.7034Z" fill="#BDC3C7"/>
<path d="M192.771 27.359H184.239V29.3835H192.771V27.359Z" fill="#3B536B"/>
<path d="M187.629 27.359H184.239V29.3835H187.629V27.359Z" fill="#2C3E50"/>
<path d="M192.976 26.7183H184.032V27.359H192.976V26.7183Z" fill="#2C3E50"/>
<path d="M187.587 26.7183H184.032V27.359H187.587V26.7183Z" fill="#1C2833"/>
<path d="M192.771 46.4745H184.239V48.499H192.771V46.4745Z" fill="#3B536B"/>
<path d="M187.958 46.4745H184.239V48.499H187.958V46.4745Z" fill="#2C3E50"/>
<path d="M193.171 48.4792H183.865V48.902H193.171V48.4792Z" fill="#F1C40F"/>
<path d="M188.502 44.8068C193.008 44.8068 196.661 41.576 196.661 37.5906C196.661 33.6052 193.008 30.3744 188.502 30.3744C183.996 30.3744 180.343 33.6052 180.343 37.5906C180.343 41.576 183.996 44.8068 188.502 44.8068Z" fill="#F1C40F"/>
<path d="M188.503 44.3973C192.753 44.3973 196.199 41.3499 196.199 37.5907C196.199 33.8314 192.753 30.784 188.503 30.784C184.252 30.784 180.807 33.8314 180.807 37.5907C180.807 41.3499 184.252 44.3973 188.503 44.3973Z" fill="#C0392B"/>
<path d="M195.092 37.5906C195.092 38.7068 194.737 39.7472 194.125 40.6356C192.967 42.3067 190.88 43.4197 188.501 43.4197C187.725 43.4197 186.981 43.3008 186.291 43.0828C184.7 42.5808 183.389 41.5537 182.627 40.236C182.168 39.44 181.91 38.5417 181.91 37.5873C181.91 36.3818 182.325 35.2655 183.031 34.3375C184.214 32.782 186.223 31.7582 188.501 31.7582C192.142 31.7582 195.092 34.3672 195.092 37.5873V37.5906Z" fill="#F1E8C6"/>
<path d="M183.423 41.0286C182.963 40.2327 182.706 39.3343 182.706 38.3799C182.706 37.1744 183.116 36.0582 183.826 35.1301C185.01 33.5746 187.019 32.5508 189.296 32.5508C191.04 32.5508 192.627 33.1519 193.804 34.1294C192.605 32.6928 190.674 31.7582 188.497 31.7582C186.32 31.7582 184.21 32.782 183.027 34.3375C182.321 35.2655 181.906 36.3851 181.906 37.5873C181.906 38.5417 182.164 39.44 182.623 40.2326C182.971 40.837 183.441 41.3753 183.994 41.8344C183.781 41.5801 183.587 41.3093 183.423 41.0253V41.0286Z" fill="#C7BFA3"/>
<path d="M188.696 43.1092L188.67 42.3662L188.8 42.3595L188.845 43.1026C188.797 43.1026 188.744 43.1059 188.696 43.1092ZM187.501 43.0399C187.452 43.0333 187.4 43.0267 187.351 43.0168L187.508 42.2836C187.549 42.2902 187.594 42.2968 187.635 42.3034L187.501 43.0399ZM190.033 42.9441L189.827 42.2208C189.868 42.2109 189.913 42.201 189.954 42.1911L190.178 42.9078C190.13 42.921 190.081 42.9309 190.033 42.9408V42.9441ZM186.198 42.7228C186.149 42.7063 186.104 42.6898 186.059 42.6733L186.388 41.9897C186.429 42.0062 186.466 42.0194 186.508 42.0326L186.198 42.7261V42.7228ZM191.299 42.528L190.921 41.8642C190.959 41.8476 191 41.8278 191.037 41.8113L191.433 42.4685C191.388 42.4883 191.343 42.5082 191.299 42.528ZM185.006 42.1647C184.965 42.1383 184.924 42.1152 184.883 42.0887L185.372 41.4811C185.406 41.5042 185.443 41.524 185.481 41.5471L185.01 42.1647H185.006ZM192.43 41.8807L191.9 41.3027C191.933 41.2796 191.967 41.2532 191.997 41.2301L192.542 41.7948C192.505 41.8245 192.464 41.8509 192.426 41.8807H192.43ZM183.976 41.3919C183.942 41.3589 183.909 41.3258 183.875 41.2928L184.499 40.7941C184.528 40.8238 184.558 40.8503 184.588 40.8767L183.979 41.3886L183.976 41.3919ZM193.382 41.0352L192.725 40.5695C192.751 40.5398 192.777 40.5101 192.803 40.4804L193.472 40.9295C193.442 40.9658 193.412 40.9989 193.378 41.0352H193.382ZM183.158 40.444C183.132 40.4077 183.106 40.3681 183.083 40.3284L183.815 39.9586C183.838 39.9916 183.86 40.0246 183.882 40.0576L183.162 40.444H183.158ZM194.107 40.0279L193.352 39.701C193.371 39.6679 193.39 39.6316 193.408 39.5953L194.17 39.909C194.148 39.9486 194.129 39.9883 194.107 40.0279ZM182.59 39.3641C182.575 39.3212 182.561 39.2815 182.546 39.2386L183.348 39.014L183.389 39.1263L182.59 39.3641ZM194.57 38.9083L193.752 38.73C193.763 38.6937 193.771 38.654 193.782 38.6177L194.603 38.7762C194.592 38.8192 194.581 38.8621 194.57 38.905V38.9083ZM182.299 38.2016C182.295 38.1586 182.288 38.1124 182.284 38.0695L183.124 38.0067C183.124 38.0464 183.132 38.0827 183.136 38.1223L182.299 38.2049V38.2016ZM194.745 37.726L193.905 37.7095C193.905 37.6699 193.905 37.6335 193.905 37.5939L194.745 37.5741V37.5939C194.745 37.6368 194.745 37.6831 194.745 37.726ZM183.132 37.0853L182.295 37.006C182.299 36.9631 182.307 36.9169 182.314 36.8739L183.151 36.9697C183.147 37.0093 183.139 37.0457 183.136 37.0853H183.132ZM193.8 36.6593C193.793 36.6229 193.782 36.5833 193.774 36.547L194.596 36.3851C194.607 36.4281 194.618 36.471 194.626 36.5139L193.8 36.6593ZM183.378 36.078L182.579 35.8402C182.594 35.7973 182.613 35.7576 182.628 35.7147L183.419 35.969C183.404 36.0053 183.389 36.0417 183.378 36.078ZM193.453 35.6751C193.434 35.6388 193.42 35.6057 193.401 35.5727L194.163 35.2557C194.185 35.2953 194.204 35.3349 194.226 35.3779L193.457 35.6784L193.453 35.6751ZM183.867 35.1401L183.147 34.757C183.173 34.7206 183.199 34.681 183.225 34.6447L183.938 35.041C183.916 35.074 183.894 35.107 183.871 35.1401H183.867ZM192.871 34.7801C192.844 34.7504 192.818 34.7173 192.792 34.6876L193.461 34.2352C193.49 34.2715 193.52 34.3045 193.55 34.3408L192.871 34.7801ZM184.573 34.3144L183.961 33.8025C183.994 33.7695 184.028 33.7398 184.065 33.7067L184.663 34.2285C184.633 34.255 184.603 34.2847 184.573 34.3111V34.3144ZM192.086 34.0139C192.053 33.9875 192.023 33.9643 191.989 33.9379L192.531 33.3699C192.568 33.3996 192.605 33.426 192.647 33.4557L192.086 34.0139ZM185.462 33.6407L184.988 33.0264C185.029 33 185.07 32.9769 185.115 32.9537L185.57 33.5779C185.533 33.5977 185.499 33.6209 185.462 33.6407ZM191.134 33.4161C191.097 33.3963 191.06 33.3798 191.018 33.36L191.411 32.7027C191.455 32.7226 191.5 32.7457 191.545 32.7655L191.134 33.4161ZM186.493 33.1552L186.179 32.465C186.224 32.4484 186.272 32.4319 186.317 32.4154L186.612 33.1123C186.571 33.1255 186.53 33.1387 186.489 33.1552H186.493ZM190.059 33.0132C190.018 33.0033 189.977 32.9901 189.936 32.9802L190.16 32.2635C190.208 32.2767 190.257 32.2866 190.305 32.2998L190.062 33.0132H190.059ZM187.617 32.8778L187.478 32.1446C187.527 32.138 187.579 32.1314 187.628 32.1248L187.744 32.8613C187.702 32.8679 187.658 32.8712 187.617 32.8778ZM188.912 32.8282C188.871 32.8282 188.826 32.8216 188.785 32.8216L188.826 32.0786C188.879 32.0786 188.927 32.0852 188.976 32.0885L188.912 32.8315V32.8282Z" fill="#34495E"/>
<path d="M193.42 38.0297C193.42 38.393 188.954 38.6869 188.543 38.6869C188.132 38.6869 187.8 38.393 187.8 38.0297C187.8 37.6664 188.132 37.3725 188.543 37.3725C188.954 37.3725 193.42 37.6664 193.42 38.0297Z" fill="#C7BFA3"/>
<path d="M193.378 37.5905C193.378 37.9538 188.912 38.2477 188.501 38.2477C188.091 38.2477 187.758 37.9538 187.758 37.5905C187.758 37.2272 188.091 36.9333 188.501 36.9333C188.912 36.9333 193.378 37.2272 193.378 37.5905Z" fill="#2C3E50"/>
<path d="M187.762 37.5906C187.762 37.2273 188.095 36.9334 188.506 36.9334C188.916 36.9334 193.382 37.2273 193.382 37.5906H187.766H187.762Z" fill="#34495E"/>
<path d="M192.207 37.6569L189.746 37.8022C189.481 37.8121 189.249 37.7163 189.249 37.5875C189.249 37.4587 189.484 37.3629 189.746 37.3728L192.207 37.5181C192.233 37.5181 192.251 37.5479 192.251 37.5842C192.251 37.6205 192.233 37.6503 192.207 37.6503V37.6569Z" fill="#F1C40F"/>
<path d="M188.501 38.2281C188.899 38.2281 189.222 37.9427 189.222 37.5906C189.222 37.2386 188.899 36.9532 188.501 36.9532C188.103 36.9532 187.78 37.2386 187.78 37.5906C187.78 37.9427 188.103 38.2281 188.501 38.2281Z" fill="#507191"/>
<path d="M188.756 37.5903C188.756 37.7156 188.644 37.8146 188.502 37.8146C188.36 37.8146 188.248 37.7156 188.248 37.5903C188.248 37.4649 188.36 37.3659 188.502 37.3659C188.644 37.3659 188.756 37.4649 188.756 37.5903Z" fill="#2C3E50"/>
<path d="M189.107 40.6025L189.1 40.586C189.085 40.5463 189.063 40.5067 189.037 40.4704L188.503 39.4829L187.969 40.4671C187.942 40.5034 187.92 40.543 187.905 40.5827L187.898 40.5992C187.879 40.652 187.864 40.7115 187.864 40.7709C187.864 41.0814 188.148 41.3357 188.503 41.3357C188.857 41.3357 189.141 41.0847 189.141 40.7709C189.141 40.7115 189.126 40.652 189.107 40.5992V40.6025Z" fill="#2C3E50"/>
<path d="M248.583 137.372H248.587L248.572 137.342C248.542 137.269 248.508 137.2 248.46 137.137L247.519 135.403L246.578 137.137C246.533 137.2 246.496 137.269 246.466 137.342L246.451 137.368H246.455C246.421 137.464 246.395 137.563 246.395 137.669C246.395 138.217 246.895 138.66 247.515 138.66C248.135 138.66 248.635 138.217 248.635 137.669C248.635 137.563 248.613 137.464 248.576 137.368L248.583 137.372Z" fill="#2980B9"/>
<path d="M248.583 137.372H248.587L248.572 137.342C248.542 137.269 248.508 137.2 248.46 137.137L247.519 135.403L247.5 135.436V138.66C247.5 138.66 247.511 138.66 247.519 138.66C248.139 138.66 248.639 138.217 248.639 137.669C248.639 137.563 248.617 137.464 248.579 137.368L248.583 137.372Z" fill="#186AA1"/>
<path d="M247.395 137.47C247.395 137.658 247.223 137.814 247.007 137.814C246.79 137.814 246.619 137.662 246.619 137.47C246.619 137.279 246.79 137.127 247.007 137.127C247.223 137.127 247.395 137.279 247.395 137.47Z" fill="#ECF0F1"/>
<path d="M240.637 122.256H238.651V125.423H240.637V122.256Z" fill="#202E3B"/>
<path d="M241.108 123.656H238.177V125.419H241.108V123.656Z" fill="#34495E"/>
<path d="M241.948 125.344H237.34V127.573H241.948V125.344Z" fill="#E3E7E8"/>
<path d="M239.644 125.344H237.34V127.573H239.644V125.344Z" fill="#BDC3C7"/>
<path d="M249.827 131.982V134.971H245.216V132.355C245.216 131.843 244.749 131.43 244.17 131.43H234.405V127.355H244.596C247.482 127.355 249.824 129.426 249.824 131.978L249.827 131.982Z" fill="#E3E7E8"/>
<path d="M247.307 132.355V134.971H245.216V132.355C245.216 131.843 244.749 131.43 244.17 131.43H234.405V129.581H244.17C245.903 129.581 247.307 130.826 247.307 132.355Z" fill="#BDC3C7"/>
<path d="M245.286 134.016H249.752C250.051 134.016 250.29 134.231 250.29 134.492C250.29 134.756 250.047 134.971 249.752 134.971H245.286C244.988 134.971 244.749 134.756 244.749 134.495C244.749 134.231 244.991 134.016 245.286 134.016Z" fill="#F39C12"/>
<path d="M245.832 134.016H249.208C249.432 134.016 249.615 134.122 249.615 134.254C249.615 134.386 249.432 134.492 249.208 134.492H245.832C245.608 134.492 245.425 134.386 245.425 134.254C245.425 134.122 245.608 134.016 245.832 134.016Z" fill="#F1C40F"/>
<path d="M241.667 125.265H237.619V125.423H241.667V125.265Z" fill="#597DA1"/>
<path d="M241.322 123.513L237.953 123.784L237.981 124.061L241.35 123.789L241.322 123.513Z" fill="#597DA1"/>
<path d="M241.322 124.063L237.953 124.334L237.981 124.61L241.35 124.339L241.322 124.063Z" fill="#597DA1"/>
<path d="M241.318 124.612L237.949 124.883L237.977 125.159L241.346 124.888L241.318 124.612Z" fill="#597DA1"/>
<path d="M239.983 122.256H239.307C239.195 122.256 239.105 122.176 239.105 122.077C239.105 121.978 239.195 121.899 239.307 121.899H239.983C240.095 121.899 240.184 121.978 240.184 122.077C240.184 122.176 240.095 122.256 239.983 122.256Z" fill="#F1C40F"/>
<path d="M246.84 123.418L246.235 122.883H236.974L236.75 123.078L236.309 122.685L236.713 122.328H246.492L247.284 123.028L246.84 123.418Z" fill="#C0392B"/>
<path d="M240.909 122.328H238.373V122.883H240.909V122.328Z" fill="#E74C3C"/>
<path d="M239.643 132.329C241.476 132.329 242.963 131.014 242.963 129.393C242.963 127.771 241.476 126.457 239.643 126.457C237.81 126.457 236.323 127.771 236.323 129.393C236.323 131.014 237.81 132.329 239.643 132.329Z" fill="#ECF0F1"/>
<path d="M239.644 131.43C240.916 131.43 241.948 130.518 241.948 129.393C241.948 128.267 240.916 127.355 239.644 127.355C238.371 127.355 237.34 128.267 237.34 129.393C237.34 130.518 238.371 131.43 239.644 131.43Z" fill="#2980B9"/>
<path d="M234.405 126.816H234.057V131.988H234.405V126.816Z" fill="#34495E"/>
<path d="M150.582 97.4466H141.87V99.514H150.582V97.4466Z" fill="#3B536B"/>
<path d="M145.332 97.4466H141.87V99.514H145.332V97.4466Z" fill="#2C3E50"/>
<path d="M150.019 99.5141H142.439V100.168H150.019V99.5141Z" fill="#2C3E50"/>
<path d="M145.452 99.5141H142.439V100.168H145.452V99.5141Z" fill="#1C2833"/>
<path d="M150.582 80.9799H141.87V83.0473H150.582V80.9799Z" fill="#3B536B"/>
<path d="M145.672 80.9799H141.87V83.0473H145.672V80.9799Z" fill="#2C3E50"/>
<path d="M150.582 80.567H141.9V80.9996H150.582V80.567Z" fill="#F1C40F"/>
<path d="M151.757 91.6432C152.448 88.9502 150.54 86.2715 147.495 85.6602C144.45 85.0489 141.421 86.7364 140.73 89.4293C140.039 92.1223 141.947 94.801 144.992 95.4123C148.037 96.0237 151.066 94.3362 151.757 91.6432Z" fill="#E3E7E8"/>
<path d="M146.244 94.3785C148.643 94.3785 150.587 92.6589 150.587 90.5376C150.587 88.4163 148.643 86.6967 146.244 86.6967C143.846 86.6967 141.901 88.4163 141.901 90.5376C141.901 92.6589 143.846 94.3785 146.244 94.3785Z" fill="#34495E"/>
<path d="M144.258 93.5795L142.275 90.5378L144.258 87.4961H148.227L150.214 90.5378L148.227 93.5795H144.258Z" fill="#F39C12"/>
<path d="M146.229 93.5198C148.092 93.5198 149.601 92.1846 149.601 90.5376C149.601 88.8905 148.092 87.5553 146.229 87.5553C144.367 87.5553 142.857 88.8905 142.857 90.5376C142.857 92.1846 144.367 93.5198 146.229 93.5198Z" fill="#F1C40F"/>
<path d="M160.998 88.9884H142.241C141.777 88.9884 141.401 89.3211 141.401 89.7315V91.3432C141.401 91.7536 141.777 92.0863 142.241 92.0863H160.998C161.462 92.0863 161.838 91.7536 161.838 91.3432V89.7315C161.838 89.3211 161.462 88.9884 160.998 88.9884Z" fill="#C0392B"/>
<path d="M160.998 88.9887H150.736V92.0865H160.998C161.461 92.0865 161.838 91.7529 161.838 91.3434V89.7284C161.838 89.3189 161.461 88.9854 160.998 88.9854V88.9887Z" fill="#8F2A20"/>
<path d="M160.998 88.9887H155.176V92.0865H160.998C161.461 92.0865 161.838 91.7529 161.838 91.3434V89.7284C161.838 89.3189 161.461 88.9854 160.998 88.9854V88.9887Z" fill="#E74C3C"/>
<path d="M148.616 90.5375C148.616 91.7033 147.548 92.6511 146.226 92.6511C144.904 92.6511 143.836 91.7066 143.836 90.5375C143.836 89.3683 144.904 88.4238 146.226 88.4238C147.548 88.4238 148.616 89.3683 148.616 90.5375Z" fill="#C0392B"/>
<path d="M146.23 91.9346C147.102 91.9346 147.809 91.3091 147.809 90.5376C147.809 89.7661 147.102 89.1406 146.23 89.1406C145.357 89.1406 144.65 89.7661 144.65 90.5376C144.65 91.3091 145.357 91.9346 146.23 91.9346Z" fill="#34495E"/>
<path d="M146.23 91.5351C146.853 91.5351 147.358 91.0885 147.358 90.5377C147.358 89.9869 146.853 89.5403 146.23 89.5403C145.607 89.5403 145.102 89.9869 145.102 90.5377C145.102 91.0885 145.607 91.5351 146.23 91.5351Z" fill="#ECF0F1"/>
<path d="M258.092 70.554H254.324C252.886 68.5328 250.351 67.182 247.449 67.182C244.548 67.182 242.012 68.5295 240.575 70.554H236.807V78.1764H240.575C242.012 80.1976 244.548 81.5483 247.449 81.5483C250.351 81.5483 252.886 80.2009 254.324 78.1764H258.092V70.554Z" fill="#E3E7E8"/>
<path d="M249.196 64.2162H245.7V67.1853H249.196V64.2162Z" fill="#202E3B"/>
<path d="M249.361 64.6456H245.537V67.182H249.361V64.6456Z" fill="#34495E"/>
<path d="M250.092 66.7393H244.808V67.1819H250.092V66.7393Z" fill="#F1C40F"/>
<path d="M251.619 67.182H243.281V68.2224H251.619V67.182Z" fill="#E3E7E8"/>
<path d="M249.633 64.4652L245.237 64.819L245.274 65.1775L249.67 64.8237L249.633 64.4652Z" fill="#597DA1"/>
<path d="M249.631 65.1756L245.235 65.5294L245.272 65.8879L249.668 65.5341L249.631 65.1756Z" fill="#597DA1"/>
<path d="M249.629 65.8893L245.233 66.2431L245.27 66.6016L249.666 66.2478L249.629 65.8893Z" fill="#597DA1"/>
<path d="M236.806 70.2434H234.827V78.5065H236.806V70.2434Z" fill="#3B536B"/>
<path d="M236.806 74.9035H234.827V78.5066H236.806V74.9035Z" fill="#2C3E50"/>
<path d="M234.845 70.9534H234.431V77.7634H234.845V70.9534Z" fill="#F1C40F"/>
<path d="M260.071 70.2434H258.092V78.5065H260.071V70.2434Z" fill="#3B536B"/>
<path d="M260.071 74.9035H258.092V78.5066H260.071V74.9035Z" fill="#2C3E50"/>
<path d="M260.462 70.9534H260.047V77.7634H260.462V70.9534Z" fill="#F1C40F"/>
<path d="M252.111 62.7662C252.673 60.4888 251.042 58.2395 248.467 57.7421C245.892 57.2447 243.348 58.6877 242.786 60.965C242.224 63.2424 243.855 65.4918 246.43 65.9891C249.005 66.4865 251.549 65.0436 252.111 62.7662Z" fill="#2980B9"/>
<path d="M251.496 61.8582C251.496 62.5451 251.279 63.1825 250.902 63.7274C250.189 64.7546 248.908 65.4382 247.448 65.4382C246.97 65.4382 246.514 65.3655 246.089 65.2301C245.11 64.923 244.304 64.2922 243.837 63.4797C243.557 62.991 243.396 62.4394 243.396 61.8549C243.396 61.1151 243.65 60.4281 244.083 59.8568C244.811 58.9023 246.044 58.2715 247.444 58.2715C249.681 58.2715 251.496 59.8766 251.496 61.8549V61.8582Z" fill="#F1C40F"/>
<path d="M251.406 61.8582C251.406 62.5287 251.193 63.1528 250.823 63.6879C250.129 64.6919 248.874 65.3623 247.448 65.3623C246.981 65.3623 246.533 65.2896 246.118 65.1608C245.162 64.8603 244.375 64.2427 243.919 63.4501C243.643 62.9745 243.49 62.4329 243.49 61.8615C243.49 61.1383 243.736 60.4678 244.162 59.9097C244.871 58.9751 246.081 58.3608 247.448 58.3608C249.636 58.3608 251.406 59.9295 251.406 61.8615V61.8582Z" fill="#FFE066"/>
<path d="M251.265 61.8582C251.265 62.5055 251.059 63.1098 250.705 63.6217C250.032 64.5894 248.826 65.2367 247.448 65.2367C247 65.2367 246.567 65.1674 246.168 65.0419C245.245 64.7512 244.487 64.1568 244.047 63.3939C243.781 62.9348 243.632 62.413 243.632 61.8615C243.632 61.1646 243.871 60.5173 244.282 59.979C244.969 59.0774 246.13 58.4862 247.452 58.4862C249.562 58.4862 251.272 59.9988 251.272 61.8648L251.265 61.8582Z" fill="#DEF0FF"/>
<path d="M244.02 62.4559C244.02 61.7591 244.259 61.1118 244.67 60.5735C245.357 59.6718 246.518 59.0807 247.84 59.0807C249.162 59.0807 250.23 59.6256 250.925 60.4645C250.324 59.2953 248.994 58.4829 247.448 58.4829C246.126 58.4829 244.965 59.0741 244.278 59.9757C243.867 60.514 243.628 61.1613 243.628 61.8582C243.628 62.4097 243.778 62.9315 244.043 63.3906C244.132 63.5458 244.241 63.6944 244.356 63.8364C244.143 63.4137 244.02 62.9447 244.02 62.4526V62.4559Z" fill="#ADBCC7"/>
<path d="M247.157 65.0091C247.067 65.0025 247 64.9331 247.007 64.8538C247.015 64.7746 247.093 64.7151 247.183 64.7217C247.272 64.7283 247.34 64.7977 247.332 64.877C247.325 64.9529 247.254 65.0091 247.168 65.0091H247.157ZM248.127 64.8175C248.105 64.7415 248.157 64.6623 248.247 64.6425C248.333 64.6227 248.422 64.6689 248.445 64.7448C248.467 64.8241 248.415 64.9001 248.329 64.9199C248.329 64.9199 248.303 64.9232 248.288 64.9232C248.217 64.9232 248.15 64.8803 248.131 64.8142L248.127 64.8175ZM246.014 64.7548C245.932 64.7217 245.894 64.6392 245.928 64.5665C245.965 64.4939 246.059 64.4608 246.141 64.4906C246.223 64.5236 246.26 64.6061 246.223 64.6788C246.197 64.7316 246.137 64.7647 246.074 64.7647C246.051 64.7647 246.029 64.7614 246.01 64.7515L246.014 64.7548ZM249.173 64.4641C249.124 64.3981 249.147 64.3089 249.222 64.266C249.296 64.223 249.397 64.2429 249.449 64.3089C249.498 64.375 249.476 64.4641 249.401 64.5071C249.375 64.5236 249.341 64.5302 249.311 64.5302C249.259 64.5302 249.207 64.5071 249.173 64.4641ZM245.028 64.1867C244.965 64.1339 244.957 64.0414 245.017 63.9853C245.08 63.9258 245.181 63.9225 245.248 63.9753C245.312 64.0282 245.319 64.1207 245.26 64.1768C245.226 64.2098 245.185 64.223 245.14 64.223C245.103 64.223 245.062 64.2098 245.028 64.1834V64.1867ZM250.036 63.8234C249.965 63.7739 249.953 63.6847 250.006 63.622C250.062 63.5592 250.163 63.5493 250.234 63.5989C250.305 63.6484 250.316 63.7376 250.26 63.8003C250.226 63.8366 250.181 63.8565 250.133 63.8565C250.099 63.8565 250.062 63.8465 250.032 63.8267L250.036 63.8234ZM244.304 63.3677C244.263 63.2983 244.292 63.2124 244.367 63.1728C244.446 63.1365 244.543 63.1629 244.587 63.2323C244.629 63.3016 244.599 63.3875 244.524 63.4271C244.498 63.437 244.472 63.4436 244.446 63.4436C244.39 63.4436 244.334 63.4172 244.304 63.3677ZM250.614 62.9747C250.529 62.9482 250.484 62.8657 250.514 62.793C250.543 62.7171 250.637 62.6774 250.719 62.7038C250.805 62.7303 250.85 62.8128 250.82 62.8855C250.794 62.9449 250.73 62.9846 250.667 62.9846C250.667 62.9846 250.629 62.9846 250.614 62.9747ZM243.919 62.3868C243.904 62.3075 243.964 62.2349 244.053 62.2217C244.143 62.2085 244.225 62.2613 244.24 62.3406C244.255 62.4198 244.195 62.4925 244.106 62.5057C244.106 62.5057 244.087 62.5057 244.08 62.5057C244.001 62.5057 243.934 62.4561 243.919 62.3868ZM250.689 61.8617V61.8551V61.8485C250.689 61.7692 250.76 61.7032 250.85 61.7032C250.939 61.7032 251.014 61.7692 251.014 61.8485V61.8551V61.8617C251.014 61.9409 250.939 62.007 250.85 62.007C250.76 62.007 250.685 61.9409 250.685 61.8617H250.689ZM244.053 61.5149C243.964 61.5017 243.904 61.4257 243.919 61.3498C243.934 61.2705 244.016 61.2177 244.106 61.2309C244.195 61.2441 244.255 61.3201 244.24 61.396C244.229 61.4654 244.158 61.5182 244.08 61.5182C244.08 61.5182 244.061 61.5182 244.053 61.5182V61.5149ZM250.51 60.9204C250.48 60.8445 250.525 60.7652 250.611 60.7388C250.697 60.7124 250.79 60.752 250.82 60.828C250.85 60.9039 250.805 60.9832 250.719 61.0096C250.719 61.0096 250.682 61.0162 250.667 61.0162C250.6 61.0162 250.536 60.9799 250.514 60.9204H250.51ZM244.363 60.5605C244.285 60.5241 244.255 60.435 244.296 60.3656C244.337 60.2962 244.438 60.2698 244.517 60.3095C244.595 60.3458 244.625 60.435 244.58 60.5043C244.55 60.5539 244.494 60.5803 244.438 60.5803C244.412 60.5803 244.386 60.5737 244.363 60.5638V60.5605ZM249.998 60.0915C249.942 60.0287 249.953 59.9363 250.024 59.89C250.095 59.8405 250.2 59.8537 250.252 59.9131C250.308 59.9759 250.293 60.0684 250.226 60.1146C250.196 60.1344 250.163 60.1443 250.125 60.1443C250.077 60.1443 250.028 60.1245 249.998 60.0882V60.0915ZM245.009 59.748C244.946 59.6886 244.95 59.5994 245.017 59.5433C245.084 59.4904 245.185 59.4937 245.245 59.5532C245.308 59.6093 245.301 59.7018 245.237 59.7546C245.207 59.781 245.166 59.7943 245.125 59.7943C245.08 59.7943 245.036 59.7777 245.006 59.748H245.009ZM249.207 59.4541C249.132 59.4112 249.11 59.322 249.158 59.2559C249.207 59.1899 249.307 59.1701 249.386 59.213C249.461 59.2559 249.483 59.3451 249.434 59.4112C249.405 59.4541 249.352 59.4772 249.296 59.4772C249.266 59.4772 249.233 59.4706 249.207 59.4541ZM245.913 59.1635C245.876 59.0908 245.913 59.0049 245.995 58.9752C246.077 58.9422 246.171 58.9752 246.208 59.0479C246.245 59.1205 246.208 59.2064 246.126 59.2361C246.104 59.246 246.081 59.246 246.059 59.246C245.995 59.246 245.935 59.213 245.909 59.1602L245.913 59.1635ZM248.225 59.0776C248.139 59.0578 248.086 58.9785 248.105 58.9026C248.127 58.8266 248.217 58.7804 248.303 58.7969C248.393 58.8167 248.445 58.8959 248.422 58.9719C248.404 59.038 248.337 59.0809 248.266 59.0809C248.266 59.0809 248.239 59.0809 248.228 59.0776H248.225ZM246.985 58.8728C246.977 58.7936 247.045 58.7242 247.134 58.7176C247.224 58.711 247.302 58.7704 247.31 58.8497C247.317 58.929 247.25 58.9983 247.16 59.0049H247.149C247.063 59.0049 246.992 58.9488 246.985 58.8728Z" fill="#2C3E50"/>
<path d="M249.986 61.8583H248.866C248.866 61.5214 248.717 61.2077 248.448 60.9699L249.239 60.2697C249.721 60.6957 249.983 61.2605 249.983 61.8583H249.986Z" fill="#C0392B"/>
<path d="M248.453 60.97C248.184 60.7322 247.825 60.6001 247.448 60.6001V59.6093C248.128 59.6093 248.766 59.8438 249.248 60.2698L248.456 60.97H248.453Z" fill="#E67E22"/>
<path d="M246.44 60.97L245.648 60.2698C246.13 59.8438 246.768 59.6093 247.444 59.6093V60.6001C247.063 60.6001 246.709 60.7322 246.44 60.97Z" fill="#F1C40F"/>
<path d="M246.025 61.8581H244.905C244.905 61.257 245.17 60.6922 245.648 60.2662L246.439 60.9664C246.17 61.2041 246.021 61.5179 246.021 61.8548L246.025 61.8581Z" fill="#27AE60"/>
<path d="M244.593 60.9966L244.56 61.0879C244.547 61.1244 244.57 61.1634 244.611 61.1749L247.225 61.9063C247.266 61.9179 247.31 61.8976 247.323 61.8611L247.356 61.7698C247.369 61.7333 247.346 61.6943 247.305 61.6827L244.691 60.9514C244.65 60.9398 244.606 60.9601 244.593 60.9966Z" fill="#233140"/>
<path d="M247.712 61.9503C247.652 62.0823 247.485 62.1483 247.335 62.0955C247.186 62.0427 247.112 61.8943 247.171 61.7623C247.231 61.6303 247.399 61.5643 247.548 61.6171C247.697 61.6699 247.772 61.8184 247.712 61.9503Z" fill="#34495E"/>
<path d="M247.619 61.9173C247.582 62.0031 247.47 62.0493 247.369 62.013C247.272 61.98 247.22 61.881 247.261 61.7919C247.302 61.7029 247.41 61.66 247.511 61.6963C247.608 61.7292 247.66 61.8282 247.619 61.9173Z" fill="#56799C"/>
<path d="M247.444 78.1333C249.797 78.1333 251.704 76.4462 251.704 74.3651C251.704 72.2839 249.797 70.5968 247.444 70.5968C245.09 70.5968 243.183 72.2839 243.183 74.3651C243.183 76.4462 245.09 78.1333 247.444 78.1333Z" fill="#34495E"/>
<path d="M245.498 77.3507L243.549 74.3651L245.498 71.3796H249.393L251.342 74.3651L249.393 77.3507H245.498Z" fill="#F39C12"/>
<path d="M247.433 77.291C249.261 77.291 250.742 75.9809 250.742 74.3649C250.742 72.7488 249.261 71.4388 247.433 71.4388C245.606 71.4388 244.125 72.7488 244.125 74.3649C244.125 75.9809 245.606 77.291 247.433 77.291Z" fill="#F1C40F"/>
<path d="M247.434 76.4389C248.729 76.4389 249.779 75.5104 249.779 74.3649C249.779 73.2194 248.729 72.2909 247.434 72.2909C246.139 72.2909 245.089 73.2194 245.089 74.3649C245.089 75.5104 246.139 76.4389 247.434 76.4389Z" fill="#C0392B"/>
<path d="M247.445 68.1462C243.562 68.1462 240.414 70.9303 240.414 74.365C240.414 77.7997 243.562 80.5838 247.445 80.5838C251.329 80.5838 254.477 77.7997 254.477 74.365C254.477 70.9303 251.329 68.1462 247.445 68.1462ZM247.445 79.0646C244.51 79.0646 242.131 76.9608 242.131 74.365C242.131 71.7692 244.51 69.6654 247.445 69.6654C250.38 69.6654 252.759 71.7692 252.759 74.365C252.759 76.9608 250.38 79.0646 247.445 79.0646Z" fill="#E74C3C"/>
<path d="M249.832 74.365C249.832 75.5308 248.764 76.4753 247.446 76.4753C246.128 76.4753 245.06 75.5308 245.06 74.365C245.06 73.1992 246.128 72.2546 247.446 72.2546C248.764 72.2546 249.832 73.1992 249.832 74.365Z" fill="#E74C3C"/>
<path d="M253.659 74.791C252.087 75.2435 250.395 75.2435 248.823 74.791V73.9357C250.395 73.4832 252.087 73.4832 253.659 73.9357V74.791Z" fill="#E74C3C"/>
<path d="M247.93 68.8696C248.441 70.26 248.441 71.756 247.93 73.1464H246.963C246.451 71.756 246.451 70.26 246.963 68.8696H247.93Z" fill="#E74C3C"/>
<path d="M241.236 73.9389C242.808 73.4865 244.499 73.4865 246.071 73.9389V74.7943C244.499 75.2467 242.808 75.2467 241.236 74.7943V73.9389Z" fill="#E74C3C"/>
<path d="M246.963 79.8606C246.451 78.4702 246.451 76.9741 246.963 75.5837H247.93C248.441 76.9741 248.441 78.4702 247.93 79.8606H246.963Z" fill="#E74C3C"/>
<path d="M240.417 74.3123C240.417 74.3288 240.417 74.3486 240.417 74.3651C240.417 77.7998 243.565 80.5839 247.449 80.5839C251.332 80.5839 254.48 77.7998 254.48 74.3651C254.48 74.3486 254.48 74.3288 254.48 74.3123H240.421H240.417ZM246.724 79.0152C244.368 78.7312 242.508 77.0865 242.187 75.0025C243.173 75.1677 244.185 75.1644 245.167 74.9926C245.399 75.6531 245.989 76.1717 246.732 76.3764C246.538 77.2483 246.534 78.14 246.721 79.0119L246.724 79.0152ZM248.169 79.0152C248.356 78.1433 248.352 77.2483 248.158 76.3797C248.905 76.175 249.491 75.6531 249.723 74.9959C250.709 75.1677 251.717 75.171 252.703 75.0058C252.382 77.0898 250.522 78.7345 248.166 79.0185L248.169 79.0152Z" fill="#C0392B"/>
<path d="M247.434 75.739C248.292 75.739 248.987 75.1239 248.987 74.3651C248.987 73.6063 248.292 72.9912 247.434 72.9912C246.576 72.9912 245.88 73.6063 245.88 74.3651C245.88 75.1239 246.576 75.739 247.434 75.739Z" fill="#34495E"/>
<path d="M248.539 74.3652C248.539 74.9068 248.043 75.3428 247.434 75.3428C246.825 75.3428 246.329 74.9035 246.329 74.3652C246.329 73.8269 246.825 73.3876 247.434 73.3876C248.043 73.3876 248.539 73.8269 248.539 74.3652Z" fill="#ECF0F1"/>
<path d="M149.29 33.6632C148.23 33.6632 147.24 33.1909 146.661 32.4049C145.033 30.1922 142.214 28.7324 139.01 28.7324C135.806 28.7324 132.987 30.1955 131.359 32.4049C130.78 33.1909 129.79 33.6632 128.73 33.6632H124.23V39.9348H128.73C129.79 39.9348 130.78 40.4071 131.359 41.1931C132.987 43.4026 135.806 44.8656 139.01 44.8656C142.214 44.8656 145.033 43.4026 146.661 41.1931C147.24 40.4071 148.23 39.9348 149.29 39.9348H152.031V33.6632H149.29Z" fill="#E3E7E8"/>
<path d="M142.532 25.7239H135.494V31.7346H142.532V25.7239Z" fill="#E3E7E8"/>
<path d="M149.29 33.6635C148.226 33.6635 147.24 33.1879 146.661 32.4052C145.037 30.1924 142.214 28.7294 139.01 28.7294C135.806 28.7294 132.987 30.1957 131.359 32.4052C130.78 33.1912 129.786 33.6635 128.73 33.6635H124.23V39.9351H128.73C129.79 39.9351 130.78 40.4107 131.359 41.1934C132.983 43.4061 135.799 44.8692 139.01 44.8692C142.221 44.8692 145.033 43.4028 146.661 41.1934C147.24 40.4074 148.226 39.9351 149.29 39.9351H152.031V33.6635H149.29Z" fill="#E3E7E8"/>
<path d="M149.283 36.9396C147.039 36.9396 145.022 38.003 143.76 39.6477C142.688 41.0447 140.922 41.877 139.014 41.877C137.106 41.877 135.261 41.0117 134.204 39.5618C132.998 37.9204 130.952 36.9429 128.734 36.9429H124.234V39.9383H128.734C129.794 39.9383 130.784 40.4139 131.362 41.1966C132.987 43.4094 135.802 44.8724 139.014 44.8724C142.225 44.8724 145.037 43.4061 146.665 41.1966C147.244 40.4106 148.23 39.9383 149.294 39.9383H152.035V36.9429H149.283V36.9396Z" fill="#BDC3C7"/>
<path d="M155.482 32.5437H150.105V41.0578H155.482V32.5437Z" fill="#34495E"/>
<path d="M155.482 36.8832H150.105V41.0544H155.482V36.8832Z" fill="#222F3D"/>
<path d="M127.905 32.5437H122.528V41.0578H127.905V32.5437Z" fill="#34495E"/>
<path d="M127.905 36.8832H122.528V41.0544H127.905V36.8832Z" fill="#222F3D"/>
<path d="M127.249 32.5437H126.282V41.0578H127.249V32.5437Z" fill="#F1C40F"/>
<path d="M127.249 36.8832H126.282V41.0544H127.249V36.8832Z" fill="#F39C12"/>
<path d="M152.024 32.5437H151.057V41.0578H152.024V32.5437Z" fill="#F1C40F"/>
<path d="M152.024 36.8832H151.057V41.0544H152.024V36.8832Z" fill="#F39C12"/>
<path d="M139.825 30.5622C135.482 30.5622 131.961 33.6765 131.961 37.5175C131.961 41.3584 135.482 44.4727 139.825 44.4727C144.168 44.4727 147.689 41.3584 147.689 37.5175C147.689 33.6765 144.168 30.5622 139.825 30.5622ZM139.825 42.7752C136.543 42.7752 133.884 40.4238 133.884 37.5208C133.884 34.6178 136.543 32.2663 139.825 32.2663C143.108 32.2663 145.766 34.6178 145.766 37.5208C145.766 40.4238 143.108 42.7752 139.825 42.7752Z" fill="#7F8C8D"/>
<path d="M139.825 39.8786C141.297 39.8786 142.491 38.8229 142.491 37.5206C142.491 36.2183 141.297 35.1625 139.825 35.1625C138.352 35.1625 137.159 36.2183 137.159 37.5206C137.159 38.8229 138.352 39.8786 139.825 39.8786Z" fill="#7F8C8D"/>
<path d="M146.774 37.0419H141.367V37.9963H146.774V37.0419Z" fill="#7F8C8D"/>
<path d="M140.364 31.3712H139.285V36.1534H140.364V31.3712Z" fill="#7F8C8D"/>
<path d="M138.283 37.0419H132.875V37.9963H138.283V37.0419Z" fill="#7F8C8D"/>
<path d="M140.364 38.8813H139.285V43.6635H140.364V38.8813Z" fill="#7F8C8D"/>
<path d="M141.938 37.5206C141.938 38.5543 140.993 39.3898 139.824 39.3898C138.656 39.3898 137.711 38.5543 137.711 37.5206C137.711 36.4869 138.656 35.6513 139.824 35.6513C140.993 35.6513 141.938 36.4869 141.938 37.5206Z" fill="#7F8C8D"/>
<path d="M138.914 38.9143L138.002 37.5206L138.914 36.1236H140.736L141.647 37.5206L140.736 38.9143H138.914Z" fill="#7F8C8D"/>
<path d="M140.639 37.5209C140.639 37.9172 140.273 38.2408 139.825 38.2408C139.377 38.2408 139.011 37.9172 139.011 37.5209C139.011 37.1246 139.377 36.8009 139.825 36.8009C140.273 36.8009 140.639 37.1246 140.639 37.5209Z" fill="#7F8C8D"/>
<path d="M139.01 29.8423C134.668 29.8423 131.146 32.9566 131.146 36.7976C131.146 40.6385 134.668 43.7528 139.01 43.7528C143.353 43.7528 146.875 40.6385 146.875 36.7976C146.875 32.9566 143.353 29.8423 139.01 29.8423ZM139.01 42.0553C135.728 42.0553 133.069 39.7038 133.069 36.8009C133.069 33.8979 135.728 31.5464 139.01 31.5464C142.293 31.5464 144.952 33.8979 144.952 36.8009C144.952 39.7038 142.293 42.0553 139.01 42.0553Z" fill="#C0392B"/>
<path d="M139.01 39.1557C140.482 39.1557 141.676 38.1 141.676 36.7977C141.676 35.4954 140.482 34.4396 139.01 34.4396C137.537 34.4396 136.344 35.4954 136.344 36.7977C136.344 38.1 137.537 39.1557 139.01 39.1557Z" fill="#C0392B"/>
<path d="M145.958 36.3221H140.551V37.2765H145.958V36.3221Z" fill="#C0392B"/>
<path d="M139.548 30.6514H138.469V35.4335H139.548V30.6514Z" fill="#C0392B"/>
<path d="M137.468 36.3221H132.061V37.2765H137.468V36.3221Z" fill="#C0392B"/>
<path d="M139.548 38.1615H138.469V42.9437H139.548V38.1615Z" fill="#C0392B"/>
<path d="M141.123 36.7974C141.123 37.8311 140.178 38.6667 139.01 38.6667C137.841 38.6667 136.896 37.8311 136.896 36.7974C136.896 35.7637 137.841 34.9282 139.01 34.9282C140.178 34.9282 141.123 35.7637 141.123 36.7974Z" fill="#95A5A6"/>
<path d="M138.099 38.1943L137.188 36.7973L138.099 35.4036H139.921L140.832 36.7973L139.921 38.1943H138.099Z" fill="#BDC3C7"/>
<path d="M139.824 36.7975C139.824 37.1939 139.458 37.5175 139.01 37.5175C138.562 37.5175 138.196 37.1939 138.196 36.7975C138.196 36.4012 138.562 36.0776 139.01 36.0776C139.458 36.0776 139.824 36.4012 139.824 36.7975Z" fill="#ECF0F1"/>
<path d="M142.607 23.4092H135.501V27.9304H142.607V23.4092Z" fill="#E3E7E8"/>
<path d="M137.928 23.4092H135.501V27.9304H137.928V23.4092Z" fill="#BDC3C7"/>
<path d="M143.058 26.5103H135.049V27.9337H143.058V26.5103Z" fill="#34495E"/>
<path d="M137.472 26.5103H135.049V27.9337H137.472V26.5103Z" fill="#222F3D"/>
<path d="M147.794 17.4943H142.189V23.7791H147.794V17.4943Z" fill="#E3E7E8"/>
<path d="M147.794 22.1574H142.189V23.779H147.794V22.1574Z" fill="#BDC3C7"/>
<path d="M147.383 15.2184L142.746 19.3192L147.771 23.7633L152.407 19.6625L147.383 15.2184Z" fill="#E3E7E8"/>
<path d="M150.541 18.0121L145.905 22.1129L147.769 23.7616L152.405 19.6608L150.541 18.0121Z" fill="#BDC3C7"/>
<path d="M146.988 14.8774L145.52 16.1758L151.321 21.3064L152.789 20.008L146.988 14.8774Z" fill="#34495E"/>
<path d="M150.865 18.2999L149.397 19.5983L151.327 21.3054L152.796 20.007L150.865 18.2999Z" fill="#222F3D"/>
<path d="M143.731 21.9725C143.096 23.7195 141.24 24.9811 139.056 24.9811C136.345 24.9811 134.145 23.0359 134.145 20.6382C134.145 18.2405 136.345 16.2953 139.056 16.2953C141.767 16.2953 143.966 18.2405 143.966 20.6382C143.966 21.1039 143.884 21.553 143.731 21.9725Z" fill="#BDC3C7"/>
<path d="M139.055 23.1415C140.886 23.1415 142.371 21.8285 142.371 20.2088C142.371 18.5891 140.886 17.2761 139.055 17.2761C137.223 17.2761 135.739 18.5891 135.739 20.2088C135.739 21.8285 137.223 23.1415 139.055 23.1415Z" fill="#E3E7E8"/>
<path d="M142.189 15.0931H135.919V17.4974H142.189V15.0931Z" fill="#E3E7E8"/>
<path d="M137.928 15.0931H135.919V17.4974H137.928V15.0931Z" fill="#BDC3C7"/>
<path d="M142.189 15.0931H140.18V17.4974H142.189V15.0931Z" fill="#BDC3C7"/>
<path d="M140.404 10.975H137.7V15.0933H140.404V10.975Z" fill="#202E3B"/>
<path d="M139.056 11.9228L135.258 12.3752C134.668 12.4446 134.145 12.0384 134.145 11.5133C134.145 10.9848 134.668 10.5819 135.258 10.6513L139.056 11.1037V11.9261V11.9228Z" fill="#C0392B"/>
<path d="M138.189 11.7213H135.321C134.731 11.7213 134.429 11.3349 134.399 10.932C134.242 11.0839 134.145 11.2854 134.145 11.51C134.145 12.0384 134.668 12.4413 135.258 12.3719L139.056 11.9195V11.1863C138.94 11.4835 138.649 11.718 138.189 11.718V11.7213Z" fill="#85271E"/>
<path d="M139.055 11.9228L142.853 12.3752C143.443 12.4446 143.965 12.0384 143.965 11.5133C143.965 10.9848 143.443 10.5819 142.853 10.6513L139.055 11.1037V11.9261V11.9228Z" fill="#C0392B"/>
<path d="M139.921 11.7213H142.789C143.379 11.7213 143.682 11.3349 143.711 10.932C143.868 11.0839 143.965 11.2854 143.965 11.51C143.965 12.0384 143.443 12.4413 142.853 12.3719L139.055 11.9195V11.1863C139.171 11.4835 139.462 11.718 139.921 11.718V11.7213Z" fill="#85271E"/>
<path d="M141.05 12.6888H137.058V15.0931H141.05V12.6888Z" fill="#34495E"/>
<path d="M141.809 14.8751H136.297V15.0898H141.809V14.8751Z" fill="#597DA1"/>
<path d="M141.328 12.503L136.742 12.8721L136.781 13.247L141.366 12.878L141.328 12.503Z" fill="#597DA1"/>
<path d="M141.329 13.2494L136.743 13.6185L136.782 13.9934L141.367 13.6244L141.329 13.2494Z" fill="#597DA1"/>
<path d="M141.328 13.9929L136.742 14.362L136.781 14.7369L141.366 14.3679L141.328 13.9929Z" fill="#597DA1"/>
<path d="M140.179 11.51C140.179 12.0582 139.675 12.504 139.055 12.504C138.436 12.504 137.931 12.0582 137.931 11.51C137.931 10.9617 138.436 10.5159 139.055 10.5159C139.675 10.5159 140.179 10.9617 140.179 11.51Z" fill="#85271E"/>
<path d="M139.056 11.7709C139.448 11.7709 139.766 11.4899 139.766 11.1434C139.766 10.7968 139.448 10.5159 139.056 10.5159C138.665 10.5159 138.347 10.7968 138.347 11.1434C138.347 11.4899 138.665 11.7709 139.056 11.7709Z" fill="#C0392B"/>
<path d="M139.527 10.1525H138.582C138.436 10.1525 138.317 10.2575 138.317 10.387V10.4068C138.317 10.5363 138.436 10.6413 138.582 10.6413H139.527C139.673 10.6413 139.792 10.5363 139.792 10.4068V10.387C139.792 10.2575 139.673 10.1525 139.527 10.1525Z" fill="#F1C40F"/>
</g>
<defs>
<clipPath id="clip0_979_6264">
<rect width="168.039" height="148.617" fill="white" transform="translate(104.294)"/>
</clipPath>
</defs>
</svg>
