<svg width="294" height="297" viewBox="0 0 294 297" fill="none" xmlns="http://www.w3.org/2000/svg">
<g clip-path="url(#clip0_979_4001)">
<path d="M278.964 0.691254H14.9033V263.418H278.964V0.691254Z" fill="white"/>
<path d="M187.817 147.902C204.309 128.516 207.92 120.273 207.517 96.5136C207.116 72.7539 225.126 39.2773 215.541 46.6336C205.956 53.9887 192.482 78.526 198.234 97.4713C203.987 116.415 202.631 122.647 200.608 127.861C198.586 133.073 187.541 146.331 187.541 146.331L187.816 147.904L187.817 147.902Z" fill="#9CD499"/>
<path d="M197.876 135.083C197.93 135.004 197.984 134.924 198.037 134.846C198.832 132.935 202.854 123.075 203.195 118.471C203.573 113.36 199.11 101.53 201.784 91.4207C204.457 81.3097 204.6 72.3677 205.316 65.4239C206.261 56.256 213.659 47.5821 218.186 45.9821C218.145 45.9006 218.096 45.8336 218.041 45.7785L216.83 45.8047C216.472 45.9729 216.044 46.2461 215.54 46.6323C205.955 53.9874 192.481 78.5248 198.233 97.47C203.986 116.414 202.63 122.646 200.607 127.86C200.062 129.265 198.859 131.258 197.395 133.416L197.874 135.085L197.876 135.083Z" fill="#74B570"/>
<path d="M184.749 175.112C196.226 147.851 197.976 137.774 198.217 113.389C198.459 89.0037 254.632 49.4554 250.736 57.9743C246.84 66.4932 236.04 87.3656 220.661 97.985C205.282 108.604 201.127 119.635 199.836 132.196C198.545 144.757 187.848 171.773 187.848 171.773L185.087 176.387L184.749 175.114V175.112Z" fill="#9CD499"/>
<path d="M189.743 163.948C189.703 163.948 189.66 163.942 189.619 163.928C189.412 163.86 189.299 163.637 189.367 163.43C189.396 163.345 192.249 154.746 194.163 147.566C196.076 140.383 197.69 127.596 197.73 123.056C197.767 118.905 200.153 105.638 210.614 94.2479C215.817 88.5835 219.648 85.1589 224.953 80.4206C230.192 75.7401 236.713 69.9142 247.418 59.4287C247.574 59.2764 247.825 59.2777 247.978 59.4327C248.131 59.5877 248.13 59.8373 247.974 59.9897C237.255 70.4882 230.727 76.3208 225.483 81.0065C220.195 85.7303 216.375 89.1432 211.2 94.78C200.907 105.988 198.56 118.995 198.525 123.063C198.484 127.642 196.859 140.531 194.931 147.767C193.013 154.971 190.151 163.591 190.122 163.677C190.067 163.843 189.912 163.948 189.746 163.948H189.743Z" fill="#74B570"/>
<path d="M199.54 187.199C203.341 167.81 202.81 177.492 196.758 150.146C189.832 118.847 226.783 94.9086 231.441 106.437C236.099 117.964 239.531 153.195 237.146 151.847C234.76 150.5 221.157 116.857 220.583 118.166C220.009 119.476 197.063 128.765 196.932 140.32C196.802 151.873 203.523 170.842 203.523 170.842L201.782 187.628L199.541 187.201L199.54 187.199Z" fill="#9CD499"/>
<path d="M201.828 187.509C201.803 187.509 201.777 187.507 201.754 187.503L199.513 187.076C199.41 187.056 199.319 186.996 199.26 186.909C199.2 186.822 199.179 186.716 199.199 186.613C199.639 184.372 200.027 182.487 200.34 180.973C201.467 175.507 201.383 170.333 200.087 165.449C199.205 162.127 197.999 157.578 196.373 150.231C195.155 144.721 195.216 139.131 196.554 133.613C197.735 128.75 199.874 124.044 202.91 119.624C208.119 112.045 215.803 105.819 222.489 103.765C227.183 102.323 230.58 103.243 231.81 106.29C233.791 111.191 235.798 121.038 237.18 132.631C237.76 137.494 238.149 142.101 238.277 145.604C238.49 151.42 237.923 151.912 237.682 152.122C237.473 152.305 237.2 152.33 236.953 152.191C235.622 151.439 231.831 143.135 226.624 131.485C224.089 125.816 221.475 119.967 220.63 118.693C220.189 119.054 219.265 119.572 217.451 120.573C210.952 124.16 197.428 131.625 197.329 140.323C197.201 151.675 203.832 170.521 203.898 170.71C203.918 170.766 203.924 170.823 203.919 170.882L202.224 187.157C202.212 187.267 202.155 187.367 202.065 187.433C201.997 187.484 201.913 187.51 201.829 187.51L201.828 187.509ZM200.052 186.375L201.478 186.647L203.12 170.888C202.634 169.493 196.41 151.412 196.536 140.314C196.639 131.157 210.435 123.542 217.064 119.883C218.588 119.043 220.027 118.248 220.227 117.99C220.304 117.833 220.456 117.735 220.627 117.735C220.633 117.735 220.639 117.735 220.645 117.735C220.971 117.735 221.218 117.804 223.153 121.917C224.293 124.338 225.775 127.655 227.345 131.166C229.337 135.622 231.595 140.672 233.458 144.562C235.869 149.599 236.837 151.04 237.222 151.412C237.362 151.069 237.643 149.828 237.478 145.495C237.345 141.997 236.953 137.416 236.376 132.595C235.003 121.126 233.021 111.404 231.074 106.587C230.015 103.969 226.97 103.215 222.72 104.522C211.07 108.101 192.018 126.897 197.144 150.064C198.767 157.394 199.971 161.935 200.851 165.251C202.178 170.253 202.265 175.548 201.113 181.134C200.804 182.633 200.456 184.32 200.05 186.378L200.052 186.375Z" fill="#74B570"/>
<path d="M188.172 149.273L188.435 149.021C188.464 146.534 188.595 144.087 188.877 141.844C188.052 146 188.172 149.273 188.172 149.273Z" fill="#74B570"/>
<path d="M199.377 132.017C198.559 133.616 197.997 135.308 197.618 136.995C201.543 127.375 219.218 119.958 220.45 118.55L220.678 118.189C214.503 115.86 203.571 123.808 199.375 132.017H199.377Z" fill="#74B570"/>
<path d="M237.241 151.35C237.049 151.35 236.88 151.211 236.851 151.015L235.22 140.396C235.116 139.72 235.011 139.032 234.906 138.337C233.391 128.41 231.505 116.057 228.656 110.388C228.196 109.475 225.938 108.095 222.55 108.032C217.941 107.946 208.814 110.313 199.543 127.142C199.437 127.333 199.197 127.404 199.006 127.299C198.814 127.194 198.744 126.954 198.848 126.764C208.32 109.571 217.78 107.154 222.565 107.243C226.321 107.314 228.802 108.918 229.363 110.036C232.268 115.815 234.085 127.718 235.687 138.219C235.793 138.915 235.899 139.601 236.002 140.277L237.632 150.897C237.665 151.112 237.516 151.313 237.301 151.346C237.281 151.349 237.26 151.35 237.24 151.35H237.241Z" fill="#74B570"/>
<path d="M229.715 134.365C229.688 134.365 229.661 134.362 229.633 134.357C229.419 134.312 229.282 134.103 229.327 133.891C229.348 133.791 231.411 123.714 229.687 112.773C229.653 112.557 229.801 112.356 230.017 112.322C230.234 112.289 230.436 112.435 230.47 112.65C232.217 123.739 230.123 133.95 230.102 134.051C230.063 134.237 229.898 134.365 229.715 134.365Z" fill="#74B570"/>
<path d="M227.116 127.779C227.09 127.779 227.062 127.777 227.035 127.77C226.821 127.726 226.683 127.517 226.728 127.304C226.748 127.212 228.677 117.984 228.614 110.215C228.612 109.997 228.788 109.819 229.007 109.818C229.228 109.818 229.404 109.993 229.406 110.21C229.469 118.065 227.523 127.375 227.503 127.468C227.464 127.653 227.3 127.781 227.116 127.781V127.779Z" fill="#74B570"/>
<path d="M225.096 81.1915C224.905 81.1915 224.738 81.0549 224.706 80.8618C224.67 80.6476 224.816 80.444 225.031 80.4086C225.119 80.3941 234.017 78.844 240.947 71.8148C241.1 71.6597 241.351 71.6571 241.507 71.8095C241.663 71.9619 241.665 72.2115 241.512 72.3665C234.396 79.5862 225.253 81.1705 225.162 81.1862C225.139 81.1902 225.118 81.1915 225.096 81.1915Z" fill="#74B570"/>
<path d="M217.393 89.4109C216.812 89.4109 216.476 89.3873 216.418 89.382C216.2 89.3649 216.037 89.1744 216.054 88.9577C216.072 88.7409 216.263 88.5794 216.481 88.5964C216.548 88.6017 223.331 89.0772 232.694 85.1587C232.896 85.0746 233.129 85.1692 233.213 85.3688C233.298 85.5698 233.203 85.801 233.002 85.8851C225.426 89.0549 219.617 89.4109 217.395 89.4109H217.393Z" fill="#74B570"/>
<path d="M211.908 97.8811C209.775 97.8811 208.676 97.4936 208.586 97.4594C208.382 97.3832 208.277 97.1573 208.353 96.9524C208.429 96.7488 208.658 96.645 208.862 96.7199C208.903 96.7343 213.226 98.2279 221.789 95.0042C221.994 94.9267 222.222 95.0292 222.3 95.2328C222.378 95.4364 222.275 95.6637 222.071 95.7412C217.525 97.4529 214.149 97.8798 211.909 97.8798L211.908 97.8811Z" fill="#74B570"/>
<path d="M90.4991 201.073C90.2113 200.204 70.1123 174.718 71.0616 153.76C71.7258 139.086 67.3318 123.177 67.3318 123.177C67.3318 123.177 81.6082 133.823 82.0466 157.099C82.3172 171.425 81.863 175.568 82.7793 179.507C83.6956 183.448 91.9501 201.946 91.9501 201.946L90.4991 201.072V201.073Z" fill="#9CD499"/>
<path d="M91.9499 202.341C91.8799 202.341 91.8086 202.323 91.7452 202.285L90.2942 201.411C90.2176 201.365 90.1596 201.295 90.1292 201.213C90.0671 201.088 89.671 200.522 89.2129 199.867C87.1598 196.938 82.3526 190.076 78.121 181.59C72.82 170.958 70.3114 161.588 70.6666 153.742C71.3202 139.301 66.9948 123.44 66.9513 123.281C66.9064 123.118 66.9698 122.946 67.1097 122.852C67.2497 122.757 67.4345 122.761 67.5705 122.862C67.7184 122.973 71.2383 125.63 74.8586 131.196C78.1923 136.322 82.2153 144.976 82.4437 157.092C82.5348 161.938 82.544 165.588 82.5506 168.52C82.5638 174.241 82.5705 176.853 83.1672 179.418C84.065 183.278 92.2311 201.601 92.3143 201.785C92.3843 201.943 92.3433 202.127 92.2139 202.241C92.14 202.307 92.0463 202.34 91.9525 202.34L91.9499 202.341ZM90.1226 201.197C90.1226 201.197 90.1252 201.203 90.1265 201.207C90.1252 201.203 90.1239 201.2 90.1226 201.197ZM90.8012 200.795L91.0811 200.963C89.2538 196.834 83.187 183.004 82.3948 179.598C81.7783 176.946 81.7717 174.307 81.7585 168.524C81.7519 165.593 81.7426 161.947 81.6515 157.107C81.4271 145.195 77.482 136.692 74.2129 131.657C71.7611 127.882 69.3133 125.436 68.0234 124.278C69.0149 128.274 72.0107 141.525 71.4561 153.779C70.9095 165.852 77.1018 181.207 89.8612 199.417C90.4487 200.255 90.6929 200.607 90.8012 200.795Z" fill="#74B570"/>
<path d="M84.0169 197.122C84.7748 198.491 85.4389 200.854 86 203.537H87.3322C82.7244 181.025 73.0809 167.815 58.2882 157.8C39.969 145.398 38.7424 141.679 38.7424 141.679C38.7424 141.679 44.9941 169.671 55.7625 178.249C66.5308 186.827 81.3473 192.297 84.0183 197.122H84.0169Z" fill="#9CD499"/>
<path d="M76.1609 200.905C77.9644 200.979 79.6571 202.039 81.1609 203.535H84.2609C80.8532 197.724 76.4051 192.927 71.0328 192.891C57.4746 192.796 54.7759 196.284 45.4625 196.009C38.8174 195.814 33.564 194.408 33.564 194.408C33.564 194.408 38.1626 202.713 50.5034 204.774C59.2293 206.231 69.6333 200.641 76.1622 200.905H76.1609Z" fill="#9CD499"/>
<path d="M87.7396 206.314C87.5588 206.314 87.3951 206.189 87.3541 206.006C85.2113 196.582 81.657 188.333 77.0756 182.149C71.2451 174.281 65.4239 170.018 59.7954 165.897C54.4575 161.988 49.4165 158.296 45.1044 151.927C44.9816 151.747 45.0305 151.501 45.2114 151.38C45.3923 151.259 45.6392 151.307 45.7606 151.487C49.9962 157.742 54.9843 161.395 60.2642 165.263C65.9401 169.419 71.8102 173.717 77.712 181.683C82.4241 188.042 85.9282 196.167 88.1252 205.833C88.174 206.046 88.0394 206.256 87.8268 206.304C87.7977 206.311 87.7674 206.315 87.7396 206.315V206.314Z" fill="#74B570"/>
<path d="M86.4774 207.901C86.3375 207.901 86.2015 207.826 86.1289 207.696C81.8854 199.962 77.7264 195.751 73.0394 194.438C68.9055 193.281 64.8957 194.532 60.651 195.857C59.4468 196.233 58.2018 196.622 56.9541 196.951C46.018 199.84 40.3632 197.876 40.1282 197.792C39.9222 197.717 39.8166 197.491 39.8905 197.288C39.9645 197.083 40.1929 196.978 40.3975 197.051C40.453 197.071 46.0827 199.007 56.7495 196.189C57.98 195.864 59.2171 195.479 60.412 195.104C64.7716 193.743 68.8897 192.457 73.2519 193.679C78.1582 195.053 82.4703 199.387 86.822 207.319C86.9263 207.509 86.8563 207.749 86.6636 207.853C86.6028 207.886 86.5381 207.902 86.4748 207.902L86.4774 207.901Z" fill="#74B570"/>
<path d="M66.5305 170.882C66.4631 170.882 66.3945 170.865 66.3311 170.828C66.2611 170.788 59.2714 166.791 50.2221 166.246C50.0042 166.233 49.8379 166.047 49.8511 165.829C49.8643 165.612 50.0531 165.445 50.2709 165.459C59.5157 166.016 66.6599 170.106 66.7311 170.146C66.92 170.256 66.9833 170.497 66.8737 170.685C66.7998 170.811 66.6678 170.881 66.5318 170.881L66.5305 170.882Z" fill="#74B570"/>
<path d="M78.7497 184.166C78.6322 184.166 78.516 184.115 78.4381 184.015C72.8123 176.869 67.0769 175.602 54.641 173.419C54.4258 173.381 54.2818 173.177 54.3201 172.962C54.3584 172.746 54.5644 172.604 54.7796 172.643C67.4228 174.861 73.2572 176.153 79.0626 183.529C79.1973 183.699 79.1669 183.948 78.9953 184.082C78.9227 184.138 78.8368 184.166 78.751 184.166H78.7497Z" fill="#74B570"/>
<path d="M182.82 207.76C198.195 177.496 214.415 165.398 236.087 160.801C257.758 156.205 260.306 153.224 260.306 153.224C260.306 153.224 243.887 176.791 230.659 180.684C217.431 184.578 201.636 184.072 197.331 187.535C193.025 190.998 185.122 206.323 185.122 206.323L182.456 208.395L182.819 207.758L182.82 207.76Z" fill="#9CD499"/>
<path d="M189.977 218.422C189.845 217.859 196.437 187.214 209.983 186.642C223.53 186.07 226.351 189.459 235.649 188.858C242.282 188.428 247.483 186.839 247.483 186.839C247.483 186.839 243.182 195.3 230.922 197.794C222.253 199.559 211.657 194.338 205.142 194.832C198.626 195.326 194.037 208.688 194.037 208.688L192.266 215.694L189.975 218.422H189.977Z" fill="#9CD499"/>
<path d="M183.661 206.313C183.607 206.313 183.551 206.302 183.498 206.278C183.299 206.189 183.21 205.955 183.3 205.756C183.323 205.706 185.629 200.667 189.928 194.472C193.9 188.749 200.438 180.83 209.033 175.612C217.522 170.456 224.589 168.684 231.424 166.97C237.783 165.375 243.787 163.869 250.085 159.669C250.267 159.548 250.513 159.595 250.634 159.777C250.756 159.958 250.707 160.202 250.526 160.323C244.115 164.599 238.045 166.121 231.618 167.733C224.841 169.433 217.834 171.192 209.446 176.285C200.976 181.429 194.518 189.251 190.591 194.907C186.328 201.047 184.045 206.032 184.022 206.082C183.956 206.228 183.812 206.315 183.661 206.315V206.313Z" fill="#74B570"/>
<path d="M191.771 209.607C191.723 209.607 191.674 209.598 191.626 209.579C191.423 209.499 191.323 209.27 191.403 209.068C196.052 197.356 200.748 190.706 206.183 188.141C211.048 185.844 215.723 187.124 220.672 188.48C221.88 188.811 223.13 189.152 224.371 189.435C235.162 191.882 240.689 189.742 240.743 189.72C240.946 189.638 241.177 189.735 241.259 189.938C241.341 190.14 241.243 190.37 241.04 190.451C240.807 190.545 235.227 192.706 224.195 190.204C222.937 189.919 221.679 189.574 220.462 189.241C215.658 187.926 211.122 186.684 206.522 188.854C201.279 191.327 196.709 197.843 192.138 209.358C192.076 209.513 191.927 209.608 191.77 209.608L191.771 209.607Z" fill="#74B570"/>
<path d="M240.472 171.677C240.429 171.677 240.387 171.67 240.345 171.656C231.759 168.758 223.77 169.83 223.69 169.842C223.474 169.871 223.273 169.722 223.243 169.507C223.213 169.291 223.363 169.092 223.58 169.062C223.661 169.05 231.829 167.95 240.6 170.91C240.807 170.979 240.918 171.204 240.848 171.409C240.792 171.573 240.638 171.677 240.473 171.677H240.472Z" fill="#74B570"/>
<path d="M207.279 177.55C207.141 177.55 207.008 177.479 206.934 177.352C206.826 177.163 206.892 176.922 207.082 176.814C215.257 172.169 221.15 173.166 233.698 175.866C233.912 175.912 234.048 176.122 234.002 176.335C233.955 176.548 233.746 176.683 233.53 176.637C221.187 173.982 215.397 172.998 207.474 177.5C207.412 177.536 207.345 177.551 207.279 177.553V177.55Z" fill="#74B570"/>
<path d="M102.15 55.9897H174.337C174.337 51.0991 170.353 47.1345 165.437 47.1345H111.051C106.136 47.1345 102.151 51.0991 102.151 55.9897H102.15Z" fill="#93B1C2"/>
<path d="M196.385 51.7193H78.7131V209.212H196.385V51.7193Z" fill="#BDCCD4"/>
<path d="M191.368 58.4358H83.7312V202.497H191.368V58.4358Z" fill="white"/>
<path opacity="0.7" d="M93.6779 88.0293H183.107C183.81 88.0293 184.379 88.5968 184.379 89.2944V89.3811C184.379 90.0799 183.808 90.6461 183.107 90.6461H93.6779C92.9755 90.6461 92.4065 90.0786 92.4065 89.3811V89.2944C92.4065 88.5955 92.9769 88.0293 93.6779 88.0293Z" fill="#9EC8FF"/>
<path opacity="0.7" d="M93.6779 93.1077H183.107C183.81 93.1077 184.379 93.6752 184.379 94.3727V94.4594C184.379 95.1583 183.808 95.7244 183.107 95.7244H93.6779C92.9755 95.7244 92.4065 95.1569 92.4065 94.4594V94.3727C92.4065 93.6738 92.9769 93.1077 93.6779 93.1077Z" fill="#9EC8FF"/>
<path opacity="0.7" d="M164.142 107.572H93.6872C92.9821 107.572 92.4065 106.998 92.4065 106.298C92.4065 105.598 92.9835 105.023 93.6872 105.023H164.142C164.848 105.023 165.423 105.598 165.423 106.298C165.423 106.998 164.846 107.572 164.142 107.572Z" fill="#9EC8FF"/>
<path opacity="0.7" d="M164.142 112.139H93.6872C92.9821 112.139 92.4065 111.565 92.4065 110.865C92.4065 110.165 92.9835 109.591 93.6872 109.591H164.142C164.848 109.591 165.423 110.165 165.423 110.865C165.423 111.565 164.846 112.139 164.142 112.139Z" fill="#9EC8FF"/>
<path opacity="0.7" d="M164.142 125.347H93.6872C92.9821 125.347 92.4065 124.773 92.4065 124.073C92.4065 123.372 92.9835 122.798 93.6872 122.798H164.142C164.848 122.798 165.423 123.372 165.423 124.073C165.423 124.773 164.846 125.347 164.142 125.347Z" fill="#9EC8FF"/>
<path opacity="0.7" d="M164.142 129.913H93.6872C92.9821 129.913 92.4065 129.339 92.4065 128.639C92.4065 127.939 92.9835 127.365 93.6872 127.365H164.142C164.848 127.365 165.423 127.939 165.423 128.639C165.423 129.339 164.846 129.913 164.142 129.913Z" fill="#9EC8FF"/>
<path opacity="0.7" d="M164.142 146.268H93.6872C92.9821 146.268 92.4065 145.694 92.4065 144.993C92.4065 144.293 92.9835 143.719 93.6872 143.719H164.142C164.848 143.719 165.423 144.293 165.423 144.993C165.423 145.694 164.846 146.268 164.142 146.268Z" fill="#9EC8FF"/>
<path opacity="0.7" d="M164.142 150.834H93.6872C92.9821 150.834 92.4065 150.26 92.4065 149.56C92.4065 148.859 92.9835 148.285 93.6872 148.285H164.142C164.848 148.285 165.423 148.859 165.423 149.56C165.423 150.26 164.846 150.834 164.142 150.834Z" fill="#9EC8FF"/>
<path opacity="0.7" d="M164.142 162.604H93.6872C92.9821 162.604 92.4065 162.03 92.4065 161.33C92.4065 160.63 92.9835 160.056 93.6872 160.056H164.142C164.848 160.056 165.423 160.63 165.423 161.33C165.423 162.03 164.846 162.604 164.142 162.604Z" fill="#9EC8FF"/>
<path opacity="0.7" d="M164.142 167.17H93.6872C92.9821 167.17 92.4065 166.596 92.4065 165.896C92.4065 165.196 92.9835 164.622 93.6872 164.622H164.142C164.848 164.622 165.423 165.196 165.423 165.896C165.423 166.596 164.846 167.17 164.142 167.17Z" fill="#9EC8FF"/>
<path opacity="0.7" d="M185.976 190.079H115.521C114.816 190.079 114.24 189.505 114.24 188.805C114.24 188.105 114.817 187.531 115.521 187.531H185.976C186.681 187.531 187.257 188.105 187.257 188.805C187.257 189.505 186.68 190.079 185.976 190.079Z" fill="#9EC8FF"/>
<path opacity="0.7" d="M185.976 196.443H115.521C114.816 196.443 114.24 195.869 114.24 195.169C114.24 194.469 114.817 193.895 115.521 193.895H185.976C186.681 193.895 187.257 194.469 187.257 195.169C187.257 195.869 186.68 196.443 185.976 196.443Z" fill="#9EC8FF"/>
<g opacity="0.8">
<path d="M176.189 113.829H172.096C170.316 113.829 168.869 112.389 168.869 110.619V106.546C168.869 104.776 170.316 103.336 172.096 103.336H176.189C177.968 103.336 179.415 104.776 179.415 106.546V110.619C179.415 112.389 177.968 113.829 176.189 113.829ZM172.096 105.175C171.335 105.175 170.717 105.79 170.717 106.546V110.619C170.717 111.375 171.335 111.99 172.096 111.99H176.189C176.949 111.99 177.567 111.375 177.567 110.619V106.546C177.567 105.79 176.949 105.175 176.189 105.175H172.096Z" fill="#9EC8FF"/>
</g>
<g opacity="0.8">
<path d="M176.189 131.138H172.096C170.316 131.138 168.869 129.698 168.869 127.927V123.855C168.869 122.084 170.316 120.644 172.096 120.644H176.189C177.968 120.644 179.415 122.084 179.415 123.855V127.927C179.415 129.698 177.968 131.138 176.189 131.138ZM172.096 122.483C171.335 122.483 170.717 123.098 170.717 123.855V127.927C170.717 128.684 171.335 129.299 172.096 129.299H176.189C176.949 129.299 177.567 128.684 177.567 127.927V123.855C177.567 123.098 176.949 122.483 176.189 122.483H172.096Z" fill="#9EC8FF"/>
</g>
<path d="M174.399 111.407C174.386 111.407 174.374 111.407 174.36 111.407C174.128 111.395 173.912 111.283 173.77 111.099L170.829 107.281C170.562 106.935 170.628 106.44 170.975 106.176C171.322 105.911 171.819 105.976 172.086 106.322L174.458 109.401L180.983 102.445C181.281 102.127 181.783 102.11 182.103 102.407C182.422 102.704 182.439 103.203 182.141 103.521L174.977 111.157C174.826 111.317 174.617 111.408 174.397 111.408L174.399 111.407Z" fill="#F37168"/>
<path d="M174.399 128.715C174.386 128.715 174.374 128.715 174.36 128.715C174.128 128.703 173.912 128.592 173.77 128.408L170.829 124.589C170.562 124.244 170.628 123.748 170.975 123.484C171.322 123.22 171.819 123.285 172.086 123.63L174.458 126.709L180.983 119.754C181.281 119.436 181.783 119.419 182.103 119.715C182.422 120.012 182.439 120.511 182.141 120.829L174.977 128.466C174.826 128.626 174.617 128.716 174.397 128.716L174.399 128.715Z" fill="#F37168"/>
<path d="M176.188 151.529H172.096C170.39 151.529 169.001 150.149 169.001 148.45V144.378C169.001 142.681 170.388 141.299 172.096 141.299H176.188C177.894 141.299 179.283 142.679 179.283 144.378V148.45C179.283 150.147 177.896 151.529 176.188 151.529ZM172.096 142.875C171.262 142.875 170.585 143.549 170.585 144.378V148.45C170.585 149.279 171.262 149.953 172.096 149.953H176.188C177.022 149.953 177.699 149.279 177.699 148.45V144.378C177.699 143.549 177.022 142.875 176.188 142.875H172.096Z" fill="#9EC8FF"/>
<g opacity="0.8">
<path d="M176.189 168.969H172.096C170.316 168.969 168.869 167.529 168.869 165.758V161.686C168.869 159.915 170.316 158.476 172.096 158.476H176.189C177.968 158.476 179.415 159.915 179.415 161.686V165.758C179.415 167.529 177.968 168.969 176.189 168.969ZM172.096 160.315C171.335 160.315 170.717 160.93 170.717 161.686V165.758C170.717 166.515 171.335 167.13 172.096 167.13H176.189C176.949 167.13 177.567 166.515 177.567 165.758V161.686C177.567 160.93 176.949 160.315 176.189 160.315H172.096Z" fill="#9EC8FF"/>
</g>
<path d="M174.399 149.238C174.386 149.238 174.374 149.238 174.36 149.238C174.128 149.226 173.912 149.115 173.77 148.931L170.829 145.112C170.562 144.767 170.628 144.271 170.975 144.007C171.322 143.743 171.819 143.808 172.086 144.153L174.458 147.232L180.983 140.277C181.281 139.959 181.783 139.942 182.103 140.239C182.422 140.535 182.439 141.035 182.141 141.353L174.977 148.989C174.826 149.149 174.617 149.24 174.397 149.24L174.399 149.238Z" fill="#F37168"/>
<path d="M174.399 166.547C174.386 166.547 174.374 166.547 174.36 166.547C174.128 166.535 173.912 166.423 173.77 166.239L170.829 162.421C170.562 162.075 170.628 161.58 170.975 161.316C171.322 161.051 171.819 161.116 172.086 161.462L174.458 164.541L180.983 157.585C181.281 157.267 181.783 157.25 182.103 157.547C182.422 157.844 182.439 158.343 182.141 158.661L174.977 166.297C174.826 166.458 174.617 166.548 174.397 166.548L174.399 166.547Z" fill="#F37168"/>
<path d="M152.847 62.3149H122.253C115.307 62.3149 109.676 56.7123 109.676 49.8013C109.676 48.3274 110.876 47.1333 112.357 47.1333H162.741C164.223 47.1333 165.423 48.3274 165.423 49.8013C165.423 56.7123 159.792 62.3149 152.845 62.3149H152.847Z" fill="#93B1C2"/>
<path d="M114.253 48.0818H162.389C163.391 48.0818 164.204 48.891 164.204 49.8881V49.9682C164.204 54.6421 160.391 58.4359 155.693 58.4359H120.948C116.251 58.4359 112.438 54.6421 112.438 49.9682V49.8881C112.438 48.891 113.251 48.0831 114.252 48.0831L114.253 48.0818Z" fill="#D6E7F0"/>
<path opacity="0.7" d="M186.337 64.8425H88.7639V82.2377H186.337V64.8425Z" fill="#9EC8FF"/>
<path d="M106.838 69.4692V77.9868H104.895V69.4692H106.838Z" fill="white"/>
<path d="M108.514 77.9868V69.4692H110.775L112.553 72.5904C113.062 73.4876 113.57 74.549 113.95 75.5093H113.988C113.862 74.3848 113.823 73.234 113.823 71.9585V69.4692H115.602V77.9868H113.57L111.741 74.7014C111.233 73.791 110.674 72.6915 110.255 71.6932L110.216 71.7063C110.266 72.8308 110.293 74.0314 110.293 75.4226V77.9881H108.514V77.9868Z" fill="white"/>
<path d="M117.341 76.003C117.862 76.2684 118.662 76.5337 119.488 76.5337C120.377 76.5337 120.847 76.1672 120.847 75.6116C120.847 75.0559 120.44 74.7774 119.412 74.4109C117.988 73.9183 117.061 73.1341 117.061 71.8966C117.061 70.4437 118.281 69.3311 120.3 69.3311C121.265 69.3311 121.977 69.5334 122.485 69.7606L122.053 71.3147C121.71 71.1505 121.1 70.9101 120.262 70.9101C119.423 70.9101 119.017 71.2897 119.017 71.7311C119.017 72.2749 119.5 72.514 120.605 72.9318C122.117 73.4874 122.828 74.2717 122.828 75.4723C122.828 76.9002 121.723 78.1141 119.373 78.1141C118.395 78.1141 117.43 77.8618 116.947 77.5965L117.34 76.0044L117.341 76.003Z" fill="white"/>
<path d="M126.067 69.4692V74.373C126.067 75.839 126.626 76.5851 127.617 76.5851C128.609 76.5851 129.192 75.8771 129.192 74.373V69.4692H131.122V74.2469C131.122 76.8754 129.789 78.1273 127.554 78.1273C125.318 78.1273 124.124 76.9398 124.124 74.2219V69.4705H126.067V69.4692Z" fill="white"/>
<path d="M132.799 69.5833C133.421 69.4822 134.349 69.406 135.378 69.406C136.648 69.406 137.537 69.5951 138.147 70.0759C138.655 70.4805 138.933 71.0743 138.933 71.8585C138.933 72.9449 138.158 73.6911 137.422 73.9564V73.9945C138.018 74.2349 138.349 74.8037 138.565 75.5866C138.832 76.5469 139.098 77.6595 139.263 77.988H137.282C137.142 77.7476 136.938 77.0526 136.685 76.0044C136.457 74.943 136.088 74.6526 135.3 74.6395H134.715V77.988H132.797V69.5833H132.799ZM134.718 73.2484H135.479C136.445 73.2484 137.016 72.7676 137.016 72.0227C137.016 71.2398 136.483 70.847 135.593 70.8352C135.123 70.8352 134.856 70.8733 134.716 70.8983V73.2484H134.718Z" fill="white"/>
<path d="M142.439 75.8009L141.829 77.9868H139.822L142.439 69.4692H144.979L147.634 77.9868H145.551L144.89 75.8009H142.439ZM144.611 74.3598L144.077 72.5523C143.925 72.0465 143.772 71.4147 143.645 70.9089H143.62C143.494 71.4147 143.367 72.0583 143.227 72.5523L142.719 74.3598H144.612H144.611Z" fill="white"/>
<path d="M148.778 77.9868V69.4692H151.038L152.816 72.5904C153.325 73.4876 153.833 74.549 154.213 75.5093H154.252C154.125 74.3848 154.087 73.234 154.087 71.9585V69.4692H155.865V77.9868H153.833L152.004 74.7014C151.496 73.791 150.938 72.6915 150.518 71.6932L150.479 71.7063C150.53 72.8308 150.556 74.0314 150.556 75.4226V77.9881H148.778V77.9868Z" fill="white"/>
<path d="M163.829 77.7475C163.474 77.9249 162.674 78.1141 161.632 78.1141C158.672 78.1141 157.148 76.2815 157.148 73.8552C157.148 70.9482 159.232 69.3311 161.822 69.3311C162.826 69.3311 163.588 69.5334 163.931 69.7107L163.537 71.2398C163.144 71.0756 162.597 70.9245 161.912 70.9245C160.375 70.9245 159.182 71.8467 159.182 73.7423C159.182 75.4487 160.198 76.5219 161.925 76.5219C162.51 76.5219 163.157 76.3958 163.539 76.2434L163.83 77.7475H163.829Z" fill="white"/>
<path d="M170.192 74.3861H167.041V76.4077H170.56V77.988H165.098V69.4704H170.382V71.0507H167.041V72.8202H170.192V74.3874V74.3861Z" fill="white"/>
<path d="M161.061 49.5056H137.404C136.702 49.5056 136.133 50.072 136.133 50.7707V51.0873C136.133 51.7859 136.702 52.3523 137.404 52.3523H161.061C161.764 52.3523 162.333 51.7859 162.333 51.0873V50.7707C162.333 50.072 161.764 49.5056 161.061 49.5056Z" fill="#F2F2F2"/>
<path opacity="0.5" d="M235.672 218.491C199.547 211.096 169.549 214.438 159.165 213.808C148.78 213.178 88.5904 212.539 75.8745 216.864C63.1587 221.19 84.7984 227.095 109.901 224.354C135.004 221.612 150.444 222.169 190.409 225.054C230.374 227.938 240.61 219.502 235.672 218.491Z" fill="#BDCCD4"/>
<path d="M111.66 111.082C117.083 114.978 128.732 116.676 132.447 116.876C136.162 117.076 130.385 127.267 130.385 127.267C130.385 127.267 120.397 128.466 115.677 127.267C110.956 126.068 111.66 111.082 111.66 111.082Z" fill="#D54A41"/>
<path d="M102.355 212.128C102.423 214.792 103.949 216.377 106.439 218.223C109.051 220.157 109.184 220.369 105.569 220.845C101.954 221.32 100.949 219.689 98.5396 218.989C96.1301 218.289 97.6695 216.591 97.5349 214.993C97.4015 213.394 97.1731 210.797 97.1731 210.797L102.355 212.129V212.128Z" fill="#303C60"/>
<path d="M123.443 210.796C123.443 210.796 125.05 212.647 127.193 214.486C129.335 216.325 134.758 216.951 132.146 217.637C129.536 218.323 126.61 217.952 123.922 218.337C121.234 218.722 118.89 218.349 118.69 217.637C118.489 216.925 118.69 211.862 118.69 211.862L123.443 210.797V210.796Z" fill="#303C60"/>
<path d="M130.842 94.2261C134.202 91.0511 140.38 95.0984 140.962 97.7887C142.461 104.71 143.124 111.867 141.3 114.679C139.477 117.491 123.24 119.26 123.438 118.262C123.636 117.263 123.681 111.051 126.37 108.013C129.06 104.974 127.837 102.04 128.33 99.2337C128.922 95.859 130.302 94.7345 130.841 94.2261H130.842Z" fill="#58556E"/>
<path d="M123.901 114.458C122.756 122.523 121.651 137.709 118.338 141.407C115.024 145.103 113.18 153.919 113.18 153.919C113.18 153.919 123.889 148.1 128.272 133.793C129.647 129.304 126.292 118.825 125.479 117.826C124.665 116.826 123.901 114.456 123.901 114.456V114.458Z" fill="#7EC1D6"/>
<path d="M147.111 136.609C146.449 137.409 144.676 141.283 143.777 141.283C140.714 141.283 140.488 142.479 138.827 143.353C136.694 144.478 137.145 146.201 137.296 146.301C137.446 146.401 141.987 145.61 143.512 144.621C144.778 143.8 145.677 143.353 146.293 142.454C146.911 141.554 150.404 138.957 150.404 138.957L147.111 136.609Z" fill="#F09959"/>
<path d="M144.011 112.683C147.11 114.546 147.679 116.277 150.725 121.54C153.771 126.802 154.307 128.7 155.511 130.598C156.716 132.497 157.118 134.694 154.573 137.093C152.143 139.384 151.009 140.318 149.675 139.961C148.777 139.719 148.067 137.115 146.818 137.587C145.569 138.058 147.778 134.395 148.916 133.362C149.536 132.8 149.786 132.843 149.585 132.586C149.385 132.33 145.569 129.499 142.388 125.402C139.208 121.306 144.01 112.682 144.01 112.682L144.011 112.683Z" fill="#9BD6E8"/>
<path d="M153.737 132.364C152.229 131.69 150.345 131.786 148.962 132.047C149.317 132.346 149.541 132.531 149.586 132.587C149.787 132.844 149.536 132.8 148.917 133.364C148.697 133.563 148.437 133.86 148.171 134.207C149.226 133.651 150.381 133.151 151.328 133.014C153.737 132.665 153.889 133.314 155.143 134.114C156.399 134.913 156.198 133.465 153.737 132.365V132.364Z" fill="#7EC1D6"/>
<path d="M147.127 115.472C146.297 114.344 145.414 113.527 144.012 112.684C144.012 112.684 139.211 121.307 142.39 125.404C143.4 126.705 144.474 127.877 145.474 128.88C145.539 126.12 145.831 119.95 147.127 115.472Z" fill="#7EC1D6"/>
<path d="M132.22 109.833C128.069 110.766 124.719 111.984 123.863 114.38C123.447 115.542 125.855 134.728 128.264 136.86C132.916 140.974 140.583 137.127 140.583 137.127C140.583 137.127 144.065 128.501 145.446 114.021C145.805 112.716 137.504 110.15 136.165 109.885C134.826 109.619 132.221 109.835 132.221 109.835L132.22 109.833Z" fill="#9BD6E8"/>
<path d="M133.616 211.61C133.616 211.61 127.928 219.442 131.343 219.165C134.757 218.887 136.986 215.391 136.986 215.391C136.986 215.391 138.171 219.356 141.584 219.171C144.999 218.987 143.072 216.909 141.584 214.484C140.178 212.193 140.104 209.791 140.104 209.791L133.615 211.61H133.616Z" fill="#F09959"/>
<path d="M134.105 113.58C132.696 113.58 131.544 112.433 131.544 111.031V101.539C131.544 100.137 132.696 98.992 134.105 98.992C135.514 98.992 136.665 100.139 136.665 101.539V111.031C136.665 112.433 135.513 113.58 134.105 113.58Z" fill="#F09959"/>
<path d="M134.105 98.992C132.696 98.992 131.544 100.139 131.544 101.539V105.836C133.202 108.203 135.143 109.667 136.665 110.536V101.539C136.665 100.137 135.513 98.992 134.105 98.992Z" fill="#E38540"/>
<path d="M140.624 100.268C141.424 103.663 140.062 106.884 137.579 107.464C135.097 108.043 132.437 105.76 131.637 102.365C130.837 98.9697 132.199 95.7487 134.681 95.1694C137.164 94.5901 139.824 96.8732 140.624 100.268Z" fill="#F09959"/>
<path d="M128.84 135.718C128.84 135.718 120.857 141.712 123.417 161.344C125.977 180.976 128.689 180.376 128.84 189.817C128.99 199.258 133.057 212.296 135.468 214.844C137.877 217.392 143.796 203.735 143.796 191.611C143.796 184.528 143.8 181.125 145.456 170.035C147.113 158.945 146.764 142.76 140.136 135.716C133.508 128.673 128.84 135.716 128.84 135.716V135.718Z" fill="#F09959"/>
<path d="M135.307 179.622C135.3 174.976 133.754 165.102 134.107 151.452L123.925 164.954C126.325 180.938 128.701 180.995 128.841 189.817C128.955 196.971 131.318 206.189 133.505 211.343C134.925 211.851 135.88 212.447 136.133 213.194C136.471 214.195 136.696 214.751 136.829 214.911C136.877 214.881 136.926 214.847 136.974 214.81C137.091 213.973 136.482 209.707 135.814 203.5C134.686 193.005 135.313 184.266 135.307 179.621V179.622Z" fill="#E38540"/>
<path d="M125.254 128.705C126.581 136.466 125.784 137.516 123.923 143.961C122.062 150.404 122.037 167.489 122.037 167.489C122.037 167.489 127.084 169.587 136.849 168.688C146.613 167.79 147.969 166.74 147.969 166.74C147.969 166.74 146.859 150.106 145.456 145.16C144.052 140.214 141.859 136.833 141.751 133.652C141.643 130.473 125.254 128.707 125.254 128.707V128.705Z" fill="#9BD6E8"/>
<path d="M131.343 219.165C134.758 218.888 136.986 215.391 136.986 215.391C136.986 215.391 138.172 219.356 141.585 219.171C144.517 219.014 143.511 217.458 142.225 215.487C142.108 215.929 141.745 216.344 140.781 216.308C138.765 216.23 136.87 213.792 136.87 213.792C136.87 213.792 133.35 216.49 132.044 216.297C130.74 216.105 132.68 212.981 132.681 212.979C131.227 215.211 128.837 219.367 131.341 219.163L131.343 219.165Z" fill="#3E6BAB"/>
<path d="M151.295 173.425C150.894 177.922 151.312 181.319 150.5 185.016C149.688 188.712 147.98 189.912 147.98 189.912L146.475 172.627L151.295 173.425Z" fill="#F09959"/>
<path d="M140.049 154.442C136.803 147.598 136.485 145.35 138.342 143.752C140.2 142.153 140.501 139.955 143.564 140.754C146.627 141.553 147.631 143.301 149.137 143.951C150.643 144.6 150.342 148.647 148.435 149.746C146.527 150.845 140.049 154.442 140.049 154.442Z" fill="#7A4E34"/>
<path d="M137.58 214.111C137.58 214.111 137.447 216.187 138.024 217.121C138.601 218.056 139.029 218.48 136.85 218.523C134.672 218.565 134.075 218.013 133.903 216.695C133.733 215.378 133.754 214.982 134.064 214.182C134.373 213.381 137.58 214.11 137.58 214.11V214.111Z" fill="#63ACC2"/>
<path d="M148.885 214.44C148.885 214.44 151.345 216.637 152.801 217.138C154.257 217.637 152.215 218.736 149.643 218.187C147.071 217.638 147.277 218.387 145.972 217.788C144.666 217.189 145.863 214 145.863 214L148.884 214.442L148.885 214.44Z" fill="#63ACC2"/>
<path d="M149.187 180.02C149.187 180.02 149.187 196.706 149.387 203.199C149.588 209.694 149.723 214.089 149.592 214.811C149.536 215.115 146.772 214.712 145.566 214.811C144.361 214.911 141.809 199.902 140.75 191.81C139.691 183.716 139.243 177.822 139.243 177.822L149.185 180.02H149.187Z" fill="#3E6BAB"/>
<path d="M140.752 191.81C141.25 195.619 142.08 200.962 142.943 205.538C144.132 200.321 146.474 191.052 149.198 185.692C149.187 182.391 149.187 180.02 149.187 180.02L142.945 178.639C141.729 178.865 140.523 179.088 139.369 179.301C139.567 181.54 140.008 186.133 140.752 191.808V191.81Z" fill="#2E5B9A"/>
<path d="M134.927 176.423C134.426 184.616 133.647 203.506 133.911 207.696C134.199 212.242 133.622 213.991 133.622 213.991C133.622 213.991 134.727 214.39 136.534 214.59L137.68 214.716C137.68 214.716 142.258 202.7 143.162 194.407C144.066 186.114 146.476 179.619 146.476 179.619L134.927 176.422V176.423Z" fill="#3E6BAB"/>
<path d="M148.012 159.041C151.899 164.234 152.3 174.425 152.3 174.425C152.3 174.425 150.714 175.624 149.197 175.024C147.68 174.425 148.012 159.04 148.012 159.04V159.041Z" fill="#EDC055"/>
<path d="M143.864 156.288C148.484 157.339 150.392 162.635 150.492 166.831C150.593 171.027 149.79 182.317 149.79 182.717C149.79 183.116 140.753 183.916 137.439 183.216L134.125 182.517C134.125 182.517 133.22 165.831 134.125 161.735C135.029 157.64 140.953 155.741 140.953 155.741L143.866 156.288H143.864Z" fill="#F5CE5C"/>
<path d="M142.263 167.632C142.012 166.108 144.061 165.859 144.969 165.984C145.878 166.108 146.094 167.108 146.476 167.233C146.857 167.358 147.384 166.774 147.862 167.116C148.339 167.458 147.787 168.432 147.185 168.482C146.583 168.532 146.23 167.941 145.804 168.212C145.377 168.482 145.553 168.657 145.478 168.657C145.402 168.657 143.896 168.832 143.896 168.832C143.896 168.832 143.244 168.407 142.791 168.457C142.339 168.507 142.51 168.981 142.51 168.981C142.51 168.981 141.761 168.931 141.937 168.407C142.112 167.883 142.263 167.632 142.263 167.632Z" fill="#EDC055"/>
<path d="M145.678 168.657C146.136 168.151 146.607 168.632 146.808 168.806C147.008 168.981 146.453 169.327 146.005 169.33C145.556 169.336 145.679 168.657 145.679 168.657H145.678Z" fill="#EDC055"/>
<path d="M142.715 168.981C142.665 168.607 143.417 168.682 143.644 168.981C143.87 169.281 143.143 169.58 142.917 169.505C142.691 169.43 142.716 168.981 142.716 168.981H142.715Z" fill="#EDC055"/>
<path d="M141.458 169.331C141.408 169.181 139.475 168.381 139.701 167.657C139.927 166.933 141.207 168.494 141.207 168.494C141.207 168.494 140.329 166.583 140.781 166.433C141.233 166.283 141.408 167.632 141.458 168.032C141.508 168.431 141.458 169.331 141.458 169.331Z" fill="#EDC055"/>
<path d="M146.849 166.11C146.849 166.11 146.982 164.486 147.534 164.81C148.086 165.135 147.191 166.11 147.191 166.11C147.191 166.11 148.337 165.211 148.613 165.71C148.889 166.209 146.848 166.423 146.848 166.423V166.111L146.849 166.11Z" fill="#EDC055"/>
<path d="M138.045 176.423C138.452 171.327 139.546 164.234 136.433 159.138L135.6 159.041C134.904 159.801 134.352 160.699 134.124 161.736C133.219 165.832 134.124 182.518 134.124 182.518L137.438 183.217C137.588 183.249 137.751 183.277 137.923 183.304C137.848 181.827 137.806 179.419 138.045 176.424V176.423Z" fill="#EDC055"/>
<path d="M142.508 159.138C141.155 159.138 140.049 158.036 140.049 156.691V152.194C140.049 150.848 141.156 149.747 142.508 149.747C143.86 149.747 144.968 150.849 144.968 152.194V156.691C145.325 159.041 144.094 159.341 142.508 159.138Z" fill="#F09959"/>
<path d="M144.969 156.888V150.945C144.969 150.286 144.427 149.746 143.764 149.746H141.254C140.591 149.746 140.049 150.286 140.049 150.945V154.757C142 156.512 143.78 156.893 144.969 156.888Z" fill="#E38540"/>
<path d="M148.895 149.129C149.343 152.347 147.702 155.23 145.23 155.57C142.759 155.91 140.391 153.58 139.944 150.363C139.496 147.146 141.137 144.262 143.609 143.922C146.08 143.582 148.448 145.912 148.895 149.129Z" fill="#FCA96A"/>
<path d="M135.512 159.138C131.01 161.136 130.609 175.624 130.408 177.822C130.207 180.02 131.312 187.514 131.914 189.512C132.516 191.51 134.221 193.094 134.311 190.608C134.4 188.121 133.722 186.815 133.722 186.815C133.722 186.815 134.625 188.713 134.927 187.714C135.228 186.714 133.621 185.217 133.621 184.317C133.621 183.417 134.927 178.122 134.927 176.423C134.927 174.725 137.437 169.23 137.437 164.733C137.437 160.237 135.512 159.138 135.512 159.138Z" fill="#FCA96A"/>
<path d="M137.034 157.771C132.92 159.438 131.667 164.234 130.385 168.829L129.103 173.425C129.103 173.425 135.831 175.795 136.232 175.509C136.634 175.224 138.14 166.931 138.04 163.534C137.939 160.137 137.032 157.771 137.032 157.771H137.034Z" fill="#F5CE5C"/>
<path d="M140.858 150.446C141.16 151.239 140.969 152.049 140.429 152.252C139.889 152.456 139.206 151.978 138.904 151.184C138.601 150.391 138.793 149.582 139.333 149.378C139.873 149.174 140.556 149.653 140.858 150.446Z" fill="#FCA96A"/>
<path d="M139.497 148.697C139.497 148.697 140.747 152.554 141 151.15C141.254 149.746 140.853 149.097 141.806 148.697C142.76 148.298 141.505 145.6 142.861 145.849C144.217 146.099 145.32 147.728 147.38 147.338C149.439 146.948 150.293 146.498 149.439 145.349C148.586 144.2 141.555 143.101 141.555 143.101L138.567 146.508L139.497 148.697Z" fill="#7A4E34"/>
<path d="M145.973 218.186C147.279 218.785 147.073 218.036 149.643 218.586C152.215 219.135 154.569 217.787 153.114 217.286C153.08 217.275 153.044 217.261 153.009 217.248C152.531 217.487 152.065 217.826 151.864 217.987C151.529 218.253 150.659 218.054 149.461 217.854C148.264 217.654 148.471 217.998 148.182 217.687C147.893 217.377 146.715 216.559 145.372 216.557C145.323 217.269 145.441 217.943 145.972 218.188L145.973 218.186Z" fill="#2E5B9A"/>
<path d="M133.799 214.927C134.87 217.099 134.359 217.486 135.263 217.636C136.168 217.787 136.473 217.085 137.439 217.42C138.406 217.755 138.272 217.754 138.491 218.019C138.71 218.285 138.61 218.61 138.209 218.714C137.807 218.818 135.732 218.843 134.928 218.714C134.125 218.586 133.589 217.091 133.622 216.556C133.655 216.021 133.799 214.926 133.799 214.926V214.927Z" fill="#2E5B9A"/>
<path d="M107.6 104.693C106.015 102.477 104.421 96.4437 105.838 95.8276C107.254 95.2115 106.899 94.242 108.316 92.4371C109.733 90.6322 115.442 89.9268 117.122 92.9652C118.804 96.0036 119.525 96.311 119.585 97.9412C119.644 99.5701 115.617 103.621 115.617 103.621L107.6 104.693Z" fill="#58556E"/>
<path d="M145.006 140.083C144.544 140.772 144.101 141.283 143.775 141.283C140.712 141.283 140.486 142.479 138.825 143.354C136.692 144.478 137.143 146.202 137.294 146.301C137.444 146.401 141.985 145.61 143.51 144.621C144.776 143.8 145.675 143.354 146.292 142.454C146.409 142.282 146.634 142.048 146.916 141.783C146.23 141.275 145.591 140.705 145.006 140.083Z" fill="#F09959"/>
<path d="M108.647 96.8941C108.647 96.8941 107.642 109.195 105.434 110.538C103.225 111.881 99.0063 116.877 99.6097 127.667C100.212 138.457 101.016 143.112 101.819 147.28C102.621 151.447 117.685 148.907 119.291 147.28C120.898 145.652 122.706 130.765 119.291 123.222C115.877 115.678 112.061 111.415 111.66 109.55C111.259 107.684 113.869 100.191 113.869 100.191L108.647 96.8941Z" fill="#F09959"/>
<path d="M111.62 109.146C111.57 106.795 113.87 100.191 113.87 100.191L108.648 96.8941C108.648 96.8941 108.429 99.5752 107.971 102.572C108.648 106.736 110.004 108.335 111.62 109.146Z" fill="#E38540"/>
<path d="M118.181 100.35C118.684 103.964 117.434 106.792 114.818 107.152C112.204 107.512 109.215 105.269 108.712 101.655C108.209 98.0409 109.92 94.8199 112.536 94.4599C115.15 94.1 117.678 96.7365 118.181 100.35Z" fill="#F09959"/>
<path d="M146.85 114.179C148.388 115.13 149.56 117.509 148.886 119.441C148.213 121.374 147.281 118.895 146.256 117.476C145.232 116.059 145.7 113.468 146.85 114.179Z" fill="#F09959"/>
<path d="M119.501 140.034C118.446 152.651 122.012 181.124 122.037 187.569C122.062 194.013 124.648 211.634 124.648 211.634C124.648 211.634 120.431 212.84 118.774 212.979C117.117 213.119 112.333 197.009 111.624 188.468C110.916 179.925 106.438 164.767 106.438 164.767L107.972 138.76L119.502 140.034H119.501Z" fill="#3E6BAB"/>
<path d="M119.501 140.034L107.971 138.76L106.437 164.767C106.437 164.767 110.915 179.926 111.623 188.468C111.632 188.579 111.642 188.692 111.653 188.807C111.739 175.641 115.586 169.926 119.651 155.985C119.302 149.864 119.159 144.118 119.5 140.034H119.501Z" fill="#2E5B9A"/>
<path d="M119.049 144.26C113.627 162.543 108.656 179.777 105.343 191.167C102.029 202.556 103.025 214.265 103.025 214.265L97.4516 214.707C97.4516 214.707 91.1841 195.934 95.4011 185.773C99.6182 175.612 97.6126 169.491 98.4141 159.997C99.3185 149.287 100.837 141.462 100.837 141.462L119.049 144.261V144.26Z" fill="#3E6BAB"/>
<path d="M119.292 123.222C117.458 119.171 115.509 116.067 114.034 113.77C113.383 113.68 112.559 113.598 111.623 113.58C110.069 113.55 107.363 111.565 105.749 110.262C105.646 110.379 105.541 110.472 105.432 110.538C103.224 111.881 99.0052 116.877 99.6086 127.667C100.211 138.458 97.9345 142.142 98.7385 146.309C99.5413 150.476 117.685 148.906 119.292 147.279C120.899 145.651 122.706 130.764 119.292 123.221V123.222Z" fill="#F37168"/>
<path d="M105.167 107.951L103.537 112.231L113.871 116.411L115.064 115.392C115.064 115.392 113.47 113.081 113.871 111.682C114.272 110.283 114.741 109.884 113.871 109.55C113.001 109.218 109.906 108.684 107.972 107.951C106.038 107.218 105.504 107.07 105.167 107.951Z" fill="#F37168"/>
<path d="M121.138 131.957C120.933 128.745 120.377 125.613 119.293 123.221C118.894 122.339 118.489 121.505 118.086 120.712L116.783 120.148C116.783 120.148 109.553 114.405 104.833 115.477C100.113 116.549 99.912 134.041 102.624 135.959C105.336 137.877 113.469 133.009 115.98 132.586C117.611 132.311 119.802 132.083 121.138 131.955V131.957Z" fill="#D54A41"/>
<path d="M139.465 124.768C136.516 124.763 133.496 124.519 130.993 123.754C123.462 121.456 109.364 115.712 106.591 116.088C104.418 116.382 101.871 118.758 102.172 126.151C102.473 133.545 106.289 132.046 111.055 130.833C115.821 129.621 122.252 130.363 130.991 130.833C133.953 130.992 137.197 130.518 140.191 129.82C140.029 128.127 139.781 126.448 139.464 124.768H139.465Z" fill="#F37168"/>
<path d="M150.311 125.311C149.8 125.035 145.455 125.261 141.301 125.156C141.56 126.6 142.232 128.988 142.388 130.446C146.841 129.155 150.395 129.027 150.395 129.027C150.395 129.027 151.236 125.81 150.311 125.311Z" fill="#F09959"/>
<path d="M137.206 124.443C139.869 124.485 144.284 124.155 144.891 124.555C145.498 124.956 146.573 129.664 144.445 130.265C136.664 132.462 127.928 130.882 117.484 130.174C107.041 129.466 129.312 123.221 129.312 123.221C129.312 123.221 134.988 124.407 137.204 124.443H137.206Z" fill="#F37168"/>
<path d="M107.599 104.693C109.372 103.821 108.491 102.127 108.646 101.002C108.8 99.8777 108.308 98.9779 108.73 99.0541C109.154 99.1302 109.059 103.368 109.594 103.34C110.128 103.313 109.929 100.143 110.493 100.055C111.057 99.967 111.278 99.1775 110.836 97.789C110.394 96.4005 110.748 95.167 111.943 96.2678C113.137 97.3687 115.793 99.9224 117.341 99.5703C118.89 99.2183 118.801 97.6327 118.669 97.4567C118.536 97.2806 114.554 92.8327 114.554 92.8327L106.677 97.324L106.455 101.419L107.599 104.692V104.693Z" fill="#58556E"/>
<path d="M109.014 99.8853C109.12 100.951 109.157 102.565 109.249 102.796C108.547 103.081 107.649 102.509 107.242 101.518C106.835 100.528 106.874 99.2271 107.584 98.9644C108.026 98.8015 108.89 98.6452 109.013 99.8853H109.014Z" fill="#F09959"/>
<path d="M140.193 97.4945C139.076 101.091 132.85 101.141 132.549 102.141C132.247 103.141 132.456 106.263 131.544 108.735C130.087 112.684 129.153 114.747 127.125 115.347C125.098 115.946 124.245 112.605 124.245 112.605C124.245 112.605 127.879 107.837 128.079 107.737C128.28 107.637 130.192 95.4479 130.192 95.4479C130.192 95.4479 135.058 94.5599 135.309 94.4298C135.56 94.2998 139.075 95.8486 139.075 95.8486L140.192 97.4972L140.193 97.4945Z" fill="#58556E"/>
<path d="M145.691 125.5C146.466 125.5 150.432 123.291 151.184 123.221C151.938 123.151 154.9 123.954 154.9 123.954C154.9 123.954 149.185 128.361 149.08 128.305C148.975 128.247 145.689 125.5 145.689 125.5H145.691Z" fill="#F09959"/>
<path d="M162.33 129.298L158.013 128.88C158.013 128.88 155.701 130.917 153.594 131.39C151.487 131.863 149.778 129.618 149.778 129.618L153.05 125.804L158.817 125.156L163.186 125.601L162.332 129.298H162.33Z" fill="#E38540"/>
<path d="M147.969 128.705C147.969 128.705 150.634 130.84 152.893 131.146C155.152 131.452 156.407 130.358 157.211 129.618C158.014 128.88 155.504 128.121 154.601 127.239C153.697 126.359 154.35 124.901 154.35 124.901H150.404L147.971 128.705H147.969Z" fill="#F09959"/>
<path d="M162.331 125.156L157.964 124.679C157.964 124.679 156.156 123.091 155.252 123.222C154.349 123.354 152.034 125.156 152.034 125.156C152.034 125.156 150.054 126.999 150.744 127.199C151.435 127.398 153.443 126.818 153.694 126.358C153.945 125.899 153.192 126.517 155.451 126.358C157.71 126.199 157.961 125.802 157.961 125.802L162.329 126.149V125.154L162.331 125.156Z" fill="#E38540"/>
<path d="M149.259 129.822C149.83 128.948 150.626 128.428 152.036 129.203C153.446 129.978 153.857 131.068 153.597 131.39C153.336 131.712 150.681 130.856 149.686 130.557C148.913 130.326 149.259 129.823 149.259 129.823V129.822Z" fill="#E38540"/>
<path d="M203.316 103.435C204.074 100.592 206.151 93.7351 202.847 92.2323C199.543 90.7295 197.891 88.5213 194.586 89.6497C191.281 90.7768 191.943 93.3607 190.763 94.7689C189.582 96.1771 191.565 100.781 193.453 102.425C195.341 104.068 203.316 103.435 203.316 103.435Z" fill="#58556E"/>
<path d="M162.291 124.799L159.509 124.679L158.314 130.047L162.99 130.923L162.291 124.799Z" fill="#F2E5DE"/>
<path d="M206.492 114.354C210.859 120.461 208.199 125.13 202.751 129.089C197.304 133.048 184.479 134.285 179.057 134.524C173.635 134.763 160.078 130.622 160.078 130.622L160.915 124.681C160.915 124.681 173.752 125.9 178.723 125.052C183.694 124.204 201.317 114.355 201.317 114.355H206.492V114.354Z" fill="#58556E"/>
<path d="M196.307 117.074C194.751 117.902 192.954 118.843 191.1 119.782C189.3 124.443 188.795 129.22 180.061 132.391C178.034 133.127 176.111 133.639 174.336 133.99C176.161 134.359 177.82 134.577 179.058 134.523C182.988 134.35 191.824 134.852 197.904 132.972C197.721 128.322 196.462 120.968 196.307 117.074Z" fill="#3A384D"/>
<path d="M201.417 97.6224L204.731 108.331L197.902 116.691L199.911 109.512L197.902 102.168L201.417 97.6224Z" fill="#F09959"/>
<path d="M201.417 97.6224L197.902 102.168L199.899 109.47C201.14 107.337 202.174 104.77 202.75 101.934L201.417 97.6224Z" fill="#E38540"/>
<path d="M201.53 101.947C200.388 105.483 197.318 107.664 194.675 106.818C192.031 105.972 190.813 102.421 191.954 98.8846C193.096 95.3483 196.164 93.1676 198.809 94.0136C201.454 94.8596 202.671 98.4104 201.53 101.947Z" fill="#F09959"/>
<path d="M198.271 112.675C198.271 112.675 196.252 113.875 196.258 114.807C196.263 115.74 196.258 116.273 196.258 116.273C196.258 116.273 194.523 118.916 193.184 122.324C191.845 125.732 191.915 127.463 191.915 127.463L200.405 114.61L198.272 112.677L198.271 112.675Z" fill="#F37168"/>
<path d="M210.219 214.016C210.152 216.68 207.198 218.562 205.798 219.269C201.404 221.489 200.643 222.875 205.462 222.805C209.109 222.751 211.621 221.334 215.572 221.067C218.076 220.898 216.272 218.13 216.406 216.531C216.54 214.933 215.401 212.684 215.401 212.684L210.219 214.016Z" fill="#3A384D"/>
<path d="M189.131 212.684C189.131 212.684 188.244 213.899 186.102 215.738C183.959 217.577 176.408 217.637 180.429 219.525C182.871 220.672 187.367 219.84 190.055 220.225C192.743 220.61 195.087 220.238 195.287 219.525C195.488 218.812 194.737 213.941 194.737 213.941L189.131 212.684Z" fill="#3A384D"/>
<path d="M193.072 141.922C194.127 154.539 190.561 183.012 190.536 189.457C190.511 195.902 186.851 214.643 186.851 214.643C186.851 214.643 193.916 217.496 195.573 217.636C197.23 217.776 200.741 201.289 201.448 192.746C202.156 184.204 206.134 166.655 206.134 166.655L204.6 140.648L193.07 141.922H193.072Z" fill="#58556E"/>
<path d="M200.502 200.05C200.94 197.381 201.278 194.829 201.451 192.747C202.159 184.204 206.137 166.655 206.137 166.655L205.624 157.979L192.924 157.799C192.66 162.442 192.276 167.304 191.892 171.826C196.77 182.407 199.316 193.555 200.499 200.05H200.502Z" fill="#3A384D"/>
<path d="M193.525 146.148C198.437 172.627 202.053 183.157 205.367 194.546C208.681 205.935 207.926 217.637 207.926 217.637L217.114 218.804C217.114 218.804 220.706 198.076 217.173 187.659C215.005 181.269 216.44 172.611 215.639 163.117C214.736 152.407 213.952 141.46 213.952 141.46L193.525 146.147V146.148Z" fill="#58556E"/>
<path d="M212.627 155.392L196.749 162.215C196.82 162.541 196.678 164.151 196.749 164.472C204.527 165.117 209.448 164.384 215.818 165.917C215.671 164.059 215.374 159.681 215.25 157.798L212.627 155.39V155.392Z" fill="#3A384D"/>
<path d="M205.889 109.308C212.517 115.547 214.928 122.14 214.703 125.763C214.252 133.097 215.654 161.302 215.654 161.302C215.654 161.302 211.76 162.183 205.237 163.371C198.713 164.557 192.419 162.822 192.419 162.822C192.419 162.822 191.315 142.672 191.367 130.018C191.399 122.303 205.889 109.308 205.889 109.308Z" fill="#58556E"/>
<path d="M212.378 161.993C212.55 158.658 213.75 135.182 213.562 134.81C213.362 134.411 205.729 116.692 205.729 116.692C201.645 122.221 201.388 133.744 201.45 139.94C201.505 145.521 203.195 160.671 203.529 163.618C204.095 163.556 204.665 163.475 205.237 163.371C208.112 162.848 210.55 162.369 212.377 161.994L212.378 161.993Z" fill="#3A384D"/>
<path d="M205.368 107.614L204.096 105.148L197.903 110.144L197.534 116.988L205.368 107.614Z" fill="#F2E5DE"/>
<path d="M204.297 113.141C204.297 113.141 206.823 111.988 209.149 112.791C208.193 111.627 207.316 110.471 205.889 109.127C205.889 109.127 191.399 122.121 191.367 129.836C191.359 131.721 191.405 133.633 191.49 135.519C191.537 131.654 190.976 128.862 194.789 123.816C198.169 119.344 205.368 115.673 205.368 115.673L204.297 113.141Z" fill="#3A384D"/>
<path d="M205.435 107L207.257 110.464L202.752 113.675L203.963 115.673C203.963 115.673 198.532 119.109 196.259 120.868C192.448 123.816 191.109 130.793 191.109 130.793C191.109 130.793 191.645 123.816 196.259 118.031C200.478 112.74 205.436 107 205.436 107H205.435Z" fill="#58556E"/>
<path d="M199.2 161.658L218.517 163.99L217.209 176.712L198.837 174.839L199.2 161.658Z" fill="#BDCCD4"/>
<path d="M210.255 153.428L208.313 160.512L205.367 162.491L207.753 162.873C207.753 162.873 207.321 167.085 206.512 169C205.702 170.914 206.572 171.552 209.853 169.319C213.134 167.086 214.044 166.001 213.823 163.384C213.603 160.767 213.001 160.449 213.335 158.279C213.67 156.109 210.189 152.981 210.189 152.981L210.256 153.428H210.255Z" fill="#F09959"/>
<path d="M208.182 157L207.513 160.637L213.862 161.658L214.915 157H208.182Z" fill="#F2E5DE"/>
<path d="M209.932 114.354C212.325 115.333 215.371 124.014 219.826 139.48C220.902 143.217 214.915 160.129 214.915 160.129C214.915 160.129 207.265 159.644 207.17 158.423C207.116 157.722 210.534 144.301 210.082 143.008C209.631 141.716 206.993 137.773 204.731 128.972C202.469 120.171 205.571 112.571 209.932 114.354Z" fill="#58556E"/>
<path d="M192.144 93.5487C189.772 99.4666 194.923 98.8558 197.089 97.0246C199.256 95.1934 199.536 96.7763 199.492 98.9504C199.451 100.992 200.27 99.4995 200.081 101.801C199.892 104.102 199.743 104.212 200.502 103.413C201.262 102.614 201.499 99.7018 201.499 99.7018C201.499 99.7018 201.322 103.472 202.405 103.729C203.488 103.987 203.317 103.436 203.317 103.436L203.562 97.1192L198.789 91.8121C198.789 91.8121 192.665 91.8594 192.659 92.0472C192.652 92.2351 192.144 93.55 192.144 93.55V93.5487Z" fill="#58556E"/>
<path d="M201.5 99.7005C202.235 98.1031 203.854 98.8558 203.422 100.734C202.99 102.613 201.215 102.782 201.215 102.782L201.5 99.7005Z" fill="#F09959"/>
<path d="M72.2446 43.3377C81.9686 43.3377 94.7439 39.6977 98.6902 38.4983C99.287 38.317 99.9036 38.7216 99.9036 39.297V66.2068C99.9036 87.0003 72.6671 103.857 72.6671 103.857C72.6671 103.857 45.4319 87.0003 45.4319 66.2068V40.545C45.4319 39.9932 46.0023 39.5913 46.5871 39.7305C50.3421 40.6251 62.5232 43.3377 72.2446 43.3377Z" fill="#93B1C2"/>
<path opacity="0.7" d="M72.6674 47.7649C79.9621 47.7649 89.0312 45.3845 93.5876 43.506C94.9462 42.9464 96.4856 43.8515 96.4856 45.2125V66.8073C96.4856 84.9919 72.6674 99.7335 72.6674 99.7335C72.6674 99.7335 48.8491 84.9919 48.8491 66.8073V46.1517C48.8491 44.8446 50.2777 43.9422 51.6191 44.3967C56.1306 45.9284 65.3027 47.7635 72.6661 47.7635L72.6674 47.7649Z" fill="#9EC8FF"/>
<path d="M72.9185 53.622V93.9874C72.9185 93.9874 53.9761 81.9781 53.9761 67.7081V51.3507C53.9761 50.397 55.0218 49.7402 55.9988 50.0778C59.5372 51.3008 67.0325 53.6233 72.9185 53.6233V53.622Z" fill="#D6E7F0"/>
<path d="M72.9182 53.6221V93.9875C72.9182 93.9875 92.5379 81.9782 92.5379 67.7082V51.3128C92.5379 50.3696 91.512 49.7101 90.5403 50.0306C86.8685 51.2405 78.8807 53.6221 72.9195 53.6221H72.9182Z" fill="#D6E7F0"/>
<mask id="mask0_979_4001" style="mask-type:luminance" maskUnits="userSpaceOnUse" x="45" y="38" width="55" height="66">
<path d="M72.2443 43.3373C81.9684 43.3373 94.7436 39.6972 98.69 38.4978C99.2868 38.3165 99.9034 38.7211 99.9034 39.2965V66.2063C99.9034 86.9998 72.6668 103.856 72.6668 103.856C72.6668 103.856 45.4316 86.9998 45.4316 66.2063V40.5445C45.4316 39.9927 46.002 39.5908 46.5869 39.73C50.3418 40.6246 62.523 43.3373 72.2443 43.3373Z" fill="white"/>
</mask>
<g mask="url(#mask0_979_4001)">
<g style="mix-blend-mode:overlay">
<path d="M52.9294 65.9425C55.4432 74.0975 56.8665 86.9698 57.5333 94.581C50.5106 88.0667 43.5368 80.3806 43.1855 76.3648C42.7459 71.3415 41.8851 56.8574 42.0342 46.7884C44.9363 50.2209 50.2769 57.3368 52.9294 65.9425Z" fill="url(#paint0_linear_979_4001)"/>
<path d="M66.0764 82.2366C64.0155 72.7272 58.0939 48.9938 42.2371 41.6322C42.4694 38.4979 42.9038 36.4735 43.6313 36.4302C46.536 36.2555 49.9688 37.9185 49.9688 37.9185C65.4599 37.8305 73.0305 61.2132 73.7342 65.2421C74.4379 69.2711 73.6457 104.844 72.1498 105.799C71.8237 106.008 70.2935 105.103 68.0925 103.478C68.0371 99.1996 67.7176 89.8137 66.0764 82.2379V82.2366Z" fill="url(#paint1_linear_979_4001)"/>
</g>
</g>
</g>
<path d="M15 232H279V297H15V232Z" fill="white"/>
<path d="M24.9844 249C24.9844 249.969 24.875 250.833 24.6562 251.594C24.4479 252.354 24.1458 253.026 23.75 253.609C24.3438 254.078 24.8958 254.474 25.4062 254.797C25.9167 255.12 26.3802 255.349 26.7969 255.484C27.1094 255.589 27.3125 255.74 27.4062 255.938C27.5 256.125 27.5469 256.448 27.5469 256.906C27.5469 257.406 27.4948 257.729 27.3906 257.875C27.2865 258.031 27.1667 258.109 27.0312 258.109C26.6458 258.109 26.25 258.026 25.8438 257.859C25.4375 257.703 25.026 257.49 24.6094 257.219C24.1927 256.948 23.7656 256.635 23.3281 256.281C22.901 255.938 22.4635 255.583 22.0156 255.219C20.7969 255.938 19.2396 256.297 17.3438 256.297C16.2708 256.297 15.2865 256.161 14.3906 255.891C13.4948 255.62 12.724 255.198 12.0781 254.625C11.4427 254.042 10.9479 253.307 10.5938 252.422C10.2396 251.526 10.0625 250.453 10.0625 249.203V236.188C10.0625 236.021 10.151 235.896 10.3281 235.812C10.5052 235.729 10.8594 235.688 11.3906 235.688C11.9219 235.688 12.2812 235.729 12.4688 235.812C12.6562 235.896 12.75 236.021 12.75 236.188V248.875C12.75 249.812 12.849 250.609 13.0469 251.266C13.2552 251.911 13.5625 252.438 13.9688 252.844C14.375 253.25 14.8802 253.547 15.4844 253.734C16.099 253.911 16.8177 254 17.6406 254C18.3281 254 18.9635 253.922 19.5469 253.766C20.1302 253.599 20.6302 253.354 21.0469 253.031C21.474 252.708 21.8021 252.302 22.0312 251.812C22.2708 251.323 22.3906 250.745 22.3906 250.078C22.3906 249.745 22.3594 249.391 22.2969 249.016V236.188C22.2969 236.021 22.3854 235.896 22.5625 235.812C22.75 235.729 23.1094 235.688 23.6406 235.688C24.1406 235.688 24.4896 235.729 24.6875 235.812C24.8854 235.896 24.9844 236.021 24.9844 236.188V249ZM30.2031 241.531C30.2031 241.375 30.2917 241.255 30.4688 241.172C30.6458 241.089 30.9844 241.047 31.4844 241.047C32.0052 241.047 32.3542 241.089 32.5312 241.172C32.7083 241.255 32.7969 241.375 32.7969 241.531V250.078C32.7969 250.672 32.849 251.214 32.9531 251.703C33.0573 252.193 33.224 252.615 33.4531 252.969C33.6823 253.312 33.9688 253.583 34.3125 253.781C34.6667 253.969 35.0885 254.062 35.5781 254.062C36.1719 254.062 36.7656 253.833 37.3594 253.375C37.9635 252.917 38.625 252.245 39.3438 251.359V241.531C39.3438 241.375 39.4375 241.255 39.625 241.172C39.8125 241.089 40.1562 241.047 40.6562 241.047C41.1562 241.047 41.4948 241.089 41.6719 241.172C41.849 241.255 41.9375 241.375 41.9375 241.531V250.078C41.9375 250.672 41.9896 251.214 42.0938 251.703C42.2083 252.193 42.3802 252.615 42.6094 252.969C42.8385 253.312 43.125 253.583 43.4688 253.781C43.8229 253.969 44.2396 254.062 44.7188 254.062C45.3125 254.062 45.9062 253.833 46.5 253.375C47.1042 252.917 47.7656 252.245 48.4844 251.359V241.531C48.4844 241.375 48.5677 241.255 48.7344 241.172C48.9115 241.089 49.2604 241.047 49.7812 241.047C50.2917 241.047 50.6354 241.089 50.8125 241.172C50.9896 241.255 51.0781 241.375 51.0781 241.531V261.203C51.0781 261.37 50.9896 261.49 50.8125 261.562C50.6354 261.646 50.2917 261.688 49.7812 261.688C49.2812 261.688 48.9375 261.646 48.75 261.562C48.5729 261.49 48.4844 261.37 48.4844 261.203V254.016C47.7344 254.807 47.0052 255.385 46.2969 255.75C45.599 256.115 44.8906 256.297 44.1719 256.297C43.0052 256.297 42.0729 256.042 41.375 255.531C40.6875 255.01 40.1771 254.339 39.8438 253.516C39.375 254.026 38.9271 254.458 38.5 254.812C38.0833 255.167 37.6771 255.453 37.2812 255.672C36.8958 255.891 36.5156 256.047 36.1406 256.141C35.776 256.245 35.4062 256.297 35.0312 256.297C34.125 256.297 33.3646 256.141 32.75 255.828C32.1354 255.516 31.6354 255.094 31.25 254.562C30.875 254.021 30.6042 253.396 30.4375 252.688C30.2812 251.969 30.2031 251.214 30.2031 250.422V241.531ZM55.6719 241.531C55.6719 241.375 55.7604 241.255 55.9375 241.172C56.1146 241.089 56.4531 241.047 56.9531 241.047C57.474 241.047 57.8229 241.089 58 241.172C58.1771 241.255 58.2656 241.375 58.2656 241.531V250.078C58.2656 250.672 58.3177 251.214 58.4219 251.703C58.526 252.193 58.6927 252.615 58.9219 252.969C59.151 253.312 59.4375 253.583 59.7812 253.781C60.1354 253.969 60.5573 254.062 61.0469 254.062C61.6406 254.062 62.2344 253.833 62.8281 253.375C63.4323 252.917 64.0938 252.245 64.8125 251.359V241.531C64.8125 241.375 64.9062 241.255 65.0938 241.172C65.2812 241.089 65.625 241.047 66.125 241.047C66.625 241.047 66.9635 241.089 67.1406 241.172C67.3177 241.255 67.4062 241.375 67.4062 241.531V250.078C67.4062 250.672 67.4583 251.214 67.5625 251.703C67.6771 252.193 67.849 252.615 68.0781 252.969C68.3073 253.312 68.5938 253.583 68.9375 253.781C69.2917 253.969 69.7083 254.062 70.1875 254.062C70.7812 254.062 71.375 253.833 71.9688 253.375C72.5729 252.917 73.2344 252.245 73.9531 251.359V241.531C73.9531 241.375 74.0365 241.255 74.2031 241.172C74.3802 241.089 74.7292 241.047 75.25 241.047C75.7604 241.047 76.1042 241.089 76.2812 241.172C76.4583 241.255 76.5469 241.375 76.5469 241.531V255.594C76.5469 255.76 76.4688 255.885 76.3125 255.969C76.1562 256.042 75.8438 256.078 75.375 256.078C74.9062 256.078 74.5938 256.042 74.4375 255.969C74.2812 255.885 74.2031 255.76 74.2031 255.594V253.734C73.4115 254.62 72.6406 255.271 71.8906 255.688C71.151 256.094 70.401 256.297 69.6406 256.297C68.474 256.297 67.5417 256.042 66.8438 255.531C66.1562 255.01 65.6458 254.339 65.3125 253.516C64.8438 254.026 64.3958 254.458 63.9688 254.812C63.5521 255.167 63.1458 255.453 62.75 255.672C62.3646 255.891 61.9844 256.047 61.6094 256.141C61.2448 256.245 60.875 256.297 60.5 256.297C59.5938 256.297 58.8333 256.141 58.2188 255.828C57.6042 255.516 57.1042 255.094 56.7188 254.562C56.3438 254.021 56.0729 253.396 55.9062 252.688C55.75 251.969 55.6719 251.214 55.6719 250.422V241.531ZM81.3281 234.719C81.3281 234.562 81.4167 234.443 81.5938 234.359C81.7708 234.276 82.1094 234.234 82.6094 234.234C83.1094 234.234 83.4531 234.276 83.6406 234.359C83.8281 234.443 83.9219 234.562 83.9219 234.719V243.156C84.6927 242.354 85.4427 241.771 86.1719 241.406C86.901 241.042 87.651 240.859 88.4219 240.859C89.1719 240.859 89.8542 240.974 90.4688 241.203C91.0938 241.422 91.625 241.771 92.0625 242.25C92.5 242.729 92.8385 243.349 93.0781 244.109C93.3281 244.87 93.4531 245.792 93.4531 246.875V255.609C93.4531 255.776 93.3646 255.901 93.1875 255.984C93.0104 256.057 92.6667 256.094 92.1562 256.094C91.6562 256.094 91.3125 256.057 91.125 255.984C90.9479 255.901 90.8594 255.776 90.8594 255.609V247.047C90.8594 246.516 90.8073 246.01 90.7031 245.531C90.6094 245.052 90.4427 244.63 90.2031 244.266C89.974 243.901 89.6667 243.615 89.2812 243.406C88.9062 243.188 88.4427 243.078 87.8906 243.078C87.2344 243.078 86.5885 243.307 85.9531 243.766C85.3177 244.224 84.6406 244.896 83.9219 245.781V255.609C83.9219 255.776 83.8333 255.901 83.6562 255.984C83.4792 256.057 83.1354 256.094 82.625 256.094C82.125 256.094 81.7812 256.057 81.5938 255.984C81.4167 255.901 81.3281 255.776 81.3281 255.609V234.719ZM98.1406 241.531C98.1406 241.375 98.224 241.255 98.3906 241.172C98.5573 241.089 98.8646 241.047 99.3125 241.047C99.7917 241.047 100.104 241.089 100.25 241.172C100.406 241.255 100.484 241.375 100.484 241.531V243.391C101.297 242.505 102.089 241.859 102.859 241.453C103.63 241.047 104.422 240.844 105.234 240.844C105.984 240.844 106.667 240.958 107.281 241.188C107.906 241.406 108.438 241.755 108.875 242.234C109.312 242.714 109.651 243.333 109.891 244.094C110.141 244.854 110.266 245.776 110.266 246.859V255.609C110.266 255.776 110.177 255.901 110 255.984C109.823 256.057 109.479 256.094 108.969 256.094C108.469 256.094 108.125 256.057 107.938 255.984C107.76 255.901 107.672 255.776 107.672 255.609V247.031C107.672 246.5 107.62 245.995 107.516 245.516C107.422 245.036 107.255 244.615 107.016 244.25C106.786 243.885 106.479 243.599 106.094 243.391C105.719 243.172 105.255 243.062 104.703 243.062C104.047 243.062 103.401 243.292 102.766 243.75C102.13 244.208 101.453 244.88 100.734 245.766V255.609C100.734 255.776 100.646 255.901 100.469 255.984C100.292 256.057 99.9479 256.094 99.4375 256.094C98.9375 256.094 98.5938 256.057 98.4062 255.984C98.2292 255.901 98.1406 255.776 98.1406 255.609V241.531ZM125.047 261.594C124.87 261.594 124.714 261.547 124.578 261.453C124.453 261.37 124.391 261.193 124.391 260.922V254C123.62 254.802 122.87 255.385 122.141 255.75C121.411 256.115 120.661 256.297 119.891 256.297C119.141 256.297 118.453 256.188 117.828 255.969C117.214 255.74 116.688 255.385 116.25 254.906C115.812 254.427 115.469 253.807 115.219 253.047C114.979 252.276 114.859 251.354 114.859 250.281V241.547C114.859 241.38 114.948 241.26 115.125 241.188C115.302 241.104 115.646 241.062 116.156 241.062C116.656 241.062 116.995 241.104 117.172 241.188C117.359 241.26 117.453 241.38 117.453 241.547V250.109C117.453 250.641 117.5 251.146 117.594 251.625C117.698 252.104 117.865 252.526 118.094 252.891C118.333 253.255 118.641 253.547 119.016 253.766C119.401 253.974 119.87 254.078 120.422 254.078C121.078 254.078 121.724 253.849 122.359 253.391C122.995 252.932 123.672 252.26 124.391 251.375V234.719C124.391 234.552 124.479 234.432 124.656 234.359C124.833 234.276 125.177 234.234 125.688 234.234C126.188 234.234 126.526 234.276 126.703 234.359C126.891 234.432 126.984 234.552 126.984 234.719V259.453H130.594C130.74 259.453 130.859 259.531 130.953 259.688C131.057 259.854 131.109 260.135 131.109 260.531C131.109 260.906 131.062 261.177 130.969 261.344C130.875 261.51 130.75 261.594 130.594 261.594H125.047ZM131.672 241.531C131.672 241.375 131.76 241.255 131.938 241.172C132.115 241.089 132.453 241.047 132.953 241.047C133.474 241.047 133.823 241.089 134 241.172C134.177 241.255 134.266 241.375 134.266 241.531V250.078C134.266 250.672 134.318 251.214 134.422 251.703C134.526 252.193 134.693 252.615 134.922 252.969C135.151 253.312 135.438 253.583 135.781 253.781C136.135 253.969 136.557 254.062 137.047 254.062C137.641 254.062 138.234 253.833 138.828 253.375C139.432 252.917 140.094 252.245 140.812 251.359V241.531C140.812 241.375 140.906 241.255 141.094 241.172C141.281 241.089 141.625 241.047 142.125 241.047C142.625 241.047 142.964 241.089 143.141 241.172C143.318 241.255 143.406 241.375 143.406 241.531V250.078C143.406 250.672 143.458 251.214 143.562 251.703C143.677 252.193 143.849 252.615 144.078 252.969C144.307 253.312 144.594 253.583 144.938 253.781C145.292 253.969 145.708 254.062 146.188 254.062C146.781 254.062 147.375 253.833 147.969 253.375C148.573 252.917 149.234 252.245 149.953 251.359V241.531C149.953 241.375 150.036 241.255 150.203 241.172C150.38 241.089 150.729 241.047 151.25 241.047C151.76 241.047 152.104 241.089 152.281 241.172C152.458 241.255 152.547 241.375 152.547 241.531V255.594C152.547 255.76 152.469 255.885 152.312 255.969C152.156 256.042 151.844 256.078 151.375 256.078C150.906 256.078 150.594 256.042 150.438 255.969C150.281 255.885 150.203 255.76 150.203 255.594V253.734C149.411 254.62 148.641 255.271 147.891 255.688C147.151 256.094 146.401 256.297 145.641 256.297C144.474 256.297 143.542 256.042 142.844 255.531C142.156 255.01 141.646 254.339 141.312 253.516C140.844 254.026 140.396 254.458 139.969 254.812C139.552 255.167 139.146 255.453 138.75 255.672C138.365 255.891 137.984 256.047 137.609 256.141C137.245 256.245 136.875 256.297 136.5 256.297C135.594 256.297 134.833 256.141 134.219 255.828C133.604 255.516 133.104 255.094 132.719 254.562C132.344 254.021 132.073 253.396 131.906 252.688C131.75 251.969 131.672 251.214 131.672 250.422V241.531ZM169.375 261.188C169.375 261.354 169.281 261.479 169.094 261.562C168.917 261.646 168.578 261.688 168.078 261.688C167.568 261.688 167.224 261.646 167.047 261.562C166.87 261.479 166.781 261.354 166.781 261.188V253.984C166.354 254.411 165.948 254.776 165.562 255.078C165.177 255.37 164.797 255.609 164.422 255.797C164.047 255.974 163.667 256.099 163.281 256.172C162.906 256.255 162.516 256.297 162.109 256.297C161.089 256.297 160.219 256.099 159.5 255.703C158.781 255.297 158.193 254.755 157.734 254.078C157.286 253.391 156.958 252.589 156.75 251.672C156.542 250.755 156.438 249.781 156.438 248.75C156.438 247.542 156.568 246.453 156.828 245.484C157.089 244.505 157.474 243.672 157.984 242.984C158.505 242.297 159.141 241.771 159.891 241.406C160.651 241.031 161.526 240.844 162.516 240.844C162.943 240.844 163.333 240.891 163.688 240.984C164.052 241.068 164.411 241.208 164.766 241.406C165.13 241.594 165.495 241.844 165.859 242.156C166.234 242.458 166.641 242.823 167.078 243.25V241.547C167.078 241.37 167.161 241.245 167.328 241.172C167.505 241.099 167.812 241.062 168.25 241.062C168.677 241.062 168.969 241.099 169.125 241.172C169.292 241.245 169.375 241.37 169.375 241.547V253.859H172.969C173.115 253.859 173.234 253.943 173.328 254.109C173.432 254.266 173.484 254.542 173.484 254.938C173.484 255.312 173.438 255.583 173.344 255.75C173.25 255.917 173.125 256 172.969 256H169.375V261.188ZM166.781 245.719C166.083 244.844 165.411 244.182 164.766 243.734C164.12 243.286 163.438 243.062 162.719 243.062C162.062 243.062 161.505 243.219 161.047 243.531C160.589 243.844 160.214 244.255 159.922 244.766C159.641 245.276 159.432 245.854 159.297 246.5C159.172 247.146 159.109 247.802 159.109 248.469C159.109 249.188 159.161 249.885 159.266 250.562C159.38 251.24 159.573 251.839 159.844 252.359C160.115 252.88 160.474 253.302 160.922 253.625C161.37 253.938 161.932 254.094 162.609 254.094C162.943 254.094 163.271 254.047 163.594 253.953C163.917 253.859 164.245 253.703 164.578 253.484C164.922 253.266 165.271 252.984 165.625 252.641C165.99 252.286 166.375 251.854 166.781 251.344V245.719ZM175.422 241.547C175.422 241.391 175.505 241.271 175.672 241.188C175.839 241.104 176.146 241.062 176.594 241.062C177.073 241.062 177.385 241.104 177.531 241.188C177.688 241.271 177.766 241.391 177.766 241.547V243.406C178.578 242.521 179.37 241.875 180.141 241.469C180.911 241.052 181.703 240.844 182.516 240.844C183.266 240.844 183.948 240.958 184.562 241.188C185.188 241.406 185.719 241.76 186.156 242.25C186.594 242.729 186.932 243.349 187.172 244.109C187.422 244.87 187.547 245.792 187.547 246.875V255.609C187.547 255.776 187.458 255.901 187.281 255.984C187.104 256.057 186.76 256.094 186.25 256.094C185.75 256.094 185.406 256.057 185.219 255.984C185.042 255.901 184.953 255.776 184.953 255.609V247.047C184.953 246.516 184.901 246.01 184.797 245.531C184.703 245.052 184.536 244.63 184.297 244.266C184.068 243.901 183.76 243.615 183.375 243.406C183 243.188 182.536 243.078 181.984 243.078C181.328 243.078 180.682 243.307 180.047 243.766C179.411 244.224 178.734 244.896 178.016 245.781V261.203C178.016 261.37 177.927 261.49 177.75 261.562C177.573 261.646 177.229 261.688 176.719 261.688C176.219 261.688 175.875 261.646 175.688 261.562C175.51 261.49 175.422 261.37 175.422 261.203V241.547ZM192.234 241.531C192.234 241.375 192.318 241.255 192.484 241.172C192.651 241.089 192.958 241.047 193.406 241.047C193.885 241.047 194.198 241.089 194.344 241.172C194.5 241.255 194.578 241.375 194.578 241.531V243.391C195.391 242.505 196.182 241.859 196.953 241.453C197.724 241.047 198.516 240.844 199.328 240.844C200.078 240.844 200.76 240.958 201.375 241.188C202 241.406 202.531 241.755 202.969 242.234C203.406 242.714 203.745 243.333 203.984 244.094C204.234 244.854 204.359 245.776 204.359 246.859V255.609C204.359 255.776 204.271 255.901 204.094 255.984C203.917 256.057 203.573 256.094 203.062 256.094C202.562 256.094 202.219 256.057 202.031 255.984C201.854 255.901 201.766 255.776 201.766 255.609V247.031C201.766 246.5 201.714 245.995 201.609 245.516C201.516 245.036 201.349 244.615 201.109 244.25C200.88 243.885 200.573 243.599 200.188 243.391C199.812 243.172 199.349 243.062 198.797 243.062C198.141 243.062 197.495 243.292 196.859 243.75C196.224 244.208 195.547 244.88 194.828 245.766V255.609C194.828 255.776 194.74 255.901 194.562 255.984C194.385 256.057 194.042 256.094 193.531 256.094C193.031 256.094 192.688 256.057 192.5 255.984C192.323 255.901 192.234 255.776 192.234 255.609V241.531ZM218.312 253.859C218.469 253.859 218.594 253.943 218.688 254.109C218.781 254.276 218.828 254.547 218.828 254.922C218.828 255.318 218.776 255.599 218.672 255.766C218.578 255.922 218.458 256 218.312 256H209.75C209.448 256 209.24 255.906 209.125 255.719C209.01 255.531 208.953 255.307 208.953 255.047V241.531C208.953 241.365 209.042 241.245 209.219 241.172C209.396 241.089 209.74 241.047 210.25 241.047C210.75 241.047 211.089 241.089 211.266 241.172C211.453 241.245 211.547 241.365 211.547 241.531V253.859H218.312ZM237.578 251.812C237.578 252.562 237.438 253.219 237.156 253.781C236.885 254.344 236.516 254.812 236.047 255.188C235.578 255.562 235.026 255.839 234.391 256.016C233.755 256.203 233.078 256.297 232.359 256.297C231.651 256.297 230.974 256.208 230.328 256.031C229.682 255.865 229.109 255.599 228.609 255.234C228.12 254.87 227.724 254.406 227.422 253.844C227.13 253.271 226.984 252.594 226.984 251.812C226.984 251.062 227.12 250.411 227.391 249.859C227.661 249.297 228.036 248.833 228.516 248.469C229.005 248.104 229.578 247.833 230.234 247.656C230.891 247.479 231.604 247.391 232.375 247.391H234.984V247.047C234.984 246.516 234.875 246.01 234.656 245.531C234.448 245.052 234.125 244.63 233.688 244.266C233.25 243.901 232.698 243.615 232.031 243.406C231.365 243.188 230.578 243.078 229.672 243.078C229.141 243.078 228.589 243.125 228.016 243.219C227.443 243.312 226.875 243.469 226.312 243.688C225.76 243.896 225.229 244.172 224.719 244.516C224.219 244.859 223.766 245.281 223.359 245.781V261.203C223.359 261.37 223.271 261.49 223.094 261.562C222.917 261.646 222.573 261.688 222.062 261.688C221.562 261.688 221.219 261.646 221.031 261.562C220.854 261.49 220.766 261.37 220.766 261.203V241.547C220.766 241.391 220.849 241.271 221.016 241.188C221.182 241.104 221.49 241.062 221.938 241.062C222.417 241.062 222.729 241.104 222.875 241.188C223.031 241.271 223.109 241.391 223.109 241.547V243.406C223.516 242.969 223.974 242.589 224.484 242.266C225.005 241.943 225.562 241.677 226.156 241.469C226.76 241.26 227.391 241.109 228.047 241.016C228.703 240.911 229.37 240.859 230.047 240.859C230.953 240.859 231.854 240.974 232.75 241.203C233.646 241.422 234.453 241.771 235.172 242.25C235.891 242.729 236.469 243.349 236.906 244.109C237.354 244.87 237.578 245.792 237.578 246.875V247.391H240.141C240.297 247.391 240.422 247.474 240.516 247.641C240.609 247.807 240.656 248.078 240.656 248.453C240.656 248.849 240.604 249.13 240.5 249.297C240.406 249.453 240.286 249.531 240.141 249.531H237.578V251.812ZM229.656 251.812C229.656 252.219 229.724 252.568 229.859 252.859C229.995 253.151 230.182 253.391 230.422 253.578C230.661 253.766 230.948 253.906 231.281 254C231.615 254.083 231.974 254.125 232.359 254.125C233.234 254.125 233.891 253.922 234.328 253.516C234.766 253.109 234.984 252.542 234.984 251.812V249.531H232.375C232.021 249.531 231.677 249.562 231.344 249.625C231.021 249.688 230.734 249.802 230.484 249.969C230.234 250.135 230.031 250.37 229.875 250.672C229.729 250.964 229.656 251.344 229.656 251.812ZM246.109 256.406C246.109 257.188 246.047 257.911 245.922 258.578C245.797 259.245 245.578 259.823 245.266 260.312C244.953 260.802 244.526 261.182 243.984 261.453C243.453 261.734 242.781 261.875 241.969 261.875C241.531 261.875 241.193 261.854 240.953 261.812C240.714 261.771 240.536 261.698 240.422 261.594C240.297 261.5 240.224 261.375 240.203 261.219C240.182 261.062 240.172 260.87 240.172 260.641C240.172 260.255 240.203 259.984 240.266 259.828C240.328 259.672 240.432 259.594 240.578 259.594C240.641 259.594 240.766 259.604 240.953 259.625C241.13 259.656 241.339 259.672 241.578 259.672C242.057 259.672 242.427 259.568 242.688 259.359C242.948 259.151 243.141 258.885 243.266 258.562C243.391 258.24 243.464 257.885 243.484 257.5C243.505 257.115 243.516 256.745 243.516 256.391V241.547C243.516 241.391 243.604 241.271 243.781 241.188C243.969 241.104 244.312 241.062 244.812 241.062C245.312 241.062 245.651 241.104 245.828 241.188C246.016 241.271 246.109 241.391 246.109 241.547V256.406ZM250.891 241.531C250.891 241.375 250.974 241.255 251.141 241.172C251.307 241.089 251.615 241.047 252.062 241.047C252.542 241.047 252.854 241.089 253 241.172C253.156 241.255 253.234 241.375 253.234 241.531V243.391C254.047 242.505 254.839 241.859 255.609 241.453C256.38 241.047 257.172 240.844 257.984 240.844C258.734 240.844 259.417 240.958 260.031 241.188C260.656 241.406 261.188 241.755 261.625 242.234C262.062 242.714 262.401 243.333 262.641 244.094C262.891 244.854 263.016 245.776 263.016 246.859V255.609C263.016 255.776 262.927 255.901 262.75 255.984C262.573 256.057 262.229 256.094 261.719 256.094C261.219 256.094 260.875 256.057 260.688 255.984C260.51 255.901 260.422 255.776 260.422 255.609V247.031C260.422 246.5 260.37 245.995 260.266 245.516C260.172 245.036 260.005 244.615 259.766 244.25C259.536 243.885 259.229 243.599 258.844 243.391C258.469 243.172 258.005 243.062 257.453 243.062C256.797 243.062 256.151 243.292 255.516 243.75C254.88 244.208 254.203 244.88 253.484 245.766V255.609C253.484 255.776 253.396 255.901 253.219 255.984C253.042 256.057 252.698 256.094 252.188 256.094C251.688 256.094 251.344 256.057 251.156 255.984C250.979 255.901 250.891 255.776 250.891 255.609V241.531ZM276.969 253.859C277.125 253.859 277.25 253.943 277.344 254.109C277.438 254.276 277.484 254.547 277.484 254.922C277.484 255.318 277.432 255.599 277.328 255.766C277.234 255.922 277.115 256 276.969 256H268.406C268.104 256 267.896 255.906 267.781 255.719C267.667 255.531 267.609 255.307 267.609 255.047V241.531C267.609 241.365 267.698 241.245 267.875 241.172C268.052 241.089 268.396 241.047 268.906 241.047C269.406 241.047 269.745 241.089 269.922 241.172C270.109 241.245 270.203 241.365 270.203 241.531V253.859H276.969ZM281.125 234.328C281.427 234.328 281.635 234.422 281.75 234.609C281.865 234.797 281.922 235.021 281.922 235.281V250.109C281.922 250.641 281.969 251.146 282.062 251.625C282.167 252.104 282.333 252.526 282.562 252.891C282.802 253.255 283.109 253.547 283.484 253.766C283.87 253.974 284.339 254.078 284.891 254.078C285.547 254.078 286.193 253.849 286.828 253.391C287.464 252.932 288.141 252.26 288.859 251.375V241.547C288.859 241.38 288.948 241.26 289.125 241.188C289.302 241.104 289.646 241.062 290.156 241.062C290.656 241.062 290.995 241.104 291.172 241.188C291.359 241.26 291.453 241.38 291.453 241.547V255.609C291.453 255.766 291.37 255.885 291.203 255.969C291.036 256.052 290.729 256.094 290.281 256.094C289.802 256.094 289.484 256.052 289.328 255.969C289.182 255.885 289.109 255.766 289.109 255.609V253.75C288.297 254.635 287.505 255.281 286.734 255.688C285.964 256.094 285.172 256.297 284.359 256.297C283.609 256.297 282.922 256.188 282.297 255.969C281.682 255.74 281.156 255.385 280.719 254.906C280.281 254.427 279.938 253.807 279.688 253.047C279.448 252.276 279.328 251.354 279.328 250.281V236.469H276.062C275.917 236.469 275.797 236.391 275.703 236.234C275.599 236.068 275.547 235.786 275.547 235.391C275.547 235.016 275.594 234.745 275.688 234.578C275.781 234.411 275.906 234.328 276.062 234.328H281.125Z" fill="black"/>
<defs>
<linearGradient id="paint0_linear_979_4001" x1="19.9311" y1="25.6704" x2="81.8587" y2="125.061" gradientUnits="userSpaceOnUse">
<stop stop-color="white"/>
<stop offset="1"/>
</linearGradient>
<linearGradient id="paint1_linear_979_4001" x1="31.1782" y1="18.6607" x2="93.1071" y2="118.053" gradientUnits="userSpaceOnUse">
<stop stop-color="white"/>
<stop offset="1"/>
</linearGradient>
<clipPath id="clip0_979_4001">
<rect width="264.061" height="262.727" fill="white" transform="translate(14.9045 0.691406)"/>
</clipPath>
</defs>
</svg>
