<svg width="270" height="273" viewBox="0 0 270 273" fill="none" xmlns="http://www.w3.org/2000/svg">
<path d="M28.4822 228.65C28.4822 229.619 28.3728 230.483 28.1541 231.244C27.9458 232.004 27.6437 232.676 27.2478 233.259C27.8416 233.728 28.3937 234.124 28.9041 234.447C29.4145 234.77 29.8781 234.999 30.2947 235.134C30.6072 235.239 30.8103 235.39 30.9041 235.587C30.9978 235.775 31.0447 236.098 31.0447 236.556C31.0447 237.056 30.9926 237.379 30.8885 237.525C30.7843 237.681 30.6645 237.759 30.5291 237.759C30.1437 237.759 29.7478 237.676 29.3416 237.509C28.9353 237.353 28.5239 237.14 28.1072 236.869C27.6906 236.598 27.2635 236.285 26.826 235.931C26.3989 235.587 25.9614 235.233 25.5135 234.869C24.2947 235.587 22.7374 235.947 20.8416 235.947C19.7687 235.947 18.7843 235.811 17.8885 235.541C16.9926 235.27 16.2218 234.848 15.576 234.275C14.9406 233.692 14.4458 232.957 14.0916 232.072C13.7374 231.176 13.5603 230.103 13.5603 228.853V215.837C13.5603 215.671 13.6489 215.546 13.826 215.462C14.0031 215.379 14.3572 215.337 14.8885 215.337C15.4197 215.337 15.7791 215.379 15.9666 215.462C16.1541 215.546 16.2478 215.671 16.2478 215.837V228.525C16.2478 229.462 16.3468 230.259 16.5447 230.916C16.7531 231.561 17.0603 232.087 17.4666 232.494C17.8728 232.9 18.3781 233.197 18.9822 233.384C19.5968 233.561 20.3156 233.65 21.1385 233.65C21.826 233.65 22.4614 233.572 23.0447 233.416C23.6281 233.249 24.1281 233.004 24.5447 232.681C24.9718 232.358 25.2999 231.952 25.5291 231.462C25.7687 230.973 25.8885 230.395 25.8885 229.728C25.8885 229.395 25.8572 229.041 25.7947 228.666V215.837C25.7947 215.671 25.8833 215.546 26.0603 215.462C26.2478 215.379 26.6072 215.337 27.1385 215.337C27.6385 215.337 27.9874 215.379 28.1853 215.462C28.3833 215.546 28.4822 215.671 28.4822 215.837V228.65ZM54.4822 235.259C54.4822 235.416 54.3885 235.535 54.201 235.619C54.0135 235.702 53.6697 235.744 53.1697 235.744C52.6697 235.744 52.3312 235.702 52.1541 235.619C51.977 235.535 51.8885 235.416 51.8885 235.259V226.712C51.8885 226.119 51.8312 225.577 51.7166 225.087C51.6124 224.598 51.4458 224.181 51.2166 223.837C50.9874 223.483 50.6958 223.212 50.3416 223.025C49.9978 222.827 49.5864 222.728 49.1072 222.728C48.5135 222.728 47.9145 222.957 47.3103 223.416C46.7166 223.874 46.0603 224.546 45.3416 225.431V235.244C45.3416 235.41 45.2635 235.535 45.1072 235.619C44.951 235.692 44.6385 235.728 44.1697 235.728C43.701 235.728 43.3885 235.692 43.2322 235.619C43.076 235.535 42.9978 235.41 42.9978 235.244V233.384C42.2062 234.27 41.4353 234.921 40.6853 235.337C39.9458 235.744 39.1958 235.947 38.4353 235.947C37.7374 235.947 37.0916 235.843 36.4978 235.634C35.9145 235.416 35.4093 235.077 34.9822 234.619C34.5551 234.16 34.2166 233.577 33.9666 232.869C33.727 232.15 33.6072 231.291 33.6072 230.291V221.181C33.6072 221.025 33.701 220.905 33.8885 220.822C34.076 220.739 34.4197 220.697 34.9197 220.697C35.4197 220.697 35.7583 220.739 35.9353 220.822C36.1124 220.905 36.201 221.025 36.201 221.181V229.728C36.201 230.322 36.2531 230.864 36.3572 231.353C36.4718 231.843 36.6437 232.265 36.8728 232.619C37.102 232.962 37.3885 233.233 37.7322 233.431C38.0864 233.619 38.5031 233.712 38.9822 233.712C39.576 233.712 40.1697 233.483 40.7635 233.025C41.3676 232.567 42.0291 231.895 42.7478 231.009V221.181C42.7478 221.015 42.826 220.895 42.9822 220.822C43.1385 220.739 43.451 220.697 43.9197 220.697C44.3885 220.697 44.701 220.739 44.8572 220.822C45.0135 220.895 45.0916 221.015 45.0916 221.181V223.056C45.8833 222.171 46.6489 221.525 47.3885 221.119C48.1385 220.702 48.8937 220.494 49.6541 220.494C50.352 220.494 50.9926 220.603 51.576 220.822C52.1697 221.03 52.6801 221.364 53.1072 221.822C53.5447 222.28 53.8833 222.869 54.1228 223.587C54.3624 224.296 54.4822 225.15 54.4822 226.15V235.259ZM59.1697 221.181C59.1697 221.025 59.2531 220.905 59.4197 220.822C59.5864 220.739 59.8937 220.697 60.3416 220.697C60.8208 220.697 61.1333 220.739 61.2791 220.822C61.4353 220.905 61.5135 221.025 61.5135 221.181V223.041C62.326 222.155 63.1176 221.509 63.8885 221.103C64.6593 220.697 65.451 220.494 66.2635 220.494C67.0135 220.494 67.6958 220.608 68.3103 220.837C68.9353 221.056 69.4666 221.405 69.9041 221.884C70.3416 222.364 70.6801 222.983 70.9197 223.744C71.1697 224.504 71.2947 225.426 71.2947 226.509V235.259C71.2947 235.426 71.2062 235.551 71.0291 235.634C70.852 235.707 70.5083 235.744 69.9978 235.744C69.4978 235.744 69.1541 235.707 68.9666 235.634C68.7895 235.551 68.701 235.426 68.701 235.259V226.681C68.701 226.15 68.6489 225.645 68.5447 225.166C68.451 224.686 68.2843 224.265 68.0447 223.9C67.8156 223.535 67.5083 223.249 67.1228 223.041C66.7478 222.822 66.2843 222.712 65.7322 222.712C65.076 222.712 64.4301 222.942 63.7947 223.4C63.1593 223.858 62.4822 224.53 61.7635 225.416V235.259C61.7635 235.426 61.6749 235.551 61.4978 235.634C61.3208 235.707 60.977 235.744 60.4666 235.744C59.9666 235.744 59.6228 235.707 59.4353 235.634C59.2583 235.551 59.1697 235.426 59.1697 235.259V221.181ZM88.0135 216.119V235.259C88.0135 235.416 87.9301 235.535 87.7635 235.619C87.5968 235.702 87.2895 235.744 86.8416 235.744C86.3624 235.744 86.0447 235.702 85.8885 235.619C85.7426 235.535 85.6697 235.416 85.6697 235.259V233.4C84.8572 234.285 84.0656 234.931 83.2947 235.337C82.5239 235.744 81.7322 235.947 80.9197 235.947C80.1697 235.947 79.4822 235.837 78.8572 235.619C78.2426 235.39 77.7166 235.035 77.2791 234.556C76.8416 234.077 76.4978 233.457 76.2478 232.697C76.0083 231.926 75.8885 231.004 75.8885 229.931V221.181C75.8885 221.015 75.977 220.895 76.1541 220.822C76.3312 220.739 76.6749 220.697 77.1853 220.697C77.6853 220.697 78.0239 220.739 78.201 220.822C78.3885 220.895 78.4822 221.015 78.4822 221.181V229.759C78.4822 230.291 78.5291 230.796 78.6228 231.275C78.727 231.754 78.8937 232.176 79.1228 232.541C79.3624 232.905 79.6697 233.197 80.0447 233.416C80.4301 233.624 80.8989 233.728 81.451 233.728C82.1072 233.728 82.7531 233.499 83.3885 233.041C84.0239 232.582 84.701 231.91 85.4197 231.025V214.634C85.4197 214.468 85.477 214.317 85.5916 214.181C85.7062 214.046 85.8833 213.978 86.1228 213.978H91.6228C91.7687 213.978 91.8885 214.061 91.9822 214.228C92.0864 214.384 92.1385 214.66 92.1385 215.056C92.1385 215.431 92.0916 215.702 91.9978 215.869C91.9041 216.035 91.7791 216.119 91.6228 216.119H88.0135ZM92.701 221.181C92.701 221.025 92.7895 220.905 92.9666 220.822C93.1437 220.739 93.4822 220.697 93.9822 220.697C94.5031 220.697 94.852 220.739 95.0291 220.822C95.2062 220.905 95.2947 221.025 95.2947 221.181V229.728C95.2947 230.322 95.3468 230.864 95.451 231.353C95.5551 231.843 95.7218 232.265 95.951 232.619C96.1801 232.962 96.4666 233.233 96.8103 233.431C97.1645 233.619 97.5864 233.712 98.076 233.712C98.6697 233.712 99.2635 233.483 99.8572 233.025C100.461 232.567 101.123 231.895 101.842 231.009V221.181C101.842 221.025 101.935 220.905 102.123 220.822C102.31 220.739 102.654 220.697 103.154 220.697C103.654 220.697 103.993 220.739 104.17 220.822C104.347 220.905 104.435 221.025 104.435 221.181V229.728C104.435 230.322 104.487 230.864 104.592 231.353C104.706 231.843 104.878 232.265 105.107 232.619C105.336 232.962 105.623 233.233 105.967 233.431C106.321 233.619 106.737 233.712 107.217 233.712C107.81 233.712 108.404 233.483 108.998 233.025C109.602 232.567 110.263 231.895 110.982 231.009V221.181C110.982 221.025 111.066 220.905 111.232 220.822C111.409 220.739 111.758 220.697 112.279 220.697C112.79 220.697 113.133 220.739 113.31 220.822C113.487 220.905 113.576 221.025 113.576 221.181V235.244C113.576 235.41 113.498 235.535 113.342 235.619C113.185 235.692 112.873 235.728 112.404 235.728C111.935 235.728 111.623 235.692 111.467 235.619C111.31 235.535 111.232 235.41 111.232 235.244V233.384C110.441 234.27 109.67 234.921 108.92 235.337C108.18 235.744 107.43 235.947 106.67 235.947C105.503 235.947 104.571 235.692 103.873 235.181C103.185 234.66 102.675 233.989 102.342 233.166C101.873 233.676 101.425 234.108 100.998 234.462C100.581 234.817 100.175 235.103 99.7791 235.322C99.3937 235.541 99.0135 235.697 98.6385 235.791C98.2739 235.895 97.9041 235.947 97.5291 235.947C96.6228 235.947 95.8624 235.791 95.2478 235.478C94.6333 235.166 94.1333 234.744 93.7478 234.212C93.3728 233.671 93.102 233.046 92.9353 232.337C92.7791 231.619 92.701 230.864 92.701 230.072V221.181ZM130.388 240.853C130.388 241.009 130.3 241.129 130.123 241.212C129.946 241.296 129.607 241.337 129.107 241.337C128.607 241.337 128.263 241.296 128.076 241.212C127.888 241.129 127.795 241.009 127.795 240.853V233.65C127.024 234.452 126.274 235.035 125.545 235.4C124.816 235.765 124.066 235.947 123.295 235.947C122.545 235.947 121.857 235.837 121.232 235.619C120.618 235.39 120.092 235.035 119.654 234.556C119.217 234.077 118.873 233.457 118.623 232.697C118.383 231.926 118.263 231.004 118.263 229.931V214.369C118.263 214.202 118.352 214.082 118.529 214.009C118.706 213.926 119.05 213.884 119.56 213.884C120.06 213.884 120.399 213.926 120.576 214.009C120.763 214.082 120.857 214.202 120.857 214.369V229.759C120.857 230.291 120.904 230.796 120.998 231.275C121.102 231.754 121.269 232.176 121.498 232.541C121.737 232.905 122.045 233.197 122.42 233.416C122.805 233.624 123.274 233.728 123.826 233.728C124.482 233.728 125.128 233.499 125.763 233.041C126.399 232.582 127.076 231.91 127.795 231.025V221.197C127.795 221.03 127.883 220.91 128.06 220.837C128.237 220.754 128.581 220.712 129.092 220.712C129.592 220.712 129.93 220.754 130.107 220.837C130.295 220.91 130.388 221.03 130.388 221.197V240.853ZM135.076 221.181C135.076 221.025 135.165 220.905 135.342 220.822C135.519 220.739 135.857 220.697 136.357 220.697C136.878 220.697 137.227 220.739 137.404 220.822C137.581 220.905 137.67 221.025 137.67 221.181V229.728C137.67 230.322 137.722 230.864 137.826 231.353C137.93 231.843 138.097 232.265 138.326 232.619C138.555 232.962 138.842 233.233 139.185 233.431C139.54 233.619 139.961 233.712 140.451 233.712C141.045 233.712 141.638 233.483 142.232 233.025C142.836 232.567 143.498 231.895 144.217 231.009V221.181C144.217 221.025 144.31 220.905 144.498 220.822C144.685 220.739 145.029 220.697 145.529 220.697C146.029 220.697 146.368 220.739 146.545 220.822C146.722 220.905 146.81 221.025 146.81 221.181V229.728C146.81 230.322 146.862 230.864 146.967 231.353C147.081 231.843 147.253 232.265 147.482 232.619C147.711 232.962 147.998 233.233 148.342 233.431C148.696 233.619 149.112 233.712 149.592 233.712C150.185 233.712 150.779 233.483 151.373 233.025C151.977 232.567 152.638 231.895 153.357 231.009V221.181C153.357 221.025 153.441 220.905 153.607 220.822C153.784 220.739 154.133 220.697 154.654 220.697C155.165 220.697 155.508 220.739 155.685 220.822C155.862 220.905 155.951 221.025 155.951 221.181V235.244C155.951 235.41 155.873 235.535 155.717 235.619C155.56 235.692 155.248 235.728 154.779 235.728C154.31 235.728 153.998 235.692 153.842 235.619C153.685 235.535 153.607 235.41 153.607 235.244V233.384C152.816 234.27 152.045 234.921 151.295 235.337C150.555 235.744 149.805 235.947 149.045 235.947C147.878 235.947 146.946 235.692 146.248 235.181C145.56 234.66 145.05 233.989 144.717 233.166C144.248 233.676 143.8 234.108 143.373 234.462C142.956 234.817 142.55 235.103 142.154 235.322C141.769 235.541 141.388 235.697 141.013 235.791C140.649 235.895 140.279 235.947 139.904 235.947C138.998 235.947 138.237 235.791 137.623 235.478C137.008 235.166 136.508 234.744 136.123 234.212C135.748 233.671 135.477 233.046 135.31 232.337C135.154 231.619 135.076 230.864 135.076 230.072V221.181ZM163.326 236.056C163.326 236.837 163.263 237.561 163.138 238.228C163.013 238.895 162.795 239.473 162.482 239.962C162.17 240.452 161.743 240.832 161.201 241.103C160.67 241.384 159.998 241.525 159.185 241.525C158.748 241.525 158.409 241.504 158.17 241.462C157.93 241.421 157.753 241.348 157.638 241.244C157.513 241.15 157.441 241.025 157.42 240.869C157.399 240.712 157.388 240.52 157.388 240.291C157.388 239.905 157.42 239.634 157.482 239.478C157.545 239.322 157.649 239.244 157.795 239.244C157.857 239.244 157.982 239.254 158.17 239.275C158.347 239.306 158.555 239.322 158.795 239.322C159.274 239.322 159.644 239.218 159.904 239.009C160.165 238.801 160.357 238.535 160.482 238.212C160.607 237.89 160.68 237.535 160.701 237.15C160.722 236.765 160.732 236.395 160.732 236.041V221.197C160.732 221.041 160.821 220.921 160.998 220.837C161.185 220.754 161.529 220.712 162.029 220.712C162.529 220.712 162.868 220.754 163.045 220.837C163.232 220.921 163.326 221.041 163.326 221.197V236.056ZM168.013 221.181C168.013 221.025 168.102 220.905 168.279 220.822C168.456 220.739 168.795 220.697 169.295 220.697C169.816 220.697 170.165 220.739 170.342 220.822C170.519 220.905 170.607 221.025 170.607 221.181V229.728C170.607 230.322 170.659 230.864 170.763 231.353C170.868 231.843 171.034 232.265 171.263 232.619C171.493 232.962 171.779 233.233 172.123 233.431C172.477 233.619 172.899 233.712 173.388 233.712C173.982 233.712 174.576 233.483 175.17 233.025C175.774 232.567 176.435 231.895 177.154 231.009V221.181C177.154 221.025 177.248 220.905 177.435 220.822C177.623 220.739 177.967 220.697 178.467 220.697C178.967 220.697 179.305 220.739 179.482 220.822C179.659 220.905 179.748 221.025 179.748 221.181V229.728C179.748 230.322 179.8 230.864 179.904 231.353C180.019 231.843 180.191 232.265 180.42 232.619C180.649 232.962 180.935 233.233 181.279 233.431C181.633 233.619 182.05 233.712 182.529 233.712C183.123 233.712 183.717 233.483 184.31 233.025C184.915 232.567 185.576 231.895 186.295 231.009V221.181C186.295 221.025 186.378 220.905 186.545 220.822C186.722 220.739 187.071 220.697 187.592 220.697C188.102 220.697 188.446 220.739 188.623 220.822C188.8 220.905 188.888 221.025 188.888 221.181V235.244C188.888 235.41 188.81 235.535 188.654 235.619C188.498 235.692 188.185 235.728 187.717 235.728C187.248 235.728 186.935 235.692 186.779 235.619C186.623 235.535 186.545 235.41 186.545 235.244V233.384C185.753 234.27 184.982 234.921 184.232 235.337C183.493 235.744 182.743 235.947 181.982 235.947C180.816 235.947 179.883 235.692 179.185 235.181C178.498 234.66 177.987 233.989 177.654 233.166C177.185 233.676 176.737 234.108 176.31 234.462C175.894 234.817 175.487 235.103 175.092 235.322C174.706 235.541 174.326 235.697 173.951 235.791C173.586 235.895 173.217 235.947 172.842 235.947C171.935 235.947 171.175 235.791 170.56 235.478C169.946 235.166 169.446 234.744 169.06 234.212C168.685 233.671 168.415 233.046 168.248 232.337C168.092 231.619 168.013 230.864 168.013 230.072V221.181ZM195.373 213.978C195.675 213.978 195.883 214.072 195.998 214.259C196.112 214.447 196.17 214.671 196.17 214.931V229.759C196.17 230.291 196.217 230.796 196.31 231.275C196.415 231.754 196.581 232.176 196.81 232.541C197.05 232.905 197.357 233.197 197.732 233.416C198.118 233.624 198.586 233.728 199.138 233.728C199.795 233.728 200.441 233.499 201.076 233.041C201.711 232.582 202.388 231.91 203.107 231.025V221.197C203.107 221.03 203.196 220.91 203.373 220.837C203.55 220.754 203.894 220.712 204.404 220.712C204.904 220.712 205.243 220.754 205.42 220.837C205.607 220.91 205.701 221.03 205.701 221.197V235.259C205.701 235.416 205.618 235.535 205.451 235.619C205.284 235.702 204.977 235.744 204.529 235.744C204.05 235.744 203.732 235.702 203.576 235.619C203.43 235.535 203.357 235.416 203.357 235.259V233.4C202.545 234.285 201.753 234.931 200.982 235.337C200.211 235.744 199.42 235.947 198.607 235.947C197.857 235.947 197.17 235.837 196.545 235.619C195.93 235.39 195.404 235.035 194.967 234.556C194.529 234.077 194.185 233.457 193.935 232.697C193.696 231.926 193.576 231.004 193.576 229.931V216.119H190.31C190.165 216.119 190.045 216.041 189.951 215.884C189.847 215.718 189.795 215.436 189.795 215.041C189.795 214.666 189.842 214.395 189.935 214.228C190.029 214.061 190.154 213.978 190.31 213.978H195.373ZM212.185 213.978C212.487 213.978 212.696 214.072 212.81 214.259C212.925 214.447 212.982 214.671 212.982 214.931V229.759C212.982 230.291 213.029 230.796 213.123 231.275C213.227 231.754 213.394 232.176 213.623 232.541C213.862 232.905 214.17 233.197 214.545 233.416C214.93 233.624 215.399 233.728 215.951 233.728C216.607 233.728 217.253 233.499 217.888 233.041C218.524 232.582 219.201 231.91 219.92 231.025V221.197C219.92 221.03 220.008 220.91 220.185 220.837C220.362 220.754 220.706 220.712 221.217 220.712C221.717 220.712 222.055 220.754 222.232 220.837C222.42 220.91 222.513 221.03 222.513 221.197V235.259C222.513 235.416 222.43 235.535 222.263 235.619C222.097 235.702 221.79 235.744 221.342 235.744C220.862 235.744 220.545 235.702 220.388 235.619C220.243 235.535 220.17 235.416 220.17 235.259V233.4C219.357 234.285 218.566 234.931 217.795 235.337C217.024 235.744 216.232 235.947 215.42 235.947C214.67 235.947 213.982 235.837 213.357 235.619C212.743 235.39 212.217 235.035 211.779 234.556C211.342 234.077 210.998 233.457 210.748 232.697C210.508 231.926 210.388 231.004 210.388 229.931V216.119H207.123C206.977 216.119 206.857 216.041 206.763 215.884C206.659 215.718 206.607 215.436 206.607 215.041C206.607 214.666 206.654 214.395 206.748 214.228C206.842 214.061 206.967 213.978 207.123 213.978H212.185ZM239.623 220.791C239.779 220.791 239.904 220.874 239.998 221.041C240.092 221.207 240.138 221.478 240.138 221.853C240.138 222.249 240.086 222.53 239.982 222.697C239.888 222.853 239.769 222.931 239.623 222.931H229.795V229.759C229.795 230.291 229.842 230.796 229.935 231.275C230.04 231.754 230.206 232.176 230.435 232.541C230.675 232.905 230.982 233.197 231.357 233.416C231.743 233.624 232.211 233.728 232.763 233.728C233.42 233.728 234.066 233.499 234.701 233.041C235.336 232.582 236.013 231.91 236.732 231.025V226.791C236.732 226.624 236.821 226.504 236.998 226.431C237.175 226.348 237.519 226.306 238.029 226.306C238.529 226.306 238.868 226.348 239.045 226.431C239.232 226.504 239.326 226.624 239.326 226.791V235.259C239.326 235.416 239.243 235.535 239.076 235.619C238.909 235.702 238.602 235.744 238.154 235.744C237.675 235.744 237.357 235.702 237.201 235.619C237.055 235.535 236.982 235.416 236.982 235.259V233.4C236.17 234.285 235.378 234.931 234.607 235.337C233.836 235.744 233.045 235.947 232.232 235.947C231.482 235.947 230.795 235.837 230.17 235.619C229.555 235.39 229.029 235.035 228.592 234.556C228.154 234.077 227.81 233.457 227.56 232.697C227.321 231.926 227.201 231.004 227.201 229.931V214.369C227.201 214.202 227.29 214.082 227.467 214.009C227.644 213.926 227.987 213.884 228.498 213.884C228.998 213.884 229.336 213.926 229.513 214.009C229.701 214.082 229.795 214.202 229.795 214.369V220.791H239.623ZM244.107 221.197C244.107 221.041 244.191 220.921 244.357 220.837C244.524 220.754 244.831 220.712 245.279 220.712C245.758 220.712 246.071 220.754 246.217 220.837C246.373 220.921 246.451 221.041 246.451 221.197V223.056C247.263 222.171 248.055 221.525 248.826 221.119C249.597 220.702 250.388 220.494 251.201 220.494C251.951 220.494 252.633 220.608 253.248 220.837C253.873 221.056 254.404 221.41 254.842 221.9C255.279 222.379 255.618 222.999 255.857 223.759C256.107 224.52 256.232 225.442 256.232 226.525V235.259C256.232 235.426 256.144 235.551 255.967 235.634C255.79 235.707 255.446 235.744 254.935 235.744C254.435 235.744 254.092 235.707 253.904 235.634C253.727 235.551 253.638 235.426 253.638 235.259V226.697C253.638 226.166 253.586 225.66 253.482 225.181C253.388 224.702 253.222 224.28 252.982 223.916C252.753 223.551 252.446 223.265 252.06 223.056C251.685 222.837 251.222 222.728 250.67 222.728C250.013 222.728 249.368 222.957 248.732 223.416C248.097 223.874 247.42 224.546 246.701 225.431V240.853C246.701 241.02 246.612 241.14 246.435 241.212C246.258 241.296 245.915 241.337 245.404 241.337C244.904 241.337 244.56 241.296 244.373 241.212C244.196 241.14 244.107 241.02 244.107 240.853V221.197Z" fill="black"/>
<g clip-path="url(#clip0_979_5992)">
<g style="mix-blend-mode:multiply" opacity="0.4">
<path d="M140.652 198.811C201.242 198.811 250.36 170.336 250.36 135.21C250.36 100.085 201.242 71.6096 140.652 71.6096C80.062 71.6096 30.9441 100.085 30.9441 135.21C30.9441 170.336 80.062 198.811 140.652 198.811Z" fill="#13515B"/>
</g>
<path d="M140.652 183.642C201.242 183.642 250.36 155.166 250.36 120.041C250.36 84.9148 201.242 56.4397 140.652 56.4397C80.0622 56.4397 30.9442 84.9148 30.9442 120.041C30.9442 155.166 80.0622 183.642 140.652 183.642Z" fill="#CCC6BA"/>
<mask id="mask0_979_5992" style="mask-type:luminance" maskUnits="userSpaceOnUse" x="30" y="56" width="221" height="128">
<path d="M140.653 183.642C201.243 183.642 250.361 155.167 250.361 120.041C250.361 84.9153 201.243 56.4402 140.653 56.4402C80.063 56.4402 30.9451 84.9153 30.9451 120.041C30.9451 155.167 80.063 183.642 140.653 183.642Z" fill="white"/>
</mask>
<g mask="url(#mask0_979_5992)">
<g style="mix-blend-mode:multiply">
<path d="M167.409 154.793L165.817 135.572L156.096 134.742L124.934 143.962L118.553 156.968L126.287 164.601H142.041L145.022 159.445H150.936L149.715 154.793H167.409Z" fill="#CCC6BA"/>
</g>
<g style="mix-blend-mode:multiply">
<path d="M121.186 158.05C121.258 157.221 120.624 156.8 119.522 156.8H113.477L107.323 152.412C107.862 151.739 108.221 151.09 108.257 150.561C108.329 149.732 107.694 149.311 106.593 149.311L78.4954 149.359C77.418 149.359 75.8976 149.768 74.1856 150.585C70.7498 152.232 67.8407 154.913 67.709 156.572C67.6252 157.521 68.4871 157.918 69.8639 157.786C69.6963 157.798 69.5167 157.834 69.3611 157.834L87.7136 157.798C87.51 157.882 87.3065 157.966 87.091 158.062C83.6552 159.709 80.7461 162.39 80.6144 164.048C80.5306 164.998 81.3925 165.395 82.7813 165.262C82.6137 165.274 82.4341 165.311 82.2784 165.311L106.581 165.274L113.644 169.374H118.552L119.989 161.476L119.247 160.947C120.36 159.901 121.078 158.855 121.15 158.05H121.186Z" fill="#CCC6BA"/>
</g>
<g style="mix-blend-mode:multiply">
<path d="M147.667 91.7687C149.044 84.6405 141.753 82.3205 129.865 84.8569C126.441 85.5781 123.197 86.2633 118.397 87.1648C112.339 88.3068 107.814 89.016 107.766 89.028C103.947 89.617 100.643 90.1339 97.8173 90.4825C95.0639 90.8191 91.4245 91.2398 88.7069 91.5403C87.2584 91.6966 85.3549 91.8649 83.9422 91.9731C81.4761 92.1654 59.4243 95.5792 32.7875 95.0263L1.66125 126.652C3.43306 126.652 20.4567 126.676 22.1686 126.701C31.8537 126.869 37.5881 127.338 41.9099 127.782C43.0472 127.903 44.5436 128.071 45.6211 128.227C47.6443 128.528 50.302 128.948 52.2653 129.297C54.3723 129.67 56.8265 130.271 58.7899 130.763C58.8138 130.763 61.675 131.413 65.2785 132.651C68.2833 133.684 145.68 102.106 147.679 91.7687H147.667Z" fill="#CCC6BA"/>
</g>
<path d="M175.848 168.472L128.944 195.663L114.195 187.116L161.099 159.926L175.848 168.472Z" fill="#7EA33D"/>
<path d="M268.389 114.824L221.485 142.027L206.735 133.468L253.64 106.278L268.389 114.824Z" fill="#7EA33D"/>
</g>
<path d="M164.752 83.5463L163.902 79.1948C165.027 84.9527 161.723 90.9269 154.025 95.2663C140.844 102.695 119.762 102.479 106.941 94.7855C99.674 90.4221 96.6212 84.5921 97.7466 79.0145C97.4592 80.457 97.16 81.9115 96.8726 83.354C95.7234 89.0878 98.848 95.062 106.306 99.5457C119.451 107.443 141.084 107.66 154.612 100.039C162.501 95.5909 165.901 89.4604 164.74 83.5463H164.752Z" fill="url(#paint0_linear_979_5992)"/>
<path d="M164.107 81.4271C164.137 70.732 149.255 62.0202 130.868 61.9687C112.481 61.9171 97.5506 70.5453 97.5209 81.2404C97.4912 91.9354 112.373 100.647 130.76 100.699C149.147 100.75 164.077 92.1221 164.107 81.4271Z" fill="#5F5F64"/>
<path d="M149.991 47.4604C150.075 44.6115 148.279 41.7266 144.592 39.5148C137.241 35.1033 125.15 34.983 117.584 39.2383C113.657 41.4501 111.73 44.4072 111.802 47.3522C111.646 41.1015 111.502 34.8628 111.347 28.6121C111.335 28.0953 111.323 27.4221 111.311 26.9052C111.287 25.8835 111.251 24.5251 111.227 23.5034C111.215 22.9865 111.203 22.3134 111.191 21.7965C111.155 20.0895 111.107 18.3946 111.071 16.6877C111.047 15.666 111 14.3076 110.988 13.2859C110.916 10.1966 112.939 7.0953 117.045 4.78734C124.97 0.315688 137.648 0.447915 145.346 5.07584C149.213 7.39581 151.093 10.413 151.009 13.4061C150.674 24.7656 150.338 36.113 149.991 47.4724V47.4604Z" fill="url(#paint1_linear_979_5992)"/>
<path d="M149.56 13.2016C149.56 10.485 147.824 7.75629 144.304 5.64067C137.157 1.34932 125.389 1.22911 118.026 5.37621C114.291 7.47981 112.4 10.2806 112.4 13.0934V12.2159C112.4 9.40311 114.291 6.60231 118.026 4.49871C125.389 0.351609 137.145 0.471815 144.304 4.76316C147.824 6.87878 149.572 9.60746 149.56 12.3241C149.56 12.5886 149.56 12.9372 149.56 13.2016Z" fill="url(#paint2_linear_979_5992)"/>
<path d="M161.424 75.108C160.538 73.2688 159.712 71.5379 158.599 68.8693C157.198 65.5156 156.336 62.883 156.324 62.859C155.606 60.6352 154.983 58.7119 154.552 56.993C154.133 55.3221 153.618 53.0743 153.271 51.3914C153.08 50.4898 152.876 49.2758 152.732 48.3622C152.17 44.6719 151.631 40.2964 151.463 33.3605C151.344 28.1315 151.463 22.5059 151.894 12.625C151.763 15.6902 149.644 18.7315 145.561 21.0274C137.277 25.7034 124.013 25.5591 115.956 20.7269C112.125 18.4189 110.149 15.4739 110.042 12.5048C110.377 21.6765 110.521 27.3983 110.365 33.1441C110.161 40.1521 109.587 44.6238 109.036 48.0617C108.892 48.9632 108.689 50.1653 108.497 51.0548C108.138 52.7377 107.611 54.9735 107.192 56.6444C106.737 58.4475 106.007 60.6833 105.409 62.4864C105.409 62.5104 104.535 65.1189 103.026 68.701C101.769 71.6821 100.572 74.1223 100.165 74.9277C97.1123 81.0942 99.6742 88.0301 107.935 92.9826C120.194 100.339 140.354 100.544 152.96 93.4394C161.651 88.535 164.489 81.4428 161.4 75.096L161.424 75.108Z" fill="url(#paint3_linear_979_5992)"/>
<path d="M145.573 21.0271C137.289 25.7031 124.024 25.5589 115.967 20.7266C107.91 15.8944 108.102 8.17714 116.386 3.51315C124.671 -1.16285 137.935 -1.01861 145.992 3.81367C154.049 8.64594 153.857 16.3632 145.573 21.0271ZM143.933 20.0415C151.296 15.8944 151.463 9.05464 144.304 4.76329C137.157 0.471947 125.389 0.351741 118.026 4.49884C110.664 8.64594 110.496 15.4857 117.655 19.777C124.802 24.0683 136.57 24.1886 143.933 20.0415Z" fill="#F2ECDD"/>
<path d="M114.483 112.684L113.633 108.332C114.759 114.09 111.455 120.064 103.757 124.404C90.5761 131.832 69.4941 131.616 56.6725 123.923C49.4057 119.559 46.3529 113.729 47.4783 108.152C47.1909 109.594 46.8916 111.049 46.6043 112.491C45.455 118.225 48.5796 124.199 56.038 128.683C69.1828 136.581 90.8155 136.797 104.343 129.176C112.233 124.728 115.633 118.598 114.471 112.696L114.483 112.684Z" fill="url(#paint4_linear_979_5992)"/>
<path d="M113.841 110.561C113.87 99.8664 98.9887 91.1545 80.6015 91.103C62.2143 91.0514 47.2844 99.6797 47.2547 110.375C47.2249 121.07 62.1066 129.782 80.4938 129.833C98.881 129.885 113.811 121.256 113.841 110.561Z" fill="#5F5F64"/>
<path d="M99.7228 76.5982C99.8066 73.7493 98.0109 70.8644 94.3236 68.6526C86.973 64.241 74.8817 64.1208 67.3156 68.3761C63.3889 70.5879 61.4615 73.545 61.5333 76.49C61.3777 70.2393 61.234 64.0006 61.0784 57.7499C61.0664 57.233 61.0545 56.5599 61.0425 56.043C61.0185 55.0213 60.9826 53.6629 60.9587 52.6412C60.9467 52.1243 60.9347 51.4511 60.9228 50.9343C60.8869 49.2273 60.839 47.5324 60.8031 45.8255C60.7791 44.8038 60.7312 43.4454 60.7193 42.4237C60.6474 39.3344 62.6706 36.2331 66.7769 33.9251C74.7021 29.4535 87.3801 29.5857 95.0778 34.2136C98.9447 36.5336 100.824 39.5508 100.74 42.5439C100.405 53.9033 100.07 65.2508 99.7228 76.6102V76.5982Z" fill="url(#paint5_linear_979_5992)"/>
<path d="M99.2915 42.3513C99.2915 39.6346 97.5556 36.906 94.036 34.7904C86.8889 30.499 75.1208 30.3788 67.7583 34.5259C64.0231 36.6295 62.1316 39.4303 62.1316 42.2431V41.3656C62.1316 38.5528 64.0231 35.752 67.7583 33.6484C75.1208 29.5013 86.877 29.6215 94.036 33.9129C97.5556 36.0285 99.3035 38.7571 99.2915 41.4738C99.2915 41.7382 99.2915 42.0868 99.2915 42.3513Z" fill="url(#paint6_linear_979_5992)"/>
<path d="M111.155 104.245C110.269 102.406 109.443 100.675 108.329 98.0066C106.929 94.6529 106.067 92.0203 106.055 91.9963C105.336 89.7725 104.714 87.8492 104.283 86.1303C103.864 84.4594 103.349 82.2116 103.002 80.5287C102.81 79.6271 102.607 78.413 102.463 77.4995C101.901 73.8092 101.362 69.4337 101.194 62.4978C101.074 57.2688 101.194 51.6432 101.625 41.7623C101.493 44.8275 99.3745 47.8688 95.2922 50.1647C87.0078 54.8407 73.7433 54.6964 65.6863 49.8642C61.8554 47.5562 59.8801 44.6112 59.7724 41.6421C60.1076 50.8138 60.2512 56.5356 60.0956 62.2814C59.8921 69.2894 59.3174 73.7611 58.7667 77.199C58.6231 78.1005 58.4196 79.3026 58.228 80.1921C57.8689 81.875 57.3421 84.1108 56.9231 85.7817C56.4682 87.5848 55.7379 89.8206 55.1393 91.6237C55.1393 91.6477 54.2654 94.2562 52.757 97.8383C51.5 100.819 50.3028 103.26 49.8958 104.065C46.843 110.232 49.4049 117.167 57.6654 122.12C69.9243 129.476 90.0845 129.681 102.691 122.577C111.382 117.672 114.219 110.58 111.131 104.233L111.155 104.245Z" fill="url(#paint7_linear_979_5992)"/>
<path d="M95.3048 50.1768C87.0204 54.8528 73.7558 54.7086 65.6989 49.8763C57.642 45.044 57.8336 37.3268 66.1179 32.6628C74.4023 27.9868 87.6669 28.1311 95.7238 32.9634C103.781 37.7956 103.589 45.5128 95.3048 50.1768ZM93.6646 49.1911C101.027 45.044 101.195 38.2043 94.0358 33.913C86.8887 29.6216 75.1206 29.5014 67.758 33.6485C60.3955 37.7956 60.2279 44.6353 67.3869 48.9267C74.534 53.218 86.3021 53.3382 93.6646 49.1911Z" fill="#F2ECDD"/>
<path d="M182.77 78.6301V101.229L211.322 117.829V95.2305L182.77 78.6301Z" fill="#3B3B3F"/>
<path d="M211.323 95.2302V117.829L228.286 107.996V85.3973L211.323 95.2302Z" fill="#48484D"/>
<path d="M182.77 78.6299L211.322 95.2303L228.286 85.3975L199.734 68.7971L182.77 78.6299Z" fill="#5F5F64"/>
<path d="M208.474 13.6587C209.97 14.5362 212.4 14.5362 213.897 13.6587C214.651 13.2259 215.022 12.6489 215.022 12.072V85.4817C215.022 86.0586 214.651 86.6236 213.897 87.0684C212.388 87.9459 209.97 87.9459 208.474 87.0684C207.731 86.6356 207.36 86.0707 207.36 85.5057V12.096C207.36 12.661 207.731 13.2259 208.474 13.6587Z" fill="url(#paint8_linear_979_5992)"/>
<path d="M208.498 10.4972C206.989 11.3747 206.989 12.7811 208.474 13.6466C209.97 14.5241 212.4 14.5241 213.897 13.6466C215.393 12.7811 215.405 11.3627 213.897 10.4972C212.412 9.63174 209.982 9.63174 208.486 10.4972H208.498Z" fill="#F2ECDD"/>
<path opacity="0.9" d="M209.035 10.8217C207.826 11.5189 207.826 12.6488 209.012 13.346C210.209 14.0432 212.148 14.0432 213.357 13.346C214.554 12.6488 214.566 11.5189 213.357 10.8217C212.16 10.1245 210.221 10.1245 209.024 10.8217H209.035Z" fill="url(#paint9_linear_979_5992)"/>
<path d="M207.36 22.4217C207.36 22.9867 207.731 23.5516 208.473 23.9844C209.969 24.8619 212.4 24.8619 213.896 23.9844C214.65 23.5516 215.021 22.9746 215.021 22.3977V19.5848C215.021 20.1618 214.65 20.7268 213.896 21.1716C212.388 22.0491 209.969 22.0491 208.473 21.1716C207.731 20.7388 207.36 20.1738 207.36 19.6089V22.4217ZM207.36 29.9346C207.36 30.4995 207.731 31.0645 208.473 31.4972C209.969 32.3747 212.4 32.3747 213.896 31.4972C214.65 31.0645 215.021 30.4875 215.021 29.9105V27.0977C215.021 27.6747 214.65 28.2397 213.896 28.6844C212.388 29.5619 209.969 29.5619 208.473 28.6844C207.731 28.2517 207.36 27.6867 207.36 27.1217V29.9346ZM207.36 37.4474C207.36 38.0124 207.731 38.5774 208.473 39.0101C209.969 39.8876 212.4 39.8876 213.896 39.0101C214.65 38.5774 215.021 38.0004 215.021 37.4234V34.6106C215.021 35.1876 214.65 35.7525 213.896 36.1973C212.388 37.0748 209.969 37.0748 208.473 36.1973C207.731 35.7645 207.36 35.1996 207.36 34.6346V37.4474ZM207.36 44.9603C207.36 45.5253 207.731 46.0902 208.473 46.523C209.969 47.4005 212.4 47.4005 213.896 46.523C214.65 46.0902 215.021 45.5132 215.021 44.9362V42.1234C215.021 42.7004 214.65 43.2654 213.896 43.7101C212.388 44.5876 209.969 44.5876 208.473 43.7101C207.731 43.2774 207.36 42.7124 207.36 42.1475V44.9603ZM207.36 52.4732C207.36 53.0381 207.731 53.6031 208.473 54.0358C209.969 54.9133 212.4 54.9133 213.896 54.0358C214.65 53.6031 215.021 53.0261 215.021 52.4491V49.6363C215.021 50.2133 214.65 50.7782 213.896 51.223C212.388 52.1005 209.969 52.1005 208.473 51.223C207.731 50.7903 207.36 50.2253 207.36 49.6603V52.4732ZM207.36 59.986C207.36 60.551 207.731 61.1159 208.473 61.5487C209.969 62.4262 212.4 62.4262 213.896 61.5487C214.65 61.1159 215.021 60.539 215.021 59.962V57.1492C215.021 57.7261 214.65 58.2911 213.896 58.7359C212.388 59.6134 209.969 59.6134 208.473 58.7359C207.731 58.3031 207.36 57.7382 207.36 57.1732V59.986ZM207.36 67.4989C207.36 68.0638 207.731 68.6288 208.473 69.0616C209.969 69.9391 212.4 69.9391 213.896 69.0616C214.65 68.6288 215.021 68.0518 215.021 67.4748V64.662C215.021 65.239 214.65 65.804 213.896 66.2487C212.388 67.1262 209.969 67.1262 208.473 66.2487C207.731 65.816 207.36 65.251 207.36 64.6861V67.4989ZM207.36 75.0117C207.36 75.5767 207.731 76.1417 208.473 76.5744C209.969 77.4519 212.4 77.4519 213.896 76.5744C214.65 76.1417 215.021 75.5647 215.021 74.9877V72.1749C215.021 72.7519 214.65 73.3168 213.896 73.7616C212.388 74.6391 209.969 74.6391 208.473 73.7616C207.731 73.3289 207.36 72.7639 207.36 72.1989V75.0117ZM207.36 82.5246C207.36 83.0896 207.731 83.6545 208.473 84.0873C209.969 84.9648 212.4 84.9648 213.896 84.0873C214.65 83.6545 215.021 83.0776 215.021 82.5006V79.6877C215.021 80.2647 214.65 80.8297 213.896 81.2745C212.388 82.152 209.969 82.152 208.473 81.2745C207.731 80.8417 207.36 80.2768 207.36 79.7118V82.5246Z" fill="url(#paint10_linear_979_5992)"/>
<path d="M195.612 6.20555C197.109 7.08305 199.539 7.08305 201.035 6.20555C201.79 5.77281 202.161 5.19582 202.161 4.61884V78.0285C202.161 78.6055 201.79 79.1705 201.035 79.6153C199.527 80.4928 197.109 80.4928 195.612 79.6153C194.87 79.1825 194.499 78.6175 194.499 78.0526V4.64288C194.499 5.20784 194.87 5.77281 195.612 6.20555Z" fill="url(#paint11_linear_979_5992)"/>
<path d="M195.636 3.0441C194.128 3.9216 194.128 5.32801 195.612 6.19349C197.109 7.071 199.539 7.071 201.035 6.19349C202.532 5.32801 202.544 3.90958 201.035 3.0441C199.551 2.17862 197.121 2.17862 195.624 3.0441H195.636Z" fill="#F2ECDD"/>
<path opacity="0.9" d="M196.175 3.35703C194.966 4.05423 194.966 5.18416 196.151 5.88135C197.348 6.57855 199.287 6.57855 200.497 5.88135C201.694 5.18416 201.706 4.05423 200.497 3.35703C199.299 2.65984 197.36 2.65984 196.163 3.35703H196.175Z" fill="url(#paint12_linear_979_5992)"/>
<path d="M194.501 14.9683C194.501 15.5333 194.872 16.0983 195.614 16.531C197.11 17.4085 199.541 17.4085 201.037 16.531C201.791 16.0983 202.162 15.5213 202.162 14.9443V12.1315C202.162 12.7085 201.791 13.2734 201.037 13.7182C199.529 14.5957 197.11 14.5957 195.614 13.7182C194.872 13.2854 194.501 12.7205 194.501 12.1555V14.9683ZM194.501 22.4812C194.501 23.0462 194.872 23.6111 195.614 24.0439C197.11 24.9214 199.541 24.9214 201.037 24.0439C201.791 23.6111 202.162 23.0341 202.162 22.4571V19.6443C202.162 20.2213 201.791 20.7863 201.037 21.231C199.529 22.1086 197.11 22.1086 195.614 21.231C194.872 20.7983 194.501 20.2333 194.501 19.6684V22.4812ZM194.501 29.9941C194.501 30.559 194.872 31.124 195.614 31.5567C197.11 32.4342 199.541 32.4342 201.037 31.5567C201.791 31.124 202.162 30.547 202.162 29.97V27.1572C202.162 27.7342 201.791 28.2992 201.037 28.7439C199.529 29.6214 197.11 29.6214 195.614 28.7439C194.872 28.3112 194.501 27.7462 194.501 27.1812V29.9941ZM194.501 37.5069C194.501 38.0719 194.872 38.6369 195.614 39.0696C197.11 39.9471 199.541 39.9471 201.037 39.0696C201.791 38.6369 202.162 38.0599 202.162 37.4829V34.6701C202.162 35.247 201.791 35.812 201.037 36.2568C199.529 37.1343 197.11 37.1343 195.614 36.2568C194.872 35.824 194.501 35.2591 194.501 34.6941V37.5069ZM194.501 45.0198C194.501 45.5847 194.872 46.1497 195.614 46.5825C197.11 47.46 199.541 47.46 201.037 46.5825C201.791 46.1497 202.162 45.5727 202.162 44.9957V42.1829C202.162 42.7599 201.791 43.3249 201.037 43.7696C199.529 44.6471 197.11 44.6471 195.614 43.7696C194.872 43.3369 194.501 42.7719 194.501 42.207V45.0198ZM194.501 52.5326C194.501 53.0976 194.872 53.6626 195.614 54.0953C197.11 54.9728 199.541 54.9728 201.037 54.0953C201.791 53.6626 202.162 53.0856 202.162 52.5086V49.6958C202.162 50.2728 201.791 50.8377 201.037 51.2825C199.529 52.16 197.11 52.16 195.614 51.2825C194.872 50.8498 194.501 50.2848 194.501 49.7198V52.5326ZM194.501 60.0455C194.501 60.6105 194.872 61.1754 195.614 61.6082C197.11 62.4857 199.541 62.4857 201.037 61.6082C201.791 61.1754 202.162 60.5985 202.162 60.0215V57.2087C202.162 57.7856 201.791 58.3506 201.037 58.7954C199.529 59.6729 197.11 59.6729 195.614 58.7954C194.872 58.3626 194.501 57.7977 194.501 57.2327V60.0455ZM194.501 67.5584C194.501 68.1233 194.872 68.6883 195.614 69.121C197.11 69.9985 199.541 69.9985 201.037 69.121C201.791 68.6883 202.162 68.1113 202.162 67.5343V64.7215C202.162 65.2985 201.791 65.8635 201.037 66.3082C199.529 67.1857 197.11 67.1857 195.614 66.3082C194.872 65.8755 194.501 65.3105 194.501 64.7456V67.5584ZM194.501 75.0712C194.501 75.6362 194.872 76.2012 195.614 76.6339C197.11 77.5114 199.541 77.5114 201.037 76.6339C201.791 76.2012 202.162 75.6242 202.162 75.0472V72.2344C202.162 72.8114 201.791 73.3763 201.037 73.8211C199.529 74.6986 197.11 74.6986 195.614 73.8211C194.872 73.3884 194.501 72.8234 194.501 72.2584V75.0712Z" fill="url(#paint13_linear_979_5992)"/>
<path d="M107.84 102.78L107.828 144.659L138.344 162.474V120.594L107.84 102.78Z" fill="#3B3B3F"/>
<path d="M138.344 120.594V162.474L212.688 119.368V77.4882L138.344 120.594Z" fill="#48484D"/>
<path d="M107.839 102.78L138.343 120.594L212.687 77.4882L182.171 59.6857L107.839 102.78Z" fill="#5F5F64"/>
<path d="M209.778 77.4881L182.172 61.3805L110.749 102.791L138.355 118.899L209.778 77.4881Z" fill="#A09595"/>
<path d="M147.2 119.452L147.176 157.28L150.935 159.456L150.947 121.627L147.2 119.452Z" fill="#3B3B3F"/>
<path d="M150.946 121.627L150.934 159.456L156.884 155.994L156.896 118.165L150.946 121.627Z" fill="#48484D"/>
<path d="M147.2 119.451L150.947 121.627L156.897 118.165L153.15 116.002L147.2 119.451Z" fill="#5F5F64"/>
<path d="M138.305 124.608L138.281 162.437L142.04 164.601L142.052 126.772L138.305 124.608Z" fill="#3B3B3F"/>
<path d="M142.051 126.772L142.039 164.6L147.989 161.15L148.001 123.322L142.051 126.772Z" fill="#48484D"/>
<path d="M138.305 124.608L142.052 126.772L148.002 123.322L144.255 121.158L138.305 124.608Z" fill="#5F5F64"/>
<path d="M206.714 84.9527L206.702 122.781L210.449 124.945L210.473 87.1164L206.714 84.9527Z" fill="#3B3B3F"/>
<path d="M210.472 87.1159L210.448 124.945L216.41 121.495L216.422 83.666L210.472 87.1159Z" fill="#48484D"/>
<path d="M206.714 84.9527L210.473 87.1164L216.423 83.6665L212.675 81.5028L206.714 84.9527Z" fill="#5F5F64"/>
<path d="M197.818 90.1094L197.806 127.938L201.565 130.102L201.577 92.2731L197.818 90.1094Z" fill="#3B3B3F"/>
<path d="M201.577 92.2732L201.565 130.102L207.515 126.652L207.527 88.8232L201.577 92.2732Z" fill="#48484D"/>
<path d="M197.818 90.1094L201.577 92.2731L207.527 88.8232L203.78 86.6595L197.818 90.1094Z" fill="#5F5F64"/>
<path d="M159.639 127.157L159.675 150.104L167.409 154.792L167.505 131.772L159.639 127.157Z" fill="#3B3B3F"/>
<path d="M192.669 108.008L192.705 130.955L200.451 135.643L200.535 112.624L192.669 108.008Z" fill="#3B3B3F"/>
<path d="M159.639 127.157L167.505 131.773L200.57 112.612L192.705 107.984L159.639 127.157Z" fill="#5F5F64"/>
<path d="M182.171 61.3801L110.748 102.791L112.424 103.765L182.171 63.3395L208.101 78.4614L209.777 77.4877L182.171 61.3801Z" fill="#8C8080"/>
<path d="M178.699 68.6526L174.497 71.0808L177.61 72.8959H180.184L178.699 68.6526Z" fill="#8C8080"/>
<path d="M176.426 69.1446V70.7072L180.185 72.895L180.173 71.3323L176.426 69.1446Z" fill="#DBDBDB"/>
<path d="M180.172 71.3323L180.184 72.895L183.955 70.7072L183.943 69.1446L180.172 71.3323Z" fill="#EDEDED"/>
<path d="M176.426 69.1447L180.173 71.3324L183.944 69.1447L180.197 66.9569L176.426 69.1447Z" fill="#F4F4F4"/>
<path d="M178.579 68.147C177.705 68.6519 177.705 69.4813 178.579 69.9861C179.453 70.491 180.866 70.491 181.74 69.9861C182.614 69.4813 182.614 68.6519 181.74 68.147C180.866 67.6421 179.453 67.6421 178.579 68.147Z" fill="#A09595"/>
<path d="M179.512 68.6881C179.153 68.8925 179.153 69.229 179.512 69.4334C179.871 69.6377 180.446 69.6377 180.805 69.4334C181.164 69.229 181.164 68.8925 180.805 68.6881C180.446 68.4838 179.871 68.4838 179.512 68.6881Z" fill="#F4F4F4"/>
<path d="M169.648 73.8935L165.446 76.3337L168.558 78.1368H171.132L169.648 73.8935Z" fill="#8C8080"/>
<path d="M167.373 74.3865V75.9491L171.133 78.1369L171.121 76.5742L167.373 74.3865Z" fill="#DBDBDB"/>
<path d="M171.12 76.5742L171.132 78.1369L174.903 75.9491L174.891 74.3865L171.12 76.5742Z" fill="#EDEDED"/>
<path d="M167.373 74.3865L171.121 76.5742L174.892 74.3865L171.144 72.1987L167.373 74.3865Z" fill="#F4F4F4"/>
<path d="M169.528 73.4005C168.654 73.9054 168.654 74.7348 169.528 75.2397C170.402 75.7445 171.814 75.7445 172.688 75.2397C173.562 74.7348 173.562 73.9054 172.688 73.4005C171.814 72.8957 170.402 72.8957 169.528 73.4005Z" fill="#A09595"/>
<path d="M170.461 73.9417C170.101 74.1461 170.101 74.4826 170.461 74.687C170.82 74.8913 171.394 74.8913 171.754 74.687C172.113 74.4826 172.113 74.1461 171.754 73.9417C171.394 73.7374 170.82 73.7374 170.461 73.9417Z" fill="#F4F4F4"/>
<path d="M160.597 79.1465L156.395 81.5746L159.508 83.3897H162.082L160.597 79.1465Z" fill="#8C8080"/>
<path d="M158.323 79.6395V81.2021L162.082 83.3899L162.07 81.8272L158.323 79.6395Z" fill="#DBDBDB"/>
<path d="M162.069 81.8272L162.081 83.3899L165.852 81.2021L165.841 79.6395L162.069 81.8272Z" fill="#EDEDED"/>
<path d="M158.323 79.6394L162.07 81.8272L165.841 79.6394L162.094 77.4517L158.323 79.6394Z" fill="#F4F4F4"/>
<path d="M160.478 78.6416C159.604 79.1465 159.604 79.9759 160.478 80.4808C161.352 80.9857 162.764 80.9857 163.638 80.4808C164.512 79.9759 164.512 79.1465 163.638 78.6416C162.764 78.1368 161.352 78.1368 160.478 78.6416Z" fill="#A09595"/>
<path d="M161.411 79.1826C161.052 79.387 161.052 79.7235 161.411 79.9279C161.77 80.1322 162.345 80.1322 162.704 79.9279C163.063 79.7235 163.063 79.387 162.704 79.1826C162.345 78.9783 161.77 78.9783 161.411 79.1826Z" fill="#F4F4F4"/>
<path d="M151.548 84.3879L147.346 86.8281L150.458 88.6311H153.032L151.548 84.3879Z" fill="#8C8080"/>
<path d="M149.274 84.8802V86.4428L153.033 88.6306L153.021 87.0679L149.274 84.8802Z" fill="#DBDBDB"/>
<path d="M153.02 87.0679L153.032 88.6306L156.803 86.4428L156.791 84.8802L153.02 87.0679Z" fill="#EDEDED"/>
<path d="M149.274 84.8803L153.021 87.068L156.792 84.8803L153.045 82.6925L149.274 84.8803Z" fill="#F4F4F4"/>
<path d="M151.428 83.8948C150.554 84.3997 150.554 85.2291 151.428 85.7339C152.302 86.2388 153.715 86.2388 154.589 85.7339C155.462 85.2291 155.462 84.3997 154.589 83.8948C153.715 83.3899 152.302 83.3899 151.428 83.8948Z" fill="#A09595"/>
<path d="M152.362 84.4358C152.003 84.6401 152.003 84.9767 152.362 85.1811C152.721 85.3854 153.296 85.3854 153.655 85.1811C154.014 84.9767 154.014 84.6401 153.655 84.4358C153.296 84.2314 152.721 84.2314 152.362 84.4358Z" fill="#F4F4F4"/>
<path d="M142.496 89.6408L138.294 92.069L141.407 93.8841H143.969L142.496 89.6408Z" fill="#8C8080"/>
<path d="M140.222 90.1332V91.6958L143.97 93.8836V92.3209L140.222 90.1332Z" fill="#DBDBDB"/>
<path d="M143.97 92.3209V93.8836L147.753 91.6958L147.741 90.1332L143.97 92.3209Z" fill="#EDEDED"/>
<path d="M140.222 90.1333L143.969 92.321L147.74 90.1333L143.993 87.9456L140.222 90.1333Z" fill="#F4F4F4"/>
<path d="M142.377 89.1355C141.503 89.6404 141.503 90.4698 142.377 90.9747C143.251 91.4795 144.663 91.4795 145.537 90.9747C146.411 90.4698 146.411 89.6404 145.537 89.1355C144.663 88.6307 143.251 88.6307 142.377 89.1355Z" fill="#A09595"/>
<path d="M143.31 89.6767C142.951 89.881 142.951 90.2176 143.31 90.422C143.669 90.6263 144.244 90.6263 144.603 90.422C144.962 90.2176 144.962 89.881 144.603 89.6767C144.244 89.4724 143.669 89.4724 143.31 89.6767Z" fill="#F4F4F4"/>
<path d="M133.445 94.8817L129.243 97.3219L132.356 99.125H134.918L133.445 94.8817Z" fill="#8C8080"/>
<path d="M131.171 95.3739V96.9366L134.918 99.1243V97.5616L131.171 95.3739Z" fill="#DBDBDB"/>
<path d="M134.917 97.5616V99.1243L138.7 96.9366L138.688 95.3739L134.917 97.5616Z" fill="#EDEDED"/>
<path d="M131.171 95.3742L134.918 97.5619L138.689 95.3742L134.942 93.1864L131.171 95.3742Z" fill="#F4F4F4"/>
<path d="M133.325 94.3885C132.451 94.8933 132.451 95.7228 133.325 96.2276C134.199 96.7325 135.611 96.7325 136.485 96.2276C137.359 95.7228 137.359 94.8933 136.485 94.3885C135.611 93.8836 134.199 93.8836 133.325 94.3885Z" fill="#A09595"/>
<path d="M134.258 94.9298C133.898 95.1342 133.898 95.4707 134.258 95.6751C134.617 95.8794 135.191 95.8794 135.551 95.6751C135.91 95.4707 135.91 95.1342 135.551 94.9298C135.191 94.7255 134.617 94.7255 134.258 94.9298Z" fill="#F4F4F4"/>
<path d="M124.396 100.135L120.194 102.563L123.306 104.378H125.868L124.396 100.135Z" fill="#8C8080"/>
<path d="M122.122 100.627V102.189L125.87 104.377V102.814L122.122 100.627Z" fill="#DBDBDB"/>
<path d="M125.869 102.814V104.377L129.64 102.189V100.627L125.869 102.814Z" fill="#EDEDED"/>
<path d="M122.122 100.627L125.87 102.815L129.641 100.627L125.893 98.4391L122.122 100.627Z" fill="#F4F4F4"/>
<path d="M124.264 99.6296C123.39 100.134 123.39 100.964 124.264 101.469C125.138 101.974 126.55 101.974 127.424 101.469C128.298 100.964 128.298 100.134 127.424 99.6296C126.55 99.1247 125.138 99.1247 124.264 99.6296Z" fill="#A09595"/>
<path d="M125.21 100.171C124.851 100.375 124.851 100.712 125.21 100.916C125.569 101.12 126.144 101.12 126.503 100.916C126.862 100.712 126.862 100.375 126.503 100.171C126.144 99.9664 125.569 99.9664 125.21 100.171Z" fill="#F4F4F4"/>
<path d="M185.032 72.3189L180.818 74.7591L183.942 76.5621H186.504L185.032 72.3189Z" fill="#8C8080"/>
<path d="M182.756 72.8112V74.3739L186.504 76.5617V74.999L182.756 72.8112Z" fill="#DBDBDB"/>
<path d="M186.503 74.999V76.5617L190.274 74.3739V72.8112L186.503 74.999Z" fill="#EDEDED"/>
<path d="M182.756 72.8113L186.503 74.9991L190.274 72.8113L186.527 70.6236L182.756 72.8113Z" fill="#F4F4F4"/>
<path d="M184.901 71.8141C184.027 72.319 184.027 73.1484 184.901 73.6533C185.775 74.1581 187.188 74.1581 188.061 73.6533C188.935 73.1484 188.935 72.319 188.061 71.8141C187.188 71.3092 185.775 71.3092 184.901 71.8141Z" fill="#A09595"/>
<path d="M185.834 72.3553C185.475 72.5596 185.475 72.8962 185.834 73.1006C186.193 73.3049 186.768 73.3049 187.127 73.1006C187.486 72.8962 187.486 72.5596 187.127 72.3553C186.768 72.1509 186.193 72.1509 185.834 72.3553Z" fill="#F4F4F4"/>
<path d="M175.981 77.5603L171.767 80.0004L174.892 81.8035H177.454L175.981 77.5603Z" fill="#8C8080"/>
<path d="M173.694 78.0525L173.706 79.6152L177.453 81.8029V80.2402L173.694 78.0525Z" fill="#DBDBDB"/>
<path d="M177.452 80.2402V81.8029L181.223 79.6272V78.0525L177.452 80.2402Z" fill="#EDEDED"/>
<path d="M173.694 78.0527L177.453 80.2405L181.224 78.0527L177.477 75.865L173.694 78.0527Z" fill="#F4F4F4"/>
<path d="M175.849 77.0671C174.975 77.5719 174.975 78.4013 175.849 78.9062C176.722 79.4111 178.135 79.4111 179.009 78.9062C179.883 78.4013 179.883 77.5719 179.009 77.0671C178.135 76.5622 176.722 76.5622 175.849 77.0671Z" fill="#A09595"/>
<path d="M176.782 77.6085C176.422 77.8128 176.422 78.1494 176.782 78.3537C177.141 78.5581 177.715 78.5581 178.075 78.3537C178.434 78.1494 178.434 77.8128 178.075 77.6085C177.715 77.4041 177.141 77.4041 176.782 77.6085Z" fill="#F4F4F4"/>
<path d="M166.932 82.8127L162.718 85.2529L165.842 87.056H168.404L166.932 82.8127Z" fill="#8C8080"/>
<path d="M164.645 83.3048L164.657 84.8675L168.404 87.0552V85.4926L164.645 83.3048Z" fill="#DBDBDB"/>
<path d="M168.404 85.4926V87.0552L172.175 84.8675V83.3048L168.404 85.4926Z" fill="#EDEDED"/>
<path d="M164.645 83.3049L168.404 85.4926L172.176 83.3049L168.428 81.1172L164.645 83.3049Z" fill="#F4F4F4"/>
<path d="M166.8 82.3076C165.926 82.8125 165.926 83.6419 166.8 84.1468C167.674 84.6516 169.086 84.6516 169.96 84.1468C170.834 83.6419 170.834 82.8125 169.96 82.3076C169.086 81.8028 167.674 81.8028 166.8 82.3076Z" fill="#A09595"/>
<path d="M167.734 82.8488C167.374 83.0532 167.374 83.3898 167.734 83.5941C168.093 83.7985 168.667 83.7985 169.027 83.5941C169.386 83.3898 169.386 83.0532 169.027 82.8488C168.667 82.6445 168.093 82.6445 167.734 82.8488Z" fill="#F4F4F4"/>
<path d="M157.881 88.0541L153.667 90.4943L156.792 92.3094H159.354L157.881 88.0541Z" fill="#8C8080"/>
<path d="M155.595 88.5467L155.607 90.1093L159.354 92.3091V90.7344L155.595 88.5467Z" fill="#DBDBDB"/>
<path d="M159.354 90.7344V92.3091L163.125 90.1214V88.5467L159.354 90.7344Z" fill="#EDEDED"/>
<path d="M155.595 88.5466L159.354 90.7343L163.125 88.5466L159.366 86.3588L155.595 88.5466Z" fill="#F4F4F4"/>
<path d="M157.749 87.5613C156.875 88.0662 156.875 88.8956 157.749 89.4004C158.623 89.9053 160.035 89.9053 160.909 89.4004C161.783 88.8956 161.783 88.0662 160.909 87.5613C160.035 87.0564 158.623 87.0564 157.749 87.5613Z" fill="#A09595"/>
<path d="M158.681 88.1025C158.322 88.3068 158.322 88.6434 158.681 88.8478C159.041 89.0521 159.615 89.0521 159.974 88.8478C160.334 88.6434 160.334 88.3068 159.974 88.1025C159.615 87.8981 159.041 87.8981 158.681 88.1025Z" fill="#F4F4F4"/>
<path d="M148.829 93.3076L144.615 95.7478L147.739 97.5509H150.301L148.829 93.3076Z" fill="#8C8080"/>
<path d="M146.543 93.8002L146.555 95.3629L150.302 97.5506V95.9879L146.543 93.8002Z" fill="#DBDBDB"/>
<path d="M150.301 95.9879V97.5506L154.072 95.3629V93.8002L150.301 95.9879Z" fill="#EDEDED"/>
<path d="M146.543 93.8001L150.302 95.9878L154.073 93.8001L150.314 91.6123L146.543 93.8001Z" fill="#F4F4F4"/>
<path d="M148.696 92.8028C147.823 93.3077 147.823 94.1371 148.696 94.642C149.57 95.1469 150.983 95.1469 151.857 94.642C152.731 94.1371 152.731 93.3077 151.857 92.8028C150.983 92.298 149.57 92.298 148.696 92.8028Z" fill="#A09595"/>
<path d="M149.629 93.3439C149.27 93.5483 149.27 93.8848 149.629 94.0892C149.989 94.2935 150.563 94.2935 150.922 94.0892C151.282 93.8848 151.282 93.5483 150.922 93.3439C150.563 93.1396 149.989 93.1396 149.629 93.3439Z" fill="#F4F4F4"/>
<path d="M139.779 98.548L135.565 100.988L138.69 102.803H141.252L139.779 98.548Z" fill="#8C8080"/>
<path d="M137.492 99.0409L137.504 100.604L141.251 102.803V101.229L137.492 99.0409Z" fill="#DBDBDB"/>
<path d="M141.251 101.229V102.803L145.022 100.616V99.0409L141.251 101.229Z" fill="#EDEDED"/>
<path d="M137.492 99.041L141.251 101.229L145.022 99.041L141.263 96.8533L137.492 99.041Z" fill="#F4F4F4"/>
<path d="M139.648 98.055C138.774 98.5598 138.774 99.3893 139.648 99.8941C140.522 100.399 141.934 100.399 142.808 99.8941C143.682 99.3893 143.682 98.5598 142.808 98.055C141.934 97.5501 140.522 97.5501 139.648 98.055Z" fill="#A09595"/>
<path d="M140.58 98.5961C140.221 98.8004 140.221 99.137 140.58 99.3413C140.94 99.5457 141.514 99.5457 141.873 99.3413C142.232 99.137 142.232 98.8004 141.873 98.5961C141.514 98.3917 140.94 98.3917 140.58 98.5961Z" fill="#F4F4F4"/>
<path d="M130.729 103.801L126.515 106.242L129.64 108.045H132.202L130.729 103.801Z" fill="#8C8080"/>
<path d="M128.442 104.294L128.454 105.857L132.201 108.045L132.189 106.482L128.442 104.294Z" fill="#DBDBDB"/>
<path d="M132.189 106.482L132.201 108.045L135.972 105.857V104.294L132.189 106.482Z" fill="#EDEDED"/>
<path d="M128.442 104.294L132.189 106.482L135.972 104.294L132.213 102.107L128.442 104.294Z" fill="#F4F4F4"/>
<path d="M130.597 103.297C129.723 103.802 129.723 104.631 130.597 105.136C131.471 105.641 132.883 105.641 133.757 105.136C134.631 104.631 134.631 103.802 133.757 103.297C132.883 102.792 131.471 102.792 130.597 103.297Z" fill="#A09595"/>
<path d="M131.53 103.849C131.171 104.054 131.171 104.39 131.53 104.595C131.89 104.799 132.464 104.799 132.823 104.595C133.183 104.39 133.183 104.054 132.823 103.849C132.464 103.645 131.89 103.645 131.53 103.849Z" fill="#F4F4F4"/>
<path d="M209.778 77.4877L208.102 78.4614L182.171 63.3395V61.3801L209.778 77.4877Z" fill="#776B6B"/>
<mask id="mask1_979_5992" style="mask-type:luminance" maskUnits="userSpaceOnUse" x="168" y="121" width="32" height="33">
<path d="M168.917 138.806L169.121 153.807L198.99 136.498L199.074 121.111L168.917 138.806Z" fill="white"/>
</mask>
<g mask="url(#mask1_979_5992)">
<g style="mix-blend-mode:multiply" opacity="0.6">
<path d="M164.666 152.376H171.741L171.921 152.256H164.666V152.376Z" fill="#A09595"/>
</g>
<g style="mix-blend-mode:multiply" opacity="0.6">
<path d="M203.801 133.6L204.735 133.059L199.12 120.882C199.12 120.882 166.917 139.298 164.69 140.836C164.69 140.836 164.678 140.836 164.666 140.836V151.318L165.624 150.765H174.423L174.603 150.645H165.803L168.329 149.167H177.129L177.308 149.047H168.545L171.071 147.568H179.822L180.002 147.448H172.077L175.955 145.188H183.964V145.092H176.111L180.181 142.736H188.059L188.238 142.616H179.583L182.085 141.161H190.764L190.944 141.041H182.288L184.79 139.586H193.47L193.649 139.466H184.994L187.496 138.012H196.175L196.355 137.891H187.7L190.202 136.437H198.881L199.061 136.317H190.405L192.907 134.862H201.587L201.766 134.742H193.111L195.206 133.516L203.706 133.54L203.801 133.6ZM171.885 147.484H171.31L175.189 145.236H175.776L171.897 147.484H171.885ZM180.002 142.784L175.931 145.14H175.357L179.427 142.784H180.002Z" fill="#A09595"/>
</g>
<path opacity="0.7" d="M164.198 141.69L203.956 118.49L203.932 133.636L164.174 156.836L164.198 141.69Z" fill="url(#paint14_linear_979_5992)"/>
<path d="M203.944 127.674L201.897 128.876V122.793L203.956 121.591V121.399L201.897 122.601V119.704L201.73 119.8V122.709L199.156 124.212V121.303L198.988 121.399V124.308L196.414 125.811V122.902L196.247 122.998V125.871L193.673 127.373V124.5L193.505 124.597V127.469L190.931 128.972V126.099L190.764 126.195V129.068L188.19 130.571V127.698L188.022 127.794V130.631L185.448 132.133V129.297L185.281 129.393V132.23L182.707 133.732V130.883L182.539 130.979V133.828L179.965 135.331V132.482L179.798 132.578V135.391L177.224 136.894V134.081L177.056 134.177V136.99L174.482 138.492V135.68L174.315 135.776V138.589L171.741 140.091V137.278L171.573 137.374V140.151L168.999 141.654V138.877L168.832 138.973V141.75L166.258 143.253V140.476L166.09 140.572V143.349L164.127 144.491V144.683L166.09 143.541V149.623L164.115 150.777V150.97L166.09 149.816V155.694L166.258 155.598V149.72L168.832 148.217V154.095L168.999 153.999V148.121L171.573 146.618V152.496L171.741 152.4V146.558L174.315 145.056V150.898L174.482 150.801V144.959L177.056 143.457V149.299L177.224 149.203V143.361L179.798 141.858V147.712L179.965 147.616V143.012L183.94 140.716V145.308L184.059 145.236V140.644L188.01 138.348V142.916L188.178 142.82V137.038L190.752 135.535V141.317L190.919 141.221V135.439L193.493 133.937V139.718L193.661 139.622V133.84L196.235 132.338V138.12L196.402 138.024V132.278L198.976 130.775V136.521L199.144 136.425V130.679L201.718 129.176V134.934L201.885 134.838V129.08L203.932 127.878V127.686L203.944 127.674ZM168.891 147.904V148.001L166.318 149.503V149.395C166.318 142.627 166.318 145.056 166.318 143.421L168.891 141.918C168.891 143.301 168.891 140.812 168.891 147.904ZM171.633 146.318V146.402L169.059 147.904V147.808C169.059 140.716 169.059 144.034 169.059 141.822L171.633 140.319C171.633 143.036 171.633 138.42 171.633 146.318ZM174.374 144.731V144.839L171.801 146.342V146.306V140.259L174.374 138.757V144.731ZM177.116 143.24L174.542 144.743V144.635C174.542 137.867 174.542 140.295 174.542 138.661L177.116 137.158V143.24ZM179.857 141.642L177.284 143.144V137.062L179.857 135.559V141.642ZM182.755 133.9L185.328 132.398V138.48L182.755 139.983V133.9ZM180.013 135.499L182.587 133.997V140.079L180.013 141.582V135.499ZM188.058 138.192L180.013 142.856V141.774C180.887 141.257 186.693 137.867 188.058 137.074V138.192ZM188.058 136.87L185.484 138.372V132.29L188.058 130.787V136.87ZM190.8 135.307L188.226 136.809V130.727L190.8 129.224V135.307ZM193.541 133.708L190.967 135.211V129.128L193.541 127.626V133.708ZM196.283 132.109L193.709 133.612V127.53L196.283 126.027V132.109ZM199.024 130.547L196.45 132.049V125.967L199.024 124.464V130.547ZM201.766 128.948L199.192 130.451V124.368L201.766 122.866V128.948Z" fill="#489B8D"/>
</g>
<path d="M161.163 111.218L161.139 123.359L190.41 106.422L190.433 94.2448L161.163 111.218Z" fill="white"/>
<g style="mix-blend-mode:multiply" opacity="0.6">
<path d="M186.374 106.434L184.148 107.732H187.775V107.937H183.789L181.406 109.319H185.034V109.523H181.047L178.665 110.906H182.292V111.11H178.306L175.923 112.492H179.551V112.697H175.564L173.182 114.079H176.809V114.283H172.823L170.44 115.666H174.068V115.87H170.081L167.699 117.253H171.326V117.457H167.34L164.957 118.839H168.585V119.044H164.598L162.216 120.426H165.843V120.63H161.857L160.576 121.376V110.954L190.672 93.6682L190.385 106.434H186.338H186.374ZM160.611 122.217H163.149V122.013H160.611V122.217Z" fill="#A09595"/>
</g>
<path opacity="0.7" d="M161.163 111.218L190.433 94.2448L190.41 106.422L161.139 123.359L161.163 111.218Z" fill="url(#paint15_linear_979_5992)"/>
<path d="M160.252 110.545L160.229 123.888L161.138 123.347L161.162 111.278L190.433 94.305L190.409 106.434L191.319 105.845L191.355 92.5019L160.252 110.545Z" fill="#48484D"/>
<path d="M190.432 100.219L187.918 101.685V95.7713L187.75 95.8675V101.782L185.176 103.284V97.358L185.009 97.4542V103.332L182.435 104.835V98.9447L182.267 99.0409V104.931L179.693 106.434V100.543L179.526 100.64V106.53L176.952 108.032V102.142L176.784 102.238V108.092L174.21 109.595V103.741L174.043 103.837V109.691L171.469 111.194V105.34L171.301 105.436V111.29L168.727 112.792V106.938L168.56 107.035V112.853L165.986 114.355V108.525L165.818 108.621V114.451L163.244 115.954V110.124L163.077 110.22V116.05L161.113 117.192V117.384L163.077 116.242V122.205L163.244 122.108C163.244 115.365 163.244 117.781 163.244 116.146L165.818 114.644C165.818 116.026 165.818 113.538 165.818 120.618L165.986 120.522C165.986 113.454 165.986 116.759 165.986 114.547L168.56 113.045C168.56 115.762 168.56 111.158 168.56 119.031L168.727 118.935V112.985L171.301 111.482V117.444L171.469 117.348C171.469 110.605 171.469 113.021 171.469 111.386L174.043 109.883V115.858L174.21 115.762V109.787L176.784 108.285V114.271L176.952 114.175V108.225L179.526 106.722V112.684L179.693 112.588V106.626L182.267 105.123V111.098L182.435 111.001V105.027L185.009 103.525V109.511L185.176 109.415V103.464L187.75 101.962V107.924L187.918 107.828V101.866L190.432 100.399V100.207V100.219Z" fill="#489B8D"/>
<path d="M167.506 131.773L167.41 154.792L169.122 153.807L169.134 138.829L198.907 121.423L198.883 136.557L200.487 135.631L200.571 112.612L167.506 131.773Z" fill="#48484D"/>
<path d="M82.4591 149.888C81.0824 149.888 79.7057 149.527 78.4726 148.818L50.4111 132.554C50.0759 132.362 49.9562 131.929 50.1597 131.592C50.3512 131.256 50.7822 131.136 51.1174 131.34L79.1789 147.604C81.2021 148.782 83.7281 148.782 85.7513 147.604L111.814 132.494C112.149 132.302 112.58 132.41 112.771 132.746C112.963 133.083 112.855 133.516 112.52 133.708L86.4577 148.818C85.2246 149.527 83.8479 149.888 82.4711 149.888H82.4591Z" fill="#5F5F64"/>
<path d="M96.0583 153.458L96.0703 156.283L106.294 162.257V159.42L96.0583 153.458Z" fill="#3B3B3F"/>
<path d="M106.293 159.42V162.257L116.589 156.283V153.458L106.293 159.42Z" fill="#48484D"/>
<path d="M96.0583 153.458L106.294 159.42L116.59 153.458L106.354 147.484L96.0583 153.458Z" fill="#5F5F64"/>
<path d="M101.016 127.193C103.901 128.876 108.582 128.876 111.479 127.193C112.939 126.351 113.67 125.234 113.658 124.128L113.742 152.64C113.742 153.746 113.011 154.864 111.563 155.706C108.666 157.389 103.973 157.389 101.1 155.706C99.6629 154.876 98.9566 153.782 98.9446 152.689L98.8608 124.176C98.8608 125.27 99.5791 126.363 101.016 127.193Z" fill="url(#paint16_linear_979_5992)"/>
<path d="M101.064 121.099C98.1669 122.782 98.143 125.51 101.028 127.193C103.913 128.876 108.594 128.876 111.491 127.193C114.388 125.51 114.412 122.794 111.527 121.111C108.642 119.428 103.961 119.428 101.064 121.111V121.099Z" fill="#F2ECDD"/>
<path d="M103.972 120.546C105.253 119.8 107.312 119.8 108.593 120.546C109.874 121.291 109.862 122.493 108.581 123.226C107.3 123.972 105.229 123.972 103.96 123.226C102.691 122.481 102.691 121.279 103.972 120.534V120.546Z" fill="#FFF9E9"/>
<path d="M108.342 160.574L108.354 163.41L118.578 169.373V166.548L108.342 160.574Z" fill="#3B3B3F"/>
<path d="M118.577 166.548V169.373L128.885 163.41L128.873 160.574L118.577 166.548Z" fill="#48484D"/>
<path d="M108.342 160.574L118.578 166.548L128.873 160.574L118.638 154.612L108.342 160.574Z" fill="#5F5F64"/>
<path d="M113.31 134.309C116.195 135.992 120.876 135.992 123.773 134.309C125.234 133.467 125.964 132.349 125.952 131.243L126.036 159.756C126.036 160.862 125.306 161.98 123.857 162.822C120.96 164.504 116.267 164.504 113.394 162.822C111.957 161.992 111.251 160.898 111.239 159.804L111.155 131.292C111.155 132.385 111.874 133.479 113.31 134.309Z" fill="url(#paint17_linear_979_5992)"/>
<path d="M113.347 128.226C110.45 129.909 110.426 132.638 113.311 134.321C116.196 136.004 120.877 136.004 123.774 134.321C126.671 132.638 126.695 129.921 123.81 128.238C120.925 126.556 116.244 126.556 113.347 128.238V128.226Z" fill="#F2ECDD"/>
<path d="M116.255 127.661C117.536 126.916 119.595 126.916 120.876 127.661C122.145 128.407 122.145 129.609 120.864 130.342C119.583 131.087 117.512 131.087 116.243 130.342C114.974 129.597 114.974 128.395 116.255 127.649V127.661Z" fill="#FFF9E9"/>
<path d="M89.881 164.457C88.7796 164.457 87.6782 164.168 86.6966 163.603L45.5142 139.73C44.4607 139.117 43.8381 138.035 43.8381 136.821C43.8381 135.607 44.4607 134.513 45.5142 133.912L56.8513 127.337C57.1865 127.145 57.6175 127.253 57.809 127.59C58.0006 127.926 57.8928 128.359 57.5576 128.551L46.2205 135.126C45.6099 135.475 45.2508 136.112 45.2508 136.821C45.2508 137.531 45.6099 138.156 46.2205 138.516L87.4029 162.389C88.9353 163.279 90.8507 163.279 92.3831 162.389L100.739 157.545C101.074 157.352 101.505 157.461 101.697 157.797C101.889 158.134 101.781 158.567 101.446 158.759L93.0894 163.603C92.1077 164.168 91.0063 164.457 89.893 164.457H89.881Z" fill="#5F5F64"/>
<path d="M102.152 171.561C101.051 171.561 99.9493 171.272 98.9676 170.707L57.7853 146.834C57.45 146.642 57.3303 146.209 57.5338 145.873C57.7254 145.536 58.1564 145.416 58.4916 145.62L99.674 169.493C101.206 170.383 103.122 170.383 104.654 169.493L113.01 164.649C113.346 164.456 113.777 164.565 113.968 164.901C114.16 165.238 114.052 165.671 113.717 165.863L105.361 170.707C104.379 171.272 103.277 171.561 102.164 171.561H102.152Z" fill="#5F5F64"/>
<path d="M74.4976 61.392C72.0793 61.2117 70.1998 63.3875 70.3195 66.2483C70.4392 69.1092 72.4983 71.5735 74.9166 71.7418C77.3349 71.9221 79.2144 69.7463 79.0947 66.8854C78.975 64.0245 76.9159 61.5603 74.4976 61.392Z" fill="#8C8080"/>
<path d="M125.294 31.5691C122.875 31.3888 120.996 33.5645 121.116 36.4254C121.235 39.2863 123.294 41.7506 125.713 41.9189C128.131 42.0992 130.01 39.9234 129.891 37.0625C129.771 34.2016 127.712 31.7374 125.294 31.5691Z" fill="#8C8080"/>
</g>
<defs>
<linearGradient id="paint0_linear_979_5992" x1="96.6452" y1="92.3093" x2="164.967" y2="92.3093" gradientUnits="userSpaceOnUse">
<stop stop-color="#3B3B3F"/>
<stop offset="1" stop-color="#48484D"/>
</linearGradient>
<linearGradient id="paint1_linear_979_5992" x1="110.964" y1="24.4891" x2="150.997" y2="24.4891" gradientUnits="userSpaceOnUse">
<stop stop-color="#B8AF9A"/>
<stop offset="1" stop-color="#9E947C"/>
</linearGradient>
<linearGradient id="paint2_linear_979_5992" x1="112.4" y1="7.33557" x2="149.56" y2="7.33557" gradientUnits="userSpaceOnUse">
<stop stop-color="#D3C9B2"/>
<stop offset="0.14" stop-color="#CDC3AB"/>
<stop offset="1" stop-color="#AEA388"/>
</linearGradient>
<linearGradient id="paint3_linear_979_5992" x1="105.109" y1="55.5745" x2="156.492" y2="55.5745" gradientUnits="userSpaceOnUse">
<stop stop-color="#AEA388"/>
<stop offset="0.6" stop-color="#CDC3AB"/>
<stop offset="1" stop-color="#E4DBC6"/>
</linearGradient>
<linearGradient id="paint4_linear_979_5992" x1="46.3769" y1="121.447" x2="114.699" y2="121.447" gradientUnits="userSpaceOnUse">
<stop stop-color="#3B3B3F"/>
<stop offset="1" stop-color="#48484D"/>
</linearGradient>
<linearGradient id="paint5_linear_979_5992" x1="60.6953" y1="53.6269" x2="100.74" y2="53.6269" gradientUnits="userSpaceOnUse">
<stop stop-color="#B8AF9A"/>
<stop offset="1" stop-color="#9E947C"/>
</linearGradient>
<linearGradient id="paint6_linear_979_5992" x1="62.1436" y1="36.4732" x2="99.3035" y2="36.4732" gradientUnits="userSpaceOnUse">
<stop stop-color="#D3C9B2"/>
<stop offset="0.14" stop-color="#CDC3AB"/>
<stop offset="1" stop-color="#AEA388"/>
</linearGradient>
<linearGradient id="paint7_linear_979_5992" x1="54.8401" y1="84.7118" x2="106.222" y2="84.7118" gradientUnits="userSpaceOnUse">
<stop stop-color="#AEA388"/>
<stop offset="0.6" stop-color="#CDC3AB"/>
<stop offset="1" stop-color="#E4DBC6"/>
</linearGradient>
<linearGradient id="paint8_linear_979_5992" x1="207.36" y1="49.9007" x2="215.034" y2="49.9007" gradientUnits="userSpaceOnUse">
<stop stop-color="#AEA388"/>
<stop offset="0.6" stop-color="#CDC3AB"/>
<stop offset="1" stop-color="#E4DBC6"/>
</linearGradient>
<linearGradient id="paint9_linear_979_5992" x1="208.126" y1="12.0838" x2="214.267" y2="12.0838" gradientUnits="userSpaceOnUse">
<stop stop-color="#B8AF9A"/>
<stop offset="1" stop-color="#9E947C"/>
</linearGradient>
<linearGradient id="paint10_linear_979_5992" x1="207.36" y1="52.1486" x2="215.033" y2="52.1486" gradientUnits="userSpaceOnUse">
<stop stop-color="#776B6B"/>
<stop offset="0.86" stop-color="#9A8E8E"/>
<stop offset="1" stop-color="#A09595"/>
</linearGradient>
<linearGradient id="paint11_linear_979_5992" x1="194.499" y1="42.4356" x2="202.173" y2="42.4356" gradientUnits="userSpaceOnUse">
<stop stop-color="#AEA388"/>
<stop offset="0.6" stop-color="#CDC3AB"/>
<stop offset="1" stop-color="#E4DBC6"/>
</linearGradient>
<linearGradient id="paint12_linear_979_5992" x1="195.265" y1="4.63121" x2="201.406" y2="4.63121" gradientUnits="userSpaceOnUse">
<stop stop-color="#B8AF9A"/>
<stop offset="1" stop-color="#9E947C"/>
</linearGradient>
<linearGradient id="paint13_linear_979_5992" x1="194.501" y1="44.6952" x2="202.174" y2="44.6952" gradientUnits="userSpaceOnUse">
<stop stop-color="#776B6B"/>
<stop offset="0.86" stop-color="#9A8E8E"/>
<stop offset="1" stop-color="#A09595"/>
</linearGradient>
<linearGradient id="paint14_linear_979_5992" x1="164.174" y1="137.663" x2="203.956" y2="137.663" gradientUnits="userSpaceOnUse">
<stop stop-color="#72C9B2"/>
<stop offset="0.57" stop-color="#60BCB0"/>
<stop offset="1" stop-color="#51B1AF"/>
</linearGradient>
<linearGradient id="paint15_linear_979_5992" x1="161.139" y1="108.802" x2="190.433" y2="108.802" gradientUnits="userSpaceOnUse">
<stop stop-color="#72C9B2"/>
<stop offset="0.57" stop-color="#60BCB0"/>
<stop offset="1" stop-color="#51B1AF"/>
</linearGradient>
<linearGradient id="paint16_linear_979_5992" x1="98.8728" y1="140.548" x2="113.754" y2="140.548" gradientUnits="userSpaceOnUse">
<stop stop-color="#AEA388"/>
<stop offset="0.6" stop-color="#CDC3AB"/>
<stop offset="1" stop-color="#E4DBC6"/>
</linearGradient>
<linearGradient id="paint17_linear_979_5992" x1="111.155" y1="147.664" x2="126.036" y2="147.664" gradientUnits="userSpaceOnUse">
<stop stop-color="#AEA388"/>
<stop offset="0.6" stop-color="#CDC3AB"/>
<stop offset="1" stop-color="#E4DBC6"/>
</linearGradient>
<clipPath id="clip0_979_5992">
<rect width="266.728" height="198.712" fill="white" transform="translate(1.66028 0.0990906)"/>
</clipPath>
</defs>
</svg>
