<svg width="133" height="134" viewBox="0 0 133 134" fill="none" xmlns="http://www.w3.org/2000/svg">
<g clip-path="url(#clip0_880_2623)">
<path d="M66.8082 133.586C103.259 133.586 132.808 103.813 132.808 67.0859C132.808 30.359 103.259 0.585938 66.8082 0.585938C30.3574 0.585938 0.808228 30.359 0.808228 67.0859C0.808228 103.813 30.3574 133.586 66.8082 133.586Z" fill="url(#paint0_radial_880_2623)"/>
<g style="mix-blend-mode:hard-light">
<path d="M121.715 90.4914C121.695 90.5608 121.675 90.6599 121.656 90.7292C121.774 90.2932 121.803 90.105 121.774 89.8275C121.784 90.0257 121.754 90.2833 121.656 90.7292C121.557 91.1058 121.076 92.9687 120.702 92.4138C120.544 92.1859 120.377 91.5814 120.2 90.9472C119.659 89.0348 119.138 87.3304 118.184 85.7351C118.204 85.6855 118.233 85.6062 118.253 85.5567C119.905 85.4972 121.577 88.8267 121.459 89.8572C121.567 89.8572 121.666 89.8572 121.774 89.8374C121.784 89.9762 121.803 90.1446 121.715 90.5013V90.4914Z" fill="white"/>
<path d="M101.977 21.0483C101.849 20.9393 101.721 20.8303 101.593 20.7312C101.721 20.8402 101.849 20.9492 101.977 21.0483Z" fill="white"/>
<path d="M124.429 99.8355C123.269 101.748 121.705 104.295 120.446 106.138C120.485 106.078 120.544 105.999 120.584 105.94C120.082 106.643 119.768 107.069 119.246 107.753C119.787 107.02 120.053 106.643 120.23 106.336C119.935 106.514 116.719 109.814 116.306 110.25C115.844 110.736 115.824 110.745 115.47 110.884C115.499 110.815 115.529 110.716 115.568 110.646C116.139 109.586 116.935 108.665 117.515 107.604C117.928 106.851 117.958 105.93 118.528 105.246C118.558 105.305 118.607 105.375 118.637 105.434C118.656 105.414 118.686 105.385 118.705 105.365C118.941 104.79 119.207 103.987 119.561 103.472C119.689 103.274 119.866 103.016 120.004 102.838C120.8 101.778 121.803 100.896 122.6 99.8355C123.082 99.2014 123.357 98.4483 123.8 97.7844C123.878 97.6654 123.977 97.5465 124.065 97.4276C124.026 97.5664 123.987 97.7051 123.937 97.8438C123.947 97.8438 123.967 97.824 123.987 97.8141C124.131 97.5036 124.714 96.4466 125.737 94.6432C125.796 94.8513 125.806 94.9603 125.521 95.6737C125.619 95.4854 125.727 95.2873 125.826 95.0891C125.845 95.1188 125.875 95.1584 125.904 95.1981C126.18 94.6828 127.114 92.9388 127.448 91.8488C127.478 91.9281 127.507 92.047 127.527 92.1362C127.612 92.0965 127.74 91.9578 127.911 91.72C127.32 93.1799 126.94 94.2831 126.77 95.0296C127.861 93.3946 128.097 91.4029 128.963 89.6787C128.678 90.5408 128.589 90.8083 128.206 91.8389C128.245 91.7497 128.304 91.6308 128.333 91.5317C128.147 92.0371 127.979 92.4433 127.773 92.9487C126.809 95.0296 125.58 97.8438 124.439 99.8355H124.429Z" fill="white"/>
<path d="M129.612 87.9348L129.927 86.934C130.104 86.3592 130.418 85.2197 130.418 85.2098C130.497 84.2321 130.52 83.7135 130.487 83.6541C130.281 83.7531 130.094 84.1396 129.464 85.6161C129.7 83.9711 129.7 83.7928 129.651 83.6937C129.622 83.7135 129.592 83.7333 129.573 83.7631C129.52 83.8357 129.382 84.0735 129.16 84.4765C129.219 84.6846 129.16 84.9026 129.199 85.1107C129.356 85.0909 129.317 84.8828 129.455 84.8431C129.474 84.863 129.543 84.962 129.238 85.398C129.179 85.4839 129.107 85.844 129.022 86.4781C129.091 86.2899 129.16 86.1016 129.219 85.9133C129.366 86.1214 129.396 86.1611 129.523 86.2106C129.573 86.2304 129.592 86.2403 129.592 86.3394C129.592 86.5871 129.287 87.8258 129.189 88.242C129.228 88.1726 129.268 88.0933 129.297 88.024C129.228 88.351 129.219 88.4402 129.209 88.5095C129.209 88.5392 129.209 88.569 129.209 88.6086C129.258 88.5888 129.287 88.5293 129.287 88.5293L129.307 88.4798C129.327 88.4203 129.356 88.3609 129.376 88.3014C129.415 88.2122 129.455 88.1231 129.474 88.024C129.573 87.3898 129.868 86.9042 129.877 86.8943C129.897 87.0132 129.641 87.8456 129.602 87.9348H129.612Z" fill="white"/>
<path d="M126.524 84.8828L126.475 84.9125C126.475 84.9125 126.445 84.9324 126.426 84.9423C126.416 84.9423 126.396 84.9621 126.386 84.972C126.249 85.0612 126.239 85.0711 126.219 85.0711C125.875 86.5773 125.334 88.5492 124.704 89.3518C124.547 89.2131 124.4 89.0744 124.232 88.9356C124.016 89.2858 123.875 89.4608 123.81 89.4608C123.76 89.3915 123.76 89.2825 123.682 89.223C123.534 89.3518 123.524 89.3518 123.396 89.3815C123.357 89.3518 123.318 89.2924 123.318 89.2527C123.288 88.9158 123.426 88.5987 123.416 88.2618C123.406 87.9546 123.229 87.6772 123.249 87.3601C123.288 86.8349 123.416 86.4881 123.662 85.8044C123.819 85.844 123.977 85.8836 124.124 85.9233C125.432 83.2577 126.249 81.1273 126.445 80.5327C126.671 80.9093 126.799 81.1372 126.986 81.484C126.475 82.8316 126.032 84.0009 126.563 84.8333C126.544 84.8432 126.524 84.8531 126.504 84.8729L126.524 84.8828Z" fill="white"/>
<path d="M127.96 48.229C129.602 52.9061 128.963 53.1637 128.628 53.3025C128.733 53.5733 128.799 53.9796 128.825 54.5213C128.727 54.5015 128.622 54.2207 128.51 53.679C128.215 54.0853 128.245 54.6303 127.93 55.0266C127.911 54.987 127.881 54.9275 127.861 54.8879C127.891 54.3231 127.97 52.589 128.353 52.9655C128.333 52.5989 128.333 52.5395 128.038 50.9144C128.048 50.954 128.068 50.9936 128.078 51.0333C128.088 51.0729 128.097 51.1026 128.117 51.1423C128.127 51.172 128.137 51.2017 128.147 51.2414C128.147 51.2711 128.166 51.3008 128.176 51.3305C128.176 51.3603 128.196 51.3801 128.206 51.4098C128.206 51.4395 128.225 51.4594 128.225 51.4891C128.225 51.5089 128.245 51.5386 128.245 51.5584C128.245 51.5882 128.265 51.608 128.265 51.6377C128.373 50.4784 128.068 49.5073 127.409 47.3669C127.458 47.3174 127.507 47.2678 127.557 47.2183C127.645 47.3966 127.743 47.5849 127.97 48.2191L127.96 48.229Z" fill="white"/>
<path d="M128.186 83.4857C127.96 84.4073 127.842 84.4568 126.937 84.8631C126.76 85.3255 126.701 85.7978 126.76 86.2801C126.986 85.9828 127.153 85.7648 127.399 85.4279C127.399 85.4774 127.399 85.5369 127.399 85.5864C126.976 86.4683 126.603 87.2314 126.907 88.0736C126.77 88.2916 126.632 88.4997 126.494 88.7177C126.534 88.2619 126.563 87.8457 126.583 87.3304C126.396 87.6178 126.376 87.6674 126.189 88.5592C126.052 89.233 125.94 89.5864 125.855 89.6194C125.855 89.6194 125.639 89.2726 126.445 86.399C126.986 84.4865 127.153 84.0902 127.399 84.1496C127.724 84.2289 127.832 84.2487 128.245 83.2083C128.225 83.2974 128.206 83.4064 128.186 83.4956V83.4857Z" fill="white"/>
<path d="M124.803 39.7073C124.714 39.628 124.636 39.5587 124.547 39.4794C124.626 39.7172 124.783 40.2226 124.95 40.5694C125.039 40.7478 125.167 40.9955 125.275 41.1639C125.452 41.4513 125.816 41.6198 125.816 42.0161C125.816 42.0161 125.731 41.9269 125.56 41.7486C125.639 41.9963 125.717 42.2539 125.786 42.5017C124.567 40.064 123.17 37.7255 121.951 35.2878C123.042 36.8436 123.878 38.1318 124.823 39.7271L124.803 39.7073Z" fill="white"/>
<path d="M106.225 17.61C106.884 18.2838 106.687 18.8784 106.206 18.8486C105.724 18.8189 104.996 18.0064 105.193 17.8776C105.291 17.8082 105.566 17.8974 105.714 17.937C105.576 17.7686 105.438 17.6001 105.301 17.4316L105.438 17.5406C105.675 17.5406 105.901 17.5208 106.137 17.5109C106.166 17.5406 106.196 17.5704 106.225 17.6001V17.61Z" fill="white"/>
<path d="M128.737 73.5963C128.688 73.8044 128.638 74.0224 128.589 74.2305C128.324 74.1512 128.048 74.0818 127.783 74.0125C127.816 73.7284 127.838 73.5468 127.852 73.4675C127.648 73.2627 127.547 73.1438 127.547 73.1108C127.547 73.0414 127.547 72.9027 127.566 72.7045C127.635 71.7037 127.645 71.0199 127.635 70.0984C127.783 70.0984 127.94 70.1182 128.088 70.1281C128.235 71.1983 128.176 71.5154 128.078 71.882C127.97 72.2883 127.95 72.5558 128.078 73.5468C128.304 73.5468 128.52 73.5269 128.747 73.5071C128.747 73.5368 128.737 73.5765 128.727 73.5963H128.737Z" fill="white"/>
<path d="M127.193 44.7113C127.222 44.959 127.262 45.3356 127.301 45.7914C127.098 45.9962 126.989 46.1547 126.976 46.267C126.976 46.267 126.996 46.2968 127.006 46.3166C127.15 46.5544 127.216 46.7592 127.203 46.9309C127.094 46.7129 126.927 46.5247 126.858 46.2869C126.76 45.9599 126.76 45.6229 126.701 45.2959C126.534 44.414 126.229 43.8393 125.934 43.3538C126.258 43.5817 126.406 43.978 126.74 44.196C126.829 44.2555 126.868 44.1762 126.858 43.9582C127.068 44.348 127.18 44.5957 127.193 44.7014V44.7113Z" fill="white"/>
<path d="M123.652 92.9687C122.669 93.0876 122.265 93.1471 121.764 93.2461C121.685 93.2561 121.616 93.2858 121.538 93.2759C121.498 93.2759 121.469 93.2759 121.43 93.2461C121.321 93.157 121.243 93.0381 121.135 92.939C121.233 92.5624 121.312 92.4237 121.469 92.3246C121.587 92.285 121.666 92.2751 121.921 92.3642C122.334 92.5129 122.61 92.5723 122.954 91.9778C122.954 92.0075 122.954 92.0471 122.954 92.0868C123.052 92.1264 123.141 92.0471 123.239 92.0471C123.265 92.1198 123.223 92.3048 123.111 92.6021C123.505 92.4369 123.724 92.3675 123.77 92.394C123.816 92.4204 123.773 92.612 123.642 92.9687H123.652Z" fill="white"/>
<path d="M95.4171 18.9278C95.6728 19.1854 95.9285 19.443 96.1743 19.7007C96.1547 19.7007 96.1153 19.7106 96.0957 19.7205C94.9548 19.998 94.827 19.8989 94.6795 19.78C94.4041 19.562 94.3746 19.5917 94.1681 19.7403C94.0009 19.1854 94.2074 19.007 94.3451 18.9377C94.532 18.8881 94.6795 18.9377 94.9352 19.1061C94.9352 18.908 94.9352 18.799 95.0138 18.7791C95.0335 18.7791 95.2007 18.7197 95.4171 18.9377V18.9278Z" fill="white"/>
<path d="M129.002 78.531C128.871 78.7952 128.796 79.1982 128.776 79.7399C128.599 79.6606 128.504 79.2609 128.491 78.5409C128.333 78.7787 128.176 79.0066 128.019 79.2345C127.989 78.8679 128.029 78.749 128.186 78.4814C128.324 78.2535 128.333 78.1643 128.343 77.9562C128.363 77.9562 128.383 77.9364 128.402 77.9265C128.412 78.0058 128.432 78.085 128.451 78.1643C128.747 77.6391 128.904 77.3419 128.904 77.3419C128.973 77.1338 128.904 76.9158 128.914 76.7077C129.16 76.678 129.13 78.2832 129.002 78.5409V78.531Z" fill="white"/>
<path d="M97.6692 19.3638C97.8265 19.9881 97.1578 20.4637 96.8431 20.4835C96.8136 20.2853 96.7841 20.1862 96.5284 19.7205C96.253 19.2251 96.2333 19.0863 96.4005 18.9872C96.4398 18.9773 96.4694 18.9674 96.5185 18.9575C96.5775 19.0368 96.6365 19.126 96.6857 19.2052C97.0004 19.2251 97.325 19.235 97.6397 19.2548C97.6495 19.2845 97.6692 19.3242 97.6692 19.3638Z" fill="white"/>
<path d="M94.1287 18.363C94.5024 19.3044 93.4895 19.0665 93.1551 18.9873C93.0764 18.8188 92.9977 18.6504 92.9092 18.4918C92.8994 18.472 92.8797 18.4423 92.8699 18.4225C92.8699 18.3135 92.8797 18.1252 93.0862 18.036C93.1846 18.0063 93.3223 17.9964 93.6075 18.0855C93.8337 18.1549 94.0894 18.2837 94.0894 18.2936C94.109 18.3035 94.109 18.3531 94.1189 18.3729L94.1287 18.363Z" fill="white"/>
<path d="M111.713 86.4385C111.615 87.0826 110.975 87.4493 110.779 87.1916C110.611 86.9836 110.671 85.4675 110.671 85.4476C110.671 85.3882 110.782 85.0579 111.005 84.4567C111.054 84.4468 111.103 84.427 111.162 84.427C111.674 85.8935 111.762 86.1611 111.723 86.4385H111.713Z" fill="white"/>
<path d="M106.55 21.8015C107.061 22.297 107.002 22.406 106.747 22.406C106.51 22.406 106.274 22.3564 106.038 22.3366C106.048 22.2772 106.068 22.2078 106.088 22.1483C105.819 21.9303 105.635 21.7586 105.537 21.6331C105.714 21.6331 105.891 21.6331 106.068 21.6331C106.176 21.6331 106.274 21.6133 106.383 21.6331C106.451 21.643 106.501 21.7421 106.55 21.7916V21.8015Z" fill="white"/>
<path d="M128.245 55.9878C128.402 56.6418 128.461 57.3751 128.481 57.6129C128.422 57.5931 128.294 57.5435 128.215 57.2661C128.097 56.8796 128.117 56.4733 128.029 56.077C127.979 56.186 127.93 56.295 127.881 56.404C127.852 55.968 127.822 55.4527 127.92 55.3338C128.048 55.2446 128.196 55.8193 128.245 55.9977V55.9878Z" fill="white"/>
<path d="M127.419 65.0744C127.468 65.5798 127.399 66.5608 127.37 66.9869C126.937 66.5013 127.143 64.9753 127.262 64.4204C127.366 64.7904 127.422 65.0084 127.429 65.0744H127.419Z" fill="white"/>
<path d="M124.488 71.129C124.459 71.2975 124.35 71.8821 124.223 72.5064C123.81 71.6839 123.829 71.1785 124.114 71.0299C124.223 70.9804 124.341 70.9804 124.508 71.0398C124.508 71.0695 124.498 71.0993 124.488 71.129Z" fill="white"/>
<path d="M107.061 17.3819C107.169 17.6197 107.032 17.7683 106.658 17.6197C106.442 17.5305 106.225 17.372 106.088 17.2729C106.402 17.4116 106.481 17.3918 106.56 17.2927C106.609 17.2432 106.638 17.2134 106.747 17.2233C106.747 17.2233 107.012 17.2828 107.051 17.372L107.061 17.3819Z" fill="white"/>
<path d="M130.605 84.5757C130.586 84.6351 130.566 84.7045 130.546 84.7639C130.595 84.5657 130.654 84.3775 130.704 84.1892L130.605 84.5757Z" fill="white"/>
<path d="M126.839 90.848C126.052 92.374 125.993 92.3839 125.963 92.3938C125.924 92.2452 126.347 91.1552 126.73 90.8183C126.799 90.7687 126.839 90.7489 126.888 90.7588C126.878 90.7886 126.858 90.8183 126.839 90.848Z" fill="white"/>
<path d="M128.963 83.1191C128.638 84.4667 128.619 84.4965 128.57 84.5559C128.678 83.8524 128.737 83.1389 128.845 82.4255C128.845 82.3858 128.894 82.3759 128.914 82.3462C128.983 83.02 128.983 83.0299 128.963 83.1092V83.1191Z" fill="white"/>
<path d="M108.094 19.4432C108.153 19.5885 108.179 19.6678 108.173 19.681C108.173 19.681 108.153 19.7107 107.877 19.8098C107.671 19.5522 107.582 19.4233 107.622 19.3342C107.681 19.2549 107.897 19.2549 107.897 19.2549L108.064 19.3738C108.064 19.3738 108.084 19.4233 108.094 19.4432Z" fill="white"/>
<path d="M128.53 54.7196C128.55 55.0664 128.52 55.0664 128.491 55.0664C128.442 55.0664 128.442 55.1358 128.53 55.8393C128.383 55.7601 128.314 55.6114 128.274 55.2745C128.274 55.2051 128.225 54.7989 128.225 54.7989L128.373 54.5115C128.373 54.5115 128.392 54.5016 128.53 54.6007C128.53 54.6403 128.53 54.68 128.53 54.7196Z" fill="white"/>
<path d="M107.12 21.732C107.15 21.9203 107.179 22.1185 107.209 22.3067C107.179 22.2968 107.13 22.277 107.101 22.2671C106.943 22.0689 106.786 21.8905 106.629 21.6924C106.57 21.6131 106.57 21.6032 106.579 21.5933C106.589 21.5933 106.609 21.5834 106.678 21.5933C106.825 21.623 106.963 21.6626 107.11 21.6924C107.11 21.732 107.11 21.732 107.11 21.732H107.12Z" fill="white"/>
<path d="M128.874 76.2916C128.825 76.1627 128.776 76.0339 128.727 75.9051C128.697 75.9546 128.648 75.9844 128.648 76.0537C128.628 76.3708 128.668 76.678 128.678 76.9951C128.481 76.5789 128.56 75.8853 128.707 75.7565C128.855 75.6673 128.933 76.1826 128.933 76.1925C128.933 76.2321 128.894 76.2717 128.884 76.3015L128.874 76.2916Z" fill="white"/>
<path d="M128.707 86.1314C128.497 86.2768 128.383 86.3461 128.363 86.3395C128.363 86.3395 128.314 86.2504 128.324 86.0621C128.373 86.1017 128.412 86.0621 128.569 85.9035C128.707 85.7648 128.766 85.7549 128.737 86.1017L128.707 86.1215V86.1314Z" fill="white"/>
<path d="M125.776 91.7003C125.373 91.8093 125.442 91.7003 125.55 91.6111C125.649 91.5516 125.717 91.5714 125.796 91.6904H125.776V91.7003Z" fill="white"/>
<path d="M93.7943 19.3242C93.7943 19.3242 93.873 19.4035 93.9123 19.4431C93.3321 19.5719 93.2928 19.5224 93.2534 19.4828C93.6206 19.3771 93.8042 19.3242 93.8042 19.3242H93.7943Z" fill="white"/>
<path d="M128.422 75.7564C128.343 76.0339 128.255 76.3212 128.166 76.5987C128.147 76.5987 128.127 76.5987 128.107 76.5987C128.137 76.2717 128.166 75.9447 128.196 75.6177C128.274 75.6573 128.363 75.687 128.442 75.7168V75.7564H128.422Z" fill="white"/>
<path d="M129.012 75.4592C128.924 75.1718 128.835 74.8845 128.747 74.5971C128.835 74.5674 128.924 74.5475 129.012 74.5178C129.012 74.6665 129.022 74.8151 129.042 74.9637C129.042 75.0826 129.081 75.1916 129.081 75.3106C129.081 75.3601 129.042 75.4195 129.022 75.4592H129.012Z" fill="white"/>
<path d="M122 90.095C121.931 90.0059 121.852 89.9167 121.784 89.8275C121.813 89.6293 121.823 89.4212 121.872 89.2329C121.872 89.2032 121.931 89.1834 121.951 89.1636C121.98 89.3122 122 89.4708 122.029 89.6194C122.049 89.7185 122.079 89.8275 122.079 89.9266C122.079 89.9761 122.02 90.0455 122 90.0851V90.095Z" fill="white"/>
<path d="M125.078 93.0084C125.009 92.9291 124.931 92.8498 124.862 92.7805C124.98 92.612 125.049 92.5427 125.098 92.503C125.186 92.4436 125.186 92.5922 125.088 93.0183L125.078 93.0084Z" fill="white"/>
<path d="M62.7863 66.1356C62.7863 66.1356 62.7565 66.0756 62.7367 66.0356C62.7565 66.0656 62.7665 66.1056 62.7863 66.1356Z" fill="white"/>
<path d="M90.2735 106.722C90.1162 106.673 89.9687 106.633 89.8113 106.584C89.5655 107.684 87.4707 112.172 86.9396 112.846C86.3004 113.659 85.3858 113.471 84.9432 112.777C84.8055 112.559 84.599 112.113 84.7563 111.518C84.9629 110.755 85.9266 110.428 85.907 109.537C85.907 109.18 85.5824 108.873 85.73 108.486C85.848 108.189 86.143 107.793 86.3987 107.436C86.379 107.485 86.3987 107.505 86.3987 107.515C86.4184 107.515 88.4345 106.881 89.713 104.701C89.8015 104.691 89.8802 104.671 89.9687 104.661C90.1752 105.732 90.2539 106.108 90.3621 106.762C90.3325 106.762 90.2932 106.742 90.2637 106.732L90.2735 106.722Z" fill="white"/>
<path d="M57.4555 50.746C57.3965 51.0135 57.1113 51.4793 56.9047 51.8162C57.0424 51.8657 57.19 51.9053 57.3276 51.9549C57.1014 52.2125 56.6786 52.2918 55.2132 52.4305C53.6495 52.5891 53.2463 52.6783 52.9316 52.9656C52.9119 52.9161 52.8824 52.8467 52.8726 52.8071C53.2856 52.4008 53.7085 51.9846 54.1216 51.5684C53.8134 51.4165 53.5315 51.2976 53.2758 51.2117C53.4659 50.9739 53.6724 50.7922 53.8954 50.6667C53.6397 49.9632 53.6593 49.765 54.2592 49.7055C54.4068 49.6956 54.6231 49.6263 54.7018 49.4974C54.8591 49.2299 54.6428 48.4966 54.0921 48.3381C53.9249 48.2885 53.7872 48.2489 53.7872 47.9516C53.7872 47.8856 53.8101 47.5817 53.856 47.04C53.738 47.1192 53.62 47.1985 53.502 47.2778C53.5216 47.0994 53.5315 46.9112 53.5511 46.7328C53.4233 46.7328 53.3053 46.7526 53.1774 46.7625C53.4462 46.3067 53.6364 45.9863 53.7478 45.8013H53.6692C53.6692 45.8013 53.62 45.8013 53.5905 45.7914C53.561 45.7914 53.5413 45.7914 53.5118 45.7914C53.4823 45.7914 53.4626 45.7914 53.4331 45.7914C53.4036 45.7914 53.384 45.7914 53.3545 45.7914C53.325 45.7914 53.3053 45.7914 53.2758 45.7914C53.2463 45.7914 53.2266 45.7914 53.1971 45.7914C53.1676 45.7914 53.1479 45.7914 53.1184 45.7914C53.8003 45.0714 54.1707 44.6948 54.2297 44.6618C54.633 44.4339 55.0853 44.4933 55.5181 44.4141C55.2722 44.7411 55.0263 45.0681 54.7805 45.3951C55.1739 45.5239 55.5574 45.6428 55.9508 45.7716C55.6656 46.2076 55.3902 46.6337 55.1149 47.0697C56.0393 48.0804 56.4327 48.8236 56.7966 50.2703C57.2981 50.2803 57.5538 50.3694 57.4555 50.7757V50.746Z" fill="white"/>
<path d="M50.65 37.7849C50.3451 38.2705 48.8109 39.41 45.8605 38.3894C46.008 38.3101 46.1457 38.2309 46.2932 38.1615C46.2932 37.5967 46.1654 37.4084 45.713 37.2994C45.8802 37.2796 46.0375 37.2697 46.2047 37.2499C46.2342 37.1409 46.2441 37.121 46.2441 37.1111C46.2441 37.0913 46.2539 37.0814 46.2637 37.0616C46.2637 37.0418 46.2736 37.0219 46.2834 37.012C46.2834 36.9922 46.2932 36.9724 46.3031 36.9526C46.3031 36.9328 46.3129 36.9129 46.3227 36.8931C46.3227 36.8733 46.3326 36.8535 46.3424 36.8238C46.067 36.8238 45.7818 36.8238 45.5065 36.8238C45.9195 36.1698 46.1851 35.9617 46.5981 35.9617C46.844 36.0112 47.0013 36.1202 47.2275 36.4175C47.1488 36.5562 47.0702 36.685 46.9915 36.8238C47.0112 36.8634 47.0505 36.9129 47.0702 36.9427C47.3062 36.7445 47.5422 36.5463 47.7783 36.3481C47.8176 36.3977 47.8569 36.4373 47.9061 36.4869C51.7711 35.8626 50.6598 37.7651 50.65 37.7849Z" fill="white"/>
<path d="M68.3719 24.4174C67.8802 24.5759 67.772 24.6155 67.6736 24.7444C67.6343 24.7939 67.5851 24.893 67.5359 25.0119C67.3097 25.5074 67.0737 25.9037 66.582 26.5478C66.1886 26.2803 65.7854 26.0127 65.392 25.7353C65.7854 25.6659 66.1788 25.5866 66.582 25.5173C66.582 25.4479 66.582 25.3885 66.582 25.3191H66.4345C66.4345 25.3191 66.3361 25.3191 66.287 25.3191C66.2378 25.3191 66.1886 25.3191 66.1394 25.3191C66.0903 25.3191 66.0411 25.3191 65.9919 25.3191C65.9427 25.3191 65.8936 25.3191 65.8444 25.3191C65.7952 25.3191 65.7461 25.3191 65.6969 25.3191C65.6477 25.3191 65.5985 25.3191 65.5494 25.3191C65.5002 25.3191 65.451 25.3191 65.4018 25.3191V25.22C65.9526 25.002 66.5623 24.7642 66.5918 24.6552C66.5623 24.6453 65.9821 24.3876 65.5002 24.7345C65.2346 24.9227 65.1068 24.9525 64.4971 24.3183C64.5561 24.2291 64.6249 24.13 64.6839 24.0408C64.5266 23.9318 64.3692 23.8327 64.2119 23.7237C64.2315 23.6544 64.2414 23.5949 64.261 23.5255C64.6249 23.4562 64.9888 23.3868 65.3527 23.3175C65.3527 23.3373 65.3625 23.3769 65.3723 23.3967C65.2838 23.4661 65.1953 23.5355 65.1068 23.6048C65.215 23.6841 65.3232 23.7733 65.4313 23.8525C65.5887 23.5685 65.9001 23.6577 66.3656 24.1201C66.3066 23.8625 66.2476 23.6048 66.1886 23.3571C66.3263 23.2679 66.4246 23.2283 66.5722 23.2283C66.8475 23.2481 66.9852 23.3571 67.0245 23.5751C67.5655 23.9021 67.9195 24.1102 68.4801 24.4372C68.4407 24.4471 68.4014 24.4669 68.3621 24.4768L68.3719 24.4174Z" fill="white"/>
<path d="M53.2266 49.0021C53.0594 50.0425 51.8989 52.0342 50.0697 50.7758C50.5352 50.4455 50.7778 50.2539 50.7975 50.2011C50.827 50.1218 50.7975 50.0227 50.7581 49.7849C50.6926 49.4612 50.7155 49.0747 50.827 48.6255C51.5547 48.6751 51.6236 48.5561 51.6924 48.3084C51.8203 47.9121 52.3612 47.8625 52.7939 47.8823C53.325 47.9715 53.2955 48.6156 53.2364 48.9921L53.2266 49.0021Z" fill="white"/>
<path d="M70.6044 23.1491C69.139 24.2292 67.4573 23.5455 67.1426 22.9708C67.89 22.5843 68.2736 22.6041 68.7948 23.0599C68.8636 22.8717 68.9423 22.6834 69.0112 22.4951C69.08 22.614 69.1587 22.723 69.2275 22.8419C69.4504 22.7098 69.9487 22.7825 70.7224 23.0599C70.7224 23.0599 70.6437 23.1194 70.6142 23.1491H70.6044Z" fill="white"/>
<path d="M69.9454 25.3686C69.6897 25.5272 69.434 25.6857 69.1783 25.8443C69.0898 25.5073 69.0308 25.5272 68.6964 25.6263C68.5489 25.6758 68.5194 25.5866 68.5194 25.5866C68.5194 25.5668 68.5194 25.5272 68.5194 25.5073C68.5194 25.3191 68.5194 25.1209 68.5292 24.9326C68.6014 24.9392 69.0964 25.0713 70.0143 25.329C70.0143 25.329 69.9749 25.3587 69.9553 25.3686H69.9454Z" fill="white"/>
<path d="M79.6719 21.623C79.0523 22.1284 78.9244 22.2275 78.8162 22.2671C78.7769 22.2869 78.7277 22.2968 78.6884 22.2968C78.5507 22.2968 78.413 22.2572 78.2753 22.2473C78.2753 22.2275 78.2655 22.1878 78.2557 22.168C78.8326 21.7254 79.1572 21.5008 79.2293 21.4942C79.426 21.4843 79.6129 21.514 79.8095 21.514C79.7702 21.5438 79.7112 21.5933 79.6719 21.623Z" fill="white"/>
<path d="M83.8122 33.1672C83.7139 33.3951 83.6254 33.6032 83.468 33.6428C83.3205 33.6726 83.0353 33.5636 82.9664 33.3654C82.9664 33.3654 82.8386 32.9591 83.232 32.8798C83.409 32.8699 83.586 32.9393 83.8319 33.1176C83.8319 33.1276 83.822 33.1474 83.8122 33.1672Z" fill="white"/>
<path d="M81.8059 21.1574C81.8059 21.1574 81.6584 21.2268 81.1372 21.306C80.9405 21.3358 80.734 21.3556 80.5373 21.3952C80.5176 21.3655 80.4979 21.316 80.4783 21.2763C80.7635 21.0682 80.793 21.0088 80.9602 20.979C81.147 20.9592 81.3929 21.0088 81.8158 21.1475L81.8059 21.1574Z" fill="white"/>
<path d="M78.4524 21.633C78.236 21.6826 78.0983 21.9006 77.8721 21.9402C77.6951 21.9699 77.5476 21.9006 77.4099 21.8213C77.7443 21.7123 78.0885 21.5934 78.4229 21.4844C78.4524 21.5339 78.472 21.5736 78.4917 21.6231H78.4425L78.4524 21.633Z" fill="white"/>
<path d="M82.6517 21.6033C82.514 21.6331 82.4059 21.7718 82.2387 21.7421C82.16 21.7222 82.0616 21.643 82.0518 21.6331C82.0223 21.5538 82.0125 21.5042 81.9928 21.4646C82.1895 21.4646 82.3862 21.4646 82.5829 21.4646C82.6025 21.5042 82.6222 21.5637 82.6419 21.6033H82.6517Z" fill="white"/>
<path d="M88.2574 24.566C88.2115 24.7906 87.9788 25.0449 87.5592 25.329C87.5887 25.3885 87.6182 25.438 87.6477 25.4975L87.569 25.5569C87.4215 25.5966 86.5069 26.2506 86.3692 26.3992C86.1922 26.5875 86.2905 26.8748 86.1528 27.073C85.9758 27.1226 85.8381 27.1523 85.7496 27.3108C85.5824 27.6081 85.6218 27.9648 85.5234 28.2819C85.4644 28.4603 85.2972 28.5594 85.2382 28.7278L85.1202 29.6989C85.1694 30.0358 85.2579 30.1052 86.7429 31.2546C85.4906 31.3405 84.9038 31.1919 84.9825 30.8087C84.599 30.779 84.2154 30.7493 83.8319 30.7096C83.6548 30.4817 83.586 30.3826 83.5762 30.1845C83.5762 30.0061 83.7827 30.0061 83.822 29.8575C83.8614 29.6989 83.7532 29.5503 83.7925 29.3917C83.8122 29.2827 83.9204 28.9161 84.3138 28.5792C84.1761 28.4999 84.0482 28.4206 83.9105 28.3414C84.1072 27.9153 84.2744 27.5486 84.4711 27.1027C84.4023 27.0433 84.3334 26.9739 84.2646 26.9145C84.7662 26.2803 85.1005 25.8641 85.5234 25.8046C85.6709 25.4876 85.7299 25.4083 86.2512 25.2993C86.4184 25.2696 86.6151 25.2299 87.0576 24.9425C87.0281 24.8831 86.9986 24.8236 86.9593 24.7642L87.0183 24.7146C87.2543 24.4834 87.4412 24.3513 87.5789 24.3183C87.7854 24.2885 87.9624 24.3183 88.2968 24.4075C88.2869 24.457 88.2673 24.5264 88.2574 24.5759V24.566Z" fill="white"/>
<path d="M113.454 20.0476L111.703 18.3532C111.969 18.6009 112.136 18.7595 112.303 18.9279C111.988 18.6604 111.565 18.3036 111.241 18.0559C111.192 18.2045 111.133 18.4126 111.084 18.5613C111.329 18.7793 111.654 19.0567 111.9 19.2648C111.88 19.6744 112.247 20.2987 113.001 21.1376C111.438 20.8305 109.884 19.9485 109.874 19.9386C109.874 20.1071 109.884 20.3251 109.894 20.4935C109.776 20.3746 109.628 20.226 109.51 20.1071C109.304 20.1269 109.028 20.1467 108.822 20.1665C108.822 20.9295 109.52 21.3358 109.746 21.9898C109.431 22.0096 109.018 22.1583 108.753 22.3366C108.91 22.6537 109.127 23.06 109.304 23.3672C108.969 23.2615 108.34 22.9543 107.415 22.4456C107.415 22.4456 107.445 22.5249 107.464 22.5646C107.592 22.6835 107.76 22.8321 107.878 22.951C105.478 22.3069 104.455 22.7132 104.121 22.8519C104.091 23.0105 104.042 23.2186 104.013 23.3672C103.776 23.1789 103.363 23.0501 103.068 23.06C103.019 23.4068 102.862 23.8626 102.675 24.1599C102.046 23.3176 102.636 22.1682 101.947 21.3457C101.652 20.989 100.856 20.2359 99.9803 20.9395C99.8328 20.9097 99.6263 20.88 99.4788 20.8503C99.1641 20.7413 98.9772 20.8205 98.7707 20.9097L98.6625 20.8106C98.5543 20.7016 98.4068 20.553 98.2986 20.444C98.1904 20.4836 98.0527 20.5332 97.9446 20.5728C97.9446 20.9097 98.0921 21.3854 98.3085 21.6331C98.1413 21.6926 97.9249 21.7817 97.7577 21.8412C97.7872 21.8808 97.8266 21.9403 97.8561 21.9799C98.0036 22.079 98.2101 22.2078 98.3576 22.3168C96.4432 23.42 95.8924 24.6223 96.7054 25.9237C96.2727 25.6859 95.9482 25.5175 94.6205 26.4093C95.2991 27.5786 96.6464 28.074 97.3643 29.2037C96.3219 28.3019 94.886 27.0534 93.9124 28.4208C94.2959 28.7082 94.7975 28.7677 95.1417 29.1145C94.0402 29.1244 93.6665 27.965 92.7814 27.638C93.8501 29.0187 95.1974 30.5513 96.8234 32.2358C96.6366 32.1962 96.3907 32.1367 96.2038 32.0971C96.1547 31.9485 96.0858 31.7602 96.0367 31.6116C95.7121 31.5125 95.2597 31.453 94.9155 31.4927C95.0794 33.0121 95.145 33.851 95.1122 34.0096C94.3943 34.2474 94.1976 34.1978 93.5583 33.851C93.873 33.8015 94.2763 33.6826 94.5615 33.5637C94.5811 33.0682 94.5615 32.4142 94.5221 31.9187C93.0764 31.0666 93.4502 28.946 91.9356 28.1335C90.7063 27.4696 90.1851 28.6487 90.4998 29.7586C90.726 30.5513 91.6898 31.4233 92.3979 32.0674C92.3782 32.216 92.3585 32.4241 92.3389 32.5727C91.9651 32.4439 91.4734 32.2656 91.1095 32.1169C90.8538 32.0575 90.8538 32.0476 90.8538 32.0476H90.7653C90.5293 31.8692 90.49 31.7899 90.4604 31.7206L90.3719 31.7503C90.3916 31.7998 90.4211 31.8494 90.4408 31.8989C89.7786 31.7007 89.1983 31.6413 88.7001 31.7206C88.7689 32.0674 88.8279 32.543 88.8476 32.8997C87.5166 33.131 86.5922 33.4679 86.0742 33.9105C86.0054 33.7718 85.9169 33.5835 85.848 33.4447C84.363 33.6231 83.7237 35.159 82.4256 35.6248C82.2977 35.5455 82.1207 35.4365 81.9929 35.3473C82.0224 35.0302 82.2092 34.614 82.4354 34.396C82.1109 34.1582 81.57 34.0195 81.1766 33.9699C81.0979 34.1186 80.9996 34.3167 80.9307 34.4654C81.4093 35.3572 81.5765 36.0806 81.4323 36.6355C80.8324 36.2193 80.7537 36.1598 80.1439 36.467L79.8686 36.6949L79.6227 36.9724L79.426 37.3985C79.5637 37.6264 79.7309 37.9633 79.7604 38.2308C79.3277 38.1218 78.7573 37.9831 78.3245 37.8741C78.2164 37.9831 78.0787 38.1318 77.9705 38.2507C78.0984 38.3398 78.2655 38.4687 78.3836 38.5578C78.2754 38.6668 78.1377 38.8155 78.0295 38.9245C76.5248 38.2011 76.5543 37.7156 76.5937 37.0913C76.3281 36.8634 75.9446 36.576 75.6495 36.3778C77.0854 36.1797 78.5704 36.7247 79.9571 36.0112C78.9736 33.7024 76.2691 34.505 74.7841 33.088C74.0236 33.2201 73.5679 33.2499 73.4171 33.1772C73.5646 33.0781 73.7515 32.9493 73.899 32.8502C73.6236 32.6124 73.2106 32.3448 72.8663 32.216C72.7975 32.3746 72.709 32.5827 72.6402 32.7412C72.591 32.7511 72.5221 32.7709 72.4828 32.7907C72.473 32.6322 72.4631 32.4241 72.4533 32.2656C72.3058 32.3052 72.0992 32.3647 71.9517 32.4142C71.637 32.543 71.6174 32.3349 71.5977 32.1268C71.46 32.3547 71.2535 32.652 71.0469 32.8106C71.0666 32.6421 71.0863 32.4142 71.106 32.2358C70.7814 32.4241 70.388 32.7412 70.1225 33.0187C69.8471 32.9493 69.4636 32.8997 69.1882 32.9691C69.1095 33.1078 69.0014 33.2961 68.9227 33.4447C68.8145 33.3258 68.6768 33.1772 68.5686 33.0583C68.4113 33.3258 68.1261 33.6429 67.8704 33.8114C67.7229 33.7717 67.5262 33.7321 67.3786 33.6925C67.3491 33.8708 67.3098 34.1087 67.2803 34.287C66.9557 34.287 66.6214 34.287 66.2968 34.287C66.2477 34.4456 66.1788 34.6636 66.1296 34.832C66.287 34.7825 66.4837 34.7131 66.641 34.6636C66.1887 35.3968 65.71 35.9187 65.2052 36.2292C65.2642 36.3778 65.333 36.5859 65.392 36.7346C63.848 38.0029 62.8056 39.8262 60.996 40.7973C60.9763 40.7676 60.9566 40.7279 60.9468 40.6982C60.8485 40.8568 60.7108 41.0748 60.6124 41.2432C60.7501 41.3324 60.9271 41.4414 61.0648 41.5306C60.7993 41.7288 60.5141 42.0954 60.3862 42.3927C60.6419 42.4224 60.9862 42.462 61.2419 42.462C60.996 42.6899 60.6616 42.9872 60.4059 43.2052C61.1796 44.8039 62.127 45.0946 63.2481 44.0772C63.4448 44.2886 63.9496 45.5041 64.7626 47.7238C66.7296 47.5058 66.405 45.078 67.9195 44.4141C67.5458 44.0376 67.1918 44.0376 66.8377 44.0376C67.1524 43.9484 67.5852 43.879 67.9195 43.8889C68.0081 43.7502 68.1162 43.5719 68.2047 43.4331C65.5002 40.6189 70.6142 37.4183 70.7224 37.4381C71.0273 37.4976 71.342 37.8246 71.519 38.0822C70.2536 40.9757 69.6701 42.5116 69.7684 42.6899C70.8404 44.5727 72.8663 42.0558 74.3219 43.007C74.2235 43.1326 73.1778 43.4728 71.1846 44.0277C71.1256 44.206 71.0371 44.4339 70.9781 44.6123C71.3059 45.1936 71.4403 45.699 71.3813 46.1284C71.0765 46.0789 70.6831 45.8906 70.4372 45.7023C70.2799 45.7618 70.0733 45.841 69.916 45.9005C69.4439 47.4001 68.0212 48.5495 65.6478 49.3489C64.7528 48.6651 63.2776 49.2696 62.658 47.9814C63.3268 47.1292 63.2874 46.6932 63.2088 45.732C62.7629 45.9765 62.3204 47.3043 61.8811 49.7155C58.8717 49.4579 58.557 54.5115 55.1739 53.3125C55.1739 53.4711 55.1739 53.6891 55.1837 53.8476C54.9575 54.0359 54.5543 54.1647 54.2593 54.1647C54.0134 54.1845 53.7971 54.2142 53.6397 54.2341C53.5807 54.4124 53.4922 54.6502 53.4233 54.8286C56.5507 55.8195 54.9084 59.0003 54.4166 59.1787C52.971 59.7237 51.5941 58.604 50.1484 59.0003C49.9026 60.9029 49.7944 64.7179 49.7944 64.7278C53.2168 66.7195 55.7935 64.8963 55.5279 62.7361C57.1277 61.2101 57.9669 60.1333 58.0456 59.5057C58.4193 59.4562 58.9307 59.5057 59.2946 59.6048C59.5503 59.6543 59.5503 59.6543 59.5503 59.6543C61.5566 59.1589 64.2906 58.4752 66.582 63.6576C66.5034 63.8459 66.405 64.1035 66.3362 64.2918C66.5132 64.3017 66.7492 64.3116 66.9263 64.3215C67.1623 63.6972 67.2606 63.4297 67.0934 62.419C67.5262 62.5082 67.89 62.8252 68.3523 62.8352C65.6576 60.1795 64.2414 58.5049 64.1037 57.8112C64.2807 57.7518 64.5069 57.6824 64.6741 57.623C65.3232 58.0193 67.3 59.2382 69.8963 64.0441C70.1717 64.0936 70.5355 64.163 70.8109 64.2224C70.6732 64.3017 70.4765 64.4008 70.3389 64.4801C70.3585 64.817 70.4274 65.2629 70.5257 65.5899C70.7126 65.6196 70.9584 65.6493 71.1453 65.6791C71.696 64.9656 72.0468 64.5726 72.1976 64.4999C72.0697 64.3711 71.9026 64.1927 71.7747 64.0639C71.7747 63.9053 71.7747 63.7072 71.7845 63.5486C72.0206 63.8657 72.3156 64.3116 72.5221 64.6485C72.5615 64.6089 72.6106 64.5494 72.65 64.5098C72.1779 63.8657 71.7059 63.2117 71.2436 62.5676C71.283 62.528 71.3321 62.4784 71.3715 62.4388C71.5092 62.5082 71.696 62.5874 71.8436 62.6568C72.2271 61.9037 72.4336 61.8839 73.1909 61.8046C73.5744 62.1514 73.84 62.6072 74.2629 62.9243C74.2629 63.2811 74.2629 63.7468 74.2629 64.1035C74.0957 64.1035 73.9383 64.1134 73.7711 64.1233C74.6038 65.2001 75.502 65.8079 76.4658 65.9466C76.6822 65.7286 77.0559 65.5007 77.3608 65.4313C78.4426 66.1052 79.4359 65.3124 80.4685 65.2431C80.5275 68.3743 79.013 71.6642 74.5382 70.6237C71.3518 69.8838 69.6144 70.0721 69.3259 71.1885C69.2472 71.2348 66.9 70.2174 62.2843 68.1365C63.1694 67.2843 63.1203 67.1159 62.9727 66.67L62.9039 66.4916L62.8842 66.4421L62.8646 66.3925L62.7269 66.1052C62.8252 65.9763 62.9531 65.798 63.0514 65.6592C59.2454 63.7864 55.7738 68.5329 51.9482 66.234C50.9942 66.779 50.591 67.9582 49.519 68.3545C48.0832 71.6543 44.7099 73.6361 43.5887 77.1439L43.7854 86.29C43.9428 86.3395 44.1395 86.399 44.2968 86.4386C44.3067 86.508 46.3228 93.2066 51.899 92.4733C52.0858 92.4535 52.3317 92.4436 52.5087 92.4733C52.8431 92.5129 53.2463 92.7309 53.5807 92.7706C55.6165 93.0282 57.7702 92.0274 59.6978 93.3849C59.9929 93.2858 60.4354 93.3056 60.7206 93.4146C60.8288 93.2957 60.9763 93.1471 61.0747 93.0282C61.3304 93.2165 61.6647 93.4642 61.9204 93.6525C62.045 95.3568 61.927 96.612 61.5664 97.4179C62.3728 98.6764 63.6415 99.6078 64.1037 101.114C64.9397 103.849 63.6513 106.633 64.2807 109.368C65.0577 112.767 68.4506 115.086 68.1654 118.921C70.7716 121.864 77.3411 116.315 77.5968 114.63C77.6263 114.462 77.5673 114.244 77.5476 114.075C78.118 113.768 79.0326 113.411 79.3375 112.836C79.6325 112.282 79.19 111.707 79.3867 111.152C80.0849 109.21 82.6026 109.19 83.3697 107.317C84.2253 105.236 83.35 103.106 83.5762 101.005C83.9106 97.8143 85.966 96.0505 87.4707 94.7623C90.1162 92.4931 91.08 90.7987 92.3782 86.1315C85.7792 87.6872 84.9236 87.8854 78.5114 72.0605C78.5409 72.0407 78.5901 72.011 78.6196 71.9912C78.8556 72.2785 79.1703 72.6551 79.4064 72.9424C79.5637 72.8731 79.7604 72.7938 79.9178 72.7244C82.4157 76.1629 82.7403 76.5989 85.3858 82.3363C86.5364 84.8235 87.1757 85.4279 87.5101 85.4973C89.4278 85.8837 96.1055 81.3652 98.0921 76.4106C96.4595 74.7789 95.5876 73.7087 95.4761 73.2001C95.0335 73.8739 94.591 74.5378 94.1386 75.2116C93.2863 75.3305 92.7126 75.3933 92.4175 75.3999C92.27 74.954 92.1618 74.3297 92.1422 73.864C92.0438 74.0225 91.916 74.2306 91.8275 74.3793C91.6701 74.3198 91.4537 74.2405 91.2865 74.1811C90.9227 73.0613 89.9785 72.2686 89.595 71.1588C89.8015 70.8615 90.0572 70.4354 90.2146 70.1084C92.3061 71.9185 94.1714 72.7046 95.8105 72.4668C96.3022 73.3685 96.8136 74.3 100.767 73.319C101.082 73.1704 101.072 73.1208 101.072 73.0614C101.229 73.0118 101.426 72.9424 101.583 72.8929C101.872 73.0845 102.269 73.5139 102.773 74.1811C102.911 74.1018 103.088 73.9928 103.226 73.9135C103.344 74.6369 103.639 74.845 104.406 74.7657C104.18 74.9738 103.954 75.3603 103.904 75.6674C104.131 75.9251 104.494 76.2025 104.789 76.3611C105.114 76.1134 105.458 75.6575 105.635 75.281C107.14 78.7591 106.648 82.8218 108.753 86.1216C110.11 85.5766 110.316 83.4065 110.326 83.3767C110.562 77.2826 114.211 72.9424 115.755 72.665C115.834 72.3281 115.788 71.7732 115.617 71.0003C116.443 71.6047 117.673 75.4891 117.781 77.3916C118.243 77.0646 118.43 76.9358 118.823 76.0341C121.144 79.4329 119.276 83.5452 120.692 87.0926C120.889 87.162 121.154 87.2611 121.351 87.3305C121.439 84.2884 119.65 81.4147 120.505 78.3033C120.525 78.3231 122.354 80.4238 122.285 81.4246C123.849 78.4321 124.705 76.7872 123.505 74.736C122.354 72.774 122.344 72.4965 123.426 69.7715C123.672 69.9796 123.918 70.3859 123.996 70.703C124.134 69.7319 124.872 68.9689 124.931 67.9681C125.019 68.0969 125.137 68.2653 125.236 68.3942C128.806 63.6477 122.974 59.04 125.029 54.3232C124.941 54.1944 124.832 54.0161 124.744 53.8872C124.537 54.135 124.35 54.5511 124.331 54.8781C124.193 54.5511 123.878 54.125 123.554 53.9665C123.593 53.1639 123.652 52.1036 123.701 51.301C123.849 51.4 124.046 51.5388 124.193 51.6379C124.223 51.7964 124.252 52.0144 124.282 52.1829C124.478 51.9351 124.714 51.5784 124.852 51.291C125.285 51.7568 125.462 51.945 125.481 52.7873C125.658 52.827 125.885 52.8864 126.062 52.926C126.475 54.4587 126.727 55.3472 126.819 55.5916C128.068 52.4504 125.698 49.9632 125.324 47.1193C126.671 45.5735 123.17 37.4381 121.784 36.3283C121.784 36.5166 121.784 36.7643 121.774 36.9526C121.685 36.8238 121.557 36.6553 121.469 36.5364C121.489 36.6949 121.508 36.903 121.518 37.0517C120.744 35.9881 120.056 33.6033 119.453 29.8973C119.571 30.0063 119.738 30.145 119.856 30.2441C119.876 30.1747 119.915 30.0856 119.935 30.0261C119.699 28.8667 118.705 28.1335 118.292 27.0732C118.499 27.2317 118.764 27.4497 118.971 27.6182C118.941 27.5885 118.922 27.5488 118.892 27.5191C118.322 26.6867 118.204 26.5183 117.211 25.3193C117.24 25.2995 117.279 25.2697 117.309 25.24C117.761 25.894 118.086 26.3597 118.991 27.4002C118.902 27.2416 118.794 27.0336 118.705 26.875C118.637 26.6867 118.735 26.8056 118.833 26.9345C117.417 24.7346 115.424 22.2706 112.854 19.5423C112.962 19.6513 113.11 19.79 113.218 19.899C113.149 19.8296 113.385 20.0377 113.464 20.0972L113.454 20.0476Z" fill="white"/>
<path d="M121.518 30.6502L122.787 32.751C123.288 33.7914 123.928 34.7526 124.4 35.8129C124.321 35.7732 121.518 31.4826 121.498 31.443C121.41 31.2646 119.876 28.6387 119.866 28.6189C119.836 28.5792 119.807 28.5396 119.777 28.5099L119.718 28.4009C119.62 28.2324 119.532 28.064 119.433 27.8955C120.269 28.8468 121.518 30.6403 121.528 30.6502H121.518Z" fill="white"/>
<path d="M108.517 15.6578C108.674 15.8064 108.91 16.0443 109.176 16.3316C108.713 15.9452 108.438 15.6974 108.32 15.5686C108.31 15.5488 108.291 15.5389 108.291 15.5191C108.32 15.5092 108.468 15.5983 108.517 15.6479V15.6578Z" fill="white"/>
<path d="M19.73 113.034C19.73 113.034 19.6808 112.995 19.6611 112.985C19.5825 112.886 19.5136 112.797 19.4349 112.698C19.4448 112.698 19.4644 112.717 19.4743 112.717C19.553 112.826 19.6415 112.925 19.7201 113.034H19.73Z" fill="white"/>
<path d="M13.0621 48.4172C12.9572 48.4635 12.7048 48.5428 12.3049 48.6551C12.4426 48.3082 12.5802 47.9713 12.7179 47.6245C12.8851 47.8524 13.1506 48.1001 13.367 48.2785C13.2785 48.3181 13.1605 48.3776 13.072 48.4172H13.0621Z" fill="white"/>
<path d="M16.6616 43.7698C16.16 43.9581 14.8127 44.4634 14.2521 44.1067C15.4815 41.4808 16.8583 38.9243 18.363 36.4668C18.3827 36.4965 18.4023 36.5362 18.422 36.5659C18.3237 36.7343 18.1958 36.9623 18.1368 37.1505C18.068 37.3487 18.127 37.5568 18.068 37.755C18.0188 37.9234 17.9204 38.1414 17.8024 38.2802C17.5926 38.5378 17.5041 38.845 17.5369 39.2017C17.6057 39.8656 17.5172 39.935 17.2714 40.1133C17.35 40.3181 17.5762 40.5956 17.9499 40.9457C17.9106 41.025 17.8614 41.1241 17.8221 41.2034C17.5861 41.2034 17.35 41.2133 17.114 41.2232C16.9468 41.4015 16.7698 41.5799 16.5928 41.7583C16.9468 41.6493 17.3009 41.5502 17.6549 41.4511C17.9401 42.0456 17.7926 42.4519 17.35 43.532C17.1435 43.6113 16.878 43.7302 16.6714 43.7995L16.6616 43.7698Z" fill="white"/>
<path d="M20.0349 94.9702C19.9463 95.7828 19.5825 96.8133 19.3464 97.5862C19.2776 97.5565 19.1891 97.5168 19.1301 97.4871C19.7201 101.741 19.8939 103.806 19.6513 103.68C19.2481 103.472 17.5369 103.769 18.3728 105.434C19.0022 106.703 18.7564 108.129 19.1006 109.447C18.7859 109.517 18.776 109.517 17.6942 108.744C18.2253 109.556 19.0809 110.141 19.3661 111.132C19.1694 111.224 18.8481 111.185 18.4023 111.013C18.6383 111.34 18.8842 111.667 19.1202 112.004C19.0612 112.004 18.9629 112.063 18.9137 112.034C11.6656 102.541 7.32855 90.1742 7.18103 76.1429C7.27938 76.133 7.40723 76.1132 7.49574 76.1033C7.44329 76.6318 7.63342 77.1437 8.06614 77.6392C7.91863 78.1346 7.90879 78.1644 7.97763 78.2635C8.09565 78.4418 8.31201 78.5013 8.43986 78.6598C9.01027 79.4129 9.02993 80.4038 9.57084 81.1668C9.85604 81.5632 10.5543 81.7515 10.8887 82.0983C13.1113 84.3873 12.4917 85.9133 11.8918 87.3997C12.0098 87.3699 12.1573 87.3204 12.2655 87.2907C12.2754 87.3303 12.295 87.3897 12.3147 87.4393C12.8753 87.9645 12.9736 88.014 13.249 88.1329C13.2982 88.1032 13.3572 88.0636 13.3965 88.0338C13.3965 87.9149 13.4162 87.7564 13.4162 87.6474C13.4752 87.6177 13.544 87.578 13.603 87.5483C13.9571 87.7564 14.1833 87.9546 14.9897 88.7473C15.0192 89.0049 15.0585 89.2527 15.0979 89.5004C15.806 89.7184 20.3889 91.8984 20.0447 94.9801L20.0349 94.9702Z" fill="white"/>
<path d="M47.0407 21.3854C47.198 21.3259 47.4537 21.2565 47.5324 21.098C46.8636 20.7512 46.3129 20.5827 45.8998 20.5926C45.0737 20.6124 44.3558 21.0683 43.5494 21.1872C44.3951 20.6587 44.8508 20.3581 44.9164 20.2854C44.3361 19.681 43.7461 20.5926 43.1462 20.3449C43.6379 20.1599 43.9001 20.0377 43.9329 19.9783C43.0478 19.8693 42.5856 19.7999 41.9267 19.7008C43.156 19.463 44.3853 19.9981 45.6048 19.7008C45.4933 19.5951 44.4804 19.2219 42.5659 18.5811C42.7429 18.5745 43.474 18.6537 44.759 18.8189C44.759 18.8189 44.818 18.7396 44.8475 18.7099C44.4837 18.3829 43.0576 17.9865 43.038 17.9766C42.5659 17.8577 42.2807 17.828 41.7791 17.8181C41.7791 17.8181 41.3464 18.7297 40.8645 17.9469C40.6875 17.6595 40.5793 17.5208 40.0679 17.5703C40.1368 17.9667 40.6678 18.046 40.6777 18.482C40.422 18.3334 40.1663 18.1748 39.9106 18.0163C39.8811 18.0361 39.8516 18.0658 39.8221 18.0955C39.7958 18.2673 39.7565 18.3994 39.704 18.4919C39.586 18.3631 39.4778 18.2244 39.3697 18.0955C39.35 18.1154 39.3107 18.1451 39.291 18.1649C39.2418 18.3234 39.1926 18.4721 39.1435 18.6306C38.8353 18.1021 38.6091 17.8016 38.4649 17.7289C38.1207 17.8577 38.0518 18.3631 37.6191 18.373C37.5306 18.2838 37.4913 18.1649 37.4126 18.0559C37.2454 18.0559 37.1864 18.0559 36.7635 18.3234C37.2257 17.7884 37.2356 17.7586 37.3339 17.5307C37.3044 17.4911 37.3044 17.4911 37.3044 17.4911C36.3504 17.2136 36.2816 17.3127 36.1636 17.4911C36.0652 17.4845 35.9243 17.392 35.7407 17.2136C35.1801 17.8676 34.9736 17.8181 34.5212 17.719C33.0165 18.9675 31.561 20.2755 30.1546 21.6529C30.9021 22.6042 29.8596 24.9328 29.1909 25.24C29.1909 25.3985 28.945 25.7421 28.4533 26.2705C28.4533 26.2705 28.4533 26.3597 28.4533 26.3994C28.3877 26.4588 28.2238 26.5744 27.9615 26.7462C28.1648 26.8585 28.568 26.7957 29.1712 26.5579C28.9942 26.7858 28.8171 27.0137 28.6401 27.2515C28.7286 27.2515 28.8466 27.2615 28.9253 27.2714C28.709 27.5885 28.7975 28.0344 28.4926 28.3217C28.1976 28.1335 28.1386 27.5885 27.6567 27.6975C27.8533 28.0641 28.0009 28.3118 28.2172 28.6586C27.6272 29.491 27.4305 29.6297 26.7715 29.6198C25.8012 31.2053 25.0243 32.5364 24.4407 33.6132C24.8604 33.2763 25.1652 33.0781 25.3554 33.0186C24.6276 34.2276 22.7 37.4282 24.8538 36.9526C24.9325 36.9327 25.0308 36.903 25.1095 36.8733C24.9521 37.0913 24.8046 37.3192 24.6473 37.5372C24.7161 37.5075 24.8145 37.4876 24.8931 37.4777C24.8931 37.5669 24.8538 37.6957 24.8145 37.775C24.8341 37.8047 24.8636 37.8444 24.8735 37.884C25.0702 37.8939 25.257 37.9038 25.4537 37.9137C26.6142 36.4472 26.6142 36.3679 26.5945 35.9022C27.3616 35.7536 27.7943 35.3968 28.0107 34.7428C28.5713 34.6536 28.709 34.0294 29.1613 33.8114C29.5252 33.633 29.8989 33.4447 30.2727 33.2664C30.5579 34.0096 31.0299 33.7024 32.8198 32.5529C32.8198 32.5727 32.8198 32.6025 32.8198 32.6322C32.9772 32.4043 33.1345 32.1764 33.2919 31.9485C33.2919 32.5232 33.5672 32.4043 33.941 32.1764C33.941 32.216 33.9606 32.2656 33.9606 32.2953C35.1342 32.3085 36.3013 31.9716 37.4618 31.2846C36.8323 31.2449 36.2521 30.6008 35.5637 31.0963C35.6325 30.9476 35.7014 30.8089 35.7702 30.6603C35.7702 30.6107 35.7604 30.6107 35.7407 30.6008C35.721 30.6008 35.7112 30.6008 35.6915 30.5909C35.6719 30.5909 35.662 30.5909 35.6424 30.581C35.6424 30.3135 35.8784 30.0955 36.1144 29.8874C36.3013 29.9567 36.4783 30.036 36.6651 30.1054C37.1077 29.5505 37.2356 29.9171 37.2651 30.1054C37.3142 30.3531 37.1077 30.6107 37.3142 30.8486C37.5109 30.7594 37.5404 30.7495 37.865 30.4918C37.8748 30.7098 37.8945 30.9179 37.9141 31.1359C38.4157 30.3927 38.4255 30.3828 38.5141 30.1252C38.455 30.0855 38.3469 30.0558 38.278 30.0657C38.1272 29.4448 37.924 29.0583 37.6683 28.9064C37.7765 28.8073 37.8846 28.7082 37.9928 28.6091C37.9076 28.5629 37.7765 28.5364 37.5994 28.5298C37.6781 28.4439 37.7961 28.3448 37.9535 28.2325C37.8256 28.1434 37.6978 28.0641 37.5699 27.9749C38.8091 27.6776 40.2646 28.6586 41.3366 27.3407L41.2579 27.3209C41.2579 27.3209 41.1989 27.311 41.1792 27.3011C41.1497 27.3011 41.1202 27.2912 41.1006 27.2813C41.0711 27.2813 41.0415 27.2714 41.012 27.2615C40.9825 27.2615 40.953 27.2515 40.9235 27.2416C40.894 27.2416 40.8645 27.2317 40.835 27.2218C40.8055 27.2218 40.776 27.2119 40.7465 27.202C40.717 27.202 40.6875 27.1921 40.6482 27.1822C40.7793 27.0368 40.8481 26.9113 40.8547 26.8056C40.658 26.7792 40.5367 26.7528 40.4908 26.7264C40.4908 26.7264 40.5301 26.6174 40.5498 26.5777C40.6875 26.5975 40.8154 26.6075 40.953 26.6273C40.9334 26.5381 40.9137 26.4192 40.894 26.3399C41.1399 26.439 41.2874 26.8056 41.6218 26.6471C42.0938 26.4291 42.0152 26.003 41.9365 25.8544C41.8086 25.5868 41.3759 25.5274 41.4448 25.131C41.9365 25.0616 42.4479 25.3985 42.9396 25.0914C42.9265 25.0517 42.7298 24.8502 42.3496 24.4869C42.6052 24.3614 42.7888 24.3085 42.9003 24.3284C42.8118 23.9419 42.5856 23.9617 42.0643 24.4076C42.1922 24.1302 43.569 22.7429 44.8672 22.4258C44.8869 22.3862 44.9164 22.3366 44.936 22.297C44.8311 22.2375 44.5787 22.1913 44.1788 22.1583C44.3853 21.8808 44.3853 21.8808 44.523 21.861C44.8475 21.8214 45.1426 22.0493 45.4671 22.0195C45.4868 21.9898 45.5065 21.9403 45.5261 21.9105C45.4147 21.8511 45.1754 21.7652 44.8082 21.6529C44.8672 21.5736 44.9852 21.5142 45.0836 21.5043C45.7327 21.425 46.3916 21.5835 47.0308 21.3655L47.0407 21.3854Z" fill="white"/>
<path d="M23.3491 30.1053C23.2311 30.145 23.1229 30.1945 23.0049 30.2341C22.9852 30.2341 22.9557 30.2441 22.9459 30.254C22.8574 30.3233 22.7885 30.4224 22.7197 30.5017C22.6214 30.6206 22.5132 30.7296 22.4148 30.8485C22.3952 30.7494 22.3853 30.6602 22.3657 30.5611C22.6705 30.145 22.9852 29.7387 23.3098 29.3225C23.3295 29.3225 23.359 29.3225 23.3786 29.3225C23.3393 29.3919 23.2901 29.4612 23.2508 29.5207C23.3491 29.6297 23.4573 29.7387 23.5556 29.8477C23.4704 29.993 23.4081 30.0723 23.3688 30.0855L23.3491 30.1053Z" fill="white"/>
<path d="M35.7997 16.9459C35.6817 16.9757 35.5145 16.9955 35.3867 17.0054C35.6325 16.8072 35.8686 16.6189 36.1144 16.4307C36.1144 16.5793 36.1046 16.6487 36.0751 16.8667C35.9964 16.8865 35.8882 16.9261 35.7997 16.9459Z" fill="white"/>
<path d="M16.7796 47.902C16.6616 48.0704 16.5534 48.229 16.4354 48.3974C16.3272 48.3281 16.2092 48.2686 16.1108 48.1992C16.1797 47.9218 16.2485 47.6443 16.3173 47.3669C16.0616 47.5948 15.8059 47.8227 15.5502 48.0506C15.5404 48.0011 15.5207 47.9416 15.5109 47.902C15.6584 47.7335 15.8158 47.5651 15.9633 47.3966C15.9338 47.3867 15.9043 47.3669 15.8748 47.357C15.8453 47.3471 15.8158 47.3272 15.7863 47.3173C15.7568 47.3074 15.7273 47.2876 15.6978 47.2777C15.6683 47.2678 15.6388 47.248 15.6093 47.2381C15.5798 47.2282 15.5502 47.2083 15.5207 47.1984C15.4912 47.1885 15.4617 47.1687 15.4322 47.1588C15.4027 47.1489 15.3732 47.1291 15.3437 47.1192C15.3142 47.1092 15.2847 47.0894 15.2552 47.0795C15.2257 47.0696 15.1962 47.0498 15.1667 47.0399C15.1372 47.03 15.1077 47.0102 15.0782 47.0002C15.0487 46.9903 15.0192 46.9705 14.9897 46.9606C14.9602 46.9507 14.9307 46.9309 14.9012 46.921C14.8717 46.9111 14.8422 46.8912 14.8127 46.8813C14.7831 46.8714 14.7536 46.8516 14.7241 46.8417C14.6946 46.8318 14.6651 46.812 14.6356 46.8021C14.6061 46.7922 14.5766 46.7723 14.5471 46.7624C14.7438 46.5841 14.9798 46.4453 15.1569 46.2372C15.2945 46.0688 15.3142 45.8409 15.4322 45.6724C15.6879 45.286 16.5632 44.2059 17.1631 44.1167C16.8681 44.4437 16.573 44.7707 16.278 45.0977C16.396 45.0878 16.7697 45.0382 16.4649 45.4346C16.4157 45.4941 16.3567 45.5634 16.2977 45.6229C16.5534 45.7715 16.8091 45.9102 17.0746 46.0589C17.0353 46.3165 16.7992 46.485 16.7796 46.7525C16.7697 46.8615 16.9664 46.9408 16.9959 46.9507C16.6419 47.2414 16.4616 47.4263 16.455 47.5056C16.5435 47.5254 16.6419 47.5353 16.7304 47.5452C16.6911 47.6443 16.6517 47.7533 16.6124 47.8524C16.6812 47.8524 16.7501 47.8623 16.8287 47.8723C16.8091 47.8921 16.7894 47.9317 16.7796 47.9515V47.902Z" fill="white"/>
<path d="M27.5583 28.5693C27.3813 28.7575 27.0863 28.7773 26.9781 28.7873C27.0273 28.708 27.0765 28.6386 27.1158 28.5593C27.0371 28.4702 26.9584 28.381 26.8798 28.2918C27.0469 28.1828 27.2928 28.0441 27.5092 28.1333C27.696 28.2323 27.6764 28.4404 27.5485 28.5792L27.5583 28.5693Z" fill="white"/>
<path d="M14.1931 45.1275C14.1242 44.9689 14.0652 44.8203 13.9964 44.6618C14.0456 44.5428 14.1046 44.4339 14.1538 44.3149C14.3701 44.4636 14.2521 44.9491 14.2029 45.1572V45.1275H14.1931Z" fill="white"/>
<path d="M13.0719 47.5057C12.9539 47.5255 12.8654 47.4858 12.8064 47.3967C12.8654 47.2579 12.9244 47.1192 12.9736 46.9805C13.0719 47.1489 13.0719 47.1588 13.0818 47.1985C13.1014 47.2976 13.0818 47.3967 13.0916 47.4957H13.0621L13.0719 47.5057Z" fill="white"/>
</g>
</g>
<defs>
<radialGradient id="paint0_radial_880_2623" cx="0" cy="0" r="1" gradientUnits="userSpaceOnUse" gradientTransform="translate(77.9508 49.2496) scale(86.9477 87.6064)">
<stop stop-color="#B0C2E7"/>
<stop offset="0.01" stop-color="#AEC1E7"/>
<stop offset="0.18" stop-color="#99B7EE"/>
<stop offset="0.35" stop-color="#8DB1F3"/>
<stop offset="0.51" stop-color="#89B0F5"/>
<stop offset="0.58" stop-color="#78A7EE"/>
<stop offset="0.73" stop-color="#4B90DC"/>
<stop offset="0.93" stop-color="#056BC1"/>
<stop offset="0.95" stop-color="#0069BF"/>
<stop offset="1" stop-color="#5A9FE0"/>
</radialGradient>
<clipPath id="clip0_880_2623">
<rect width="132" height="133" fill="white" transform="translate(0.808228 0.585938)"/>
</clipPath>
</defs>
</svg>
